<svg xmlns="http://www.w3.org/2000/svg" viewBox="0 0 231 191.3"><defs><style>.cls-1{fill:#f4cd27;stroke:#fbb03b;stroke-width:0.85px;}.cls-1,.cls-3{stroke-miterlimit:10;}.cls-2{fill:#fff;}.cls-3{fill:none;stroke:#fff;stroke-width:3.27px;}</style></defs><title>act1_economico</title><g id="Layer_6" data-name="Layer 6"><rect class="cls-1" x="12.8" y="0.4" width="67" height="74"/><path class="cls-2" d="M72.8,22.7l-15.4,8,6.1,3.9-1.1,1.6-1.7,2.4-8.9-4.3-1.9-.9-.9,2-3.3,7.5-2.1,5.2-4.4-2.9L36,43l-3.3-2.1-1.8-1.2-.8,1.9-2,5-1.9,5C25,55,23.8,58.4,22.7,61.9c1.9-3.1,3.7-6.3,5.5-9.4l2.5-4.7c.6-1,1.1-2,1.6-3A7.9,7.9,0,0,0,33.8,46L37,48.4l6.3,4.7,2.1,1.5,1.1-2.5c1.1-2.5,2.2-5,3.2-7.5l2.4-5.7,8.4,3.4,1.5.5.6-1.1,2.3-3.9.9-1.7L72,40Z"/><polyline class="cls-3" points="23.2 12.3 23.2 61.3 72.2 61.3"/><path class="cls-2" d="M18.2,87.9c.3,0,.6.2,1,.7a2.4,2.4,0,0,1,.4,1.2c0,.4,0,.5-.1.5h-.9a2.8,2.8,0,0,0-1.8,1,8.1,8.1,0,0,0-1.7,2.3,4.3,4.3,0,0,0-.7,2.3,1.5,1.5,0,0,0,.1.7l.6.2,2.1-.3,1.7-.7.8-.3.2.2c.1.1.1.2.1.4s-.3.7-.8,1.2a5.6,5.6,0,0,1-2,1.2,5.3,5.3,0,0,1-2,.5,2.9,2.9,0,0,1-2-1.1,3.3,3.3,0,0,1-1-2.2,7.4,7.4,0,0,1,.9-3.2,10.8,10.8,0,0,1,2.4-3.2A3.8,3.8,0,0,1,18.2,87.9Z"/><path class="cls-2" d="M26.5,91.5a.5.5,0,0,1,.5-.3c.3,0,.5.2.9.6a1.6,1.6,0,0,1,.4,1,10.6,10.6,0,0,1-.7,2.2c-.4,1.4-.8,2.5-1,3.3s-.4.6-.7.6l-.5-.2a.8.8,0,0,1-.2-.7,7.2,7.2,0,0,1,.1-1.3c-1,1.5-1.8,2.2-2.4,2.2a2.2,2.2,0,0,1-1.2-.6,1.7,1.7,0,0,1-.6-1.2,9.9,9.9,0,0,1,.8-3.7c.5-1.5,1-2.2,1.5-2.2a.9.9,0,0,1,.8.4,1.1,1.1,0,0,1,.3.8,2.7,2.7,0,0,1-.4,1A11.6,11.6,0,0,0,23,96.9h.1c.1,0,.4-.2.8-.7a15.1,15.1,0,0,0,1.4-2.1A11.1,11.1,0,0,0,26.5,91.5Z"/><path class="cls-2" d="M34.9,94.6c.2.2.3.3.3.5a1.7,1.7,0,0,1-.2.8,5.1,5.1,0,0,0-.2.9c0,.3-.1.4-.1.6a.4.4,0,0,1-.1.3v.9c0,.1-.1.1-.1.2H34c-.2,0-.3-.1-.5-.4a3.1,3.1,0,0,1-.5-1,3.8,3.8,0,0,1-2.4,1.4,2.5,2.5,0,0,1-2.1-2.1,5.7,5.7,0,0,1,.6-2.1,13.7,13.7,0,0,1,1.8-2.4,2.9,2.9,0,0,1,2.2-1.1,2.5,2.5,0,0,1,1.5.7c.5.5.8.9.8,1.3A3,3,0,0,1,34.9,94.6ZM30.6,97a3.3,3.3,0,0,0,1.6-.8,3.2,3.2,0,0,0,1.2-2.1c0-.1.1-.2.3-.2s-.2-.8-.3-.8a2.1,2.1,0,0,0-1.4.7,8.8,8.8,0,0,0-1.2,1.7,3,3,0,0,0-.4,1.3V97Z"/><path class="cls-2" d="M39.3,87.6a2.7,2.7,0,0,1,.5,1.3,19.7,19.7,0,0,1-.1,2.1c-.2,1-.3,1.9-.4,2.5q-1.2,5.4-1.8,5.4a1.5,1.5,0,0,1-.8-.5,2.1,2.1,0,0,1-.5-.9,9.3,9.3,0,0,0,.4-1.6,39.1,39.1,0,0,0,.9-3.9,37.3,37.3,0,0,0,.4-4.6c0-.3.1-.4.4-.4S38.9,87.2,39.3,87.6Z"/><path class="cls-2" d="M45.1,100l1-.3.6.2c.1.2.2.3.2.5l-.2.4-.8.5-1.1.8-.8.6a1,1,0,0,1-.6.2.7.7,0,0,1-.6-.4,1.6,1.6,0,0,1-.3-.8,19.6,19.6,0,0,1,1.2-3.4,2.4,2.4,0,0,1-1.4.6,1.6,1.6,0,0,1-1.3-.8,1.9,1.9,0,0,1-.7-1.3,3.7,3.7,0,0,1,.4-1.6,8.1,8.1,0,0,1,1-1.8,7.5,7.5,0,0,1,1.5-1.6,2.9,2.9,0,0,1,1.7-.6,1.7,1.7,0,0,1,1.4.7,1.7,1.7,0,0,1,.7,1.3.4.4,0,0,1-.4.4l-.6-.3-.6-.3a2.2,2.2,0,0,0-1.5.8,7.5,7.5,0,0,0-1.4,1.7,3.6,3.6,0,0,0-.5,1.3V97h.3a2.7,2.7,0,0,0,1.5-.9A3.3,3.3,0,0,0,45.1,94a.5.5,0,0,1,.4-.2,1.6,1.6,0,0,1,.9.4l.6.6a8.4,8.4,0,0,1-.2,1l-.9,2Z"/><path class="cls-2" d="M53.3,91.5c0-.2.2-.3.4-.3a1.2,1.2,0,0,1,.9.6,1.6,1.6,0,0,1,.4,1,15.3,15.3,0,0,1-.6,2.2c-.5,1.4-.9,2.5-1.1,3.3a.7.7,0,0,1-.7.6l-.5-.2a.8.8,0,0,1-.2-.7,3.7,3.7,0,0,1,.2-1.3c-1.1,1.5-1.9,2.2-2.5,2.2a2.2,2.2,0,0,1-1.2-.6,1.7,1.7,0,0,1-.6-1.2,9.9,9.9,0,0,1,.8-3.7c.5-1.5,1-2.2,1.5-2.2a.9.9,0,0,1,.8.4,1.1,1.1,0,0,1,.3.8,4.3,4.3,0,0,1-.3,1,10,10,0,0,0-1.2,3.5h.1c.1,0,.4-.2.8-.7A9.5,9.5,0,0,0,52,94.2,8.4,8.4,0,0,0,53.3,91.5Z"/><path class="cls-2" d="M57,91.2a1.2,1.2,0,0,1,.9.6,1.7,1.7,0,0,1,.4,1.1,8.5,8.5,0,0,1-.5,2.1c-.3,1.1-.7,2.3-1,3.3a.7.7,0,0,1-.7.6,1.1,1.1,0,0,1-.9-.9c0-.3.2-.9.4-2a16.8,16.8,0,0,0,.6-2.7,9.1,9.1,0,0,1,.4-1.6C56.7,91.3,56.8,91.2,57,91.2Zm-.2-1.9a1.3,1.3,0,0,1,.3-.8.9.9,0,0,1,.7-.4c.2,0,.5.2.8.8a2.8,2.8,0,0,1,.5,1.2.5.5,0,0,1-.3.5c-.1.2-.3.2-.5.2s-.6-.2-1-.6A1.2,1.2,0,0,1,56.8,89.3Z"/><path class="cls-2" d="M64.9,95.3a3.9,3.9,0,0,1-2,.6l-1.8-.2a2.5,2.5,0,0,0-.1.8c0,.3,0,.5.1.6l.7.2,1.9-.2.9-.2c.4,0,.6.1.6.4s-.3.7-1,1.1a5.1,5.1,0,0,1-2.2.5,2.6,2.6,0,0,1-2-.8,2.2,2.2,0,0,1-.8-1.9,4.6,4.6,0,0,1,.6-2.2,6.4,6.4,0,0,1,1.6-2,2.8,2.8,0,0,1,1.9-.8,2.3,2.3,0,0,1,1.8.9,2.9,2.9,0,0,1,.8,1.9C65.9,94.5,65.6,94.9,64.9,95.3Zm-1.1-2-.5-.3a1.2,1.2,0,0,0-.8.4l-.8,1h.4c1.4,0,2.1-.2,2.1-.7S64.1,93.5,63.8,93.3Z"/><path class="cls-2" d="M67.3,93.7V92c0-.6.2-.8.6-.8a.7.7,0,0,1,.6.2c.2.1.3.4.4.7a4.1,4.1,0,0,1,1.1-.7l1.1-.3c.7,0,1.1.2,1.1.5s0,.3-.1.4-.1.2-.2.2a.3.3,0,0,0-.1.2h-.2l-.5.3a4,4,0,0,0-1.2,1,5.4,5.4,0,0,0-.7,1.7,12.3,12.3,0,0,1-.8,2.5c-.2.6-.5.9-.8.9a.7.7,0,0,1-.7-.5,1.3,1.3,0,0,1-.3-.8,3.5,3.5,0,0,1,.3-1.2,10.3,10.3,0,0,0,.4-1.4A5.3,5.3,0,0,0,67.3,93.7Z"/><path class="cls-2" d="M81.2,94.1c-.1.5-.3,1.1-.5,1.8a4.8,4.8,0,0,0-.4,1.2h.3l1.2-.3,1.1-.3c.2,0,.3.1.3.5s-.3.7-1,1.2a3.1,3.1,0,0,1-2.1.7,2.1,2.1,0,0,1-1.1-.5c-.5-.4-.7-.7-.7-1.1a10.6,10.6,0,0,1,.5-1.9l.6-2-.9.2a.7.7,0,0,1-.6-.4,1.6,1.6,0,0,1-.3-.8c0-.3.7-.6,2.3-.8a12,12,0,0,0,.3-2.4c0-.3.1-.5.4-.5a1.9,1.9,0,0,1,1,.5,1.2,1.2,0,0,1,.6.9,3.4,3.4,0,0,1-.2,1.3h1.1c.8,0,1.2.1,1.2.5s-.3.4-.7.5a6.4,6.4,0,0,1-2,.5C81.5,93.2,81.4,93.6,81.2,94.1Z"/><path class="cls-2" d="M86.2,91.2a1.2,1.2,0,0,1,.9.6,1.7,1.7,0,0,1,.4,1.1c0,.2-.2.9-.5,2.1s-.7,2.3-1,3.3a.8.8,0,0,1-.8.6.5.5,0,0,1-.5-.3.6.6,0,0,1-.3-.6,9.2,9.2,0,0,1,.4-2c.3-1,.4-1.9.6-2.7a4.6,4.6,0,0,1,.4-1.6C85.9,91.3,86,91.2,86.2,91.2Zm-.3-1.9c0-.3.2-.5.4-.8a.9.9,0,0,1,.7-.4c.2,0,.5.2.8.8a2.8,2.8,0,0,1,.5,1.2.5.5,0,0,1-.3.5c-.1.2-.3.2-.5.2s-.6-.2-1-.6A1.4,1.4,0,0,1,85.9,89.3Z"/><path class="cls-2" d="M93.8,91.2c.4,0,.8.3,1.2,1a3.7,3.7,0,0,1,.7,1.9,2.9,2.9,0,0,1-.6,1.5,7.9,7.9,0,0,1-1.2,1.5l-1.8,1.3a4.9,4.9,0,0,1-2,.5H90c-.7,2.6-1.1,3.9-1.4,3.9s-.4-.2-.6-.5a1.6,1.6,0,0,1-.4-.9c0-.2.2-.9.4-2.1a34,34,0,0,0,1.3-7.9.5.5,0,0,1,.5-.5l.9.4a1.6,1.6,0,0,1,.7,1.1A3.5,3.5,0,0,1,93.8,91.2Zm-1.2,4.6A3,3,0,0,0,93.7,94c0-.6-.2-.8-.4-.8a1.9,1.9,0,0,0-1.4.7,3.5,3.5,0,0,0-.6.9l-.6,1.3-.3,1A4.6,4.6,0,0,0,92.6,95.8Z"/><path class="cls-2" d="M97.5,92.8c.8-1.1,1.6-1.7,2.3-1.7a2.7,2.7,0,0,1,2,.9,2.5,2.5,0,0,1,.7,1.9,5,5,0,0,1-.5,2.3,5.8,5.8,0,0,1-1.5,1.9,3.7,3.7,0,0,1-2.1.8,1.6,1.6,0,0,1-1.4-.7,2.8,2.8,0,0,1-.6-1.8A6.6,6.6,0,0,1,97.5,92.8Zm2.5,3.1a4.1,4.1,0,0,0,.6-2,2.4,2.4,0,0,0-.3-1.4A4.5,4.5,0,0,0,99,94.1a4.8,4.8,0,0,0-.6,2.1c0,.6,0,1,.2,1.2A4.1,4.1,0,0,0,100,95.9Z"/><path class="cls-2" d="M115.5,87q.3,0,.9.6a2.2,2.2,0,0,1,.6,1.2c0,.2-.2,1-.5,2.4l-.7,2.5c-.8,3.5-1.3,5.2-1.7,5.2a1.5,1.5,0,0,1-1.1-1.1h0a4.6,4.6,0,0,1-2.1,1.2,1.6,1.6,0,0,1-1.3-.7,2.2,2.2,0,0,1-.6-1.3,5.3,5.3,0,0,1,.1-1.2,8.8,8.8,0,0,1,.5-1.5l.8-1.5a5.2,5.2,0,0,1,1-1.1,2,2,0,0,1,1.3-.4,2.1,2.1,0,0,1,1.6.9,19,19,0,0,0,.7-4.7C115,87.1,115.2,87,115.5,87ZM111,97a2.8,2.8,0,0,0,1.3-.6,4.3,4.3,0,0,0,1.3-1.7v-.5a2.4,2.4,0,0,0-.2-.8l-.5-.3a1.2,1.2,0,0,0-.9.4,4.7,4.7,0,0,0-.7,1.2,7.6,7.6,0,0,0-.5,2.1c0,.1,0,.1.1.2Z"/><path class="cls-2" d="M122.9,95.3a4.2,4.2,0,0,1-2.1.6l-1.7-.2a2.5,2.5,0,0,0-.1.8c0,.3,0,.5.1.6a1,1,0,0,0,.7.2l1.9-.2.8-.2c.4,0,.6.1.6.4s-.3.7-.9,1.1a5.6,5.6,0,0,1-2.3.5,2.8,2.8,0,0,1-2-.8,2.6,2.6,0,0,1-.8-1.9,4.7,4.7,0,0,1,.7-2.2,5.3,5.3,0,0,1,1.6-2,2.6,2.6,0,0,1,1.9-.8,2.6,2.6,0,0,1,1.8.9,2.9,2.9,0,0,1,.8,1.9C123.9,94.5,123.5,94.9,122.9,95.3Zm-1.1-2-.6-.3c-.2,0-.4.1-.7.4a3.9,3.9,0,0,0-.8,1h.4c1.3,0,2-.2,2-.7S122,93.5,121.8,93.3Z"/><path class="cls-2" d="M13.7,109.2a1.2,1.2,0,0,1,1,.6,2.5,2.5,0,0,1,.4,1.1c0,.2-.2.9-.5,2.1s-.7,2.3-1.1,3.3a.7.7,0,0,1-.7.6.9.9,0,0,1-.6-.3c-.2-.1-.2-.3-.2-.6a15.7,15.7,0,0,1,.3-2,16.8,16.8,0,0,0,.6-2.7c.2-.7.3-1.3.4-1.6S13.6,109.2,13.7,109.2Zm-.2-1.9a1.3,1.3,0,0,1,.3-.8c.3-.3.5-.4.7-.4s.5.2.8.8a1.9,1.9,0,0,1,.5,1.2.8.8,0,0,1-.2.5.6.6,0,0,1-.5.2,1.4,1.4,0,0,1-1-.6A1.4,1.4,0,0,1,13.5,107.3Z"/><path class="cls-2" d="M21.4,109.2a1.6,1.6,0,0,1,1.4.7,2,2,0,0,1,.6,1.5A8.2,8.2,0,0,1,23,114a12.3,12.3,0,0,1-.9,2.2,1.3,1.3,0,0,1-1,.7c-.3,0-.5-.2-.5-.7a11.6,11.6,0,0,1,.5-2.2,13,13,0,0,0,.4-1.9c0-.4-.1-.6-.2-.6l-.4.2-.3.3-.2.4-.3.4-.3.5-.3.5a1.7,1.7,0,0,1-.2.5c-1,1.7-1.7,2.6-2.2,2.6a1.5,1.5,0,0,1-.8-.5,2.8,2.8,0,0,1-.5-.8,4.5,4.5,0,0,1,.2-.8,1.6,1.6,0,0,0,.3-.8c.1-.2.1-.4.2-.6s.1-.5.1-.7a3.5,3.5,0,0,1,.1-.6v-.7a7.3,7.3,0,0,1,.3-2.1c0-.2.1-.3.2-.3a1.8,1.8,0,0,1,1.1.5,1.4,1.4,0,0,1,.5.9,11.4,11.4,0,0,1-.5,2.6l1.8-2.7C20.6,109.5,21.1,109.2,21.4,109.2Z"/><path class="cls-2" d="M27.8,112.1a18.9,18.9,0,0,0-.6,1.8l-.3,1.2h.2l1.2-.3,1.1-.3c.2,0,.4.1.4.5s-.4.7-1,1.2a3.5,3.5,0,0,1-2.1.7,2.1,2.1,0,0,1-1.2-.5c-.4-.4-.7-.7-.7-1.1a10.6,10.6,0,0,1,.5-1.9l.6-2-.9.2a.7.7,0,0,1-.6-.4,1.6,1.6,0,0,1-.3-.8c0-.3.8-.6,2.3-.8a12,12,0,0,0,.3-2.4c0-.3.1-.5.4-.5a1.9,1.9,0,0,1,1,.5c.4.3.7.6.7.9a8.3,8.3,0,0,1-.2,1.3h1.1c.7,0,1.1.1,1.1.5s-.2.4-.7.5a6.4,6.4,0,0,1-2,.5A10.4,10.4,0,0,0,27.8,112.1Z"/><path class="cls-2" d="M36.7,113.3a3.6,3.6,0,0,1-2,.6l-1.8-.2c0,.3-.1.6-.1.8a3.5,3.5,0,0,0,.1.6l.7.2,2-.2.8-.2c.4,0,.6.1.6.4s-.3.7-1,1.1a5.1,5.1,0,0,1-2.2.5,2.8,2.8,0,0,1-2-.8,2.6,2.6,0,0,1-.8-1.9,4.6,4.6,0,0,1,.6-2.2,8.3,8.3,0,0,1,1.6-2,2.8,2.8,0,0,1,1.9-.8,2.3,2.3,0,0,1,1.8.9,2.9,2.9,0,0,1,.8,1.9C37.7,112.5,37.4,112.9,36.7,113.3Zm-1-2a.8.8,0,0,0-1.3.1l-.9,1h.4c1.4,0,2.1-.2,2.1-.7S35.9,111.5,35.7,111.3Z"/><path class="cls-2" d="M39.1,111.7V110c0-.6.1-.8.5-.8a.7.7,0,0,1,.6.2c.2.1.3.4.4.7l1.1-.7,1.1-.3c.7,0,1.1.2,1.1.5s0,.3-.1.4a.3.3,0,0,0-.1.2c-.1,0-.1.1-.2.2h-.2l-.5.3a5.8,5.8,0,0,0-1.2,1,5.4,5.4,0,0,0-.7,1.7,12.3,12.3,0,0,1-.8,2.5c-.2.6-.5.9-.8.9a.8.8,0,0,1-.7-.5,1.3,1.3,0,0,1-.3-.8,3.5,3.5,0,0,1,.3-1.2A4.3,4.3,0,0,0,39,113,5.3,5.3,0,0,0,39.1,111.7Z"/><path class="cls-2" d="M53.8,109.2a1,1,0,0,1,1,.7,3.1,3.1,0,0,1,.4,1.5c0,.4-.1,1-.2,1.9a22.5,22.5,0,0,1-.8,2.4q-.6,1.2-1.2,1.2c-.3,0-.5-.2-.5-.7a17.8,17.8,0,0,1,.4-2.2,8.2,8.2,0,0,0,.4-2c0-.3,0-.5-.1-.5s-.5.3-.8.7l-1,1.9a12,12,0,0,0-.8,1.5c-.1.2-.2.3-.2.5a.5.5,0,0,0-.2.4c-.4.5-.8.5-1.3,0a1,1,0,0,1-.4-.8s.1-.4.2-1.1a9.5,9.5,0,0,0,.3-2.5c0-.4-.1-.6-.2-.6l-.4.4-.7,1.3c-.4.6-.6,1.1-.9,1.6s-1.5,2.1-1.9,2.1-.5-.2-.8-.6a1.5,1.5,0,0,1-.5-.8,7,7,0,0,1,.3-1.4,9.3,9.3,0,0,0,.5-2.4,10.3,10.3,0,0,1,.2-2c0-.4.1-.7.3-.7a1.6,1.6,0,0,1,1.1.5,1.1,1.1,0,0,1,.5.9,14.3,14.3,0,0,1-.6,3.1,14,14,0,0,1,1.8-3.4,2.1,2.1,0,0,1,1.4-.9c.3,0,.6.2,1,.7a2.2,2.2,0,0,1,.6,1.3v1.1a4.9,4.9,0,0,1,1.4-2.1A2.4,2.4,0,0,1,53.8,109.2Z"/><path class="cls-2" d="M61.8,113.3a4.2,4.2,0,0,1-2.1.6l-1.7-.2a3.1,3.1,0,0,0-.2.8.8.8,0,0,0,.2.6,1,1,0,0,0,.7.2l1.9-.2.8-.2c.4,0,.6.1.6.4s-.3.7-.9,1.1a5.6,5.6,0,0,1-2.3.5,2.8,2.8,0,0,1-2-.8,2.6,2.6,0,0,1-.8-1.9,3.8,3.8,0,0,1,.7-2.2,5.3,5.3,0,0,1,1.6-2,2.5,2.5,0,0,1,1.9-.8,2.2,2.2,0,0,1,1.7.9,2.6,2.6,0,0,1,.9,1.9C62.8,112.5,62.4,112.9,61.8,113.3Zm-1.1-2a.9.9,0,0,0-.6-.3c-.2,0-.4.1-.7.4a3.9,3.9,0,0,0-.8,1H59c1.3,0,2-.2,2-.7S60.9,111.5,60.7,111.3Z"/><path class="cls-2" d="M69.8,105q.3,0,.9.6a2.2,2.2,0,0,1,.6,1.2c0,.2-.2,1-.5,2.4l-.7,2.5c-.8,3.5-1.4,5.2-1.7,5.2a1.5,1.5,0,0,1-1.1-1.1h0a4.3,4.3,0,0,1-2.2,1.2,1.5,1.5,0,0,1-1.2-.7,2.2,2.2,0,0,1-.6-1.3,5.3,5.3,0,0,1,.1-1.2,8.8,8.8,0,0,1,.5-1.5,10.9,10.9,0,0,1,.8-1.5,5.2,5.2,0,0,1,1-1.1,2,2,0,0,1,1.3-.4,1.8,1.8,0,0,1,1.5.9,21,21,0,0,0,.8-4.7C69.3,105.1,69.5,105,69.8,105Zm-4.5,10a2.8,2.8,0,0,0,1.3-.6,4.3,4.3,0,0,0,1.3-1.7v-.5a1.3,1.3,0,0,0-.3-.8.5.5,0,0,0-.5-.3,1,1,0,0,0-.8.4,4.7,4.7,0,0,0-.7,1.2,7.6,7.6,0,0,0-.5,2.1c0,.1,0,.1.1.2Z"/><path class="cls-2" d="M73.1,109.2a1.2,1.2,0,0,1,1,.6,2.5,2.5,0,0,1,.4,1.1c0,.2-.2.9-.5,2.1s-.7,2.3-1.1,3.3a.7.7,0,0,1-.7.6.9.9,0,0,1-.6-.3.8.8,0,0,1-.2-.6,9.2,9.2,0,0,1,.4-2c.2-1,.4-1.9.5-2.7s.3-1.3.4-1.6S73,109.2,73.1,109.2Zm-.2-1.9a1,1,0,0,1,.4-.8.8.8,0,0,1,.7-.4c.2,0,.4.2.8.8a2.4,2.4,0,0,1,.4,1.2.8.8,0,0,1-.2.5.6.6,0,0,1-.5.2c-.3,0-.6-.2-1-.6A1.4,1.4,0,0,1,72.9,107.3Z"/><path class="cls-2" d="M81.7,112.6c.2.2.3.3.3.5s-.1.4-.2.8a5.1,5.1,0,0,0-.2.9,1.5,1.5,0,0,0-.1.6.4.4,0,0,0-.1.3v.3a.3.3,0,0,0-.1.2c0,.1,0,.2-.1.2v.4h-.3a.7.7,0,0,1-.6-.4,3,3,0,0,1-.4-1,4.4,4.4,0,0,1-2.4,1.4,2.5,2.5,0,0,1-2.1-2.1,5.7,5.7,0,0,1,.6-2.1,8,8,0,0,1,1.8-2.4,2.9,2.9,0,0,1,2.2-1.1,2.1,2.1,0,0,1,1.4.7c.6.5.9.9.9,1.3A3,3,0,0,1,81.7,112.6ZM77.3,115a3,3,0,0,0,1.6-.8,3.3,3.3,0,0,0,1.3-2.1l.2-.2c0-.5-.1-.8-.2-.8a2.1,2.1,0,0,0-1.4.7,8.8,8.8,0,0,0-1.2,1.7,3.6,3.6,0,0,0-.5,1.3c0,.1,0,.2.1.2Z"/><path class="cls-2" d="M83,114.5a5.6,5.6,0,0,1,.6-2.3,9.1,9.1,0,0,1,1.8-2.1,3.2,3.2,0,0,1,2.1-.9,1.6,1.6,0,0,1,1.1.7,2.1,2.1,0,0,1,.5,1.2c0,.2-.1.4-.3.4l-.5-.2-.7-.2q-.3,0-.9.6a5.3,5.3,0,0,0-1.1,1.4,2.8,2.8,0,0,0-.5,1.2.8.8,0,0,0,.2.6h2.1l.8-.3h.4c.3,0,.5.1.5.4s-.4.9-1.2,1.3a4.1,4.1,0,0,1-2.3.7,3.2,3.2,0,0,1-1.7-.8A2.4,2.4,0,0,1,83,114.5Z"/><path class="cls-2" d="M92,109.2a1.2,1.2,0,0,1,1,.6,2.5,2.5,0,0,1,.4,1.1c0,.2-.2.9-.5,2.1s-.7,2.3-1.1,3.3a.7.7,0,0,1-.7.6l-.6-.3c-.2-.1-.2-.3-.2-.6a15.7,15.7,0,0,1,.3-2,16.8,16.8,0,0,0,.6-2.7c.2-.7.3-1.3.4-1.6S91.9,109.2,92,109.2Zm-.2-1.9a1.3,1.3,0,0,1,.3-.8c.3-.3.5-.4.7-.4s.5.2.8.8a2.8,2.8,0,0,1,.5,1.2.8.8,0,0,1-.2.5.6.6,0,0,1-.5.2,1.4,1.4,0,0,1-1-.6A1.4,1.4,0,0,1,91.8,107.3Z"/><path class="cls-2" d="M95.3,110.8c.8-1.1,1.6-1.7,2.3-1.7a2.3,2.3,0,0,1,1.9.9,2.2,2.2,0,0,1,.8,1.9,6.8,6.8,0,0,1-.5,2.3,5.8,5.8,0,0,1-1.5,1.9,3.7,3.7,0,0,1-2.1.8,1.5,1.5,0,0,1-1.4-.7,2.4,2.4,0,0,1-.7-1.8A6,6,0,0,1,95.3,110.8Zm2.5,3.1a5.3,5.3,0,0,0,.5-2,2.6,2.6,0,0,0-.2-1.4,3.6,3.6,0,0,0-1.3,1.6,4.8,4.8,0,0,0-.6,2.1,3.5,3.5,0,0,0,.1,1.2A4.3,4.3,0,0,0,97.8,113.9Zm.8-5.1-.5-.2a1.3,1.3,0,0,1-.1-.6,1.1,1.1,0,0,1,.1-.5l.6-.6.6-.6.4-.3.3-.3.3-.2h.4c.2,0,.4.2.6.4a1.3,1.3,0,0,1,.3.8v.4l-.2.3-.4.2-.6.3-.6.4-.5.3Z"/><path class="cls-2" d="M106.5,109.2a1.7,1.7,0,0,1,1.4.7,2,2,0,0,1,.6,1.5,8.2,8.2,0,0,1-.4,2.6,12.3,12.3,0,0,1-.9,2.2,1.3,1.3,0,0,1-1,.7c-.3,0-.5-.2-.5-.7a6.8,6.8,0,0,1,.5-2.2,13,13,0,0,0,.4-1.9c0-.4-.1-.6-.2-.6l-.4.2-.3.3-.3.4-.2.4-.3.5-.3.5-.3.5c-.9,1.7-1.6,2.6-2.2,2.6s-.4-.2-.8-.5a1.8,1.8,0,0,1-.4-.8,1.5,1.5,0,0,1,.2-.8l.3-.8c.1-.2.1-.4.2-.6a1.7,1.7,0,0,1,.1-.7v-.6a1.5,1.5,0,0,0,.1-.7c.1-1.3.2-2,.2-2.1s.2-.3.3-.3a1.6,1.6,0,0,1,1,.5,1.2,1.2,0,0,1,.6.9,11.4,11.4,0,0,1-.5,2.6,15.8,15.8,0,0,1,1.8-2.7C105.7,109.5,106.2,109.2,106.5,109.2Z"/><path class="cls-2" d="M121.5,105q.3,0,.9.6a2.2,2.2,0,0,1,.6,1.2c0,.2-.2,1-.5,2.4a14.8,14.8,0,0,0-.6,2.5c-.8,3.5-1.4,5.2-1.8,5.2s-.4-.1-.7-.4a.9.9,0,0,1-.4-.7h0a4.6,4.6,0,0,1-2.1,1.2,1.6,1.6,0,0,1-1.3-.7,2.2,2.2,0,0,1-.6-1.3,6,6,0,0,1,.2-1.2,4.4,4.4,0,0,1,.5-1.5,10.1,10.1,0,0,1,.7-1.5,3.8,3.8,0,0,1,1.1-1.1,1.9,1.9,0,0,1,2.8.5,29.6,29.6,0,0,0,.8-4.7C121.1,105.1,121.2,105,121.5,105Zm-4.4,10,1.2-.6a4.6,4.6,0,0,0,1.4-1.7,2,2,0,0,1-.1-.5,1.2,1.2,0,0,0-.2-.8l-.5-.3a1.2,1.2,0,0,0-.9.4,2.7,2.7,0,0,0-.6,1.2,5.2,5.2,0,0,0-.5,2.1v.2Z"/><path class="cls-2" d="M128.9,113.3a4.2,4.2,0,0,1-2.1.6l-1.7-.2a2.5,2.5,0,0,0-.1.8c0,.3,0,.5.1.6a1,1,0,0,0,.7.2l1.9-.2.9-.2c.4,0,.6.1.6.4s-.3.7-1,1.1a5.1,5.1,0,0,1-2.2.5,3,3,0,0,1-2.1-.8,2.5,2.5,0,0,1-.7-1.9,4.6,4.6,0,0,1,.6-2.2,6.4,6.4,0,0,1,1.6-2,2.6,2.6,0,0,1,1.9-.8,2.4,2.4,0,0,1,1.8.9,2.9,2.9,0,0,1,.8,1.9C129.9,112.5,129.6,112.9,128.9,113.3Zm-1.1-2-.6-.3a1.3,1.3,0,0,0-.7.4l-.8,1h.4c1.4,0,2.1-.2,2.1-.7S128,111.5,127.8,111.3Z"/><path class="cls-2" d="M136.3,114.5a5.6,5.6,0,0,1,.6-2.3,7.2,7.2,0,0,1,1.8-2.1,3.2,3.2,0,0,1,2.1-.9,1.6,1.6,0,0,1,1.1.7,2.1,2.1,0,0,1,.5,1.2.4.4,0,0,1-.4.4l-.4-.2-.7-.2q-.3,0-.9.6a5.3,5.3,0,0,0-1.1,1.4,2.8,2.8,0,0,0-.5,1.2.8.8,0,0,0,.2.6h2l.9-.3h.4c.3,0,.4.1.4.4s-.3.9-1.1,1.3a4.1,4.1,0,0,1-2.3.7,2.9,2.9,0,0,1-1.7-.8A2.4,2.4,0,0,1,136.3,114.5Z"/><path class="cls-2" d="M150,112.6c.2.2.3.3.3.5s-.1.4-.2.8l-.3.9a1.1,1.1,0,0,1-.1.6v1c0,.1,0,.2-.1.2s0,.1-.1.2-.1.1-.3.1-.3-.1-.5-.4a3.1,3.1,0,0,1-.5-1,3.9,3.9,0,0,1-2.3,1.4,1.9,1.9,0,0,1-1.4-.7,2.3,2.3,0,0,1-.8-1.4,4.6,4.6,0,0,1,.7-2.1,9.6,9.6,0,0,1,1.7-2.4,3.1,3.1,0,0,1,2.3-1.1,2.1,2.1,0,0,1,1.4.7,1.7,1.7,0,0,1,.8,1.3A2.7,2.7,0,0,1,150,112.6Zm-4.4,2.4a3.9,3.9,0,0,0,2.9-2.9c0-.1,0-.2.2-.2s-.1-.8-.3-.8a1.9,1.9,0,0,0-1.3.7,8.8,8.8,0,0,0-1.2,1.7,2.4,2.4,0,0,0-.5,1.3v.2Z"/><path class="cls-2" d="M152.1,111.7V110c0-.6.2-.8.5-.8a.7.7,0,0,1,.6.2,1.3,1.3,0,0,1,.5.7,4.1,4.1,0,0,1,1.1-.7l1-.3c.8,0,1.1.2,1.1.5s0,.3-.1.4v.2l-.2.2h-.2l-.5.3a5.2,5.2,0,0,0-1.1,1,3.8,3.8,0,0,0-.7,1.7,25.5,25.5,0,0,1-.8,2.5q-.4.9-.9.9c-.3,0-.5-.2-.7-.5a1.2,1.2,0,0,1-.2-.8,3.5,3.5,0,0,1,.3-1.2,10.3,10.3,0,0,0,.4-1.4C152,112.6,152.1,112.2,152.1,111.7Z"/><path class="cls-2" d="M161.4,109.2a2.1,2.1,0,0,1,1.4.7,1.7,1.7,0,0,1,.8,1.3,2.7,2.7,0,0,1-.4,1.4c.2.2.3.3.3.5s-.1.4-.2.8l-.3.9a1.1,1.1,0,0,1-.1.6v1c0,.1,0,.2-.1.2v.2h-.4c-.1,0-.3-.1-.5-.4a3,3,0,0,1-.4-1,4.4,4.4,0,0,1-2.4,1.4,2.1,2.1,0,0,1-1.4-.7,2.3,2.3,0,0,1-.8-1.4,6.3,6.3,0,0,1,.7-2.1,8,8,0,0,1,1.8-2.4A2.8,2.8,0,0,1,161.4,109.2Zm-2.6,5.8a3,3,0,0,0,1.6-.8,3.3,3.3,0,0,0,1.3-2.1l.2-.2c0-.5-.1-.8-.3-.8a1.9,1.9,0,0,0-1.3.7,8.8,8.8,0,0,0-1.2,1.7,3.6,3.6,0,0,0-.5,1.3v.2Zm5.8-9.6a1.3,1.3,0,0,1,.7.4,1.3,1.3,0,0,1,.3.8c0,.2-.1.3-.1.4l-.2.3-.4.2-.6.3-.6.4-.5.3-.7.3-.5-.2a1.3,1.3,0,0,1-.1-.6,1.1,1.1,0,0,1,.1-.5l.6-.6.6-.6.4-.3.3-.3.3-.2Z"/><path class="cls-2" d="M164.5,114.5a5.6,5.6,0,0,1,.6-2.3,8.7,8.7,0,0,1,1.7-2.1,3.7,3.7,0,0,1,2.2-.9,1.3,1.3,0,0,1,1,.7,1.7,1.7,0,0,1,.6,1.2.4.4,0,0,1-.4.4l-.5-.2-.6-.2q-.3,0-.9.6a3.8,3.8,0,0,0-1.1,1.4,2.8,2.8,0,0,0-.5,1.2.8.8,0,0,0,.2.6h2l.8-.3h.5c.3,0,.4.1.4.4s-.4.9-1.1,1.3a4.3,4.3,0,0,1-2.3.7,2.9,2.9,0,0,1-1.7-.8A2.4,2.4,0,0,1,164.5,114.5Z"/><path class="cls-2" d="M175.3,112.1c-.1.5-.3,1.1-.5,1.8a4.8,4.8,0,0,0-.4,1.2h.3l1.1-.3,1.1-.3c.3,0,.4.1.4.5s-.3.7-1,1.2a3.5,3.5,0,0,1-2.1.7,2.1,2.1,0,0,1-1.1-.5c-.5-.4-.7-.7-.7-1.1a10.6,10.6,0,0,1,.5-1.9l.6-2-.9.2a.7.7,0,0,1-.6-.4,2,2,0,0,1-.4-.8c0-.3.8-.6,2.4-.8a12,12,0,0,0,.3-2.4c0-.3.1-.5.4-.5a1.9,1.9,0,0,1,1,.5,1.2,1.2,0,0,1,.6.9,8.3,8.3,0,0,1-.2,1.3h1.1c.8,0,1.1.1,1.1.5s-.2.4-.6.5a7.2,7.2,0,0,1-2,.5Z"/><path class="cls-2" d="M184.3,113.3a4.2,4.2,0,0,1-2.1.6l-1.7-.2a2.5,2.5,0,0,0-.1.8c0,.3,0,.5.1.6a1,1,0,0,0,.7.2l1.9-.2.8-.2c.4,0,.7.1.7.4s-.4.7-1,1.1a5.4,5.4,0,0,1-2.2.5,2.9,2.9,0,0,1-2.1-.8,2.5,2.5,0,0,1-.7-1.9,4.6,4.6,0,0,1,.6-2.2,5.3,5.3,0,0,1,1.6-2,2.6,2.6,0,0,1,1.9-.8,2.6,2.6,0,0,1,1.8.9,2.9,2.9,0,0,1,.8,1.9C185.3,112.5,184.9,112.9,184.3,113.3Zm-1.1-2a.9.9,0,0,0-.6-.3c-.2,0-.4.1-.7.4a3.9,3.9,0,0,0-.8,1h.4c1.3,0,2-.2,2-.7S183.4,111.5,183.2,111.3Z"/><path class="cls-2" d="M186.7,111.7V110c0-.6.2-.8.5-.8a.7.7,0,0,1,.6.2,1.3,1.3,0,0,1,.5.7,4.1,4.1,0,0,1,1.1-.7,2.3,2.3,0,0,1,1.1-.3c.7,0,1.1.2,1.1.5s-.1.3-.1.4l-.2.2-.2.2h-.2l-.5.3a5.2,5.2,0,0,0-1.1,1,3.8,3.8,0,0,0-.7,1.7,25.5,25.5,0,0,1-.8,2.5q-.4.9-.9.9c-.3,0-.5-.2-.7-.5a2.4,2.4,0,0,1-.2-.8,3.5,3.5,0,0,1,.3-1.2,10.3,10.3,0,0,0,.4-1.4A5.3,5.3,0,0,0,186.7,111.7Z"/><path class="cls-2" d="M17,125q-.3,0-.6.9a14.6,14.6,0,0,0-.6,2.3h2.6c.8,0,1.2.3,1.2.8a5.8,5.8,0,0,1-.2,1,16.7,16.7,0,0,0-.7,1.9,24.1,24.1,0,0,0-.8,2.5l-.3.5h-.5a.9.9,0,0,1-.6-.3,1.4,1.4,0,0,1-.2-.7,11.2,11.2,0,0,1,.4-2.2,17.2,17.2,0,0,0,.5-2l-1.9.3c-.5,2.1-.8,3.5-1,4s-.5.9-.7.9-.4-.2-.7-.5a1.3,1.3,0,0,1-.3-.7,1.3,1.3,0,0,1,.1-.6,19.1,19.1,0,0,0,.7-2.8h-.9c-.2,0-.4-.1-.7-.4a1.1,1.1,0,0,1-.3-.8c0-.1.2-.3.5-.4a5.3,5.3,0,0,1,1.7-.4,12.3,12.3,0,0,1,1.3-4,2.2,2.2,0,0,1,2.1-1.2,2.7,2.7,0,0,1,1.8.7,1.8,1.8,0,0,1,1,1.6c0,.4,0,.7-.2.9a.5.5,0,0,1-.5.4.9.9,0,0,1-.6-.3l-.6-.6C17.6,125.3,17.2,125,17,125Z"/><path class="cls-2" d="M25.3,127.2a1.7,1.7,0,0,1,1.4.7,2,2,0,0,1,.6,1.5,12.7,12.7,0,0,1-.4,2.6,12.3,12.3,0,0,1-.9,2.2c-.4.5-.7.7-1,.7s-.5-.2-.5-.7A6.8,6.8,0,0,1,25,132a9.9,9.9,0,0,0,.3-1.9c0-.4,0-.6-.1-.6l-.4.2-.3.3-.3.4c-.1.2-.2.3-.2.4l-.3.5-.3.5-.3.5c-.9,1.7-1.6,2.6-2.2,2.6s-.4-.2-.8-.5a1.8,1.8,0,0,1-.4-.8,1.5,1.5,0,0,1,.2-.8l.3-.8c.1-.2.1-.4.2-.6a1.7,1.7,0,0,1,.1-.7v-.6a1.5,1.5,0,0,0,.1-.7c.1-1.3.2-2,.2-2.1l.2-.3a1.6,1.6,0,0,1,1.1.5,1.2,1.2,0,0,1,.6.9,11.4,11.4,0,0,1-.5,2.6,15.8,15.8,0,0,1,1.8-2.7C24.5,127.5,24.9,127.2,25.3,127.2Z"/><path class="cls-2" d="M34.5,130.6c.2.2.3.3.3.5l-.2.8-.3.9a1.1,1.1,0,0,1-.1.6v.3c0,.1,0,.1-.1.3v.2a.3.3,0,0,1-.1.2c0,.1,0,.2-.1.2v.2h-.3c-.1,0-.3-.1-.5-.4a3.1,3.1,0,0,1-.5-1,3.9,3.9,0,0,1-2.3,1.4,1.9,1.9,0,0,1-1.4-.7,2.3,2.3,0,0,1-.8-1.4,4.6,4.6,0,0,1,.7-2.1,9.6,9.6,0,0,1,1.7-2.4,3.1,3.1,0,0,1,2.3-1.1,2.1,2.1,0,0,1,1.4.7,1.7,1.7,0,0,1,.8,1.3A2.7,2.7,0,0,1,34.5,130.6ZM30.1,133a3.9,3.9,0,0,0,2.9-2.9c0-.1,0-.2.2-.2s-.1-.8-.3-.8a1.9,1.9,0,0,0-1.3.7,8.8,8.8,0,0,0-1.2,1.7,2.4,2.4,0,0,0-.5,1.3v.2Z"/><path class="cls-2" d="M41.3,127.2a1.5,1.5,0,0,1,1.3.7,2,2,0,0,1,.6,1.5,8.2,8.2,0,0,1-.4,2.6,5.6,5.6,0,0,1-.9,2.2c-.3.5-.6.7-1,.7s-.5-.2-.5-.7a11.6,11.6,0,0,1,.5-2.2,6.3,6.3,0,0,0,.4-1.9c0-.4,0-.6-.1-.6l-.4.2-.3.3-.3.4-.3.4-.3.5a1.7,1.7,0,0,0-.2.5l-.3.5c-.9,1.7-1.7,2.6-2.2,2.6a1.5,1.5,0,0,1-.8-.5l-.5-.8a4.5,4.5,0,0,1,.2-.8l.4-.8c0-.2.1-.4.1-.6a1.7,1.7,0,0,0,.1-.7,1.8,1.8,0,0,0,.1-.6v-.7a7.3,7.3,0,0,1,.3-2.1c0-.2.1-.3.2-.3a1.8,1.8,0,0,1,1.1.5,1.4,1.4,0,0,1,.5.9,7.7,7.7,0,0,1-.5,2.6l1.8-2.7C40.5,127.5,40.9,127.2,41.3,127.2Z"/><path class="cls-2" d="M44.1,132.5a5.6,5.6,0,0,1,.6-2.3,7.2,7.2,0,0,1,1.8-2.1,3.2,3.2,0,0,1,2.1-.9,1.3,1.3,0,0,1,1,.7,1.7,1.7,0,0,1,.6,1.2.4.4,0,0,1-.4.4l-.5-.2-.6-.2q-.3,0-.9.6a5.3,5.3,0,0,0-1.1,1.4,2.8,2.8,0,0,0-.5,1.2.8.8,0,0,0,.2.6h2l.8-.3h.5c.3,0,.4.1.4.4s-.3.9-1.1,1.3a4.3,4.3,0,0,1-2.3.7,2.9,2.9,0,0,1-1.7-.8A2.4,2.4,0,0,1,44.1,132.5Z"/><path class="cls-2" d="M53.1,127.2a1.1,1.1,0,0,1,.9.6,1.7,1.7,0,0,1,.4,1.1,8.5,8.5,0,0,1-.5,2.1c-.3,1.1-.7,2.3-1,3.3a.7.7,0,0,1-.7.6.7.7,0,0,1-.6-.3.6.6,0,0,1-.3-.6c0-.3.2-.9.4-2a16.8,16.8,0,0,0,.6-2.7,9.1,9.1,0,0,1,.4-1.6C52.8,127.3,52.9,127.2,53.1,127.2Zm-.2-1.9a1.3,1.3,0,0,1,.3-.8c.3-.3.5-.4.7-.4s.5.2.8.8a2.8,2.8,0,0,1,.5,1.2.5.5,0,0,1-.3.5c-.1.2-.3.2-.5.2a1.8,1.8,0,0,1-1-.6A1.6,1.6,0,0,1,52.9,125.3Z"/><path class="cls-2" d="M61,131.3a3.6,3.6,0,0,1-2,.6l-1.7-.2a3.1,3.1,0,0,0-.2.8.8.8,0,0,0,.2.6l.6.2,2-.2.8-.2c.4,0,.6.1.6.4s-.3.7-1,1.1a5.1,5.1,0,0,1-2.2.5,2.8,2.8,0,0,1-2-.8,2.6,2.6,0,0,1-.8-1.9,4.6,4.6,0,0,1,.6-2.2,8.3,8.3,0,0,1,1.6-2,2.8,2.8,0,0,1,1.9-.8,2.3,2.3,0,0,1,1.8.9A2.5,2.5,0,0,1,62,130C62,130.5,61.7,130.9,61,131.3Zm-1-2a.8.8,0,0,0-1.3.1l-.9,1h.4c1.4,0,2.1-.2,2.1-.7Z"/><path class="cls-2" d="M63.4,129.7V128c0-.6.1-.8.5-.8a.7.7,0,0,1,.6.2c.2.1.3.4.4.7l1.1-.7,1.1-.3c.7,0,1.1.2,1.1.5s0,.3-.1.4v.2l-.2.2h-.2l-.5.3a5.8,5.8,0,0,0-1.2,1,5.4,5.4,0,0,0-.7,1.7,12.3,12.3,0,0,1-.8,2.5c-.2.6-.5.9-.8.9a.8.8,0,0,1-.7-.5,1.3,1.3,0,0,1-.3-.8,3.5,3.5,0,0,1,.3-1.2,4.3,4.3,0,0,0,.4-1.4A5.3,5.3,0,0,0,63.4,129.7Z"/><path class="cls-2" d="M69.1,128.8c.8-1.1,1.6-1.7,2.3-1.7a2.7,2.7,0,0,1,2,.9,2.5,2.5,0,0,1,.7,1.9,5,5,0,0,1-.5,2.3,5.8,5.8,0,0,1-1.5,1.9,3.7,3.7,0,0,1-2.1.8,1.6,1.6,0,0,1-1.4-.7,2.8,2.8,0,0,1-.6-1.8A6.6,6.6,0,0,1,69.1,128.8Zm2.5,3.1a4.1,4.1,0,0,0,.6-2,2.4,2.4,0,0,0-.3-1.4,4.5,4.5,0,0,0-1.3,1.6,4.8,4.8,0,0,0-.6,2.1c0,.6,0,1,.2,1.2A4.1,4.1,0,0,0,71.6,131.9Z"/><path class="cls-2" d="M86.3,127.5c0-.2.2-.3.5-.3a1,1,0,0,1,.8.5,1.5,1.5,0,0,1,.4,1.1,3.5,3.5,0,0,1-.3,1.2c-.1.6-.3.9-.3,1.2l-.4.9-.3,1.1a8.9,8.9,0,0,0-.5,1.3,14.2,14.2,0,0,0-.5,1.6,6.8,6.8,0,0,1-1.2,2.1,2.1,2.1,0,0,1-1.7.7,3.8,3.8,0,0,1-1.9-.5q-.9-.6-.9-1.2a1.3,1.3,0,0,1,.4-.7c.2-.3.3-.5.5-.5l.6.4.7.7c.2.2.4.4.6.4l.4-.2c0-.1.1-.3.2-.3v-.4l.2-.5c.1-.1.1-.3.2-.6s.1-.4.2-.6.3-1,.4-1.4a4.7,4.7,0,0,1-1,1,1.6,1.6,0,0,1-1,.4c-.3,0-.6-.2-1.1-.7a2,2,0,0,1-.6-1.4,10.3,10.3,0,0,1,.3-2.2,13.4,13.4,0,0,1,.9-2.4c.3-.7.7-1,.9-1a1.2,1.2,0,0,1,.9.4.9.9,0,0,1,.4.7,3.5,3.5,0,0,1-.3,1.2,15.9,15.9,0,0,0-.8,1.8,6.2,6.2,0,0,0-.4,1.6h.1c.1,0,.4-.2.8-.7a14.5,14.5,0,0,0,1.5-2.1A15.9,15.9,0,0,0,86.3,127.5Z"/><path class="cls-2" d="M89.2,136.3a1.5,1.5,0,0,1-.8-.5,2.6,2.6,0,0,1-.4-1,12.5,12.5,0,0,1,.9-2.7c.6-1.5,1.2-3.3,2-5.3s1.3-3.2,1.4-3.6l.3-.6a.4.4,0,0,1,.1-.3H93c.2,0,.5.3.8.7a2.2,2.2,0,0,1,.6,1.2,3.9,3.9,0,0,1-.3,1.3l-.6,1.4c-.7,1.7-1.3,3-1.6,3.9C90.3,134.4,89.4,136.3,89.2,136.3Z"/><path class="cls-2" d="M93.8,128.8c.8-1.1,1.5-1.7,2.3-1.7a2.5,2.5,0,0,1,1.9.9,2.6,2.6,0,0,1,.8,1.9,5.3,5.3,0,0,1-.6,2.3,4,4,0,0,1-1.5,1.9,3.2,3.2,0,0,1-2.1.8,1.7,1.7,0,0,1-1.4-.7,2.8,2.8,0,0,1-.6-1.8A6,6,0,0,1,93.8,128.8Zm2.4,3.1a4.1,4.1,0,0,0,.6-2,2.4,2.4,0,0,0-.3-1.4,4.4,4.4,0,0,0-1.2,1.6,4,4,0,0,0-.7,2.1,2.9,2.9,0,0,0,.2,1.2A4.1,4.1,0,0,0,96.2,131.9Z"/><path class="cls-2" d="M111,131.3a3.6,3.6,0,0,1-2,.6l-1.7-.2a3.1,3.1,0,0,0-.2.8.8.8,0,0,0,.2.6c0,.1.3.2.6.2l2-.2.8-.2c.4,0,.6.1.6.4s-.3.7-1,1.1a4.8,4.8,0,0,1-2.2.5,2.8,2.8,0,0,1-2-.8,2.6,2.6,0,0,1-.8-1.9,4.6,4.6,0,0,1,.6-2.2,8.3,8.3,0,0,1,1.6-2,2.9,2.9,0,0,1,2-.8,2.2,2.2,0,0,1,1.7.9,2.5,2.5,0,0,1,.8,1.9C112,130.5,111.7,130.9,111,131.3Zm-1-2a.9.9,0,0,0-.6-.3c-.2,0-.4.1-.7.4l-.9,1h.4c1.4,0,2.1-.2,2.1-.7Z"/><path class="cls-2" d="M112.6,132.5a4.6,4.6,0,0,1,.7-2.3,6.8,6.8,0,0,1,1.7-2.1,3.2,3.2,0,0,1,2.1-.9c.4,0,.7.2,1.1.7a1.7,1.7,0,0,1,.6,1.2.4.4,0,0,1-.4.4l-.5-.2-.6-.2c-.3,0-.6.2-1,.6a8.5,8.5,0,0,0-1.1,1.4,2.4,2.4,0,0,0-.4,1.2c0,.3,0,.5.1.6H117l.8-.3h.5c.3,0,.4.1.4.4s-.4.9-1.2,1.3a3.9,3.9,0,0,1-2.3.7,2.7,2.7,0,0,1-1.6-.8A2.2,2.2,0,0,1,112.6,132.5Z"/><path class="cls-2" d="M121.1,128.8a3,3,0,0,1,2.3-1.7,2.5,2.5,0,0,1,1.9.9,2.6,2.6,0,0,1,.8,1.9,5.3,5.3,0,0,1-.6,2.3,4.7,4.7,0,0,1-1.5,1.9,3.4,3.4,0,0,1-2.1.8,1.7,1.7,0,0,1-1.4-.7,2.8,2.8,0,0,1-.6-1.8A6,6,0,0,1,121.1,128.8Zm2.4,3.1a4.1,4.1,0,0,0,.6-2,2.4,2.4,0,0,0-.3-1.4,5.8,5.8,0,0,0-1.3,1.6,4.8,4.8,0,0,0-.6,2.1,2.9,2.9,0,0,0,.2,1.2A4.1,4.1,0,0,0,123.5,131.9Z"/><path class="cls-2" d="M132.3,127.2a1.7,1.7,0,0,1,1.4.7,2,2,0,0,1,.6,1.5,8.2,8.2,0,0,1-.4,2.6,12.3,12.3,0,0,1-.9,2.2,1.3,1.3,0,0,1-1,.7c-.3,0-.5-.2-.5-.7a6.8,6.8,0,0,1,.5-2.2,13,13,0,0,0,.4-1.9c0-.4-.1-.6-.2-.6l-.4.2-.3.3-.3.4c-.1.2-.2.3-.2.4l-.3.5-.3.5-.3.5c-.9,1.7-1.6,2.6-2.2,2.6s-.4-.2-.8-.5a1.8,1.8,0,0,1-.4-.8,1.5,1.5,0,0,1,.2-.8l.3-.8c.1-.2.1-.4.2-.6a1.7,1.7,0,0,1,.1-.7v-.6a1.5,1.5,0,0,0,.1-.7c.1-1.3.2-2,.2-2.1l.2-.3a1.6,1.6,0,0,1,1.1.5,1.2,1.2,0,0,1,.6.9,11.4,11.4,0,0,1-.5,2.6,15.8,15.8,0,0,1,1.8-2.7C131.5,127.5,132,127.2,132.3,127.2Z"/><path class="cls-2" d="M136.2,128.8c.8-1.1,1.5-1.7,2.3-1.7a2.3,2.3,0,0,1,1.9.9,2.6,2.6,0,0,1,.8,1.9,6.8,6.8,0,0,1-.5,2.3,4.9,4.9,0,0,1-1.6,1.9,3.2,3.2,0,0,1-2,.8,1.8,1.8,0,0,1-1.5-.7,2.8,2.8,0,0,1-.6-1.8A6,6,0,0,1,136.2,128.8Zm2.4,3.1a4.1,4.1,0,0,0,.4-3.4,3.6,3.6,0,0,0-1.3,1.6,5.2,5.2,0,0,0-.7,2.1,2.9,2.9,0,0,0,.2,1.2A3.4,3.4,0,0,0,138.6,131.9Zm.8-5.1-.4-.2a1.4,1.4,0,0,1-.2-.6l.2-.5a1.7,1.7,0,0,1,.6-.6l.6-.6.4-.3.3-.3.3-.2h.4c.2,0,.4.2.6.4a1.3,1.3,0,0,1,.3.8v.4q0,.1-.3.3l-.3.2-.6.3-.7.4-.5.3Z"/><path class="cls-2" d="M152,127.2c.4,0,.7.2,1,.7a4.8,4.8,0,0,1,.4,1.5,9.9,9.9,0,0,1-.3,1.9,11.3,11.3,0,0,1-.8,2.4c-.3.8-.7,1.2-1.1,1.2s-.5-.2-.5-.7a8.5,8.5,0,0,1,.4-2.2c.2-1,.4-1.7.4-2s-.1-.5-.2-.5-.4.3-.7.7-.7,1.1-1.1,1.9a8.5,8.5,0,0,0-.7,1.5l-.3.5-.2.4c-.3.5-.7.5-1.3,0s-.4-.5-.4-.8l.3-1.1a18.1,18.1,0,0,0,.2-2.5c0-.4,0-.6-.1-.6s-.3.2-.4.4-.4.7-.8,1.3-.6,1.1-.8,1.6-1.5,2.1-2,2.1-.4-.2-.8-.6a1.5,1.5,0,0,1-.5-.8,11.9,11.9,0,0,1,.4-1.4,9.3,9.3,0,0,0,.4-2.4c.1-.8.1-1.5.2-2s.2-.7.3-.7a2.1,2.1,0,0,1,1.2.5,1.4,1.4,0,0,1,.5.9,11.1,11.1,0,0,1-.7,3.1,14,14,0,0,1,1.8-3.4,2,2,0,0,1,1.5-.9,1.3,1.3,0,0,1,.9.7,2.2,2.2,0,0,1,.6,1.3v1.1a6,6,0,0,1,1.4-2.1A2.4,2.4,0,0,1,152,127.2Z"/><path class="cls-2" d="M155.9,127.2a1.2,1.2,0,0,1,.9.6,1.7,1.7,0,0,1,.4,1.1,8.5,8.5,0,0,1-.5,2.1c-.3,1.1-.7,2.3-1,3.3a.8.8,0,0,1-.8.6.5.5,0,0,1-.5-.3.6.6,0,0,1-.3-.6,9.2,9.2,0,0,1,.4-2,16.8,16.8,0,0,0,.6-2.7,4.6,4.6,0,0,1,.4-1.6C155.6,127.3,155.7,127.2,155.9,127.2Zm-.3-1.9c0-.3.2-.5.4-.8a.9.9,0,0,1,.7-.4c.2,0,.5.2.8.8a2.8,2.8,0,0,1,.5,1.2.5.5,0,0,1-.3.5c-.1.2-.3.2-.5.2s-.6-.2-1-.6A1.4,1.4,0,0,1,155.6,125.3Z"/><path class="cls-2" d="M158.1,132.5a5.6,5.6,0,0,1,.6-2.3,9.1,9.1,0,0,1,1.8-2.1,3.2,3.2,0,0,1,2.1-.9,1.6,1.6,0,0,1,1.1.7,2.1,2.1,0,0,1,.5,1.2c0,.2-.1.4-.3.4l-.5-.2-.7-.2q-.3,0-.9.6a5.3,5.3,0,0,0-1.1,1.4,2.8,2.8,0,0,0-.5,1.2.8.8,0,0,0,.2.6h2.1l.8-.3h.4c.3,0,.5.1.5.4s-.4.9-1.2,1.3a4.1,4.1,0,0,1-2.3.7,2.9,2.9,0,0,1-1.7-.8A2.4,2.4,0,0,1,158.1,132.5Z"/><path class="cls-2" d="M166.5,128.8c.8-1.1,1.5-1.7,2.3-1.7a2.3,2.3,0,0,1,1.9.9,2.6,2.6,0,0,1,.8,1.9,6.8,6.8,0,0,1-.5,2.3,4.9,4.9,0,0,1-1.6,1.9,3.2,3.2,0,0,1-2,.8,1.8,1.8,0,0,1-1.5-.7,2.8,2.8,0,0,1-.6-1.8A6,6,0,0,1,166.5,128.8Zm2.4,3.1a4.1,4.1,0,0,0,.4-3.4,3.6,3.6,0,0,0-1.3,1.6,5.2,5.2,0,0,0-.7,2.1,2.9,2.9,0,0,0,.2,1.2A3.4,3.4,0,0,0,168.9,131.9Z"/><path class="cls-2" d="M181.6,130.1a18.9,18.9,0,0,0-.6,1.8l-.3,1.2h.2l1.2-.3,1.1-.3c.2,0,.3.1.3.5s-.3.7-1,1.2a3.1,3.1,0,0,1-2.1.7,2.1,2.1,0,0,1-1.1-.5c-.4-.4-.7-.7-.7-1.1a10.6,10.6,0,0,1,.5-1.9c.3-.9.5-1.6.6-2l-.9.2a.7.7,0,0,1-.6-.4,1.6,1.6,0,0,1-.3-.8c0-.3.8-.6,2.3-.8a12,12,0,0,0,.3-2.4c0-.3.1-.5.4-.5a1.9,1.9,0,0,1,1,.5,1.2,1.2,0,0,1,.6.9,3.4,3.4,0,0,1-.2,1.3h1.1c.8,0,1.2.1,1.2.5s-.2.4-.7.5a6.4,6.4,0,0,1-2,.5A10.4,10.4,0,0,0,181.6,130.1Z"/><path class="cls-2" d="M186.5,127.2a1.1,1.1,0,0,1,.9.6,1.7,1.7,0,0,1,.4,1.1,8.5,8.5,0,0,1-.5,2.1c-.3,1.1-.7,2.3-1,3.3a.7.7,0,0,1-.7.6,1.1,1.1,0,0,1-.9-.9c0-.3.2-.9.4-2a16.8,16.8,0,0,0,.6-2.7,9.1,9.1,0,0,1,.4-1.6C186.2,127.3,186.3,127.2,186.5,127.2Zm-.2-1.9a1.3,1.3,0,0,1,.3-.8c.3-.3.5-.4.7-.4s.5.2.8.8a2.8,2.8,0,0,1,.5,1.2.5.5,0,0,1-.3.5c-.1.2-.3.2-.5.2s-.6-.2-1-.6A1.6,1.6,0,0,1,186.3,125.3Z"/><path class="cls-2" d="M194.4,131.3a3.6,3.6,0,0,1-2,.6l-1.8-.2c0,.3-.1.6-.1.8a3.5,3.5,0,0,0,.1.6l.7.2,1.9-.2.9-.2c.4,0,.6.1.6.4s-.3.7-1,1.1a5.1,5.1,0,0,1-2.2.5,2.6,2.6,0,0,1-2-.8,2.2,2.2,0,0,1-.8-1.9,4.6,4.6,0,0,1,.6-2.2,8.3,8.3,0,0,1,1.6-2,2.8,2.8,0,0,1,1.9-.8,2.3,2.3,0,0,1,1.8.9,2.9,2.9,0,0,1,.8,1.9C195.4,130.5,195.1,130.9,194.4,131.3Zm-1-2-.6-.3a.9.9,0,0,0-.7.4l-.9,1h.4c1.4,0,2.1-.2,2.1-.7Z"/><path class="cls-2" d="M201.5,127.2a1.6,1.6,0,0,1,1.4.7,2,2,0,0,1,.6,1.5,8.2,8.2,0,0,1-.4,2.6,12.3,12.3,0,0,1-.9,2.2,1.3,1.3,0,0,1-1,.7c-.3,0-.5-.2-.5-.7a11.6,11.6,0,0,1,.5-2.2,13,13,0,0,0,.4-1.9c0-.4-.1-.6-.2-.6l-.4.2-.3.3c-.1.1-.1.3-.3.4s-.1.3-.2.4l-.3.5-.3.5c-.1.1-.1.3-.3.5s-1.6,2.6-2.1,2.6-.5-.2-.8-.5a1.5,1.5,0,0,1-.5-.8,4.5,4.5,0,0,1,.2-.8l.3-.8c.1-.2.1-.4.2-.6s.1-.5.1-.7,0-.5.1-.6v-.7c.1-1.3.2-2,.2-2.1s.2-.3.3-.3a2.1,2.1,0,0,1,1.1.5,1.4,1.4,0,0,1,.5.9,11.4,11.4,0,0,1-.5,2.6,15.8,15.8,0,0,1,1.8-2.7C200.7,127.5,201.2,127.2,201.5,127.2Z"/><path class="cls-2" d="M210,131.3a3.6,3.6,0,0,1-2,.6l-1.7-.2a3.1,3.1,0,0,0-.2.8.7.7,0,0,0,.8.8l2-.2.8-.2c.4,0,.6.1.6.4s-.3.7-.9,1.1a5.6,5.6,0,0,1-2.3.5,2.8,2.8,0,0,1-2-.8,2.6,2.6,0,0,1-.8-1.9,3.8,3.8,0,0,1,.7-2.2,5.3,5.3,0,0,1,1.6-2,2.5,2.5,0,0,1,1.9-.8,2.2,2.2,0,0,1,1.7.9,2.5,2.5,0,0,1,.8,1.9C211,130.5,210.7,130.9,210,131.3Zm-1-2a.9.9,0,0,0-.6-.3c-.2,0-.4.1-.7.4a3.9,3.9,0,0,0-.8,1h.3c1.4,0,2.1-.2,2.1-.7Z"/><path class="cls-2" d="M12,150.5a4.6,4.6,0,0,1,.7-2.3,6.8,6.8,0,0,1,1.7-2.1,3.2,3.2,0,0,1,2.1-.9c.4,0,.7.2,1.1.7a1.7,1.7,0,0,1,.6,1.2.4.4,0,0,1-.4.4l-.5-.2-.6-.2c-.3,0-.6.2-1,.6a8.5,8.5,0,0,0-1.1,1.4,2.4,2.4,0,0,0-.4,1.2c0,.3,0,.5.1.6h2.1l.8-.3h.5c.3,0,.4.1.4.4s-.4.9-1.2,1.3a3.9,3.9,0,0,1-2.3.7,2.7,2.7,0,0,1-1.6-.8A2.2,2.2,0,0,1,12,150.5Z"/><path class="cls-2" d="M20.4,146.8c.8-1.1,1.6-1.7,2.4-1.7a2.5,2.5,0,0,1,1.9.9,2.6,2.6,0,0,1,.8,1.9,5.3,5.3,0,0,1-.6,2.3,4.7,4.7,0,0,1-1.5,1.9,3.4,3.4,0,0,1-2.1.8,1.7,1.7,0,0,1-1.4-.7,2.8,2.8,0,0,1-.6-1.8A6.6,6.6,0,0,1,20.4,146.8Zm2.5,3.1a4.1,4.1,0,0,0,.6-2,2.4,2.4,0,0,0-.3-1.4,5.8,5.8,0,0,0-1.3,1.6,4.8,4.8,0,0,0-.6,2.1,2.9,2.9,0,0,0,.2,1.2A4.1,4.1,0,0,0,22.9,149.9Z"/><path class="cls-2" d="M36.3,145.2c.4,0,.7.2,1,.7a4.8,4.8,0,0,1,.4,1.5,9.9,9.9,0,0,1-.3,1.9,11.3,11.3,0,0,1-.8,2.4c-.3.8-.7,1.2-1.1,1.2s-.5-.2-.5-.7a8.5,8.5,0,0,1,.4-2.2c.2-1,.4-1.7.4-2s-.1-.5-.2-.5-.4.3-.7.7-.7,1.1-1.1,1.9a8.5,8.5,0,0,0-.7,1.5l-.3.5-.2.4c-.3.5-.7.5-1.3,0s-.4-.5-.4-.8l.3-1.1a18.1,18.1,0,0,0,.2-2.5c0-.4,0-.6-.1-.6s-.3.2-.4.4-.4.7-.8,1.3l-.8,1.6c-.9,1.4-1.5,2.1-1.9,2.1s-.5-.2-.9-.6a1.2,1.2,0,0,1-.4-.8,7,7,0,0,1,.3-1.4,9.3,9.3,0,0,0,.4-2.4c.1-.8.1-1.5.2-2s.2-.7.4-.7a2.1,2.1,0,0,1,1.1.5,1.4,1.4,0,0,1,.5.9,11.1,11.1,0,0,1-.7,3.1,14,14,0,0,1,1.8-3.4,2,2,0,0,1,1.5-.9,1.6,1.6,0,0,1,1,.7,2.7,2.7,0,0,1,.5,1.3v1.1a6,6,0,0,1,1.4-2.1A2.6,2.6,0,0,1,36.3,145.2Z"/><path class="cls-2" d="M39.6,146.8a3,3,0,0,1,2.3-1.7,2.5,2.5,0,0,1,1.9.9,2.6,2.6,0,0,1,.8,1.9,5.3,5.3,0,0,1-.6,2.3,4,4,0,0,1-1.5,1.9,3.2,3.2,0,0,1-2.1.8,1.7,1.7,0,0,1-1.4-.7,2.8,2.8,0,0,1-.6-1.8A6,6,0,0,1,39.6,146.8Zm2.4,3.1a4.1,4.1,0,0,0,.6-2,2.4,2.4,0,0,0-.3-1.4,4.4,4.4,0,0,0-1.2,1.6,4,4,0,0,0-.7,2.1,2.9,2.9,0,0,0,.2,1.2A4.1,4.1,0,0,0,42,149.9Z"/><path class="cls-2" d="M56.8,149.3a3.6,3.6,0,0,1-2,.6l-1.8-.2c0,.3-.1.6-.1.8a3.5,3.5,0,0,0,.1.6l.7.2,2-.2.8-.2c.4,0,.6.1.6.4s-.3.7-1,1.1a5.1,5.1,0,0,1-2.2.5,2.8,2.8,0,0,1-2-.8,2.6,2.6,0,0,1-.8-1.9,4.6,4.6,0,0,1,.6-2.2,8.3,8.3,0,0,1,1.6-2,2.8,2.8,0,0,1,1.9-.8,2.3,2.3,0,0,1,1.8.9,2.9,2.9,0,0,1,.8,1.9C57.8,148.5,57.5,148.9,56.8,149.3Zm-1-2a.9.9,0,0,0-.6-.3c-.2,0-.4.1-.7.4l-.9,1H54c1.4,0,2.1-.2,2.1-.7Z"/><path class="cls-2" d="M56.7,155.3c.3,0,.6-.5,1-1.6s.7-2.5,1.1-4.2l.8-3.2a4.1,4.1,0,0,1,.4-.9c.1-.2.2-.2.3-.2a1.4,1.4,0,0,1,.9.5,2.1,2.1,0,0,1,.5,1.3c0,.2-.7,2.5-2,7.1a4.3,4.3,0,0,1-1.3,2.2,3.3,3.3,0,0,1-1.9.6,2.5,2.5,0,0,1-1.6-.6c-.5-.5-.8-.8-.8-1.2a1.3,1.3,0,0,1,.3-.7c.2-.3.3-.5.5-.5s.4.2.8.7.1.1.1.2A1.4,1.4,0,0,0,56.7,155.3Zm4-12.8a.8.8,0,0,1,.7-.4c.2,0,.5.2.8.8a2.7,2.7,0,0,1,.4,1.3.8.8,0,0,1-.2.4.6.6,0,0,1-.5.2c-.3,0-.6-.2-1-.6a1.4,1.4,0,0,1-.6-.9A1,1,0,0,1,60.7,142.5Z"/><path class="cls-2" d="M68,149.3a3.6,3.6,0,0,1-2,.6l-1.7-.2a3.1,3.1,0,0,0-.2.8.7.7,0,0,0,.8.8l2-.2.8-.2c.4,0,.6.1.6.4s-.3.7-.9,1.1a5.6,5.6,0,0,1-2.3.5,2.8,2.8,0,0,1-2-.8,2.6,2.6,0,0,1-.8-1.9A3.8,3.8,0,0,1,63,148a5.3,5.3,0,0,1,1.6-2,2.5,2.5,0,0,1,1.9-.8,2.2,2.2,0,0,1,1.7.9A2.5,2.5,0,0,1,69,148C69,148.5,68.7,148.9,68,149.3Zm-1-2a.9.9,0,0,0-.6-.3c-.2,0-.4.1-.7.4a3.9,3.9,0,0,0-.8,1h.3c1.4,0,2.1-.2,2.1-.7Z"/><path class="cls-2" d="M75.4,150.5a4.6,4.6,0,0,1,.7-2.3,6.8,6.8,0,0,1,1.7-2.1,3.2,3.2,0,0,1,2.1-.9c.4,0,.7.2,1.1.7a1.6,1.6,0,0,1,.5,1.2c0,.2-.1.4-.3.4l-.5-.2-.7-.2q-.3,0-.9.6a5.3,5.3,0,0,0-1.1,1.4,2.4,2.4,0,0,0-.4,1.2c0,.3,0,.5.1.6h2.1l.8-.3h.5a.4.4,0,0,1,.4.4c0,.4-.4.9-1.2,1.3a3.9,3.9,0,0,1-2.3.7,2.7,2.7,0,0,1-1.6-.8A2.2,2.2,0,0,1,75.4,150.5Z"/><path class="cls-2" d="M88.5,149.3a4.2,4.2,0,0,1-2.1.6l-1.7-.2a2.5,2.5,0,0,0-.1.8c0,.3,0,.5.1.6a1,1,0,0,0,.7.2l1.9-.2.8-.2c.4,0,.6.1.6.4s-.3.7-.9,1.1a5.6,5.6,0,0,1-2.3.5,2.8,2.8,0,0,1-2-.8,2.6,2.6,0,0,1-.8-1.9,4.7,4.7,0,0,1,.7-2.2,5.3,5.3,0,0,1,1.6-2,2.6,2.6,0,0,1,1.9-.8,2.6,2.6,0,0,1,1.8.9,2.9,2.9,0,0,1,.8,1.9C89.5,148.5,89.1,148.9,88.5,149.3Zm-1.1-2a.9.9,0,0,0-.6-.3c-.2,0-.4.1-.7.4a3.9,3.9,0,0,0-.8,1h.4c1.3,0,2-.2,2-.7Z"/><path class="cls-2" d="M95.6,145.2a1.7,1.7,0,0,1,1.4.7,2,2,0,0,1,.6,1.5,8.5,8.5,0,0,1-.5,2.6,5.6,5.6,0,0,1-.9,2.2c-.3.5-.6.7-.9.7s-.6-.2-.6-.7a11.6,11.6,0,0,1,.5-2.2,6.3,6.3,0,0,0,.4-1.9c0-.4,0-.6-.1-.6l-.4.2-.3.3-.3.4-.3.4c0,.2-.1.3-.3.5a1.7,1.7,0,0,0-.2.5l-.3.5c-.9,1.7-1.7,2.6-2.2,2.6a1.5,1.5,0,0,1-.8-.5l-.5-.8a2,2,0,0,1,.3-.8l.3-.8c0-.2.1-.4.1-.6a1.7,1.7,0,0,0,.1-.7,1.8,1.8,0,0,0,.1-.6,2,2,0,0,1,.1-.7,10.7,10.7,0,0,1,.2-2.1c.1-.2.1-.3.2-.3a1.6,1.6,0,0,1,1.1.5,1.1,1.1,0,0,1,.5.9,10.3,10.3,0,0,1-.4,2.6,26.2,26.2,0,0,1,1.7-2.7C94.8,145.5,95.2,145.2,95.6,145.2Z"/><path class="cls-2" d="M101.9,148.1a9.4,9.4,0,0,1-.6,1.8,9,9,0,0,0-.3,1.2h.3l1.1-.3,1.1-.3c.3,0,.4.1.4.5s-.3.7-1,1.2a3.5,3.5,0,0,1-2.1.7,2.1,2.1,0,0,1-1.1-.5c-.5-.4-.7-.7-.7-1.1a5.7,5.7,0,0,1,.5-1.9l.6-2-.9.2a.7.7,0,0,1-.6-.4,1.2,1.2,0,0,1-.4-.8c0-.3.8-.6,2.4-.8s.2-1.8.2-2.4a.5.5,0,0,1,.5-.5l1,.5a1.2,1.2,0,0,1,.6.9,8.3,8.3,0,0,1-.2,1.3h1.1c.7,0,1.1.1,1.1.5s-.2.4-.6.5a7.2,7.2,0,0,1-2,.5Z"/><path class="cls-2" d="M106,147.7V146c0-.6.2-.8.5-.8a.7.7,0,0,1,.6.2c.2.1.3.4.4.7l1.2-.7,1-.3c.8,0,1.1.2,1.1.5s0,.3-.1.4v.2l-.2.2h-.2l-.5.3a5.2,5.2,0,0,0-1.1,1,3.8,3.8,0,0,0-.8,1.7,13.5,13.5,0,0,1-.7,2.5q-.4.9-.9.9a.8.8,0,0,1-.7-.5,1.2,1.2,0,0,1-.2-.8,3.5,3.5,0,0,1,.3-1.2c.1-.5.3-1,.4-1.4S106,148.2,106,147.7Z"/><path class="cls-2" d="M116.9,148.6c.2.2.3.3.3.5a1.7,1.7,0,0,1-.2.8,5.1,5.1,0,0,0-.2.9c0,.3-.1.4-.1.6a.4.4,0,0,1-.1.3v.3c0,.1,0,.2-.1.2v.4c0,.1-.1.1-.1.2H116c-.2,0-.3-.1-.5-.4a3.1,3.1,0,0,1-.5-1,3.8,3.8,0,0,1-2.4,1.4,2.5,2.5,0,0,1-2.1-2.1,5.7,5.7,0,0,1,.6-2.1,13.7,13.7,0,0,1,1.8-2.4,3.1,3.1,0,0,1,2.2-1.1,2.5,2.5,0,0,1,1.5.7c.5.5.8.9.8,1.3A3,3,0,0,1,116.9,148.6Zm-4.3,2.4a3.3,3.3,0,0,0,1.6-.8,3.2,3.2,0,0,0,1.2-2.1c0-.1.1-.2.3-.2s-.2-.8-.3-.8a2.1,2.1,0,0,0-1.4.7,17.7,17.7,0,0,0-1.2,1.7,3,3,0,0,0-.4,1.3v.2Z"/><path class="cls-2" d="M121.3,141.6a2.7,2.7,0,0,1,.5,1.3,19.7,19.7,0,0,1-.1,2.1c-.2,1-.3,1.9-.4,2.5q-1.2,5.4-1.8,5.4c-.2,0-.4-.2-.8-.5a2.1,2.1,0,0,1-.5-.9,9.3,9.3,0,0,0,.4-1.6,39.1,39.1,0,0,0,.9-3.9,37.3,37.3,0,0,0,.4-4.6c0-.3.1-.4.4-.4S120.9,141.2,121.3,141.6Z"/><path class="cls-2" d="M134.4,148.6c.1.2.2.3.2.5a3.2,3.2,0,0,1-.1.8,9.2,9.2,0,0,0-.3.9c0,.3-.1.4-.1.6v.3c0,.1-.1.1-.1.3v.6c0,.1-.1.1-.1.2h-.3c-.1,0-.3-.1-.5-.4a3.1,3.1,0,0,1-.5-1,3.9,3.9,0,0,1-2.3,1.4,1.9,1.9,0,0,1-1.4-.7,2.3,2.3,0,0,1-.8-1.4,4.6,4.6,0,0,1,.7-2.1,9.6,9.6,0,0,1,1.7-2.4,3.1,3.1,0,0,1,2.2-1.1,2.3,2.3,0,0,1,1.5.7c.5.5.8.9.8,1.3A2.7,2.7,0,0,1,134.4,148.6ZM130,151a3.3,3.3,0,0,0,1.6-.8,2.8,2.8,0,0,0,1.2-2.1c0-.1.1-.2.3-.2s-.1-.8-.3-.8a1.9,1.9,0,0,0-1.3.7l-1.3,1.7a3,3,0,0,0-.4,1.3v.2Z"/><path class="cls-2" d="M138.7,141.6a2.2,2.2,0,0,1,.6,1.3c0,.4-.1,1.1-.2,2.1s-.3,1.9-.4,2.5c-.8,3.6-1.4,5.4-1.7,5.4s-.5-.2-.9-.5a1.6,1.6,0,0,1-.4-.9l.4-1.6c.2-1,.5-2.3.8-3.9a24.5,24.5,0,0,0,.4-4.6c0-.3.1-.4.5-.4S138.3,141.2,138.7,141.6Z"/><path class="cls-2" d="M150.2,145.2c.4,0,.7.2,1.1.7a1.7,1.7,0,0,1,.6,1.2.3.3,0,0,1-.3.3H151l-.7-.2-1,.3c-.5.1-.7.4-.7.6l.4.4.9.6.9.9a1.5,1.5,0,0,1,.4,1.1,1.7,1.7,0,0,1-.9,1.3,3.7,3.7,0,0,1-2.1.6,3.3,3.3,0,0,1-2.1-.6c-.6-.3-.9-.7-.9-1.1s.2-.6.5-.6l.4.2a3.8,3.8,0,0,0,1.9.4c.8,0,1.1-.1,1.1-.3s-.1-.4-.4-.7l-.9-.6-1-.8a1.8,1.8,0,0,1-.4-.9q0-.7,1.5-1.8A4.8,4.8,0,0,1,150.2,145.2Z"/><path class="cls-2" d="M158.1,149.3a3.6,3.6,0,0,1-2,.6l-1.7-.2a3.1,3.1,0,0,0-.2.8.7.7,0,0,0,.8.8l2-.2.8-.2c.4,0,.6.1.6.4s-.3.7-1,1.1a4.8,4.8,0,0,1-2.2.5,2.8,2.8,0,0,1-2-.8,2.6,2.6,0,0,1-.8-1.9,4.6,4.6,0,0,1,.6-2.2,8.3,8.3,0,0,1,1.6-2,2.9,2.9,0,0,1,2-.8,2.2,2.2,0,0,1,1.7.9,2.5,2.5,0,0,1,.8,1.9C159.1,148.5,158.8,148.9,158.1,149.3Zm-1-2a.9.9,0,0,0-.6-.3c-.2,0-.4.1-.7.4l-.9,1h.4c1.4,0,2.1-.2,2.1-.7Z"/><path class="cls-2" d="M160.6,147.7V146c0-.6.1-.8.5-.8a.7.7,0,0,1,.6.2c.2.1.3.4.4.7l1.1-.7,1.1-.3c.7,0,1.1.2,1.1.5s0,.3-.1.4v.2c-.1,0-.1.1-.2.2h-.2l-.5.3-1.2,1a5.4,5.4,0,0,0-.7,1.7,8.1,8.1,0,0,1-.8,2.5c-.2.6-.5.9-.8.9a.8.8,0,0,1-.7-.5,1.3,1.3,0,0,1-.3-.8,3.5,3.5,0,0,1,.3-1.2,4.3,4.3,0,0,0,.4-1.4A5.1,5.1,0,0,0,160.6,147.7Z"/><path class="cls-2" d="M13.9,159.6c0-.4.2-.6.5-.6a1.2,1.2,0,0,1,.9.6,2.2,2.2,0,0,1,.6,1.2,8.3,8.3,0,0,1-.2,1.3c-.2.6-.3,1.2-.4,1.6a14.2,14.2,0,0,0-.6,2.1l-.6,1.8a11.1,11.1,0,0,1,2.1-3.2q1.1-1.2,1.8-1.2c.3,0,.6.2,1,.8a2.4,2.4,0,0,1,.6,1.5,6.9,6.9,0,0,1-.2,1.8,8.5,8.5,0,0,1-.8,2.4c-.4.8-.8,1.2-1.3,1.2s-.5-.2-.5-.7a8.6,8.6,0,0,1,.3-1.7,13.3,13.3,0,0,0,.5-2.1.4.4,0,0,0-.1-.3c-.6,0-1.5.9-2.6,2.9l-.9,1.4c-.3.3-.5.5-.8.5s-.5-.2-.8-.6a1.5,1.5,0,0,1-.5-.8,3.4,3.4,0,0,1,.1-.9c.1-.4.2-1,.4-1.7s.5-2.1.9-4.1S13.9,159.8,13.9,159.6Z"/><path class="cls-2" d="M25.7,163.5a.5.5,0,0,1,.5-.3c.3,0,.5.2.8.6a1.4,1.4,0,0,1,.5,1,10.6,10.6,0,0,1-.7,2.2c-.4,1.4-.8,2.5-1,3.3s-.4.6-.7.6l-.5-.2a.8.8,0,0,1-.2-.7,7.2,7.2,0,0,1,.1-1.3c-1,1.5-1.8,2.2-2.4,2.2a2.2,2.2,0,0,1-1.2-.6,1.9,1.9,0,0,1-.7-1.2,10.3,10.3,0,0,1,.9-3.7c.5-1.5,1-2.2,1.5-2.2a1,1,0,0,1,.8.4,1.1,1.1,0,0,1,.3.8,2.7,2.7,0,0,1-.4,1,11.6,11.6,0,0,0-1.1,3.5h.1c.1,0,.4-.2.8-.7a15.1,15.1,0,0,0,1.4-2.1A11.1,11.1,0,0,0,25.7,163.5Z"/><path class="cls-2" d="M37.9,163.2a1,1,0,0,1,.9.7,3.1,3.1,0,0,1,.4,1.5c0,.4-.1,1-.2,1.9a22.5,22.5,0,0,1-.8,2.4c-.4.8-.7,1.2-1.2,1.2s-.4-.2-.4-.7a13.4,13.4,0,0,1,.3-2.2,8.2,8.2,0,0,0,.4-2c0-.3,0-.5-.1-.5s-.5.3-.8.7l-1,1.9a12,12,0,0,0-.8,1.5c-.1.2-.2.3-.2.5a.5.5,0,0,0-.2.4c-.4.5-.8.5-1.3,0a1,1,0,0,1-.4-.8s.1-.4.2-1.1a9.5,9.5,0,0,0,.3-2.5c0-.4-.1-.6-.2-.6l-.4.4-.7,1.3-.9,1.6c-.8,1.4-1.4,2.1-1.9,2.1s-.5-.2-.8-.6a1.5,1.5,0,0,1-.5-.8,7,7,0,0,1,.3-1.4,9.3,9.3,0,0,0,.5-2.4,10.3,10.3,0,0,1,.2-2c0-.4.1-.7.3-.7a1.6,1.6,0,0,1,1.1.5,1.2,1.2,0,0,1,.6.9,16.7,16.7,0,0,1-.7,3.1,14,14,0,0,1,1.8-3.4,2.1,2.1,0,0,1,1.4-.9c.3,0,.6.2,1,.7a2.2,2.2,0,0,1,.6,1.3v1.1a6,6,0,0,1,1.4-2.1A2.4,2.4,0,0,1,37.9,163.2Z"/><path class="cls-2" d="M46.4,166.6c.2.2.3.3.3.5l-.2.8a5.1,5.1,0,0,0-.2.9,1.5,1.5,0,0,0-.1.6.4.4,0,0,0-.1.3v.5c0,.1,0,.2-.1.2v.2c-.1.1-.1.1-.1.2h-.3a.7.7,0,0,1-.6-.4,3,3,0,0,1-.4-1c-1,.9-1.7,1.4-2.4,1.4a2.5,2.5,0,0,1-2.1-2.1,5.7,5.7,0,0,1,.6-2.1,8,8,0,0,1,1.8-2.4,2.9,2.9,0,0,1,2.2-1.1,2.1,2.1,0,0,1,1.4.7c.6.5.9.9.9,1.3A3,3,0,0,1,46.4,166.6ZM42.1,169a3.3,3.3,0,0,0,1.6-.8,3.7,3.7,0,0,0,1.2-2.1l.2-.2c0-.5-.1-.8-.2-.8a2.1,2.1,0,0,0-1.4.7,8.8,8.8,0,0,0-1.2,1.7,3.6,3.6,0,0,0-.5,1.3c0,.1,0,.2.1.2Z"/><path class="cls-2" d="M53.2,163.2a1.7,1.7,0,0,1,1.4.7,2,2,0,0,1,.6,1.5,12.7,12.7,0,0,1-.4,2.6,12.3,12.3,0,0,1-.9,2.2c-.4.5-.7.7-1,.7s-.5-.2-.5-.7a6.8,6.8,0,0,1,.5-2.2,9.9,9.9,0,0,0,.3-1.9c0-.4,0-.6-.1-.6l-.4.2-.3.3-.3.4c-.1.2-.2.3-.2.4l-.3.5-.3.5-.3.5c-.9,1.7-1.6,2.6-2.2,2.6s-.4-.2-.8-.5a1.8,1.8,0,0,1-.4-.8,1.5,1.5,0,0,1,.2-.8l.3-.8c.1-.2.1-.4.2-.6a1.7,1.7,0,0,1,.1-.7v-.6a1.5,1.5,0,0,0,.1-.7c.1-1.3.2-2,.2-2.1l.2-.3a1.6,1.6,0,0,1,1.1.5,1.2,1.2,0,0,1,.6.9,11.4,11.4,0,0,1-.5,2.6,15.8,15.8,0,0,1,1.8-2.7C52.4,163.5,52.8,163.2,53.2,163.2Z"/><path class="cls-2" d="M57.1,164.8c.8-1.1,1.5-1.7,2.3-1.7a2.3,2.3,0,0,1,1.9.9,2.6,2.6,0,0,1,.8,1.9,6.8,6.8,0,0,1-.5,2.3,4.9,4.9,0,0,1-1.6,1.9,3.2,3.2,0,0,1-2,.8,1.8,1.8,0,0,1-1.5-.7,2.8,2.8,0,0,1-.6-1.8A6,6,0,0,1,57.1,164.8Zm2.4,3.1a4.1,4.1,0,0,0,.4-3.4,3.6,3.6,0,0,0-1.3,1.6,5.2,5.2,0,0,0-.7,2.1,2.9,2.9,0,0,0,.2,1.2A3.4,3.4,0,0,0,59.5,167.9Z"/><path class="cls-2" d="M75,166.6c.2.2.3.3.3.5l-.2.8a4.6,4.6,0,0,1-.3.9,1.1,1.1,0,0,1-.1.6v.3c0,.1,0,.1-.1.3v.2a.3.3,0,0,1-.1.2c0,.1,0,.2-.1.2v.2H74c-.1,0-.3-.1-.5-.4a3,3,0,0,1-.4-1,4.4,4.4,0,0,1-2.4,1.4,2.1,2.1,0,0,1-1.4-.7,2.3,2.3,0,0,1-.8-1.4,6.3,6.3,0,0,1,.7-2.1,8,8,0,0,1,1.8-2.4,2.8,2.8,0,0,1,2.2-1.1,2.1,2.1,0,0,1,1.4.7,1.7,1.7,0,0,1,.8,1.3A2.7,2.7,0,0,1,75,166.6ZM70.6,169a3,3,0,0,0,1.6-.8,3.3,3.3,0,0,0,1.3-2.1l.2-.2c0-.5-.1-.8-.3-.8a1.9,1.9,0,0,0-1.3.7,8.8,8.8,0,0,0-1.2,1.7,3.6,3.6,0,0,0-.5,1.3v.2Z"/><path class="cls-2" d="M81.8,163.2a1.7,1.7,0,0,1,1.4.7,2,2,0,0,1,.6,1.5,8.5,8.5,0,0,1-.5,2.6,5.6,5.6,0,0,1-.9,2.2c-.3.5-.6.7-.9.7s-.6-.2-.6-.7a11.6,11.6,0,0,1,.5-2.2,6.3,6.3,0,0,0,.4-1.9c0-.4,0-.6-.1-.6l-.4.2-.3.3-.3.4-.3.4c0,.2-.1.3-.3.5a1.7,1.7,0,0,0-.2.5l-.3.5c-.9,1.7-1.7,2.6-2.2,2.6a1.5,1.5,0,0,1-.8-.5l-.5-.8a2,2,0,0,1,.3-.8l.3-.8c0-.2.1-.4.1-.6a1.7,1.7,0,0,0,.1-.7,1.8,1.8,0,0,0,.1-.6,2,2,0,0,1,.1-.7,10.7,10.7,0,0,1,.2-2.1c.1-.2.1-.3.2-.3a1.6,1.6,0,0,1,1.1.5,1.1,1.1,0,0,1,.5.9,10.3,10.3,0,0,1-.4,2.6,26.2,26.2,0,0,1,1.7-2.7C81,163.5,81.4,163.2,81.8,163.2Z"/><path class="cls-2" d="M88.1,166.1a9.4,9.4,0,0,1-.6,1.8,9,9,0,0,0-.3,1.2h.3l1.1-.3,1.1-.3c.3,0,.4.1.4.5s-.3.7-1,1.2a3.5,3.5,0,0,1-2.1.7,2.1,2.1,0,0,1-1.1-.5c-.5-.4-.7-.7-.7-1.1a5.7,5.7,0,0,1,.5-1.9l.6-2-.9.2a.7.7,0,0,1-.6-.4,1.2,1.2,0,0,1-.4-.8c0-.3.8-.6,2.4-.8s.2-1.8.2-2.4a.5.5,0,0,1,.5-.5l1,.5a1.2,1.2,0,0,1,.6.9,8.3,8.3,0,0,1-.2,1.3H90c.7,0,1.1.1,1.1.5s-.2.4-.6.5a7.2,7.2,0,0,1-2,.5Z"/><path class="cls-2" d="M97.1,167.3a4.2,4.2,0,0,1-2.1.6l-1.7-.2a2.5,2.5,0,0,0-.1.8c0,.3,0,.5.1.6a1,1,0,0,0,.7.2l1.9-.2.8-.2c.4,0,.6.1.6.4s-.3.7-.9,1.1a5.6,5.6,0,0,1-2.3.5,2.8,2.8,0,0,1-2-.8,2.6,2.6,0,0,1-.8-1.9A4.7,4.7,0,0,1,92,166a5.3,5.3,0,0,1,1.6-2,2.6,2.6,0,0,1,1.9-.8,2.6,2.6,0,0,1,1.8.9,2.9,2.9,0,0,1,.8,1.9C98.1,166.5,97.7,166.9,97.1,167.3Zm-1.1-2a.9.9,0,0,0-.6-.3c-.2,0-.4.1-.7.4a3.9,3.9,0,0,0-.8,1h.4c1.3,0,2-.2,2-.7Z"/><path class="cls-2" d="M103.4,163.2a1.5,1.5,0,0,1,1.2.7,2.1,2.1,0,0,1,.5,1.2.3.3,0,0,1-.3.3h-.5l-.7-.2-1,.3c-.5.1-.7.4-.7.6s.1.3.4.4l.9.6a2.4,2.4,0,0,1,.8.9,1.6,1.6,0,0,1,.5,1.1,1.7,1.7,0,0,1-1,1.3,4,4,0,0,1-4.2,0,1.2,1.2,0,0,1-.8-1.1c0-.4.1-.6.4-.6l.5.2a3.6,3.6,0,0,0,1.9.4c.7,0,1.1-.1,1.1-.3s-.2-.4-.4-.7l-1-.6-.9-.8a1.2,1.2,0,0,1-.4-.9c0-.5.5-1.1,1.4-1.8A5.2,5.2,0,0,1,103.4,163.2Z"/><path class="cls-2" d="M116.3,172l1.1-.3.5.2a.6.6,0,0,1,.2.5.4.4,0,0,1-.2.4l-.8.5-1,.8-.9.6a.7.7,0,0,1-.6.2c-.1,0-.3-.1-.5-.4a1.6,1.6,0,0,1-.3-.8,19.6,19.6,0,0,1,1.2-3.4,2.9,2.9,0,0,1-1.5.6,1.7,1.7,0,0,1-1.3-.8,1.9,1.9,0,0,1-.7-1.3,3.7,3.7,0,0,1,.4-1.6,16.2,16.2,0,0,1,1-1.8,7.5,7.5,0,0,1,1.5-1.6,3.2,3.2,0,0,1,1.7-.6,1.7,1.7,0,0,1,1.4.7,1.7,1.7,0,0,1,.7,1.3c0,.3-.1.4-.4.4l-.6-.3a.9.9,0,0,0-.6-.3,2.8,2.8,0,0,0-1.5.8,7,7,0,0,0-1.3,1.7,2.8,2.8,0,0,0-.6,1.3c0,.1,0,.2.1.2h.2a2.9,2.9,0,0,0,1.6-.9,3.2,3.2,0,0,0,1.2-2.1l.4-.2a1.6,1.6,0,0,1,.9.4c.4.3.7.5.7.6a3.3,3.3,0,0,1-.3,1c-.2.5-.5,1.1-.8,2S116.5,171.4,116.3,172Z"/><path class="cls-2" d="M124.5,163.5a.5.5,0,0,1,.5-.3c.2,0,.5.2.8.6a1.9,1.9,0,0,1,.5,1c0,.2-.3.9-.7,2.2l-1.1,3.3a.7.7,0,0,1-.7.6l-.5-.2a1.4,1.4,0,0,1-.2-.7,10.5,10.5,0,0,1,.2-1.3c-1,1.5-1.9,2.2-2.5,2.2a1.7,1.7,0,0,1-1.1-.6,1.5,1.5,0,0,1-.7-1.2,12.4,12.4,0,0,1,.8-3.7c.6-1.5,1.1-2.2,1.6-2.2a.9.9,0,0,1,.7.4.9.9,0,0,1,.4.8l-.4,1a9.2,9.2,0,0,0-1.1,3.5h0c.2,0,.5-.2.9-.7a15.1,15.1,0,0,0,1.4-2.1A11.1,11.1,0,0,0,124.5,163.5Z"/><path class="cls-2" d="M132.2,167.3a3.6,3.6,0,0,1-2,.6l-1.7-.2a3.1,3.1,0,0,0-.2.8.8.8,0,0,0,.2.6l.6.2,2-.2.8-.2c.4,0,.6.1.6.4s-.3.7-.9,1.1a5.6,5.6,0,0,1-2.3.5,2.8,2.8,0,0,1-2-.8,2.6,2.6,0,0,1-.8-1.9,3.8,3.8,0,0,1,.7-2.2,5.3,5.3,0,0,1,1.6-2,2.5,2.5,0,0,1,1.9-.8,2.2,2.2,0,0,1,1.7.9,2.5,2.5,0,0,1,.8,1.9C133.2,166.5,132.9,166.9,132.2,167.3Zm-1-2a.9.9,0,0,0-.6-.3c-.2,0-.4.1-.7.4a3.9,3.9,0,0,0-.8,1h.3c1.4,0,2.1-.2,2.1-.7Z"/><path class="cls-2" d="M146,166.6c.2.2.3.3.3.5l-.2.8-.3.9a1.1,1.1,0,0,1-.1.6v.3c0,.1,0,.1-.1.3v.2a.3.3,0,0,1-.1.2c0,.1,0,.2-.1.2v.2H145c-.1,0-.3-.1-.5-.4a3,3,0,0,1-.4-1,4.4,4.4,0,0,1-2.4,1.4,2.1,2.1,0,0,1-1.4-.7,2.3,2.3,0,0,1-.8-1.4,6.3,6.3,0,0,1,.7-2.1,9.6,9.6,0,0,1,1.7-2.4,3.1,3.1,0,0,1,2.3-1.1,2.1,2.1,0,0,1,1.4.7,1.7,1.7,0,0,1,.8,1.3A2.7,2.7,0,0,1,146,166.6Zm-4.4,2.4a3,3,0,0,0,1.6-.8,3.3,3.3,0,0,0,1.3-2.1l.2-.2c0-.5-.1-.8-.3-.8a1.9,1.9,0,0,0-1.3.7,8.8,8.8,0,0,0-1.2,1.7,3.6,3.6,0,0,0-.5,1.3v.2Z"/><path class="cls-2" d="M150.3,159.6a2.2,2.2,0,0,1,.6,1.3c0,.4-.1,1.1-.2,2.1a13.1,13.1,0,0,1-.4,2.5c-.8,3.6-1.4,5.4-1.7,5.4a1.5,1.5,0,0,1-.8-.5,1.4,1.4,0,0,1-.5-.9l.4-1.6c.3-1,.5-2.3.8-3.9a24.5,24.5,0,0,0,.4-4.6c0-.3.2-.4.5-.4S149.9,159.2,150.3,159.6Z"/><path class="cls-2" d="M163.4,159c.3,0,.6.2,1,.6a2.2,2.2,0,0,1,.6,1.2,18,18,0,0,1-.6,2.4c-.3,1.4-.5,2.2-.6,2.5-.8,3.5-1.4,5.2-1.7,5.2a.8.8,0,0,1-.7-.4.9.9,0,0,1-.4-.7h0a4.3,4.3,0,0,1-2.2,1.2,1.5,1.5,0,0,1-1.2-.7,2.2,2.2,0,0,1-.6-1.3,5.3,5.3,0,0,1,.1-1.2,8.8,8.8,0,0,1,.5-1.5,10.9,10.9,0,0,1,.8-1.5,3.5,3.5,0,0,1,1-1.1,1.9,1.9,0,0,1,1.2-.4,1.8,1.8,0,0,1,1.6.9,21,21,0,0,0,.8-4.7C163,159.1,163.1,159,163.4,159ZM159,169a2.8,2.8,0,0,0,1.3-.6,4.3,4.3,0,0,0,1.3-1.7v-.5a1.3,1.3,0,0,0-.3-.8c-.2-.2-.3-.3-.5-.3a.9.9,0,0,0-.8.4,4.7,4.7,0,0,0-.7,1.2,7.6,7.6,0,0,0-.5,2.1v.2Z"/><path class="cls-2" d="M166.8,163.2a1,1,0,0,1,.9.6,1.8,1.8,0,0,1,.5,1.1,12.5,12.5,0,0,1-.6,2.1,31.8,31.8,0,0,1-1,3.3.7.7,0,0,1-.7.6.9.9,0,0,1-.6-.3c-.2-.1-.2-.3-.2-.6a15.7,15.7,0,0,1,.3-2,16.8,16.8,0,0,0,.6-2.7l.4-1.6C166.5,163.3,166.7,163.2,166.8,163.2Zm-.2-1.9a1.3,1.3,0,0,1,.3-.8c.3-.3.5-.4.7-.4s.5.2.8.8a2.8,2.8,0,0,1,.5,1.2.8.8,0,0,1-.2.5.6.6,0,0,1-.5.2,1.4,1.4,0,0,1-1-.6A1.4,1.4,0,0,1,166.6,161.3Z"/><path class="cls-2" d="M174.5,163.2a1.6,1.6,0,0,1,1.4.7,2,2,0,0,1,.6,1.5,8.2,8.2,0,0,1-.4,2.6,12.3,12.3,0,0,1-.9,2.2,1.3,1.3,0,0,1-1,.7c-.3,0-.5-.2-.5-.7a11.6,11.6,0,0,1,.5-2.2,13,13,0,0,0,.4-1.9c0-.4-.1-.6-.2-.6l-.4.2-.3.3c-.1.1-.1.3-.3.4s-.1.3-.2.4l-.3.5-.3.5c-.1.1-.1.3-.3.5s-1.6,2.6-2.1,2.6-.5-.2-.8-.5a1.5,1.5,0,0,1-.5-.8,4.5,4.5,0,0,1,.2-.8l.3-.8c.1-.2.1-.4.2-.6s.1-.5.1-.7,0-.5.1-.6v-.7c.1-1.3.2-2,.2-2.1s.2-.3.3-.3a2.1,2.1,0,0,1,1.1.5,1.4,1.4,0,0,1,.5.9,11.4,11.4,0,0,1-.5,2.6,25.1,25.1,0,0,1,1.8-2.7C173.7,163.5,174.2,163.2,174.5,163.2Z"/><path class="cls-2" d="M183,167.3a3.6,3.6,0,0,1-2,.6l-1.7-.2a3.1,3.1,0,0,0-.2.8.8.8,0,0,0,.2.6,1,1,0,0,0,.7.2l1.9-.2.8-.2c.4,0,.6.1.6.4s-.3.7-.9,1.1a5.6,5.6,0,0,1-2.3.5,2.8,2.8,0,0,1-2-.8,2.6,2.6,0,0,1-.8-1.9,3.8,3.8,0,0,1,.7-2.2,5.3,5.3,0,0,1,1.6-2,2.5,2.5,0,0,1,1.9-.8,2.2,2.2,0,0,1,1.7.9,2.5,2.5,0,0,1,.8,1.9C184,166.5,183.7,166.9,183,167.3Zm-1-2a.9.9,0,0,0-.6-.3c-.2,0-.4.1-.7.4a3.9,3.9,0,0,0-.8,1h.4c1.3,0,2-.2,2-.7Z"/><path class="cls-2" d="M185.5,165.7V164c0-.6.2-.8.5-.8a.7.7,0,0,1,.6.2c.2.1.3.4.4.7l1.2-.7,1-.3c.8,0,1.1.2,1.1.5s0,.3-.1.4v.2c-.1,0-.1.1-.2.2h-.2l-.5.3a5.2,5.2,0,0,0-1.1,1,3.8,3.8,0,0,0-.8,1.7,13.5,13.5,0,0,1-.7,2.5q-.5.9-.9.9a.8.8,0,0,1-.7-.5,1.2,1.2,0,0,1-.2-.8,3.5,3.5,0,0,1,.3-1.2c.1-.5.3-1,.4-1.4S185.5,166.2,185.5,165.7Z"/><path class="cls-2" d="M191.2,164.8a3,3,0,0,1,2.3-1.7,2.5,2.5,0,0,1,1.9.9,2.6,2.6,0,0,1,.8,1.9,5.3,5.3,0,0,1-.6,2.3,4,4,0,0,1-1.5,1.9,3.2,3.2,0,0,1-2.1.8,1.7,1.7,0,0,1-1.4-.7,2.8,2.8,0,0,1-.6-1.8A6,6,0,0,1,191.2,164.8Zm2.4,3.1a4.1,4.1,0,0,0,.6-2,2.4,2.4,0,0,0-.3-1.4,5.8,5.8,0,0,0-1.3,1.6,4.8,4.8,0,0,0-.6,2.1,2.9,2.9,0,0,0,.2,1.2A4.1,4.1,0,0,0,193.6,167.9Z"/><path class="cls-2" d="M198.7,171.2a1.7,1.7,0,0,1-1.1-.6,1.8,1.8,0,0,1-.6-1,1.8,1.8,0,0,1,.4-.9,1,1,0,0,1,.8-.4c.2,0,.5.3.8.8a2.4,2.4,0,0,1,.5,1.3.9.9,0,0,1-.3.5C199,171.1,198.9,171.2,198.7,171.2Z"/><path class="cls-2" d="M230.7,185c.4.1.2-.4.3-.4S230.7,185.1,230.7,185Z"/><polygon class="cls-2" points="225.1 186 225.2 185.8 224.4 186.2 225.1 186"/><path class="cls-2" d="M219.8,186c.5.7,1.9-.1,2.9.1v.2l.5-.6A15.5,15.5,0,0,1,219.8,186Z"/><path class="cls-2" d="M217,184.4c.2.3-.6.3.7.1H217Z"/><path class="cls-2" d="M217.6,184.4c.5,0-.4-.2,0,0Z"/><path class="cls-2" d="M215,184.6l.7-.2c-.1-.2-.8-.2-.5-.4S214.6,184.3,215,184.6Z"/><path class="cls-2" d="M214.3,185.1h.4C214.6,185,214.5,184.9,214.3,185.1Z"/><path class="cls-2" d="M215.5,184.8l-.8.2c.1.1.1.4.4-.1S215.2,184.9,215.5,184.8Z"/><path class="cls-2" d="M215.9,184.9c.5.2,1,.3.3.5C217.6,185.3,217.3,184.8,215.9,184.9Z"/><path class="cls-2" d="M219.6,186.7l.5.2.5-.2C220.4,186.8,219.5,186.5,219.6,186.7Z"/><path class="cls-2" d="M210.5,184.2c-.1.2.2.4.3.6h.5C211,184.6,210.5,184.5,210.5,184.2Z"/><path class="cls-2" d="M210.8,184.8l-.9.3C210.7,185.1,210.8,185,210.8,184.8Z"/><polygon class="cls-2" points="214.2 185.9 215.5 185.4 213.9 185.9 214.2 185.9"/><polygon class="cls-2" points="207.4 184.2 207.8 183.9 207 184.4 207.4 184.2"/><path class="cls-2" d="M205.3,184.3c.4-.3-.4-.5-.1-.7l-1.4.5A2.1,2.1,0,0,1,205.3,184.3Z"/><path class="cls-2" d="M203,184.5l.8-.4Z"/><path class="cls-2" d="M208.6,185a1,1,0,0,0-.7-.4l.4.4Z"/><path class="cls-2" d="M208.3,185Z"/><path class="cls-2" d="M208.7,185h0Z"/><path class="cls-2" d="M212.1,185.5c-.5.3-1.5.5-.5.9S211.4,185.9,212.1,185.5Z"/><path class="cls-2" d="M209,185.6h.9c0-.2-.2-.3.1-.4Z"/><polygon class="cls-2" points="208.6 185.7 209 185.6 208.7 185.5 208.6 185.7"/><path class="cls-2" d="M204.5,184.9l-1.2.2h1.5C204.8,185.1,205,184.8,204.5,184.9Z"/><path class="cls-2" d="M206.3,185Z"/><path class="cls-2" d="M198.8,185.1h0Z"/><path class="cls-2" d="M204.8,185.3a.7.7,0,0,0,.8-.2h-.8C204.7,185.3,204.7,185.3,204.8,185.3Z"/><path class="cls-2" d="M201.8,184.7l.6.2C202.2,184.8,201.9,184.5,201.8,184.7Z"/><path class="cls-2" d="M206.1,184.9h0Z"/><path class="cls-2" d="M206.1,184.9l-.5.2h.5Z"/><path class="cls-2" d="M197.4,187.8c.1-.4,1-.7,1.9-.3s.3-1.6-.4-2.3-.1.3-.9.5,1.9.5,1.1.9-.9-.1-1.4-.4-1.4.8-1.2,1.5l1-.3C197.5,187.5,197.1,187.7,197.4,187.8Z"/><path class="cls-2" d="M200.5,185.2h.3l-1.2-.6c-.6.2-.7.4-.7.5h1.6Z"/><path class="cls-2" d="M202.4,185.2c-.3.4-1.1.6-.6,1s.7-.3,1.3-.5c-1.6.1.5-.3-.7-.5h.9l-.9-.2h.1c0,.1.1.1,0,.1h0c-.1,0-.1.1-.1.2s-.1-.2.1-.2h0l-1.7.3Z"/><path class="cls-2" d="M210.7,187.3a.1.1,0,0,1-.1-.1C210.5,187.3,210.5,187.3,210.7,187.3Z"/><path class="cls-2" d="M210,187.1a.5.5,0,0,1,.6-.2c.3.1,0,.2,0,.3s.8-.3.1-.5h-.1c-.7-.2-1.5-.7-1.4-.8A3.8,3.8,0,0,0,210,187.1Z"/><path class="cls-2" d="M206.1,186.2l-1.3.2.7.4v-.2C206.2,186.7,206,186.4,206.1,186.2Z"/><polygon class="cls-2" points="198.6 184.9 198.8 184.4 198 185.1 198.6 184.9"/><polygon class="cls-2" points="196.8 184.9 196.9 184.5 196.4 184.8 196.8 184.9"/><path class="cls-2" d="M95.8,189.8l-.4.2Z"/><path class="cls-2" d="M98.8,189.9v-.2C98.7,189.8,98.7,189.9,98.8,189.9Z"/><path class="cls-2" d="M152.9,185c-.6-.4-1.3-1-1.2-.5l.2.4A1.6,1.6,0,0,1,152.9,185Z"/><path class="cls-2" d="M122.8,187.6h.2l.4-.4Z"/><path class="cls-2" d="M122.4,189.4l-.8-.3Z"/><path class="cls-2" d="M79.8,190.3l-.4.4C80.1,190.7,79.8,190.5,79.8,190.3Z"/><path class="cls-2" d="M178.5,185.1l-1.3-.3C177.8,185.1,178.3,185.4,178.5,185.1Z"/><path class="cls-2" d="M97,185.2c-.2.1-.4.2-.3.3S97.1,185.3,97,185.2Z"/><path class="cls-2" d="M175.8,184.8h1.4A1.4,1.4,0,0,0,175.8,184.8Z"/><path class="cls-2" d="M21.8,189.9h0Z"/><path class="cls-2" d="M4.9,185.6h0Z"/><path class="cls-2" d="M189.6,184.7Z"/><path class="cls-2" d="M191.5,186.5l-.2.2Z"/><path class="cls-2" d="M172,187.5h0C172.1,187.6,172,187.6,172,187.5Z"/><path class="cls-2" d="M190.2,184.9h0Z"/><path class="cls-2" d="M190.1,184.7h.4C190.5,184.7,190.5,184.7,190.1,184.7Z"/><path class="cls-2" d="M189.1,184.8h.6c-.1,0-.1,0-.1-.1Z"/><path class="cls-2" d="M52.9,188.8h-.1C52.4,188.9,52.6,188.9,52.9,188.8Z"/><path class="cls-2" d="M143,189.5Z"/><path class="cls-2" d="M141.6,189.8a1.4,1.4,0,0,1,1.4-.4l-.5-1.2Z"/><path class="cls-2" d="M88.8,190l1,.4c-1.2.6-2,.4-1.1.9.1-1.3,3.7-.1,3.8-1.5l.7.3h-.4c1.2.6.9-1,2.5-.8s.9.3.5.4l1.3-.3c.3,0,.2.3-.1.2h1.8l1.2-.7c.5.2-.2.1-.1.3l1-.3c.5.3-.4.7-1.1.6.9,1.4.8-.3,2.9.5h-.9c.6.8,1.3.5,2.5,1s-2.3-1.2-1.1-1.5a1.7,1.7,0,0,0,1.3-.2c0,.5.6.4,1.3.4v.6c.8-.2.7-.5,1.2-.8a1.4,1.4,0,0,1,1.3,1c1.4.1-1-.8.7-.9a7.4,7.4,0,0,0,3.5-.4c.8.2-.2.4.1.6l.7-.6c.2.1.2.2.1.3s.1-.6,1.1-.8,2,1,3.2.2-.2.4-.1.6a9.1,9.1,0,0,0,2.8-1l1.2.4c-.9-.5.2-1.1,1.2-1.5l-.8-.6,1.6-.3c.2.1,0,.3-.2.6l.2-.2c.6.3.3.6-.1,1l-.5-.4c-.4.4-.8.8-.7,1.2l.5-.2c-.1.1-.2.2-.1.3l.4-.3.4.8v-.3l2,.4c1.4-.7,2.6-1.8,4.9-2.1-.6.6-.1.9-.1,1.5s-1.8.3-3,.2c.6,0,.5.3.3.4l2.1-.6c0,.5.5.4,1,.6s1.6-.6,2.4-.9-.1.6-1.1.6c1.1.7,1.4-1.2,2.6-.6h-.5c.6-.3,2,0,1.7.3h-.3c1.7.1,5.2,0,5.4-.9a5.3,5.3,0,0,1-.3,1.2l3-2.8c-.3.7.7,2.4-.7,2.9a2.9,2.9,0,0,0,1.8-.1c-.3-.1-.7-1-.3-1.1s.7.4,2,1.1c-.5-.1,0-1.3.7-1.2s0,1.1-.2,1.2l1.6-1.1c-.4.2-.1.9.3,1.3s1.4,0,1.8-.1l-.7-.3c1.8.2,1.8-1.6,3.6-1.5-.2.2-.5,1.4.4,1.6s1.9-2.8,3.5-3.3l.3.4,1.2-.4a23.2,23.2,0,0,1-4.1,3.4c.7.3.2.4,1.2.4s-.5.4-.8.4l2.4.2c-.2-.6,1.8-.6,1.7-1.2l-2.6.7c-.1-.7,1.5-1.9,3.2-1.8s-.3,1.2-.3,1.4,1.6-.4,1.7-.2l-.7.3c1,.3,1.6-.9,2.7-.2s1.2.8,1.2.4a4.8,4.8,0,0,1-.3-3.7l2.5,1.1c.6.6-1,1.5-.4,2s.3-.4.5-.5-.2.6.7.5,1.8,0,.4-.6c.9-.2.9.1,2,.1s.9-1.5,1.7-1.7a.9.9,0,0,0,.3.5c1.8.1,2.7.4,4.4.4.1.2.9.4.6.7a1.3,1.3,0,0,1,1-.4c1,.6-1.2.1-.4.8s1.3-.6,2-.8-1.7-.1-2.4.1,1.3-1.7,3-2.1.6.6.9.4c2.5.2,2.2-1.4,4.3-.8s.1,1,.2,1.4-1.7-.3-2.4-.3l.9.3a2.6,2.6,0,0,1-1.5.1c.7.5,4.4.1,6.3.6s1-.4.7-.6H189c-.6-.5,1.2-.6.4-.8a4.8,4.8,0,0,1,3-.6l.2.6c0-.2-.8-.3-1.1-.2s1.8.9,2.4.1l-.9-.4a5.2,5.2,0,0,1,3-.8c-.5-.6-.3.1-1-.7.6.9-2.7,0-1.7.9-.7-.8-1.3-.3-2.3-1s.3.4-.5.3l-.2.2h0c.2.1.4.2.4.3s-1.8.4-2.3.7.2-.3-.1-.5l-.7.4c-.1-.5-1.4-.8-.1-1h-1.2a3.8,3.8,0,0,0-2.1-.1c-.5-.1-1.3.5-.9.1l-1.7.3h0c-1.8-.1-3.6.7-5.6-.1a6.2,6.2,0,0,1-2.1.2l-.2-.4c-.8.1-2.3-.4-2.6,0s-3.6-.2-4.9-.4v.5a10.6,10.6,0,0,0-2.9.3v.4c-1,.4-2.5-.3-4-.2.1-.2.5-.2.7-.1-1.8-1-3.8.8-5.5,0a.9.9,0,0,1-1,0h0l-.6-.2.5.2-1.3.2-.2-.5h-.1c-.5-.2-.4.3-.2.6l-.6.3c-.4-.8-1.2.3-1.7-.6s-2.4.3-2.7,1.2-.1-.2.1-.2a2,2,0,0,0-1.5.1l-.2-.6-1.2.8c-.7-.4-1-.6-.3-1.1-1.7.7-1.3.3-2.8,1V186c-.5,0-1.3.6-1.6.2s-5.7-.1-8.6-.8c.5,1.2-1.4-.5-1.5.4s-.6-.4-.1-.7c-1.5.3-2.3-.4-3.3.4s.3-.4.2-.6a.9.9,0,0,1-.7.1c-.1-.2.3-.3.5-.4-1.5.1-1.7.9-1.8,1.7a1.2,1.2,0,0,0-1.7.2c-.3-.3-.8-.5.2-.6s-3.3-.4-3.3.2a1.3,1.3,0,0,0-.9.1H116c-.4.8-.9.2-1.9.3h0c-2.1-.5-.9.3-3.1-.3l.2.4c-.2,1.1-1.9-.6-3.2-.2l.5.3c-.7.3-1.9-1.4-2.6-1.5s.2-.2.4-.3c-1.8-.6-.2.7-1.6.8s.4-.8-.5-.9-2.6,1.1-3.9.4c.3.3.6.6,0,.8s-2.6-1-3.5-.2v-.2c-.8.2-2.4.4-2.8.8-.7-1.7-4.6.8-4.5-.7H87.1v-.2a3.4,3.4,0,0,0-2.5.6c-.3-.1,0-.2,0-.3a5.7,5.7,0,0,0-4.1.5v-.5c-.5.3-3.1-.7-5.1-.2l.2-.2c-2.3.6-5.5-1.4-6.3.4l-1.6.5c2,.1-.3.8.6,1.1-.8.1-2-.6-1.1-.7h.2c.3-.9-2.5-.3-2.4-1-3.9.1-7.7-.4-11.3-.5l.4.8H52.9c-.4-.2-.5-.6.4-.5s-1.5.3-1.5.5c-1.8-.3.7-.9.1-.9h-.5a2.3,2.3,0,0,1-1.8.5c-.7-.1-.3-.4-.6-.4H47l.6.5c-.7.3-1.5,0-.7.7-1.1-1-6-.4-6.6-.7a8.3,8.3,0,0,1-3.2.4c.3.1.5.7-.6.6.4-1.3-1.9-.5-2.7-1.5.7.6-3,.2-1.8,1.1-.9-.1-.1-.5-.7-.8-2.1.5-4.6-.4-7.1-.2-.1.2.3.4-.2.7l-1.4-.9c-.5.1-.4,1-1.3.4s.3.4-.1.4c-5-.8-10.2.8-15.3-.9.7.4.2.4-.3.4s0,.5.1.7l-2.2-.7c-.4.7-2.2.1-2.5.7h.7c-.9.7,1.3,1.7,1.1,2.6,1-.8,2.7,1.3,4.3.1s-.3.3-.1.5.9-.5,1.9-.3H8.8c2.6-.1,3.7.3,6.7.6l-.2-.5a2,2,0,0,1,1,.3c.7-.7-1.8,0-1.1-.8.8.9,4.5,0,5,1.1s-.2-.6.7-.6l.3.3.2-.3c.7,0,1,.4,1,.6h-.6c.8.4,2.4-.1,2.6,0h-.9c2.7-.3,5.9.1,8.5-.5l-.2-.3c2-.4,1.6.3,3.7.1h0a3.8,3.8,0,0,1,1.6-.3c-.6.3,1,.5.3.8,2.1-.4,1-.3,2.4-1.1l.4.3a2.1,2.1,0,0,1,1.5-.6c-.8.3.7.6-.3,1,2.3.8,3.4-.8,4.4.4,1.1-1.1-1.9-.6-1.3-.8s.8-.8,1.5-.7,1.3,1.3,3.1,1.3h-.4c.7.2,1.3-.4,2.2,0s1.1.1,1.2-.7l-1.7.2c1-.2,1.9-1.2,3.4-.7-.1.2-.6.4-.9.5s.9-.2,1.4.1-2.1.1-3.1.7c.5.4,1.9-.5,1.4.3.8-1.1,1.8.2,3-.7v.5l.9-.3-.6.6c1-.5,1.9.5,2.9.2-2,0-.5-.6-1.3-.9,2.4-.6,1.4,1.2,4.1,1-.3.1-1.4-.3-.8-.5l1.6.5c1.8-.1-.3-.5.5-.8s.9-.2,1.7-.4v.5c2.1.3.5-1,2.4-.6l-.8.6h1l-.2.5a3.3,3.3,0,0,1,2.4-.1c-.2-.4.2-.9,1.1-.9s-.4.4.9.4c-.3.3-.6.7-1.1.2l-.4.5a5.4,5.4,0,0,0,2.2,0h-.5l1.9-.6c.3.1,0,.3-.2.4s.6-.3,1.2-.3-.1.8-.9,1l1.8-.4c.1.1.9.4.7.6s2.5-.8,3.8-.5l.5-.2c1.2.1,2.3.6,3.8,0l.9.7c1.1-.1-1.2-.8.8-1.1s.5.6.9.8a3.4,3.4,0,0,1,3.2-.5Zm14.3-.3c-.2.1-.8.4-1,.1S102.7,189.5,103.1,189.7Zm21.8-1.2a1,1,0,0,1-.9-.1A1.4,1.4,0,0,1,124.9,188.5Zm60.6-3.4h-.1C184.8,185,185,185,185.5,185.1Zm1.3.2c.1,0,.1-.1,0-.2s-.4.2-.7.1S186.4,185.4,186.8,185.3Zm-137.9.2.2.2C48.5,185.8,48.7,185.7,48.9,185.5Z"/><path class="cls-2" d="M122.4,189.2a.4.4,0,0,1-.1-.3C122.2,189,122.2,189.1,122.4,189.2Z"/><path class="cls-2" d="M79.9,190.2h0a.1.1,0,0,1-.1.1Z"/><path class="cls-2" d="M166.9,189.4a.6.6,0,0,1-.5-.2C166.3,189.3,166.5,189.4,166.9,189.4Z"/><path class="cls-2" d="M193.6,184.5h-.9l.8.2C193.5,184.7,193.3,184.5,193.6,184.5Z"/><path class="cls-2" d="M200.7,187.5h.4v-.2C200.5,187.2,200.2,187.4,200.7,187.5Z"/><path class="cls-2" d="M194.3,186.1c.1.4.6.3,1.2.2h-.1C195.5,185.7,194.9,185.9,194.3,186.1Z"/><path class="cls-2" d="M195.6,186.3h.5C196.2,186.1,195.9,186.2,195.6,186.3Z"/><path class="cls-2" d="M188.4,185.1c.3.1.2-.5.3-.4S186.9,185.3,188.4,185.1Z"/><polygon class="cls-2" points="194.8 187.5 194.6 187 194.3 187.4 194.8 187.5"/><path class="cls-2" d="M190.2,187.1h1c-.1-.1.1-.1.2-.1S190.2,186.9,190.2,187.1Z"/><path class="cls-2" d="M191.4,187.1h0Z"/><polygon class="cls-2" points="193.5 187.6 193.3 187.5 192.6 187.5 193.5 187.6"/><path class="cls-2" d="M180.3,187h-1c-.1.2.2.3.6.2S180.5,187.2,180.3,187Z"/><path class="cls-2" d="M183.4,188.4c-.3-.1-.3-.2-.5-.4v.6Z"/><path class="cls-2" d="M180.4,188.5c-.1.2-1.4.5-.1.5S181.4,188.7,180.4,188.5Z"/><polygon class="cls-2" points="165.3 187.7 165.6 187.7 165.5 186.7 165.3 187.7"/><path class="cls-2" d="M152,190.2c1.2.2.2-.7,1.3-.4s-.9-.2-.6-.4S151.6,189.5,152,190.2Z"/><path class="cls-2" d="M152.7,189.4l.4-.2Z"/><polygon class="cls-2" points="2.1 185 1.3 184.8 1.8 185.1 2.1 185"/><path class="cls-2" d="M.6,185.8v-.7l-.5.6C.2,185.7.5,185.6.6,185.8Z"/><path class="cls-2" d="M105.3,191v-.2c-.1-.2-.3-.2-.6-.2Z"/><polygon class="cls-2" points="94.9 190.5 95.1 190.5 94.7 189.9 94.9 190.5"/><path class="cls-2" d="M86.2,191.2h1.1C86.5,191.2,86.1,190.5,86.2,191.2Z"/></g></svg>