<svg xmlns="http://www.w3.org/2000/svg" xmlns:xlink="http://www.w3.org/1999/xlink" viewBox="0 0 922 558"><defs><style>.cls-1{fill:#79bab9;opacity:0.42;}.cls-2{fill:gray;opacity:0.35;}.cls-3{fill:#0b476f;stroke:#2c3235;}.Graphic-Style-9,.cls-3,.cls-7,.cls-9{stroke-miterlimit:10;}.cls-4{fill:#333;}.cls-5{fill:#736357;}.cls-6{fill:#3a3432;}.cls-7{fill:#006837;stroke:#084728;}.cls-8{fill:#084728;}.cls-9{stroke:#333;stroke-width:2.19px;fill:url(#linear-gradient);}.cls-10{opacity:0.54;}.cls-11{opacity:0.11;}.cls-12{fill:#fff;}.Graphic-Style-2{fill:#1a1a1a;}.Graphic-Style-9{fill:#ecf8fe;stroke:#52474c;stroke-width:3.15px;}.cls-13{opacity:0.19;}.cls-14{fill:#262626;}.cls-15{fill:#614415;}</style><linearGradient id="linear-gradient" x1="2386.14" y1="-72.46" x2="2400.85" y2="-72.46" gradientTransform="translate(3209 187.1) rotate(176.8)" gradientUnits="userSpaceOnUse"><stop offset="0"/><stop offset="0.5" stop-color="#010101"/><stop offset="0.5" stop-color="#171717"/><stop offset="1" stop-color="#1a1a1a"/></linearGradient></defs><title>act1_bg</title><g id="Layer_16" data-name="Layer 16"><path class="cls-1" d="M571,119.5c-20-10.6-40.5-21.3-62.5-23.4s-46,5.8-58.8,26.3c-16.3,26.4-10.1,64.5-25.2,91.7s-43.7,34.5-69.4,43.9c-82.6,30.3-157.5,96.6-191.3,187.9-2.2,6.2-4.3,13.5-1.4,19.3,1.9,3.6,5.4,5.8,8.8,7.4,44.9,20.4,89.8-30.1,137.7-37.4,50.1-7.7,96.9,32.9,147.4,34.6,52.2,1.7,99-37.8,150.9-44.3s100.7,19.8,147.6,44.3c21.4,11.2,43.9,22.4,67.5,21.9,27.8-.5,53.6-17.5,74.6-38.5,25-25,46.2-64.7,33.1-99.7C911.2,303.4,843.4,309,811.9,268c-3.5-4.6-6.6-10.3-6.1-16.4s3.3-9.3,6.3-13.1c29-36.4,78-49.7,99.1-92.6,2.8-5.6,5-12,4.1-18.3-1.5-10.5-10.6-16.9-19.2-21-114.9-55.3-206.3,56.5-325,12.5"/><ellipse class="cls-2" cx="822.6" cy="500.5" rx="34.6" ry="9.6"/><path d="M808.7,501.6a3.2,3.2,0,0,0,.2,1.4,1.8,1.8,0,0,0,2.6.7,5.1,5.1,0,0,0,2.3-1.6,35.4,35.4,0,0,0,6.6-11c-.3.5-4.7-.9-5.2-.9-2.1-.7-2.3-1.7-3.9-.5S808.7,498.8,808.7,501.6Z"/><path d="M808.7,501.6c0,1,.2,1.9.9,2.1a2.1,2.1,0,0,0,2.4-.2,7.4,7.4,0,0,0,1.6-1.9l1.4-2.1a42.6,42.6,0,0,0,4.2-8.9l2.1.7c0,.3-.2.5-.5.7s-.2.3-.4.3h-1.7c-.4,0-.9-.3-1.4-.3a11.3,11.3,0,0,1-2.8-.9,13.5,13.5,0,0,0-2.1-1.2c-.2,0-.4.3-.9.5l-.7.7a20.8,20.8,0,0,0-1.9,4.9C808.9,498.1,808.7,500,808.7,501.6Zm0,0a53.3,53.3,0,0,1,.2-5.6c.3-1.9.3-3.7,1.2-5.6a5.5,5.5,0,0,1,.9-1.4c.5-.2.7-.7,1.4-.9s1.4.2,1.9.2l1.2.5,2.5.7,1.2.2h.5c-.3,0-.3.2-.5.5l2.1.7a29.7,29.7,0,0,1-5.6,8.9,23.3,23.3,0,0,1-4,3.5,2.8,2.8,0,0,1-2.5,0C808.9,503.5,808.7,502.6,808.7,501.6Z"/><path d="M830.4,499.8c1.9.9,4.2,1.4,5.6,0s.7-1.9.7-3.1-1.6-5.1-2.8-7.5a.4.4,0,0,0-.4-.4H833c-2.1.4-7.9,1.4-8.6,3.9S828.3,498.6,830.4,499.8Z"/><path d="M830.4,499.8a5.1,5.1,0,0,0,4.5.4c1.4-.7,1.6-2.3,1.1-3.7a10.9,10.9,0,0,0-1.8-4.2c-.5-.7-.7-1.4-1.2-2.1s-.7-1-.2-.5.4,0,.2,0l-.7.2-4.4,1c-1.4.4-3.1.9-3.3,2.1s.9,2.8,1.9,3.7A24.2,24.2,0,0,0,830.4,499.8Zm0,0a22.1,22.1,0,0,1-3.9-2.6,14.5,14.5,0,0,1-1.9-1.7,4,4,0,0,1-1-2.5,3.7,3.7,0,0,1,1.5-2.6l2.3-1.4c1.6-.7,3.3-.9,4.7-1.4l.4-.2a1.5,1.5,0,0,1,1.4.2c.5.2.7.7,1,.9l.2.5a6.4,6.4,0,0,1,.9,2.1,12.6,12.6,0,0,1,1.2,4.9,4.8,4.8,0,0,1-.5,2.6,2.1,2.1,0,0,1-1.8,1.6A5.1,5.1,0,0,1,830.4,499.8Z"/><path class="cls-3" d="M807.1,490.4a53.9,53.9,0,0,0,28.2.2c1.2-12.8,2.1-25.4,3.3-38.2.7-8.7,1.4-17.1.2-25.7-6.7,1.1-13.5,2.3-20.5,3-4,.5-11.9-.5-14,4s.9,9.8,1.4,13.3a203.4,203.4,0,0,1,1.8,20.8C807.8,469.6,806.8,490.4,807.1,490.4Z"/><path class="cls-3" d="M807.1,490.4a55.6,55.6,0,0,0,14,1.9,46.9,46.9,0,0,0,14-1.9l-.2.2,2.1-31.9c.2-5.4.7-10.8.9-15.9a91,91,0,0,0-.5-15.7l1.4,1-11.4,1.6-5.9.9-2.8.5a15.1,15.1,0,0,1-3,.2,35.1,35.1,0,0,0-5.6.3,6.7,6.7,0,0,0-4.7,2.1c-.9,1.1-.9,3.2-.9,5.1s.7,3.7.9,5.6.7,4,1,5.9a54.6,54.6,0,0,1,.4,5.8c.3,4,.5,7.7.5,11.7C807.8,475,807.1,482.7,807.1,490.4Zm0,0c0-7.7.4-15.4.4-23.1-.2-4-.4-7.7-.9-11.4-.2-1.9-.5-3.8-.7-5.9a22.5,22.5,0,0,0-1.2-5.6,49.7,49.7,0,0,1-1.1-5.8c-.3-1.9-.5-4.2.9-6.1a7.8,7.8,0,0,1,5.6-2.8,24,24,0,0,1,5.8-.5,12.7,12.7,0,0,0,2.8-.2l2.8-.5,5.7-.9,11.4-1.9,1.2-.2.2,1.2c1.4,10.7,0,21.4-1.2,32.2l-3.2,31.7v.3h-.3a60.6,60.6,0,0,1-14.2,1.6A47,47,0,0,1,807.1,490.4Z"/><path class="cls-4" d="M816.4,443a29.9,29.9,0,0,0,7.7.9,41.6,41.6,0,0,0,7.7-.7,10.9,10.9,0,0,1-15.4-.2Z"/><path class="cls-5" d="M845.6,421.8a11.3,11.3,0,0,1-.7,1.8,20.4,20.4,0,0,1-1.4,2.6,4.2,4.2,0,0,1-2.3,1.6c.2-3.7,1.8-7.2,2.1-10.9v-.3h.2c1.2,0,2.6,0,2.8,1.2S845.8,420.8,845.6,421.8Z"/><path class="cls-6" d="M845.6,421.8c-.5,1.1-.9,2.5-1.4,3.7a6,6,0,0,1-3,3.3l-1,.2v-1.2a16.7,16.7,0,0,1,.5-4.9c.5-1.6.9-3,1.2-4.4s.2-.7.2-1.2,0-.2.2-.7.7-.7,1-.7h.4a8.6,8.6,0,0,1,2.6,1,1.6,1.6,0,0,1,.5,1.4c0,.4-.3.7-.3,1.1A7.5,7.5,0,0,0,845.6,421.8Zm0,0a10.3,10.3,0,0,0,.5-2.4c0-.7.2-1.6-.5-2.1a3.7,3.7,0,0,0-2.1,0h-.2l.4-.2v1.6c-.2,3.5-1.4,6.3-2.1,9.4l-.9-.7c1.2,0,2.1-1,3-1.9S845.1,422.9,845.6,421.8Z"/><path class="cls-7" d="M819.2,369c4.4.2,5.9-5.1,7-8.4,8.9,6.3,14.5,16.1,18.5,25.7s5.6,19.6,2.1,30.6l-4.7-1.4c.5,5.8-1.9,11.2-1.2,16.8a50.9,50.9,0,0,1-10.7,1.8c-8.4.7-18,1-26.6-.7a147.1,147.1,0,0,0-4.2-25.9c-4.5.7-9.4,1.4-13.6.3s-3.7-4.2-3.7-6.8,1.4-4,2.1-5.2c5.8-8.4,9.8-15.4,15.9-24.5,1.6-2.5,7.9-9.5,12.1-8.6S814.8,369,819.2,369Z"/><path class="cls-7" d="M819.2,369a4.1,4.1,0,0,0,2.8-.9,9.5,9.5,0,0,0,1.9-2.1,43.8,43.8,0,0,0,2.3-5.4h0a41.2,41.2,0,0,1,11,11.4,105.7,105.7,0,0,1,7.7,14,58.6,58.6,0,0,1,4.4,15.5c.7,5.3-.2,10.7-1.6,15.8l-.2.7-.7-.2-4.7-1.4,1.2-.9c.4,5.8-1.9,11.4-1,16.8l.3.9-1,.2c-3,.7-6,1.7-9.3,1.9l-9.4.7a85.8,85.8,0,0,1-18.9-1.2l-.7-.2v-.7a159.5,159.5,0,0,0-3.9-25.7l.9.7a45.6,45.6,0,0,1-10.5.7,10.1,10.1,0,0,1-2.6-.4,7.2,7.2,0,0,1-2.5-1.2,7.6,7.6,0,0,1-2.4-4.9,8.9,8.9,0,0,1,.3-2.8,11.9,11.9,0,0,1,1.1-2.6l2.8-4.2,5.9-8.4,5.6-8.6a49.4,49.4,0,0,1,6-8.2,31.9,31.9,0,0,1,4-3.3,9.1,9.1,0,0,1,4.7-1.8,2.9,2.9,0,0,1,2.3.9,4.1,4.1,0,0,1,1.4,2.1,5.1,5.1,0,0,0,1.2,2.3C817.6,368.8,818.3,369,819.2,369Zm0,0a2.9,2.9,0,0,1-2.3-.9,6,6,0,0,1-1.2-2.4,4.1,4.1,0,0,0-1.4-2.1,4.5,4.5,0,0,0-2.3-.7c-1.7,0-3.3,1-4.7,1.9a19.4,19.4,0,0,0-3.7,3.3c-2.4,2.3-4.2,5.3-6.1,8.1s-3.7,5.9-5.4,8.7-3.5,5.8-5.3,8.6-1.9,2.8-2.8,4.2a8,8,0,0,0-1,2.3,4.9,4.9,0,0,0,0,2.4c.3,1.6.7,3.3,1.9,4a12.9,12.9,0,0,0,4.4,1.1,43,43,0,0,0,10.1-.7l.7-.2.2.7a143.1,143.1,0,0,1,4.4,25.9l-.9-.9a87.7,87.7,0,0,0,18.4.9c3.1,0,6.4-.2,9.4-.5a57.9,57.9,0,0,0,9.1-1.6l-.7,1.2a25.1,25.1,0,0,1,.5-8.7,60.8,60.8,0,0,0,.9-8.1v-1.2l1.2.5,4.6,1.4-.9.4a37.9,37.9,0,0,0,2.1-15.4,51.8,51.8,0,0,0-4-15.2,77.2,77.2,0,0,0-7.2-14,44.8,44.8,0,0,0-10.7-11.4h0a32.8,32.8,0,0,1-2.4,5.4,6.5,6.5,0,0,1-1.9,2.1A3.9,3.9,0,0,1,819.2,369Z"/><path class="cls-8" d="M831.8,369.5a60.2,60.2,0,0,1,8.4,21,66.1,66.1,0,0,1,.7,22.6,166.3,166.3,0,0,0-2.8-22.2A173.1,173.1,0,0,0,831.8,369.5Z"/><path class="cls-9" d="M818.7,382.1l9.4.2a1.8,1.8,0,0,1,1.9,1.9l-.2,20.5a1.8,1.8,0,0,1-1.9,1.9h-9.4a1.8,1.8,0,0,1-1.9-1.9l.2-20.6A1.8,1.8,0,0,1,818.7,382.1Z"/><path class="cls-4" d="M823.6,492.7a122.4,122.4,0,0,1-2.1-24.2,139.8,139.8,0,0,1,1.9-24.3c.5,8.2.2,16.1.5,24.3S823.9,484.6,823.6,492.7Z"/><path class="cls-5" d="M812.4,394.9c-.9,1.9.3,4.7,2.4,7,5.6-2.6,9.8-5.4,9.3-7S814.3,391.2,812.4,394.9Z"/><path class="cls-6" d="M812.4,394.9a4.4,4.4,0,0,0,.5,3.7,10,10,0,0,0,2.3,3.1l-.7-.2,5.2-3.3a10.6,10.6,0,0,0,2.3-1.9c.2-.2.7-.7.7-.9l.2-.3a5.7,5.7,0,0,0-2.1-1.4,7,7,0,0,0-3-.7,10.2,10.2,0,0,0-3,.3A2.9,2.9,0,0,0,812.4,394.9Zm0,0a4.1,4.1,0,0,1,2.4-1.9c.9-.4,2.1-.4,3-.7a18.2,18.2,0,0,1,3.3,0,9.2,9.2,0,0,1,3.5,1.4,4.8,4.8,0,0,1,.5,1.4,6.8,6.8,0,0,1-.3,1.2c-.4.7-.7,1.2-1.2,1.4a9.9,9.9,0,0,1-2.8,1.9,16.3,16.3,0,0,1-6,2.3l-.5.3-.2-.3a23.7,23.7,0,0,1-1.9-3.5A10.7,10.7,0,0,1,812.4,394.9Z"/><path class="cls-8" d="M806.1,377.4A85.6,85.6,0,0,0,793.3,400l-.5-.4a54.9,54.9,0,0,0,19.2-4.9l.7-.5.2.9,1.6,5.9a7.8,7.8,0,0,1,.5,1.4,2,2,0,0,1-.5,2.1,1.8,1.8,0,0,1-1.6.9l-1.4.5c-4,1.6-7.9,2.1-11.9,2.8l-.2-2.3A50.9,50.9,0,0,0,811,404l1.4-.4c.5-.3,1-.3,1-.5s0-1.2-.3-2.1l-1.6-5.9.9.5a56.4,56.4,0,0,1-19.8,4.4h-.7l.2-.7C795.9,391.6,800.3,383.9,806.1,377.4Z"/><path class="cls-5" d="M773.2,291c.7,5.6,1.6,11.2,2.4,16.8s1.1,8.4,2.1,12.6a30.4,30.4,0,0,0,3.5,9.4,44.7,44.7,0,0,0,8.1,9.3,57.3,57.3,0,0,0,7.7,6.1,43.4,43.4,0,0,0,6.3,2.8l3.5.9c1,.2,2.8,0,3.8.5s1.6,5.1,2.1,6.8a48.9,48.9,0,0,1,.9,7.9,3.4,3.4,0,0,0,.2,1.4,6.3,6.3,0,0,0,1,1.2,5.6,5.6,0,0,0,6,.7,9,9,0,0,0,4.5-4.5c0-.2.2-.4.2-.7a2.5,2.5,0,0,0-.4-1.1,26.3,26.3,0,0,1-3.3-9.9c-.5-3.7,1.4-3.7,4.4-5.1a24,24,0,0,0,3.8-2.3,22.3,22.3,0,0,0,4.9-6.1,69.2,69.2,0,0,0,10.5-41.1c-2.1,0-4.5,0-6.6.2a58.6,58.6,0,0,1-3.5-21.4c0-1,0-2.1-.9-2.6a6.9,6.9,0,0,1-6.8,0,7.9,7.9,0,0,1-4-5.6,12.4,12.4,0,0,1-2.5,3.3,5.6,5.6,0,0,1-4,1.1c-1.9-.4-3-2.3-4-3.9a73.9,73.9,0,0,1-3.5-7.7l-1.8.2a49.4,49.4,0,0,1-5.2,9.6c-.7.9-1.6,2.1-2.8,2.3s-3.2-.9-4.4-2.1a14.2,14.2,0,0,1-1.4,7c-1.2,2.1-3.3,4-5.6,4s-4.7-1.2-6.8-2.6A18.1,18.1,0,0,1,773.2,291Z"/><path class="cls-6" d="M773.2,291l3.5,22.7a78.7,78.7,0,0,0,2.6,10.9,28.7,28.7,0,0,0,5.8,9.6c5.4,5.4,11,10.7,18.2,12.8l2.8.7a4.8,4.8,0,0,0,2.6.3,5,5,0,0,1,1.6.2,1.6,1.6,0,0,1,1,.5l.7.7a6.9,6.9,0,0,1,.9,3,38.3,38.3,0,0,1,.9,5.6l.7,5.9a2.3,2.3,0,0,0,.7,1.8,3.5,3.5,0,0,0,2.1,1,6,6,0,0,0,6.3-3.1c.5-.7,1-1.8.8-1.6s-.5-.7-.8-1.2l-.7-1.4c-.4-.9-.7-1.8-1.1-2.8a21.4,21.4,0,0,1-1.4-5.8c0-1-.3-2.4.7-3.5a6.1,6.1,0,0,1,2.8-1.9,18.9,18.9,0,0,0,4.7-2.8,35.1,35.1,0,0,0,3.7-4A68.7,68.7,0,0,0,844,296.1l1.1,1h-7.2l-.2-.7a72.7,72.7,0,0,1-3.1-12.2c-.2-2.1-.4-4.2-.4-6.3v-3c0-.9,0-1.9-.3-1.9h1a7.6,7.6,0,0,1-7.7,0,8,8,0,0,1-4.5-6.3l1.7.5c-1,1.6-2.2,3.5-4.3,4.4a5,5,0,0,1-3.2.5,4.2,4.2,0,0,1-2.8-1.9c-1.4-1.6-2.1-3.5-3.1-5.1s-1.6-3.5-2.1-5.4l.7.5-1.8.2.7-.4a38.4,38.4,0,0,1-4.9,8.8,15.7,15.7,0,0,1-1.7,2.1,4.4,4.4,0,0,1-2.5,1.4c-2.1.3-3.5-1.1-4.9-2.3l.9-.5a21,21,0,0,1-.7,5.6,8.2,8.2,0,0,1-3.3,4.7,6.6,6.6,0,0,1-5.3,1.2,17.5,17.5,0,0,1-4.9-2.6l.4-.2A17.1,17.1,0,0,1,773.2,291Zm0,0a16.7,16.7,0,0,0,7.7-12.8v-.5l.5.2a16.1,16.1,0,0,0,4.7,2.4,5.6,5.6,0,0,0,4.9-1.2,7.7,7.7,0,0,0,2.8-4.2,12.6,12.6,0,0,0,.4-5.1v-1.2l1,.9c1.1,1.2,2.5,2.1,3.9,1.9s2.4-1.6,3.3-3a37.5,37.5,0,0,0,4.4-8.7l.3-.4h.4l1.9-.3h.5l.2.5a34.2,34.2,0,0,0,2.3,5.1c1,1.7,1.7,3.5,2.8,4.7a3.3,3.3,0,0,0,4.2.9,9.6,9.6,0,0,0,3.5-3.9l1.5-2.4.2,2.6a6.2,6.2,0,0,0,3.5,4.9,6.6,6.6,0,0,0,5.8,0l.5-.2.5.2a2.2,2.2,0,0,1,1.1,1.9c.3.7,0,1.1,0,1.6v3c0,2.1.3,4,.5,6.1a67,67,0,0,0,3,11.7l-1.1-.7,6.5-.3h1.2v1a69.8,69.8,0,0,1-12.2,43.9,21.6,21.6,0,0,1-4.2,4.4,28.5,28.5,0,0,1-5.1,3,6.4,6.4,0,0,0-2.1,1.2,2.4,2.4,0,0,0-.3,1.9c.3,1.8.7,3.5,1.2,5.4a26,26,0,0,0,1,2.5l.7,1.2c.2.5.4.7.7,1.4a1.3,1.3,0,0,1,0,1.2c0,.4-.3.7-.3.9l-.7,1.4a24,24,0,0,1-2.1,2.3,7.3,7.3,0,0,1-6.3,1.4,6.4,6.4,0,0,1-3-1.4,3.3,3.3,0,0,1-1.2-1.6,5.3,5.3,0,0,1-.2-1.6l-.7-5.6c-.3-1.9-.5-4-.7-5.7s-.5-1.8-.7-2.3l-.5-.5a2.5,2.5,0,0,1-1.2-.2h-1.4l-1.4-.2-2.8-.7a31.5,31.5,0,0,1-10-5.6,106.7,106.7,0,0,1-8.4-8,25.8,25.8,0,0,1-5.8-10,64,64,0,0,1-2.4-11.2C775.1,306.2,774.1,298.5,773.2,291Z"/><g class="cls-10"><path class="cls-6" d="M774.8,291.5a5.3,5.3,0,0,0,2.9-1.9,9.2,9.2,0,0,0,1.4-2.8,23.6,23.6,0,0,0,0-6.5l-.3-3.8,3.3,2.4a6.2,6.2,0,0,0,3.7.9,7.6,7.6,0,0,0,3.5-1.6,9.9,9.9,0,0,0,2.4-8l4.2-1.4a2.6,2.6,0,0,0,2.8,1.2,5.3,5.3,0,0,0,3.7-2.1,14.4,14.4,0,0,0,2.8-4.4,43.8,43.8,0,0,0,2.3-5.4,54.6,54.6,0,0,1-.4,5.8,23.2,23.2,0,0,1-2.1,5.9,11.3,11.3,0,0,1-2.4,2.5,8.8,8.8,0,0,1-3.5,1.7,7.6,7.6,0,0,1-3.9-.3,7.3,7.3,0,0,1-3.5-2.5l4.2-1.4a19.1,19.1,0,0,1-.3,6.3,9.2,9.2,0,0,1-3.5,5.6,10.3,10.3,0,0,1-6.3,2.5,9.1,9.1,0,0,1-6.3-2.3l3.1-1.4a16.8,16.8,0,0,1-1.4,7.2,7,7,0,0,1-2.6,2.8A7.7,7.7,0,0,1,774.8,291.5Z"/></g><g class="cls-10"><path class="cls-6" d="M797.7,343.3a51.2,51.2,0,0,1,6.8,1.4l3.3.9,1.6.5.7.2h.2a1.8,1.8,0,0,0-1.1.3,1.1,1.1,0,0,0-.7.9c0,.2-.3.7,0,1.2a1.9,1.9,0,0,0,.9,1.1c.5.3.2,0,.2,0h0a42,42,0,0,1-13-5.1,39.9,39.9,0,0,1-11-8.9,35.3,35.3,0,0,1-6.8-12.1,95.2,95.2,0,0,0,9.4,9.6,81.2,81.2,0,0,0,10.7,7.4,86.8,86.8,0,0,0,11.9,5.6h0l.5.3a2.1,2.1,0,0,1,.9,1.1,2.4,2.4,0,0,1,0,1.2,1.1,1.1,0,0,1-.7.9,2.1,2.1,0,0,1-1.2.3h-.4l-.5-.3-.7-.4a5.9,5.9,0,0,0-1.6-.7L804,347C801.7,345.6,799.8,344.7,797.7,343.3Z"/></g><g class="cls-11"><path class="cls-12" d="M844.9,299.9a85.4,85.4,0,0,1-1.2,13.3,65.9,65.9,0,0,1-3.2,13.1c-3.3,8.6-10.1,16.3-18.7,19.6a53,53,0,0,0,8.4-10.1,62.4,62.4,0,0,0,5.8-11.2c1.4-3.9,2.8-8.1,4-12.3A102.7,102.7,0,0,1,844.9,299.9Z"/></g><g class="cls-11"><path class="cls-12" d="M810.3,261.6c-1.1,4,1.2,7.9,4.2,8.6a5.9,5.9,0,0,0,4.5-.4,6,6,0,0,0,2.8-3.1l4.2,1.2a4,4,0,0,0,.5,2.8,3.7,3.7,0,0,0,1.8,1.9,5.5,5.5,0,0,0,2.6.2,3.6,3.6,0,0,0,2.3-1.4l3.3-4.2.7,5.1c.7,4,1.2,8.2,1.6,12.2s.7,8.1,1,12.3c-1.4-3.9-2.8-7.9-4-11.9s-2.1-7.9-3-12.1l3.9.9a8,8,0,0,1-4.6,3.3,9.9,9.9,0,0,1-5.9-.2,10.8,10.8,0,0,1-4.2-4,7.7,7.7,0,0,1-.7-5.6l4.2,1.2a8.8,8.8,0,0,1-5.4,5.1,9,9,0,0,1-7.2-.2C808.9,270.7,807.8,264.9,810.3,261.6Z"/></g><path class="Graphic-Style-2" d="M777.2,288c2.3-2.8,3.3-6.3,4.2-9.8a5.1,5.1,0,0,0,5.8,3.7,8.5,8.5,0,0,0,5.9-4.7,21.1,21.1,0,0,0,1.8-7.4c1,2.3,4.2,2.8,6.3,1.4s3.3-3.5,4.2-5.9,1.9-4.6,3.8-6.3c1.6,3.3.9,7.5,3,10.5a6.9,6.9,0,0,0,7,2.4,6.6,6.6,0,0,0,4.2-6.1,7.7,7.7,0,0,0,4.2,7.7,7,7,0,0,0,8.4-2.3l2.1,25.9a60.3,60.3,0,0,1,7-1.2c0-3.3-.2-6.5-.2-9.8-.2,4.4-.2,8.9,1.2,13.1s4.9,7.9,9.3,8.4a5.4,5.4,0,0,0,3.3-.7c2.1-1.4,2.1-4.5,1.6-6.8a20.6,20.6,0,0,0-6.8-11c3.5,0,7.5,1.4,10.5-.4a6.3,6.3,0,0,0,2.1-7.5,13.1,13.1,0,0,0-5.1-6.3,25,25,0,0,0-9.6-4.2c3.5.2,7-1.9,8-5.1,1.4-4.7-3.1-9.6-8-10.8s-10-.5-14.9-1.2a13.2,13.2,0,0,0,5.4-7.7,9.7,9.7,0,0,0-.7-6.5,11.7,11.7,0,0,0-3.8-2.8c-7.9-3.5-18.4,0-22.6,7.5a9.9,9.9,0,0,0-5.2-10.5,10.2,10.2,0,0,0-11.6,1.6,15.9,15.9,0,0,0-3.3,4.4,80.1,80.1,0,0,0-5.6,14.3,18.5,18.5,0,0,0-14.5-9.6,3.6,3.6,0,0,0-2.3.5,5.4,5.4,0,0,0-1,1.6,17,17,0,0,0-.9,6.8c-1.6-2.4-4.9-2.8-7.9-3.1s-6.3.3-7.7,2.8.2,5.7,2.3,7.3,4.7,2.8,7,4.4c-2.1.3-4.4.3-6.3,1.2-4.4,1.9-4.7,6.5-1.4,9.6s4,3,4.7,7C762.9,290.3,770.6,296.4,777.2,288Z"/><path d="M777.2,288c2.3-2.8,3.3-6.3,4.2-9.8h0c.2,1.8,2.1,3.2,4,3.7s3.9-.5,5.3-1.6a12.5,12.5,0,0,0,3.1-4.9,23.1,23.1,0,0,0,1.1-5.6v-.5l.3.5a3.7,3.7,0,0,0,4.4,1.8,5.7,5.7,0,0,0,4.2-3.2c.9-1.7,1.6-3.3,2.3-4.9a12.5,12.5,0,0,1,3.1-4.7l.2-.2.2.2c1,2.1,1.2,4.4,1.7,6.5a8.2,8.2,0,0,0,3.2,5.4,5.6,5.6,0,0,0,6.1,0,5.4,5.4,0,0,0,2.8-5.1h1a6.8,6.8,0,0,0,3.9,7,6.7,6.7,0,0,0,7.7-2.1l1-1.4.2,1.8,2.6,25.9-1.2-.9,7-1.4-.9.9-.3-9.8h2.4c0,4.2-.3,8.4,1.1,12.2s4,7,7.5,7.7a5.7,5.7,0,0,0,2.6,0,2.7,2.7,0,0,0,1.6-1.2,6,6,0,0,0,0-4.9,20.7,20.7,0,0,0-6.1-9.8l-3.2-2.8h4.2c3.5,0,6.5.9,8.8.2s3.1-3.7,2.1-6-3-4.5-5.3-6.1a22.5,22.5,0,0,0-8.2-3.3l.5-3.5a5.8,5.8,0,0,0,6-3.7,6.4,6.4,0,0,0-2.8-6.8,8.5,8.5,0,0,0-3.7-1.8,14,14,0,0,0-4.7-.8c-3.2-.2-6.5,0-10-.4l-4.2-.7,3.5-2.4a11.7,11.7,0,0,0,5.1-8.6,4.3,4.3,0,0,0-1.4-4.2,8.9,8.9,0,0,0-4.4-2.3c-6.8-1.9-15.2,1.1-18.7,7.4l-2.3-.9c.7-3.3-1-6.8-3.8-8.9a8.8,8.8,0,0,0-9.5-.2c-3.1,1.6-4.5,5.4-6.3,8.6a63.3,63.3,0,0,0-3.8,10.5L791,255l-1-1.8a16.7,16.7,0,0,0-10.7-8.7l-3.5-.7a2.2,2.2,0,0,0-2.4,1.4,18.4,18.4,0,0,0-1.1,7v1.9l-1-1.4c-1.4-2.1-4.4-2.8-7.2-2.8a29.5,29.5,0,0,0-4.2.2,5.7,5.7,0,0,0-3.3,1.9,4.3,4.3,0,0,0-.4,3.8,5.7,5.7,0,0,0,2.3,3.2c2.1,1.9,4.9,2.8,7,4.7l.5.2h-.5a17.7,17.7,0,0,0-6.1,1c-1.8.7-3.5,2.3-3.7,4.2a6.7,6.7,0,0,0,2.3,5.3c1.4,1.4,3.3,2.6,4,4.7a10.9,10.9,0,0,1,.7,3,13.1,13.1,0,0,0,.9,2.8,12.6,12.6,0,0,0,3.8,4.7,6.2,6.2,0,0,0,5.8.9C774.4,291,775.8,289.6,777.2,288Zm0,0a10.2,10.2,0,0,1-4.9,3.7,6.9,6.9,0,0,1-5.9-.9,11.8,11.8,0,0,1-3.7-4.9,10.2,10.2,0,0,1-.9-3.1c-.3-.9-.5-2.1-.7-3s-2.4-3.3-4-4.4a6.7,6.7,0,0,1-2.6-5.6c.3-2.1,2.1-3.8,4-4.7a30,30,0,0,1,6.1-1.2l-.3.5c-2.1-1.9-4.9-2.8-7-4.7a10.1,10.1,0,0,1-2.5-3.5,4.5,4.5,0,0,1,.4-4.2,5.6,5.6,0,0,1,3.8-2.3,11.9,11.9,0,0,1,4.2-.3,15.4,15.4,0,0,1,4.2.7,6.8,6.8,0,0,1,3.7,2.6l-.9.2a15.6,15.6,0,0,1,1.1-7.4,3,3,0,0,1,1.4-1.7,3.9,3.9,0,0,1,2.1-.4,21.1,21.1,0,0,1,3.8.4,20.5,20.5,0,0,1,11.9,9.1l-1.4.3a59.3,59.3,0,0,1,3.7-11,34.8,34.8,0,0,1,2.6-5.1,10.7,10.7,0,0,1,4.2-4.5,11.3,11.3,0,0,1,12.1.3,11.4,11.4,0,0,1,4.9,11.2l-2.3-1c4.2-7.4,13.6-11.4,21.7-9.1a15.3,15.3,0,0,1,5.9,3.1,8.1,8.1,0,0,1,2.3,6.5,15.5,15.5,0,0,1-6.5,11l-.7-3.1c3,.5,6.3.3,9.8.5a20.4,20.4,0,0,1,5.3.7,12.2,12.2,0,0,1,4.9,2.6,16.3,16.3,0,0,1,3.8,4.4,8.1,8.1,0,0,1,.4,6.1,8.3,8.3,0,0,1-3.9,4.7,10.8,10.8,0,0,1-5.9,1.4l.5-3.5a30.2,30.2,0,0,1,9.3,3.9c2.8,1.9,5.6,4.2,6.8,8a10.6,10.6,0,0,1,0,5.6,7.2,7.2,0,0,1-4,4.2,9.8,9.8,0,0,1-5.3.4,39.3,39.3,0,0,0-4.5-.4l1-2.8a25.4,25.4,0,0,1,7,11.2c.4,2.1.9,4.6-.5,7.2a5.5,5.5,0,0,1-3.5,2.4,6.5,6.5,0,0,1-3.7-.3c-4.9-1.1-8-5.4-9.4-9.6s-1.1-8.6-.9-12.8h2.3l.3,9.8v.9l-1,.3-7,1.1-1.1.3v-1l-1.9-26.1,1.2.5a7.7,7.7,0,0,1-13.6-5.9h1a7,7,0,0,1-3.6,5.9,7,7,0,0,1-6.7-.3c-2.1-1.1-3.1-3.5-3.5-5.8s-.5-4.4-1.4-6.3h.4a11.4,11.4,0,0,0-2.8,4.4,31.7,31.7,0,0,1-2.3,4.9,6.1,6.1,0,0,1-4.4,3.3c-1.9.2-4-.2-4.9-2.1h.2a22.5,22.5,0,0,1-1.2,5.6,13,13,0,0,1-3,4.9,6.3,6.3,0,0,1-5.4,1.6c-1.8-.4-3.7-1.8-3.9-3.7h0C780.5,281.7,779.5,285.2,777.2,288Z"/><circle cx="795.9" cy="298.9" r="2.3"/><circle cx="823.2" cy="298.9" r="2.3"/><path class="cls-6" d="M809.2,295.9a95.8,95.8,0,0,1-2.6,14.7l-.2,1a2.4,2.4,0,0,1-.3.7,1.5,1.5,0,0,0,.3,1.1c.2.3.4.7.9.7h1.6c2.6-.2,4.9-.2,7.5-.2-2.3.9-4.9,1.4-7.2,2.1l-1,.2h-1.1a3,3,0,0,1-2.1-1.4,4.3,4.3,0,0,1-.7-2.5c0-.5.2-.7.2-1.2l.2-.9A62.7,62.7,0,0,1,809.2,295.9Z"/><path class="cls-12" d="M811.7,339.6a13,13,0,0,1-4.9-1.2,11.4,11.4,0,0,1-3.7-3l-.2-.3c-2.1-2.3-2.8-3.5-2.6-4.4s.9-1.2,2.1-1.2,3,.5,4.7.7l2.1.5h.9a24.5,24.5,0,0,0,7-1.2c6.3-2.1,6.8-3.2,6.8-3.2l2.1.7a18.9,18.9,0,0,1-7,10A11.8,11.8,0,0,1,811.7,339.6Z"/><path class="cls-6" d="M825.1,326.7a18,18,0,0,1-6.6,9.6,11.6,11.6,0,0,1-6.8,2.1,8.6,8.6,0,0,1-4.2-.9,15.4,15.4,0,0,1-3.5-2.8c-.4-.5-2.8-2.8-2.5-3.8s.4-.2.9-.2,5.8.9,6.8.9h.9a27.8,27.8,0,0,0,7.5-1.1c1.6-.3,7-1.9,7.5-3.8m0-2.3a2.2,2.2,0,0,0-2.2,1.4c-.2.2-1.4,1.2-6,2.8a21.9,21.9,0,0,1-6.8.9h-.9l-1.9-.2a48.1,48.1,0,0,0-4.9-.7c-2.3,0-3,1.4-3,2.1s.7,3,2.8,5.6l.2.2a14.2,14.2,0,0,0,4.2,3.3A13.8,13.8,0,0,0,812,341a14.7,14.7,0,0,0,8.1-2.6,19.5,19.5,0,0,0,7.3-10.7,2,2,0,0,0-1.4-2.8c-.5-.5-.7-.5-.9-.5Zm0,4.7Z"/><path d="M766.7,270c-1.2.2-2.4.9-2.6,1.6a1.8,1.8,0,0,0,.9,1.9c.7.5,1.9.7,3.3,1.4a6.5,6.5,0,0,1,2.8,3.7,9.7,9.7,0,0,1,.2,2.4c0,.7-.2,1.4-.2,1.8v1c0,.2.2.4.2.2s-.4-.2-.2-.2.2,0,.5-.3a3.6,3.6,0,0,0,.7-2.1,17.8,17.8,0,0,0,.2-3.5,5.4,5.4,0,0,1,.5-2.1,7,7,0,0,1,1.1-2.1,5.5,5.5,0,0,1,2.2-1.6,4.3,4.3,0,0,1,3-.5c2.1.3,3,1.7,4,2.4s1.4,1.1,1.8,1.1a2.8,2.8,0,0,0,2.1-.9c1.4-1.4,1.4-4,1.7-6.3a9.2,9.2,0,0,1,.4,7.5,6.1,6.1,0,0,1-3.7,2.8,6.3,6.3,0,0,1-4.4-1.4,8.3,8.3,0,0,0-2.1-1.2,1.3,1.3,0,0,0-1,.7c-.7.9-.4,3-.9,5.8a7.7,7.7,0,0,1-2.1,4.5,5,5,0,0,1-2.6,1.4,3.8,3.8,0,0,1-3.5-1,5.4,5.4,0,0,1-1.6-2.8,7,7,0,0,1,0-2.5,26,26,0,0,0,.4-2.8,3.1,3.1,0,0,0-.9-2.1,15.4,15.4,0,0,0-2.8-2.1,5.3,5.3,0,0,1-1.2-2.1,2.4,2.4,0,0,1,.7-2.4C764.1,269.8,765.5,270,766.7,270Z"/><path d="M796.6,254.6a19.4,19.4,0,0,1,2.3-7.3,29.2,29.2,0,0,1,2.1-3.2,12.5,12.5,0,0,0,1.2-1.7,3.3,3.3,0,0,1,2.5-1.4,4.6,4.6,0,0,1,4.7,3.5c.5,1.7.2,3.1.5,3.8a6.4,6.4,0,0,0,.2.9h.2a3.3,3.3,0,0,0,1.7-.5c3.7-2.3,8.4-5.3,13.8-6l2.1-.3a7.5,7.5,0,0,1,2.3.3,5.7,5.7,0,0,1,1.6,1.1,2,2,0,0,1,.3,1.9,3.9,3.9,0,0,1-1.4,2.1,17.9,17.9,0,0,1-6.8,3.3,19.5,19.5,0,0,0,5.1-4.7l.5-.9v.2s.2.2,0,.2l-1.4.3a4.2,4.2,0,0,0-1.6.4,30.8,30.8,0,0,0-6.1,2.8l-3.1,1.9a17.7,17.7,0,0,1-3.2,2.1,6.8,6.8,0,0,1-5.2.9,3.5,3.5,0,0,1-2.5-2.1,21.6,21.6,0,0,1-1-2.5c-.2-1.7,0-2.8-.2-3.5a1.7,1.7,0,0,0-.5-1s-.2,0-.4.3l-1.2,1.1a14.3,14.3,0,0,0-2.3,2.6C799.1,250.6,798,252.5,796.6,254.6Z"/><path d="M803,334a21.4,21.4,0,0,0,11,1,63.3,63.3,0,0,0,9-3h0s-4,6.3-9,7-9.5-3.6-10-4Z"/><path class="Graphic-Style-9" d="M711.9,214.8c-18.2,5.2-67,0-94.3-18s-46-50.6-42.4-83.1,27.4-58.9,55.7-74.2,60.7-20.8,92.6-25c15.5-2,31.4-3.8,46.7-.8,24.5,4.8,45.1,21.4,62.2,39.5,22.1,23.4,41.2,55,32.9,86-5.7,21.7-24.2,38.2-44.8,47.2S777.3,198,755,200.6c-9.2,6.7-9.2,18.3,8.2,36.8C765.2,239.6,720.3,243.2,711.9,214.8Z"/><g class="cls-13"><path d="M761.4,236.2a33,33,0,0,1-16.3-11.5,36.7,36.7,0,0,1-7.7-20.2,12.6,12.6,0,0,1,.1-3.3,12.7,12.7,0,0,1,1.2-4.3,19.3,19.3,0,0,1,1.3-2.1,8.1,8.1,0,0,1,1.8-1.9,8.3,8.3,0,0,1,2.1-1.6l1.1-.6,1.1-.4a20.2,20.2,0,0,1,7.6-1.2,50.7,50.7,0,0,1,6,.6l4.7.8,1.9.2H772a23.3,23.3,0,0,0,3.8-.4h1l.9-.2,1.9-.3,3.9-1,3.8-1.3,3.8-1.5A125.9,125.9,0,0,0,806,178a170.3,170.3,0,0,0,14.5-10,161.1,161.1,0,0,0,13.4-11.1,100,100,0,0,0,11.4-12.2,63.1,63.1,0,0,0,8.4-13.3,43.5,43.5,0,0,0,3.8-14,45.1,45.1,0,0,0-1.6-14.8C853,92.4,846.6,81.9,840,71.3c-3.3-5.3-6.8-10.6-10.3-15.9L819,39.5a162.6,162.6,0,0,1,16,11.1c5.1,4,9.9,8.2,14.7,12.7l6.9,6.9q3.4,3.6,6.6,7.5c2.2,2.6,4.2,5.4,6.2,8.3a70.9,70.9,0,0,1,5.2,9.4,54.3,54.3,0,0,1,3.8,10.7,55,55,0,0,1,1.6,11.6,60.4,60.4,0,0,1-3.8,22.8A83.3,83.3,0,0,1,865.5,160c-2.2,2.9-4.5,5.6-6.8,8.2s-4.9,5.1-7.4,7.5-5.2,4.6-7.8,6.7l-8.2,6.1A177.7,177.7,0,0,1,818,199.1a106.9,106.9,0,0,1-19.4,8,45.8,45.8,0,0,1-5.3,1.4l-5.3,1.1c-1.9.2-3.7.5-5.6.6l-2.8.2h-2.8a52.7,52.7,0,0,1-5.6-.4l-2.8-.3-2.8-.6-2.8-.7-2.7-.8-1.4-.4-1.1-.5-2-.8-3.4-1.1-1.7-.4h0V204a.4.4,0,0,0,.1-.3v-.2c0-.1-.1-.1-.3.2a5,5,0,0,0-.4,1.3,31.4,31.4,0,0,0,1.4,16.2A36,36,0,0,0,761.4,236.2Z"/></g><path d="M678.1,52.2c0,.6-.4.9-1.3.9a5.6,5.6,0,0,1-3.6-1.8,10.9,10.9,0,0,1-2.6-3.7c-.3.7-.4,1.2-.5,1.4l-.4,1.2c-.2.6-.3,1-.4,1.2l-.3.9c-.3.5-.5.8-.7.8s-.7-.3-1.2-.8a2.5,2.5,0,0,1-.7-1.4,9.2,9.2,0,0,1,.5-2,28.8,28.8,0,0,0,1.7-8,2.2,2.2,0,0,1-.7-.9,1.6,1.6,0,0,1-.4-1c0-.4.6-.9,1.7-1.4a12.4,12.4,0,0,1,4-.7,6.2,6.2,0,0,1,3.7,1.1,3.2,3.2,0,0,1,1.5,2.7,4,4,0,0,1-.7,2.4,7.3,7.3,0,0,1-1.6,1.8l-1.6,1.2-.8.7a1.4,1.4,0,0,0,.4,1,4.7,4.7,0,0,0,1,1.1l1.1,1.1.7.7.6.6A1.4,1.4,0,0,1,678.1,52.2ZM675,40.9q0-.9-1.8-.9a5.8,5.8,0,0,0-2,.5,3.7,3.7,0,0,1,.5,1.5,15.9,15.9,0,0,1-.3,2.9,2.5,2.5,0,0,1,.9-.7l1-.7.8-.7A2.6,2.6,0,0,0,675,40.9Z"/><path d="M687.8,47.7a5.8,5.8,0,0,1-3,.9l-2.5-.2a2.2,2.2,0,0,0-.2,1.1c0,.4,0,.7.2.9s.4.2.9.2a12.3,12.3,0,0,0,2.9-.3l1.2-.3q.9,0,.9.6c0,.6-.5,1.1-1.4,1.7a7.2,7.2,0,0,1-3.3.7,4.4,4.4,0,0,1-3-1.1,4.1,4.1,0,0,1-1.1-2.8,6.8,6.8,0,0,1,.9-3.3,10.2,10.2,0,0,1,2.4-3,4.5,4.5,0,0,1,2.8-1.1,3.5,3.5,0,0,1,2.6,1.3,4.5,4.5,0,0,1,1.2,2.8C689.3,46.5,688.8,47.1,687.8,47.7Zm-1.6-2.9a1.2,1.2,0,0,0-.8-.4c-.3,0-.6.2-1.1.6a4.9,4.9,0,0,0-1.2,1.5h.6c2,0,3-.4,3-1.1S686.5,45.1,686.2,44.8Z"/><path d="M698.1,41.7c.6,0,1.1.5,1.8,1.4a5.7,5.7,0,0,1,.9,2.9,4,4,0,0,1-.7,2.1,13.7,13.7,0,0,1-1.9,2.3,15.1,15.1,0,0,1-2.6,1.8,6.7,6.7,0,0,1-2.9.8h-.2c-1,3.8-1.6,5.7-2,5.7s-.6-.2-1-.7a3.1,3.1,0,0,1-.5-1.3,23.1,23.1,0,0,1,.6-3.1A51.1,51.1,0,0,0,691.5,42a.6.6,0,0,1,.7-.7,2.4,2.4,0,0,1,1.3.6,2.1,2.1,0,0,1,1,1.6A5.6,5.6,0,0,1,698.1,41.7Zm-1.7,6.8a4.6,4.6,0,0,0,1.5-2.7q0-1.2-.6-1.2a3.1,3.1,0,0,0-2,1.1,4.8,4.8,0,0,0-.9,1.3,12.9,12.9,0,0,0-.9,2l-.4,1.4A7,7,0,0,0,696.4,48.5Z"/><path d="M711.3,46.8a.7.7,0,0,1,.4.6c0,.2-.1.6-.2,1.2s-.3,1.1-.4,1.4a2.5,2.5,0,0,0-.1.8.8.8,0,0,0-.1.4c0,.1-.1.3-.1.4s-.1.3-.1.4a.8.8,0,0,1-.1.4.3.3,0,0,1-.1.2.2.2,0,0,1-.2.2c0,.2-.2.2-.4.2s-.4-.2-.7-.6a3.5,3.5,0,0,1-.7-1.5c-1.4,1.4-2.6,2.1-3.5,2.1a2.9,2.9,0,0,1-2-1,2.7,2.7,0,0,1-1.1-2.1,7.9,7.9,0,0,1,.9-3,12.7,12.7,0,0,1,2.6-3.6,4.7,4.7,0,0,1,3.2-1.6,3.3,3.3,0,0,1,2.2,1c.8.8,1.2,1.4,1.2,2A4,4,0,0,1,711.3,46.8Zm-6.4,3.4a4.1,4.1,0,0,0,2.4-1.1,6.1,6.1,0,0,0,1.8-3.1.3.3,0,0,1,.3-.3c0-.8-.1-1.2-.4-1.2a2.6,2.6,0,0,0-1.9,1.1,9.4,9.4,0,0,0-1.8,2.4,4.7,4.7,0,0,0-.7,2v.2Z"/><path d="M720.2,41.7a2.2,2.2,0,0,1,1.7,1,2.9,2.9,0,0,1,.8,1.8.5.5,0,0,1-.5.5l-.8-.2a1.6,1.6,0,0,0-1-.2l-1.5.3c-.7.3-1,.6-1,.9s.2.4.6.7a5.7,5.7,0,0,0,1.3.8,4,4,0,0,1,1.3,1.3,2.7,2.7,0,0,1,.6,1.7c0,.6-.5,1.2-1.4,1.8a5.2,5.2,0,0,1-3.1.9,4.8,4.8,0,0,1-3-.8c-.9-.5-1.3-1.1-1.3-1.7s.2-.8.7-.8l.7.2a5.4,5.4,0,0,0,2.7.6c1.1,0,1.6-.1,1.6-.4s-.2-.6-.6-1l-1.3-1L715.3,47a2.2,2.2,0,0,1-.6-1.3c0-.8.7-1.7,2.1-2.6A7.8,7.8,0,0,1,720.2,41.7Z"/><path d="M731.9,47.7a5.8,5.8,0,0,1-3,.9l-2.6-.2a4.3,4.3,0,0,0-.2,1.1,2,2,0,0,0,.2.9c.2.2.5.2,1,.2a10.9,10.9,0,0,0,2.8-.3l1.3-.3q.9,0,.9.6c0,.6-.5,1.1-1.5,1.7a6.6,6.6,0,0,1-3.2.7,4.1,4.1,0,0,1-3-1.1,3.7,3.7,0,0,1-1.1-2.8,6.8,6.8,0,0,1,.9-3.3,10,10,0,0,1,2.3-3,5,5,0,0,1,2.8-1.1,3.3,3.3,0,0,1,2.6,1.3,4.5,4.5,0,0,1,1.2,2.8C733.3,46.5,732.8,47.1,731.9,47.7Zm-1.6-2.9a1.2,1.2,0,0,0-.9-.4,1.8,1.8,0,0,0-1,.6,4.9,4.9,0,0,0-1.2,1.5h.6c2,0,3-.4,3-1.1S730.6,45.1,730.3,44.8Z"/><path d="M749,41.7a1.6,1.6,0,0,1,1.4,1.1,4.8,4.8,0,0,1,.6,2.1,12.3,12.3,0,0,1-.4,2.8,16.5,16.5,0,0,1-1.1,3.6c-.5,1.1-1.1,1.7-1.7,1.7s-.7-.3-.7-1a14.8,14.8,0,0,1,.6-3.2,21.9,21.9,0,0,0,.5-3c0-.4,0-.7-.2-.7s-.7.4-1.1,1.1a26.7,26.7,0,0,0-1.5,2.7c-.6,1.1-1,1.8-1.1,2.1l-.4.8-.3.6c-.5.8-1.1.8-1.9,0a1.5,1.5,0,0,1-.6-1.1s.1-.6.4-1.7a17.9,17.9,0,0,0,.4-3.6c0-.6-.1-.9-.2-.9s-.4.2-.7.6a14.3,14.3,0,0,0-1,1.9c-.5.9-.9,1.7-1.3,2.3-1.2,2.1-2.2,3.1-2.8,3.1s-.7-.2-1.2-.8A1.9,1.9,0,0,1,734,51a7,7,0,0,1,.5-2.1,19.7,19.7,0,0,0,.6-3.5c.1-1.2.2-2.2.3-2.9s.2-1,.5-1a2.3,2.3,0,0,1,1.6.7,1.9,1.9,0,0,1,.8,1.3,17.6,17.6,0,0,1-1,4.5,26.4,26.4,0,0,1,2.6-5,3.1,3.1,0,0,1,2.2-1.3c.4,0,.8.3,1.4,1a3.2,3.2,0,0,1,.9,2,8.1,8.1,0,0,1-.1,1.6,11.1,11.1,0,0,1,2.1-3.2A4,4,0,0,1,749,41.7Z"/><path d="M753.8,44.1c1.1-1.6,2.3-2.5,3.4-2.5a3.8,3.8,0,0,1,2.8,1.2,3.9,3.9,0,0,1,1.1,2.9,7.8,7.8,0,0,1-.7,3.3,8.2,8.2,0,0,1-2.3,2.9,4.8,4.8,0,0,1-3,1.1,2.5,2.5,0,0,1-2.1-1.1,3.7,3.7,0,0,1-.9-2.6A9.5,9.5,0,0,1,753.8,44.1Zm3.6,4.5a5.8,5.8,0,0,0,.9-3,3.8,3.8,0,0,0-.4-1.9A5.1,5.1,0,0,0,756,46a7.1,7.1,0,0,0-.9,3.1,3.5,3.5,0,0,0,.2,1.7A5,5,0,0,0,757.4,48.6Z"/><path d="M769.3,41.7a2.1,2.1,0,0,1,1.6,1,2.4,2.4,0,0,1,.8,1.8c0,.3-.1.5-.4.5l-.8-.2a1.8,1.8,0,0,0-1-.2l-1.5.3c-.7.3-1,.6-1,.9s.2.4.5.7l1.3.8a4,4,0,0,1,1.3,1.3,2.7,2.7,0,0,1,.6,1.7c0,.6-.4,1.2-1.3,1.8a5.4,5.4,0,0,1-3.1.9,5.3,5.3,0,0,1-3.1-.8c-.8-.5-1.3-1.1-1.3-1.7a.7.7,0,0,1,.7-.8l.7.2a6.1,6.1,0,0,0,2.8.6c1.1,0,1.6-.1,1.6-.4s-.2-.6-.6-1l-1.4-1L764.3,47a2.2,2.2,0,0,1-.6-1.3c0-.8.7-1.7,2.2-2.6A7,7,0,0,1,769.3,41.7Z"/><path d="M647.7,76a7.5,7.5,0,0,1,.9-3.4,10.2,10.2,0,0,1,2.6-3.2,4.7,4.7,0,0,1,3.1-1.3,2.2,2.2,0,0,1,1.6,1,3.4,3.4,0,0,1,.8,1.8.5.5,0,0,1-.6.6l-.7-.3-.9-.2c-.4,0-.8.2-1.4.8a8.3,8.3,0,0,0-1.6,2,3.4,3.4,0,0,0-.7,1.8,1.2,1.2,0,0,0,.3.9h3l1.2-.4.7-.2a.5.5,0,0,1,.6.6c0,.6-.6,1.3-1.7,1.9a6.3,6.3,0,0,1-3.4,1,4.3,4.3,0,0,1-2.5-1.2A3.1,3.1,0,0,1,647.7,76Z"/><path d="M666.1,68.6a.9.9,0,0,1,.8-.5q.5,0,1.2.9a3.3,3.3,0,0,1,.7,1.5c0,.2-.4,1.3-1,3.3l-1.6,4.7a1.1,1.1,0,0,1-1.8.6,1.3,1.3,0,0,1-.3-1,8.1,8.1,0,0,1,.3-1.9c-1.5,2.1-2.7,3.2-3.6,3.2a2.6,2.6,0,0,1-1.7-.9,2.4,2.4,0,0,1-1-1.8,16.6,16.6,0,0,1,1.2-5.4c.8-2.1,1.5-3.2,2.3-3.2a1.6,1.6,0,0,1,1.1.5,2.1,2.1,0,0,1,.5,1.3,5.3,5.3,0,0,1-.6,1.5,14.4,14.4,0,0,0-1.6,5.1h.1c.2,0,.6-.3,1.2-1a24.5,24.5,0,0,0,2.1-3A20,20,0,0,0,666.1,68.6Z"/><path d="M676,68.1a3.3,3.3,0,0,1,2.1,1c.8.8,1.2,1.4,1.2,2a4.8,4.8,0,0,1-.6,2.1c.2.2.4.4.4.6a4.9,4.9,0,0,1-.3,1.2l-.4,1.4c0,.3-.1.6-.1.8s-.1.3-.1.4a.6.6,0,0,1-.1.4v.4c-.1.1-.1.2-.1.4V79l-.2.2c-.1.2-.2.2-.4.2s-.5-.2-.8-.6a5.2,5.2,0,0,1-.7-1.5c-1.4,1.4-2.5,2.1-3.4,2.1a2.9,2.9,0,0,1-2.1-1,3.1,3.1,0,0,1-1.1-2.1,6.9,6.9,0,0,1,1-3,12.3,12.3,0,0,1,2.5-3.6A4.7,4.7,0,0,1,676,68.1Zm-3.7,8.5a3.9,3.9,0,0,0,2.3-1.1,5,5,0,0,0,1.8-3.1.4.4,0,0,1,.4-.3c0-.8-.2-1.2-.4-1.2a2.7,2.7,0,0,0-2,1.1,14.4,14.4,0,0,0-1.8,2.5,5.6,5.6,0,0,0-.7,1.9v.2Zm8.4-14a1.2,1.2,0,0,1,1,.6,1.7,1.7,0,0,1,.4,1.1,1.5,1.5,0,0,1-.1.7l-.3.4-.5.3-.9.4-1,.5-.7.5a1.9,1.9,0,0,1-1,.4.6.6,0,0,1-.6-.3,1.1,1.1,0,0,1-.3-.8,1.3,1.3,0,0,1,.3-.8,2.2,2.2,0,0,1,.8-.9,7.3,7.3,0,0,0,.9-.8l.6-.5.5-.4.3-.3Z"/><path d="M685,62.9a2.9,2.9,0,0,1,.8,1.8c0,.6-.1,1.7-.2,3.2s-.4,2.7-.6,3.6c-1.2,5.3-2.1,7.9-2.5,7.9a1.4,1.4,0,0,1-1.2-.8c-.5-.5-.8-.9-.8-1.2s.2-.8.6-2.3.8-3.5,1.2-5.8a40.8,40.8,0,0,0,.6-6.8c0-.4.3-.6.7-.6S684.4,62.2,685,62.9Z"/><path d="M694.8,74.1a5.8,5.8,0,0,1-3,.9l-2.6-.2a4.3,4.3,0,0,0-.2,1.1,2,2,0,0,0,.2.9c.2.2.5.2,1,.2a10.9,10.9,0,0,0,2.8-.3l1.3-.3q.9,0,.9.6c0,.6-.5,1.1-1.5,1.7a6.6,6.6,0,0,1-3.2.7,4.1,4.1,0,0,1-3-1.1,3.7,3.7,0,0,1-1.1-2.8,6.8,6.8,0,0,1,.9-3.3,10,10,0,0,1,2.3-3,5,5,0,0,1,2.8-1.1,3.3,3.3,0,0,1,2.6,1.3,4.5,4.5,0,0,1,1.2,2.8C696.2,72.9,695.7,73.5,694.8,74.1Zm-1.6-2.9a1.2,1.2,0,0,0-.9-.4,1.8,1.8,0,0,0-1,.6,6.5,6.5,0,0,0-1.2,1.5h.6c2,0,3-.4,3-1.1Z"/><path d="M704.1,68.1a2.2,2.2,0,0,1,1.7,1,2.9,2.9,0,0,1,.8,1.8.5.5,0,0,1-.5.5l-.7-.2a2.2,2.2,0,0,0-1.1-.2l-1.5.3c-.7.3-1,.6-1,1s.2.3.6.6a5.7,5.7,0,0,0,1.3.8A4,4,0,0,1,705,75a2.7,2.7,0,0,1,.6,1.7c0,.6-.5,1.2-1.3,1.8a5.7,5.7,0,0,1-3.2.9,4.8,4.8,0,0,1-3-.8c-.9-.5-1.3-1.1-1.3-1.7s.2-.8.7-.8l.7.2a5.4,5.4,0,0,0,2.7.6c1.1,0,1.7-.1,1.7-.4s-.3-.6-.7-1l-1.3-1-1.4-1.1a2.2,2.2,0,0,1-.6-1.3c0-.8.7-1.7,2.1-2.6A7.8,7.8,0,0,1,704.1,68.1Z"/><path d="M722.9,68.1a2.1,2.1,0,0,1,1.6,1,2.4,2.4,0,0,1,.8,1.8c0,.3-.1.5-.4.5l-.8-.2a1.8,1.8,0,0,0-1-.2l-1.5.3c-.7.3-1,.6-1,1s.2.3.5.6l1.3.8a4,4,0,0,1,1.3,1.3,2.7,2.7,0,0,1,.6,1.7c0,.6-.4,1.2-1.3,1.8a5.4,5.4,0,0,1-3.1.9,5.3,5.3,0,0,1-3.1-.8c-.8-.5-1.3-1.1-1.3-1.7a.7.7,0,0,1,.7-.8l.7.2a6.1,6.1,0,0,0,2.8.6c1.1,0,1.6-.1,1.6-.4s-.2-.6-.6-1l-1.4-1-1.4-1.1a2.2,2.2,0,0,1-.6-1.3c0-.8.7-1.7,2.2-2.6A7,7,0,0,1,722.9,68.1Z"/><path d="M727.7,70.5c1.1-1.6,2.3-2.5,3.4-2.5a3.8,3.8,0,0,1,2.8,1.2,3.9,3.9,0,0,1,1.1,2.9,7.8,7.8,0,0,1-.7,3.3,8.2,8.2,0,0,1-2.3,2.9,4.8,4.8,0,0,1-3,1.1,2.5,2.5,0,0,1-2.1-1.1,3.7,3.7,0,0,1-.9-2.6A9.5,9.5,0,0,1,727.7,70.5Zm3.6,4.5a5.8,5.8,0,0,0,.9-3,3.8,3.8,0,0,0-.4-1.9,5.1,5.1,0,0,0-1.9,2.3,7.1,7.1,0,0,0-.9,3.1,3.5,3.5,0,0,0,.2,1.7A5,5,0,0,0,731.3,75Z"/><path d="M744.2,68.1a2.6,2.6,0,0,1,2.1,1,3.7,3.7,0,0,1,.8,2.2,14.3,14.3,0,0,1-.6,3.9,11.5,11.5,0,0,1-1.3,3.1c-.5.8-1,1.1-1.4,1.1s-.8-.3-.8-1a21.4,21.4,0,0,1,.7-3.2,11.6,11.6,0,0,0,.6-2.8c0-.6-.1-.9-.2-.9a.9.9,0,0,0-.6.3l-.4.5a.9.9,0,0,0-.4.6,2.1,2.1,0,0,0-.4.6l-.5.7a4.3,4.3,0,0,1-.4.7l-.4.7c-1.3,2.5-2.4,3.8-3.2,3.8s-.7-.2-1.1-.8a1.9,1.9,0,0,1-.7-1.2,4.3,4.3,0,0,1,.3-1l.4-1.2.3-.9c0-.4.1-.7.1-1.1a3.4,3.4,0,0,0,.1-.9,2.2,2.2,0,0,0,.1-.9,14,14,0,0,1,.4-3.2q.1-.3.3-.3a2.3,2.3,0,0,1,1.6.7,1.9,1.9,0,0,1,.8,1.3,15.7,15.7,0,0,1-.8,3.9,36.5,36.5,0,0,1,2.7-4.1C743,68.6,743.7,68.1,744.2,68.1Z"/><path d="M761.3,62.9a2.9,2.9,0,0,1,.8,1.8,28.6,28.6,0,0,1-.3,3.2,23.9,23.9,0,0,1-.5,3.6c-1.2,5.3-2.1,7.9-2.6,7.9s-.7-.2-1.2-.8a2.6,2.6,0,0,1-.7-1.2c0-.1.2-.8.6-2.3s.8-3.5,1.2-5.8a40.8,40.8,0,0,0,.6-6.8c0-.4.3-.6.7-.6S760.7,62.2,761.3,62.9Z"/><path d="M772,73.2a.7.7,0,0,1,.4.6,4.9,4.9,0,0,1-.3,1.2c-.1.6-.3,1.1-.3,1.4s-.1.6-.2.8v.4c0,.1-.1.3-.1.4s-.1.3-.1.4a.8.8,0,0,1-.1.4.3.3,0,0,1-.1.2.2.2,0,0,1-.2.2c0,.2-.2.2-.4.2s-.5-.2-.8-.6a3.4,3.4,0,0,1-.6-1.5c-1.4,1.4-2.6,2.1-3.5,2.1a3.3,3.3,0,0,1-2.1-1,3.1,3.1,0,0,1-1.1-2.1,8.6,8.6,0,0,1,1-3,12.7,12.7,0,0,1,2.6-3.6,4.7,4.7,0,0,1,3.2-1.6,3.5,3.5,0,0,1,2.2,1c.8.8,1.2,1.4,1.2,2A5.2,5.2,0,0,1,772,73.2Zm-6.4,3.4a3.7,3.7,0,0,0,2.3-1.1,5.6,5.6,0,0,0,1.9-3.1.3.3,0,0,1,.3-.3c0-.8-.1-1.2-.4-1.2a2.6,2.6,0,0,0-1.9,1.1,8.3,8.3,0,0,0-1.8,2.5,4,4,0,0,0-.7,1.9v.2Z"/><path d="M780.9,68.1a1.9,1.9,0,0,1,1.6,1,2.6,2.6,0,0,1,.9,1.8.5.5,0,0,1-.5.5l-.8-.2a1.8,1.8,0,0,0-1-.2l-1.5.3c-.7.3-1,.6-1,1s.2.3.6.6a5.7,5.7,0,0,0,1.3.8,5.3,5.3,0,0,1,1.3,1.3,2.7,2.7,0,0,1,.6,1.7c0,.6-.5,1.2-1.4,1.8a5.2,5.2,0,0,1-3.1.9,5.3,5.3,0,0,1-3.1-.8,2.1,2.1,0,0,1-1.2-1.7c0-.5.2-.8.7-.8l.7.2a5.4,5.4,0,0,0,2.7.6c1.1,0,1.6-.1,1.6-.4s-.2-.6-.6-1l-1.4-1L776,73.4a2.2,2.2,0,0,1-.6-1.3c0-.8.7-1.7,2.1-2.6A7.3,7.3,0,0,1,780.9,68.1Z"/><path d="M616.5,88.3c.3,0,.8.3,1.4,1a2.9,2.9,0,0,1,.8,1.8,26.6,26.6,0,0,1-.7,3.4c-.5,2.1-.9,3.3-1,3.7-1.1,5.1-2,7.6-2.5,7.6a1.7,1.7,0,0,1-1.6-1.6V104c-1.5,1.2-2.5,1.8-3.2,1.8a2.4,2.4,0,0,1-1.8-1,3,3,0,0,1-.9-1.9,14.1,14.1,0,0,1,.2-1.8c.2-.7.4-1.4.7-2.2s.7-1.5,1.1-2.1a8.7,8.7,0,0,1,1.6-1.7,3.2,3.2,0,0,1,1.8-.6,2.6,2.6,0,0,1,2.3,1.4,40.3,40.3,0,0,0,1.2-6.9C615.9,88.5,616.1,88.3,616.5,88.3ZM610,103a4.3,4.3,0,0,0,1.9-.9,5.7,5.7,0,0,0,1.9-2.4v-.8a1.5,1.5,0,0,0-.4-1.1c-.3-.4-.5-.5-.7-.5a1.6,1.6,0,0,0-1.3.7,6.2,6.2,0,0,0-1,1.6,9.8,9.8,0,0,0-.7,3.1v.3Z"/><path d="M621.4,94.5a1.6,1.6,0,0,1,1.4.9,2.7,2.7,0,0,1,.6,1.6,16.4,16.4,0,0,1-.7,3c-.5,1.8-1,3.4-1.5,4.9a1.1,1.1,0,0,1-1.1.9,1.2,1.2,0,0,1-1.2-1.3,24.3,24.3,0,0,1,.5-2.9c.4-1.6.7-2.9.9-4s.4-1.9.5-2.4S621.2,94.5,621.4,94.5Zm-.3-2.8a2.1,2.1,0,0,1,.5-1.2c.4-.4.7-.6,1-.6s.8.4,1.2,1.2a3.8,3.8,0,0,1,.7,1.8,1.2,1.2,0,0,1-1.1,1.1,2.5,2.5,0,0,1-1.5-.9A2.3,2.3,0,0,1,621.1,91.7Z"/><path d="M639.5,94.5c.6,0,1,.4,1.4,1.1a4.8,4.8,0,0,1,.6,2.1,12.3,12.3,0,0,1-.4,2.8,16.5,16.5,0,0,1-1.1,3.6c-.5,1.1-1.1,1.7-1.7,1.7s-.7-.3-.7-1a21.2,21.2,0,0,1,.5-3.2,14.9,14.9,0,0,0,.6-3c0-.4-.1-.7-.2-.7s-.7.4-1.1,1.1a26.7,26.7,0,0,0-1.5,2.7c-.6,1.1-1,1.8-1.1,2.1l-.4.8-.3.6c-.5.8-1.1.8-1.9,0a1.5,1.5,0,0,1-.6-1.1s.1-.6.4-1.7a18.6,18.6,0,0,0,.3-3.6c0-.6,0-.9-.2-.9s-.3.2-.6.6l-1.1,1.9c-.4.9-.9,1.7-1.2,2.3s-2.2,3.1-2.8,3.1a1.4,1.4,0,0,1-1.2-.8,1.9,1.9,0,0,1-.7-1.2,9.6,9.6,0,0,1,.4-2.1,13.6,13.6,0,0,0,.7-3.5c.1-1.2.2-2.2.3-2.9s.2-1,.5-1a2.3,2.3,0,0,1,1.6.7,1.9,1.9,0,0,1,.8,1.3,17.6,17.6,0,0,1-1,4.5,21.6,21.6,0,0,1,2.6-5,3.1,3.1,0,0,1,2.2-1.3c.4,0,.8.3,1.4,1a3,3,0,0,1,.8,2v1.6a11.1,11.1,0,0,1,2.1-3.2A4,4,0,0,1,639.5,94.5Z"/><path d="M651.1,100.5a5.8,5.8,0,0,1-3,.9l-2.5-.2a2.2,2.2,0,0,0-.2,1.1c0,.4,0,.7.2.9s.4.2.9.2a12.3,12.3,0,0,0,2.9-.3l1.2-.3q.9,0,.9.6c0,.6-.5,1.1-1.4,1.7a7.2,7.2,0,0,1-3.3.7,4.4,4.4,0,0,1-3-1.1,4.1,4.1,0,0,1-1.1-2.8,6.8,6.8,0,0,1,.9-3.3,10.2,10.2,0,0,1,2.4-3,4.5,4.5,0,0,1,2.8-1.1,3.5,3.5,0,0,1,2.6,1.3,4.4,4.4,0,0,1,1.1,2.8C652.5,99.3,652.1,99.9,651.1,100.5Zm-1.6-2.9a1.2,1.2,0,0,0-.8-.4,1.7,1.7,0,0,0-1.1.6,4.9,4.9,0,0,0-1.2,1.5h.6c2,0,3-.4,3-1.1S649.8,97.9,649.5,97.6Z"/><path d="M661.5,94.5a2.3,2.3,0,0,1,2,1,3.3,3.3,0,0,1,.9,2.2,14.3,14.3,0,0,1-.6,3.9,11.5,11.5,0,0,1-1.3,3.1c-.5.8-1,1.1-1.5,1.1s-.7-.3-.7-1a13.1,13.1,0,0,1,.7-3.2,11.6,11.6,0,0,0,.6-2.8q0-.9-.3-.9l-.5.3-.5.5-.4.6-.4.6-.4.7-.4.7-.4.7c-1.4,2.5-2.4,3.8-3.2,3.8s-.7-.2-1.2-.8a2.6,2.6,0,0,1-.7-1.2,4.3,4.3,0,0,1,.3-1,5.1,5.1,0,0,0,.5-1.2l.3-.9c0-.4.1-.7.1-1.1a3.4,3.4,0,0,0,.1-.9c0-.2.1-.5.1-.9a18.4,18.4,0,0,1,.3-3.2c.1-.2.2-.3.4-.3a2.5,2.5,0,0,1,1.6.7,1.7,1.7,0,0,1,.7,1.3,14.6,14.6,0,0,1-.7,3.9,37.7,37.7,0,0,1,2.6-4.1C660.3,95,661,94.5,661.5,94.5Z"/><path d="M672.6,94.5a2.2,2.2,0,0,1,1.7,1,2.9,2.9,0,0,1,.8,1.8.5.5,0,0,1-.5.5l-.7-.2a2.2,2.2,0,0,0-1.1-.2l-1.5.3c-.6.3-1,.6-1,.9s.2.4.6.7a5.7,5.7,0,0,0,1.3.8,4,4,0,0,1,1.3,1.3,2.7,2.7,0,0,1,.6,1.7c0,.6-.4,1.2-1.3,1.8a5.6,5.6,0,0,1-3.1.9,5.1,5.1,0,0,1-3.1-.8c-.9-.5-1.3-1.1-1.3-1.7s.2-.8.7-.8l.7.2a5.4,5.4,0,0,0,2.7.6c1.1,0,1.7-.1,1.7-.4s-.2-.6-.7-1l-1.3-1-1.4-1.1a2.2,2.2,0,0,1-.6-1.3c0-.8.7-1.7,2.1-2.6A7.8,7.8,0,0,1,672.6,94.5Z"/><path d="M678.4,94.5c.5,0,.9.3,1.3.9a2.3,2.3,0,0,1,.7,1.6,22.9,22.9,0,0,1-.8,3c-.5,1.8-1,3.4-1.5,4.9s-.5.9-1.1.9a.9.9,0,0,1-.8-.4,1,1,0,0,1-.4-.9,15.9,15.9,0,0,1,.6-2.9l.8-4a13.6,13.6,0,0,1,.6-2.4C677.9,94.7,678.1,94.5,678.4,94.5Zm-.4-2.8a1.7,1.7,0,0,1,.6-1.2,1.2,1.2,0,0,1,1-.6q.4,0,1.2,1.2a4.6,4.6,0,0,1,.6,1.8,1.1,1.1,0,0,1-.3.8l-.7.3a2,2,0,0,1-1.5-.9A2.1,2.1,0,0,1,678,91.7Z"/><path d="M683.2,96.9c1.1-1.6,2.3-2.5,3.4-2.5a3.8,3.8,0,0,1,2.8,1.2,3.9,3.9,0,0,1,1.1,2.9,6.7,6.7,0,0,1-.8,3.3,7,7,0,0,1-2.2,2.9,4.8,4.8,0,0,1-3,1.1,2.5,2.5,0,0,1-2.1-1.1,3.7,3.7,0,0,1-.9-2.6A9.5,9.5,0,0,1,683.2,96.9Zm3.6,4.5a5.8,5.8,0,0,0,.9-3,3.8,3.8,0,0,0-.4-1.9,5.1,5.1,0,0,0-1.9,2.3,7.4,7.4,0,0,0-1,3.1,3.2,3.2,0,0,0,.3,1.7A5,5,0,0,0,686.8,101.4Z"/><path d="M699.7,94.5a2.3,2.3,0,0,1,2,1,3.3,3.3,0,0,1,.9,2.2,14.3,14.3,0,0,1-.6,3.9,11.5,11.5,0,0,1-1.3,3.1c-.5.8-1,1.1-1.5,1.1s-.7-.3-.7-1a13.1,13.1,0,0,1,.7-3.2,11.6,11.6,0,0,0,.6-2.8c0-.6-.1-.9-.2-.9a.9.9,0,0,0-.6.3l-.5.5-.4.6-.4.6-.4.7a4.3,4.3,0,0,1-.4.7l-.4.7c-1.3,2.5-2.4,3.8-3.2,3.8s-.7-.2-1.2-.8a2.6,2.6,0,0,1-.7-1.2,2.7,2.7,0,0,1,.4-1c.2-.5.3-.9.4-1.2l.3-.9c0-.4.1-.7.1-1.1a3.4,3.4,0,0,0,.1-.9,2.2,2.2,0,0,0,.1-.9c.1-1.9.3-3,.3-3.2s.2-.3.4-.3a2.3,2.3,0,0,1,1.6.7,1.7,1.7,0,0,1,.7,1.3,14.6,14.6,0,0,1-.7,3.9c1-1.7,1.9-3.1,2.6-4.1S699.2,94.5,699.7,94.5Z"/><path d="M712.2,100.5a5.8,5.8,0,0,1-3,.9l-2.5-.2a4.3,4.3,0,0,0-.2,1.1,2,2,0,0,0,.2.9c.1.2.4.2,1,.2a11.4,11.4,0,0,0,2.8-.3l1.2-.3q.9,0,.9.6c0,.6-.4,1.1-1.4,1.7a6.7,6.7,0,0,1-3.3.7,4.4,4.4,0,0,1-3-1.1,4.1,4.1,0,0,1-1.1-2.8,6,6,0,0,1,1-3.3,10,10,0,0,1,2.3-3,4.7,4.7,0,0,1,2.8-1.1,3.5,3.5,0,0,1,2.6,1.3,4.5,4.5,0,0,1,1.2,2.8C713.7,99.3,713.2,99.9,712.2,100.5Zm-1.5-2.9a1.2,1.2,0,0,0-.9-.4c-.3,0-.6.2-1,.6a3.9,3.9,0,0,0-1.3,1.5h.6c2,0,3-.4,3-1.1S711,97.9,710.7,97.6Z"/><path d="M721.6,94.5a2.1,2.1,0,0,1,1.6,1,2.4,2.4,0,0,1,.8,1.8c0,.3-.1.5-.4.5l-.8-.2a1.8,1.8,0,0,0-1-.2l-1.5.3c-.7.3-1,.6-1,.9s.2.4.6.7a5.7,5.7,0,0,0,1.3.8,5.3,5.3,0,0,1,1.3,1.3,2.7,2.7,0,0,1,.6,1.7c0,.6-.5,1.2-1.4,1.8a5.4,5.4,0,0,1-3.1.9,5.3,5.3,0,0,1-3.1-.8,2.1,2.1,0,0,1-1.2-1.7c0-.5.2-.8.7-.8l.6.2a6.1,6.1,0,0,0,2.8.6c1.1,0,1.6-.1,1.6-.4s-.2-.6-.6-1l-1.4-1a6.9,6.9,0,0,1-1.3-1.1,1.9,1.9,0,0,1-.7-1.3c0-.8.8-1.7,2.2-2.6A7.3,7.3,0,0,1,721.6,94.5Z"/><path d="M742.7,88.3c.4,0,.8.3,1.4,1a2.4,2.4,0,0,1,.8,1.8,26.6,26.6,0,0,1-.7,3.4l-.9,3.7c-1.2,5.1-2.1,7.6-2.6,7.6a1.7,1.7,0,0,1-1.6-1.6V104c-1.5,1.2-2.5,1.8-3.2,1.8a2.4,2.4,0,0,1-1.8-1,3,3,0,0,1-.9-1.9,14.1,14.1,0,0,1,.2-1.8c.2-.7.4-1.4.7-2.2a14.3,14.3,0,0,1,1.2-2.1,6.1,6.1,0,0,1,1.5-1.7,3.2,3.2,0,0,1,1.8-.6,2.6,2.6,0,0,1,2.3,1.4,40.3,40.3,0,0,0,1.2-6.9C742.1,88.5,742.3,88.3,742.7,88.3ZM736.2,103a4.3,4.3,0,0,0,1.9-.9,5.7,5.7,0,0,0,1.9-2.4v-.8a1.5,1.5,0,0,0-.4-1.1c-.3-.4-.5-.5-.7-.5a1.6,1.6,0,0,0-1.3.7,6.2,6.2,0,0,0-1,1.6,13.8,13.8,0,0,0-.7,3.1c0,.2,0,.2.1.3Z"/><path d="M753.6,100.5a5.8,5.8,0,0,1-3,.9l-2.6-.2a4.3,4.3,0,0,0-.2,1.1,2,2,0,0,0,.2.9c.2.2.5.2,1,.2a10.9,10.9,0,0,0,2.8-.3l1.3-.3q.9,0,.9.6c0,.6-.5,1.1-1.5,1.7a6.6,6.6,0,0,1-3.2.7,4.1,4.1,0,0,1-3-1.1,3.7,3.7,0,0,1-1.1-2.8,6.8,6.8,0,0,1,.9-3.3,10,10,0,0,1,2.3-3,5,5,0,0,1,2.8-1.1,3.3,3.3,0,0,1,2.6,1.3,4.5,4.5,0,0,1,1.2,2.8C755,99.3,754.5,99.9,753.6,100.5ZM752,97.6a1.2,1.2,0,0,0-.9-.4,1.8,1.8,0,0,0-1,.6,4.9,4.9,0,0,0-1.2,1.5h.6c2,0,3-.4,3-1.1S752.3,97.9,752,97.6Z"/><path d="M762.9,94.5a2.2,2.2,0,0,1,1.7,1,2.9,2.9,0,0,1,.8,1.8.5.5,0,0,1-.5.5l-.8-.2a1.6,1.6,0,0,0-1-.2l-1.5.3c-.7.3-1,.6-1,.9s.2.4.6.7a5.7,5.7,0,0,0,1.3.8,4,4,0,0,1,1.3,1.3,2.7,2.7,0,0,1,.6,1.7c0,.6-.5,1.2-1.3,1.8a5.7,5.7,0,0,1-3.2.9,4.8,4.8,0,0,1-3-.8c-.9-.5-1.3-1.1-1.3-1.7s.2-.8.7-.8l.7.2a5.4,5.4,0,0,0,2.7.6c1.1,0,1.7-.1,1.7-.4s-.3-.6-.7-1l-1.3-1L758,99.8a2.2,2.2,0,0,1-.6-1.3c0-.8.7-1.7,2.1-2.6A7.8,7.8,0,0,1,762.9,94.5Z"/><path d="M775.6,88.3c.3,0,.8.3,1.4,1a2.9,2.9,0,0,1,.8,1.8,19.8,19.8,0,0,1-.8,3.4l-.9,3.7c-1.2,5.1-2,7.6-2.6,7.6a1.9,1.9,0,0,1-1-.5,1.7,1.7,0,0,1-.6-1.1c0-.1,0-.1.1-.2-1.5,1.2-2.6,1.8-3.2,1.8a2.2,2.2,0,0,1-1.8-1,3,3,0,0,1-.9-1.9,6.2,6.2,0,0,1,.2-1.8,11.1,11.1,0,0,1,.7-2.2,13.9,13.9,0,0,1,1.1-2.1,6.1,6.1,0,0,1,1.5-1.7,3.3,3.3,0,0,1,1.9-.6,2.6,2.6,0,0,1,2.3,1.4c.8-3.5,1.2-5.8,1.1-6.9S775.1,88.3,775.6,88.3ZM769.1,103a4.1,4.1,0,0,0,1.8-.9,5.2,5.2,0,0,0,2-2.4v-.8a2.1,2.1,0,0,0-.4-1.1c-.3-.4-.5-.5-.8-.5a1.5,1.5,0,0,0-1.2.7,6.2,6.2,0,0,0-1,1.6,9.8,9.8,0,0,0-.7,3.1v.3Z"/><path d="M786.4,100.5a5.8,5.8,0,0,1-3,.9l-2.5-.2a4.3,4.3,0,0,0-.2,1.1,2,2,0,0,0,.2.9c.1.2.5.2,1,.2a11.4,11.4,0,0,0,2.8-.3l1.2-.3q.9,0,.9.6c0,.6-.4,1.1-1.4,1.7a6.7,6.7,0,0,1-3.3.7,4,4,0,0,1-2.9-1.1,3.8,3.8,0,0,1-1.2-2.8,6,6,0,0,1,1-3.3,10,10,0,0,1,2.3-3,4.7,4.7,0,0,1,2.8-1.1,3.5,3.5,0,0,1,2.6,1.3,4.5,4.5,0,0,1,1.2,2.8C787.9,99.3,787.4,99.9,786.4,100.5Zm-1.5-2.9a1.2,1.2,0,0,0-.9-.4c-.3,0-.6.2-1,.6a3.9,3.9,0,0,0-1.3,1.5h.6c2,0,3-.4,3-1.1S785.2,97.9,784.9,97.6Z"/><path d="M801.7,89.3a2.4,2.4,0,0,1,.8,1.8c0,.6-.1,1.7-.2,3.2s-.4,2.7-.6,3.6c-1.2,5.3-2,7.9-2.5,7.9a1.4,1.4,0,0,1-1.2-.8,1.9,1.9,0,0,1-.7-1.2l.6-2.3c.3-1.5.7-3.5,1.1-5.8a32.7,32.7,0,0,0,.7-6.8.5.5,0,0,1,.6-.6C800.7,88.3,801.1,88.6,801.7,89.3Z"/><path d="M812.4,99.6a.7.7,0,0,1,.4.6c0,.2-.1.6-.2,1.2s-.3,1.1-.4,1.4-.1.6-.1.8a.8.8,0,0,0-.1.4.6.6,0,0,1-.1.4c0,.2,0,.3-.1.4a.8.8,0,0,1-.1.4c0,.1,0,.2-.1.2v.2c-.1.2-.3.2-.5.2s-.4-.2-.7-.6a3.5,3.5,0,0,1-.7-1.5c-1.4,1.4-2.5,2.1-3.5,2.1a2.9,2.9,0,0,1-2-1,2.7,2.7,0,0,1-1.1-2.1,7.9,7.9,0,0,1,.9-3,15,15,0,0,1,2.6-3.6,4.7,4.7,0,0,1,3.3-1.6,3.3,3.3,0,0,1,2.1,1c.8.8,1.2,1.4,1.2,2A4,4,0,0,1,812.4,99.6ZM806,103a4.1,4.1,0,0,0,2.4-1.1,5,5,0,0,0,1.8-3.1c0-.2.1-.3.4-.3s-.2-1.2-.5-1.2a2.7,2.7,0,0,0-1.9,1.1,14.4,14.4,0,0,0-1.8,2.5,4,4,0,0,0-.7,1.9c0,.1,0,.2.1.2Z"/><path d="M821.3,94.5a2.2,2.2,0,0,1,1.7,1,2.9,2.9,0,0,1,.8,1.8.5.5,0,0,1-.5.5l-.7-.2a2.2,2.2,0,0,0-1.1-.2l-1.5.3c-.7.3-1,.6-1,.9s.2.4.6.7a5.7,5.7,0,0,0,1.3.8,4,4,0,0,1,1.3,1.3,2.7,2.7,0,0,1,.6,1.7c0,.6-.4,1.2-1.3,1.8a5.7,5.7,0,0,1-3.2.9,4.8,4.8,0,0,1-3-.8c-.9-.5-1.3-1.1-1.3-1.7s.2-.8.7-.8l.7.2a5.4,5.4,0,0,0,2.7.6c1.1,0,1.7-.1,1.7-.4s-.2-.6-.7-1l-1.3-1-1.4-1.1a2.2,2.2,0,0,1-.6-1.3c0-.8.7-1.7,2.1-2.6A7.8,7.8,0,0,1,821.3,94.5Z"/><path d="M598.8,128.8a7.5,7.5,0,0,1,.9-3.4,10.2,10.2,0,0,1,2.6-3.2,4.7,4.7,0,0,1,3.1-1.3,2.2,2.2,0,0,1,1.6,1,3.4,3.4,0,0,1,.8,1.8.5.5,0,0,1-.6.6l-.7-.3-.9-.2a2.3,2.3,0,0,0-1.4.8,8.3,8.3,0,0,0-1.6,2,4.6,4.6,0,0,0-.7,1.8,1.2,1.2,0,0,0,.3.9h3l1.2-.4.7-.2a.5.5,0,0,1,.6.6c0,.6-.6,1.3-1.7,1.9a6.3,6.3,0,0,1-3.4,1,4.3,4.3,0,0,1-2.5-1.2A3.1,3.1,0,0,1,598.8,128.8Z"/><path d="M617.3,121.4a.7.7,0,0,1,.7-.5q.4,0,1.2.9a3.3,3.3,0,0,1,.7,1.5c0,.2-.4,1.3-1,3.3l-1.6,4.7a1.1,1.1,0,0,1-1.8.6,1.3,1.3,0,0,1-.3-1,8.1,8.1,0,0,1,.3-1.9c-1.5,2.1-2.7,3.2-3.6,3.2a2.8,2.8,0,0,1-1.7-.9,2.4,2.4,0,0,1-1-1.8,16.6,16.6,0,0,1,1.2-5.4c.8-2.1,1.6-3.2,2.3-3.2a1.6,1.6,0,0,1,1.1.5,2.1,2.1,0,0,1,.5,1.3,5.3,5.3,0,0,1-.6,1.5,14.4,14.4,0,0,0-1.6,5.1h.1c.2,0,.6-.3,1.2-1a24.5,24.5,0,0,0,2.1-3A28.7,28.7,0,0,0,617.3,121.4Z"/><path d="M629.6,126c.2.2.4.4.4.6a4.9,4.9,0,0,1-.3,1.2,5,5,0,0,0-.3,1.4,3.1,3.1,0,0,0-.2.8c0,.2-.1.3-.1.4v.4a.8.8,0,0,0-.1.4c-.1.1-.1.2-.1.4a.3.3,0,0,0-.1.2c-.1.1-.1.2-.2.2s-.2.2-.4.2-.5-.2-.8-.6a5.2,5.2,0,0,1-.7-1.5c-1.3,1.4-2.5,2.1-3.4,2.1a2.9,2.9,0,0,1-2.1-1,3.1,3.1,0,0,1-1.1-2.1,6.9,6.9,0,0,1,1-3,14.5,14.5,0,0,1,2.5-3.6,4.7,4.7,0,0,1,3.3-1.6,3.3,3.3,0,0,1,2.1,1c.8.8,1.2,1.4,1.2,2A4.8,4.8,0,0,1,629.6,126Zm-6.4,3.4a3.9,3.9,0,0,0,2.3-1.1,5,5,0,0,0,1.8-3.1c0-.2.2-.3.4-.3s-.2-1.2-.4-1.2a2.7,2.7,0,0,0-2,1.1,14.4,14.4,0,0,0-1.8,2.5,5.6,5.6,0,0,0-.7,1.9.3.3,0,0,0,.1.2Z"/><path d="M635.9,115.7a2.4,2.4,0,0,1,.8,1.8,22.8,22.8,0,0,1-.2,3.2q-.3,2.3-.6,3.6c-1.2,5.3-2,7.9-2.5,7.9s-.7-.2-1.2-.8a1.9,1.9,0,0,1-.7-1.2l.6-2.3c.4-1.5.8-3.5,1.2-5.8a40.8,40.8,0,0,0,.6-6.8.5.5,0,0,1,.6-.6C634.9,114.7,635.4,115,635.9,115.7Z"/><path d="M645.7,126.9a5.8,5.8,0,0,1-3,.9l-2.5-.2a2.2,2.2,0,0,0-.2,1.1c0,.4,0,.7.2.9s.4.2.9.2a12.3,12.3,0,0,0,2.9-.3l1.2-.3q.9,0,.9.6c0,.6-.5,1.1-1.4,1.7a7.2,7.2,0,0,1-3.3.7,4.4,4.4,0,0,1-3-1.1,4.1,4.1,0,0,1-1.1-2.8,6.8,6.8,0,0,1,.9-3.3,10.2,10.2,0,0,1,2.4-3,4.5,4.5,0,0,1,2.8-1.1,3.5,3.5,0,0,1,2.6,1.3,4.5,4.5,0,0,1,1.2,2.8C647.2,125.7,646.7,126.3,645.7,126.9Zm-1.6-2.9a1.2,1.2,0,0,0-.8-.4,1.7,1.7,0,0,0-1.1.6,4.9,4.9,0,0,0-1.2,1.5h.6c2,0,3-.4,3-1.1Z"/><path d="M655,120.9a2.1,2.1,0,0,1,1.7,1,2.9,2.9,0,0,1,.8,1.8c0,.3-.1.5-.4.5l-.8-.2a2,2,0,0,0-1-.2l-1.6.3c-.6.3-1,.6-1,.9s.2.4.6.7l1.3.8a4,4,0,0,1,1.3,1.3,2.7,2.7,0,0,1,.6,1.7c0,.6-.4,1.2-1.3,1.8a5.4,5.4,0,0,1-3.1.9,5.1,5.1,0,0,1-3.1-.8c-.9-.5-1.3-1.1-1.3-1.7a.7.7,0,0,1,.7-.8l.7.2a5.7,5.7,0,0,0,2.7.6c1.1,0,1.7-.1,1.7-.4s-.2-.6-.6-1l-1.4-1-1.4-1.1a2.2,2.2,0,0,1-.6-1.3c0-.8.7-1.7,2.2-2.6A7.1,7.1,0,0,1,655,120.9Z"/><path d="M675.9,116.1c.4,0,.8.3,1.3,1a3.8,3.8,0,0,1,.7,1.8c0,.5,0,.7-.2.7h-1.3a3.8,3.8,0,0,0-2.6,1.4,12,12,0,0,0-2.5,3.3,7.8,7.8,0,0,0-1.1,3.4,2.2,2.2,0,0,0,.2,1,.9.9,0,0,0,.8.4,10.6,10.6,0,0,0,3.1-.5l2.6-.9,1.1-.5.3.2a1.4,1.4,0,0,1,.2.7c0,.5-.4,1-1.2,1.7a11.9,11.9,0,0,1-2.9,1.8,7.2,7.2,0,0,1-3,.7,4.3,4.3,0,0,1-2.9-1.7,4.7,4.7,0,0,1-1.5-3.1,10.8,10.8,0,0,1,1.3-4.8,17.5,17.5,0,0,1,3.5-4.6A6.1,6.1,0,0,1,675.9,116.1Z"/><path d="M681.9,123.3c1.2-1.6,2.3-2.5,3.4-2.5a3.6,3.6,0,0,1,2.8,1.2,4,4,0,0,1,1.2,2.9,8.6,8.6,0,0,1-3,6.2,5.3,5.3,0,0,1-3.1,1.1,2.5,2.5,0,0,1-2.1-1.1,3.7,3.7,0,0,1-.9-2.6A9.5,9.5,0,0,1,681.9,123.3Zm3.6,4.5a5.8,5.8,0,0,0,.9-3,3,3,0,0,0-.4-1.9,5.8,5.8,0,0,0-1.9,2.3,7.1,7.1,0,0,0-.9,3.1,3.2,3.2,0,0,0,.3,1.7A5.4,5.4,0,0,0,685.5,127.8Z"/><path d="M698.5,120.9a2.6,2.6,0,0,1,2,1,3.3,3.3,0,0,1,.9,2.2,14.3,14.3,0,0,1-.6,3.9,15.4,15.4,0,0,1-1.4,3.1c-.4.8-.9,1.1-1.4,1.1s-.8-.3-.8-1a15.4,15.4,0,0,1,.8-3.2,16.6,16.6,0,0,0,.5-2.8c0-.6-.1-.9-.2-.9a.9.9,0,0,0-.6.3l-.4.5a1.5,1.5,0,0,0-.4.6l-.4.6a4.3,4.3,0,0,0-.4.7l-.4.7a4.3,4.3,0,0,0-.4.7c-1.4,2.5-2.5,3.8-3.2,3.8s-.7-.2-1.2-.8a1.9,1.9,0,0,1-.7-1.2,4.3,4.3,0,0,1,.3-1l.5-1.2c.1-.3.1-.6.2-.9s.1-.7.2-1.1a2.2,2.2,0,0,1,.1-.9v-.9a26.2,26.2,0,0,1,.4-3.2q.1-.3.3-.3a2.1,2.1,0,0,1,1.6.7,1.9,1.9,0,0,1,.8,1.3,20.2,20.2,0,0,1-.7,3.9,26.8,26.8,0,0,1,2.6-4.1C697.3,121.4,697.9,120.9,698.5,120.9Z"/><path d="M709.9,117.8c-.4,0-.7.4-1,1.2l-.9,3.3h4c1.1,0,1.6.4,1.6,1.2a4.9,4.9,0,0,1-.3,1.5c-.2.6-.5,1.5-1,2.7l-1.2,3.7c-.1.4-.2.6-.4.7l-.7.2a.9.9,0,0,1-.8-.4,1.5,1.5,0,0,1-.4-1.1,13.7,13.7,0,0,1,.7-3.1c.4-1.7.6-2.7.7-3l-2.8.4q-1,4.6-1.5,6c-.3.8-.7,1.2-1,1.2s-.6-.2-1-.7a1.8,1.8,0,0,1-.6-1,2.9,2.9,0,0,1,.2-.9,34.4,34.4,0,0,0,1.1-4.1h-1.3a1.4,1.4,0,0,1-1-.5,2.1,2.1,0,0,1-.5-1.2c0-.3.3-.5.8-.7l2.5-.6a14.1,14.1,0,0,1,1.8-5.8,3.3,3.3,0,0,1,3.1-1.7,4.8,4.8,0,0,1,2.7,1,2.7,2.7,0,0,1,1.5,2.3,2.9,2.9,0,0,1-.3,1.4.8.8,0,0,1-.8.5,1.2,1.2,0,0,1-.9-.4l-.9-.8C710.7,118.2,710.2,117.8,709.9,117.8Z"/><path d="M723.3,126a.7.7,0,0,1,.4.6,4.9,4.9,0,0,1-.3,1.2,10.6,10.6,0,0,1-.3,1.4,2.5,2.5,0,0,0-.1.8.8.8,0,0,0-.1.4c0,.1-.1.3-.1.4s-.1.3-.1.4a.8.8,0,0,1-.1.4v.2l-.2.2c0,.2-.2.2-.4.2s-.5-.2-.8-.6a3.4,3.4,0,0,1-.6-1.5c-1.4,1.4-2.6,2.1-3.5,2.1a2.9,2.9,0,0,1-2-1,2.7,2.7,0,0,1-1.1-2.1,7.9,7.9,0,0,1,.9-3,12.7,12.7,0,0,1,2.6-3.6,4.7,4.7,0,0,1,3.2-1.6,3.5,3.5,0,0,1,2.2,1c.8.8,1.2,1.4,1.2,2A4,4,0,0,1,723.3,126Zm-6.4,3.4a4.1,4.1,0,0,0,2.4-1.1,6.1,6.1,0,0,0,1.8-3.1.3.3,0,0,1,.3-.3c0-.8-.1-1.2-.4-1.2a2.6,2.6,0,0,0-1.9,1.1,8.3,8.3,0,0,0-1.8,2.5,4,4,0,0,0-.7,1.9v.2Z"/><path d="M726.4,124.6v-2.5c0-.8.2-1.2.7-1.2a1.6,1.6,0,0,1,.9.3,1.7,1.7,0,0,1,.6,1,5.9,5.9,0,0,1,1.7-1,3.4,3.4,0,0,1,1.6-.4c1,0,1.6.2,1.6.7a.8.8,0,0,1-.2.6l-.2.3-.3.2-.2.2-.8.5a8,8,0,0,0-1.7,1.5,6.7,6.7,0,0,0-1,2.4,21.6,21.6,0,0,1-1.2,3.8c-.3.8-.8,1.2-1.2,1.2a1.2,1.2,0,0,1-1.1-.7,2.7,2.7,0,0,1-.3-1.2,5.4,5.4,0,0,1,.4-1.8,8.9,8.9,0,0,0,.6-2A10.1,10.1,0,0,0,726.4,124.6Z"/><path d="M742.8,124.6v-2.5c0-.8.3-1.2.8-1.2a1.3,1.3,0,0,1,.8.3,2.6,2.6,0,0,1,.7,1,5.4,5.4,0,0,1,1.6-1,3.4,3.4,0,0,1,1.6-.4c1.1,0,1.6.2,1.6.7s0,.5-.1.6l-.3.3-.2.2-.3.2-.7.5a5,5,0,0,0-1.7,1.5,6.7,6.7,0,0,0-1.1,2.4c-.4,1.7-.8,2.9-1.1,3.8s-.8,1.2-1.3,1.2a1,1,0,0,1-1-.7,2.8,2.8,0,0,1-.4-1.2,6.2,6.2,0,0,1,.5-1.8,8.9,8.9,0,0,0,.6-2A10.9,10.9,0,0,0,742.8,124.6Z"/><path d="M758,126.9a5.8,5.8,0,0,1-3,.9l-2.6-.2a4.3,4.3,0,0,0-.2,1.1,2,2,0,0,0,.2.9c.2.2.5.2,1,.2a12.3,12.3,0,0,0,2.9-.3l1.2-.3q.9,0,.9.6c0,.6-.5,1.1-1.4,1.7a7.2,7.2,0,0,1-3.3.7,4.2,4.2,0,0,1-3-1.1,4.1,4.1,0,0,1-1.1-2.8,6.8,6.8,0,0,1,.9-3.3,8.9,8.9,0,0,1,2.4-3,4.5,4.5,0,0,1,2.8-1.1,3.1,3.1,0,0,1,2.5,1.3,4.5,4.5,0,0,1,1.2,2.8C759.4,125.7,758.9,126.3,758,126.9Zm-1.6-2.9a1.2,1.2,0,0,0-.8-.4,1.7,1.7,0,0,0-1.1.6,4.9,4.9,0,0,0-1.2,1.5h.6c2,0,3-.4,3-1.1Z"/><path d="M769.7,126c.2.2.4.4.4.6a4.9,4.9,0,0,1-.3,1.2l-.4,1.4c0,.3-.1.6-.1.8s-.1.3-.1.4a.6.6,0,0,1-.1.4v.4c-.1.1-.1.2-.1.4a.3.3,0,0,0-.1.2l-.2.2c-.1.2-.2.2-.4.2s-.5-.2-.8-.6a5.2,5.2,0,0,1-.7-1.5c-1.4,1.4-2.5,2.1-3.4,2.1a2.9,2.9,0,0,1-2.1-1,3.1,3.1,0,0,1-1.1-2.1,6.9,6.9,0,0,1,1-3,12.3,12.3,0,0,1,2.5-3.6,4.7,4.7,0,0,1,3.3-1.6,3.3,3.3,0,0,1,2.1,1c.8.8,1.2,1.4,1.2,2A4.8,4.8,0,0,1,769.7,126Zm-6.4,3.4a4.2,4.2,0,0,0,2.3-1.1,5,5,0,0,0,1.8-3.1c0-.2.2-.3.4-.3s-.2-1.2-.4-1.2a2.7,2.7,0,0,0-2,1.1,14.4,14.4,0,0,0-1.8,2.5,5.6,5.6,0,0,0-.7,1.9.3.3,0,0,0,.1.2Z"/><path d="M776,115.7a2.4,2.4,0,0,1,.8,1.8c0,.6-.1,1.7-.2,3.2s-.4,2.7-.6,3.6c-1.2,5.3-2,7.9-2.5,7.9a1.4,1.4,0,0,1-1.2-.8,1.9,1.9,0,0,1-.7-1.2l.6-2.3c.3-1.5.7-3.5,1.2-5.8a40.8,40.8,0,0,0,.6-6.8.5.5,0,0,1,.6-.6C775,114.7,775.4,115,776,115.7Z"/><path d="M779.9,120.9c.5,0,.9.3,1.3.9a2.3,2.3,0,0,1,.7,1.6,22.9,22.9,0,0,1-.8,3c-.5,1.8-1,3.4-1.5,4.9s-.5.9-1.1.9a.9.9,0,0,1-.8-.4,1,1,0,0,1-.4-.9,15.9,15.9,0,0,1,.6-2.9l.8-4a13.6,13.6,0,0,1,.6-2.4C779.4,121.1,779.6,120.9,779.9,120.9Zm-.4-2.8a1.7,1.7,0,0,1,.6-1.2,1.2,1.2,0,0,1,1-.6c.3,0,.7.4,1.1,1.2a3.8,3.8,0,0,1,.7,1.8,1.1,1.1,0,0,1-.3.8l-.7.3a2,2,0,0,1-1.5-.9A2.1,2.1,0,0,1,779.5,118.1Z"/><path d="M786.4,129.4h4.8a1.2,1.2,0,0,1,.8.2.6.6,0,0,1,.3.6c0,.7-.6,1.2-1.9,1.6a17.6,17.6,0,0,1-4.9.5,2.8,2.8,0,0,1-2-.9,2.4,2.4,0,0,1-.9-1.6c0-.4.3-.9,1.1-1.5a14.6,14.6,0,0,1,2.4-1.7l2.5-1.5c.7-.5,1.1-.8,1.1-.9s-.4-.3-1.2-.3h-1.9l-1.2.2c-.3,0-.7-.3-1.1-.8a2.2,2.2,0,0,1-.6-1.2c0-.4.4-.7,1.1-.9a10.1,10.1,0,0,1,2.5-.3l3,.3a3.7,3.7,0,0,1,1.4,1.2,3,3,0,0,1,.6,1.4,2.8,2.8,0,0,1-.9,1.9,6.8,6.8,0,0,1-2.1,1.7l-2.1,1.3-1,.7Z"/><path d="M803,126a.7.7,0,0,1,.4.6,4.9,4.9,0,0,1-.3,1.2,10.6,10.6,0,0,1-.3,1.4,2.5,2.5,0,0,0-.1.8.8.8,0,0,0-.1.4c0,.1-.1.3-.1.4s-.1.3-.1.4a.8.8,0,0,1-.1.4v.2l-.2.2c0,.2-.2.2-.4.2s-.5-.2-.8-.6a3.4,3.4,0,0,1-.6-1.5c-1.4,1.4-2.6,2.1-3.5,2.1a2.9,2.9,0,0,1-2-1,2.7,2.7,0,0,1-1.1-2.1,7.9,7.9,0,0,1,.9-3,12.7,12.7,0,0,1,2.6-3.6,4.7,4.7,0,0,1,3.2-1.6,3.5,3.5,0,0,1,2.2,1c.8.8,1.2,1.4,1.2,2A4,4,0,0,1,803,126Zm-6.4,3.4a4.1,4.1,0,0,0,2.4-1.1,6.1,6.1,0,0,0,1.8-3.1.3.3,0,0,1,.3-.3c0-.8-.1-1.2-.4-1.2a2.6,2.6,0,0,0-1.9,1.1,8.3,8.3,0,0,0-1.8,2.5,4,4,0,0,0-.7,1.9v.2Z"/><path d="M820.4,120.9a2.1,2.1,0,0,1,1.6,1,2.4,2.4,0,0,1,.8,1.8c0,.3-.1.5-.4.5l-.8-.2a1.8,1.8,0,0,0-1-.2l-1.5.3c-.7.3-1,.6-1,.9s.2.4.6.7a5.7,5.7,0,0,0,1.3.8,5.3,5.3,0,0,1,1.3,1.3,3.4,3.4,0,0,1,.5,1.7c0,.6-.4,1.2-1.3,1.8a5.4,5.4,0,0,1-3.1.9,5.3,5.3,0,0,1-3.1-.8c-.8-.5-1.3-1.1-1.3-1.7a.7.7,0,0,1,.8-.8l.6.2a6.1,6.1,0,0,0,2.8.6c1.1,0,1.6-.1,1.6-.4s-.2-.6-.6-1l-1.4-1a6.9,6.9,0,0,1-1.3-1.1,1.9,1.9,0,0,1-.7-1.3c0-.8.7-1.7,2.2-2.6A7.3,7.3,0,0,1,820.4,120.9Z"/><path d="M831.4,121.4a.7.7,0,0,1,.7-.5q.4,0,1.2.9a3.3,3.3,0,0,1,.7,1.5c0,.2-.4,1.3-1,3.3l-1.6,4.7a1.1,1.1,0,0,1-1.8.6,1.3,1.3,0,0,1-.3-1,8.1,8.1,0,0,1,.3-1.9c-1.5,2.1-2.7,3.2-3.6,3.2a2.6,2.6,0,0,1-1.7-.9,2.4,2.4,0,0,1-1-1.8,16.6,16.6,0,0,1,1.2-5.4c.8-2.1,1.5-3.2,2.3-3.2a1.6,1.6,0,0,1,1.1.5,2.1,2.1,0,0,1,.5,1.3,5.3,5.3,0,0,1-.6,1.5,14.4,14.4,0,0,0-1.6,5.1h.1c.2,0,.6-.3,1.2-1a24.5,24.5,0,0,0,2.1-3A28.7,28.7,0,0,0,831.4,121.4Z"/><path d="M616.8,153.3a5.8,5.8,0,0,1-3,.9l-2.5-.2a5.2,5.2,0,0,0-.2,1.1,2,2,0,0,0,.2.9c.1.2.5.2,1,.2a11.4,11.4,0,0,0,2.8-.3l1.2-.3q.9,0,.9.6c0,.6-.4,1.1-1.4,1.7a6.7,6.7,0,0,1-3.3.7,4,4,0,0,1-2.9-1.1,3.8,3.8,0,0,1-1.2-2.8,6,6,0,0,1,1-3.3,10,10,0,0,1,2.3-3,4.7,4.7,0,0,1,2.8-1.1,3.5,3.5,0,0,1,2.6,1.3,4.5,4.5,0,0,1,1.2,2.8C618.3,152.1,617.8,152.7,616.8,153.3Zm-1.5-2.9a1.2,1.2,0,0,0-.9-.4c-.3,0-.6.2-1,.6a4.9,4.9,0,0,0-1.3,1.5h.6c2,0,3-.4,3-1.1S615.6,150.7,615.3,150.4Z"/><path d="M616.6,162.2q.8,0,1.5-2.4c.5-1.6,1.1-3.6,1.7-6.1A26,26,0,0,1,621,149a4.2,4.2,0,0,1,.5-1.4.5.5,0,0,1,.5-.3,1.9,1.9,0,0,1,1.3.8,3.2,3.2,0,0,1,.6,1.8c0,.3-.9,3.8-2.9,10.5a5,5,0,0,1-1.9,3.1,4,4,0,0,1-2.8,1,3.7,3.7,0,0,1-2.3-.9c-.7-.7-1.1-1.2-1.1-1.7a1.9,1.9,0,0,1,.4-1.1c.2-.5.5-.7.7-.7s.6.3,1.1.9l.3.3Q616,162.2,616.6,162.2Zm5.9-18.9a1.2,1.2,0,0,1,1-.6q.4,0,1.2,1.2a4.5,4.5,0,0,1,.6,1.9.9.9,0,0,1-.3.7l-.7.3a2,2,0,0,1-1.5-.9,2.1,2.1,0,0,1-.9-1.4A1.7,1.7,0,0,1,622.5,143.3Z"/><path d="M633.3,153.3a5.8,5.8,0,0,1-3,.9l-2.6-.2a5.2,5.2,0,0,0-.2,1.1,2,2,0,0,0,.2.9c.2.2.5.2,1,.2a12.3,12.3,0,0,0,2.9-.3l1.2-.3q.9,0,.9.6c0,.6-.5,1.1-1.4,1.7a7.2,7.2,0,0,1-3.3.7,4.2,4.2,0,0,1-3-1.1,4.1,4.1,0,0,1-1.1-2.8,6.8,6.8,0,0,1,.9-3.3,8.9,8.9,0,0,1,2.4-3,4.5,4.5,0,0,1,2.8-1.1,3.5,3.5,0,0,1,2.6,1.3,5,5,0,0,1,1.1,2.8C634.7,152.1,634.3,152.7,633.3,153.3Zm-1.6-2.9a1.2,1.2,0,0,0-.8-.4,1.7,1.7,0,0,0-1.1.6,6.5,6.5,0,0,0-1.2,1.5h.6c2,0,3-.4,3-1.1Z"/><path d="M636.8,151v-2.5c0-.8.3-1.2.8-1.2a1.1,1.1,0,0,1,.8.3,2.6,2.6,0,0,1,.7,1,5.4,5.4,0,0,1,1.6-1,3.4,3.4,0,0,1,1.6-.4c1.1,0,1.6.2,1.6.7s0,.5-.1.6l-.3.3-.2.2-.3.2-.7.5a6.1,6.1,0,0,0-1.7,1.5,6.7,6.7,0,0,0-1.1,2.4c-.4,1.7-.8,2.9-1.1,3.8s-.8,1.2-1.3,1.2a1,1,0,0,1-1-.7,2.8,2.8,0,0,1-.4-1.2,6.2,6.2,0,0,1,.5-1.8,8.9,8.9,0,0,0,.6-2A10.9,10.9,0,0,0,636.8,151Z"/><path d="M643.6,155.2a6.6,6.6,0,0,1,1-3.4,8.7,8.7,0,0,1,2.5-3.2,4.7,4.7,0,0,1,3.1-1.3,2.2,2.2,0,0,1,1.6,1,3.4,3.4,0,0,1,.8,1.8c0,.4-.2.6-.5.6l-.8-.3-.9-.2a2.3,2.3,0,0,0-1.4.8,8.3,8.3,0,0,0-1.6,2,4.6,4.6,0,0,0-.7,1.8,1.2,1.2,0,0,0,.3.9h3l1.2-.4.7-.2a.5.5,0,0,1,.6.6c0,.6-.6,1.3-1.7,1.9a6.3,6.3,0,0,1-3.4,1,3.9,3.9,0,0,1-2.4-1.2A2.9,2.9,0,0,1,643.6,155.2Z"/><path d="M656.8,147.3a1.9,1.9,0,0,1,1.4.8,3.2,3.2,0,0,1,.6,1.7,12.8,12.8,0,0,1-.8,3c-.5,1.8-1,3.4-1.5,4.9a1,1,0,0,1-1,.9,1.1,1.1,0,0,1-.9-.4,1.2,1.2,0,0,1-.3-.9,12.8,12.8,0,0,1,.5-2.9c.4-1.6.7-2.9.9-4s.4-1.9.5-2.4S656.6,147.3,656.8,147.3Zm-.3-2.8a2.1,2.1,0,0,1,.5-1.2c.4-.4.7-.6,1-.6s.8.4,1.2,1.2a3.8,3.8,0,0,1,.7,1.8,1.2,1.2,0,0,1-1.1,1.1,2.5,2.5,0,0,1-1.5-.9A2.3,2.3,0,0,1,656.5,144.5Z"/><path d="M660.1,155.2a7.5,7.5,0,0,1,.9-3.4,10.2,10.2,0,0,1,2.6-3.2,4.7,4.7,0,0,1,3.1-1.3,1.9,1.9,0,0,1,1.5,1,3,3,0,0,1,.9,1.8.5.5,0,0,1-.6.6l-.7-.3-.9-.2c-.4,0-.8.2-1.4.8a8.3,8.3,0,0,0-1.6,2,3.4,3.4,0,0,0-.7,1.8,1.2,1.2,0,0,0,.3.9h3l1.2-.4.7-.2a.5.5,0,0,1,.6.6c0,.6-.6,1.3-1.7,1.9a6.6,6.6,0,0,1-3.4,1,4.3,4.3,0,0,1-2.5-1.2A3.1,3.1,0,0,1,660.1,155.2Z"/><path d="M673.3,147.3a1.9,1.9,0,0,1,1.4.8,3.2,3.2,0,0,1,.6,1.7,22.9,22.9,0,0,1-.8,3c-.5,1.8-1,3.4-1.5,4.9s-.5.9-1.1.9a.9.9,0,0,1-.8-.4,1.3,1.3,0,0,1-.4-.9,15.9,15.9,0,0,1,.6-2.9c.4-1.6.7-2.9.9-4a8.9,8.9,0,0,1,.5-2.4C672.9,147.5,673.1,147.3,673.3,147.3Zm-.3-2.8a1.6,1.6,0,0,1,.5-1.2,1.4,1.4,0,0,1,1-.6q.4,0,1.2,1.2a5.3,5.3,0,0,1,.7,1.8,1.2,1.2,0,0,1-.4.8,1.1,1.1,0,0,1-.7.3,2.5,2.5,0,0,1-1.5-.9A2.3,2.3,0,0,1,673,144.5Z"/><path d="M678.1,149.7c1.2-1.6,2.3-2.5,3.4-2.5a3.6,3.6,0,0,1,2.8,1.2,4,4,0,0,1,1.2,2.9,8.6,8.6,0,0,1-3,6.2,5.3,5.3,0,0,1-3.1,1.1,2.5,2.5,0,0,1-2.1-1.1,3.7,3.7,0,0,1-.9-2.6A9.5,9.5,0,0,1,678.1,149.7Zm3.6,4.5a5.8,5.8,0,0,0,.9-3,3,3,0,0,0-.4-1.9,5.8,5.8,0,0,0-1.9,2.3,7.1,7.1,0,0,0-.9,3.1,5.4,5.4,0,0,0,.2,1.7A5,5,0,0,0,681.7,154.2Z"/><path d="M703,147.3c.6,0,1.2.5,1.8,1.4a5.7,5.7,0,0,1,.9,2.9,4,4,0,0,1-.7,2.1,13.7,13.7,0,0,1-1.9,2.3,12,12,0,0,1-2.6,1.8,6.7,6.7,0,0,1-2.9.8h-.2c-.9,3.8-1.6,5.7-2,5.7s-.6-.2-1-.7a3.1,3.1,0,0,1-.5-1.3,16.5,16.5,0,0,1,.7-3.1,57.5,57.5,0,0,0,1.9-11.6c0-.5.2-.7.6-.7a2.4,2.4,0,0,1,1.3.6,2.1,2.1,0,0,1,1,1.6A5.6,5.6,0,0,1,703,147.3Zm-1.7,6.8a4.6,4.6,0,0,0,1.5-2.7q0-1.2-.6-1.2a3.1,3.1,0,0,0-2,1.1,9.2,9.2,0,0,0-.9,1.3,12.9,12.9,0,0,0-.9,2l-.3,1.4A7.2,7.2,0,0,0,701.3,154.1Z"/><path d="M708.5,149.7c1.1-1.6,2.2-2.5,3.4-2.5a3.8,3.8,0,0,1,2.8,1.2,4.4,4.4,0,0,1,1.1,2.9,8.6,8.6,0,0,1-3,6.2,5.3,5.3,0,0,1-3.1,1.1,2.5,2.5,0,0,1-2.1-1.1,4.2,4.2,0,0,1-.8-2.6A8.7,8.7,0,0,1,708.5,149.7Zm3.5,4.5a5.8,5.8,0,0,0,.9-3,3,3,0,0,0-.4-1.9,5.7,5.7,0,0,0-1.8,2.3,6.2,6.2,0,0,0-1,3.1,3.2,3.2,0,0,0,.3,1.7A4.4,4.4,0,0,0,712,154.2Z"/><path d="M721.4,142.1a2.9,2.9,0,0,1,.8,1.8,28.6,28.6,0,0,1-.3,3.2,23.9,23.9,0,0,1-.5,3.6c-1.2,5.3-2.1,7.9-2.6,7.9s-.7-.2-1.2-.8a2.6,2.6,0,0,1-.7-1.2l.6-2.3c.4-1.5.8-3.5,1.2-5.8a40.8,40.8,0,0,0,.6-6.8c0-.4.3-.6.7-.6S720.8,141.4,721.4,142.1Z"/><path d="M725.7,147.3a1.9,1.9,0,0,1,1.4.8,3.2,3.2,0,0,1,.6,1.7,16.4,16.4,0,0,1-.7,3l-1.6,4.9a1,1,0,0,1-1.1.9.9.9,0,0,1-.8-.4,1.1,1.1,0,0,1-.3-.8,4.5,4.5,0,0,1,.1-1.1c.1-.5.2-1.1.4-1.8l.4-1.8.3-1.4q.1-.9.3-1.5a5,5,0,0,1,.2-1.2C725.2,147.7,725.4,147.3,725.7,147.3Zm1.1-.6a.9.9,0,0,1-.6-.3,1.1,1.1,0,0,1-.2-.8,1.2,1.2,0,0,1,.2-.8l.8-.9,1-.8.6-.5.4-.4.4-.3h.6a1.2,1.2,0,0,1,.9.6,1.8,1.8,0,0,1,.5,1.1c0,.3-.1.5-.1.7l-.4.4-.5.3-.9.4-.9.5-.8.5A1.6,1.6,0,0,1,726.8,146.7Z"/><path d="M733.7,151.5c-.3.8-.5,1.7-.9,2.7l-.5,1.7h.4a5,5,0,0,0,1.7-.5l1.6-.5c.4,0,.6.3.6.8s-.5,1.1-1.5,1.8a5.2,5.2,0,0,1-3.1,1,2.7,2.7,0,0,1-1.6-.7,2.2,2.2,0,0,1-1-1.6,9.8,9.8,0,0,1,.7-2.8c.4-1.4.7-2.4.9-2.9a3.7,3.7,0,0,1-1.3.2c-.3,0-.6-.2-1-.6a1.9,1.9,0,0,1-.4-1.1c0-.5,1.1-.9,3.4-1.2a17.1,17.1,0,0,0,.4-3.6c0-.4.2-.6.7-.6a2.5,2.5,0,0,1,1.4.7,1.7,1.7,0,0,1,.9,1.3,8.1,8.1,0,0,1-.3,1.9h1.6c1.1,0,1.7.2,1.7.7s-.3.6-1,.9l-2.9.7Z"/><path d="M740.9,147.3a1.9,1.9,0,0,1,1.4.8,3.2,3.2,0,0,1,.6,1.7,22.9,22.9,0,0,1-.8,3c-.5,1.8-1,3.4-1.5,4.9s-.5.9-1.1.9a.9.9,0,0,1-.8-.4,1,1,0,0,1-.4-.9,15.9,15.9,0,0,1,.6-2.9c.4-1.6.6-2.9.8-4a13.6,13.6,0,0,1,.6-2.4C740.5,147.5,740.7,147.3,740.9,147.3Zm-.3-2.8a1.6,1.6,0,0,1,.5-1.2,1.4,1.4,0,0,1,1-.6q.4,0,1.2,1.2a4.6,4.6,0,0,1,.6,1.8,1.1,1.1,0,0,1-.3.8,1.1,1.1,0,0,1-.7.3c-.5,0-.9-.3-1.5-.9A1.9,1.9,0,0,1,740.6,144.5Z"/><path d="M744.1,155.2a6.6,6.6,0,0,1,1-3.4,9.9,9.9,0,0,1,2.5-3.2,4.9,4.9,0,0,1,3.1-1.3,2.1,2.1,0,0,1,1.6,1,3.4,3.4,0,0,1,.8,1.8c0,.4-.2.6-.5.6l-.7-.3-1-.2a2.3,2.3,0,0,0-1.4.8,8,8,0,0,0-1.5,2,3.4,3.4,0,0,0-.7,1.8,2,2,0,0,0,.2.9h3l1.2-.4.7-.2a.5.5,0,0,1,.6.6c0,.6-.5,1.3-1.7,1.9a6,6,0,0,1-3.3,1,3.9,3.9,0,0,1-2.5-1.2A3.3,3.3,0,0,1,744.1,155.2Z"/><path d="M756.5,149.7c1.1-1.6,2.2-2.5,3.4-2.5a3.8,3.8,0,0,1,2.8,1.2,4.4,4.4,0,0,1,1.1,2.9,8,8,0,0,1-.8,3.3,7,7,0,0,1-2.2,2.9,5.3,5.3,0,0,1-3.1,1.1,2.2,2.2,0,0,1-2-1.1,3.7,3.7,0,0,1-.9-2.6A8.7,8.7,0,0,1,756.5,149.7Zm3.6,4.5a6.7,6.7,0,0,0,.8-3,3,3,0,0,0-.4-1.9,5.7,5.7,0,0,0-1.8,2.3,6.2,6.2,0,0,0-1,3.1,3.2,3.2,0,0,0,.3,1.7A5,5,0,0,0,760.1,154.2Z"/><path d="M781.8,153.3a5.8,5.8,0,0,1-3,.9l-2.6-.2a5.2,5.2,0,0,0-.2,1.1,2,2,0,0,0,.2.9c.2.2.5.2,1,.2a12.3,12.3,0,0,0,2.9-.3l1.2-.3q.9,0,.9.6c0,.6-.5,1.1-1.4,1.7a7.2,7.2,0,0,1-3.3.7,4.2,4.2,0,0,1-3-1.1,4.1,4.1,0,0,1-1.1-2.8,6.8,6.8,0,0,1,.9-3.3,8.9,8.9,0,0,1,2.4-3,4.5,4.5,0,0,1,2.8-1.1,3.5,3.5,0,0,1,2.6,1.3,5,5,0,0,1,1.1,2.8C783.2,152.1,782.8,152.7,781.8,153.3Zm-1.6-2.9a1.2,1.2,0,0,0-.8-.4,1.7,1.7,0,0,0-1.1.6,6.5,6.5,0,0,0-1.2,1.5h.6c2,0,3-.4,3-1.1Z"/><path d="M792.2,147.3a2.5,2.5,0,0,1,2,1,3.3,3.3,0,0,1,.9,2.2,14.3,14.3,0,0,1-.6,3.9,16,16,0,0,1-1.3,3.1c-.5.8-1,1.1-1.5,1.1s-.7-.3-.7-1a13.1,13.1,0,0,1,.7-3.2,11.6,11.6,0,0,0,.6-2.8q0-.9-.3-.9c-.2,0-.3.1-.5.3l-.5.5-.4.6-.4.6-.4.7-.4.7-.4.7c-1.4,2.5-2.4,3.8-3.2,3.8s-.7-.2-1.2-.8a2.6,2.6,0,0,1-.7-1.2,4.3,4.3,0,0,1,.3-1,5.1,5.1,0,0,0,.5-1.2,2.9,2.9,0,0,0,.2-.9,4.3,4.3,0,0,0,.2-1.1,3.4,3.4,0,0,0,.1-.9c0-.2.1-.5.1-.9a18.4,18.4,0,0,1,.3-3.2q.1-.3.3-.3a2.5,2.5,0,0,1,1.7.7,1.7,1.7,0,0,1,.7,1.3,14.6,14.6,0,0,1-.7,3.9,37.7,37.7,0,0,1,2.6-4.1C791,147.8,791.7,147.3,792.2,147.3Z"/><path d="M809.2,142.1a2.6,2.6,0,0,1,.9,1.8,28.6,28.6,0,0,1-.3,3.2c-.2,1.5-.3,2.7-.5,3.6-1.3,5.3-2.1,7.9-2.6,7.9s-.7-.2-1.2-.8a1.9,1.9,0,0,1-.7-1.2l.6-2.3c.4-1.5.8-3.5,1.2-5.8a40.8,40.8,0,0,0,.6-6.8c0-.4.2-.6.7-.6S808.7,141.4,809.2,142.1Z"/><path d="M820,152.4c.2.2.4.4.4.6a4.9,4.9,0,0,1-.3,1.2,5,5,0,0,0-.3,1.4c-.1.3-.1.6-.2.8s0,.3-.1.4v.4a.8.8,0,0,0-.1.4c0,.1-.1.2-.1.4v.2l-.2.2c-.1.2-.2.2-.4.2s-.5-.2-.8-.6a5.2,5.2,0,0,1-.7-1.5c-1.3,1.4-2.5,2.1-3.4,2.1a3.7,3.7,0,0,1-3.2-3.1,6.9,6.9,0,0,1,1-3,14.5,14.5,0,0,1,2.5-3.6,4.7,4.7,0,0,1,3.3-1.6,3.3,3.3,0,0,1,2.1,1c.8.8,1.2,1.4,1.2,2A4.8,4.8,0,0,1,820,152.4Zm-6.4,3.4a3.9,3.9,0,0,0,2.3-1.1,5,5,0,0,0,1.8-3.1.4.4,0,0,1,.4-.3c0-.8-.2-1.2-.4-1.2a2.7,2.7,0,0,0-2,1.1,18.8,18.8,0,0,0-1.8,2.4,6.8,6.8,0,0,0-.7,2v.2Z"/><path d="M671.1,173.7a2.1,2.1,0,0,1,1.6,1,2.9,2.9,0,0,1,.8,1.8c0,.3-.1.5-.4.5l-.8-.2a2,2,0,0,0-1-.2l-1.6.3c-.6.3-1,.6-1,1s.2.3.6.6l1.3.8a4,4,0,0,1,1.3,1.3,2.7,2.7,0,0,1,.6,1.7c0,.6-.4,1.2-1.3,1.8a5.4,5.4,0,0,1-3.1.9,5.3,5.3,0,0,1-3.1-.8c-.8-.5-1.3-1.1-1.3-1.7a.7.7,0,0,1,.7-.8l.7.2a5.8,5.8,0,0,0,2.8.6c1,0,1.6-.1,1.6-.4s-.2-.6-.6-1l-1.4-1-1.4-1.1a2.2,2.2,0,0,1-.6-1.3c0-.8.7-1.7,2.2-2.6A7,7,0,0,1,671.1,173.7Z"/><path d="M675.9,176.1c1.1-1.6,2.3-2.5,3.4-2.5a3.8,3.8,0,0,1,2.8,1.2,3.9,3.9,0,0,1,1.1,2.9,7.8,7.8,0,0,1-.7,3.3,8.2,8.2,0,0,1-2.3,2.9,4.8,4.8,0,0,1-3,1.1,2.5,2.5,0,0,1-2.1-1.1,3.7,3.7,0,0,1-.9-2.6A9.5,9.5,0,0,1,675.9,176.1Zm3.6,4.5a5.8,5.8,0,0,0,.9-3,3.8,3.8,0,0,0-.4-1.9,5.1,5.1,0,0,0-1.9,2.3,7.4,7.4,0,0,0-1,3.1,3.2,3.2,0,0,0,.3,1.7A5,5,0,0,0,679.5,180.6Z"/><path d="M684.3,181.6a7.7,7.7,0,0,1,1-3.4,10.2,10.2,0,0,1,2.6-3.2,4.4,4.4,0,0,1,3-1.3,1.9,1.9,0,0,1,1.6,1,2.8,2.8,0,0,1,.8,1.8c0,.4-.1.6-.5.6l-.7-.3-1-.2c-.3,0-.7.2-1.3.8a6.4,6.4,0,0,0-1.6,2,3.4,3.4,0,0,0-.7,1.8,2,2,0,0,0,.2.9,3.1,3.1,0,0,0,1.3.2l1.8-.2,1.1-.4.7-.2c.4,0,.7.2.7.6s-.6,1.3-1.7,1.9a6.6,6.6,0,0,1-3.4,1,4.1,4.1,0,0,1-2.5-1.2A3.3,3.3,0,0,1,684.3,181.6Z"/><path d="M697.6,173.7a1.9,1.9,0,0,1,1.4.8,3.2,3.2,0,0,1,.6,1.7,22.9,22.9,0,0,1-.8,3c-.5,1.8-1,3.4-1.5,4.9s-.5.9-1.1.9a.9.9,0,0,1-.8-.4,1,1,0,0,1-.4-.9,15.9,15.9,0,0,1,.6-2.9c.3-1.6.6-2.9.8-4a13.6,13.6,0,0,1,.6-2.4C697.1,173.9,697.4,173.7,697.6,173.7Zm-.3-2.8a1.6,1.6,0,0,1,.5-1.2,1.4,1.4,0,0,1,1-.6q.5,0,1.2,1.2a4.6,4.6,0,0,1,.6,1.8,1.1,1.1,0,0,1-.3.8,1.1,1.1,0,0,1-.7.3,2,2,0,0,1-1.5-.9A1.9,1.9,0,0,1,697.3,170.9Z"/><path d="M709.2,179.7a5.8,5.8,0,0,1-3,.9l-2.5-.2a2.3,2.3,0,0,0-.2,1.1c0,.4,0,.7.2.9s.4.2,1,.2a11.4,11.4,0,0,0,2.8-.3l1.2-.3q.9,0,.9.6c0,.6-.5,1.1-1.4,1.7a6.7,6.7,0,0,1-3.3.7,4.4,4.4,0,0,1-3-1.1,4.1,4.1,0,0,1-1.1-2.8,6,6,0,0,1,1-3.3,10,10,0,0,1,2.3-3,4.7,4.7,0,0,1,2.8-1.1,3.5,3.5,0,0,1,2.6,1.3,4.5,4.5,0,0,1,1.2,2.8C710.7,178.5,710.2,179.1,709.2,179.7Zm-1.5-2.9a1.2,1.2,0,0,0-.9-.4c-.3,0-.6.2-1.1.6a6.5,6.5,0,0,0-1.2,1.5h.6c2,0,3-.4,3-1.1S708,177.1,707.7,176.8Z"/><path d="M720.9,167.5c.4,0,.9.3,1.4,1a2.6,2.6,0,0,1,.9,1.8c0,.2-.3,1.4-.8,3.4l-.9,3.7c-1.2,5.1-2,7.6-2.6,7.6a1.9,1.9,0,0,1-1-.5,1.7,1.7,0,0,1-.6-1.1v-.2c-1.4,1.2-2.5,1.8-3.1,1.8a2.4,2.4,0,0,1-1.9-1,3,3,0,0,1-.9-1.9,6.7,6.7,0,0,1,.3-1.8,11.1,11.1,0,0,1,.7-2.2,13.9,13.9,0,0,1,1.1-2.1,6.1,6.1,0,0,1,1.5-1.7,3.3,3.3,0,0,1,1.9-.6,2.6,2.6,0,0,1,2.3,1.4,36.7,36.7,0,0,0,1.1-6.9C720.3,167.7,720.5,167.5,720.9,167.5Zm-6.4,14.7a4.6,4.6,0,0,0,1.8-.9,5.9,5.9,0,0,0,2-2.4,5.4,5.4,0,0,1-.1-.8,1.5,1.5,0,0,0-.4-1.1.8.8,0,0,0-.7-.5,1.5,1.5,0,0,0-1.2.7,4.4,4.4,0,0,0-1,1.6,9.8,9.8,0,0,0-.7,3.1v.3Z"/><path d="M732.8,178.8c.2.2.4.4.4.6a4.9,4.9,0,0,1-.3,1.2l-.4,1.4c0,.3-.1.6-.1.8s-.1.3-.1.4a.6.6,0,0,1-.1.4v.4c-.1.1-.1.2-.1.4l-.2.2c0,.1,0,.2-.1.2s-.2.2-.4.2-.5-.2-.8-.6a5.2,5.2,0,0,1-.7-1.5c-1.4,1.4-2.5,2.1-3.5,2.1a2.9,2.9,0,0,1-2-1,3.1,3.1,0,0,1-1.1-2.1,7.9,7.9,0,0,1,.9-3,15,15,0,0,1,2.6-3.6,4.7,4.7,0,0,1,3.3-1.6,3.3,3.3,0,0,1,2.1,1c.8.8,1.2,1.4,1.2,2A4.8,4.8,0,0,1,732.8,178.8Zm-6.4,3.5a4.5,4.5,0,0,0,2.3-1.2,5,5,0,0,0,1.8-3.1.4.4,0,0,1,.4-.3c-.1-.8-.2-1.2-.4-1.2a2.7,2.7,0,0,0-2,1.1,18.8,18.8,0,0,0-1.8,2.4,6.8,6.8,0,0,0-.7,2c0,.1,0,.2.1.2Z"/><path d="M744,167.5c.4,0,.8.3,1.4,1a2.6,2.6,0,0,1,.9,1.8c0,.2-.3,1.4-.8,3.4l-.9,3.7c-1.2,5.1-2.1,7.6-2.6,7.6a1.6,1.6,0,0,1-1-.5,1.7,1.7,0,0,1-.6-1.1v-.2c-1.4,1.2-2.5,1.8-3.1,1.8a2.4,2.4,0,0,1-1.9-1,3,3,0,0,1-.9-1.9,6.7,6.7,0,0,1,.3-1.8,7,7,0,0,1,.7-2.2,13.9,13.9,0,0,1,1.1-2.1,6.1,6.1,0,0,1,1.5-1.7,3.2,3.2,0,0,1,1.8-.6,2.5,2.5,0,0,1,2.3,1.4,40.3,40.3,0,0,0,1.2-6.9C743.4,167.7,743.6,167.5,744,167.5Zm-6.5,14.7a4.3,4.3,0,0,0,1.9-.9,5,5,0,0,0,1.9-2.4v-.8a1.5,1.5,0,0,0-.4-1.1.8.8,0,0,0-.7-.5,1.7,1.7,0,0,0-1.3.7,4.2,4.2,0,0,0-.9,1.6,10.7,10.7,0,0,0-.8,3.1c0,.2,0,.2.1.3Z"/><path d="M749.1,185.4a2.4,2.4,0,0,1-1.6-.9,2.3,2.3,0,0,1-.8-1.4,1.7,1.7,0,0,1,.5-1.3,1.7,1.7,0,0,1,1.1-.6c.4,0,.8.4,1.3,1.2a3.7,3.7,0,0,1,.7,1.9c0,.2-.1.4-.4.7A1,1,0,0,1,749.1,185.4Z"/></g><g id="Layer_4" data-name="Layer 4"><rect class="cls-14" x="25" y="23" width="543" height="506.56" rx="7.1"/><rect class="cls-15" x="11.1" y="519.9" width="564" height="18.16"/></g></svg>