<svg xmlns="http://www.w3.org/2000/svg" xmlns:xlink="http://www.w3.org/1999/xlink" viewBox="0 0 559 1060"><defs><style>.cls-1{fill:#79bab9;opacity:0.42;}.cls-2{fill:gray;opacity:0.35;}.cls-3{fill:#0b476f;stroke:#2c3235;}.Graphic-Style-9,.cls-3,.cls-7,.cls-9{stroke-miterlimit:10;}.cls-4{fill:#333;}.cls-5{fill:#736357;}.cls-6{fill:#3a3432;}.cls-7{fill:#006837;stroke:#084728;}.cls-8{fill:#084728;}.cls-9{stroke:#333;stroke-width:2.19px;fill:url(#linear-gradient);}.cls-10{opacity:0.54;}.cls-11{opacity:0.11;}.cls-12{fill:#fff;}.Graphic-Style-2{fill:#1a1a1a;}.Graphic-Style-9{fill:#ecf8fe;stroke:#52474c;stroke-width:3.15px;}.cls-13{opacity:0.19;}.cls-14{fill:#262626;}.cls-15{fill:#614415;}</style><linearGradient id="linear-gradient" x1="3142.36" y1="-2312.57" x2="3157.07" y2="-2312.57" gradientTransform="translate(3364.9 -2098.9) rotate(176.8)" gradientUnits="userSpaceOnUse"><stop offset="0"/><stop offset="0.5" stop-color="#010101"/><stop offset="0.5" stop-color="#171717"/><stop offset="1" stop-color="#1a1a1a"/></linearGradient></defs><title>act1_bg_mobile</title><g id="Layer_16" data-name="Layer 16"><path class="cls-1" d="M295.6,103.1c-13.4-11.5-27.2-23.1-42-25.4s-30.8,6.3-39.4,28.6c-11,28.5-6.8,69.8-17,99.3s-29.3,37.3-46.6,47.5C95.2,285.9,44.9,357.8,22.2,456.7c-1.5,6.7-2.9,14.6-.9,20.8a14.9,14.9,0,0,0,5.9,8C57.3,507.7,87.5,453,119.6,445c33.6-8.3,65.1,35.7,99,37.5s66.5-40.9,101.3-48,67.6,21.5,99.1,48c14.4,12.2,29.5,24.3,45.3,23.8,18.7-.6,36-19,50.1-41.7,16.8-27.2,31-70.1,22.2-108-12.6-54.3-58.1-48.2-79.2-92.7-2.4-5-4.5-11.1-4.1-17.7s2.2-10.1,4.2-14.2c19.4-39.4,52.4-53.9,66.5-100.3,1.9-6.1,3.4-13,2.8-19.8-1-11.4-7.2-18.3-12.9-22.8-77.2-59.9-138.6,61.2-218.2,13.6"/><ellipse class="cls-2" cx="349.8" cy="493.7" rx="34.6" ry="9.6"/><path d="M335.9,494.8a3.2,3.2,0,0,0,.2,1.4,1.8,1.8,0,0,0,2.6.7,5.1,5.1,0,0,0,2.3-1.6,33.6,33.6,0,0,0,6.6-11c-.2.5-4.7-.9-5.2-.9-2.1-.7-2.3-1.6-3.9-.5S335.9,492,335.9,494.8Z"/><path d="M335.9,494.8c0,1,.2,1.9.9,2.1a2.1,2.1,0,0,0,2.4-.2,7.4,7.4,0,0,0,1.6-1.9l1.4-2.1a39.4,39.4,0,0,0,4.2-8.8l2.1.7c0,.2-.2.4-.4.7l-.5.2H346l-1.4-.2a16.6,16.6,0,0,1-2.9-1,23.4,23.4,0,0,0-2.1-1.1l-.9.4-.7.7a20.8,20.8,0,0,0-1.9,4.9C336.1,491.3,335.9,493.2,335.9,494.8Zm0,0a53.3,53.3,0,0,1,.2-5.6c.3-1.8.3-3.7,1.2-5.6a8,8,0,0,1,.9-1.4c.5-.2.7-.7,1.4-.9s1.4.2,1.9.2l1.2.5,2.6.7,1.1.2h.5c-.2,0-.2.3-.5.5l2.1.7a25.3,25.3,0,0,1-5.6,8.9,23.3,23.3,0,0,1-4,3.5,2.8,2.8,0,0,1-2.5,0C336.1,496.7,335.9,495.8,335.9,494.8Z"/><path d="M357.6,493c1.9.9,4.2,1.4,5.6,0s.7-1.9.7-3.1-1.6-5.1-2.8-7.4a.5.5,0,0,0-.4-.5h-.5c-2.1.5-7.9,1.4-8.6,4S355.5,491.8,357.6,493Z"/><path d="M357.6,493a5.1,5.1,0,0,0,4.5.4c1.4-.7,1.6-2.3,1.1-3.7a10.9,10.9,0,0,0-1.8-4.2c-.5-.7-.7-1.4-1.2-2.1s-.7-.9-.2-.5.4,0,.2,0l-.7.3c-1.6.2-3,.7-4.4.9s-3.1.9-3.3,2.1.9,2.8,1.9,3.7A24.2,24.2,0,0,0,357.6,493Zm0,0a22.1,22.1,0,0,1-3.9-2.6,13.5,13.5,0,0,1-1.9-1.6,4.1,4.1,0,0,1-.9-2.6,3.6,3.6,0,0,1,1.4-2.6l2.3-1.4c1.6-.7,3.3-.9,4.7-1.4l.4-.2a1.9,1.9,0,0,1,1.4.2,4.7,4.7,0,0,1,1,1l.2.4a6.4,6.4,0,0,1,.9,2.1,13,13,0,0,1,1.2,4.9,4.7,4.7,0,0,1-.5,2.6,2.1,2.1,0,0,1-1.8,1.6A5.1,5.1,0,0,1,357.6,493Z"/><path class="cls-3" d="M334.3,483.6a55,55,0,0,0,28.2.3c1.2-12.9,2.1-25.5,3.3-38.3.7-8.7,1.4-17.1.2-25.7-6.7,1.1-13.5,2.3-20.5,3-4,.5-11.9-.5-14,4s.9,9.8,1.4,13.3a203.4,203.4,0,0,1,1.8,20.8C335,462.8,334,483.6,334.3,483.6Z"/><path class="cls-3" d="M334.3,483.6a55.6,55.6,0,0,0,14,1.9,46.9,46.9,0,0,0,14-1.9l-.2.3,2.1-32c.2-5.4.7-10.8.9-15.9a91,91,0,0,0-.5-15.7l1.4,1-11.4,1.6-5.8.9-2.8.5a16.2,16.2,0,0,1-3.1.2,35.1,35.1,0,0,0-5.6.3,6.7,6.7,0,0,0-4.7,2.1c-.9,1.1-.9,3.3-.9,5.1s.7,3.8.9,5.6.7,4,1,5.9a54.6,54.6,0,0,1,.4,5.8c.3,4,.5,7.7.5,11.7C335,468.2,334.3,475.9,334.3,483.6Zm0,0c0-7.7.4-15.4.4-23.1-.2-4-.4-7.7-.9-11.4-.2-1.9-.5-3.8-.7-5.9a23.4,23.4,0,0,0-1.2-5.6,46,46,0,0,1-1.1-5.8c-.3-1.9-.5-4.2.9-6.1a7.8,7.8,0,0,1,5.6-2.8,24,24,0,0,1,5.8-.5,14.2,14.2,0,0,0,2.9-.2l2.8-.5,5.6-.9,11.4-1.9,1.2-.2.2,1.2c1.4,10.7,0,21.5-1.2,32.2l-3.2,31.8v.2h-.3a55.7,55.7,0,0,1-14.2,1.6A47,47,0,0,1,334.3,483.6Z"/><path class="cls-4" d="M343.6,436.2a30.7,30.7,0,0,0,7.7,1,52.4,52.4,0,0,0,7.7-.7c-1.8,2.1-4.9,3-7.7,3A10.3,10.3,0,0,1,343.6,436.2Z"/><path class="cls-5" d="M372.8,415a11.3,11.3,0,0,1-.7,1.8,20.4,20.4,0,0,1-1.4,2.6,4.2,4.2,0,0,1-2.3,1.6c.2-3.7,1.8-7.2,2.1-10.9v-.3h.2c1.2,0,2.6,0,2.8,1.2S373,414,372.8,415Z"/><path class="cls-6" d="M372.8,415c-.5,1.1-.9,2.5-1.4,3.7a6,6,0,0,1-3,3.3l-1,.2V421a16.7,16.7,0,0,1,.5-4.9c.5-1.6.9-3,1.2-4.4s.2-.7.2-1.2,0-.2.2-.7.7-.7,1-.7h.4a8.6,8.6,0,0,1,2.6,1,1.6,1.6,0,0,1,.5,1.4c0,.4-.3.7-.3,1.1A7.5,7.5,0,0,0,372.8,415Zm0,0a10.3,10.3,0,0,0,.5-2.4c0-.7.2-1.6-.5-2.1a3.7,3.7,0,0,0-2.1,0h-.2l.4-.2v1.6c-.2,3.5-1.4,6.3-2.1,9.4l-.9-.7c1.2,0,2.1-1,3-1.9S372.3,416.1,372.8,415Z"/><path class="cls-7" d="M346.4,362.2c4.5.2,5.9-5.1,7-8.4,8.9,6.3,14.5,16.1,18.5,25.7s5.6,19.6,2.1,30.6l-4.7-1.4c.5,5.8-1.9,11.2-1.2,16.8a50.9,50.9,0,0,1-10.7,1.8c-8.4.7-18,1-26.6-.7a147.1,147.1,0,0,0-4.2-25.9c-4.5.7-9.4,1.4-13.6.3s-3.7-4.2-3.7-6.8,1.4-4,2.1-5.1c5.8-8.4,9.8-15.5,15.9-24.6,1.6-2.5,7.9-9.5,12.1-8.6S342,362.2,346.4,362.2Z"/><path class="cls-7" d="M346.4,362.2a3.9,3.9,0,0,0,2.8-.9,9.5,9.5,0,0,0,1.9-2.1,43.8,43.8,0,0,0,2.3-5.4h0a41.2,41.2,0,0,1,11,11.4,105.7,105.7,0,0,1,7.7,14,59.7,59.7,0,0,1,4.4,15.5c.7,5.3-.2,10.7-1.6,15.8l-.2.7-.7-.2-4.7-1.4,1.2-.9c.4,5.8-1.9,11.4-1,16.8l.3.9-1,.2c-3,.7-6,1.7-9.3,1.9l-9.3.7a81,81,0,0,1-19-1.2l-.7-.2v-.7a159.5,159.5,0,0,0-3.9-25.7l.9.7a45.6,45.6,0,0,1-10.5.7,10.1,10.1,0,0,1-2.6-.4,7.2,7.2,0,0,1-2.5-1.2,7.6,7.6,0,0,1-2.4-4.9,8.9,8.9,0,0,1,.3-2.8,18.3,18.3,0,0,1,1.1-2.6l2.8-4.2,5.9-8.4,5.6-8.6a49.4,49.4,0,0,1,6-8.2,31.9,31.9,0,0,1,4-3.3,9.1,9.1,0,0,1,4.7-1.8,2.9,2.9,0,0,1,2.3.9,4.1,4.1,0,0,1,1.4,2.1,6.4,6.4,0,0,0,1.2,2.3C344.8,362,345.5,362.2,346.4,362.2Zm0,0a2.9,2.9,0,0,1-2.3-.9,6,6,0,0,1-1.2-2.4,4.1,4.1,0,0,0-1.4-2.1,4.5,4.5,0,0,0-2.3-.7c-1.7,0-3.3,1-4.7,1.9a19.4,19.4,0,0,0-3.7,3.3c-2.4,2.3-4.2,5.3-6.1,8.1s-3.7,5.9-5.4,8.7-3.5,5.8-5.3,8.6l-2.8,4.2a7.5,7.5,0,0,0-1,2.4,4.5,4.5,0,0,0,0,2.3c.3,1.6.7,3.3,1.9,4a12.9,12.9,0,0,0,4.4,1.1,43,43,0,0,0,10.1-.7l.7-.2.2.7a143.1,143.1,0,0,1,4.4,25.9l-.9-.9a88.3,88.3,0,0,0,18.5.9c3,0,6.3-.2,9.3-.5a57.9,57.9,0,0,0,9.1-1.6l-.7,1.2a25.1,25.1,0,0,1,.5-8.7,60.8,60.8,0,0,0,.9-8.1v-1.2l1.2.5,4.6,1.4-.9.4a37.9,37.9,0,0,0,2.1-15.4,52.6,52.6,0,0,0-4-15.2,77.2,77.2,0,0,0-7.2-14,44.8,44.8,0,0,0-10.7-11.4h0a32.8,32.8,0,0,1-2.4,5.4,5.3,5.3,0,0,1-1.8,2.1A4.2,4.2,0,0,1,346.4,362.2Z"/><path class="cls-8" d="M359,362.7a60.2,60.2,0,0,1,8.4,21,66.1,66.1,0,0,1,.7,22.6,162.8,162.8,0,0,0-2.8-22.1A169.6,169.6,0,0,0,359,362.7Z"/><path class="cls-9" d="M345.9,375.3l9.4.2a1.8,1.8,0,0,1,1.9,1.9L357,398a1.8,1.8,0,0,1-1.9,1.9l-9.4-.2a1.8,1.8,0,0,1-1.9-1.9l.2-20.6A1.8,1.8,0,0,1,345.9,375.3Z"/><path class="cls-4" d="M350.9,486a116.8,116.8,0,0,1-2.1-24.3,139.8,139.8,0,0,1,1.8-24.3c.5,8.2.3,16.1.5,24.3S351.1,477.8,350.9,486Z"/><path class="cls-5" d="M339.6,388.1c-.9,1.9.3,4.7,2.4,7,5.6-2.5,9.8-5.3,9.3-7S341.5,384.4,339.6,388.1Z"/><path class="cls-6" d="M339.6,388.1a4.7,4.7,0,0,0,.5,3.8,10.9,10.9,0,0,0,2.3,3l-.7-.2c1.9-1.2,3.6-2.1,5.2-3.3a10.6,10.6,0,0,0,2.3-1.9,1.8,1.8,0,0,0,.7-.9l.3-.2a5.1,5.1,0,0,0-2.1-1.4,6.4,6.4,0,0,0-3.1-.7,15.1,15.1,0,0,0-3,.2A2.9,2.9,0,0,0,339.6,388.1Zm0,0a3.6,3.6,0,0,1,2.4-1.8,10.9,10.9,0,0,1,3-.7,12.2,12.2,0,0,1,3.3,0,6.5,6.5,0,0,1,3.5,1.4,3.4,3.4,0,0,1,.5,1.4,8.1,8.1,0,0,1-.3,1.1,3.4,3.4,0,0,1-1.1,1.4,10.7,10.7,0,0,1-2.8,1.9,17.4,17.4,0,0,1-6.1,2.3l-.5.3-.2-.3a23.7,23.7,0,0,1-1.9-3.5A10.7,10.7,0,0,1,339.6,388.1Z"/><path class="cls-8" d="M333.3,370.6a84.6,84.6,0,0,0-12.8,22.7l-.5-.5a54.9,54.9,0,0,0,19.2-4.9l.7-.5.2,1,1.6,5.8a7.8,7.8,0,0,1,.5,1.4,2,2,0,0,1-.5,2.1,1.8,1.8,0,0,1-1.6.9l-1.4.5c-4,1.6-7.9,2.1-11.9,2.8l-.2-2.3a50.9,50.9,0,0,0,11.6-2.4l1.4-.4c.5-.3,1-.3,1-.5s0-1.2-.3-2.1l-1.6-5.8.9.4a58.8,58.8,0,0,1-19.8,4.5h-.7l.2-.7C323.1,384.9,327.5,377.1,333.3,370.6Z"/><path class="cls-5" d="M300.4,284.2c.7,5.6,1.7,11.2,2.4,16.8s1.1,8.4,2.1,12.6a30.4,30.4,0,0,0,3.5,9.4,44.7,44.7,0,0,0,8.1,9.3,50.4,50.4,0,0,0,7.7,6.1,34.7,34.7,0,0,0,6.3,2.8,16.4,16.4,0,0,0,3.5.9c1,.3,2.8,0,3.8.5s1.6,5.1,2.1,6.8a48.9,48.9,0,0,1,.9,7.9,3.4,3.4,0,0,0,.2,1.4,6.3,6.3,0,0,0,1,1.2,5.8,5.8,0,0,0,6.1.7,9.2,9.2,0,0,0,4.4-4.5c0-.2.2-.4.2-.7a2.5,2.5,0,0,0-.4-1.1,28.4,28.4,0,0,1-3.3-9.8c-.5-3.8,1.4-3.8,4.4-5.2a24,24,0,0,0,3.8-2.3,19.7,19.7,0,0,0,4.9-6.1,69.2,69.2,0,0,0,10.5-41.1,48.6,48.6,0,0,0-6.6.3,59.5,59.5,0,0,1-3.5-21.5c0-1,0-2.1-.9-2.6a6.9,6.9,0,0,1-6.8,0,7.5,7.5,0,0,1-3.9-5.6,12.7,12.7,0,0,1-2.6,3.3,5.4,5.4,0,0,1-4,1.1c-1.9-.4-3-2.3-4-3.9a73.9,73.9,0,0,1-3.5-7.7l-1.8.2a49.4,49.4,0,0,1-5.2,9.6c-.7.9-1.6,2.1-2.8,2.3s-3.2-.9-4.4-2.1a14.2,14.2,0,0,1-1.4,7c-1.2,2.1-3.3,4-5.6,4s-4.7-1.2-6.8-2.6A18.1,18.1,0,0,1,300.4,284.2Z"/><path class="cls-6" d="M300.4,284.2l3.5,22.7a78.7,78.7,0,0,0,2.6,10.9,28.7,28.7,0,0,0,5.8,9.6c5.4,5.4,11,10.8,18.2,12.9l2.8.7a5.9,5.9,0,0,0,2.6.2,5,5,0,0,1,1.6.2,2.4,2.4,0,0,1,1,.5l.7.7a6.9,6.9,0,0,1,.9,3,38.3,38.3,0,0,1,.9,5.6l.7,5.9a2.3,2.3,0,0,0,.7,1.8,3.7,3.7,0,0,0,2.2,1,5.6,5.6,0,0,0,4.6-1.2,7.7,7.7,0,0,0,1.7-1.9c.4-.7.9-1.8.7-1.6s-.5-.7-.7-1.2l-.7-1.4c-.5-.9-.7-1.8-1.2-2.8a21.4,21.4,0,0,1-1.4-5.8,5.3,5.3,0,0,1,.7-3.5,6.6,6.6,0,0,1,2.8-1.9,18.9,18.9,0,0,0,4.7-2.8,27.5,27.5,0,0,0,3.7-3.9,69.1,69.1,0,0,0,11.7-42.5l1.1.9h-7.2l-.2-.7a72.7,72.7,0,0,1-3.1-12.2c-.2-2.1-.4-4.2-.4-6.3v-3c0-.9,0-1.9-.3-1.9h1a7.6,7.6,0,0,1-7.7,0,8.2,8.2,0,0,1-4.5-6.3l1.7.5c-1,1.6-2.1,3.5-4.2,4.4a5.3,5.3,0,0,1-3.3.5,4.2,4.2,0,0,1-2.8-1.9c-1.4-1.6-2.1-3.5-3.1-5.1s-1.6-3.5-2.1-5.4l.7.5-1.8.2.7-.4a38.4,38.4,0,0,1-4.9,8.8,15.7,15.7,0,0,1-1.7,2.1,4.4,4.4,0,0,1-2.5,1.4c-2.1.3-3.5-1.1-4.9-2.3l.9-.5a21,21,0,0,1-.7,5.6,8.2,8.2,0,0,1-3.3,4.7,6.6,6.6,0,0,1-5.3,1.2,17.5,17.5,0,0,1-4.9-2.6l.4-.2A17.1,17.1,0,0,1,300.4,284.2Zm0,0a16.7,16.7,0,0,0,7.7-12.8v-.5l.5.2a16.1,16.1,0,0,0,4.7,2.4,5.6,5.6,0,0,0,4.9-1.2,7.7,7.7,0,0,0,2.8-4.2,12.6,12.6,0,0,0,.4-5.1v-1.2l1,.9c1.1,1.2,2.5,2.1,3.9,1.9s2.4-1.6,3.3-3a37.5,37.5,0,0,0,4.4-8.7l.3-.4h.4l1.9-.3h.5l.2.5a34.2,34.2,0,0,0,2.3,5.1c1,1.7,1.7,3.5,2.8,4.7a3.5,3.5,0,0,0,4.3.9c1.4-.7,2.5-2.3,3.5-3.9l1.4-2.4.2,2.6a6.2,6.2,0,0,0,3.5,4.9,6.6,6.6,0,0,0,5.8,0l.5-.2.5.2a2.2,2.2,0,0,1,1.1,1.9c.3.7,0,1.1,0,1.6v3c0,2.1.3,4,.5,6.1a64.8,64.8,0,0,0,3,11.7l-1.1-.7,6.5-.2h1.2v.9a69.8,69.8,0,0,1-12.2,43.9,21.6,21.6,0,0,1-4.2,4.4,36.4,36.4,0,0,1-5.1,3.1,10,10,0,0,0-2.1,1.1,2.4,2.4,0,0,0-.2,1.9,51.7,51.7,0,0,0,1.1,5.4c.3.9.7,1.6,1,2.5l.7,1.2c.2.5.4.7.7,1.4a1.3,1.3,0,0,1,0,1.2c0,.4-.3.7-.3.9l-.7,1.4a24,24,0,0,1-2.1,2.3,7.2,7.2,0,0,1-6.3,1.4,6.4,6.4,0,0,1-3-1.4,3.3,3.3,0,0,1-1.2-1.6,5.3,5.3,0,0,1-.2-1.6l-.7-5.6c-.3-1.9-.5-4-.7-5.6s-.5-1.9-.7-2.4l-.5-.4a1.8,1.8,0,0,1-1.2-.3H334c-.7,0-.9-.2-1.4-.2l-2.8-.7a31.5,31.5,0,0,1-10-5.6,106.7,106.7,0,0,1-8.4-8,25.8,25.8,0,0,1-5.8-10,64,64,0,0,1-2.4-11.2C302.3,299.4,301.4,291.7,300.4,284.2Z"/><g class="cls-10"><path class="cls-6" d="M302.1,284.7a4.5,4.5,0,0,0,2.8-1.9,9.2,9.2,0,0,0,1.4-2.8,23.6,23.6,0,0,0,0-6.5l-.3-3.8,3.3,2.4a6.2,6.2,0,0,0,3.7.9,7.6,7.6,0,0,0,3.5-1.6,9.9,9.9,0,0,0,2.4-8l4.2-1.4a2.6,2.6,0,0,0,2.8,1.2,5.3,5.3,0,0,0,3.7-2.1,14.4,14.4,0,0,0,2.8-4.4,43.8,43.8,0,0,0,2.3-5.4,54.6,54.6,0,0,1-.4,5.8,23.2,23.2,0,0,1-2.1,5.9,11.3,11.3,0,0,1-2.4,2.5,8.8,8.8,0,0,1-3.5,1.7,7.6,7.6,0,0,1-3.9-.3,7.3,7.3,0,0,1-3.5-2.5l4.2-1.4a19.1,19.1,0,0,1-.3,6.3,9.2,9.2,0,0,1-3.5,5.6,10.3,10.3,0,0,1-6.3,2.5,9.1,9.1,0,0,1-6.3-2.3l3.1-1.4a16.8,16.8,0,0,1-1.4,7.2,8,8,0,0,1-2.6,2.9A7.5,7.5,0,0,1,302.1,284.7Z"/></g><g class="cls-10"><path class="cls-6" d="M324.9,336.5c2.4.3,4.5,1,6.8,1.4l3.3,1,1.6.4.7.3h.2a2.6,2.6,0,0,0-1.1.2,1.1,1.1,0,0,0-.7.9c0,.3-.3.7,0,1.2a2.2,2.2,0,0,0,.9,1.2c.5.2.2,0,.2,0h0a42.2,42.2,0,0,1-13-5.2,38.1,38.1,0,0,1-11-8.9,35.3,35.3,0,0,1-6.8-12.1,95.2,95.2,0,0,0,9.4,9.6,92.7,92.7,0,0,0,10.7,7.5,100.4,100.4,0,0,0,11.9,5.6h0l.5.2a2.5,2.5,0,0,1,.9,1.2c.2.4,0,.9,0,1.1a1.3,1.3,0,0,1-.7,1,3,3,0,0,1-1.2.2h-.4l-.5-.2-.7-.5a12.6,12.6,0,0,0-1.6-.7l-3.1-1.6C328.9,338.9,327,337.9,324.9,336.5Z"/></g><g class="cls-11"><path class="cls-12" d="M372.1,293.1a85.4,85.4,0,0,1-1.2,13.3,65.9,65.9,0,0,1-3.2,13.1c-3.3,8.6-10.1,16.3-18.7,19.6a53,53,0,0,0,8.4-10.1,62.4,62.4,0,0,0,5.8-11.2c1.4-3.9,2.8-8.1,4-12.3A102.7,102.7,0,0,1,372.1,293.1Z"/></g><g class="cls-11"><path class="cls-12" d="M337.5,254.8c-1.1,4,1.2,7.9,4.2,8.6a5.9,5.9,0,0,0,4.5-.4,6,6,0,0,0,2.8-3.1l4.2,1.2a4,4,0,0,0,.5,2.8,3.7,3.7,0,0,0,1.8,1.9,5.5,5.5,0,0,0,2.6.2,3.6,3.6,0,0,0,2.3-1.4l3.3-4.2.7,5.1c.7,4,1.2,8.2,1.6,12.2s.7,8.2,1,12.4c-1.4-4-2.8-8-4-12s-2.1-7.9-3-12.1l3.9.9a8,8,0,0,1-4.6,3.3,9.9,9.9,0,0,1-5.9-.2,11.6,11.6,0,0,1-4.2-4,8.2,8.2,0,0,1-.7-5.6l4.2,1.2a8.9,8.9,0,0,1-5.3,5.1,9.3,9.3,0,0,1-7.3-.2C336.1,263.9,335,258.1,337.5,254.8Z"/></g><path class="Graphic-Style-2" d="M304.4,281.2c2.3-2.8,3.3-6.3,4.2-9.8a5.1,5.1,0,0,0,5.8,3.7,8.5,8.5,0,0,0,5.9-4.7,21.1,21.1,0,0,0,1.8-7.4c1,2.3,4.2,2.8,6.3,1.4s3.3-3.5,4.2-5.9,1.9-4.6,3.8-6.3c1.6,3.3.9,7.5,3,10.5a6.9,6.9,0,0,0,7,2.4,6.6,6.6,0,0,0,4.2-6.1,7.8,7.8,0,0,0,4.2,7.7,7,7,0,0,0,8.4-2.3l2.1,25.9,7-1.2c0-3.2-.2-6.5-.2-9.8-.2,4.5-.2,8.9,1.2,13.1s4.9,7.9,9.3,8.4a5.4,5.4,0,0,0,3.3-.7c2.1-1.4,2.1-4.4,1.6-6.8a21,21,0,0,0-6.8-11c3.5,0,7.5,1.5,10.5-.4a6.5,6.5,0,0,0,2.2-7.5,13.9,13.9,0,0,0-5.2-6.3,25,25,0,0,0-9.6-4.2c3.5.2,7-1.9,8-5.1,1.4-4.7-3.1-9.6-8-10.8s-10-.4-14.9-1.1a13.9,13.9,0,0,0,5.4-7.7,10,10,0,0,0-.7-6.6,11.7,11.7,0,0,0-3.8-2.8c-7.9-3.5-18.4,0-22.6,7.5a9.9,9.9,0,0,0-5.2-10.5,10.2,10.2,0,0,0-11.6,1.6,15.9,15.9,0,0,0-3.3,4.4,80.1,80.1,0,0,0-5.6,14.3,18.5,18.5,0,0,0-14.5-9.6,3.6,3.6,0,0,0-2.3.5,5.3,5.3,0,0,0-.9,1.6,17.3,17.3,0,0,0-1,6.8c-1.6-2.3-4.9-2.8-7.9-3s-6.3.2-7.7,2.8.2,5.6,2.3,7.2,4.7,2.8,7,4.4c-2.1.3-4.4.3-6.3,1.2-4.4,1.9-4.7,6.5-1.4,9.6s4,3,4.7,7C290.1,283.5,297.9,289.6,304.4,281.2Z"/><path d="M304.4,281.2c2.3-2.8,3.3-6.3,4.2-9.8h0c.2,1.8,2.1,3.2,4,3.7s3.9-.5,5.3-1.6a12.5,12.5,0,0,0,3.1-4.9,23.1,23.1,0,0,0,1.1-5.6v-.5l.3.5a3.7,3.7,0,0,0,4.4,1.8,5.7,5.7,0,0,0,4.2-3.2c.9-1.7,1.6-3.3,2.3-4.9a12.5,12.5,0,0,1,3.1-4.7l.2-.2.2.2c1,2.1,1.2,4.4,1.7,6.5a8.2,8.2,0,0,0,3.2,5.4,5.6,5.6,0,0,0,6.1,0c1.9-1.2,3.1-3,2.8-5.1h1a6.8,6.8,0,0,0,3.9,7,6.7,6.7,0,0,0,7.7-2.1l1-1.4.2,1.8,2.6,26-1.2-1,7-1.4-.9,1-.3-9.9H374c0,4.2-.3,8.5,1.1,12.2s4,7,7.5,7.7a5.7,5.7,0,0,0,2.6,0,2.7,2.7,0,0,0,1.6-1.2,5.9,5.9,0,0,0,0-4.9,20.7,20.7,0,0,0-6.1-9.8l-3.2-2.8h4.2c3.5,0,6.5.9,8.8.2s3.1-3.7,2.2-6-3.1-4.5-5.4-6.1a22.5,22.5,0,0,0-8.2-3.3l.5-3.5a5.8,5.8,0,0,0,6-3.7,6.4,6.4,0,0,0-2.8-6.8,8.5,8.5,0,0,0-3.7-1.8,14.1,14.1,0,0,0-4.7-.7c-3.2-.3-6.5,0-10-.5l-4.2-.7,3.5-2.3a12,12,0,0,0,5.1-8.7,4.3,4.3,0,0,0-1.4-4.2,8.9,8.9,0,0,0-4.4-2.3c-6.8-1.9-15.2,1.1-18.7,7.5l-2.3-1c.7-3.3-1-6.8-3.8-8.9a8.8,8.8,0,0,0-9.5-.2c-3.1,1.6-4.5,5.4-6.3,8.7a63.3,63.3,0,0,0-3.8,10.5l-.4,2.1-1-1.9a16.3,16.3,0,0,0-10.7-8.6l-3.5-.7c-1.2,0-1.9.2-2.3,1.4a16.4,16.4,0,0,0-1.2,7v1.8l-.9-1.4c-1.4-2.1-4.5-2.8-7.3-2.8a19.8,19.8,0,0,0-4.2.3,5.1,5.1,0,0,0-3.3,1.8,4.3,4.3,0,0,0-.4,3.8,5.7,5.7,0,0,0,2.3,3.2c2.1,1.9,4.9,2.8,7,4.7l.5.2h-.5a17.7,17.7,0,0,0-6.1,1c-1.8.7-3.5,2.3-3.7,4.2a6.7,6.7,0,0,0,2.3,5.3c1.4,1.4,3.3,2.6,4,4.7a10.9,10.9,0,0,1,.7,3,13.1,13.1,0,0,0,.9,2.8,12.6,12.6,0,0,0,3.8,4.7,6.3,6.3,0,0,0,5.8,1C301.6,284.2,303,282.8,304.4,281.2Zm0,0a10.2,10.2,0,0,1-4.9,3.7,6.6,6.6,0,0,1-5.9-.9,11.8,11.8,0,0,1-3.7-4.9,10.2,10.2,0,0,1-.9-3.1c-.3-.9-.5-2.1-.7-3s-2.4-3.3-4-4.4a6.7,6.7,0,0,1-2.6-5.6c.3-2.1,2.1-3.8,4-4.7a30,30,0,0,1,6.1-1.2l-.3.5c-2.1-1.9-4.9-2.8-7-4.7a10.1,10.1,0,0,1-2.5-3.5,4.5,4.5,0,0,1,.4-4.2,5.6,5.6,0,0,1,3.8-2.3,11.9,11.9,0,0,1,4.2-.2,12.3,12.3,0,0,1,4.2.7,6.2,6.2,0,0,1,3.7,2.5l-.9.3a15.8,15.8,0,0,1,1.2-7.5,2.3,2.3,0,0,1,1.4-1.6,3.3,3.3,0,0,1,2.1-.5,14.4,14.4,0,0,1,3.7.5,20.1,20.1,0,0,1,11.9,9.1l-1.4.2a61.9,61.9,0,0,1,3.7-11,34.8,34.8,0,0,1,2.6-5.1,10.7,10.7,0,0,1,4.2-4.5,11.3,11.3,0,0,1,12.1.3,11.5,11.5,0,0,1,5,11.2l-2.4-.9c4.2-7.5,13.6-11.5,21.7-9.2a15.3,15.3,0,0,1,5.9,3.1,8.1,8.1,0,0,1,2.3,6.5,15.3,15.3,0,0,1-6.5,11l-.7-3c3,.4,6.3.2,9.8.4a25.8,25.8,0,0,1,5.3.7,12.2,12.2,0,0,1,4.9,2.6,16.3,16.3,0,0,1,3.8,4.4,8.1,8.1,0,0,1,.4,6.1,8.3,8.3,0,0,1-3.9,4.7,10.8,10.8,0,0,1-5.9,1.4l.5-3.5a30.2,30.2,0,0,1,9.3,3.9c2.8,1.9,5.7,4.2,6.8,8a10.6,10.6,0,0,1,0,5.6,7.2,7.2,0,0,1-4,4.2,10.9,10.9,0,0,1-5.3.5,25.8,25.8,0,0,0-4.5-.5l1-2.8a25.4,25.4,0,0,1,7,11.2c.4,2.1.9,4.7-.5,7.2a5.5,5.5,0,0,1-3.5,2.4,6.5,6.5,0,0,1-3.7-.3c-4.9-1.1-8-5.3-9.4-9.5s-1.1-8.7-.9-12.9h2.3l.3,9.8v1l-1,.2-7,1.2-1.1.2v-.9L363,263.9l1.2.5a7.7,7.7,0,0,1-13.6-5.9h1a6.9,6.9,0,0,1-3.5,5.9,7.2,7.2,0,0,1-6.8-.3c-2.1-1.1-3.1-3.5-3.5-5.8s-.5-4.4-1.4-6.3h.4a11.4,11.4,0,0,0-2.8,4.4,31.7,31.7,0,0,1-2.3,4.9,6.1,6.1,0,0,1-4.4,3.3c-1.9.2-4-.2-4.9-2.1h.2a22.5,22.5,0,0,1-1.2,5.6,13,13,0,0,1-3,4.9,6.3,6.3,0,0,1-5.4,1.6c-1.8-.4-3.7-1.8-3.9-3.7h0C307.7,274.9,306.7,278.4,304.4,281.2Z"/><circle cx="323.1" cy="292.2" r="2.3"/><circle cx="350.4" cy="292.2" r="2.3"/><path class="cls-6" d="M336.4,289.1a93.7,93.7,0,0,1-2.6,14.7l-.2,1a2.4,2.4,0,0,1-.3.7,1.5,1.5,0,0,0,.3,1.1c.2.3.4.7.9.7h1.6c2.6-.2,4.9-.2,7.5-.2-2.3.9-4.9,1.4-7.2,2.1-.3,0-.5.2-1,.2h-1.1a3,3,0,0,1-2.1-1.4,4.3,4.3,0,0,1-.7-2.5c0-.5.2-.7.2-1.2l.2-.9A64.3,64.3,0,0,1,336.4,289.1Z"/><path class="cls-12" d="M338.9,332.8a13,13,0,0,1-4.9-1.2,11.4,11.4,0,0,1-3.7-3l-.2-.3c-2.1-2.3-2.8-3.5-2.6-4.4s.9-1.2,2.1-1.2,3,.5,4.7.7l2.1.5h.9a24.5,24.5,0,0,0,7-1.2c6.3-2.1,6.8-3.2,6.8-3.2l2.1.7c-.9,3-3,7.4-7,10A11.2,11.2,0,0,1,338.9,332.8Z"/><path class="cls-6" d="M352.3,319.9a18,18,0,0,1-6.6,9.6,11.4,11.4,0,0,1-6.8,2.1,8.6,8.6,0,0,1-4.2-.9,15.4,15.4,0,0,1-3.5-2.8c-.4-.5-2.8-2.8-2.5-3.8s.4-.2.9-.2,5.8.9,6.8.9h.9a27.8,27.8,0,0,0,7.5-1.1c1.6-.3,7-1.9,7.5-3.8m0-2.3a2,2,0,0,0-2.1,1.4c-.3.2-1.4,1.2-6.1,2.8a21.9,21.9,0,0,1-6.8.9h-.9l-1.9-.2a48.1,48.1,0,0,0-4.9-.7c-2.3,0-3,1.4-3,2.1s.7,3,2.8,5.6l.2.2a14.2,14.2,0,0,0,4.2,3.3,13.8,13.8,0,0,0,5.4,1.2,14.5,14.5,0,0,0,8.2-2.6,19.8,19.8,0,0,0,7.2-10.7,2,2,0,0,0-1.4-2.8c-.5-.5-.7-.5-.9-.5Zm0,4.7Z"/><path d="M293.9,263.2c-1.2.2-2.4.9-2.6,1.6a1.8,1.8,0,0,0,.9,1.9c.7.5,1.9.7,3.3,1.4a6.1,6.1,0,0,1,2.8,3.7,6.6,6.6,0,0,1,.3,2.4c0,.7-.3,1.4-.3,1.8v1c0,.2.3.4.3.2s-.5-.2-.3-.2a.6.6,0,0,0,.5-.3,3.6,3.6,0,0,0,.7-2.1,17.8,17.8,0,0,0,.2-3.5,8,8,0,0,1,.5-2.1,5.5,5.5,0,0,1,1.2-2.1,4.5,4.5,0,0,1,2.1-1.6,4.3,4.3,0,0,1,3-.5c2.1.3,3,1.7,4,2.4s1.4,1.1,1.8,1.1a2.8,2.8,0,0,0,2.1-.9c1.4-1.4,1.4-4,1.7-6.3a9.2,9.2,0,0,1,.4,7.5,6.1,6.1,0,0,1-3.7,2.8,6.3,6.3,0,0,1-4.4-1.4,8.3,8.3,0,0,0-2.1-1.2,1.3,1.3,0,0,0-1,.7c-.7.9-.4,3-.9,5.8a7.7,7.7,0,0,1-2.1,4.5,5,5,0,0,1-2.6,1.4,4,4,0,0,1-3.5-1,5.4,5.4,0,0,1-1.6-2.8,7,7,0,0,1,0-2.5,26,26,0,0,0,.4-2.8,3.1,3.1,0,0,0-.9-2.1,15.4,15.4,0,0,0-2.8-2.1,5.3,5.3,0,0,1-1.2-2.1,2.4,2.4,0,0,1,.7-2.4C291.3,263,292.7,263.2,293.9,263.2Z"/><path d="M323.8,247.8a18.4,18.4,0,0,1,2.3-7.2,30.2,30.2,0,0,1,2.1-3.3,11.1,11.1,0,0,0,1.2-1.6,3.1,3.1,0,0,1,2.5-1.5,4.5,4.5,0,0,1,4.7,3.6c.5,1.6.2,3,.5,3.7s.2.7.2.9h.2a4,4,0,0,0,1.7-.4c3.7-2.4,8.4-5.4,13.8-6.1l2.1-.2,2.3.2a4.5,4.5,0,0,1,1.6,1.2,1.8,1.8,0,0,1,.3,1.8,3.3,3.3,0,0,1-1.4,2.1,16.5,16.5,0,0,1-6.8,3.3,18,18,0,0,0,5.1-4.7l.5-.9v.2s.2.3,0,.3l-1.4.2a3,3,0,0,0-1.6.5,28,28,0,0,0-6.1,2.8c-.9.7-1.9,1.1-3,1.8a23.7,23.7,0,0,1-3.3,2.1,7.3,7.3,0,0,1-5.2,1,4.1,4.1,0,0,1-2.5-2.1c-.5-1-.7-1.9-1-2.6s0-2.8-.2-3.5a1.4,1.4,0,0,0-.5-.9l-.4.2-1.2,1.2a13.7,13.7,0,0,0-2.3,2.5C326.3,243.8,325.2,245.7,323.8,247.8Z"/><path d="M330.2,327.2a21.4,21.4,0,0,0,11,1,63.3,63.3,0,0,0,9-3h0s-4,6.3-9,7-9.5-3.6-10-4A9.3,9.3,0,0,1,330.2,327.2Z"/><path class="Graphic-Style-9" d="M239.1,208c-18.2,5.2-67,0-94.3-18s-46-50.6-42.4-83.1S129.8,48,158.1,32.7s60.7-20.7,92.6-25c15.5-2,31.4-3.8,46.7-.8,24.5,4.8,45.1,21.4,62.2,39.5,22.1,23.4,41.2,55,32.9,86-5.7,21.7-24.2,38.2-44.8,47.2s-43.2,11.7-65.5,14.2c-9.2,6.7-9.2,18.3,8.2,36.8C292.4,232.8,247.5,236.4,239.1,208Z"/><g class="cls-13"><path d="M288.6,229.4a33,33,0,0,1-16.3-11.5,36.7,36.7,0,0,1-7.7-20.2,12.6,12.6,0,0,1,.1-3.3,12.7,12.7,0,0,1,1.2-4.3c.4-.8.9-1.4,1.3-2.1a8.1,8.1,0,0,1,1.8-1.9,7.4,7.4,0,0,1,2.1-1.5,2.4,2.4,0,0,1,1.1-.6l1.1-.5a20.5,20.5,0,0,1,7.6-1.2,50.7,50.7,0,0,1,6,.6l4.7.8,1.9.2h3.8l1.9-.2c1.3,0,2.6-.2,3.8-.3l1-.2.9-.2,2-.3,3.8-1,3.8-1.3,3.8-1.5a112.7,112.7,0,0,0,14.9-7.9,170.3,170.3,0,0,0,14.5-10,161.1,161.1,0,0,0,13.4-11.1,109.5,109.5,0,0,0,11.5-12.2,69.1,69.1,0,0,0,8.3-13.2,44.8,44.8,0,0,0,3.8-14.1,45.1,45.1,0,0,0-1.6-14.8c-2.9-10.2-9.3-20.7-15.9-31.3-3.3-5.3-6.8-10.6-10.3-15.9L346.2,32.7a162.6,162.6,0,0,1,16,11.1c5.1,4,10,8.2,14.7,12.7q3.5,3.3,6.9,6.9t6.6,7.5a85.3,85.3,0,0,1,6.2,8.3,95.1,95.1,0,0,1,5.3,9.4,64.4,64.4,0,0,1,3.7,10.7,56.8,56.8,0,0,1,1.6,11.6,61.3,61.3,0,0,1-3.8,22.9,84.6,84.6,0,0,1-10.7,19.4c-2.2,2.9-4.5,5.6-6.8,8.2s-4.9,5.1-7.4,7.5-5.2,4.6-7.8,6.7-5.4,4.2-8.2,6.1a177.7,177.7,0,0,1-17.3,10.6,106.9,106.9,0,0,1-19.4,8,45.8,45.8,0,0,1-5.3,1.4l-5.3,1.1c-1.9.2-3.7.5-5.6.6l-2.8.2H304a52.7,52.7,0,0,1-5.6-.4l-2.8-.3-2.8-.6-2.8-.7-2.7-.8-1.4-.4-1.1-.5-2-.7-3.4-1.2-1.7-.4h0c0-.1.1-.1.1-.2a.4.4,0,0,0,.1-.3v-.2c0-.1-.1-.1-.3.2a6.8,6.8,0,0,0-.4,1.3,31.3,31.3,0,0,0,1.4,16.2A36,36,0,0,0,288.6,229.4Z"/></g><path d="M205.3,45.4c0,.6-.4.9-1.3.9a5.2,5.2,0,0,1-3.5-1.8,10,10,0,0,1-2.7-3.7c-.3.7-.4,1.2-.5,1.4l-.4,1.2-.4,1.2-.3.9c-.2.5-.5.8-.7.8s-.7-.3-1.2-.8a2.5,2.5,0,0,1-.7-1.4,9.2,9.2,0,0,1,.5-2,28.1,28.1,0,0,0,1.7-7.9,3.6,3.6,0,0,1-.7-1,2.6,2.6,0,0,1-.4-1c0-.4.6-.9,1.7-1.3a10.2,10.2,0,0,1,4-.8,6.2,6.2,0,0,1,3.7,1.1,3.2,3.2,0,0,1,1.5,2.7,4,4,0,0,1-.7,2.4,7.3,7.3,0,0,1-1.6,1.8l-1.6,1.2c-.5.4-.8.6-.8.7a1.3,1.3,0,0,0,.4,1,4.7,4.7,0,0,0,1,1.1l1.1,1.1.7.7.6.6Q205.3,45.1,205.3,45.4Zm-3.1-11.2c0-.7-.6-1-1.8-1a5.8,5.8,0,0,0-2,.5,3.7,3.7,0,0,1,.5,1.6,15.8,15.8,0,0,1-.3,2.8l.9-.7,1-.7.8-.7A2.6,2.6,0,0,0,202.2,34.2Z"/><path d="M215,40.9a5.8,5.8,0,0,1-3,.9l-2.5-.2a2.5,2.5,0,0,0-.2,1.2c0,.4,0,.6.2.8s.4.3,1,.3a7.9,7.9,0,0,0,2.8-.4l1.2-.3q.9,0,.9.6c0,.6-.5,1.1-1.4,1.7a7.2,7.2,0,0,1-3.3.7,4.4,4.4,0,0,1-3-1.1,4.1,4.1,0,0,1-1.1-2.8,6.8,6.8,0,0,1,.9-3.3,8.7,8.7,0,0,1,2.4-2.9,4.3,4.3,0,0,1,2.8-1.2,3.3,3.3,0,0,1,2.6,1.4,4.1,4.1,0,0,1,1.2,2.7A2.3,2.3,0,0,1,215,40.9ZM213.4,38a1.2,1.2,0,0,0-.8-.4c-.3,0-.6.2-1.1.6a9.8,9.8,0,0,0-1.2,1.5h.6c2,0,3-.4,3-1.1S213.8,38.3,213.4,38Z"/><path d="M225.3,34.9c.6,0,1.1.5,1.8,1.5a5.2,5.2,0,0,1,.9,2.9,4,4,0,0,1-.7,2,10.6,10.6,0,0,1-1.9,2.3,12,12,0,0,1-2.6,1.8,6.7,6.7,0,0,1-2.9.8h-.2c-1,3.8-1.6,5.8-2,5.8s-.6-.3-1-.8a3.1,3.1,0,0,1-.5-1.3,16.5,16.5,0,0,1,.7-3.1,55.8,55.8,0,0,0,1.8-11.6.6.6,0,0,1,.7-.7,2.4,2.4,0,0,1,1.3.6,2.1,2.1,0,0,1,1,1.6A5.6,5.6,0,0,1,225.3,34.9Zm-1.7,6.8a4.6,4.6,0,0,0,1.5-2.7q0-1.2-.6-1.2a3.1,3.1,0,0,0-2,1.1,9.2,9.2,0,0,0-.9,1.3,19.5,19.5,0,0,0-.9,2l-.3,1.4A7.2,7.2,0,0,0,223.6,41.7Z"/><path d="M238.5,40a.7.7,0,0,1,.4.6c0,.2-.1.6-.2,1.2s-.3,1.1-.4,1.4a2.5,2.5,0,0,0-.1.8.8.8,0,0,0-.1.4c0,.1-.1.3-.1.4s-.1.3-.1.4a.8.8,0,0,1-.1.4c0,.1,0,.2-.1.2s-.1.2-.1.3h-.5c-.2,0-.4-.2-.7-.6a3.5,3.5,0,0,1-.7-1.5c-1.4,1.4-2.6,2.1-3.5,2.1a2.9,2.9,0,0,1-2-1,2.7,2.7,0,0,1-1.1-2.1,7.9,7.9,0,0,1,.9-3,12.7,12.7,0,0,1,2.6-3.6,4.7,4.7,0,0,1,3.2-1.6A3.1,3.1,0,0,1,238,36a2.7,2.7,0,0,1,1.2,1.9A4,4,0,0,1,238.5,40Zm-6.4,3.5a4.4,4.4,0,0,0,2.4-1.2,5.7,5.7,0,0,0,1.8-3.1c0-.1.1-.2.4-.3s-.2-1.2-.5-1.2a2.9,2.9,0,0,0-1.9,1.1,8.3,8.3,0,0,0-1.8,2.5,4,4,0,0,0-.7,1.9v.2Z"/><path d="M247.4,34.9a2.2,2.2,0,0,1,1.7,1,3.1,3.1,0,0,1,.8,1.8.5.5,0,0,1-.5.5l-.8-.2-1-.2-1.5.3c-.7.3-1,.6-1,1s.2.3.6.6l1.3.9a3.7,3.7,0,0,1,1.3,1.2,2.7,2.7,0,0,1,.6,1.7c0,.6-.5,1.2-1.3,1.8a5.7,5.7,0,0,1-3.2.9,4.8,4.8,0,0,1-3-.8c-.9-.5-1.3-1.1-1.3-1.7s.2-.8.7-.8l.7.2a5.4,5.4,0,0,0,2.7.6c1.1,0,1.6-.1,1.6-.4s-.2-.6-.6-1l-1.3-1-1.4-1.1a2.2,2.2,0,0,1-.6-1.3c0-.8.7-1.7,2.1-2.6A7.8,7.8,0,0,1,247.4,34.9Z"/><path d="M259.1,40.9a5.8,5.8,0,0,1-3,.9l-2.6-.2a5,5,0,0,0-.2,1.2,1.5,1.5,0,0,0,.2.8,1.3,1.3,0,0,0,1,.3,7.5,7.5,0,0,0,2.8-.4l1.3-.3q.9,0,.9.6c0,.6-.5,1.1-1.5,1.7a6.6,6.6,0,0,1-3.2.7,4.1,4.1,0,0,1-3-1.1,3.7,3.7,0,0,1-1.1-2.8,6.8,6.8,0,0,1,.9-3.3,8.5,8.5,0,0,1,2.3-2.9,4.5,4.5,0,0,1,2.8-1.2,3.1,3.1,0,0,1,2.6,1.4,4.1,4.1,0,0,1,1.2,2.7A2.3,2.3,0,0,1,259.1,40.9ZM257.5,38a1.2,1.2,0,0,0-.9-.4,1.8,1.8,0,0,0-1,.6,9.8,9.8,0,0,0-1.2,1.5h.6c2,0,3-.4,3-1.1S257.8,38.3,257.5,38Z"/><path d="M276.2,34.9a1.6,1.6,0,0,1,1.4,1.1,4.8,4.8,0,0,1,.6,2.1,12.3,12.3,0,0,1-.4,2.8,13.7,13.7,0,0,1-1.1,3.6c-.5,1.2-1.1,1.7-1.7,1.7s-.7-.3-.7-1a14.8,14.8,0,0,1,.6-3.2,24.3,24.3,0,0,0,.5-2.9c0-.5,0-.7-.2-.7s-.7.3-1.1,1a26.7,26.7,0,0,0-1.5,2.7,14.1,14.1,0,0,0-1.1,2.2l-.4.7-.3.6c-.5.8-1.1.8-1.9,0a1.5,1.5,0,0,1-.6-1.1,14.7,14.7,0,0,0,.4-1.6,20,20,0,0,0,.4-3.7c0-.6-.1-.8-.2-.8s-.4.1-.7.5a14.3,14.3,0,0,0-1,1.9c-.5.9-.9,1.7-1.3,2.3-1.2,2.1-2.2,3.1-2.8,3.1s-.7-.2-1.2-.8a1.9,1.9,0,0,1-.7-1.2,7,7,0,0,1,.5-2.1,18.2,18.2,0,0,0,.6-3.5c.1-1.2.2-2.2.3-2.9s.2-1,.5-1a2.1,2.1,0,0,1,1.6.7c.5.5.8.9.8,1.3a17.6,17.6,0,0,1-1,4.5,26.4,26.4,0,0,1,2.6-5,3.1,3.1,0,0,1,2.2-1.3c.4,0,.9.3,1.4,1a3.2,3.2,0,0,1,.9,2,8.1,8.1,0,0,1-.1,1.6,12.6,12.6,0,0,1,2.1-3.2A4,4,0,0,1,276.2,34.9Z"/><path d="M281,37.3c1.2-1.6,2.3-2.4,3.4-2.4a3.7,3.7,0,0,1,2.8,1.1,4,4,0,0,1,1.2,2.9,8,8,0,0,1-.8,3.3,8.2,8.2,0,0,1-2.3,2.9,4.3,4.3,0,0,1-3,1.1,2.6,2.6,0,0,1-2.1-1,4.2,4.2,0,0,1-.9-2.7A9.5,9.5,0,0,1,281,37.3Zm3.6,4.6a6.4,6.4,0,0,0,.9-3.1,4.1,4.1,0,0,0-.4-1.9,5.1,5.1,0,0,0-1.9,2.3,7.1,7.1,0,0,0-.9,3.1c0,.9,0,1.5.2,1.7A5.3,5.3,0,0,0,284.6,41.9Z"/><path d="M296.5,34.9a2.1,2.1,0,0,1,1.6,1,2.6,2.6,0,0,1,.8,1.8c0,.3-.1.5-.4.5l-.8-.2-1-.2-1.5.3c-.7.3-1,.6-1,1s.2.3.6.6l1.3.9a3.4,3.4,0,0,1,1.2,1.2,2.7,2.7,0,0,1,.6,1.7c0,.6-.4,1.2-1.3,1.8a5.4,5.4,0,0,1-3.1.9,5.3,5.3,0,0,1-3.1-.8c-.8-.5-1.3-1.1-1.3-1.7a.7.7,0,0,1,.7-.8l.7.2a6.1,6.1,0,0,0,2.8.6c1.1,0,1.6-.1,1.6-.4s-.2-.6-.6-1l-1.4-1a6.9,6.9,0,0,1-1.3-1.1,1.9,1.9,0,0,1-.7-1.3c0-.8.7-1.7,2.2-2.6A7,7,0,0,1,296.5,34.9Z"/><path d="M174.9,69.2a7.9,7.9,0,0,1,.9-3.4,11.4,11.4,0,0,1,2.6-3.2,4.7,4.7,0,0,1,3.1-1.3,2.2,2.2,0,0,1,1.6,1,3.4,3.4,0,0,1,.8,1.8.5.5,0,0,1-.6.6l-.7-.3-.9-.2c-.4,0-.8.3-1.4.8a10.8,10.8,0,0,0-1.6,2,5.3,5.3,0,0,0-.7,1.8,1.2,1.2,0,0,0,.3.9l1.2.2,1.8-.2,1.2-.4.7-.2a.5.5,0,0,1,.6.6c0,.6-.6,1.3-1.7,1.9a6.3,6.3,0,0,1-3.4,1,4.3,4.3,0,0,1-2.5-1.2A3.1,3.1,0,0,1,174.9,69.2Z"/><path d="M193.4,61.8a.7.7,0,0,1,.7-.5q.5,0,1.2.9a3.3,3.3,0,0,1,.7,1.5c0,.2-.4,1.3-1,3.3l-1.6,4.7a1.1,1.1,0,0,1-1.8.6,1.3,1.3,0,0,1-.3-1,8.9,8.9,0,0,1,.3-1.9c-1.5,2.1-2.7,3.2-3.6,3.2a2.8,2.8,0,0,1-1.7-.9,2.4,2.4,0,0,1-1-1.8,15.6,15.6,0,0,1,1.2-5.3c.8-2.2,1.6-3.3,2.3-3.3a1.4,1.4,0,0,1,1.1.6,1.8,1.8,0,0,1,.5,1.2,5.3,5.3,0,0,1-.6,1.5,14.4,14.4,0,0,0-1.6,5.1h.1c.2,0,.6-.3,1.2-1a24.5,24.5,0,0,0,2.1-3A28.7,28.7,0,0,0,193.4,61.8Z"/><path d="M203.2,61.3a3.1,3.1,0,0,1,2.1,1.1,2.7,2.7,0,0,1,1.2,1.9,4.8,4.8,0,0,1-.6,2.1c.2.2.4.4.4.6a4.9,4.9,0,0,1-.3,1.2,5,5,0,0,0-.3,1.4,3.1,3.1,0,0,0-.2.8c0,.2-.1.3-.1.4v.4a.8.8,0,0,0-.1.4c-.1.1-.1.2-.1.4a.3.3,0,0,0-.1.2l-.2.3h-.4c-.2,0-.5-.2-.8-.6a5.2,5.2,0,0,1-.7-1.5c-1.3,1.4-2.5,2.1-3.4,2.1a2.9,2.9,0,0,1-2.1-1,3.1,3.1,0,0,1-1.1-2.1,6.9,6.9,0,0,1,1-3,12.3,12.3,0,0,1,2.5-3.6A4.7,4.7,0,0,1,203.2,61.3Zm-3.7,8.6a4.2,4.2,0,0,0,2.3-1.2,4.7,4.7,0,0,0,1.8-3.1l.4-.3c0-.8-.2-1.2-.4-1.2a3.1,3.1,0,0,0-2,1.1,14.4,14.4,0,0,0-1.8,2.5,5.6,5.6,0,0,0-.7,1.9.3.3,0,0,0,.1.2Zm8.4-14.1a1.2,1.2,0,0,1,1,.6,1.9,1.9,0,0,1,.4,1.1,1.5,1.5,0,0,1-.1.7l-.3.4-.5.3-.9.4-1,.5-.7.5a1.9,1.9,0,0,1-1,.4.6.6,0,0,1-.6-.3,1.1,1.1,0,0,1-.3-.8,1.6,1.6,0,0,1,.3-.8,3.2,3.2,0,0,1,.8-.9,7.3,7.3,0,0,0,.9-.8l.6-.5.5-.4.3-.2A1,1,0,0,1,207.9,55.8Z"/><path d="M212.2,56.1a2.9,2.9,0,0,1,.8,1.8c0,.6-.1,1.7-.2,3.2s-.4,2.7-.6,3.6c-1.2,5.3-2.1,7.9-2.5,7.9a1.4,1.4,0,0,1-1.2-.8c-.5-.5-.8-.9-.8-1.2l.6-2.3c.4-1.5.8-3.4,1.2-5.8a40.6,40.6,0,0,0,.6-6.7.6.6,0,0,1,.7-.7C211.2,55.1,211.6,55.4,212.2,56.1Z"/><path d="M222,67.3a5.8,5.8,0,0,1-3,.9l-2.6-.2a5,5,0,0,0-.2,1.2,1.5,1.5,0,0,0,.2.8,1.3,1.3,0,0,0,1,.3,7.5,7.5,0,0,0,2.8-.4l1.3-.3q.9,0,.9.6c0,.6-.5,1.1-1.4,1.7a7.2,7.2,0,0,1-3.3.7,4.1,4.1,0,0,1-3-1.1,3.7,3.7,0,0,1-1.1-2.8,6.8,6.8,0,0,1,.9-3.3,8.5,8.5,0,0,1,2.3-2.9,4.6,4.6,0,0,1,2.9-1.2,3.1,3.1,0,0,1,2.5,1.4,4.1,4.1,0,0,1,1.2,2.7A2.3,2.3,0,0,1,222,67.3Zm-1.6-2.9a1.2,1.2,0,0,0-.9-.4,1.8,1.8,0,0,0-1,.6,9.8,9.8,0,0,0-1.2,1.5h.6c2,0,3-.4,3-1.1Z"/><path d="M231.3,61.3a2.2,2.2,0,0,1,1.7,1,3.1,3.1,0,0,1,.8,1.8.5.5,0,0,1-.5.5l-.7-.2-1.1-.2-1.5.3c-.7.3-1,.6-1,1s.2.3.6.6l1.3.9a3.7,3.7,0,0,1,1.3,1.2,2.7,2.7,0,0,1,.6,1.7c0,.6-.4,1.2-1.3,1.8a5.7,5.7,0,0,1-3.2.9,4.8,4.8,0,0,1-3-.8c-.9-.5-1.3-1.1-1.3-1.7s.2-.8.7-.8l.7.2a5.4,5.4,0,0,0,2.7.6c1.1,0,1.7-.1,1.7-.4s-.2-.6-.7-1l-1.3-1-1.4-1.1a2.2,2.2,0,0,1-.6-1.3c0-.8.7-1.7,2.1-2.6A7.8,7.8,0,0,1,231.3,61.3Z"/><path d="M250.1,61.3a2.1,2.1,0,0,1,1.6,1,2.6,2.6,0,0,1,.8,1.8c0,.3-.1.5-.4.5l-.8-.2-1-.2-1.5.3c-.7.3-1,.6-1,1s.2.3.6.6l1.2.9a3,3,0,0,1,1.3,1.2,2.7,2.7,0,0,1,.6,1.7c0,.6-.4,1.2-1.3,1.8a5.4,5.4,0,0,1-3.1.9,5.3,5.3,0,0,1-3.1-.8c-.8-.5-1.3-1.1-1.3-1.7a.7.7,0,0,1,.7-.8l.7.2a6.1,6.1,0,0,0,2.8.6c1.1,0,1.6-.1,1.6-.4s-.2-.6-.6-1l-1.4-1a6.9,6.9,0,0,1-1.3-1.1,1.9,1.9,0,0,1-.7-1.3c0-.8.7-1.7,2.2-2.6A7,7,0,0,1,250.1,61.3Z"/><path d="M254.9,63.7c1.2-1.6,2.3-2.4,3.4-2.4a3.7,3.7,0,0,1,2.8,1.1,4,4,0,0,1,1.2,2.9,8,8,0,0,1-.8,3.3,8.2,8.2,0,0,1-2.3,2.9,4.3,4.3,0,0,1-3,1.1,2.6,2.6,0,0,1-2.1-1,4.2,4.2,0,0,1-.9-2.7A9.5,9.5,0,0,1,254.9,63.7Zm3.6,4.6a6.4,6.4,0,0,0,.9-3.1,4.1,4.1,0,0,0-.4-1.9,5.1,5.1,0,0,0-1.9,2.3,7.1,7.1,0,0,0-.9,3.1c0,.9,0,1.5.2,1.7A5.3,5.3,0,0,0,258.5,68.3Z"/><path d="M271.5,61.3a2.6,2.6,0,0,1,2,1,3.7,3.7,0,0,1,.8,2.2,14.3,14.3,0,0,1-.6,3.9,10.3,10.3,0,0,1-1.3,3.1c-.5.8-1,1.1-1.4,1.1s-.8-.3-.8-1a21.4,21.4,0,0,1,.7-3.2,11.6,11.6,0,0,0,.6-2.8c0-.6-.1-.9-.2-.9a.9.9,0,0,0-.6.3l-.4.5a1.3,1.3,0,0,0-.4.6,2.1,2.1,0,0,0-.4.6l-.5.7a4.3,4.3,0,0,1-.4.7l-.4.7c-1.3,2.6-2.4,3.8-3.2,3.8s-.7-.2-1.1-.8a2,2,0,0,1-.7-1.1,3.6,3.6,0,0,1,.3-1.1l.4-1.2.3-.9c0-.4.1-.7.1-1.1a3.1,3.1,0,0,0,.1-.9,2.2,2.2,0,0,0,.1-.9,26.2,26.2,0,0,1,.4-3.2l.3-.3a2.3,2.3,0,0,1,1.6.7c.5.5.8.9.8,1.3a20.2,20.2,0,0,1-.7,3.9,26.8,26.8,0,0,1,2.6-4.1C270.2,61.8,270.9,61.3,271.5,61.3Z"/><path d="M288.5,56.1a2.9,2.9,0,0,1,.8,1.8,28.6,28.6,0,0,1-.3,3.2,23.9,23.9,0,0,1-.5,3.6c-1.2,5.3-2.1,7.9-2.6,7.9s-.7-.2-1.2-.8a2.6,2.6,0,0,1-.7-1.2l.6-2.3c.4-1.5.8-3.4,1.2-5.8a40.6,40.6,0,0,0,.6-6.7.6.6,0,0,1,.7-.7C287.5,55.1,287.9,55.4,288.5,56.1Z"/><path d="M299.2,66.4a.7.7,0,0,1,.4.6,4.9,4.9,0,0,1-.3,1.2,10.6,10.6,0,0,1-.3,1.4,2.5,2.5,0,0,0-.1.8.8.8,0,0,0-.1.4c0,.1-.1.3-.1.4s-.1.3-.1.4a.8.8,0,0,1-.1.4v.2l-.2.3h-.4c-.2,0-.5-.2-.8-.6a3.4,3.4,0,0,1-.6-1.5c-1.4,1.4-2.6,2.1-3.5,2.1a2.9,2.9,0,0,1-2-1,2.7,2.7,0,0,1-1.1-2.1,7.9,7.9,0,0,1,.9-3,12.7,12.7,0,0,1,2.6-3.6,4.7,4.7,0,0,1,3.2-1.6,3.3,3.3,0,0,1,2.2,1.1,2.7,2.7,0,0,1,1.2,1.9A4,4,0,0,1,299.2,66.4Zm-6.4,3.5a4.4,4.4,0,0,0,2.4-1.2,5.7,5.7,0,0,0,1.8-3.1l.3-.3c0-.8-.1-1.2-.4-1.2a2.9,2.9,0,0,0-1.9,1.1,8.3,8.3,0,0,0-1.8,2.5,4,4,0,0,0-.7,1.9v.2Z"/><path d="M308.1,61.3a2.2,2.2,0,0,1,1.7,1,3.1,3.1,0,0,1,.8,1.8.5.5,0,0,1-.5.5l-.8-.2-1-.2-1.5.3c-.7.3-1,.6-1,1l.6.6,1.3.9a3.7,3.7,0,0,1,1.3,1.2,2.7,2.7,0,0,1,.6,1.7c0,.6-.5,1.2-1.4,1.8a5.2,5.2,0,0,1-3.1.9,4.8,4.8,0,0,1-3-.8c-.9-.5-1.3-1.1-1.3-1.7s.2-.8.7-.8l.7.2a5.4,5.4,0,0,0,2.7.6c1.1,0,1.6-.1,1.6-.4s-.2-.6-.6-1l-1.4-1-1.3-1.1a2.2,2.2,0,0,1-.6-1.3c0-.8.7-1.7,2.1-2.6A7.8,7.8,0,0,1,308.1,61.3Z"/><path d="M143.7,81.5c.3,0,.8.3,1.4,1a2.4,2.4,0,0,1,.8,1.8,26.6,26.6,0,0,1-.7,3.4c-.5,2.1-.9,3.3-1,3.7-1.1,5.1-2,7.6-2.5,7.6a2.1,2.1,0,0,1-1.1-.5,1.8,1.8,0,0,1-.5-1.1v-.2c-1.5,1.2-2.5,1.8-3.2,1.8a2.4,2.4,0,0,1-1.8-1,3,3,0,0,1-.9-1.9,14.1,14.1,0,0,1,.2-1.8c.2-.7.4-1.4.7-2.2s.7-1.5,1.1-2.1a8.7,8.7,0,0,1,1.6-1.7,3.2,3.2,0,0,1,1.8-.6,2.8,2.8,0,0,1,2.3,1.4,40.3,40.3,0,0,0,1.2-6.9C143.1,81.7,143.3,81.5,143.7,81.5Zm-6.5,14.7a4.3,4.3,0,0,0,1.9-.9,5.7,5.7,0,0,0,1.9-2.4v-.8a1.7,1.7,0,0,0-.4-1.1c-.3-.4-.5-.5-.7-.5a1.6,1.6,0,0,0-1.3.7,6.2,6.2,0,0,0-1,1.6,9.7,9.7,0,0,0-.7,3.2v.2Z"/><path d="M148.6,87.7a1.6,1.6,0,0,1,1.4.9,2.7,2.7,0,0,1,.6,1.7,21.4,21.4,0,0,1-.7,3l-1.5,4.9a1.2,1.2,0,0,1-1.1.8,1.2,1.2,0,0,1-1.2-1.3,24.3,24.3,0,0,1,.5-2.9c.4-1.6.7-2.9.9-4s.4-1.9.5-2.4S148.4,87.7,148.6,87.7Zm-.3-2.8a1.8,1.8,0,0,1,.5-1.1c.4-.5.7-.7,1-.7s.8.4,1.2,1.2a3.8,3.8,0,0,1,.7,1.8,1.1,1.1,0,0,1-.3.8,1.3,1.3,0,0,1-.8.3,3.9,3.9,0,0,1-2.3-2.3Z"/><path d="M166.7,87.7c.6,0,1,.4,1.4,1.1a4.8,4.8,0,0,1,.6,2.1,12.3,12.3,0,0,1-.4,2.8,13.7,13.7,0,0,1-1.1,3.6c-.5,1.2-1.1,1.7-1.7,1.7s-.7-.3-.7-1a21.2,21.2,0,0,1,.5-3.2,15.9,15.9,0,0,0,.6-2.9c0-.5-.1-.7-.2-.7s-.7.3-1.1,1a26.7,26.7,0,0,0-1.5,2.7,14.1,14.1,0,0,0-1.1,2.2l-.4.7-.3.6c-.5.8-1.1.8-1.9,0a1.5,1.5,0,0,1-.6-1.1,14.5,14.5,0,0,1,.4-1.6,20.5,20.5,0,0,0,.3-3.7c0-.6,0-.8-.2-.8s-.3.1-.6.5l-1.1,1.9c-.4.9-.9,1.7-1.2,2.3s-2.2,3.1-2.8,3.1-.7-.2-1.2-.8a1.9,1.9,0,0,1-.7-1.2,7,7,0,0,1,.5-2.1,18.2,18.2,0,0,0,.6-3.5c.1-1.2.2-2.2.3-2.9s.2-1,.5-1a2.3,2.3,0,0,1,1.6.7c.5.5.8.9.8,1.3a17.6,17.6,0,0,1-1,4.5,26.4,26.4,0,0,1,2.6-5,3.1,3.1,0,0,1,2.2-1.3c.4,0,.8.3,1.4,1a3,3,0,0,1,.8,2v1.6a12.6,12.6,0,0,1,2.1-3.2A4,4,0,0,1,166.7,87.7Z"/><path d="M178.3,93.7a5.8,5.8,0,0,1-3,.9l-2.5-.2a2.5,2.5,0,0,0-.2,1.2c0,.4,0,.6.2.8s.4.3.9.3a8.5,8.5,0,0,0,2.9-.4l1.2-.3q.9,0,.9.6c0,.6-.5,1.1-1.4,1.7a7.2,7.2,0,0,1-3.3.7,4.4,4.4,0,0,1-3-1.1,4.1,4.1,0,0,1-1.1-2.8,6.8,6.8,0,0,1,.9-3.3,8.7,8.7,0,0,1,2.4-2.9,4.1,4.1,0,0,1,2.8-1.2,3.3,3.3,0,0,1,2.6,1.4,4.1,4.1,0,0,1,1.2,2.7A2.3,2.3,0,0,1,178.3,93.7Zm-1.6-2.9a1.2,1.2,0,0,0-.8-.4c-.3,0-.6.2-1.1.6l-1.2,1.5h.6c2,0,3-.4,3-1.1S177,91.1,176.7,90.8Z"/><path d="M188.7,87.7a2.3,2.3,0,0,1,2,1,3.3,3.3,0,0,1,.9,2.2,14.3,14.3,0,0,1-.6,3.9,10.3,10.3,0,0,1-1.3,3.1c-.5.8-1,1.1-1.5,1.1s-.7-.3-.7-1a13.1,13.1,0,0,1,.7-3.2,11.6,11.6,0,0,0,.6-2.8c0-.6-.1-.9-.2-.9a.9.9,0,0,0-.6.3l-.5.5-.4.6-.4.6-.4.7a4.3,4.3,0,0,1-.4.7l-.4.7c-1.3,2.6-2.4,3.8-3.2,3.8s-.7-.2-1.2-.8a3,3,0,0,1-.7-1.1,2.4,2.4,0,0,1,.4-1.1l.4-1.2.3-.9c0-.4.1-.7.1-1.1a3.1,3.1,0,0,0,.1-.9c0-.2.1-.5.1-.9a18.4,18.4,0,0,1,.3-3.2c.1-.2.2-.3.4-.3a2.3,2.3,0,0,1,1.6.7,1.9,1.9,0,0,1,.7,1.3,14.6,14.6,0,0,1-.7,3.9c1-1.7,1.9-3.1,2.6-4.1S188.2,87.7,188.7,87.7Z"/><path d="M199.8,87.7a2.2,2.2,0,0,1,1.7,1,3.1,3.1,0,0,1,.8,1.8.5.5,0,0,1-.5.5l-.7-.2-1.1-.2-1.5.3c-.6.3-1,.6-1,1s.2.3.6.6l1.3.9a3.7,3.7,0,0,1,1.3,1.2,2.7,2.7,0,0,1,.6,1.7c0,.6-.4,1.2-1.3,1.8a5.4,5.4,0,0,1-3.1.9,5.1,5.1,0,0,1-3.1-.8c-.9-.5-1.3-1.1-1.3-1.7s.2-.8.7-.8l.7.2a5.4,5.4,0,0,0,2.7.6c1.1,0,1.7-.1,1.7-.4s-.2-.6-.7-1l-1.3-1L194.9,93a2.2,2.2,0,0,1-.6-1.3c0-.8.7-1.7,2.1-2.6A7.8,7.8,0,0,1,199.8,87.7Z"/><path d="M205.6,87.7a1.7,1.7,0,0,1,1.4.9,2.7,2.7,0,0,1,.6,1.7c0,.2-.3,1.2-.8,3l-1.5,4.9a1.1,1.1,0,0,1-1.1.8.9.9,0,0,1-.8-.4,1,1,0,0,1-.4-.9,15.9,15.9,0,0,1,.6-2.9l.8-4a13.6,13.6,0,0,1,.6-2.4C205.1,87.9,205.3,87.7,205.6,87.7Zm-.4-2.8a1.5,1.5,0,0,1,.6-1.1c.3-.5.6-.7,1-.7s.7.4,1.2,1.2a4.6,4.6,0,0,1,.6,1.8,1.1,1.1,0,0,1-.3.8l-.7.3a2,2,0,0,1-1.5-.9A2.1,2.1,0,0,1,205.2,84.9Z"/><path d="M210.4,90.1c1.1-1.6,2.3-2.4,3.4-2.4a3.7,3.7,0,0,1,2.8,1.1,3.9,3.9,0,0,1,1.1,2.9A7.8,7.8,0,0,1,217,95a8.2,8.2,0,0,1-2.3,2.9,4.3,4.3,0,0,1-3,1.1,2.6,2.6,0,0,1-2.1-1,4.2,4.2,0,0,1-.9-2.7A9.5,9.5,0,0,1,210.4,90.1Zm3.6,4.6a6.4,6.4,0,0,0,.9-3.1,4.1,4.1,0,0,0-.4-1.9,5.1,5.1,0,0,0-1.9,2.3,7.1,7.1,0,0,0-.9,3.1c0,.9,0,1.5.2,1.7A5.3,5.3,0,0,0,214,94.7Z"/><path d="M226.9,87.7a2.6,2.6,0,0,1,2.1,1,3.7,3.7,0,0,1,.8,2.2,14.3,14.3,0,0,1-.6,3.9,10.3,10.3,0,0,1-1.3,3.1c-.5.8-1,1.1-1.5,1.1s-.7-.3-.7-1a21.4,21.4,0,0,1,.7-3.2A11.6,11.6,0,0,0,227,92c0-.6-.1-.9-.2-.9a.9.9,0,0,0-.6.3l-.4.5-.5.6-.3.6-.5.7a4.3,4.3,0,0,1-.4.7l-.4.7c-1.3,2.6-2.4,3.8-3.2,3.8s-.7-.2-1.1-.8-.8-.9-.8-1.1A5.1,5.1,0,0,1,219,96l.4-1.2.3-.9c0-.4.1-.7.1-1.1a3.1,3.1,0,0,0,.1-.9,2.2,2.2,0,0,0,.1-.9,14,14,0,0,1,.4-3.2.3.3,0,0,1,.3-.3,2.3,2.3,0,0,1,1.6.7,1.9,1.9,0,0,1,.7,1.3,14.6,14.6,0,0,1-.7,3.9,36.5,36.5,0,0,1,2.7-4.1C225.7,88.2,226.4,87.7,226.9,87.7Z"/><path d="M239.4,93.7a5.5,5.5,0,0,1-3,.9l-2.5-.2a5,5,0,0,0-.2,1.2,1.5,1.5,0,0,0,.2.8c.1.2.5.3,1,.3a7.9,7.9,0,0,0,2.8-.4l1.2-.3q.9,0,.9.6c0,.6-.4,1.1-1.4,1.7a6.7,6.7,0,0,1-3.3.7,4,4,0,0,1-2.9-1.1,3.8,3.8,0,0,1-1.2-2.8,6,6,0,0,1,1-3.3,8.5,8.5,0,0,1,2.3-2.9,4.3,4.3,0,0,1,2.8-1.2,3.3,3.3,0,0,1,2.6,1.4,4.1,4.1,0,0,1,1.2,2.7A2.3,2.3,0,0,1,239.4,93.7Zm-1.5-2.9a1.2,1.2,0,0,0-.9-.4c-.3,0-.6.2-1,.6a4.4,4.4,0,0,0-1.2,1.5h.5c2,0,3-.4,3-1.1S238.2,91.1,237.9,90.8Z"/><path d="M248.8,87.7a2.1,2.1,0,0,1,1.6,1,2.8,2.8,0,0,1,.9,1.8.5.5,0,0,1-.5.5l-.8-.2-1-.2-1.5.3c-.7.3-1,.6-1,1s.2.3.6.6l1.3.9a4.7,4.7,0,0,1,1.3,1.2,2.7,2.7,0,0,1,.6,1.7c0,.6-.5,1.2-1.4,1.8a5.4,5.4,0,0,1-3.1.9,5.3,5.3,0,0,1-3.1-.8,2.1,2.1,0,0,1-1.2-1.7c0-.5.2-.8.7-.8l.6.2a6.1,6.1,0,0,0,2.8.6c1.1,0,1.6-.1,1.6-.4s-.2-.6-.6-1l-1.4-1a6.9,6.9,0,0,1-1.3-1.1,2.4,2.4,0,0,1-.7-1.3c0-.8.8-1.7,2.2-2.6A7.3,7.3,0,0,1,248.8,87.7Z"/><path d="M269.9,81.5c.4,0,.8.3,1.4,1a2.4,2.4,0,0,1,.8,1.8,26.6,26.6,0,0,1-.7,3.4l-.9,3.7c-1.2,5.1-2.1,7.6-2.6,7.6a2.1,2.1,0,0,1-1.1-.5,1.8,1.8,0,0,1-.5-1.1v-.2c-1.5,1.2-2.5,1.8-3.2,1.8a2.4,2.4,0,0,1-1.8-1,3,3,0,0,1-.9-1.9,14.1,14.1,0,0,1,.2-1.8c.2-.7.4-1.4.7-2.2a14.3,14.3,0,0,1,1.2-2.1,6.1,6.1,0,0,1,1.5-1.7,3.2,3.2,0,0,1,1.8-.6,2.7,2.7,0,0,1,2.3,1.4,40.3,40.3,0,0,0,1.2-6.9C269.3,81.7,269.5,81.5,269.9,81.5Zm-6.5,14.7a4.3,4.3,0,0,0,1.9-.9,5.7,5.7,0,0,0,1.9-2.4v-.8a1.7,1.7,0,0,0-.4-1.1c-.3-.4-.5-.5-.7-.5a1.6,1.6,0,0,0-1.3.7,4.2,4.2,0,0,0-.9,1.6,10.5,10.5,0,0,0-.8,3.2v.2Z"/><path d="M280.8,93.7a5.8,5.8,0,0,1-3,.9l-2.6-.2a5,5,0,0,0-.2,1.2,1.5,1.5,0,0,0,.2.8,1.3,1.3,0,0,0,1,.3,7.5,7.5,0,0,0,2.8-.4l1.3-.3q.9,0,.9.6c0,.6-.5,1.1-1.5,1.7a6.6,6.6,0,0,1-3.2.7,4.1,4.1,0,0,1-3-1.1,3.7,3.7,0,0,1-1.1-2.8,6.8,6.8,0,0,1,.9-3.3,8.5,8.5,0,0,1,2.3-2.9,4.6,4.6,0,0,1,2.9-1.2,3.1,3.1,0,0,1,2.5,1.4,4.1,4.1,0,0,1,1.2,2.7A2.3,2.3,0,0,1,280.8,93.7Zm-1.6-2.9a1.2,1.2,0,0,0-.9-.4,1.8,1.8,0,0,0-1,.6,9.8,9.8,0,0,0-1.2,1.5h.6c2,0,3-.4,3-1.1S279.5,91.1,279.2,90.8Z"/><path d="M290.1,87.7a2.2,2.2,0,0,1,1.7,1,3.1,3.1,0,0,1,.8,1.8.5.5,0,0,1-.5.5l-.7-.2-1.1-.2-1.5.3c-.7.3-1,.6-1,1l.6.6,1.3.9a3.7,3.7,0,0,1,1.3,1.2,2.7,2.7,0,0,1,.6,1.7c0,.6-.4,1.2-1.3,1.8a5.7,5.7,0,0,1-3.2.9,4.8,4.8,0,0,1-3-.8c-.9-.5-1.3-1.1-1.3-1.7s.2-.8.7-.8l.7.2a5.4,5.4,0,0,0,2.7.6c1.1,0,1.7-.1,1.7-.4s-.2-.6-.7-1l-1.3-1L285.2,93a2.2,2.2,0,0,1-.6-1.3c0-.8.7-1.7,2.1-2.6A7.8,7.8,0,0,1,290.1,87.7Z"/><path d="M302.8,81.5c.3,0,.8.3,1.4,1a2.9,2.9,0,0,1,.8,1.8,19.8,19.8,0,0,1-.8,3.4l-.9,3.7c-1.2,5.1-2,7.6-2.6,7.6a1.9,1.9,0,0,1-1-.5,1.5,1.5,0,0,1-.6-1.1c0-.1,0-.1.1-.2-1.5,1.2-2.6,1.8-3.2,1.8a2.4,2.4,0,0,1-1.8-1,3,3,0,0,1-.9-1.9,6.2,6.2,0,0,1,.2-1.8c.2-.7.4-1.4.7-2.2a13.9,13.9,0,0,1,1.1-2.1,6.1,6.1,0,0,1,1.5-1.7,3.3,3.3,0,0,1,1.9-.6,2.8,2.8,0,0,1,2.3,1.4c.8-3.5,1.2-5.8,1.1-6.9S302.3,81.5,302.8,81.5Zm-6.5,14.7a4.1,4.1,0,0,0,1.8-.9,5.2,5.2,0,0,0,2-2.4v-.8a2.5,2.5,0,0,0-.4-1.1c-.3-.4-.5-.5-.8-.5a1.5,1.5,0,0,0-1.2.7,6.2,6.2,0,0,0-1,1.6A9.7,9.7,0,0,0,296,96v.2Z"/><path d="M313.6,93.7a5.3,5.3,0,0,1-3,.9l-2.5-.2a5,5,0,0,0-.2,1.2,1.5,1.5,0,0,0,.2.8c.1.2.5.3,1,.3a7.9,7.9,0,0,0,2.8-.4l1.2-.3q.9,0,.9.6c0,.6-.4,1.1-1.4,1.7a6.7,6.7,0,0,1-3.3.7,4,4,0,0,1-2.9-1.1,3.8,3.8,0,0,1-1.2-2.8,6,6,0,0,1,1-3.3,8.5,8.5,0,0,1,2.3-2.9,4.5,4.5,0,0,1,2.8-1.2,3.3,3.3,0,0,1,2.6,1.4,4.1,4.1,0,0,1,1.2,2.7A2.3,2.3,0,0,1,313.6,93.7Zm-1.5-2.9a1.2,1.2,0,0,0-.9-.4c-.3,0-.6.2-1,.6a4.4,4.4,0,0,0-1.2,1.5h.5c2,0,3-.4,3-1.1S312.4,91.1,312.1,90.8Z"/><path d="M328.9,82.5a2.4,2.4,0,0,1,.8,1.8,22.8,22.8,0,0,1-.2,3.2q-.3,2.3-.6,3.6c-1.2,5.3-2,7.9-2.5,7.9a1.9,1.9,0,0,1-1.2-.7,2.3,2.3,0,0,1-.7-1.3l.6-2.3c.4-1.5.8-3.4,1.2-5.8a40.6,40.6,0,0,0,.6-6.7c0-.5.2-.7.6-.7S328.3,81.8,328.9,82.5Z"/><path d="M339.6,92.8a.7.7,0,0,1,.4.6c0,.2-.1.6-.2,1.2l-.4,1.4c0,.3-.1.6-.1.8a.8.8,0,0,0-.1.4.6.6,0,0,1-.1.4c0,.2,0,.3-.1.4a.8.8,0,0,1-.1.4c0,.1,0,.2-.1.2s-.1.2-.1.3h-.5c-.2,0-.4-.2-.7-.6a3.5,3.5,0,0,1-.7-1.5c-1.4,1.4-2.5,2.1-3.5,2.1a2.9,2.9,0,0,1-2-1,2.7,2.7,0,0,1-1.1-2.1,7.9,7.9,0,0,1,.9-3,15,15,0,0,1,2.6-3.6,4.7,4.7,0,0,1,3.3-1.6,3.1,3.1,0,0,1,2.1,1.1,2.7,2.7,0,0,1,1.2,1.9A4,4,0,0,1,339.6,92.8Zm-6.4,3.5a4.4,4.4,0,0,0,2.4-1.2,4.7,4.7,0,0,0,1.8-3.1c0-.1.1-.2.4-.3s-.2-1.2-.4-1.2a3.1,3.1,0,0,0-2,1.1,14.4,14.4,0,0,0-1.8,2.5,4,4,0,0,0-.7,1.9c0,.1,0,.2.1.2Z"/><path d="M348.5,87.7a2.2,2.2,0,0,1,1.7,1,3.1,3.1,0,0,1,.8,1.8.5.5,0,0,1-.5.5l-.7-.2-1.1-.2-1.5.3c-.6.3-1,.6-1,1s.2.3.6.6l1.3.9a3.7,3.7,0,0,1,1.3,1.2,2.7,2.7,0,0,1,.6,1.7c0,.6-.4,1.2-1.3,1.8a5.7,5.7,0,0,1-3.2.9,5,5,0,0,1-3-.8c-.9-.5-1.3-1.1-1.3-1.7s.2-.8.7-.8l.7.2a5.4,5.4,0,0,0,2.7.6c1.1,0,1.7-.1,1.7-.4s-.2-.6-.7-1l-1.3-1L343.6,93a2.2,2.2,0,0,1-.6-1.3c0-.8.7-1.7,2.1-2.6A7.8,7.8,0,0,1,348.5,87.7Z"/><path d="M126,122a7.9,7.9,0,0,1,.9-3.4,11.4,11.4,0,0,1,2.6-3.2,4.7,4.7,0,0,1,3.1-1.3,2.2,2.2,0,0,1,1.6,1,3.4,3.4,0,0,1,.8,1.8.5.5,0,0,1-.6.6l-.7-.3-.9-.2a2.9,2.9,0,0,0-1.4.8,10.8,10.8,0,0,0-1.6,2,5.3,5.3,0,0,0-.7,1.8,1.2,1.2,0,0,0,.3.9l1.2.2,1.8-.2,1.2-.4.7-.2a.5.5,0,0,1,.6.6c0,.6-.6,1.3-1.7,1.9a6.3,6.3,0,0,1-3.4,1,3.9,3.9,0,0,1-2.4-1.2A2.9,2.9,0,0,1,126,122Z"/><path d="M144.5,114.6a.7.7,0,0,1,.7-.5q.5,0,1.2.9a3.3,3.3,0,0,1,.7,1.5c0,.2-.4,1.3-1,3.3l-1.6,4.7c-.2.6-.5.9-1,.9a1.1,1.1,0,0,1-.8-.3,1.3,1.3,0,0,1-.3-1,8.9,8.9,0,0,1,.3-1.9c-1.5,2.1-2.7,3.2-3.6,3.2a2.8,2.8,0,0,1-1.7-.9,2.4,2.4,0,0,1-1-1.8,15.6,15.6,0,0,1,1.2-5.3c.8-2.2,1.6-3.3,2.3-3.3a1.4,1.4,0,0,1,1.1.6,1.8,1.8,0,0,1,.5,1.2,5.3,5.3,0,0,1-.6,1.5,14.4,14.4,0,0,0-1.6,5.1h.1c.2,0,.6-.3,1.2-1a24.5,24.5,0,0,0,2.1-3A28.7,28.7,0,0,0,144.5,114.6Z"/><path d="M156.8,119.2c.2.2.4.4.4.6a4.9,4.9,0,0,1-.3,1.2,5,5,0,0,0-.3,1.4c-.1.3-.1.6-.2.8s0,.3-.1.4v.4a.8.8,0,0,0-.1.4c0,.1-.1.2-.1.4v.2l-.2.3h-.4c-.2,0-.5-.2-.8-.6a5.2,5.2,0,0,1-.7-1.5c-1.3,1.4-2.5,2.1-3.4,2.1a3.7,3.7,0,0,1-3.2-3.1,6.9,6.9,0,0,1,1-3,14.5,14.5,0,0,1,2.5-3.6,4.7,4.7,0,0,1,3.3-1.6,3.1,3.1,0,0,1,2.1,1.1,2.7,2.7,0,0,1,1.2,1.9A4.8,4.8,0,0,1,156.8,119.2Zm-6.4,3.5a4.2,4.2,0,0,0,2.3-1.2,4.7,4.7,0,0,0,1.8-3.1c0-.1.2-.2.4-.3s-.2-1.2-.4-1.2a3.1,3.1,0,0,0-2,1.1,14.4,14.4,0,0,0-1.8,2.5,5.6,5.6,0,0,0-.7,1.9v.2Z"/><path d="M163.1,108.9a2.6,2.6,0,0,1,.9,1.8,28.6,28.6,0,0,1-.3,3.2q-.3,2.3-.6,3.6c-1.2,5.3-2,7.9-2.5,7.9a1.9,1.9,0,0,1-1.2-.7,2.3,2.3,0,0,1-.7-1.3c0-.1.2-.8.6-2.3s.8-3.4,1.2-5.8a40.6,40.6,0,0,0,.6-6.7c0-.5.2-.7.7-.7S162.6,108.2,163.1,108.9Z"/><path d="M172.9,120.1a5.8,5.8,0,0,1-3,.9l-2.5-.2a2.5,2.5,0,0,0-.2,1.2c0,.4,0,.6.2.8s.4.3,1,.3a7.9,7.9,0,0,0,2.8-.4l1.2-.3q.9,0,.9.6c0,.6-.5,1.1-1.4,1.7a7.2,7.2,0,0,1-3.3.7,4.4,4.4,0,0,1-3-1.1,4.1,4.1,0,0,1-1.1-2.8,6.8,6.8,0,0,1,.9-3.3,8.7,8.7,0,0,1,2.4-2.9,4.3,4.3,0,0,1,2.8-1.2,3.3,3.3,0,0,1,2.6,1.4,4.1,4.1,0,0,1,1.2,2.7A2.3,2.3,0,0,1,172.9,120.1Zm-1.6-2.9a1.2,1.2,0,0,0-.8-.4c-.3,0-.6.2-1.1.6a9.8,9.8,0,0,0-1.2,1.5h.6c2,0,3-.4,3-1.1S171.7,117.5,171.3,117.2Z"/><path d="M182.3,114.1a2.1,2.1,0,0,1,1.6,1,3.1,3.1,0,0,1,.8,1.8c0,.3-.1.5-.4.5l-.8-.2-1-.2-1.6.3c-.6.3-1,.6-1,1s.2.3.6.6l1.3.9a3.7,3.7,0,0,1,1.3,1.2,2.7,2.7,0,0,1,.6,1.7c0,.6-.4,1.2-1.3,1.8a5.4,5.4,0,0,1-3.1.9,5.3,5.3,0,0,1-3.1-.8c-.8-.5-1.3-1.1-1.3-1.7a.7.7,0,0,1,.7-.8l.7.2a5.8,5.8,0,0,0,2.8.6c1,0,1.6-.1,1.6-.4s-.2-.6-.6-1l-1.4-1-1.4-1.1a2.2,2.2,0,0,1-.6-1.3c0-.8.7-1.7,2.2-2.6A7,7,0,0,1,182.3,114.1Z"/><path d="M203.1,109.3c.4,0,.8.3,1.3,1a4.2,4.2,0,0,1,.8,1.8c0,.5-.1.7-.3.7h-1.3a3.8,3.8,0,0,0-2.6,1.4,12,12,0,0,0-2.5,3.3,8.2,8.2,0,0,0-1.1,3.4,1.8,1.8,0,0,0,.3,1.1.8.8,0,0,0,.7.3,10.6,10.6,0,0,0,3.1-.5l2.6-.9,1.2-.5.2.3a.8.8,0,0,1,.2.6c0,.5-.4,1.1-1.2,1.7a11.9,11.9,0,0,1-2.9,1.8,7.2,7.2,0,0,1-3,.7,4.1,4.1,0,0,1-2.9-1.6,4.9,4.9,0,0,1-1.5-3.2,10.8,10.8,0,0,1,1.3-4.8,17.5,17.5,0,0,1,3.5-4.6A6.1,6.1,0,0,1,203.1,109.3Z"/><path d="M209.1,116.5c1.2-1.6,2.3-2.4,3.4-2.4a3.6,3.6,0,0,1,2.8,1.1,4,4,0,0,1,1.2,2.9,8.6,8.6,0,0,1-3,6.2,4.7,4.7,0,0,1-3.1,1.1,2.6,2.6,0,0,1-2.1-1,4.2,4.2,0,0,1-.9-2.7A9.5,9.5,0,0,1,209.1,116.5Zm3.6,4.6a6.4,6.4,0,0,0,.9-3.1,3.2,3.2,0,0,0-.4-1.9,5.8,5.8,0,0,0-1.9,2.3,7.1,7.1,0,0,0-.9,3.1,2.9,2.9,0,0,0,.3,1.7A5.8,5.8,0,0,0,212.7,121.1Z"/><path d="M225.7,114.1a2.6,2.6,0,0,1,2,1,3.3,3.3,0,0,1,.9,2.2,14.3,14.3,0,0,1-.6,3.9,10.1,10.1,0,0,1-1.4,3.1c-.4.8-.9,1.1-1.4,1.1s-.8-.3-.8-1a15.4,15.4,0,0,1,.8-3.2,16.6,16.6,0,0,0,.5-2.8c0-.6,0-.9-.2-.9a.9.9,0,0,0-.6.3l-.4.5a1.5,1.5,0,0,0-.4.6l-.4.6a4.3,4.3,0,0,0-.4.7l-.4.7a4.3,4.3,0,0,0-.4.7c-1.4,2.6-2.5,3.8-3.2,3.8s-.7-.2-1.2-.8a2,2,0,0,1-.7-1.1,3.6,3.6,0,0,1,.3-1.1l.5-1.2c.1-.3.1-.6.2-.9s.1-.7.2-1.1.1-.6.1-.9a3.4,3.4,0,0,1,.1-.9,18.4,18.4,0,0,1,.3-3.2q.2-.3.3-.3a2.1,2.1,0,0,1,1.6.7c.5.5.8.9.8,1.3a14.6,14.6,0,0,1-.7,3.9,26.8,26.8,0,0,1,2.6-4.1C224.5,114.6,225.1,114.1,225.7,114.1Z"/><path d="M237.1,111q-.6,0-.9,1.2a22.6,22.6,0,0,0-.9,3.4l3.9-.2c1.1,0,1.6.4,1.6,1.2a4.9,4.9,0,0,1-.3,1.5l-.9,2.8c-.5,1.2-.9,2.4-1.3,3.7a.9.9,0,0,1-.4.6c-.1.2-.4.2-.7.2a.9.9,0,0,1-.8-.4,1.8,1.8,0,0,1-.4-1.1,24.4,24.4,0,0,1,.7-3.1c.4-1.7.6-2.7.7-3l-2.8.4a60.1,60.1,0,0,1-1.5,6c-.3.8-.7,1.2-1,1.2s-.6-.2-1-.7a1.8,1.8,0,0,1-.6-1,2.9,2.9,0,0,1,.2-.9,34.4,34.4,0,0,0,1.1-4.1h-1.3a1.4,1.4,0,0,1-1-.5,2.1,2.1,0,0,1-.5-1.2c0-.2.3-.5.8-.7l2.5-.6a14.1,14.1,0,0,1,1.8-5.8,3.5,3.5,0,0,1,3.2-1.7,4.8,4.8,0,0,1,2.6,1,2.7,2.7,0,0,1,1.5,2.3,2.6,2.6,0,0,1-.3,1.4.9.9,0,0,1-.8.6,1.4,1.4,0,0,1-.9-.5,3,3,0,0,1-.8-.8C237.9,111.4,237.4,111,237.1,111Z"/><path d="M250.5,119.2a.7.7,0,0,1,.4.6c0,.2-.1.6-.2,1.2s-.3,1.1-.4,1.4a2.5,2.5,0,0,0-.1.8.8.8,0,0,0-.1.4c0,.1-.1.3-.1.4s-.1.3-.1.4a.8.8,0,0,1-.1.4.3.3,0,0,1-.1.2l-.2.3c0,.1-.2.1-.4.1s-.4-.2-.7-.6a3.5,3.5,0,0,1-.7-1.5c-1.4,1.4-2.6,2.1-3.5,2.1a2.9,2.9,0,0,1-2-1,2.7,2.7,0,0,1-1.1-2.1,7.9,7.9,0,0,1,.9-3,12.7,12.7,0,0,1,2.6-3.6,4.7,4.7,0,0,1,3.2-1.6,3.1,3.1,0,0,1,2.2,1.1,2.7,2.7,0,0,1,1.2,1.9A4,4,0,0,1,250.5,119.2Zm-6.4,3.5a4.4,4.4,0,0,0,2.4-1.2,5.7,5.7,0,0,0,1.8-3.1q0-.2.3-.3c0-.8-.1-1.2-.4-1.2a2.9,2.9,0,0,0-1.9,1.1,8.3,8.3,0,0,0-1.8,2.5,4,4,0,0,0-.7,1.9v.2Z"/><path d="M253.6,117.8v-2.5c0-.8.2-1.2.7-1.2a1.6,1.6,0,0,1,.9.3,2.6,2.6,0,0,1,.7,1,5.4,5.4,0,0,1,1.6-1,3.4,3.4,0,0,1,1.6-.4c1,0,1.6.2,1.6.7a.8.8,0,0,1-.2.6l-.2.3c0,.1-.1.1-.3.2l-.2.2-.8.5a5.7,5.7,0,0,0-1.6,1.5,5.3,5.3,0,0,0-1.1,2.4,21.6,21.6,0,0,1-1.2,3.8c-.3.8-.8,1.2-1.2,1.2a1,1,0,0,1-1-.7,1.9,1.9,0,0,1-.4-1.2,7.9,7.9,0,0,1,.4-1.7,11.5,11.5,0,0,0,.6-2.1A10.1,10.1,0,0,0,253.6,117.8Z"/><path d="M270,117.8v-2.5c0-.8.3-1.2.8-1.2a1.1,1.1,0,0,1,.8.3,2.6,2.6,0,0,1,.7,1,5.4,5.4,0,0,1,1.6-1,3.4,3.4,0,0,1,1.6-.4c1.1,0,1.6.2,1.6.7s0,.5-.1.6l-.3.3c0,.1-.1.1-.2.2l-.3.2-.7.5a6.1,6.1,0,0,0-1.7,1.5,6.7,6.7,0,0,0-1.1,2.4c-.4,1.7-.8,2.9-1.1,3.8s-.8,1.2-1.3,1.2a1,1,0,0,1-1-.7,2.8,2.8,0,0,1-.4-1.2,5.1,5.1,0,0,1,.5-1.7,11.5,11.5,0,0,0,.6-2.1A10.9,10.9,0,0,0,270,117.8Z"/><path d="M285.2,120.1a5.8,5.8,0,0,1-3,.9l-2.6-.2a5,5,0,0,0-.2,1.2,1.5,1.5,0,0,0,.2.8,1.3,1.3,0,0,0,1,.3,8.5,8.5,0,0,0,2.9-.4l1.2-.3q.9,0,.9.6c0,.6-.5,1.1-1.4,1.7a7.2,7.2,0,0,1-3.3.7,4.2,4.2,0,0,1-3-1.1,4.1,4.1,0,0,1-1.1-2.8,6.8,6.8,0,0,1,.9-3.3,7.6,7.6,0,0,1,2.4-2.9,4.1,4.1,0,0,1,2.8-1.2,3.3,3.3,0,0,1,2.6,1.4,4.5,4.5,0,0,1,1.1,2.7A2.2,2.2,0,0,1,285.2,120.1Zm-1.6-2.9a1.2,1.2,0,0,0-.8-.4,1.7,1.7,0,0,0-1.1.6,9.8,9.8,0,0,0-1.2,1.5h.6c2,0,3-.4,3-1.1Z"/><path d="M296.9,119.2c.2.2.4.4.4.6a4.9,4.9,0,0,1-.3,1.2,5,5,0,0,0-.3,1.4,3.1,3.1,0,0,0-.2.8c0,.2-.1.3-.1.4v.4a.8.8,0,0,0-.1.4c-.1.1-.1.2-.1.4v.2l-.2.3h-.4c-.2,0-.5-.2-.8-.6a5.2,5.2,0,0,1-.7-1.5c-1.3,1.4-2.5,2.1-3.4,2.1a2.9,2.9,0,0,1-2.1-1,3.1,3.1,0,0,1-1.1-2.1,6.9,6.9,0,0,1,1-3,12.3,12.3,0,0,1,2.5-3.6,4.7,4.7,0,0,1,3.3-1.6,3.1,3.1,0,0,1,2.1,1.1,2.7,2.7,0,0,1,1.2,1.9A4.8,4.8,0,0,1,296.9,119.2Zm-6.4,3.5a4.2,4.2,0,0,0,2.3-1.2,4.7,4.7,0,0,0,1.8-3.1c0-.1.2-.2.4-.3s-.2-1.2-.4-1.2a3.1,3.1,0,0,0-2,1.1,14.4,14.4,0,0,0-1.8,2.5,5.6,5.6,0,0,0-.7,1.9v.2Z"/><path d="M303.2,108.9a2.4,2.4,0,0,1,.8,1.8,22.8,22.8,0,0,1-.2,3.2q-.3,2.3-.6,3.6c-1.2,5.3-2,7.9-2.5,7.9a1.9,1.9,0,0,1-1.2-.7,2.3,2.3,0,0,1-.7-1.3c0-.1.2-.8.6-2.3s.8-3.4,1.2-5.8a40.6,40.6,0,0,0,.6-6.7c0-.5.2-.7.6-.7S302.6,108.2,303.2,108.9Z"/><path d="M307.1,114.1c.5,0,.9.3,1.4.9a2.7,2.7,0,0,1,.6,1.7c0,.2-.3,1.2-.8,3l-1.5,4.9a1.1,1.1,0,0,1-1.1.8.9.9,0,0,1-.8-.4,1,1,0,0,1-.4-.9,15.9,15.9,0,0,1,.6-2.9c.3-1.6.6-2.9.8-4a13.6,13.6,0,0,1,.6-2.4C306.6,114.3,306.8,114.1,307.1,114.1Zm-.4-2.8a1.5,1.5,0,0,1,.6-1.1c.3-.5.6-.7,1-.7s.7.4,1.2,1.2a4.6,4.6,0,0,1,.6,1.8,1.1,1.1,0,0,1-.3.8l-.7.3a2,2,0,0,1-1.5-.9A2.1,2.1,0,0,1,306.7,111.3Z"/><path d="M313.6,122.6h4.8a1.2,1.2,0,0,1,.8.2.6.6,0,0,1,.3.6c0,.7-.6,1.2-1.9,1.6a17.3,17.3,0,0,1-4.9.6,3,3,0,0,1-2-1,2.5,2.5,0,0,1-.9-1.5,2.3,2.3,0,0,1,1.1-1.6,14.6,14.6,0,0,1,2.4-1.7l2.5-1.5a2.8,2.8,0,0,0,1.1-.9q0-.3-1.2-.3l-1.9.2h-1.2c-.3,0-.7-.3-1.1-.8a2.2,2.2,0,0,1-.6-1.2c0-.4.4-.7,1.1-.9a10.1,10.1,0,0,1,2.5-.3,11.3,11.3,0,0,1,3,.4,2.7,2.7,0,0,1,1.4,1.1,3.5,3.5,0,0,1,.7,1.4,3.4,3.4,0,0,1-1,2,12,12,0,0,1-2.1,1.7l-2.1,1.2-1,.7Z"/><path d="M330.2,119.2a.7.7,0,0,1,.4.6c0,.2-.1.6-.2,1.2s-.3,1.1-.4,1.4a2.5,2.5,0,0,0-.1.8.8.8,0,0,0-.1.4c0,.1-.1.3-.1.4s-.1.3-.1.4a.8.8,0,0,1-.1.4c0,.1,0,.2-.1.2v.3h-.5c-.2,0-.4-.2-.7-.6a3.5,3.5,0,0,1-.7-1.5c-1.4,1.4-2.6,2.1-3.5,2.1a2.9,2.9,0,0,1-2-1,2.7,2.7,0,0,1-1.1-2.1,7.9,7.9,0,0,1,.9-3,12.7,12.7,0,0,1,2.6-3.6,4.7,4.7,0,0,1,3.2-1.6,3.1,3.1,0,0,1,2.2,1.1,2.7,2.7,0,0,1,1.2,1.9A4,4,0,0,1,330.2,119.2Zm-6.4,3.5a4.4,4.4,0,0,0,2.4-1.2,5.7,5.7,0,0,0,1.8-3.1c0-.1.1-.2.4-.3s-.2-1.2-.5-1.2A2.9,2.9,0,0,0,326,118a8.3,8.3,0,0,0-1.8,2.5,4,4,0,0,0-.7,1.9v.2Z"/><path d="M347.6,114.1a2.1,2.1,0,0,1,1.6,1,2.6,2.6,0,0,1,.8,1.8c0,.3-.1.5-.4.5l-.8-.2-1-.2-1.5.3c-.7.3-1,.6-1,1s.2.3.6.6l1.3.9a4.7,4.7,0,0,1,1.3,1.2,2.7,2.7,0,0,1,.6,1.7c0,.6-.5,1.2-1.4,1.8a5.4,5.4,0,0,1-3.1.9,5.3,5.3,0,0,1-3.1-.8,2.1,2.1,0,0,1-1.2-1.7c0-.5.2-.8.7-.8l.6.2a6.1,6.1,0,0,0,2.8.6c1.1,0,1.6-.1,1.6-.4s-.2-.6-.6-1l-1.4-1a6.9,6.9,0,0,1-1.3-1.1,1.9,1.9,0,0,1-.7-1.3c0-.8.8-1.7,2.2-2.6A7.3,7.3,0,0,1,347.6,114.1Z"/><path d="M358.6,114.6a.7.7,0,0,1,.7-.5q.4,0,1.2.9a3.3,3.3,0,0,1,.7,1.5c0,.2-.4,1.3-1,3.3l-1.6,4.7a1.1,1.1,0,0,1-1.8.6,1.3,1.3,0,0,1-.3-1,8.9,8.9,0,0,1,.3-1.9c-1.5,2.1-2.7,3.2-3.6,3.2a2.8,2.8,0,0,1-1.7-.9,2.4,2.4,0,0,1-1-1.8,15.6,15.6,0,0,1,1.2-5.3c.8-2.2,1.6-3.3,2.3-3.3a1.4,1.4,0,0,1,1.1.6,1.8,1.8,0,0,1,.5,1.2,5.3,5.3,0,0,1-.6,1.5,14.4,14.4,0,0,0-1.6,5.1h.1c.2,0,.6-.3,1.2-1a24.5,24.5,0,0,0,2.1-3A28.7,28.7,0,0,0,358.6,114.6Z"/><path d="M144,146.5a5.3,5.3,0,0,1-3,.9l-2.5-.2a5,5,0,0,0-.2,1.2,1.5,1.5,0,0,0,.2.8c.1.2.5.3,1,.3a7.9,7.9,0,0,0,2.8-.4l1.2-.3q.9,0,.9.6c0,.6-.4,1.1-1.4,1.7a6.7,6.7,0,0,1-3.3.7,4,4,0,0,1-2.9-1.1,3.8,3.8,0,0,1-1.2-2.8,6,6,0,0,1,1-3.3,8.5,8.5,0,0,1,2.3-2.9,4.5,4.5,0,0,1,2.8-1.2,3.1,3.1,0,0,1,2.6,1.4,4.1,4.1,0,0,1,1.2,2.7A2.3,2.3,0,0,1,144,146.5Zm-1.5-2.9a1.2,1.2,0,0,0-.9-.4c-.3,0-.6.2-1,.6a4.4,4.4,0,0,0-1.2,1.5h.5c2,0,3-.4,3-1.1S142.8,143.9,142.5,143.6Z"/><path d="M143.8,155.4q.8,0,1.5-2.4c.5-1.6,1.1-3.6,1.7-6.1s1-4.1,1.2-4.7a9.3,9.3,0,0,1,.5-1.4.5.5,0,0,1,.5-.3,1.9,1.9,0,0,1,1.3.8,3.2,3.2,0,0,1,.6,1.8c0,.3-.9,3.8-2.9,10.6a5.1,5.1,0,0,1-1.9,3,4,4,0,0,1-2.8,1,3.7,3.7,0,0,1-2.3-.9,2.6,2.6,0,0,1-1.1-1.7,1.9,1.9,0,0,1,.4-1.1c.2-.4.5-.7.7-.7s.6.3,1.1,1l.3.3A1.7,1.7,0,0,0,143.8,155.4Zm5.9-18.8c.3-.5.6-.7,1-.7s.7.4,1.2,1.2a4.9,4.9,0,0,1,.6,1.9.9.9,0,0,1-.3.7l-.7.3a2,2,0,0,1-1.5-.9,2.1,2.1,0,0,1-.9-1.4A1.5,1.5,0,0,1,149.7,136.6Z"/><path d="M160.5,146.5a5.8,5.8,0,0,1-3,.9l-2.5-.2a2.5,2.5,0,0,0-.2,1.2c0,.4,0,.6.2.8s.4.3.9.3a8.5,8.5,0,0,0,2.9-.4l1.2-.3q.9,0,.9.6c0,.6-.5,1.1-1.4,1.7a7.2,7.2,0,0,1-3.3.7,4.4,4.4,0,0,1-3-1.1,4.1,4.1,0,0,1-1.1-2.8,6.8,6.8,0,0,1,.9-3.3,7.6,7.6,0,0,1,2.4-2.9,4.1,4.1,0,0,1,2.8-1.2,3.3,3.3,0,0,1,2.6,1.4,3.9,3.9,0,0,1,1.1,2.7A2.2,2.2,0,0,1,160.5,146.5Zm-1.6-2.9a1.2,1.2,0,0,0-.8-.4,1.7,1.7,0,0,0-1.1.6,9.8,9.8,0,0,0-1.2,1.5h.6c2,0,3-.4,3-1.1Z"/><path d="M164,144.2v-2.5c0-.8.3-1.2.8-1.2a1.1,1.1,0,0,1,.8.3,2.6,2.6,0,0,1,.7,1,5.4,5.4,0,0,1,1.6-1,3.4,3.4,0,0,1,1.6-.4c1.1,0,1.6.2,1.6.7s0,.5-.1.6l-.3.3-.2.2-.3.2-.7.5a6.1,6.1,0,0,0-1.7,1.5,6.7,6.7,0,0,0-1.1,2.4,23,23,0,0,1-1.1,3.8c-.4.8-.8,1.2-1.3,1.2a1,1,0,0,1-1-.7,2.8,2.8,0,0,1-.4-1.2,5.1,5.1,0,0,1,.5-1.7,11.5,11.5,0,0,0,.6-2.1A10.9,10.9,0,0,0,164,144.2Z"/><path d="M170.8,148.4a6.9,6.9,0,0,1,1-3.4,11.1,11.1,0,0,1,2.5-3.2,4.7,4.7,0,0,1,3.1-1.3,2.2,2.2,0,0,1,1.6,1,3.4,3.4,0,0,1,.8,1.8c0,.4-.2.6-.5.6l-.8-.3-.9-.2a2.9,2.9,0,0,0-1.4.8,10.8,10.8,0,0,0-1.6,2,5.3,5.3,0,0,0-.7,1.8,1.2,1.2,0,0,0,.3.9l1.2.2,1.8-.2,1.2-.4.7-.2a.5.5,0,0,1,.6.6c0,.6-.6,1.3-1.7,1.9a6.3,6.3,0,0,1-3.4,1,3.9,3.9,0,0,1-2.4-1.2A2.9,2.9,0,0,1,170.8,148.4Z"/><path d="M184,140.5a1.7,1.7,0,0,1,1.4.9,2.7,2.7,0,0,1,.6,1.7,21.4,21.4,0,0,1-.7,3c-.6,1.7-1.1,3.3-1.6,4.9a1,1,0,0,1-1,.8,1.1,1.1,0,0,1-.9-.4,1.2,1.2,0,0,1-.3-.9,12.8,12.8,0,0,1,.5-2.9c.4-1.6.7-2.9.9-4s.4-1.9.5-2.4S183.8,140.5,184,140.5Zm-.3-2.8a1.8,1.8,0,0,1,.5-1.1c.4-.5.7-.7,1-.7s.8.4,1.2,1.2a3.8,3.8,0,0,1,.7,1.8A1.2,1.2,0,0,1,186,140a2.5,2.5,0,0,1-1.5-.9A2.3,2.3,0,0,1,183.7,137.7Z"/><path d="M187.3,148.4a7.9,7.9,0,0,1,.9-3.4,11.4,11.4,0,0,1,2.6-3.2,4.7,4.7,0,0,1,3.1-1.3,2.2,2.2,0,0,1,1.6,1,3.4,3.4,0,0,1,.8,1.8.5.5,0,0,1-.6.6l-.7-.3-.9-.2c-.4,0-.8.3-1.4.8a10.8,10.8,0,0,0-1.6,2,3.8,3.8,0,0,0-.7,1.8,1.2,1.2,0,0,0,.3.9,2.2,2.2,0,0,0,1.2.2l1.8-.2,1.2-.4.7-.2a.5.5,0,0,1,.6.6c0,.6-.6,1.3-1.7,1.9a6.3,6.3,0,0,1-3.4,1,4.3,4.3,0,0,1-2.5-1.2A3.1,3.1,0,0,1,187.3,148.4Z"/><path d="M200.5,140.5a1.7,1.7,0,0,1,1.4.9,2.7,2.7,0,0,1,.6,1.7c0,.2-.3,1.2-.8,3l-1.5,4.9a1.1,1.1,0,0,1-1.1.8.9.9,0,0,1-.8-.4,1.3,1.3,0,0,1-.4-.9,15.9,15.9,0,0,1,.6-2.9c.4-1.6.7-2.9.9-4a15.9,15.9,0,0,1,.5-2.4C200.1,140.7,200.3,140.5,200.5,140.5Zm-.3-2.8a1.8,1.8,0,0,1,.5-1.1,1.3,1.3,0,0,1,1-.7q.5,0,1.2,1.2a5.3,5.3,0,0,1,.7,1.8.9.9,0,0,1-.4.8,1.1,1.1,0,0,1-.7.3,2.5,2.5,0,0,1-1.5-.9A2.3,2.3,0,0,1,200.2,137.7Z"/><path d="M205.3,142.9c1.2-1.6,2.3-2.4,3.4-2.4a3.6,3.6,0,0,1,2.8,1.1,4,4,0,0,1,1.2,2.9,8.6,8.6,0,0,1-3,6.2,4.7,4.7,0,0,1-3.1,1.1,2.6,2.6,0,0,1-2.1-1,4.2,4.2,0,0,1-.9-2.7A9.5,9.5,0,0,1,205.3,142.9Zm3.6,4.6a6.4,6.4,0,0,0,.9-3.1,3.2,3.2,0,0,0-.4-1.9,5.8,5.8,0,0,0-1.9,2.3,7.1,7.1,0,0,0-.9,3.1,4.9,4.9,0,0,0,.2,1.7A5.3,5.3,0,0,0,208.9,147.5Z"/><path d="M230.2,140.5q.9,0,1.8,1.5a5.2,5.2,0,0,1,.9,2.9,4,4,0,0,1-.7,2,10.6,10.6,0,0,1-1.9,2.3,12,12,0,0,1-2.6,1.8,6.7,6.7,0,0,1-2.9.8h-.2c-.9,3.8-1.6,5.8-2,5.8s-.6-.3-1-.8a3.1,3.1,0,0,1-.5-1.3,16.5,16.5,0,0,1,.7-3.1,57.5,57.5,0,0,0,1.9-11.6c0-.5.2-.7.6-.7a2.4,2.4,0,0,1,1.3.6,2.1,2.1,0,0,1,1,1.6A5.6,5.6,0,0,1,230.2,140.5Zm-1.7,6.8a4.6,4.6,0,0,0,1.5-2.7q0-1.2-.6-1.2a3.1,3.1,0,0,0-2,1.1l-.9,1.3a19.5,19.5,0,0,0-.9,2l-.3,1.4A7.2,7.2,0,0,0,228.5,147.3Z"/><path d="M235.7,142.9c1.1-1.6,2.2-2.4,3.4-2.4a3.7,3.7,0,0,1,2.8,1.1,4.4,4.4,0,0,1,1.1,2.9,6.7,6.7,0,0,1-.8,3.3,7,7,0,0,1-2.2,2.9,4.7,4.7,0,0,1-3.1,1.1,2.3,2.3,0,0,1-2-1,4.2,4.2,0,0,1-.9-2.7A8.7,8.7,0,0,1,235.7,142.9Zm3.6,4.6a7.5,7.5,0,0,0,.8-3.1,3.2,3.2,0,0,0-.4-1.9,5.7,5.7,0,0,0-1.8,2.3,6.2,6.2,0,0,0-1,3.1,2.9,2.9,0,0,0,.3,1.7A5.3,5.3,0,0,0,239.3,147.5Z"/><path d="M248.6,135.3a2.9,2.9,0,0,1,.8,1.8c0,.6-.1,1.7-.2,3.2s-.4,2.7-.6,3.6c-1.2,5.3-2.1,7.9-2.5,7.9a1.5,1.5,0,0,1-1.2-.7c-.5-.6-.8-1-.8-1.3s.2-.8.6-2.3.8-3.4,1.2-5.8a40.6,40.6,0,0,0,.6-6.7.6.6,0,0,1,.7-.7C247.6,134.3,248,134.6,248.6,135.3Z"/><path d="M252.9,140.5a1.6,1.6,0,0,1,1.4.9,2.7,2.7,0,0,1,.6,1.7,21.4,21.4,0,0,1-.7,3c-.5,1.7-1.1,3.3-1.5,4.9a1.2,1.2,0,0,1-1.2.8.9.9,0,0,1-.8-.4,1.1,1.1,0,0,1-.3-.8,4.5,4.5,0,0,1,.1-1.1c.1-.5.2-1.1.4-1.8l.4-1.7.3-1.5q.2-.9.3-1.5c.1-.4.1-.8.2-1.2S252.6,140.5,252.9,140.5Zm1.1-.6a.9.9,0,0,1-.6-.3,1.1,1.1,0,0,1-.2-.8,1.3,1.3,0,0,1,.2-.8l.8-.9,1-.8.6-.5c.1-.1.3-.2.4-.4l.4-.2a.7.7,0,0,1,.6-.2,1.2,1.2,0,0,1,.9.6,2.1,2.1,0,0,1,.5,1.1c0,.3-.1.5-.1.7l-.4.4-.5.3-.8.4-1,.5-.8.5A1.6,1.6,0,0,1,254,139.9Z"/><path d="M260.9,144.8c-.3.7-.5,1.6-.9,2.6l-.5,1.7h.4a5,5,0,0,0,1.7-.5l1.6-.5c.4,0,.6.3.6.8s-.5,1.1-1.5,1.8a5.2,5.2,0,0,1-3.1,1,2.7,2.7,0,0,1-1.6-.7,2.2,2.2,0,0,1-1-1.6,10.6,10.6,0,0,1,.7-2.8c.4-1.4.7-2.4.9-2.9a3.7,3.7,0,0,1-1.3.2,1.2,1.2,0,0,1-.9-.6,1.5,1.5,0,0,1-.5-1.1c0-.5,1.1-.9,3.4-1.2a16.3,16.3,0,0,0,.4-3.5c0-.5.2-.7.7-.7a2.5,2.5,0,0,1,1.4.7,1.7,1.7,0,0,1,.9,1.4,8.2,8.2,0,0,1-.3,1.8h1.6c1.1,0,1.7.2,1.7.7s-.3.6-1,.9l-2.9.7C261.3,143.5,261.1,144,260.9,144.8Z"/><path d="M268.1,140.5a1.7,1.7,0,0,1,1.4.9,2.7,2.7,0,0,1,.6,1.7c0,.2-.3,1.2-.8,3l-1.5,4.9a1.1,1.1,0,0,1-1.1.8.9.9,0,0,1-.8-.4,1,1,0,0,1-.4-.9,15.9,15.9,0,0,1,.6-2.9c.4-1.6.6-2.9.8-4a13.6,13.6,0,0,1,.6-2.4C267.7,140.7,267.9,140.5,268.1,140.5Zm-.3-2.8a1.4,1.4,0,0,1,.5-1.1,1.3,1.3,0,0,1,1-.7q.4,0,1.2,1.2a5.3,5.3,0,0,1,.7,1.8,1.2,1.2,0,0,1-.4.8,1.1,1.1,0,0,1-.7.3c-.5,0-.9-.3-1.5-.9A1.9,1.9,0,0,1,267.8,137.7Z"/><path d="M271.3,148.4a8.1,8.1,0,0,1,1-3.4,11.1,11.1,0,0,1,2.5-3.2,4.9,4.9,0,0,1,3.1-1.3,2.1,2.1,0,0,1,1.6,1,2.8,2.8,0,0,1,.8,1.8c0,.4-.1.6-.5.6l-.7-.3-1-.2a2.4,2.4,0,0,0-1.3.8,7.8,7.8,0,0,0-1.6,2,3.8,3.8,0,0,0-.7,1.8,2,2,0,0,0,.2.9,3.1,3.1,0,0,0,1.3.2l1.7-.2a4,4,0,0,0,1.2-.4l.7-.2a.5.5,0,0,1,.6.6c0,.6-.5,1.3-1.7,1.9a6,6,0,0,1-3.3,1,3.9,3.9,0,0,1-2.5-1.2A3.3,3.3,0,0,1,271.3,148.4Z"/><path d="M283.7,142.9c1.1-1.6,2.2-2.4,3.4-2.4a3.7,3.7,0,0,1,2.8,1.1,4.4,4.4,0,0,1,1.1,2.9,6.7,6.7,0,0,1-.8,3.3,7,7,0,0,1-2.2,2.9,4.5,4.5,0,0,1-3.1,1.1,2.3,2.3,0,0,1-2-1,4.2,4.2,0,0,1-.9-2.7A8.7,8.7,0,0,1,283.7,142.9Zm3.6,4.6a7.5,7.5,0,0,0,.8-3.1,3.2,3.2,0,0,0-.4-1.9,5.7,5.7,0,0,0-1.8,2.3,6.2,6.2,0,0,0-1,3.1,2.9,2.9,0,0,0,.3,1.7A5.3,5.3,0,0,0,287.3,147.5Z"/><path d="M309,146.5a5.8,5.8,0,0,1-3,.9l-2.6-.2a4.9,4.9,0,0,0-.1,1.2,1.7,1.7,0,0,0,.1.8,1.3,1.3,0,0,0,1,.3,8.5,8.5,0,0,0,2.9-.4l1.2-.3q.9,0,.9.6c0,.6-.5,1.1-1.4,1.7a7.2,7.2,0,0,1-3.3.7,4.4,4.4,0,0,1-3-1.1,4.1,4.1,0,0,1-1.1-2.8,6.8,6.8,0,0,1,.9-3.3,7.6,7.6,0,0,1,2.4-2.9,4.1,4.1,0,0,1,2.8-1.2,3.3,3.3,0,0,1,2.6,1.4,4.5,4.5,0,0,1,1.1,2.7A2.2,2.2,0,0,1,309,146.5Zm-1.6-2.9a1.2,1.2,0,0,0-.8-.4,1.7,1.7,0,0,0-1.1.6,9.8,9.8,0,0,0-1.2,1.5h.6c2,0,3-.4,3-1.1Z"/><path d="M319.4,140.5a2.3,2.3,0,0,1,2,1,3.3,3.3,0,0,1,.9,2.2,14.3,14.3,0,0,1-.6,3.9,10.3,10.3,0,0,1-1.3,3.1c-.5.8-1,1.1-1.5,1.1s-.7-.3-.7-1a13.1,13.1,0,0,1,.7-3.2,11.6,11.6,0,0,0,.6-2.8q0-.9-.3-.9l-.5.3-.5.5-.4.6-.4.6-.4.7-.4.7-.4.7c-1.4,2.6-2.4,3.8-3.2,3.8s-.7-.2-1.2-.8a3,3,0,0,1-.7-1.1,3.6,3.6,0,0,1,.3-1.1,5.1,5.1,0,0,0,.5-1.2,2.9,2.9,0,0,0,.2-.9,4.3,4.3,0,0,0,.2-1.1,3.1,3.1,0,0,0,.1-.9c0-.2.1-.5.1-.9a18.4,18.4,0,0,1,.3-3.2q.1-.3.3-.3a2.5,2.5,0,0,1,1.7.7,1.9,1.9,0,0,1,.7,1.3,14.6,14.6,0,0,1-.7,3.9,37.7,37.7,0,0,1,2.6-4.1C318.2,141,318.9,140.5,319.4,140.5Z"/><path d="M336.4,135.3a2.6,2.6,0,0,1,.9,1.8,28.6,28.6,0,0,1-.3,3.2c-.2,1.5-.3,2.7-.5,3.6-1.2,5.3-2.1,7.9-2.6,7.9a1.9,1.9,0,0,1-1.2-.7,2.3,2.3,0,0,1-.7-1.3c0-.1.2-.8.6-2.3s.8-3.4,1.2-5.8a40.6,40.6,0,0,0,.6-6.7c0-.5.2-.7.7-.7S335.9,134.6,336.4,135.3Z"/><path d="M347.2,145.6c.2.2.4.4.4.6a4.9,4.9,0,0,1-.3,1.2,5,5,0,0,0-.3,1.4c-.1.3-.1.6-.2.8s0,.3-.1.4v.4a.8.8,0,0,0-.1.4c0,.1-.1.2-.1.4a.3.3,0,0,1-.1.2l-.2.3h-.4c-.2,0-.5-.2-.8-.6a5.2,5.2,0,0,1-.7-1.5c-1.3,1.4-2.5,2.1-3.4,2.1a3.7,3.7,0,0,1-3.2-3.1,6.9,6.9,0,0,1,1-3,12.7,12.7,0,0,1,2.6-3.6,4.3,4.3,0,0,1,3.2-1.6,3.1,3.1,0,0,1,2.1,1.1,2.7,2.7,0,0,1,1.2,1.9A4.8,4.8,0,0,1,347.2,145.6Zm-6.4,3.5a4.2,4.2,0,0,0,2.3-1.2,4.7,4.7,0,0,0,1.8-3.1l.4-.3c0-.8-.2-1.2-.4-1.2a3.4,3.4,0,0,0-2,1.1,14.4,14.4,0,0,0-1.8,2.5,4.9,4.9,0,0,0-.6,1.9v.2Z"/><path d="M198.3,166.9a2.1,2.1,0,0,1,1.6,1,2.6,2.6,0,0,1,.8,1.8c0,.3-.1.5-.4.5l-.8-.2-1-.2-1.5.3c-.7.3-1.1.6-1.1,1s.2.3.6.6l1.3.9a3.7,3.7,0,0,1,1.3,1.2,2.7,2.7,0,0,1,.6,1.7c0,.6-.4,1.2-1.3,1.8a5.4,5.4,0,0,1-3.1.9,5.3,5.3,0,0,1-3.1-.8c-.8-.5-1.3-1.1-1.3-1.7a.7.7,0,0,1,.7-.8l.7.2a6.1,6.1,0,0,0,2.8.6c1.1,0,1.6-.1,1.6-.4s-.2-.6-.6-1l-1.4-1-1.4-1.1a2.2,2.2,0,0,1-.6-1.3c0-.8.7-1.7,2.2-2.6A7,7,0,0,1,198.3,166.9Z"/><path d="M203.1,169.3c1.1-1.6,2.3-2.4,3.4-2.4a4.1,4.1,0,0,1,2.8,1.1,3.9,3.9,0,0,1,1.1,2.9,7.8,7.8,0,0,1-.7,3.3,8.2,8.2,0,0,1-2.3,2.9,4.3,4.3,0,0,1-3,1.1,2.6,2.6,0,0,1-2.1-1,4.2,4.2,0,0,1-.9-2.7A9.5,9.5,0,0,1,203.1,169.3Zm3.6,4.6a6.4,6.4,0,0,0,.9-3.1,4.1,4.1,0,0,0-.4-1.9,5.1,5.1,0,0,0-1.9,2.3,7.1,7.1,0,0,0-.9,3.1c0,.9,0,1.5.2,1.7A5.3,5.3,0,0,0,206.7,173.9Z"/><path d="M211.5,174.8a8.1,8.1,0,0,1,1-3.4,11.4,11.4,0,0,1,2.6-3.2,4.4,4.4,0,0,1,3-1.3,1.9,1.9,0,0,1,1.6,1,2.8,2.8,0,0,1,.8,1.8c0,.4-.1.6-.5.6l-.7-.3-1-.2c-.3,0-.7.3-1.3.8a7.8,7.8,0,0,0-1.6,2,3.8,3.8,0,0,0-.7,1.8,2,2,0,0,0,.2.9,3.1,3.1,0,0,0,1.3.2l1.8-.2,1.1-.4.7-.2c.5,0,.7.2.7.6s-.6,1.3-1.7,1.9a6.6,6.6,0,0,1-3.4,1,4.1,4.1,0,0,1-2.5-1.2A3.3,3.3,0,0,1,211.5,174.8Z"/><path d="M224.8,166.9a1.7,1.7,0,0,1,1.4.9,2.7,2.7,0,0,1,.6,1.7c0,.2-.3,1.2-.8,3l-1.5,4.9a1.1,1.1,0,0,1-1.1.8.9.9,0,0,1-.8-.4,1,1,0,0,1-.4-.9,15.9,15.9,0,0,1,.6-2.9c.4-1.6.6-2.9.8-4a13.6,13.6,0,0,1,.6-2.4C224.4,167.1,224.6,166.9,224.8,166.9Zm-.3-2.8a1.4,1.4,0,0,1,.5-1.1,1.3,1.3,0,0,1,1-.7q.5,0,1.2,1.2a4.6,4.6,0,0,1,.6,1.8,1.1,1.1,0,0,1-.3.8,1.1,1.1,0,0,1-.7.3c-.5,0-.9-.3-1.5-.9A1.9,1.9,0,0,1,224.5,164.1Z"/><path d="M236.4,172.9a5.8,5.8,0,0,1-3,.9l-2.5-.2a5,5,0,0,0-.2,1.2,1.5,1.5,0,0,0,.2.8c.1.2.4.3,1,.3a7.9,7.9,0,0,0,2.8-.4l1.2-.3q.9,0,.9.6c0,.6-.4,1.1-1.4,1.7a6.7,6.7,0,0,1-3.3.7,4.4,4.4,0,0,1-3-1.1,4.1,4.1,0,0,1-1.1-2.8,6,6,0,0,1,1-3.3,8.5,8.5,0,0,1,2.3-2.9,4.3,4.3,0,0,1,2.8-1.2,3.3,3.3,0,0,1,2.6,1.4,4.1,4.1,0,0,1,1.2,2.7A2.3,2.3,0,0,1,236.4,172.9Zm-1.5-2.9a1.2,1.2,0,0,0-.9-.4c-.3,0-.6.2-1,.6a6.4,6.4,0,0,0-1.3,1.5h.6c2,0,3-.4,3-1.1S235.2,170.3,234.9,170Z"/><path d="M248.2,160.7c.3,0,.8.3,1.3,1a2.6,2.6,0,0,1,.9,1.8c0,.2-.3,1.4-.8,3.4l-.9,3.7c-1.2,5.1-2,7.6-2.6,7.6a1.9,1.9,0,0,1-1-.5,1.5,1.5,0,0,1-.6-1.1v-.2c-1.4,1.2-2.5,1.8-3.1,1.8a2.6,2.6,0,0,1-1.9-1,2.8,2.8,0,0,1-.8-1.9,6.2,6.2,0,0,1,.2-1.8,11.1,11.1,0,0,1,.7-2.2,13.9,13.9,0,0,1,1.1-2.1,6.1,6.1,0,0,1,1.5-1.7,3.3,3.3,0,0,1,1.9-.6,2.8,2.8,0,0,1,2.3,1.4,36.7,36.7,0,0,0,1.1-6.9C247.5,160.9,247.7,160.7,248.2,160.7Zm-6.5,14.7a4.1,4.1,0,0,0,1.8-.9,5.9,5.9,0,0,0,2-2.4,5.4,5.4,0,0,1-.1-.8,2.3,2.3,0,0,0-.3-1.1,1,1,0,0,0-.8-.5,1.5,1.5,0,0,0-1.2.7,4.4,4.4,0,0,0-1,1.6,9.7,9.7,0,0,0-.7,3.2v.2Z"/><path d="M260,172c.2.2.4.4.4.6a4.9,4.9,0,0,1-.3,1.2c-.2.6-.3,1.1-.4,1.4s-.1.6-.1.8-.1.3-.1.4v.4a.8.8,0,0,0-.1.4c-.1.1-.1.2-.1.4a.3.3,0,0,0-.1.2l-.2.3h-.4c-.2,0-.5-.2-.8-.6a5.2,5.2,0,0,1-.7-1.5c-1.3,1.4-2.5,2.1-3.4,2.1a2.9,2.9,0,0,1-2.1-1,3.1,3.1,0,0,1-1.1-2.1,6.9,6.9,0,0,1,1-3,12.3,12.3,0,0,1,2.5-3.6,4.7,4.7,0,0,1,3.3-1.6,3.1,3.1,0,0,1,2.1,1.1,2.7,2.7,0,0,1,1.2,1.9A4.8,4.8,0,0,1,260,172Zm-6.4,3.5a4.2,4.2,0,0,0,2.3-1.2,4.7,4.7,0,0,0,1.8-3.1l.4-.3c0-.8-.2-1.2-.4-1.2a3.1,3.1,0,0,0-2,1.1,14.4,14.4,0,0,0-1.8,2.5,5.6,5.6,0,0,0-.7,1.9.3.3,0,0,0,.1.2Z"/><path d="M271.2,160.7c.4,0,.8.3,1.4,1a2.6,2.6,0,0,1,.9,1.8c0,.2-.3,1.4-.8,3.4l-.9,3.7c-1.2,5.1-2,7.6-2.6,7.6a1.9,1.9,0,0,1-1-.5,1.5,1.5,0,0,1-.6-1.1v-.2c-1.4,1.2-2.5,1.8-3.1,1.8a2.4,2.4,0,0,1-1.9-1,3,3,0,0,1-.9-1.9,6.7,6.7,0,0,1,.3-1.8,11.1,11.1,0,0,1,.7-2.2,13.9,13.9,0,0,1,1.1-2.1,6.1,6.1,0,0,1,1.5-1.7,3.2,3.2,0,0,1,1.8-.6,2.7,2.7,0,0,1,2.3,1.4,40.3,40.3,0,0,0,1.2-6.9C270.6,160.9,270.8,160.7,271.2,160.7Zm-6.5,14.7a4.3,4.3,0,0,0,1.9-.9,5,5,0,0,0,1.9-2.4v-.8a1.7,1.7,0,0,0-.4-1.1.8.8,0,0,0-.7-.5,1.7,1.7,0,0,0-1.3.7,4.2,4.2,0,0,0-.9,1.6,10.5,10.5,0,0,0-.8,3.2c0,.1.1.1.1.2Z"/><path d="M276.3,178.6a2.4,2.4,0,0,1-1.6-.9,2.3,2.3,0,0,1-.8-1.4,2.1,2.1,0,0,1,.5-1.3,1.7,1.7,0,0,1,1.1-.6c.4,0,.8.4,1.3,1.2a4,4,0,0,1,.7,1.9c0,.2-.1.4-.4.7A1,1,0,0,1,276.3,178.6Z"/></g><g id="Layer_4" data-name="Layer 4"><rect class="cls-14" x="11.2" y="522.2" width="543" height="506.56" rx="7.1"/><rect class="cls-15" x="-2.7" y="1019.2" width="564" height="18.16"/></g></svg>