<svg xmlns="http://www.w3.org/2000/svg" viewBox="0 0 204.4 145.9"><defs><style>.cls-1,.cls-3{fill:#f4cd27;}.cls-1{stroke:#fbb03b;stroke-miterlimit:10;stroke-width:0.85px;}.cls-2{fill:#fff;}</style></defs><title>act1_cultural</title><g id="Layer_6" data-name="Layer 6"><rect class="cls-1" x="0.4" y="0.4" width="67" height="74"/><path class="cls-2" d="M52.3,33.3c-6.1-2.9-9.1-9.9-12.9-6.1.2,3.1-3.7,23.2-6.8,26.3.4,4.9,2,8.8,5,10.2,7.5,3.6,20.6-8.4,26-19.5s-3.9-7.3-11.3-10.9Z"/><path class="cls-2" d="M34.7,21.3c-1.1-4.7-2.5-6.3-4.3-6.3s-6.5,3.7-11.3,4.8a17.8,17.8,0,0,1-3.9.4c-2.1,0-4.1-.3-5.7-.3C6,19.9,4.1,21,5.6,27.8c2.7,12,12.8,26.7,20.9,24.9s10.9-19.4,8.2-31.4Z"/><path class="cls-3" d="M11.1,33.6a4.5,4.5,0,0,1,1.2-2.9A5.7,5.7,0,0,1,15.1,29a5.8,5.8,0,0,1,3.2.3,4,4,0,0,1,2.3,2.1,8.8,8.8,0,0,0-2.7-.4,8.7,8.7,0,0,0-2.3.1A12,12,0,0,0,11.1,33.6Z"/><path class="cls-3" d="M23.8,30.7a4.7,4.7,0,0,1,.2-3.1,5.7,5.7,0,0,1,2.1-2.5,6.1,6.1,0,0,1,3.2-.8,4.7,4.7,0,0,1,2.8,1.2l-2.7.5a13.6,13.6,0,0,0-2.1,1A9.7,9.7,0,0,0,23.8,30.7Z"/><path class="cls-3" d="M49.5,38a4.1,4.1,0,0,1-2,2.3,5.1,5.1,0,0,1-3.2.7,5.6,5.6,0,0,1-3-1.2,4.3,4.3,0,0,1-1.5-2.7,17.9,17.9,0,0,0,2.4,1.2l2.3.6A11.8,11.8,0,0,0,49.5,38Z"/><path class="cls-3" d="M58.5,46a4.7,4.7,0,0,1-3.1.4,4.8,4.8,0,0,1-2.9-1.5A5.6,5.6,0,0,1,51.1,42a3.9,3.9,0,0,1,.6-3,18.6,18.6,0,0,0,1,2.5,9.4,9.4,0,0,0,1.4,1.9A10.9,10.9,0,0,0,58.5,46Z"/><path class="cls-3" d="M15.4,39.5A11.7,11.7,0,0,0,20,41.8a9.3,9.3,0,0,0,4.7-.3,9.2,9.2,0,0,0,3.8-2.8,12.3,12.3,0,0,0,2.2-4.6,8.1,8.1,0,0,1-5.3,9.4,7.5,7.5,0,0,1-5.9-.1A7.8,7.8,0,0,1,15.4,39.5Z"/><path class="cls-3" d="M46.9,56.3a8.7,8.7,0,0,0-1-3.1A5.5,5.5,0,0,0,44,51.1a5,5,0,0,0-2.7-.8,7.4,7.4,0,0,0-3.2.4,4.3,4.3,0,0,1,3.1-2.1,5.3,5.3,0,0,1,6.3,4A4.7,4.7,0,0,1,46.9,56.3Z"/><path class="cls-2" d="M2.3,94.9c-.2,0-.5-.3-.9-.8A1.7,1.7,0,0,1,.8,93c0-.2.2-1,.5-2.3a1,1,0,0,1-.4-.9c0-.2.3-.4.7-.6a24.5,24.5,0,0,0,1-4.8c0-.4.1-.5.4-.5s.6.2,1,.7a2.7,2.7,0,0,1,.5,1.3A12.7,12.7,0,0,1,4,88.6l2.6-.2a33.5,33.5,0,0,0,.7-4c0-.4.1-.5.4-.5s.6.2,1,.7a2.7,2.7,0,0,1,.5,1.3c0,.2-.2,1.1-.5,2.6s.7.3.7.6-.4.6-1.1.7-.6,2.3-.7,2.8a6.2,6.2,0,0,1-.3,1c0,.2-.1.4-.1.6s-.2.7-.3.7a1.2,1.2,0,0,1-.9-.6,2.1,2.1,0,0,1-.5-1.2,28.2,28.2,0,0,1,.6-2.9l-2.6.5c-.3,1.2-.6,2.1-.7,2.5a5.6,5.6,0,0,1-.2,1C2.5,94.6,2.4,94.9,2.3,94.9Z"/><path class="cls-2" d="M16.6,90.6l.3.4a8.1,8.1,0,0,1-.2.9,5.1,5.1,0,0,0-.2.9,1.1,1.1,0,0,0-.1.5v.3a.4.4,0,0,1-.1.3v.5c0,.1,0,.2-.1.2a.1.1,0,0,1-.1.1c0,.1-.1.2-.3.2l-.5-.5a2.3,2.3,0,0,1-.4-1,4.1,4.1,0,0,1-2.4,1.5,2.6,2.6,0,0,1-1.4-.7,2.1,2.1,0,0,1-.7-1.5,5.8,5.8,0,0,1,.6-2,6.9,6.9,0,0,1,1.8-2.4,2.9,2.9,0,0,1,2.2-1.2,2.3,2.3,0,0,1,1.4.8c.6.5.9.9.9,1.3A3,3,0,0,1,16.6,90.6ZM12.2,93a3,3,0,0,0,1.6-.8,3.9,3.9,0,0,0,1.3-2.1l.2-.2q0-.9-.3-.9c-.4,0-.8.3-1.3.8a6.6,6.6,0,0,0-1.2,1.7,3.6,3.6,0,0,0-.5,1.3h.2Z"/><path class="cls-2" d="M23.7,87.1a1.7,1.7,0,0,1,1.3.8,2.4,2.4,0,0,1,.6,1.5,5.5,5.5,0,0,1-.3,1.6,14.2,14.2,0,0,1-.8,1.8,6.4,6.4,0,0,1-1.3,1.5,3.9,3.9,0,0,1-1.7.6,3.5,3.5,0,0,1-2-.9c-.2.6-.3.9-.5.9s-.4-.2-.7-.6a1,1,0,0,1-.5-.8,8.9,8.9,0,0,1,.5-2.2,34.1,34.1,0,0,0,1.5-7.9c0-.3.1-.5.4-.5s.5.2.9.7a1.7,1.7,0,0,1,.6,1.2,19.4,19.4,0,0,1-.8,4.2C22.1,87.7,23,87.1,23.7,87.1Zm-2.4,6c.5,0,1.1-.4,1.7-1.3a4.9,4.9,0,0,0,.8-2.5h-.2a2.4,2.4,0,0,0-1.8,1,7.2,7.2,0,0,0-1.6,2.4A1.4,1.4,0,0,0,21.3,93.1Z"/><path class="cls-2" d="M29.4,83.6a1.7,1.7,0,0,1,.6,1.2c0,.4-.1,1.2-.2,2.2a11.9,11.9,0,0,1-.4,2.4c-.8,3.7-1.4,5.5-1.7,5.5s-.5-.2-.8-.6a1.5,1.5,0,0,1-.5-.8,10.2,10.2,0,0,1,.4-1.6c.3-1,.5-2.3.8-3.9a25.3,25.3,0,0,0,.4-4.6.5.5,0,0,1,.5-.5C28.7,82.9,29,83.1,29.4,83.6Z"/><path class="cls-2" d="M36.7,90.6l.3.4a2,2,0,0,1-.2.9,5.1,5.1,0,0,0-.2.9,4.3,4.3,0,0,1-.1.5c0,.2,0,.3-.1.3v.3c0,.1-.1.2-.1.3v.4h-.1l-.3.2c-.2,0-.3-.2-.5-.5a2.3,2.3,0,0,1-.5-1,3.6,3.6,0,0,1-2.4,1.5,2.6,2.6,0,0,1-1.4-.7,2.1,2.1,0,0,1-.7-1.5,5.8,5.8,0,0,1,.6-2,10.8,10.8,0,0,1,1.8-2.4,3.1,3.1,0,0,1,2.2-1.2,2.8,2.8,0,0,1,1.5.8c.5.5.8.9.8,1.3A3,3,0,0,1,36.7,90.6ZM32.4,93a3.3,3.3,0,0,0,1.6-.8,3.8,3.8,0,0,0,1.2-2.1c0-.1.1-.2.3-.2s-.2-.9-.3-.9a2.3,2.3,0,0,0-1.4.8,6.6,6.6,0,0,0-1.2,1.7,3,3,0,0,0-.4,1.3h.2Z"/><path class="cls-2" d="M48.1,87.1c.4,0,.7.3,1,.8a2.7,2.7,0,0,1,.4,1.4,8.1,8.1,0,0,1-.3,1.9,10.3,10.3,0,0,1-.7,2.5q-.6,1.2-1.2,1.2c-.3,0-.5-.3-.5-.7a7.9,7.9,0,0,1,.4-2.2,8.2,8.2,0,0,0,.4-2c0-.3-.1-.5-.2-.5s-.4.2-.7.7-.6,1.1-1.1,1.8l-.7,1.5-.3.5a.5.5,0,0,1-.2.4q-.4.9-1.2,0a1,1,0,0,1-.5-.7l.3-1.1a10.1,10.1,0,0,0,.2-2.5c0-.4,0-.6-.1-.6s-.3.1-.4.4a4.6,4.6,0,0,0-.7,1.3l-.9,1.5c-.8,1.4-1.5,2.2-1.9,2.2s-.5-.2-.8-.6-.5-.6-.5-.8a7,7,0,0,1,.3-1.4,10,10,0,0,0,.4-2.4c.1-.9.2-1.5.2-2s.2-.7.4-.7a1.8,1.8,0,0,1,1.1.5,1.5,1.5,0,0,1,.5.8,13.3,13.3,0,0,1-.6,3.1A25.9,25.9,0,0,1,41.9,88a2,2,0,0,1,1.5-.9c.3,0,.6.3,1,.7a2.4,2.4,0,0,1,.6,1.4c0,.4-.1.8-.1,1.1a7.4,7.4,0,0,1,1.4-2.2A3.3,3.3,0,0,1,48.1,87.1Z"/><path class="cls-2" d="M51.4,88.8c.8-1.1,1.5-1.7,2.3-1.7a2.6,2.6,0,0,1,1.9.8,2.7,2.7,0,0,1,.8,1.9,5.9,5.9,0,0,1-.5,2.3,5.3,5.3,0,0,1-1.6,2,3.2,3.2,0,0,1-2,.8,1.9,1.9,0,0,1-1.5-.8,2.8,2.8,0,0,1-.6-1.8A5.9,5.9,0,0,1,51.4,88.8Zm2.4,3.1a4.5,4.5,0,0,0,.6-2.1,3.5,3.5,0,0,0-.2-1.3,3.6,3.6,0,0,0-1.3,1.6,5.2,5.2,0,0,0-.7,2.1,2,2,0,0,0,.2,1.1A2.7,2.7,0,0,0,53.8,91.9Z"/><path class="cls-2" d="M61.9,87.1a1.9,1.9,0,0,1,1.2.7,2.8,2.8,0,0,1,.5,1.2c0,.3-.1.4-.3.4l-.5-.2h-.7l-1.1.2c-.4.2-.6.4-.6.7l.4.4.8.6a2.4,2.4,0,0,1,.9.8,1.9,1.9,0,0,1,.4,1.2q0,.6-.9,1.2a3.1,3.1,0,0,1-2.1.7,3.7,3.7,0,0,1-2.1-.6c-.6-.4-.9-.7-.9-1.1s.2-.6.5-.6h.5a3.5,3.5,0,0,0,1.8.5q1.2,0,1.2-.3a1,1,0,0,0-.5-.7l-.9-.7a3.2,3.2,0,0,1-.9-.8,1.2,1.2,0,0,1-.4-.8c0-.6.4-1.2,1.4-1.8A5.8,5.8,0,0,1,61.9,87.1Z"/><path class="cls-2" d="M76.3,82.9c.3,0,.6.2,1,.7a1.7,1.7,0,0,1,.6,1.2,18,18,0,0,1-.6,2.4c-.3,1.4-.5,2.2-.6,2.5-.8,3.4-1.4,5.2-1.7,5.2s-.5-.2-.8-.4a1.3,1.3,0,0,1-.3-.7v-.2c-1,.9-1.7,1.3-2.2,1.3a1.9,1.9,0,0,1-1.2-.7,2.2,2.2,0,0,1-.6-1.3,6.2,6.2,0,0,1,.1-1.3,12.1,12.1,0,0,1,.5-1.4,5.3,5.3,0,0,1,.8-1.5,2.7,2.7,0,0,1,1-1.1,2.1,2.1,0,0,1,1.2-.5,1.9,1.9,0,0,1,1.6,1,21.9,21.9,0,0,0,.8-4.7C75.9,83.1,76,82.9,76.3,82.9ZM71.9,93c.3,0,.7-.3,1.3-.7a4,4,0,0,0,1.3-1.6v-.5a1.1,1.1,0,0,0-.3-.8c-.2-.3-.3-.4-.5-.4a1,1,0,0,0-.8.5,4.1,4.1,0,0,0-.7,1.1,9.1,9.1,0,0,0-.5,2.2h.2Z"/><path class="cls-2" d="M83.7,91.3a4.6,4.6,0,0,1-2,.5H80a2.4,2.4,0,0,0-.2.8.8.8,0,0,0,.2.6h.6a6.2,6.2,0,0,0,2-.2l.8-.2c.4,0,.6.2.6.4s-.3.8-1,1.1a3.8,3.8,0,0,1-2.2.6,2.8,2.8,0,0,1-2-.8,2.9,2.9,0,0,1-.8-1.9,5.3,5.3,0,0,1,.6-2.3,10.8,10.8,0,0,1,1.6-2,3.4,3.4,0,0,1,2-.8,2.1,2.1,0,0,1,1.7,1,2.4,2.4,0,0,1,.8,1.8A1.7,1.7,0,0,1,83.7,91.3Zm-1-2a.9.9,0,0,0-.6-.3c-.2,0-.4.1-.7.4a4.5,4.5,0,0,0-.9,1h.4c1.4,0,2.1-.2,2.1-.7A.5.5,0,0,0,82.7,89.3Z"/><path class="cls-2" d="M88.4,83.6a1.6,1.6,0,0,1,.5,1.2,21.3,21.3,0,0,1-.1,2.2c-.2,1-.3,1.8-.4,2.4-.8,3.7-1.4,5.5-1.7,5.5s-.5-.2-.9-.6a1.5,1.5,0,0,1-.5-.8l.5-1.6c.2-1,.5-2.3.8-3.9a39.1,39.1,0,0,0,.4-4.6c0-.3.1-.5.4-.5S88,83.1,88.4,83.6Z"/><path class="cls-2" d="M100.8,91.3a4.6,4.6,0,0,1-2,.5H97c0,.3-.1.5-.1.8a3.5,3.5,0,0,0,.1.6h.7a5.3,5.3,0,0,0,1.9-.2l.9-.2c.4,0,.6.2.6.4s-.3.8-1,1.1a4,4,0,0,1-2.2.6,2.6,2.6,0,0,1-2-.8,2.9,2.9,0,0,1-.8-1.9,5.3,5.3,0,0,1,.6-2.3,10.8,10.8,0,0,1,1.6-2,3.4,3.4,0,0,1,1.9-.8,2.1,2.1,0,0,1,1.8,1,2.9,2.9,0,0,1,.8,1.8A1.7,1.7,0,0,1,100.8,91.3Zm-1-2-.6-.3a.9.9,0,0,0-.7.4,4.5,4.5,0,0,0-.9,1H98c1.4,0,2.1-.2,2.1-.7A.5.5,0,0,0,99.8,89.3Z"/><path class="cls-2" d="M107.2,87.1a1.5,1.5,0,0,1,1.1.7,2.2,2.2,0,0,1,.6,1.2c0,.3-.1.4-.3.4l-.6-.2h-.7l-1,.2c-.4.2-.7.4-.7.7l.4.4.9.6.9.8a1.9,1.9,0,0,1,.4,1.2q0,.6-.9,1.2a3.1,3.1,0,0,1-2.1.7,3.7,3.7,0,0,1-2.1-.6c-.6-.4-.9-.7-.9-1.1s.2-.6.5-.6h.5a3.5,3.5,0,0,0,1.8.5c.8,0,1.1-.1,1.1-.3a.9.9,0,0,0-.4-.7l-.9-.7a2.5,2.5,0,0,1-1-.8,2,2,0,0,1-.4-.8q0-.9,1.5-1.8A5.3,5.3,0,0,1,107.2,87.1Z"/><path class="cls-2" d="M109.4,92.5a4.3,4.3,0,0,1,.7-2.3,7.2,7.2,0,0,1,1.7-2.2,3.2,3.2,0,0,1,2.1-.9c.4,0,.7.3,1.1.7a2.2,2.2,0,0,1,.6,1.2.4.4,0,0,1-.4.4h-.5l-.6-.2c-.3,0-.6.2-1,.6A7.5,7.5,0,0,0,112,91a2.7,2.7,0,0,0-.4,1.3c0,.3,0,.5.1.5a1.7,1.7,0,0,0,.9.2h1.2l.8-.3h.5c.3,0,.4.1.4.3s-.4.9-1.2,1.4a4.8,4.8,0,0,1-2.3.7,2.4,2.4,0,0,1-1.6-.9A1.9,1.9,0,0,1,109.4,92.5Z"/><path class="cls-2" d="M122.5,91.3a5.4,5.4,0,0,1-2.1.5h-1.7a2.2,2.2,0,0,0-.1.8c0,.3,0,.5.1.6h.7a5.5,5.5,0,0,0,1.9-.2l.8-.2c.5,0,.7.2.7.4s-.4.8-1,1.1a4.3,4.3,0,0,1-2.2.6,2.9,2.9,0,0,1-2.1-.8,2.8,2.8,0,0,1-.7-1.9,5.3,5.3,0,0,1,.6-2.3,7.8,7.8,0,0,1,1.6-2,3.1,3.1,0,0,1,1.9-.8,2.4,2.4,0,0,1,1.8,1,2.9,2.9,0,0,1,.8,1.8A1.9,1.9,0,0,1,122.5,91.3Zm-1.1-2a.9.9,0,0,0-.6-.3c-.2,0-.4.1-.7.4a4.4,4.4,0,0,0-.8,1h.4c1.4,0,2-.2,2-.7A.5.5,0,0,0,121.4,89.3Z"/><path class="cls-2" d="M129.6,87.1a2.1,2.1,0,0,1,1.4.7,2.4,2.4,0,0,1,.6,1.5,8.6,8.6,0,0,1-.5,2.7,7.1,7.1,0,0,1-.8,2.1c-.4.5-.7.8-1,.8s-.5-.3-.5-.7a6.8,6.8,0,0,1,.5-2.2,11.2,11.2,0,0,0,.3-1.9c0-.4,0-.6-.1-.6s-.3,0-.4.2l-.3.3-.3.4-.3.4a1.7,1.7,0,0,1-.2.5c-.2.2-.3.3-.3.5l-.3.5c-.9,1.7-1.7,2.6-2.2,2.6s-.5-.2-.8-.6a1.5,1.5,0,0,1-.5-.8l.3-.7a3.4,3.4,0,0,1,.3-.8c0-.2.1-.4.1-.7a6.4,6.4,0,0,0,.2-.7V90a3.5,3.5,0,0,0,.1-.6,14.1,14.1,0,0,1,.2-2.2l.2-.2a1.6,1.6,0,0,1,1.1.5,1,1,0,0,1,.5.8,10.3,10.3,0,0,1-.4,2.7,29.1,29.1,0,0,1,1.7-2.8C128.8,87.5,129.2,87.1,129.6,87.1Z"/><path class="cls-2" d="M138.8,90.6l.2.4a3.9,3.9,0,0,1-.1.9,9.2,9.2,0,0,0-.3.9,4.3,4.3,0,0,1-.1.5v.3c0,.1-.1.2-.1.3a.4.4,0,0,1-.1.3v.4h-.1l-.3.2c-.1,0-.3-.2-.5-.5a2.3,2.3,0,0,1-.5-1,3.7,3.7,0,0,1-2.3,1.5,2.3,2.3,0,0,1-1.4-.7,2.2,2.2,0,0,1-.8-1.5,4.7,4.7,0,0,1,.7-2,8.1,8.1,0,0,1,1.7-2.4,3.3,3.3,0,0,1,2.2-1.2c.5,0,.9.3,1.5.8s.8.9.8,1.3A2.7,2.7,0,0,1,138.8,90.6ZM134.4,93a3.3,3.3,0,0,0,1.6-.8,3.3,3.3,0,0,0,1.2-2.1c0-.1.1-.2.3-.2s-.1-.9-.3-.9-.8.3-1.3.8a10.9,10.9,0,0,0-1.3,1.7,3,3,0,0,0-.4,1.3h.2Z"/><path class="cls-2" d="M140.9,89.7V88c0-.6.1-.9.5-.9l.6.3c.2.1.3.3.4.7l1.1-.8a2.6,2.6,0,0,1,1.1-.2c.8,0,1.1.1,1.1.5s0,.3-.1.4-.1.1-.1.2h-.2l-.2.2-.5.3a5.2,5.2,0,0,0-1.1,1,3.4,3.4,0,0,0-.8,1.6,8.9,8.9,0,0,1-.8,2.6c-.2.6-.5.9-.8.9a.8.8,0,0,1-.7-.5,1.3,1.3,0,0,1-.2-.8,3,3,0,0,1,.2-1.2c.2-.6.4-1,.5-1.4S140.9,90.2,140.9,89.7Z"/><path class="cls-2" d="M147.2,87.1a1.2,1.2,0,0,1,.9.6,1.9,1.9,0,0,1,.4,1.2,17.2,17.2,0,0,1-.5,2c-.4,1.2-.7,2.3-1,3.4s-.4.6-.8.6a.5.5,0,0,1-.5-.3.9.9,0,0,1-.3-.6,8.2,8.2,0,0,1,.4-2q.3-1.6.6-2.7a13.9,13.9,0,0,1,.3-1.7C146.9,87.3,147,87.1,147.2,87.1Zm-.3-1.8a1.8,1.8,0,0,1,.4-.9,1.3,1.3,0,0,1,.7-.4c.2,0,.5.3.8.8a3.1,3.1,0,0,1,.4,1.2c0,.3,0,.5-.2.6l-.5.2c-.3,0-.6-.2-1-.6S146.9,85.5,146.9,85.3Z"/><path class="cls-2" d="M150.5,88.8a3,3,0,0,1,2.3-1.7,2.7,2.7,0,0,1,2.7,2.7,4.6,4.6,0,0,1-.6,2.3,4.3,4.3,0,0,1-1.5,2,3.2,3.2,0,0,1-2.1.8,1.9,1.9,0,0,1-1.4-.8,2.8,2.8,0,0,1-.6-1.8A5.9,5.9,0,0,1,150.5,88.8Zm2.4,3.1a4.5,4.5,0,0,0,.6-2.1,2.1,2.1,0,0,0-.3-1.3,5.8,5.8,0,0,0-1.3,1.6,4.8,4.8,0,0,0-.6,2.1,2,2,0,0,0,.2,1.1A3.1,3.1,0,0,0,152.9,91.9Z"/><path class="cls-2" d="M167.7,91.3a4.9,4.9,0,0,1-2,.5h-1.8a2.2,2.2,0,0,0-.1.8c0,.3,0,.5.1.6h.7a5.3,5.3,0,0,0,1.9-.2l.9-.2c.4,0,.6.2.6.4s-.3.8-1,1.1a4,4,0,0,1-2.2.6,3,3,0,0,1-2.1-.8,2.8,2.8,0,0,1-.7-1.9,5.3,5.3,0,0,1,.6-2.3,7.8,7.8,0,0,1,1.6-2,3.4,3.4,0,0,1,1.9-.8,2.1,2.1,0,0,1,1.8,1,2.9,2.9,0,0,1,.8,1.8A1.7,1.7,0,0,1,167.7,91.3Zm-1.1-2-.5-.3a1.2,1.2,0,0,0-.8.4l-.8,1h.4c1.4,0,2.1-.2,2.1-.7S166.9,89.4,166.6,89.3Z"/><path class="cls-2" d="M174.8,87.1a2.1,2.1,0,0,1,1.4.7,2.4,2.4,0,0,1,.6,1.5,8.4,8.4,0,0,1-.4,2.7,10.9,10.9,0,0,1-.9,2.1,1.4,1.4,0,0,1-1,.8c-.3,0-.5-.3-.5-.7a6.8,6.8,0,0,1,.5-2.2,16.4,16.4,0,0,0,.4-1.9c0-.4-.1-.6-.2-.6a.4.4,0,0,0-.4.2l-.3.3-.3.4-.2.4-.3.5-.3.5-.3.5c-.9,1.7-1.6,2.6-2.2,2.6s-.4-.2-.8-.6a1.2,1.2,0,0,1-.4-.8,1.4,1.4,0,0,1,.2-.7,3.4,3.4,0,0,1,.3-.8,6.4,6.4,0,0,0,.2-.7,2,2,0,0,1,.1-.7V90c.1-.1.1-.3.1-.6s.2-2,.2-2.2l.2-.2a1.6,1.6,0,0,1,1.1.5c.4.3.6.6.6.8a11.2,11.2,0,0,1-.5,2.7,17,17,0,0,1,1.8-2.8C174,87.5,174.5,87.1,174.8,87.1Z"/><path class="cls-2" d="M189.1,91.3a4.9,4.9,0,0,1-2,.5h-1.8a2.2,2.2,0,0,0-.1.8c0,.3,0,.5.1.6h.7a5.3,5.3,0,0,0,1.9-.2l.9-.2c.4,0,.6.2.6.4s-.3.8-1,1.1a4,4,0,0,1-2.2.6,2.6,2.6,0,0,1-2-.8,2.5,2.5,0,0,1-.8-1.9,5.3,5.3,0,0,1,.6-2.3,10.8,10.8,0,0,1,1.6-2,3.4,3.4,0,0,1,1.9-.8,2.1,2.1,0,0,1,1.8,1,2.9,2.9,0,0,1,.8,1.8A1.7,1.7,0,0,1,189.1,91.3Zm-1-2-.6-.3a1.2,1.2,0,0,0-.8.4l-.8,1h.4c1.4,0,2.1-.2,2.1-.7A.5.5,0,0,0,188.1,89.3Z"/><path class="cls-2" d="M193.8,83.6a2.1,2.1,0,0,1,.5,1.2,10.8,10.8,0,0,1-.2,2.2q-.2,1.5-.3,2.4c-.9,3.7-1.4,5.5-1.8,5.5s-.5-.2-.8-.6a1.5,1.5,0,0,1-.5-.8c0-.1.2-.6.4-1.6a23.9,23.9,0,0,0,.8-3.9,25.8,25.8,0,0,0,.5-4.6c0-.3.1-.5.4-.5S193.4,83.1,193.8,83.6Z"/><path class="cls-2" d="M5.3,114l1.1-.3.6.2.2.4c0,.2-.1.3-.3.4a2.2,2.2,0,0,1-.7.6l-1.1.7-.9.7-.6.2-.5-.4a1.6,1.6,0,0,1-.3-.9A24.8,24.8,0,0,1,4,112.3a2.6,2.6,0,0,1-1.5.6c-.4,0-.8-.3-1.3-.8a2.1,2.1,0,0,1-.7-1.4,3.4,3.4,0,0,1,.4-1.5,16.2,16.2,0,0,1,1-1.8,7.8,7.8,0,0,1,1.5-1.6,2.7,2.7,0,0,1,1.7-.7,2.6,2.6,0,0,1,1.5.7,2.2,2.2,0,0,1,.6,1.3c0,.3-.1.5-.4.5l-.5-.3-.7-.3a2.2,2.2,0,0,0-1.5.8,7,7,0,0,0-1.3,1.7,2.8,2.8,0,0,0-.6,1.3c0,.1,0,.1.1.1h.2a2.9,2.9,0,0,0,1.6-.9A4.6,4.6,0,0,0,5.4,108a.3.3,0,0,1,.3-.3l1,.4c.4.3.6.5.6.7a2.9,2.9,0,0,1-.3.9c-.2.5-.4,1.2-.8,2.1S5.6,113.4,5.3,114Z"/><path class="cls-2" d="M13.5,105.5a.7.7,0,0,1,.5-.4c.2,0,.5.2.8.6a2.1,2.1,0,0,1,.5,1.1,17.2,17.2,0,0,1-.7,2.2l-1.1,3.2c-.1.5-.3.7-.7.7s-.3-.1-.5-.3a.8.8,0,0,1-.2-.6,11.5,11.5,0,0,1,.2-1.4c-1,1.5-1.8,2.3-2.4,2.3a1.5,1.5,0,0,1-1.2-.7A1.5,1.5,0,0,1,8,111a12.5,12.5,0,0,1,.8-3.6c.6-1.5,1.1-2.3,1.6-2.3a1,1,0,0,1,.7.4,1.2,1.2,0,0,1,.4.9,3.5,3.5,0,0,1-.4,1,10.8,10.8,0,0,0-1.1,3.5h0c.2,0,.5-.3.9-.8a9.5,9.5,0,0,0,1.4-2A15.9,15.9,0,0,0,13.5,105.5Z"/><path class="cls-2" d="M21.3,109.3a5.4,5.4,0,0,1-2.1.5H17.5a2.2,2.2,0,0,0-.1.8c0,.3,0,.5.1.6h.7a5.5,5.5,0,0,0,1.9-.2l.8-.2c.4,0,.6.2.6.4s-.3.8-.9,1.1a4.4,4.4,0,0,1-2.3.6,2.8,2.8,0,0,1-2-.8,2.9,2.9,0,0,1-.8-1.9,4.3,4.3,0,0,1,.7-2.3,6.2,6.2,0,0,1,1.6-2,2.9,2.9,0,0,1,1.9-.8,2.1,2.1,0,0,1,1.7,1,2.6,2.6,0,0,1,.9,1.8A1.9,1.9,0,0,1,21.3,109.3Zm-1.1-2a.9.9,0,0,0-.6-.3c-.2,0-.4.1-.7.4a2.7,2.7,0,0,0-.8,1h.4c1.3,0,2-.2,2-.7A.5.5,0,0,0,20.2,107.3Z"/><path class="cls-2" d="M33.4,105.1a1.5,1.5,0,0,1,1.1.7,2.2,2.2,0,0,1,.6,1.2c0,.3-.1.4-.3.4l-.5-.2h-.7l-1.1.2c-.4.2-.7.4-.7.7l.4.4.9.6a3.4,3.4,0,0,1,.9.8,1.9,1.9,0,0,1,.4,1.2q0,.6-.9,1.2a3.1,3.1,0,0,1-2.1.7,3.7,3.7,0,0,1-2.1-.6c-.6-.4-.9-.7-.9-1.1s.2-.6.5-.6h.5a3.5,3.5,0,0,0,1.8.5q1.2,0,1.2-.3a1,1,0,0,0-.5-.7l-.9-.7a2.3,2.3,0,0,1-.9-.8,1.5,1.5,0,0,1-.5-.8q0-.9,1.5-1.8A5.8,5.8,0,0,1,33.4,105.1Z"/><path class="cls-2" d="M41.4,109.3a5.4,5.4,0,0,1-2.1.5H37.6a2.2,2.2,0,0,0-.1.8c0,.3,0,.5.1.6h.7a5.5,5.5,0,0,0,1.9-.2l.8-.2c.4,0,.6.2.6.4s-.3.8-.9,1.1a4.4,4.4,0,0,1-2.3.6,2.8,2.8,0,0,1-2-.8,2.9,2.9,0,0,1-.8-1.9,4.3,4.3,0,0,1,.7-2.3,6.2,6.2,0,0,1,1.6-2,2.9,2.9,0,0,1,1.9-.8,2.1,2.1,0,0,1,1.7,1,2.6,2.6,0,0,1,.9,1.8A1.9,1.9,0,0,1,41.4,109.3Zm-1.1-2a.9.9,0,0,0-.6-.3c-.2,0-.4.1-.7.4a2.7,2.7,0,0,0-.8,1h.4c1.3,0,2-.2,2-.7A.5.5,0,0,0,40.3,107.3Z"/><path class="cls-2" d="M50.6,101.6c0-.5.2-.7.5-.7s.6.2.9.7a1.9,1.9,0,0,1,.6,1.2,10.5,10.5,0,0,1-.2,1.3,12.4,12.4,0,0,0-.4,1.6,16.7,16.7,0,0,0-.6,2l-.6,1.9a13.6,13.6,0,0,1,2.1-3.2c.7-.9,1.3-1.3,1.8-1.3s.7.3,1.1.8a2.9,2.9,0,0,1,.6,1.5,8.9,8.9,0,0,1-.3,1.9,7.5,7.5,0,0,1-.8,2.4c-.4.8-.8,1.2-1.3,1.2s-.5-.3-.5-.7a7.5,7.5,0,0,1,.3-1.7c.3-1.2.5-1.9.5-2.1a.6.6,0,0,0-.1-.4c-.6,0-1.5,1-2.6,2.9l-.9,1.5c-.3.3-.5.5-.8.5s-.5-.2-.8-.6-.5-.6-.5-.9.1-.5.1-.9a10.8,10.8,0,0,0,.4-1.7c.2-.7.5-2.1.9-4S50.6,101.8,50.6,101.6Z"/><path class="cls-2" d="M63.6,108.6l.2.4a2,2,0,0,1-.2.9,5.1,5.1,0,0,0-.2.9,4.3,4.3,0,0,1-.1.5v.3a.4.4,0,0,0-.1.3.4.4,0,0,1-.1.3v.4h-.1l-.3.2c-.1,0-.3-.2-.5-.5a2.3,2.3,0,0,1-.5-1,3.6,3.6,0,0,1-2.4,1.5,2.4,2.4,0,0,1-1.3-.7,2.2,2.2,0,0,1-.8-1.5,5.8,5.8,0,0,1,.6-2,10.8,10.8,0,0,1,1.8-2.4,3.3,3.3,0,0,1,2.2-1.2,2.8,2.8,0,0,1,1.5.8c.5.5.8.9.8,1.3A2.7,2.7,0,0,1,63.6,108.6ZM59.2,111a3.3,3.3,0,0,0,1.6-.8,3.8,3.8,0,0,0,1.2-2.1c0-.1.1-.2.3-.2s-.1-.9-.3-.9a2.3,2.3,0,0,0-1.4.8,10.4,10.4,0,0,0-1.2,1.7,3,3,0,0,0-.4,1.3h.2Z"/><path class="cls-2" d="M64.8,110.5a4.3,4.3,0,0,1,.7-2.3,7.2,7.2,0,0,1,1.7-2.2,3.2,3.2,0,0,1,2.1-.9c.4,0,.7.3,1.1.7A2.2,2.2,0,0,1,71,107a.4.4,0,0,1-.4.4h-.5l-.6-.2c-.3,0-.6.2-1,.6a7.5,7.5,0,0,0-1.1,1.3,2.7,2.7,0,0,0-.4,1.3c0,.3,0,.5.1.5a1.7,1.7,0,0,0,.9.2h1.2l.8-.3h.5c.3,0,.4.1.4.3s-.4.9-1.2,1.4a4.8,4.8,0,0,1-2.3.7,2.4,2.4,0,0,1-1.6-.9A1.9,1.9,0,0,1,64.8,110.5Z"/><path class="cls-2" d="M77.9,109.3a5.4,5.4,0,0,1-2.1.5H74.1a2.2,2.2,0,0,0-.1.8c0,.3,0,.5.1.6h.7a5.5,5.5,0,0,0,1.9-.2l.8-.2c.5,0,.7.2.7.4s-.4.8-1,1.1a4.3,4.3,0,0,1-2.2.6,2.9,2.9,0,0,1-2.1-.8,2.8,2.8,0,0,1-.7-1.9,5.3,5.3,0,0,1,.6-2.3,7.8,7.8,0,0,1,1.6-2,3.1,3.1,0,0,1,1.9-.8,2.4,2.4,0,0,1,1.8,1,2.9,2.9,0,0,1,.8,1.8A1.9,1.9,0,0,1,77.9,109.3Zm-1.1-2-.6-.3c-.2,0-.4.1-.7.4a4.4,4.4,0,0,0-.8,1h.4c1.4,0,2-.2,2-.7A.5.5,0,0,0,76.8,107.3Z"/><path class="cls-2" d="M86.1,107.7V106c0-.6.2-.9.5-.9a.9.9,0,0,1,.6.3,1,1,0,0,1,.5.7l1.1-.8a2,2,0,0,1,1-.2c.8,0,1.1.1,1.1.5s0,.3-.1.4-.1.1-.1.2h-.2l-.2.2-.5.3a5.2,5.2,0,0,0-1.1,1,3.4,3.4,0,0,0-.7,1.6c-.3,1.2-.6,2-.8,2.6s-.6.9-.9.9-.5-.2-.7-.5a1.3,1.3,0,0,1-.2-.8,3.5,3.5,0,0,1,.3-1.2L86,109C86,108.6,86.1,108.2,86.1,107.7Z"/><path class="cls-2" d="M96.4,109.3a4.9,4.9,0,0,1-2,.5H92.6a2.2,2.2,0,0,0-.1.8c0,.3,0,.5.1.6h.7a5.3,5.3,0,0,0,1.9-.2l.9-.2c.4,0,.6.2.6.4s-.3.8-1,1.1a4,4,0,0,1-2.2.6,2.6,2.6,0,0,1-2-.8,2.5,2.5,0,0,1-.8-1.9,5.3,5.3,0,0,1,.6-2.3,7.8,7.8,0,0,1,1.6-2,3.4,3.4,0,0,1,1.9-.8,2.1,2.1,0,0,1,1.8,1,2.9,2.9,0,0,1,.8,1.8A1.7,1.7,0,0,1,96.4,109.3Zm-1-2-.6-.3a1.2,1.2,0,0,0-.8.4l-.8,1h.4c1.4,0,2.1-.2,2.1-.7A.5.5,0,0,0,95.4,107.3Z"/><path class="cls-2" d="M104.4,108.6l.3.4a8.1,8.1,0,0,1-.2.9,4.6,4.6,0,0,1-.3.9.7.7,0,0,1-.1.5v.3a.4.4,0,0,1-.1.3v.3a.3.3,0,0,0-.1.2c0,.1,0,.2-.1.2a.1.1,0,0,1-.1.1c0,.1-.1.2-.3.2s-.3-.2-.5-.5a2.3,2.3,0,0,1-.5-1,3.7,3.7,0,0,1-2.3,1.5,2.3,2.3,0,0,1-1.4-.7,2.2,2.2,0,0,1-.8-1.5,4.7,4.7,0,0,1,.7-2,8.1,8.1,0,0,1,1.7-2.4,3.3,3.3,0,0,1,2.3-1.2,2.3,2.3,0,0,1,1.4.8,1.7,1.7,0,0,1,.8,1.3A2.7,2.7,0,0,1,104.4,108.6ZM100,111a3.3,3.3,0,0,0,1.6-.8,3.9,3.9,0,0,0,1.3-2.1c0-.1,0-.2.2-.2s-.1-.9-.3-.9-.8.3-1.3.8a6.6,6.6,0,0,0-1.2,1.7,2.4,2.4,0,0,0-.5,1.3h.2Z"/><path class="cls-2" d="M108.7,101.6a1.7,1.7,0,0,1,.6,1.2c0,.4-.1,1.2-.2,2.2s-.3,1.8-.4,2.4c-.8,3.7-1.4,5.5-1.7,5.5s-.5-.2-.8-.6a1,1,0,0,1-.5-.8,10.2,10.2,0,0,1,.4-1.6c.2-1,.5-2.3.8-3.9a25.3,25.3,0,0,0,.4-4.6.5.5,0,0,1,.5-.5C108,100.9,108.3,101.1,108.7,101.6Z"/><path class="cls-2" d="M111.3,105.1a1.2,1.2,0,0,1,1,.6,1.9,1.9,0,0,1,.4,1.2,17.2,17.2,0,0,1-.5,2c-.4,1.2-.7,2.3-1.1,3.4a.7.7,0,0,1-.7.6.9.9,0,0,1-.6-.3,1.4,1.4,0,0,1-.2-.6,8.2,8.2,0,0,1,.4-2q.3-1.6.6-2.7a13.9,13.9,0,0,1,.3-1.7C111,105.3,111.2,105.1,111.3,105.1Zm-.2-1.8a1.2,1.2,0,0,1,.4-.9,1,1,0,0,1,.7-.4c.2,0,.5.3.8.8a3.1,3.1,0,0,1,.4,1.2.8.8,0,0,1-.2.6l-.5.2c-.3,0-.6-.2-1-.6S111.1,103.5,111.1,103.3Z"/><path class="cls-2" d="M120,100.9c.2,0,.5.2.9.7a1.7,1.7,0,0,1,.6,1.2c0,.2-.2,1-.5,2.4l-.7,2.5c-.8,3.4-1.4,5.2-1.7,5.2a1.3,1.3,0,0,1-.7-.4c-.3-.3-.4-.5-.4-.7v-.2c-1,.9-1.7,1.3-2.2,1.3a1.9,1.9,0,0,1-1.2-.7,2.2,2.2,0,0,1-.6-1.3,6.2,6.2,0,0,1,.1-1.3,12.1,12.1,0,0,1,.5-1.4,5.3,5.3,0,0,1,.8-1.5,3.6,3.6,0,0,1,1-1.1,2.1,2.1,0,0,1,1.3-.5,1.9,1.9,0,0,1,1.5,1,21.9,21.9,0,0,0,.8-4.7A.5.5,0,0,1,120,100.9ZM115.5,111c.3,0,.7-.3,1.3-.7a4,4,0,0,0,1.3-1.6v-.5a1.1,1.1,0,0,0-.3-.8.5.5,0,0,0-.5-.4c-.3,0-.5.2-.8.5a4.1,4.1,0,0,0-.7,1.1,9.1,9.1,0,0,0-.5,2.2.1.1,0,0,0,.1.1Z"/><path class="cls-2" d="M128,108.6l.3.4a8.1,8.1,0,0,1-.2.9,5.1,5.1,0,0,0-.2.9,1.1,1.1,0,0,0-.1.5v.6a.4.4,0,0,0-.1.3v.4h-.2c0,.1-.1.2-.3.2l-.5-.5a2.3,2.3,0,0,1-.4-1,4.1,4.1,0,0,1-2.4,1.5,2.6,2.6,0,0,1-1.4-.7,2.1,2.1,0,0,1-.7-1.5,5.8,5.8,0,0,1,.6-2,6.9,6.9,0,0,1,1.8-2.4,2.9,2.9,0,0,1,2.2-1.2,2.3,2.3,0,0,1,1.4.8c.6.5.9.9.9,1.3A3,3,0,0,1,128,108.6Zm-4.4,2.4a3,3,0,0,0,1.6-.8,3.9,3.9,0,0,0,1.3-2.1l.2-.2q0-.9-.3-.9c-.4,0-.8.3-1.3.8a6.6,6.6,0,0,0-1.2,1.7,3.6,3.6,0,0,0-.5,1.3c0,.1,0,.1.1.1Z"/><path class="cls-2" d="M135.7,100.9c.2,0,.5.2.9.7a1.7,1.7,0,0,1,.6,1.2c0,.2-.2,1-.5,2.4a14.8,14.8,0,0,0-.6,2.5c-.8,3.4-1.4,5.2-1.8,5.2s-.4-.2-.7-.4-.4-.5-.4-.7v-.2c-1,.9-1.7,1.3-2.1,1.3a1.9,1.9,0,0,1-1.3-.7,2.2,2.2,0,0,1-.6-1.3,6.9,6.9,0,0,1,.2-1.3,4.8,4.8,0,0,1,.5-1.4,5.2,5.2,0,0,1,.7-1.5,3.6,3.6,0,0,1,1-1.1,2.7,2.7,0,0,1,1.3-.5,2,2,0,0,1,1.6,1,31.5,31.5,0,0,0,.8-4.7C135.3,101.1,135.4,100.9,135.7,100.9ZM131.3,111a4.1,4.1,0,0,0,1.2-.7,4.3,4.3,0,0,0,1.4-1.6.7.7,0,0,1-.1-.5,1.1,1.1,0,0,0-.2-.8c-.2-.3-.4-.4-.5-.4a1.4,1.4,0,0,0-.9.5,2.4,2.4,0,0,0-.6,1.1,5.9,5.9,0,0,0-.5,2.2h.2Z"/><path class="cls-2" d="M148.9,109.3a5.4,5.4,0,0,1-2.1.5h-1.7a2.2,2.2,0,0,0-.1.8c0,.3,0,.5.1.6h.7a5.5,5.5,0,0,0,1.9-.2l.8-.2c.4,0,.6.2.6.4s-.3.8-.9,1.1a4.4,4.4,0,0,1-2.3.6,2.8,2.8,0,0,1-2-.8,2.9,2.9,0,0,1-.8-1.9,5.5,5.5,0,0,1,.7-2.3,6.2,6.2,0,0,1,1.6-2,3.1,3.1,0,0,1,1.9-.8,2.4,2.4,0,0,1,1.8,1,2.9,2.9,0,0,1,.8,1.8A1.9,1.9,0,0,1,148.9,109.3Zm-1.1-2a.9.9,0,0,0-.6-.3c-.2,0-.4.1-.7.4a2.7,2.7,0,0,0-.8,1h.4c1.3,0,2-.2,2-.7A.5.5,0,0,0,147.8,107.3Z"/><path class="cls-2" d="M153.5,101.6a1.7,1.7,0,0,1,.6,1.2c0,.4-.1,1.2-.2,2.2a11.9,11.9,0,0,1-.4,2.4c-.8,3.7-1.4,5.5-1.7,5.5s-.5-.2-.8-.6a1,1,0,0,1-.5-.8,10.2,10.2,0,0,1,.4-1.6c.3-1,.5-2.3.8-3.9a25.3,25.3,0,0,0,.4-4.6.5.5,0,0,1,.5-.5C152.8,100.9,153.1,101.1,153.5,101.6Z"/><path class="cls-2" d="M.5,128.5a5.3,5.3,0,0,1,.6-2.3A7.6,7.6,0,0,1,2.9,124a3.2,3.2,0,0,1,2.1-.9,1.5,1.5,0,0,1,1,.7,2.2,2.2,0,0,1,.6,1.2c0,.3-.1.4-.4.4H5.7l-.6-.2q-.3,0-.9.6A4.7,4.7,0,0,0,3.1,127a3.1,3.1,0,0,0-.5,1.3c0,.3.1.5.2.5l.8.2H4.8l.8-.3h.5c.3,0,.4.1.4.3s-.3.9-1.1,1.4a5.5,5.5,0,0,1-2.3.7,2.6,2.6,0,0,1-1.7-.9A2,2,0,0,1,.5,128.5Z"/><path class="cls-2" d="M8.9,124.8c.8-1.1,1.5-1.7,2.3-1.7a2.7,2.7,0,0,1,2.7,2.7,4.6,4.6,0,0,1-.6,2.3,4.3,4.3,0,0,1-1.5,2,3.2,3.2,0,0,1-2.1.8,1.9,1.9,0,0,1-1.4-.8,2.8,2.8,0,0,1-.6-1.8A5.9,5.9,0,0,1,8.9,124.8Zm2.4,3.1a4.5,4.5,0,0,0,.6-2.1,3.5,3.5,0,0,0-.2-1.3,3.6,3.6,0,0,0-1.3,1.6,4,4,0,0,0-.7,2.1,2,2,0,0,0,.2,1.1A2.7,2.7,0,0,0,11.3,127.9Z"/><path class="cls-2" d="M15.7,124.8c.8-1.1,1.6-1.7,2.3-1.7a2.6,2.6,0,0,1,1.9.8,2.4,2.4,0,0,1,.8,1.9,5.9,5.9,0,0,1-.5,2.3,6.2,6.2,0,0,1-1.5,2,3.7,3.7,0,0,1-2.1.8,1.7,1.7,0,0,1-1.4-.8,2.8,2.8,0,0,1-.6-1.8A5.8,5.8,0,0,1,15.7,124.8Zm2.5,3.1a4.5,4.5,0,0,0,.6-2.1,2.1,2.1,0,0,0-.3-1.3,4.5,4.5,0,0,0-1.3,1.6,4.8,4.8,0,0,0-.6,2.1c0,.6,0,1,.2,1.1A3.1,3.1,0,0,0,18.2,127.9Z"/><path class="cls-2" d="M26.9,123.1c.4,0,.8.4,1.2,1a4.4,4.4,0,0,1,.7,2,2.4,2.4,0,0,1-.6,1.4,6.1,6.1,0,0,1-1.2,1.6l-1.8,1.2a3.7,3.7,0,0,1-2,.5h-.1c-.7,2.7-1.1,4-1.4,4s-.4-.2-.6-.6a1.2,1.2,0,0,1-.4-.8c0-.3.2-1,.4-2.1a34.7,34.7,0,0,0,1.3-8c0-.3.2-.4.5-.4a1.6,1.6,0,0,1,.9.4,1.7,1.7,0,0,1,.7,1A3.5,3.5,0,0,1,26.9,123.1Zm-1.2,4.7a3.2,3.2,0,0,0,1.1-1.9c0-.5-.2-.8-.4-.8a2.1,2.1,0,0,0-1.4.8l-.6.8-.6,1.4-.3,1A4.6,4.6,0,0,0,25.7,127.8Z"/><path class="cls-2" d="M35.3,127.3a5.4,5.4,0,0,1-2.1.5H31.5a2.2,2.2,0,0,0-.1.8c0,.3,0,.5.1.6h.7a5.5,5.5,0,0,0,1.9-.2l.8-.2c.4,0,.6.2.6.4s-.3.8-.9,1.1a4.4,4.4,0,0,1-2.3.6,2.8,2.8,0,0,1-2-.8,2.9,2.9,0,0,1-.8-1.9,5.5,5.5,0,0,1,.7-2.3,6.2,6.2,0,0,1,1.6-2,3.1,3.1,0,0,1,1.9-.8,2.4,2.4,0,0,1,1.8,1,2.9,2.9,0,0,1,.8,1.8A1.9,1.9,0,0,1,35.3,127.3Zm-1.1-2a.9.9,0,0,0-.6-.3c-.2,0-.4.1-.7.4a2.7,2.7,0,0,0-.8,1h.4c1.3,0,2-.2,2-.7A.5.5,0,0,0,34.2,125.3Z"/><path class="cls-2" d="M37.7,125.7V124c0-.6.2-.9.5-.9l.6.3a1,1,0,0,1,.5.7l1.1-.8a2.2,2.2,0,0,1,1.1-.2c.7,0,1,.1,1,.5s0,.3-.1.4-.1.1-.1.2H42l-.2.2-.5.3a5.2,5.2,0,0,0-1.1,1,3.4,3.4,0,0,0-.7,1.6c-.3,1.2-.6,2-.8,2.6s-.6.9-.9.9-.5-.2-.7-.5a3.1,3.1,0,0,1-.2-.8,3.5,3.5,0,0,1,.3-1.2l.4-1.4A5.3,5.3,0,0,0,37.7,125.7Z"/><path class="cls-2" d="M48.7,126.6c.2.2.2.3.2.4a3.9,3.9,0,0,1-.1.9,9.2,9.2,0,0,0-.3.9,4.3,4.3,0,0,1-.1.5v.9c-.1,0-.1.1-.1.2v.2H48c0,.1-.1.2-.3.2l-.5-.5a2.3,2.3,0,0,1-.5-1,3.7,3.7,0,0,1-2.3,1.5,2.3,2.3,0,0,1-1.4-.7,2.2,2.2,0,0,1-.8-1.5,4.7,4.7,0,0,1,.7-2,8.1,8.1,0,0,1,1.7-2.4,3.3,3.3,0,0,1,2.2-1.2c.5,0,.9.3,1.5.8s.8.9.8,1.3A2.7,2.7,0,0,1,48.7,126.6ZM44.3,129a3.3,3.3,0,0,0,1.6-.8,3.3,3.3,0,0,0,1.2-2.1c.1-.1.1-.2.3-.2s-.1-.9-.3-.9-.8.3-1.3.8a6.6,6.6,0,0,0-1.2,1.7,2.4,2.4,0,0,0-.5,1.3h.2Z"/><path class="cls-2" d="M53.5,126a14.5,14.5,0,0,0-.6,1.9l-.3,1.1h.2l1.2-.3,1.1-.4a.5.5,0,0,1,.4.5c0,.4-.4.8-1,1.3a4.4,4.4,0,0,1-2.1.7,1.9,1.9,0,0,1-1.2-.6,1.4,1.4,0,0,1-.6-1,7,7,0,0,1,.4-1.9l.6-2-.8.2a1,1,0,0,1-.7-.5,1.1,1.1,0,0,1-.3-.7c0-.4.8-.6,2.3-.9a11.2,11.2,0,0,0,.3-2.4c0-.3.2-.4.5-.4a1.7,1.7,0,0,1,1,.5,1.2,1.2,0,0,1,.6.9,10.5,10.5,0,0,1-.2,1.3h1.1c.7,0,1.1.2,1.1.5s-.2.5-.7.6l-2,.5A6.1,6.1,0,0,1,53.5,126Z"/><path class="cls-2" d="M58.4,123.1a1,1,0,0,1,.9.6,2.1,2.1,0,0,1,.5,1.2,10.3,10.3,0,0,1-.6,2,33.7,33.7,0,0,1-1,3.4.7.7,0,0,1-.7.6.9.9,0,0,1-.6-.3.7.7,0,0,1-.2-.6,13.5,13.5,0,0,1,.3-2,23.2,23.2,0,0,0,.6-2.7l.4-1.7C58.1,123.3,58.2,123.1,58.4,123.1Zm-.2-1.8a1.6,1.6,0,0,1,.3-.9c.3-.2.5-.4.7-.4s.5.3.8.8a4.2,4.2,0,0,1,.5,1.2.8.8,0,0,1-.2.6l-.5.2a1.4,1.4,0,0,1-1-.6Q58.2,121.6,58.2,121.3Z"/><path class="cls-2" d="M65.9,123.1a1.1,1.1,0,0,1,.7.3.7.7,0,0,1,.4.6,9.4,9.4,0,0,1-.9,2.5,20.5,20.5,0,0,1-1.7,3.1c-.5.9-.9,1.3-1.1,1.3l-.7-.3a1.2,1.2,0,0,1-.5-.6,14.2,14.2,0,0,1-.9-3.3,24.3,24.3,0,0,1-.5-2.9c0-.5.1-.7.4-.7a3,3,0,0,1,1.1.4,2.7,2.7,0,0,1,1,1.9v1.3c.1.5.1,1,.2,1.4l.9-2.1a10.9,10.9,0,0,1,.9-2.1C65.4,123.4,65.7,123.1,65.9,123.1Z"/><path class="cls-2" d="M68.6,123.1a1.2,1.2,0,0,1,1,.6,2.8,2.8,0,0,1,.4,1.2,17.2,17.2,0,0,1-.5,2c-.4,1.2-.7,2.3-1.1,3.4a.7.7,0,0,1-.7.6.9.9,0,0,1-.6-.3,1.4,1.4,0,0,1-.2-.6,8.2,8.2,0,0,1,.4-2c.2-1.1.4-2,.5-2.7l.4-1.7C68.3,123.3,68.5,123.1,68.6,123.1Zm-.2-1.8a1.2,1.2,0,0,1,.4-.9,1,1,0,0,1,.7-.4c.2,0,.4.3.8.8a3.1,3.1,0,0,1,.4,1.2.8.8,0,0,1-.2.6l-.5.2c-.3,0-.6-.2-1-.6S68.4,121.5,68.4,121.3Z"/><path class="cls-2" d="M75.6,123.1a1.9,1.9,0,0,1,1.2.7,2.8,2.8,0,0,1,.5,1.2c0,.3-.1.4-.3.4l-.5-.2h-.7l-1.1.2c-.4.2-.6.4-.6.7l.4.4.8.6a2.4,2.4,0,0,1,.9.8,1.9,1.9,0,0,1,.4,1.2q0,.6-.9,1.2a3.1,3.1,0,0,1-2.1.7,3.7,3.7,0,0,1-2.1-.6c-.6-.4-.9-.7-.9-1.1s.2-.6.5-.6h.5a3.5,3.5,0,0,0,1.8.5q1.2,0,1.2-.3a1,1,0,0,0-.5-.7l-.9-.7a3.2,3.2,0,0,1-.9-.8,1.5,1.5,0,0,1-.5-.8q0-.9,1.5-1.8A5.8,5.8,0,0,1,75.6,123.1Z"/><path class="cls-2" d="M87.9,123.1a1.1,1.1,0,0,1,1,.8,2.7,2.7,0,0,1,.4,1.4,17.6,17.6,0,0,1-.2,1.9,18.3,18.3,0,0,1-.8,2.5q-.6,1.2-1.2,1.2c-.3,0-.5-.3-.5-.7A15.1,15.1,0,0,1,87,128a8.2,8.2,0,0,0,.4-2c0-.3,0-.5-.1-.5s-.5.2-.8.7-.6,1.1-1,1.8l-.8,1.5-.2.5-.2.4c-.4.6-.8.6-1.3,0a.9.9,0,0,1-.4-.7s.1-.4.2-1.1a10.1,10.1,0,0,0,.3-2.5c0-.4-.1-.6-.2-.6s-.2.1-.4.4a11.1,11.1,0,0,0-.7,1.3c-.4.6-.6,1.1-.9,1.5s-1.5,2.2-1.9,2.2-.5-.2-.8-.6-.5-.6-.5-.8a7,7,0,0,1,.3-1.4,10.3,10.3,0,0,0,.5-2.4c0-.9.1-1.5.1-2s.2-.7.4-.7a1.8,1.8,0,0,1,1.1.5,1,1,0,0,1,.5.8,13.3,13.3,0,0,1-.6,3.1,16.4,16.4,0,0,1,1.8-3.4,2.1,2.1,0,0,1,1.4-.9c.3,0,.6.3,1,.7a2.4,2.4,0,0,1,.6,1.4v1.1a5.9,5.9,0,0,1,1.4-2.2A2.8,2.8,0,0,1,87.9,123.1Z"/><path class="cls-2" d="M91.2,124.8c.8-1.1,1.6-1.7,2.3-1.7a2.6,2.6,0,0,1,1.9.8,2.4,2.4,0,0,1,.8,1.9,5.9,5.9,0,0,1-.5,2.3,6.2,6.2,0,0,1-1.5,2,3.7,3.7,0,0,1-2.1.8,1.7,1.7,0,0,1-1.4-.8,2.8,2.8,0,0,1-.6-1.8A5.8,5.8,0,0,1,91.2,124.8Zm2.5,3.1a4.5,4.5,0,0,0,.6-2.1,2.1,2.1,0,0,0-.3-1.3,4.5,4.5,0,0,0-1.3,1.6,4.8,4.8,0,0,0-.6,2.1,2.5,2.5,0,0,0,.1,1.1A2.9,2.9,0,0,0,93.7,127.9Z"/><path class="cls-2" d="M98.8,131.1a1.5,1.5,0,0,1-1.1-.6c-.4-.4-.6-.7-.6-1a1.8,1.8,0,0,1,1.1-1.3q.5,0,.9.9a3.1,3.1,0,0,1,.5,1.3.9.9,0,0,1-.3.5Z"/></g></svg>