<?xml version="1.0" encoding="utf-8"?>
<!-- Generator: Adobe Illustrator 23.0.3, SVG Export Plug-In . SVG Version: 6.00 Build 0)  -->
<!DOCTYPE svg PUBLIC "-//W3C//DTD SVG 1.1//EN" "http://www.w3.org/Graphics/SVG/1.1/DTD/svg11.dtd" [
	<!ENTITY st0 "display:none;">
	<!ENTITY st1 "display:inline;opacity:0.1;">
	<!ENTITY st2 "fill:#5B5B5F;">
	<!ENTITY st3 "fill:#5B5B5F;stroke:#5B5B5F;stroke-width:0.436;stroke-miterlimit:10;">
	<!ENTITY st4 "fill:#5B5B5F;stroke:#5B5B5F;stroke-width:0.218;stroke-miterlimit:10;">
	<!ENTITY st5 "clip-path:url(#SVGID_2_);">
	<!ENTITY st6 "opacity:0.28;fill:#FFFFFF;">
	<!ENTITY st7 "fill:none;">
	<!ENTITY st8 "opacity:0.5;">
	<!ENTITY st9 "fill:none;stroke:#5B5B5F;stroke-width:0.6541;stroke-miterlimit:10;">
	<!ENTITY st10 "fill:none;stroke:#5B5B5F;stroke-width:0.8721;stroke-linecap:round;stroke-linejoin:round;stroke-miterlimit:10;">
	<!ENTITY st11 "fill:none;stroke:#5B5B5F;stroke-width:0.6541;stroke-linecap:round;stroke-linejoin:round;stroke-miterlimit:10;">
	<!ENTITY st12 "clip-path:url(#SVGID_4_);">
	<!ENTITY st13 "clip-path:url(#SVGID_6_);">
	<!ENTITY st14 "clip-path:url(#SVGID_8_);">
	<!ENTITY st15 "clip-path:url(#SVGID_10_);">
	<!ENTITY st16 "clip-path:url(#SVGID_12_);">
	<!ENTITY st17 "opacity:0.42;fill:#94CA6E;">
	<!ENTITY st18 "fill:#ECF8FE;stroke:#52474C;stroke-width:3.1401;stroke-miterlimit:10;">
	<!ENTITY st19 "opacity:0.19;">
	<!ENTITY st20 "opacity:0.35;fill:#808080;">
	<!ENTITY st21 "fill:#736357;">
	<!ENTITY st22 "fill:#3A3432;">
	<!ENTITY st23 "fill:#006837;">
	<!ENTITY st24 "fill:#084728;">
	<!ENTITY st25 "fill:#0B476F;stroke:#2C3235;stroke-miterlimit:10;">
	<!ENTITY st26 "fill:#333333;">
	<!ENTITY st27 "opacity:0.54;">
	<!ENTITY st28 "opacity:0.11;">
	<!ENTITY st29 "fill:#FFFFFF;">
	<!ENTITY st30 "fill:#1A1A1A;">
	<!ENTITY st31 "fill:none;stroke:#614415;stroke-width:16.0794;stroke-miterlimit:10;">
	<!ENTITY st32 "opacity:0.25;">
	<!ENTITY st33 "fill:#B1B9C8;">
	<!ENTITY st34 "fill:#522E90;">
	<!ENTITY st35 "opacity:0.46;fill:#FFFFFF;">
]>
<svg version="1.1" xmlns="http://www.w3.org/2000/svg" xmlns:xlink="http://www.w3.org/1999/xlink" x="0px" y="0px"
	 viewBox="0 0 161.2 182.5" style="enable-background:new 0 0 161.2 182.5;" xml:space="preserve">
<g id="bg" style="&st0;">
</g>
<g id="Layer_10">
</g>
<g id="Layer_9">
</g>
<g id="Layer_8">
</g>
<g id="Layer_11">
</g>
<g id="papers">
	<g>
		<g>
			<path style="&st32;" d="M138.6,10.6l9.8-1.4c0,0-1.2,49.6,2.7,96.4c2.7,32.6,10.1,76.7,10.1,76.7s-38.6-4.1-77.3-3.6
				c-38.7,0.5-76.5,3.7-76.5,3.7s-0.7-11.2-0.7-49.2c0-38,8.8-80.4,8.8-80.4l87.4-22L138.6,10.6z"/>
			<g>
				<path style="&st29;" d="M152.4,173.6c-50.4,1.2-100.8,2.5-151.2,3.7C-0.6,121-0.4,64.6,1.9,8.3C50.3,8.2,98.8,8.1,147.2,8
					C146.9,63.2,148.7,118.4,152.4,173.6z"/>
			</g>
		</g>
		<g>
			<path style="&st33;" d="M83.5,13.8c0,6.6-5.4,12-12,12c-6.6,0-12-5.4-12-12c0-6.6,5.4-12,12-12C78.2,1.9,83.5,7.2,83.5,13.8z"/>
			<path style="&st34;" d="M81.8,12c0,6.6-5.4,12-12,12c-6.6,0-12-5.4-12-12c0-6.6,5.4-12,12-12C76.5,0,81.8,5.4,81.8,12z"/>
			<path style="&st35;" d="M60,13.6c0-5.9,4.8-10.7,10.7-10.7c3.8,0,7.1,1.9,9,4.9c-1.6-3.8-5.4-6.5-9.9-6.5C64,1.2,59.2,6,59.2,12
				c0,2.2,0.6,4.2,1.7,5.9C60.3,16.5,60,15.1,60,13.6z"/>
		</g>
		<g>
			<g>
				<path d="M39.8,38.9c0,0.4-0.3,0.6-0.8,0.6c-0.7,0-1.5-0.4-2.3-1.1S35.3,36.8,35,36c-0.1,0.4-0.3,0.8-0.3,0.9
					c-0.1,0.2-0.1,0.4-0.3,0.8c-0.1,0.3-0.2,0.6-0.3,0.8C34.1,38.6,34,38.8,34,39c-0.1,0.4-0.3,0.5-0.4,0.5c-0.2,0-0.5-0.2-0.8-0.5
					c-0.3-0.4-0.5-0.7-0.5-0.9c0-0.2,0.1-0.6,0.3-1.2c0.6-1.9,1-3.6,1.1-5.1c-0.2-0.1-0.3-0.3-0.5-0.6c-0.1-0.3-0.2-0.5-0.2-0.6
					c0-0.3,0.4-0.6,1.1-0.9c0.7-0.3,1.6-0.5,2.5-0.5s1.7,0.2,2.4,0.7c0.6,0.4,1,1,1,1.8c0,0.5-0.2,1-0.5,1.5c-0.3,0.5-0.7,0.9-1,1.1
					c-0.4,0.3-0.7,0.5-1,0.7c-0.3,0.2-0.5,0.4-0.5,0.4c0,0.2,0.1,0.4,0.2,0.6c0.1,0.2,0.4,0.4,0.6,0.7s0.5,0.5,0.7,0.7
					c0.2,0.2,0.4,0.3,0.5,0.5s0.2,0.2,0.4,0.4C39.7,38.6,39.8,38.8,39.8,38.9z M37.8,31.7c0-0.4-0.4-0.6-1.1-0.6
					c-0.4,0-0.8,0.1-1.3,0.3c0.2,0.4,0.4,0.7,0.4,1c0,0.5-0.1,1.1-0.2,1.8c0.1-0.1,0.3-0.2,0.6-0.4s0.5-0.3,0.7-0.5
					c0.2-0.1,0.3-0.3,0.5-0.5C37.6,32.6,37.8,32.2,37.8,31.7z"/>
				<path d="M45.9,36.1c-0.6,0.4-1.3,0.5-1.9,0.5s-1.2,0-1.6-0.1c-0.1,0.3-0.1,0.5-0.1,0.8s0,0.4,0.1,0.5s0.3,0.2,0.6,0.2
					c0.7,0,1.3-0.1,1.8-0.2c0.5-0.1,0.8-0.2,0.8-0.2c0.4,0,0.6,0.1,0.6,0.4c0,0.4-0.3,0.7-0.9,1c-0.6,0.3-1.3,0.5-2.1,0.5
					s-1.4-0.2-1.9-0.7c-0.5-0.5-0.7-1.1-0.7-1.8s0.2-1.4,0.6-2.1c0.4-0.7,0.9-1.4,1.5-1.9c0.6-0.5,1.2-0.7,1.8-0.7
					c0.6,0,1.1,0.3,1.6,0.9c0.5,0.6,0.8,1.2,0.8,1.7C46.9,35.3,46.6,35.7,45.9,36.1z M45,34.2c-0.2-0.2-0.4-0.3-0.6-0.3
					s-0.4,0.1-0.7,0.4c-0.3,0.2-0.5,0.6-0.8,1c0.1,0,0.2,0,0.4,0c1.3,0,1.9-0.2,1.9-0.7C45.3,34.5,45.2,34.4,45,34.2z"/>
				<path d="M52.5,32.2c0.3,0,0.7,0.3,1.1,0.9c0.4,0.6,0.6,1.2,0.6,1.8c0,0.4-0.2,0.8-0.5,1.3c-0.3,0.5-0.7,1-1.2,1.4
					c-0.5,0.5-1,0.8-1.7,1.2c-0.6,0.3-1.2,0.5-1.8,0.5h-0.2c-0.6,2.4-1,3.7-1.2,3.7c-0.2,0-0.4-0.2-0.6-0.5
					c-0.2-0.3-0.3-0.6-0.3-0.8s0.1-0.9,0.4-2c0.8-3.3,1.2-5.7,1.2-7.4c0-0.3,0.1-0.4,0.4-0.4c0.2,0,0.5,0.1,0.9,0.4s0.6,0.6,0.6,1
					C51,32.6,51.8,32.2,52.5,32.2z M51.4,36.5c0.6-0.7,1-1.2,1-1.7s-0.1-0.7-0.4-0.7c-0.4,0-0.8,0.2-1.2,0.7
					c-0.2,0.2-0.4,0.5-0.6,0.8c-0.2,0.4-0.4,0.8-0.6,1.3l-0.2,0.9C50.1,37.6,50.8,37.2,51.4,36.5z"/>
				<path d="M55.7,34.6L55.7,33c0-0.5,0.2-0.8,0.5-0.8c0.2,0,0.4,0.1,0.6,0.2c0.2,0.1,0.3,0.4,0.4,0.7c0.3-0.3,0.7-0.5,1-0.7
					s0.7-0.3,1-0.3c0.7,0,1,0.2,1,0.5c0,0.2,0,0.3-0.1,0.4c-0.1,0.1-0.1,0.1-0.1,0.2c0,0-0.1,0.1-0.2,0.1c-0.1,0.1-0.1,0.1-0.2,0.1
					c-0.2,0.1-0.4,0.2-0.5,0.3c-0.4,0.3-0.8,0.6-1.1,0.9c-0.3,0.4-0.5,0.9-0.7,1.5c-0.3,1.1-0.5,1.9-0.7,2.4
					c-0.2,0.5-0.5,0.8-0.8,0.8c-0.3,0-0.5-0.1-0.7-0.4c-0.1-0.3-0.2-0.5-0.2-0.8c0-0.2,0.1-0.6,0.3-1.1c0.2-0.5,0.3-0.9,0.4-1.3
					C55.7,35.4,55.7,35,55.7,34.6z"/>
				<path d="M65.4,36.1c-0.6,0.4-1.3,0.5-1.9,0.5c-0.7,0-1.2,0-1.6-0.1c-0.1,0.3-0.1,0.5-0.1,0.8s0,0.4,0.1,0.5s0.3,0.2,0.6,0.2
					c0.7,0,1.3-0.1,1.8-0.2c0.5-0.1,0.8-0.2,0.8-0.2c0.4,0,0.6,0.1,0.6,0.4c0,0.4-0.3,0.7-0.9,1c-0.6,0.3-1.3,0.5-2.1,0.5
					s-1.4-0.2-1.9-0.7c-0.5-0.5-0.7-1.1-0.7-1.8s0.2-1.4,0.6-2.1c0.4-0.7,0.9-1.4,1.5-1.9c0.6-0.5,1.2-0.7,1.8-0.7
					c0.6,0,1.1,0.3,1.6,0.9c0.5,0.6,0.8,1.2,0.8,1.7C66.3,35.3,66,35.7,65.4,36.1z M64.4,34.2c-0.2-0.2-0.4-0.3-0.6-0.3
					c-0.2,0-0.4,0.1-0.7,0.4c-0.3,0.2-0.5,0.6-0.8,1c0.1,0,0.2,0,0.4,0c1.3,0,1.9-0.2,1.9-0.7C64.7,34.5,64.6,34.4,64.4,34.2z"/>
				<path d="M71.3,32.2c0.4,0,0.7,0.2,1.1,0.6c0.3,0.4,0.5,0.8,0.5,1.1c0,0.2-0.1,0.3-0.3,0.3c-0.1,0-0.3,0-0.5-0.1
					c-0.2-0.1-0.4-0.1-0.7-0.1c-0.2,0-0.5,0.1-1,0.2c-0.4,0.1-0.6,0.3-0.6,0.6c0,0.1,0.1,0.2,0.4,0.4c0.3,0.2,0.5,0.4,0.8,0.5
					c0.3,0.2,0.6,0.4,0.8,0.8s0.4,0.7,0.4,1.1s-0.3,0.8-0.8,1.2c-0.6,0.4-1.2,0.6-2,0.6s-1.4-0.2-2-0.5c-0.5-0.3-0.8-0.7-0.8-1.1
					s0.1-0.5,0.4-0.5c0.1,0,0.3,0,0.4,0.1c0.5,0.3,1,0.4,1.7,0.4s1-0.1,1-0.3c0-0.2-0.1-0.4-0.4-0.6c-0.3-0.2-0.6-0.4-0.9-0.6
					c-0.3-0.2-0.6-0.4-0.9-0.7c-0.3-0.3-0.4-0.6-0.4-0.8c0-0.5,0.5-1.1,1.4-1.6C70.1,32.5,70.8,32.2,71.3,32.2z"/>
				<path d="M78.7,36.1c-0.6,0.4-1.3,0.5-1.9,0.5s-1.2,0-1.6-0.1c-0.1,0.3-0.1,0.5-0.1,0.8s0,0.4,0.1,0.5s0.3,0.2,0.6,0.2
					c0.7,0,1.3-0.1,1.8-0.2c0.5-0.1,0.8-0.2,0.8-0.2c0.4,0,0.6,0.1,0.6,0.4c0,0.4-0.3,0.7-0.9,1c-0.6,0.3-1.3,0.5-2.1,0.5
					s-1.4-0.2-1.9-0.7c-0.5-0.5-0.7-1.1-0.7-1.8s0.2-1.4,0.6-2.1c0.4-0.7,0.9-1.4,1.5-1.9c0.6-0.5,1.2-0.7,1.8-0.7
					c0.6,0,1.1,0.3,1.6,0.9c0.5,0.6,0.8,1.2,0.8,1.7C79.7,35.3,79.4,35.7,78.7,36.1z M77.8,34.2c-0.2-0.2-0.4-0.3-0.6-0.3
					s-0.4,0.1-0.7,0.4c-0.3,0.2-0.5,0.6-0.8,1c0.1,0,0.2,0,0.4,0c1.3,0,1.9-0.2,1.9-0.7C78.1,34.5,78,34.4,77.8,34.2z"/>
				<path d="M85.4,32.2c0.5,0,0.9,0.2,1.3,0.7c0.4,0.4,0.6,0.9,0.6,1.4c0,0.8-0.1,1.6-0.4,2.5c-0.3,0.9-0.5,1.5-0.8,2
					s-0.6,0.7-0.9,0.7c-0.3,0-0.5-0.2-0.5-0.7c0-0.3,0.2-1,0.5-2c0.2-0.8,0.3-1.4,0.3-1.8s0-0.5-0.1-0.5c-0.1,0-0.2,0.1-0.4,0.2
					c-0.1,0.1-0.2,0.2-0.3,0.3c-0.1,0.1-0.2,0.2-0.3,0.4c-0.1,0.1-0.2,0.3-0.3,0.4c-0.1,0.1-0.2,0.3-0.3,0.4
					c-0.1,0.2-0.2,0.3-0.3,0.4c-0.1,0.1-0.1,0.3-0.3,0.5c-0.9,1.6-1.5,2.4-2,2.4c-0.2,0-0.4-0.2-0.7-0.5s-0.4-0.6-0.4-0.7
					c0-0.1,0.1-0.3,0.2-0.7s0.2-0.6,0.3-0.8c0.1-0.2,0.1-0.4,0.2-0.6s0.1-0.4,0.1-0.7s0-0.4,0.1-0.6s0-0.3,0-0.6
					c0.1-1.2,0.2-1.9,0.2-2c0.1-0.1,0.1-0.2,0.2-0.2c0.4,0,0.7,0.1,1,0.4c0.3,0.3,0.5,0.6,0.5,0.8c0,0.6-0.1,1.4-0.4,2.5
					c0.6-1.1,1.2-1.9,1.7-2.6S85,32.2,85.4,32.2z"/>
				<path d="M91.3,34.9c-0.1,0.5-0.3,1-0.5,1.7c-0.2,0.7-0.3,1-0.3,1.1s0.1,0.1,0.2,0.1c0.2,0,0.5-0.1,1.1-0.3s0.9-0.3,1-0.3
					c0.2,0,0.4,0.2,0.4,0.5s-0.3,0.7-0.9,1.1c-0.6,0.4-1.3,0.7-2,0.7c-0.3,0-0.7-0.2-1.1-0.5c-0.4-0.3-0.6-0.7-0.6-1
					c0-0.3,0.1-0.9,0.4-1.8s0.5-1.5,0.6-1.9c-0.4,0.1-0.6,0.2-0.8,0.2c-0.2,0-0.4-0.1-0.6-0.4c-0.2-0.3-0.3-0.5-0.3-0.7
					c0-0.3,0.7-0.6,2.2-0.8c0.2-0.9,0.3-1.6,0.3-2.3c0-0.3,0.1-0.4,0.4-0.4c0.2,0,0.6,0.1,0.9,0.4s0.6,0.6,0.6,0.9
					c0,0.3-0.1,0.7-0.2,1.2c0.4,0,0.8,0,1,0c0.7,0,1.1,0.2,1.1,0.5c0,0.2-0.2,0.4-0.6,0.5c-0.4,0.1-1,0.3-1.9,0.5
					C91.5,34.1,91.4,34.5,91.3,34.9z"/>
				<path d="M100.3,35.5c0.2,0.1,0.3,0.3,0.3,0.4c0,0.1-0.1,0.4-0.2,0.8c-0.1,0.4-0.2,0.7-0.2,0.9c0,0.2-0.1,0.4-0.1,0.5
					s0,0.2,0,0.3c0,0.1,0,0.2,0,0.3c0,0.1,0,0.2-0.1,0.2s0,0.1-0.1,0.2s0,0.1-0.1,0.2c0,0-0.1,0.1-0.1,0.1c-0.1,0.1-0.1,0.1-0.3,0.1
					s-0.3-0.1-0.5-0.4c-0.2-0.3-0.3-0.6-0.4-1c-0.9,0.9-1.6,1.3-2.2,1.3c-0.4,0-0.8-0.2-1.3-0.7s-0.7-0.9-0.7-1.3s0.2-1.1,0.6-1.9
					s0.9-1.6,1.6-2.3s1.4-1,2.1-1c0.4,0,0.8,0.2,1.4,0.7c0.5,0.5,0.8,0.9,0.8,1.3S100.5,35,100.3,35.5z M96.2,37.7
					c0.4,0,0.9-0.3,1.5-0.8c0.6-0.5,1-1.1,1.2-1.9c0-0.1,0.1-0.2,0.2-0.2c0-0.5-0.1-0.8-0.3-0.8c-0.4,0-0.8,0.2-1.3,0.7
					c-0.5,0.5-0.8,1-1.1,1.6s-0.4,1-0.4,1.2c0,0.1,0,0.1,0,0.1C96,37.7,96.1,37.7,96.2,37.7z"/>
				<path d="M109.7,28.9c0.4,0.4,0.5,0.8,0.5,1.2c0,0.4-0.1,1-0.2,2c-0.1,1-0.2,1.7-0.4,2.3c-0.8,3.4-1.3,5.1-1.6,5.1
					c-0.2,0-0.5-0.2-0.8-0.5s-0.5-0.6-0.5-0.8c0,0,0.1-0.5,0.4-1.5c0.3-1,0.5-2.2,0.8-3.7s0.4-2.9,0.4-4.3c0-0.3,0.1-0.4,0.4-0.4
					C109,28.3,109.3,28.5,109.7,28.9z"/>
				<path d="M116.5,35.5c0.2,0.1,0.3,0.3,0.3,0.4c0,0.1-0.1,0.4-0.2,0.8c-0.1,0.4-0.2,0.7-0.2,0.9c0,0.2-0.1,0.4-0.1,0.5
					s0,0.2,0,0.3c0,0.1,0,0.2,0,0.3c0,0.1,0,0.2-0.1,0.2s0,0.1-0.1,0.2s0,0.1-0.1,0.2c0,0-0.1,0.1-0.1,0.1c-0.1,0.1-0.1,0.1-0.3,0.1
					s-0.3-0.1-0.5-0.4c-0.2-0.3-0.3-0.6-0.4-1c-0.9,0.9-1.6,1.3-2.2,1.3c-0.4,0-0.8-0.2-1.3-0.7s-0.7-0.9-0.7-1.3s0.2-1.1,0.6-1.9
					s0.9-1.6,1.6-2.3s1.4-1,2.1-1c0.4,0,0.8,0.2,1.4,0.7c0.5,0.5,0.8,0.9,0.8,1.3S116.8,35,116.5,35.5z M112.4,37.7
					c0.4,0,0.9-0.3,1.5-0.8c0.6-0.5,1-1.1,1.2-1.9c0-0.1,0.1-0.2,0.2-0.2c0-0.5-0.1-0.8-0.3-0.8c-0.4,0-0.8,0.2-1.3,0.7
					c-0.5,0.5-0.8,1-1.1,1.6s-0.4,1-0.4,1.2c0,0.1,0,0.1,0,0.1C112.3,37.7,112.3,37.7,112.4,37.7z"/>
				<path d="M18.7,45.9c0.2,0,0.5,0.2,0.9,0.6c0.4,0.4,0.5,0.8,0.5,1.1c0,0.2-0.2,0.9-0.5,2.2c-0.3,1.3-0.5,2.1-0.6,2.4
					c-0.7,3.2-1.3,4.8-1.6,4.8c-0.2,0-0.4-0.1-0.7-0.3s-0.4-0.5-0.4-0.7c0,0,0-0.1,0-0.1c-0.9,0.8-1.6,1.1-2,1.1
					c-0.4,0-0.8-0.2-1.2-0.7c-0.4-0.4-0.6-0.8-0.6-1.2s0-0.7,0.1-1.2c0.1-0.4,0.3-0.9,0.5-1.4c0.2-0.5,0.4-0.9,0.7-1.4
					c0.3-0.4,0.6-0.8,1-1c0.4-0.3,0.8-0.4,1.2-0.4c0.6,0,1.1,0.3,1.5,0.9c0.5-2.2,0.7-3.7,0.7-4.4C18.3,46,18.4,45.9,18.7,45.9z
					 M14.6,55.3c0.2,0,0.6-0.2,1.2-0.6c0.6-0.4,1-0.9,1.2-1.5c0-0.1,0-0.2,0-0.5c0-0.3-0.1-0.5-0.3-0.7c-0.2-0.2-0.3-0.3-0.5-0.3
					c-0.3,0-0.5,0.1-0.8,0.4s-0.5,0.7-0.6,1.1c-0.3,0.9-0.5,1.5-0.5,2c0,0.1,0,0.1,0,0.1C14.4,55.2,14.5,55.3,14.6,55.3z"/>
				<path d="M21.9,49.8c0.3,0,0.6,0.2,0.9,0.6c0.3,0.4,0.4,0.7,0.4,1.1c0,0.2-0.2,0.8-0.5,1.9s-0.6,2.1-1,3.1
					C21.6,56.8,21.3,57,21,57c-0.2,0-0.4-0.1-0.5-0.2c-0.2-0.2-0.2-0.4-0.2-0.6s0.1-0.9,0.4-1.8c0.2-1,0.4-1.8,0.5-2.5
					c0.1-0.7,0.2-1.2,0.4-1.5S21.7,49.8,21.9,49.8z M21.7,48.1c0-0.2,0.1-0.5,0.3-0.7s0.4-0.4,0.6-0.4s0.5,0.3,0.7,0.8
					c0.3,0.5,0.4,0.9,0.4,1.1s-0.1,0.4-0.2,0.5c-0.1,0.1-0.3,0.2-0.5,0.2c-0.3,0-0.6-0.2-0.9-0.5S21.7,48.3,21.7,48.1z"/>
				<path d="M33.3,49.8c0.4,0,0.7,0.2,0.9,0.7c0.2,0.5,0.4,0.9,0.4,1.3s-0.1,1-0.2,1.8c-0.2,0.8-0.4,1.5-0.7,2.3
					C33.3,56.7,33,57,32.6,57c-0.3,0-0.5-0.2-0.5-0.6s0.1-1.1,0.4-2.1c0.2-1,0.4-1.6,0.4-1.9c0-0.3,0-0.4-0.1-0.4
					c-0.2,0-0.4,0.2-0.7,0.6c-0.3,0.4-0.6,1-1,1.7c-0.4,0.7-0.6,1.2-0.7,1.4c-0.1,0.2-0.2,0.4-0.2,0.5c-0.1,0.1-0.1,0.2-0.2,0.4
					c-0.3,0.5-0.7,0.5-1.2,0c-0.3-0.3-0.4-0.5-0.4-0.7c0,0,0.1-0.4,0.2-1.1c0.2-0.7,0.2-1.4,0.2-2.3c0-0.4,0-0.5-0.1-0.5
					c-0.1,0-0.2,0.1-0.4,0.3c-0.1,0.2-0.4,0.6-0.7,1.2S27,54.6,26.8,55c-0.8,1.3-1.4,2-1.8,2c-0.2,0-0.5-0.2-0.8-0.5
					c-0.3-0.3-0.5-0.6-0.5-0.8c0-0.2,0.1-0.6,0.3-1.3s0.3-1.4,0.4-2.2c0.1-0.8,0.1-1.4,0.2-1.8c0.1-0.4,0.2-0.7,0.3-0.7
					c0.4,0,0.7,0.1,1,0.4c0.3,0.3,0.5,0.6,0.5,0.8c0,0.6-0.2,1.5-0.6,2.9c0.7-1.6,1.2-2.6,1.7-3.2c0.5-0.6,0.9-0.9,1.4-0.9
					c0.2,0,0.5,0.2,0.9,0.7c0.4,0.4,0.5,0.9,0.5,1.3c0,0.4,0,0.7,0,1c0.3-0.7,0.7-1.4,1.3-2C32.3,50.1,32.8,49.8,33.3,49.8z"/>
				<path d="M40.7,53.7c-0.6,0.4-1.3,0.5-1.9,0.5s-1.2,0-1.6-0.1c-0.1,0.3-0.1,0.5-0.1,0.8s0,0.4,0.1,0.5s0.3,0.2,0.6,0.2
					c0.7,0,1.3-0.1,1.8-0.2c0.5-0.1,0.8-0.2,0.8-0.2c0.4,0,0.6,0.1,0.6,0.4c0,0.4-0.3,0.7-0.9,1C39.5,56.9,38.8,57,38,57
					s-1.4-0.2-1.9-0.7c-0.5-0.5-0.7-1.1-0.7-1.8s0.2-1.4,0.6-2.1c0.4-0.7,0.9-1.4,1.5-1.9c0.6-0.5,1.2-0.7,1.8-0.7
					c0.6,0,1.1,0.3,1.6,0.9c0.5,0.6,0.8,1.2,0.8,1.7C41.7,52.9,41.3,53.3,40.7,53.7z M39.7,51.8c-0.2-0.2-0.4-0.3-0.6-0.3
					s-0.4,0.1-0.7,0.4c-0.3,0.2-0.5,0.6-0.8,1c0.1,0,0.2,0,0.4,0c1.3,0,1.9-0.2,1.9-0.7C40,52.1,39.9,52,39.7,51.8z"/>
				<path d="M47.4,49.8c0.5,0,0.9,0.2,1.3,0.7c0.4,0.4,0.6,0.9,0.6,1.4c0,0.8-0.1,1.6-0.4,2.5c-0.3,0.9-0.5,1.5-0.8,2
					S47.4,57,47.1,57c-0.3,0-0.5-0.2-0.5-0.7c0-0.3,0.2-1,0.5-2c0.2-0.8,0.3-1.4,0.3-1.8s0-0.5-0.1-0.5c-0.1,0-0.2,0.1-0.4,0.2
					c-0.1,0.1-0.2,0.2-0.3,0.3c-0.1,0.1-0.2,0.2-0.3,0.4c-0.1,0.1-0.2,0.3-0.3,0.4c-0.1,0.1-0.2,0.3-0.3,0.4
					c-0.1,0.2-0.2,0.3-0.3,0.4c-0.1,0.1-0.1,0.3-0.3,0.5c-0.9,1.6-1.5,2.4-2,2.4c-0.2,0-0.4-0.2-0.7-0.5s-0.4-0.6-0.4-0.7
					c0-0.1,0.1-0.3,0.2-0.7s0.2-0.6,0.3-0.8c0.1-0.2,0.1-0.4,0.2-0.6s0.1-0.4,0.1-0.7s0-0.4,0.1-0.6s0-0.3,0-0.6
					c0.1-1.2,0.2-1.9,0.2-2c0.1-0.1,0.1-0.2,0.2-0.2c0.4,0,0.7,0.1,1,0.4c0.3,0.3,0.5,0.6,0.5,0.8c0,0.6-0.1,1.4-0.4,2.5
					c0.6-1.1,1.2-1.9,1.7-2.6S47,49.8,47.4,49.8z"/>
				<path d="M54.4,49.8c0.4,0,0.7,0.2,1.1,0.6c0.3,0.4,0.5,0.8,0.5,1.1c0,0.2-0.1,0.3-0.3,0.3c-0.1,0-0.3,0-0.5-0.1
					c-0.2-0.1-0.4-0.1-0.7-0.1c-0.2,0-0.5,0.1-1,0.2C53.2,52,53,52.2,53,52.5c0,0.1,0.1,0.2,0.4,0.4c0.3,0.2,0.5,0.4,0.8,0.5
					c0.3,0.2,0.6,0.4,0.8,0.8s0.4,0.7,0.4,1.1s-0.3,0.8-0.8,1.2c-0.6,0.4-1.2,0.6-2,0.6s-1.4-0.2-2-0.5c-0.5-0.3-0.8-0.7-0.8-1.1
					s0.1-0.5,0.4-0.5c0.1,0,0.3,0,0.4,0.1c0.5,0.3,1,0.4,1.7,0.4s1-0.1,1-0.3c0-0.2-0.1-0.4-0.4-0.6c-0.3-0.2-0.6-0.4-0.9-0.6
					c-0.3-0.2-0.6-0.4-0.9-0.7c-0.3-0.3-0.4-0.6-0.4-0.8c0-0.5,0.5-1.1,1.4-1.6C53.2,50.1,53.9,49.8,54.4,49.8z"/>
				<path d="M58.1,49.8c0.3,0,0.6,0.2,0.9,0.6c0.3,0.4,0.4,0.7,0.4,1.1c0,0.2-0.2,0.8-0.5,1.9s-0.6,2.1-1,3.1
					c-0.1,0.4-0.3,0.5-0.7,0.5c-0.2,0-0.4-0.1-0.5-0.2c-0.2-0.2-0.2-0.4-0.2-0.6s0.1-0.9,0.4-1.8c0.2-1,0.4-1.8,0.5-2.5
					c0.1-0.7,0.2-1.2,0.4-1.5S57.9,49.8,58.1,49.8z M57.9,48.1c0-0.2,0.1-0.5,0.3-0.7s0.4-0.4,0.6-0.4s0.5,0.3,0.7,0.8
					c0.3,0.5,0.4,0.9,0.4,1.1s-0.1,0.4-0.2,0.5c-0.1,0.1-0.3,0.2-0.5,0.2c-0.3,0-0.6-0.2-0.9-0.5S57.9,48.3,57.9,48.1z"/>
				<path d="M61.2,51.4c0.7-1,1.4-1.6,2.1-1.6c0.7,0,1.3,0.3,1.8,0.7c0.5,0.5,0.7,1.1,0.7,1.8c0,0.7-0.2,1.4-0.5,2.1
					c-0.3,0.7-0.8,1.3-1.4,1.8C63.3,56.8,62.7,57,62,57c-0.5,0-1-0.2-1.3-0.7c-0.4-0.5-0.6-1-0.6-1.7C60.1,53.5,60.4,52.4,61.2,51.4
					z M63.4,54.2c0.4-0.7,0.6-1.3,0.6-1.9c0-0.6-0.1-1-0.3-1.2c-0.4,0.2-0.8,0.7-1.2,1.5c-0.4,0.7-0.6,1.4-0.6,2s0.1,0.9,0.2,1.1
					C62.6,55.4,63.1,54.9,63.4,54.2z M64.2,49.4c-0.2,0-0.3-0.1-0.4-0.2c-0.1-0.1-0.2-0.3-0.2-0.5c0-0.2,0.1-0.4,0.2-0.5
					c0.1-0.2,0.3-0.4,0.5-0.5c0.2-0.2,0.4-0.4,0.6-0.5c0.2-0.2,0.3-0.3,0.4-0.3c0.1-0.1,0.2-0.1,0.3-0.2c0.1-0.1,0.2-0.1,0.2-0.2
					c0.1-0.1,0.3-0.1,0.4-0.1c0.2,0,0.4,0.1,0.6,0.4c0.2,0.3,0.3,0.5,0.3,0.7c0,0.2,0,0.4,0,0.4s-0.1,0.2-0.2,0.3s-0.2,0.2-0.3,0.2
					c-0.1,0.1-0.3,0.1-0.5,0.3s-0.5,0.2-0.6,0.3c-0.2,0.1-0.3,0.2-0.5,0.3C64.6,49.3,64.3,49.4,64.2,49.4z"/>
				<path d="M71.6,49.8c0.5,0,0.9,0.2,1.3,0.7c0.4,0.4,0.6,0.9,0.6,1.4c0,0.8-0.1,1.6-0.4,2.5c-0.3,0.9-0.5,1.5-0.8,2
					S71.6,57,71.3,57c-0.3,0-0.5-0.2-0.5-0.7c0-0.3,0.2-1,0.5-2c0.2-0.8,0.3-1.4,0.3-1.8s0-0.5-0.1-0.5c-0.1,0-0.2,0.1-0.4,0.2
					c-0.1,0.1-0.2,0.2-0.3,0.3c-0.1,0.1-0.2,0.2-0.3,0.4c-0.1,0.1-0.2,0.3-0.3,0.4c-0.1,0.1-0.2,0.3-0.3,0.4
					c-0.1,0.2-0.2,0.3-0.3,0.4c-0.1,0.1-0.1,0.3-0.3,0.5c-0.9,1.6-1.5,2.4-2,2.4c-0.2,0-0.4-0.2-0.7-0.5s-0.4-0.6-0.4-0.7
					c0-0.1,0.1-0.3,0.2-0.7s0.2-0.6,0.3-0.8c0.1-0.2,0.1-0.4,0.2-0.6s0.1-0.4,0.1-0.7s0-0.4,0.1-0.6s0-0.3,0-0.6
					c0.1-1.2,0.2-1.9,0.2-2c0.1-0.1,0.1-0.2,0.2-0.2c0.4,0,0.7,0.1,1,0.4c0.3,0.3,0.5,0.6,0.5,0.8c0,0.6-0.1,1.4-0.4,2.5
					c0.6-1.1,1.2-1.9,1.7-2.6S71.3,49.8,71.6,49.8z"/>
				<path d="M89.1,49.8c0.4,0,0.7,0.2,0.9,0.7c0.2,0.5,0.4,0.9,0.4,1.3s-0.1,1-0.2,1.8c-0.2,0.8-0.4,1.5-0.7,2.3
					C89,56.7,88.7,57,88.3,57c-0.3,0-0.5-0.2-0.5-0.6s0.1-1.1,0.4-2.1c0.2-1,0.4-1.6,0.4-1.9c0-0.3,0-0.4-0.1-0.4
					c-0.2,0-0.4,0.2-0.7,0.6c-0.3,0.4-0.6,1-1,1.7c-0.4,0.7-0.6,1.2-0.7,1.4c-0.1,0.2-0.2,0.4-0.2,0.5c-0.1,0.1-0.1,0.2-0.2,0.4
					c-0.3,0.5-0.7,0.5-1.2,0C84.2,56.4,84,56.2,84,56c0,0,0.1-0.4,0.2-1.1c0.2-0.7,0.2-1.4,0.2-2.3c0-0.4,0-0.5-0.1-0.5
					c-0.1,0-0.2,0.1-0.4,0.3c-0.1,0.2-0.4,0.6-0.7,1.2s-0.6,1.1-0.8,1.5c-0.8,1.3-1.4,2-1.8,2c-0.2,0-0.5-0.2-0.8-0.5
					c-0.3-0.3-0.5-0.6-0.5-0.8c0-0.2,0.1-0.6,0.3-1.3s0.3-1.4,0.4-2.2c0.1-0.8,0.1-1.4,0.2-1.8c0.1-0.4,0.2-0.7,0.3-0.7
					c0.4,0,0.7,0.1,1,0.4c0.3,0.3,0.5,0.6,0.5,0.8c0,0.6-0.2,1.5-0.6,2.9c0.7-1.6,1.2-2.6,1.7-3.2c0.5-0.6,0.9-0.9,1.4-0.9
					c0.2,0,0.5,0.2,0.9,0.7c0.4,0.4,0.5,0.9,0.5,1.3c0,0.4,0,0.7,0,1c0.3-0.7,0.7-1.4,1.3-2S88.5,49.8,89.1,49.8z"/>
				<path d="M96.4,53.7c-0.6,0.4-1.3,0.5-1.9,0.5s-1.2,0-1.6-0.1c-0.1,0.3-0.1,0.5-0.1,0.8s0,0.4,0.1,0.5s0.3,0.2,0.6,0.2
					c0.7,0,1.3-0.1,1.8-0.2c0.5-0.1,0.8-0.2,0.8-0.2c0.4,0,0.6,0.1,0.6,0.4c0,0.4-0.3,0.7-0.9,1c-0.6,0.3-1.3,0.5-2.1,0.5
					s-1.4-0.2-1.9-0.7c-0.5-0.5-0.7-1.1-0.7-1.8s0.2-1.4,0.6-2.1c0.4-0.7,0.9-1.4,1.5-1.9c0.6-0.5,1.2-0.7,1.8-0.7
					c0.6,0,1.1,0.3,1.6,0.9c0.5,0.6,0.8,1.2,0.8,1.7C97.4,52.9,97.1,53.3,96.4,53.7z M95.4,51.8c-0.2-0.2-0.4-0.3-0.6-0.3
					s-0.4,0.1-0.7,0.4c-0.3,0.2-0.5,0.6-0.8,1c0.1,0,0.2,0,0.4,0c1.3,0,1.9-0.2,1.9-0.7C95.7,52.1,95.6,52,95.4,51.8z"/>
				<path d="M103.9,45.9c0.2,0,0.5,0.2,0.9,0.6c0.4,0.4,0.5,0.8,0.5,1.1c0,0.2-0.2,0.9-0.5,2.2c-0.3,1.3-0.5,2.1-0.6,2.4
					c-0.7,3.2-1.3,4.8-1.6,4.8c-0.2,0-0.4-0.1-0.7-0.3s-0.4-0.5-0.4-0.7c0,0,0-0.1,0-0.1c-0.9,0.8-1.6,1.1-2,1.1
					c-0.4,0-0.8-0.2-1.2-0.7c-0.4-0.4-0.6-0.8-0.6-1.2s0-0.7,0.1-1.2c0.1-0.4,0.3-0.9,0.5-1.4c0.2-0.5,0.4-0.9,0.7-1.4
					c0.3-0.4,0.6-0.8,1-1c0.4-0.3,0.8-0.4,1.2-0.4c0.6,0,1.1,0.3,1.5,0.9c0.5-2.2,0.7-3.7,0.7-4.4C103.5,46,103.6,45.9,103.9,45.9z
					 M99.8,55.3c0.2,0,0.6-0.2,1.2-0.6s1-0.9,1.2-1.5c0-0.1,0-0.2,0-0.5c0-0.3-0.1-0.5-0.3-0.7c-0.2-0.2-0.3-0.3-0.5-0.3
					c-0.3,0-0.5,0.1-0.8,0.4s-0.5,0.7-0.6,1.1c-0.3,0.9-0.5,1.5-0.5,2c0,0.1,0,0.1,0,0.1C99.6,55.2,99.7,55.3,99.8,55.3z"/>
				<path d="M107.1,49.8c0.3,0,0.6,0.2,0.9,0.6c0.3,0.4,0.4,0.7,0.4,1.1c0,0.2-0.2,0.8-0.5,1.9s-0.6,2.1-1,3.1
					c-0.1,0.4-0.3,0.5-0.7,0.5c-0.2,0-0.4-0.1-0.5-0.2c-0.2-0.2-0.2-0.4-0.2-0.6s0.1-0.9,0.4-1.8c0.2-1,0.4-1.8,0.5-2.5
					c0.1-0.7,0.2-1.2,0.4-1.5S106.9,49.8,107.1,49.8z M106.8,48.1c0-0.2,0.1-0.5,0.3-0.7s0.4-0.4,0.6-0.4s0.5,0.3,0.7,0.8
					c0.3,0.5,0.4,0.9,0.4,1.1s-0.1,0.4-0.2,0.5c-0.1,0.1-0.3,0.2-0.5,0.2c-0.3,0-0.6-0.2-0.9-0.5S106.8,48.3,106.8,48.1z"/>
				<path d="M115.1,53.1c0.2,0.1,0.3,0.3,0.3,0.4c0,0.1-0.1,0.4-0.2,0.8c-0.1,0.4-0.2,0.7-0.2,0.9c0,0.2-0.1,0.4-0.1,0.5
					s0,0.2,0,0.3c0,0.1,0,0.2,0,0.3c0,0.1,0,0.2-0.1,0.2s0,0.1-0.1,0.2s0,0.1-0.1,0.2c0,0-0.1,0.1-0.1,0.1c-0.1,0.1-0.1,0.1-0.3,0.1
					s-0.3-0.1-0.5-0.4c-0.2-0.3-0.3-0.6-0.4-1c-0.9,0.9-1.6,1.3-2.2,1.3c-0.4,0-0.8-0.2-1.3-0.7S109,55.5,109,55s0.2-1.1,0.6-1.9
					s0.9-1.6,1.6-2.3s1.4-1,2.1-1c0.4,0,0.8,0.2,1.4,0.7c0.5,0.5,0.8,0.9,0.8,1.3S115.3,52.6,115.1,53.1z M111,55.3
					c0.4,0,0.9-0.3,1.5-0.8c0.6-0.5,1-1.1,1.2-1.9c0-0.1,0.1-0.2,0.2-0.2c0-0.5-0.1-0.8-0.3-0.8c-0.4,0-0.8,0.2-1.3,0.7
					c-0.5,0.5-0.8,1-1.1,1.6s-0.4,1-0.4,1.2c0,0.1,0,0.1,0,0.1C110.8,55.3,110.9,55.3,111,55.3z"/>
				<path d="M121.4,49.8c0.5,0,0.9,0.2,1.3,0.7c0.4,0.4,0.6,0.9,0.6,1.4c0,0.8-0.1,1.6-0.4,2.5c-0.3,0.9-0.5,1.5-0.8,2
					s-0.6,0.7-0.9,0.7c-0.3,0-0.5-0.2-0.5-0.7c0-0.3,0.2-1,0.5-2c0.2-0.8,0.3-1.4,0.3-1.8s0-0.5-0.1-0.5c-0.1,0-0.2,0.1-0.4,0.2
					c-0.1,0.1-0.2,0.2-0.3,0.3c-0.1,0.1-0.2,0.2-0.3,0.4c-0.1,0.1-0.2,0.3-0.3,0.4c-0.1,0.1-0.2,0.3-0.3,0.4
					c-0.1,0.2-0.2,0.3-0.3,0.4c-0.1,0.1-0.1,0.3-0.3,0.5c-0.9,1.6-1.5,2.4-2,2.4c-0.2,0-0.4-0.2-0.7-0.5s-0.4-0.6-0.4-0.7
					c0-0.1,0.1-0.3,0.2-0.7s0.2-0.6,0.3-0.8c0.1-0.2,0.1-0.4,0.2-0.6s0.1-0.4,0.1-0.7s0-0.4,0.1-0.6s0-0.3,0-0.6
					c0.1-1.2,0.2-1.9,0.2-2c0.1-0.1,0.1-0.2,0.2-0.2c0.4,0,0.7,0.1,1,0.4c0.3,0.3,0.5,0.6,0.5,0.8c0,0.6-0.1,1.4-0.4,2.5
					c0.6-1.1,1.2-1.9,1.7-2.6S121.1,49.8,121.4,49.8z"/>
				<path d="M127.3,52.5c-0.1,0.5-0.3,1-0.5,1.7c-0.2,0.7-0.3,1-0.3,1.1s0.1,0.1,0.2,0.1c0.2,0,0.5-0.1,1.1-0.3s0.9-0.3,1-0.3
					c0.2,0,0.4,0.2,0.4,0.5s-0.3,0.7-0.9,1.1c-0.6,0.4-1.3,0.7-2,0.7c-0.3,0-0.7-0.2-1.1-0.5c-0.4-0.3-0.6-0.7-0.6-1
					c0-0.3,0.1-0.9,0.4-1.8s0.5-1.5,0.6-1.9c-0.4,0.1-0.6,0.2-0.8,0.2c-0.2,0-0.4-0.1-0.6-0.4c-0.2-0.3-0.3-0.5-0.3-0.7
					c0-0.3,0.7-0.6,2.2-0.8c0.2-0.9,0.3-1.6,0.3-2.3c0-0.3,0.1-0.4,0.4-0.4c0.2,0,0.6,0.1,0.9,0.4s0.6,0.6,0.6,0.9
					c0,0.3-0.1,0.7-0.2,1.2c0.4,0,0.8,0,1,0c0.7,0,1.1,0.2,1.1,0.5c0,0.2-0.2,0.4-0.6,0.5c-0.4,0.1-1,0.3-1.9,0.5
					C127.6,51.7,127.4,52.1,127.3,52.5z"/>
				<path d="M135.7,53.7c-0.6,0.4-1.3,0.5-1.9,0.5s-1.2,0-1.6-0.1c-0.1,0.3-0.1,0.5-0.1,0.8s0,0.4,0.1,0.5s0.3,0.2,0.6,0.2
					c0.7,0,1.3-0.1,1.8-0.2c0.5-0.1,0.8-0.2,0.8-0.2c0.4,0,0.6,0.1,0.6,0.4c0,0.4-0.3,0.7-0.9,1c-0.6,0.3-1.3,0.5-2.1,0.5
					s-1.4-0.2-1.9-0.7c-0.5-0.5-0.7-1.1-0.7-1.8s0.2-1.4,0.6-2.1c0.4-0.7,0.9-1.4,1.5-1.9c0.6-0.5,1.2-0.7,1.8-0.7
					c0.6,0,1.1,0.3,1.6,0.9c0.5,0.6,0.8,1.2,0.8,1.7C136.6,52.9,136.3,53.3,135.7,53.7z M134.7,51.8c-0.2-0.2-0.4-0.3-0.6-0.3
					s-0.4,0.1-0.7,0.4c-0.3,0.2-0.5,0.6-0.8,1c0.1,0,0.2,0,0.4,0c1.3,0,1.9-0.2,1.9-0.7C135,52.1,134.9,52,134.7,51.8z"/>
				<path d="M21,64.1c0.4,0.4,0.5,0.8,0.5,1.2c0,0.4-0.1,1-0.2,2c-0.1,1-0.2,1.7-0.4,2.3c-0.8,3.4-1.3,5.1-1.6,5.1
					c-0.2,0-0.5-0.2-0.8-0.5s-0.5-0.6-0.5-0.8c0,0,0.1-0.5,0.4-1.5c0.3-1,0.5-2.2,0.8-3.7s0.4-2.9,0.4-4.3c0-0.3,0.1-0.4,0.4-0.4
					C20.4,63.5,20.6,63.7,21,64.1z"/>
				<path d="M27.8,70.7c0.2,0.1,0.3,0.3,0.3,0.4c0,0.1-0.1,0.4-0.2,0.8c-0.1,0.4-0.2,0.7-0.2,0.9c0,0.2-0.1,0.4-0.1,0.5s0,0.2,0,0.3
					c0,0.1,0,0.2,0,0.3c0,0.1,0,0.2-0.1,0.2s0,0.1-0.1,0.2s0,0.1-0.1,0.2c0,0-0.1,0.1-0.1,0.1c-0.1,0.1-0.1,0.1-0.3,0.1
					s-0.3-0.1-0.5-0.4c-0.2-0.3-0.3-0.6-0.4-1c-0.9,0.9-1.6,1.3-2.2,1.3c-0.4,0-0.8-0.2-1.3-0.7s-0.7-0.9-0.7-1.3s0.2-1.1,0.6-1.9
					s0.9-1.6,1.6-2.3s1.4-1,2.1-1c0.4,0,0.8,0.2,1.4,0.7c0.5,0.5,0.8,0.9,0.8,1.3S28.1,70.2,27.8,70.7z M23.8,72.9
					c0.4,0,0.9-0.3,1.5-0.8c0.6-0.5,1-1.1,1.2-1.9c0-0.1,0.1-0.2,0.2-0.2c0-0.5-0.1-0.8-0.3-0.8c-0.4,0-0.8,0.2-1.3,0.7
					c-0.5,0.5-0.8,1-1.1,1.6s-0.4,1-0.4,1.2c0,0.1,0,0.1,0,0.1C23.6,72.9,23.7,72.9,23.8,72.9z"/>
				<path d="M34.4,72.4c0-0.7,0.2-1.4,0.6-2.2c0.4-0.8,0.9-1.5,1.6-2c0.7-0.6,1.3-0.8,2-0.8c0.3,0,0.7,0.2,1,0.6
					c0.3,0.4,0.5,0.8,0.5,1.1c0,0.2-0.1,0.4-0.3,0.4c-0.1,0-0.3-0.1-0.5-0.2c-0.2-0.1-0.4-0.2-0.6-0.2c-0.2,0-0.5,0.2-0.9,0.5
					c-0.4,0.3-0.7,0.8-1,1.3s-0.4,0.9-0.4,1.2c0,0.3,0.1,0.5,0.2,0.5c0.1,0.1,0.4,0.1,0.8,0.1c0.4,0,0.8,0,1.1-0.1
					c0.3-0.1,0.6-0.2,0.8-0.2c0.2-0.1,0.3-0.1,0.4-0.1c0.3,0,0.4,0.1,0.4,0.3c0,0.4-0.4,0.8-1.1,1.3s-1.4,0.6-2.2,0.6
					c-0.5,0-1-0.3-1.6-0.8C34.7,73.4,34.4,72.9,34.4,72.4z"/>
				<path d="M46.2,67.8c0.1-0.2,0.2-0.3,0.4-0.3s0.5,0.2,0.8,0.6c0.3,0.4,0.4,0.7,0.4,1c0,0.1-0.2,0.8-0.6,2.1c-0.4,1.3-0.8,2.3-1,3
					c-0.1,0.4-0.4,0.6-0.7,0.6c-0.2,0-0.3-0.1-0.5-0.2c-0.1-0.1-0.2-0.3-0.2-0.6s0.1-0.7,0.2-1.2c-1,1.4-1.7,2.1-2.3,2.1
					c-0.3,0-0.7-0.2-1.1-0.6c-0.4-0.4-0.6-0.8-0.6-1.1c0-0.9,0.3-2,0.8-3.4s1-2.1,1.4-2.1c0.3,0,0.5,0.1,0.7,0.4
					c0.2,0.2,0.3,0.5,0.3,0.8c0,0.1-0.1,0.4-0.4,0.9c-0.7,1.5-1.1,2.6-1.1,3.3c0,0.1,0,0.1,0.1,0.1c0.1,0,0.4-0.2,0.8-0.7
					c0.4-0.4,0.8-1.1,1.3-1.9C45.5,69.5,45.9,68.6,46.2,67.8z"/>
				<path d="M54,70.7c0.2,0.1,0.3,0.3,0.3,0.4c0,0.1-0.1,0.4-0.2,0.8c-0.1,0.4-0.2,0.7-0.2,0.9c0,0.2-0.1,0.4-0.1,0.5s0,0.2,0,0.3
					c0,0.1,0,0.2,0,0.3c0,0.1,0,0.2-0.1,0.2s0,0.1-0.1,0.2s0,0.1-0.1,0.2c0,0-0.1,0.1-0.1,0.1c-0.1,0.1-0.1,0.1-0.3,0.1
					s-0.3-0.1-0.5-0.4c-0.2-0.3-0.3-0.6-0.4-1c-0.9,0.9-1.6,1.3-2.2,1.3c-0.4,0-0.8-0.2-1.3-0.7S48,73.1,48,72.6s0.2-1.1,0.6-1.9
					s0.9-1.6,1.6-2.3s1.4-1,2.1-1c0.4,0,0.8,0.2,1.4,0.7c0.5,0.5,0.8,0.9,0.8,1.3S54.3,70.2,54,70.7z M49.9,72.9
					c0.4,0,0.9-0.3,1.5-0.8c0.6-0.5,1-1.1,1.2-1.9c0-0.1,0.1-0.2,0.2-0.2c0-0.5-0.1-0.8-0.3-0.8c-0.4,0-0.8,0.2-1.3,0.7
					c-0.5,0.5-0.8,1-1.1,1.6s-0.4,1-0.4,1.2c0,0.1,0,0.1,0,0.1C49.8,72.9,49.8,72.9,49.9,72.9z"/>
				<path d="M58,64.1c0.4,0.4,0.5,0.8,0.5,1.2c0,0.4-0.1,1-0.2,2c-0.1,1-0.2,1.7-0.4,2.3c-0.8,3.4-1.3,5.1-1.6,5.1
					c-0.2,0-0.5-0.2-0.8-0.5s-0.5-0.6-0.5-0.8c0,0,0.1-0.5,0.4-1.5c0.3-1,0.5-2.2,0.8-3.7s0.4-2.9,0.4-4.3c0-0.3,0.1-0.4,0.4-0.4
					C57.4,63.5,57.7,63.7,58,64.1z"/>
				<path d="M68.8,67.4c0.4,0,0.7,0.2,1.1,0.6c0.3,0.4,0.5,0.8,0.5,1.1c0,0.2-0.1,0.3-0.3,0.3c-0.1,0-0.3,0-0.5-0.1
					c-0.2-0.1-0.4-0.1-0.7-0.1c-0.2,0-0.5,0.1-1,0.2c-0.4,0.1-0.6,0.3-0.6,0.6c0,0.1,0.1,0.2,0.4,0.4c0.3,0.2,0.5,0.4,0.8,0.5
					c0.3,0.2,0.6,0.4,0.8,0.8s0.4,0.7,0.4,1.1s-0.3,0.8-0.8,1.2c-0.6,0.4-1.2,0.6-2,0.6s-1.4-0.2-2-0.5c-0.5-0.3-0.8-0.7-0.8-1.1
					s0.1-0.5,0.4-0.5c0.1,0,0.3,0,0.4,0.1c0.5,0.3,1,0.4,1.7,0.4s1-0.1,1-0.3c0-0.2-0.1-0.4-0.4-0.6c-0.3-0.2-0.6-0.4-0.9-0.6
					c-0.3-0.2-0.6-0.4-0.9-0.7c-0.3-0.3-0.4-0.6-0.4-0.8c0-0.5,0.5-1.1,1.4-1.6C67.5,67.7,68.3,67.4,68.8,67.4z"/>
				<path d="M76.2,71.3c-0.6,0.4-1.3,0.5-1.9,0.5s-1.2,0-1.6-0.1c-0.1,0.3-0.1,0.5-0.1,0.8s0,0.4,0.1,0.5s0.3,0.2,0.6,0.2
					c0.7,0,1.3-0.1,1.8-0.2c0.5-0.1,0.8-0.2,0.8-0.2c0.4,0,0.6,0.1,0.6,0.4c0,0.4-0.3,0.7-0.9,1c-0.6,0.3-1.3,0.5-2.1,0.5
					s-1.4-0.2-1.9-0.7c-0.5-0.5-0.7-1.1-0.7-1.8s0.2-1.4,0.6-2.1c0.4-0.7,0.9-1.4,1.5-1.9c0.6-0.5,1.2-0.7,1.8-0.7
					c0.6,0,1.1,0.3,1.6,0.9c0.5,0.6,0.8,1.2,0.8,1.7C77.1,70.5,76.8,70.9,76.2,71.3z M75.2,69.4c-0.2-0.2-0.4-0.3-0.6-0.3
					s-0.4,0.1-0.7,0.4c-0.3,0.2-0.5,0.6-0.8,1c0.1,0,0.2,0,0.4,0c1.3,0,1.9-0.2,1.9-0.7C75.5,69.7,75.4,69.6,75.2,69.4z"/>
				<path d="M84.8,64.1c0-0.4,0.2-0.6,0.5-0.6c0.3,0,0.5,0.2,0.9,0.6c0.3,0.4,0.5,0.8,0.5,1.1c0,0.3-0.1,0.7-0.2,1.3
					c-0.1,0.5-0.2,1-0.4,1.5c-0.1,0.4-0.3,1.1-0.6,1.9s-0.4,1.4-0.5,1.7c0.6-1.2,1.2-2.2,1.9-3c0.7-0.8,1.2-1.2,1.7-1.2
					c0.3,0,0.6,0.3,1,0.8c0.4,0.5,0.6,1,0.6,1.4s-0.1,1-0.2,1.8c-0.1,0.8-0.4,1.5-0.8,2.2c-0.4,0.7-0.8,1.1-1.1,1.1
					c-0.3,0-0.5-0.2-0.5-0.7c0-0.3,0.1-0.8,0.3-1.6c0.3-1.1,0.4-1.7,0.4-2s0-0.4-0.1-0.4c-0.5,0-1.3,0.9-2.4,2.7
					c-0.4,0.6-0.7,1.1-0.9,1.4c-0.2,0.3-0.5,0.4-0.7,0.4c-0.2,0-0.5-0.2-0.8-0.5c-0.3-0.3-0.5-0.6-0.5-0.8s0-0.5,0.1-0.8
					s0.2-0.9,0.4-1.6c0.2-0.7,0.4-1.9,0.8-3.8C84.6,65.3,84.8,64.3,84.8,64.1z"/>
				<path d="M96.9,70.7c0.2,0.1,0.3,0.3,0.3,0.4c0,0.1-0.1,0.4-0.2,0.8c-0.1,0.4-0.2,0.7-0.2,0.9c0,0.2-0.1,0.4-0.1,0.5s0,0.2,0,0.3
					c0,0.1,0,0.2,0,0.3c0,0.1,0,0.2-0.1,0.2s0,0.1-0.1,0.2s0,0.1-0.1,0.2c0,0-0.1,0.1-0.1,0.1c-0.1,0.1-0.1,0.1-0.3,0.1
					s-0.3-0.1-0.5-0.4c-0.2-0.3-0.3-0.6-0.4-1c-0.9,0.9-1.6,1.3-2.2,1.3c-0.4,0-0.8-0.2-1.3-0.7s-0.7-0.9-0.7-1.3s0.2-1.1,0.6-1.9
					s0.9-1.6,1.6-2.3s1.4-1,2.1-1c0.4,0,0.8,0.2,1.4,0.7c0.5,0.5,0.8,0.9,0.8,1.3S97.2,70.2,96.9,70.7z M92.8,72.9
					c0.4,0,0.9-0.3,1.5-0.8c0.6-0.5,1-1.1,1.2-1.9c0-0.1,0.1-0.2,0.2-0.2c0-0.5-0.1-0.8-0.3-0.8c-0.4,0-0.8,0.2-1.3,0.7
					c-0.5,0.5-0.8,1-1.1,1.6s-0.4,1-0.4,1.2c0,0.1,0,0.1,0,0.1C92.7,72.9,92.7,72.9,92.8,72.9z"/>
				<path d="M98.1,72.4c0-0.7,0.2-1.4,0.6-2.2c0.4-0.8,0.9-1.5,1.6-2c0.7-0.6,1.3-0.8,2-0.8c0.3,0,0.7,0.2,1,0.6
					c0.3,0.4,0.5,0.8,0.5,1.1c0,0.2-0.1,0.4-0.3,0.4c-0.1,0-0.3-0.1-0.5-0.2c-0.2-0.1-0.4-0.2-0.6-0.2c-0.2,0-0.5,0.2-0.9,0.5
					c-0.4,0.3-0.7,0.8-1,1.3s-0.4,0.9-0.4,1.2c0,0.3,0.1,0.5,0.2,0.5c0.1,0.1,0.4,0.1,0.8,0.1c0.4,0,0.8,0,1.1-0.1
					c0.3-0.1,0.6-0.2,0.8-0.2c0.2-0.1,0.3-0.1,0.4-0.1c0.3,0,0.4,0.1,0.4,0.3c0,0.4-0.4,0.8-1.1,1.3s-1.4,0.6-2.2,0.6
					c-0.5,0-1-0.3-1.6-0.8C98.4,73.4,98.1,72.9,98.1,72.4z"/>
				<path d="M110.3,71.3c-0.6,0.4-1.3,0.5-1.9,0.5s-1.2,0-1.6-0.1c-0.1,0.3-0.1,0.5-0.1,0.8s0,0.4,0.1,0.5s0.3,0.2,0.6,0.2
					c0.7,0,1.3-0.1,1.8-0.2c0.5-0.1,0.8-0.2,0.8-0.2c0.4,0,0.6,0.1,0.6,0.4c0,0.4-0.3,0.7-0.9,1c-0.6,0.3-1.3,0.5-2.1,0.5
					s-1.4-0.2-1.9-0.7c-0.5-0.5-0.7-1.1-0.7-1.8s0.2-1.4,0.6-2.1c0.4-0.7,0.9-1.4,1.5-1.9c0.6-0.5,1.2-0.7,1.8-0.7
					c0.6,0,1.1,0.3,1.6,0.9c0.5,0.6,0.8,1.2,0.8,1.7C111.2,70.5,110.9,70.9,110.3,71.3z M109.3,69.4c-0.2-0.2-0.4-0.3-0.6-0.3
					s-0.4,0.1-0.7,0.4c-0.3,0.2-0.5,0.6-0.8,1c0.1,0,0.2,0,0.4,0c1.3,0,1.9-0.2,1.9-0.7C109.6,69.7,109.5,69.6,109.3,69.4z"/>
				<path d="M122.1,67.8c0.1-0.2,0.2-0.3,0.4-0.3s0.5,0.2,0.8,0.6c0.3,0.4,0.4,0.7,0.4,1c0,0.1-0.2,0.8-0.6,2.1
					c-0.4,1.3-0.8,2.3-1,3c-0.1,0.4-0.4,0.6-0.7,0.6c-0.2,0-0.3-0.1-0.5-0.2c-0.1-0.1-0.2-0.3-0.2-0.6s0.1-0.7,0.2-1.2
					c-1,1.4-1.7,2.1-2.3,2.1c-0.3,0-0.7-0.2-1.1-0.6c-0.4-0.4-0.6-0.8-0.6-1.1c0-0.9,0.3-2,0.8-3.4s1-2.1,1.4-2.1
					c0.3,0,0.5,0.1,0.7,0.4c0.2,0.2,0.3,0.5,0.3,0.8c0,0.1-0.1,0.4-0.4,0.9c-0.7,1.5-1.1,2.6-1.1,3.3c0,0.1,0,0.1,0.1,0.1
					c0.1,0,0.4-0.2,0.8-0.7c0.4-0.4,0.8-1.1,1.3-1.9C121.4,69.5,121.8,68.6,122.1,67.8z"/>
				<path d="M129.1,67.4c0.5,0,0.9,0.2,1.3,0.7c0.4,0.4,0.6,0.9,0.6,1.4c0,0.8-0.1,1.6-0.4,2.5c-0.3,0.9-0.5,1.5-0.8,2
					s-0.6,0.7-0.9,0.7c-0.3,0-0.5-0.2-0.5-0.7c0-0.3,0.2-1,0.5-2c0.2-0.8,0.3-1.4,0.3-1.8s0-0.5-0.1-0.5c-0.1,0-0.2,0.1-0.4,0.2
					c-0.1,0.1-0.2,0.2-0.3,0.3c-0.1,0.1-0.2,0.2-0.3,0.4c-0.1,0.1-0.2,0.3-0.3,0.4c-0.1,0.1-0.2,0.3-0.3,0.4
					c-0.1,0.2-0.2,0.3-0.3,0.4c-0.1,0.1-0.1,0.3-0.3,0.5c-0.9,1.6-1.5,2.4-2,2.4c-0.2,0-0.4-0.2-0.7-0.5s-0.4-0.6-0.4-0.7
					c0-0.1,0.1-0.3,0.2-0.7s0.2-0.6,0.3-0.8c0.1-0.2,0.1-0.4,0.2-0.6s0.1-0.4,0.1-0.7s0-0.4,0.1-0.6s0-0.3,0-0.6
					c0.1-1.2,0.2-1.9,0.2-2c0.1-0.1,0.1-0.2,0.2-0.2c0.4,0,0.7,0.1,1,0.4c0.3,0.3,0.5,0.6,0.5,0.8c0,0.6-0.1,1.4-0.4,2.5
					c0.6-1.1,1.2-1.9,1.7-2.6S128.8,67.4,129.1,67.4z"/>
				<path d="M45.5,88.9c-0.6,0.4-1.3,0.5-1.9,0.5s-1.2,0-1.6-0.1c-0.1,0.3-0.1,0.5-0.1,0.8s0,0.4,0.1,0.5s0.3,0.2,0.6,0.2
					c0.7,0,1.3-0.1,1.8-0.2c0.5-0.1,0.8-0.2,0.8-0.2c0.4,0,0.6,0.1,0.6,0.4c0,0.4-0.3,0.7-0.9,1c-0.6,0.3-1.3,0.5-2.1,0.5
					s-1.4-0.2-1.9-0.7c-0.5-0.5-0.7-1.1-0.7-1.8s0.2-1.4,0.6-2.1c0.4-0.7,0.9-1.4,1.5-1.9c0.6-0.5,1.2-0.7,1.8-0.7
					c0.6,0,1.1,0.3,1.6,0.9c0.5,0.6,0.8,1.2,0.8,1.7C46.5,88.1,46.2,88.5,45.5,88.9z M44.6,87c-0.2-0.2-0.4-0.3-0.6-0.3
					s-0.4,0.1-0.7,0.4c-0.3,0.2-0.5,0.6-0.8,1c0.1,0,0.2,0,0.4,0c1.3,0,1.9-0.2,1.9-0.7C44.8,87.3,44.7,87.2,44.6,87z"/>
				<path d="M45.4,94.5c0.3,0,0.6-0.5,0.9-1.5s0.7-2.3,1.1-3.9c0.4-1.6,0.6-2.6,0.8-3c0.1-0.4,0.2-0.7,0.3-0.9
					c0.1-0.1,0.2-0.2,0.3-0.2c0.3,0,0.6,0.2,0.8,0.5c0.3,0.4,0.4,0.7,0.4,1.1c0,0.2-0.6,2.4-1.9,6.7c-0.3,0.9-0.7,1.6-1.2,2
					S45.9,96,45.2,96c-0.5,0-1-0.2-1.4-0.6C43.3,95,43,94.6,43,94.3c0-0.2,0.1-0.5,0.2-0.7c0.2-0.3,0.3-0.4,0.5-0.4s0.4,0.2,0.7,0.6
					c0.1,0.1,0.1,0.2,0.2,0.2C44.9,94.3,45.2,94.5,45.4,94.5z M49.1,82.5c0.2-0.3,0.4-0.4,0.7-0.4c0.2,0,0.5,0.3,0.7,0.8
					c0.3,0.5,0.4,0.9,0.4,1.2c0,0.1-0.1,0.3-0.2,0.4s-0.3,0.2-0.4,0.2c-0.3,0-0.6-0.2-1-0.5c-0.4-0.4-0.5-0.7-0.5-0.9
					C48.8,83,48.9,82.8,49.1,82.5z"/>
				<path d="M56,88.9c-0.6,0.4-1.3,0.5-1.9,0.5s-1.2,0-1.6-0.1c-0.1,0.3-0.1,0.5-0.1,0.8s0,0.4,0.1,0.5s0.3,0.2,0.6,0.2
					c0.7,0,1.3-0.1,1.8-0.2c0.5-0.1,0.8-0.2,0.8-0.2c0.4,0,0.6,0.1,0.6,0.4c0,0.4-0.3,0.7-0.9,1c-0.6,0.3-1.3,0.5-2.1,0.5
					s-1.4-0.2-1.9-0.7c-0.5-0.5-0.7-1.1-0.7-1.8s0.2-1.4,0.6-2.1c0.4-0.7,0.9-1.4,1.5-1.9c0.6-0.5,1.2-0.7,1.8-0.7
					c0.6,0,1.1,0.3,1.6,0.9c0.5,0.6,0.8,1.2,0.8,1.7C56.9,88.1,56.6,88.5,56,88.9z M55,87c-0.2-0.2-0.4-0.3-0.6-0.3
					s-0.4,0.1-0.7,0.4c-0.3,0.2-0.5,0.6-0.8,1c0.1,0,0.2,0,0.4,0c1.3,0,1.9-0.2,1.9-0.7C55.3,87.3,55.2,87.2,55,87z"/>
				<path d="M58.3,87.4l-0.1-1.6c0-0.5,0.2-0.8,0.5-0.8c0.2,0,0.4,0.1,0.6,0.2c0.2,0.1,0.3,0.4,0.4,0.7c0.3-0.3,0.7-0.5,1-0.7
					s0.7-0.3,1-0.3c0.7,0,1,0.2,1,0.5c0,0.2,0,0.3-0.1,0.4c-0.1,0.1-0.1,0.1-0.1,0.2c0,0-0.1,0.1-0.2,0.1c-0.1,0.1-0.1,0.1-0.2,0.1
					c-0.2,0.1-0.4,0.2-0.5,0.3c-0.4,0.3-0.8,0.6-1.1,0.9c-0.3,0.4-0.5,0.9-0.7,1.5c-0.3,1.1-0.5,1.9-0.7,2.4
					c-0.2,0.5-0.5,0.8-0.8,0.8c-0.3,0-0.5-0.1-0.7-0.4c-0.1-0.3-0.2-0.5-0.2-0.8c0-0.2,0.1-0.6,0.3-1.1c0.2-0.5,0.3-0.9,0.4-1.3
					C58.2,88.3,58.3,87.8,58.3,87.4z"/>
				<path d="M62.6,90c0-0.7,0.2-1.4,0.6-2.2c0.4-0.8,0.9-1.5,1.6-2c0.7-0.6,1.3-0.8,2-0.8c0.3,0,0.7,0.2,1,0.6
					c0.3,0.4,0.5,0.8,0.5,1.1c0,0.2-0.1,0.4-0.3,0.4c-0.1,0-0.3-0.1-0.5-0.2c-0.2-0.1-0.4-0.2-0.6-0.2c-0.2,0-0.5,0.2-0.9,0.5
					c-0.4,0.3-0.7,0.8-1,1.3s-0.4,0.9-0.4,1.2c0,0.3,0.1,0.5,0.2,0.5c0.1,0.1,0.4,0.1,0.8,0.1c0.4,0,0.8,0,1.1-0.1
					c0.3-0.1,0.6-0.2,0.8-0.2c0.2-0.1,0.3-0.1,0.4-0.1c0.3,0,0.4,0.1,0.4,0.3c0,0.4-0.4,0.8-1.1,1.3s-1.4,0.6-2.2,0.6
					c-0.5,0-1-0.3-1.6-0.8C62.9,91,62.6,90.5,62.6,90z"/>
				<path d="M71,85c0.3,0,0.6,0.2,0.9,0.6c0.3,0.4,0.4,0.7,0.4,1.1c0,0.2-0.2,0.8-0.5,1.9s-0.6,2.1-1,3.1c-0.1,0.4-0.3,0.5-0.7,0.5
					c-0.2,0-0.4-0.1-0.5-0.2c-0.2-0.2-0.2-0.4-0.2-0.6s0.1-0.9,0.4-1.8c0.2-1,0.4-1.8,0.5-2.5c0.1-0.7,0.2-1.2,0.4-1.5
					S70.8,85,71,85z M70.8,83.3c0-0.2,0.1-0.5,0.3-0.7s0.4-0.4,0.6-0.4s0.5,0.3,0.7,0.8c0.3,0.5,0.4,0.9,0.4,1.1s-0.1,0.4-0.2,0.5
					c-0.1,0.1-0.3,0.2-0.5,0.2c-0.3,0-0.6-0.2-0.9-0.5S70.8,83.5,70.8,83.3z"/>
				<path d="M73.1,90c0-0.7,0.2-1.4,0.6-2.2c0.4-0.8,0.9-1.5,1.6-2c0.7-0.6,1.3-0.8,2-0.8c0.3,0,0.7,0.2,1,0.6
					c0.3,0.4,0.5,0.8,0.5,1.1c0,0.2-0.1,0.4-0.3,0.4c-0.1,0-0.3-0.1-0.5-0.2c-0.2-0.1-0.4-0.2-0.6-0.2c-0.2,0-0.5,0.2-0.9,0.5
					c-0.4,0.3-0.7,0.8-1,1.3s-0.4,0.9-0.4,1.2c0,0.3,0.1,0.5,0.2,0.5c0.1,0.1,0.4,0.1,0.8,0.1c0.4,0,0.8,0,1.1-0.1
					c0.3-0.1,0.6-0.2,0.8-0.2c0.2-0.1,0.3-0.1,0.4-0.1c0.3,0,0.4,0.1,0.4,0.3c0,0.4-0.4,0.8-1.1,1.3s-1.4,0.6-2.2,0.6
					c-0.5,0-1-0.3-1.6-0.8C73.3,91,73.1,90.5,73.1,90z"/>
				<path d="M81.5,85c0.3,0,0.6,0.2,0.9,0.6c0.3,0.4,0.4,0.7,0.4,1.1c0,0.2-0.2,0.8-0.5,1.9s-0.6,2.1-1,3.1
					c-0.1,0.4-0.3,0.5-0.7,0.5c-0.2,0-0.4-0.1-0.5-0.2c-0.2-0.2-0.2-0.4-0.2-0.6s0.1-0.9,0.4-1.8c0.2-1,0.4-1.8,0.5-2.5
					c0.1-0.7,0.2-1.2,0.4-1.5S81.3,85,81.5,85z M81.3,83.3c0-0.2,0.1-0.5,0.3-0.7s0.4-0.4,0.6-0.4s0.5,0.3,0.7,0.8
					c0.3,0.5,0.4,0.9,0.4,1.1s-0.1,0.4-0.2,0.5c-0.1,0.1-0.3,0.2-0.5,0.2c-0.3,0-0.6-0.2-0.9-0.5S81.3,83.5,81.3,83.3z"/>
				<path d="M84.6,86.6c0.7-1,1.4-1.6,2.1-1.6c0.7,0,1.3,0.3,1.8,0.7c0.5,0.5,0.7,1.1,0.7,1.8c0,0.7-0.2,1.4-0.5,2.1
					c-0.3,0.7-0.8,1.3-1.4,1.8c-0.6,0.5-1.3,0.7-1.9,0.7c-0.5,0-1-0.2-1.3-0.7c-0.4-0.5-0.6-1-0.6-1.7
					C83.5,88.7,83.8,87.6,84.6,86.6z M86.8,89.4c0.4-0.7,0.6-1.3,0.6-1.9c0-0.6-0.1-1-0.3-1.2c-0.4,0.2-0.8,0.7-1.2,1.5
					c-0.4,0.7-0.6,1.4-0.6,2s0.1,0.9,0.2,1.1C86,90.6,86.5,90.1,86.8,89.4z"/>
				<path d="M101.3,81.1c0.2,0,0.5,0.2,0.9,0.6c0.4,0.4,0.5,0.8,0.5,1.1c0,0.2-0.2,0.9-0.5,2.2c-0.3,1.3-0.5,2.1-0.6,2.4
					c-0.7,3.2-1.3,4.8-1.6,4.8c-0.2,0-0.4-0.1-0.7-0.3S99,91.4,99,91.2c0,0,0-0.1,0-0.1c-0.9,0.8-1.6,1.1-2,1.1
					c-0.4,0-0.8-0.2-1.2-0.7c-0.4-0.4-0.6-0.8-0.6-1.2s0-0.7,0.1-1.2c0.1-0.4,0.3-0.9,0.5-1.4c0.2-0.5,0.4-0.9,0.7-1.4
					c0.3-0.4,0.6-0.8,1-1c0.4-0.3,0.8-0.4,1.2-0.4c0.6,0,1.1,0.3,1.5,0.9c0.5-2.2,0.7-3.7,0.7-4.4C100.9,81.2,101,81.1,101.3,81.1z
					 M97.2,90.5c0.2,0,0.6-0.2,1.2-0.6s1-0.9,1.2-1.5c0-0.1,0-0.2,0-0.5c0-0.3-0.1-0.5-0.3-0.7c-0.2-0.2-0.3-0.3-0.5-0.3
					c-0.3,0-0.5,0.1-0.8,0.4s-0.5,0.7-0.6,1.1c-0.3,0.9-0.5,1.5-0.5,2c0,0.1,0,0.1,0,0.1C97,90.4,97.1,90.5,97.2,90.5z"/>
				<path d="M108.2,88.9c-0.6,0.4-1.3,0.5-1.9,0.5s-1.2,0-1.6-0.1c-0.1,0.3-0.1,0.5-0.1,0.8s0,0.4,0.1,0.5s0.3,0.2,0.6,0.2
					c0.7,0,1.3-0.1,1.8-0.2c0.5-0.1,0.8-0.2,0.8-0.2c0.4,0,0.6,0.1,0.6,0.4c0,0.4-0.3,0.7-0.9,1c-0.6,0.3-1.3,0.5-2.1,0.5
					s-1.4-0.2-1.9-0.7c-0.5-0.5-0.7-1.1-0.7-1.8s0.2-1.4,0.6-2.1c0.4-0.7,0.9-1.4,1.5-1.9c0.6-0.5,1.2-0.7,1.8-0.7
					c0.6,0,1.1,0.3,1.6,0.9c0.5,0.6,0.8,1.2,0.8,1.7C109.1,88.1,108.8,88.5,108.2,88.9z M107.2,87c-0.2-0.2-0.4-0.3-0.6-0.3
					s-0.4,0.1-0.7,0.4c-0.3,0.2-0.5,0.6-0.8,1c0.1,0,0.2,0,0.4,0c1.3,0,1.9-0.2,1.9-0.7C107.5,87.3,107.4,87.2,107.2,87z"/>
				<path d="M43.6,105.9c0.2,0.1,0.3,0.3,0.3,0.4c0,0.1-0.1,0.4-0.2,0.8c-0.1,0.4-0.2,0.7-0.2,0.9c0,0.2-0.1,0.4-0.1,0.5
					s0,0.2,0,0.3c0,0.1,0,0.2,0,0.3c0,0.1,0,0.2-0.1,0.2s0,0.1-0.1,0.2s0,0.1-0.1,0.2c0,0-0.1,0.1-0.1,0.1c-0.1,0.1-0.1,0.1-0.3,0.1
					s-0.3-0.1-0.5-0.4c-0.2-0.3-0.3-0.6-0.4-1c-0.9,0.9-1.6,1.3-2.2,1.3c-0.4,0-0.8-0.2-1.3-0.7s-0.7-0.9-0.7-1.3s0.2-1.1,0.6-1.9
					s0.9-1.6,1.6-2.3s1.4-1,2.1-1c0.4,0,0.8,0.2,1.4,0.7c0.5,0.5,0.8,0.9,0.8,1.3S43.9,105.4,43.6,105.9z M39.6,108.1
					c0.4,0,0.9-0.3,1.5-0.8c0.6-0.5,1-1.1,1.2-1.9c0-0.1,0.1-0.2,0.2-0.2c0-0.5-0.1-0.8-0.3-0.8c-0.4,0-0.8,0.2-1.3,0.7
					c-0.5,0.5-0.8,1-1.1,1.6s-0.4,1-0.4,1.2c0,0.1,0,0.1,0,0.1C39.4,108.1,39.5,108.1,39.6,108.1z"/>
				<path d="M44.8,107.6c0-0.7,0.2-1.4,0.6-2.2c0.4-0.8,0.9-1.5,1.6-2c0.7-0.6,1.3-0.8,2-0.8c0.3,0,0.7,0.2,1,0.6
					c0.3,0.4,0.5,0.8,0.5,1.1c0,0.2-0.1,0.4-0.3,0.4c-0.1,0-0.3-0.1-0.5-0.2c-0.2-0.1-0.4-0.2-0.6-0.2c-0.2,0-0.5,0.2-0.9,0.5
					c-0.4,0.3-0.7,0.8-1,1.3s-0.4,0.9-0.4,1.2c0,0.3,0.1,0.5,0.2,0.5c0.1,0.1,0.4,0.1,0.8,0.1c0.4,0,0.8,0,1.1-0.1
					c0.3-0.1,0.6-0.2,0.8-0.2c0.2-0.1,0.3-0.1,0.4-0.1c0.3,0,0.4,0.1,0.4,0.3c0,0.4-0.4,0.8-1.1,1.3s-1.4,0.6-2.2,0.6
					c-0.5,0-1-0.3-1.6-0.8C45.1,108.6,44.8,108.1,44.8,107.6z"/>
				<path d="M56.6,103c0.1-0.2,0.2-0.3,0.4-0.3s0.5,0.2,0.8,0.6c0.3,0.4,0.4,0.7,0.4,1c0,0.1-0.2,0.8-0.6,2.1c-0.4,1.3-0.8,2.3-1,3
					c-0.1,0.4-0.4,0.6-0.7,0.6c-0.2,0-0.3-0.1-0.5-0.2c-0.1-0.1-0.2-0.3-0.2-0.6s0.1-0.7,0.2-1.2c-1,1.4-1.7,2.1-2.3,2.1
					c-0.3,0-0.7-0.2-1.1-0.6c-0.4-0.4-0.6-0.8-0.6-1.1c0-0.9,0.3-2,0.8-3.4s1-2.1,1.4-2.1c0.3,0,0.5,0.1,0.7,0.4
					c0.2,0.2,0.3,0.5,0.3,0.8c0,0.1-0.1,0.4-0.4,0.9c-0.7,1.5-1.1,2.6-1.1,3.3c0,0.1,0,0.1,0.1,0.1c0.1,0,0.4-0.2,0.8-0.7
					c0.4-0.4,0.8-1.1,1.3-1.9C55.9,104.7,56.3,103.8,56.6,103z"/>
				<path d="M67.9,102.6c0.4,0,0.7,0.2,0.9,0.7c0.2,0.5,0.4,0.9,0.4,1.3s-0.1,1-0.2,1.8c-0.2,0.8-0.4,1.5-0.7,2.3
					c-0.3,0.7-0.7,1.1-1.1,1.1c-0.3,0-0.5-0.2-0.5-0.6s0.1-1.1,0.4-2.1c0.2-1,0.4-1.6,0.4-1.9c0-0.3,0-0.4-0.1-0.4
					c-0.2,0-0.4,0.2-0.7,0.6c-0.3,0.4-0.6,1-1,1.7c-0.4,0.7-0.6,1.2-0.7,1.4c-0.1,0.2-0.2,0.4-0.2,0.5c-0.1,0.1-0.1,0.2-0.2,0.4
					c-0.3,0.5-0.7,0.5-1.2,0c-0.3-0.3-0.4-0.5-0.4-0.7c0,0,0.1-0.4,0.2-1.1c0.2-0.7,0.2-1.4,0.2-2.3c0-0.4,0-0.5-0.1-0.5
					c-0.1,0-0.2,0.1-0.4,0.3c-0.1,0.2-0.4,0.6-0.7,1.2s-0.6,1.1-0.8,1.5c-0.8,1.3-1.4,2-1.8,2c-0.2,0-0.5-0.2-0.8-0.5
					c-0.3-0.3-0.5-0.6-0.5-0.8c0-0.2,0.1-0.6,0.3-1.3s0.3-1.4,0.4-2.2c0.1-0.8,0.1-1.4,0.2-1.8c0.1-0.4,0.2-0.7,0.3-0.7
					c0.4,0,0.7,0.1,1,0.4c0.3,0.3,0.5,0.6,0.5,0.8c0,0.6-0.2,1.5-0.6,2.9c0.7-1.6,1.2-2.6,1.7-3.2c0.5-0.6,0.9-0.9,1.4-0.9
					c0.2,0,0.5,0.2,0.9,0.7c0.4,0.4,0.5,0.9,0.5,1.3c0,0.4,0,0.7,0,1c0.3-0.7,0.7-1.4,1.3-2S67.4,102.6,67.9,102.6z"/>
				<path d="M74.9,103c0.1-0.2,0.2-0.3,0.4-0.3s0.5,0.2,0.8,0.6c0.3,0.4,0.4,0.7,0.4,1c0,0.1-0.2,0.8-0.6,2.1c-0.4,1.3-0.8,2.3-1,3
					c-0.1,0.4-0.4,0.6-0.7,0.6c-0.2,0-0.3-0.1-0.5-0.2c-0.1-0.1-0.2-0.3-0.2-0.6s0.1-0.7,0.2-1.2c-1,1.4-1.7,2.1-2.3,2.1
					c-0.3,0-0.7-0.2-1.1-0.6c-0.4-0.4-0.6-0.8-0.6-1.1c0-0.9,0.3-2,0.8-3.4s1-2.1,1.4-2.1c0.3,0,0.5,0.1,0.7,0.4
					c0.2,0.2,0.3,0.5,0.3,0.8c0,0.1-0.1,0.4-0.4,0.9c-0.7,1.5-1.1,2.6-1.1,3.3c0,0.1,0,0.1,0.1,0.1c0.1,0,0.4-0.2,0.8-0.7
					c0.4-0.4,0.8-1.1,1.3-1.9C74.2,104.7,74.6,103.8,74.9,103z"/>
				<path d="M79.6,99.3c0.4,0.4,0.5,0.8,0.5,1.2c0,0.4-0.1,1-0.2,2c-0.1,1-0.2,1.7-0.4,2.3c-0.8,3.4-1.3,5.1-1.6,5.1
					c-0.2,0-0.5-0.2-0.8-0.5s-0.5-0.6-0.5-0.8c0,0,0.1-0.5,0.4-1.5c0.3-1,0.5-2.2,0.8-3.7s0.4-2.9,0.4-4.3c0-0.3,0.1-0.4,0.4-0.4
					C79,98.7,79.2,98.9,79.6,99.3z"/>
				<path d="M86.4,105.9c0.2,0.1,0.3,0.3,0.3,0.4c0,0.1-0.1,0.4-0.2,0.8c-0.1,0.4-0.2,0.7-0.2,0.9c0,0.2-0.1,0.4-0.1,0.5
					s0,0.2,0,0.3c0,0.1,0,0.2,0,0.3c0,0.1,0,0.2-0.1,0.2s0,0.1-0.1,0.2s0,0.1-0.1,0.2c0,0-0.1,0.1-0.1,0.1c-0.1,0.1-0.1,0.1-0.3,0.1
					s-0.3-0.1-0.5-0.4c-0.2-0.3-0.3-0.6-0.4-1c-0.9,0.9-1.6,1.3-2.2,1.3c-0.4,0-0.8-0.2-1.3-0.7s-0.7-0.9-0.7-1.3s0.2-1.1,0.6-1.9
					s0.9-1.6,1.6-2.3s1.4-1,2.1-1c0.4,0,0.8,0.2,1.4,0.7c0.5,0.5,0.8,0.9,0.8,1.3S86.7,105.4,86.4,105.9z M82.4,108.1
					c0.4,0,0.9-0.3,1.5-0.8c0.6-0.5,1-1.1,1.2-1.9c0-0.1,0.1-0.2,0.2-0.2c0-0.5-0.1-0.8-0.3-0.8c-0.4,0-0.8,0.2-1.3,0.7
					c-0.5,0.5-0.8,1-1.1,1.6s-0.4,1-0.4,1.2c0,0.1,0,0.1,0,0.1C82.2,108.1,82.3,108.1,82.4,108.1z"/>
				<path d="M87.6,107.6c0-0.7,0.2-1.4,0.6-2.2c0.4-0.8,0.9-1.5,1.6-2c0.7-0.6,1.3-0.8,2-0.8c0.3,0,0.7,0.2,1,0.6
					c0.3,0.4,0.5,0.8,0.5,1.1c0,0.2-0.1,0.4-0.3,0.4c-0.1,0-0.3-0.1-0.5-0.2c-0.2-0.1-0.4-0.2-0.6-0.2c-0.2,0-0.5,0.2-0.9,0.5
					c-0.4,0.3-0.7,0.8-1,1.3s-0.4,0.9-0.4,1.2c0,0.3,0.1,0.5,0.2,0.5c0.1,0.1,0.4,0.1,0.8,0.1c0.4,0,0.8,0,1.1-0.1
					c0.3-0.1,0.6-0.2,0.8-0.2c0.2-0.1,0.3-0.1,0.4-0.1c0.3,0,0.4,0.1,0.4,0.3c0,0.4-0.4,0.8-1.1,1.3s-1.4,0.6-2.2,0.6
					c-0.5,0-1-0.3-1.6-0.8C87.9,108.6,87.6,108.1,87.6,107.6z"/>
				<path d="M96,102.6c0.3,0,0.6,0.2,0.9,0.6c0.3,0.4,0.4,0.7,0.4,1.1c0,0.2-0.2,0.8-0.5,1.9s-0.6,2.1-1,3.1
					c-0.1,0.4-0.3,0.5-0.7,0.5c-0.2,0-0.4-0.1-0.5-0.2c-0.2-0.2-0.2-0.4-0.2-0.6s0.1-0.9,0.4-1.8c0.2-1,0.4-1.8,0.5-2.5
					c0.1-0.7,0.2-1.2,0.4-1.5S95.9,102.6,96,102.6z M95.8,100.9c0-0.2,0.1-0.5,0.3-0.7s0.4-0.4,0.6-0.4s0.5,0.3,0.7,0.8
					c0.3,0.5,0.4,0.9,0.4,1.1s-0.1,0.4-0.2,0.5c-0.1,0.1-0.3,0.2-0.5,0.2c-0.3,0-0.6-0.2-0.9-0.5S95.8,101.1,95.8,100.9z"/>
				<path d="M99.1,104.2c0.7-1,1.4-1.6,2.1-1.6c0.7,0,1.3,0.3,1.8,0.7c0.5,0.5,0.7,1.1,0.7,1.8c0,0.7-0.2,1.4-0.5,2.1
					c-0.3,0.7-0.8,1.3-1.4,1.8c-0.6,0.5-1.3,0.7-1.9,0.7c-0.5,0-1-0.2-1.3-0.7c-0.4-0.5-0.6-1-0.6-1.7
					C98,106.3,98.4,105.2,99.1,104.2z M101.4,107c0.4-0.7,0.6-1.3,0.6-1.9c0-0.6-0.1-1-0.3-1.2c-0.4,0.2-0.8,0.7-1.2,1.5
					c-0.4,0.7-0.6,1.4-0.6,2s0.1,0.9,0.2,1.1C100.6,108.2,101,107.7,101.4,107z M102.1,102.2c-0.2,0-0.3-0.1-0.4-0.2
					c-0.1-0.1-0.2-0.3-0.2-0.5c0-0.2,0.1-0.4,0.2-0.5c0.1-0.2,0.3-0.4,0.5-0.5c0.2-0.2,0.4-0.4,0.6-0.5c0.2-0.2,0.3-0.3,0.4-0.3
					c0.1-0.1,0.2-0.1,0.3-0.2c0.1-0.1,0.2-0.1,0.2-0.2c0.1-0.1,0.3-0.1,0.4-0.1c0.2,0,0.4,0.1,0.6,0.4c0.2,0.3,0.3,0.5,0.3,0.7
					c0,0.2,0,0.4,0,0.4s-0.1,0.2-0.2,0.3s-0.2,0.2-0.3,0.2c-0.1,0.1-0.3,0.1-0.5,0.3s-0.5,0.2-0.6,0.3c-0.2,0.1-0.3,0.2-0.5,0.3
					C102.5,102.1,102.3,102.2,102.1,102.2z"/>
				<path d="M109.6,102.6c0.5,0,0.9,0.2,1.3,0.7c0.4,0.4,0.6,0.9,0.6,1.4c0,0.8-0.1,1.6-0.4,2.5c-0.3,0.9-0.5,1.5-0.8,2
					s-0.6,0.7-0.9,0.7c-0.3,0-0.5-0.2-0.5-0.7c0-0.3,0.2-1,0.5-2c0.2-0.8,0.3-1.4,0.3-1.8s0-0.5-0.1-0.5c-0.1,0-0.2,0.1-0.4,0.2
					c-0.1,0.1-0.2,0.2-0.3,0.3c-0.1,0.1-0.2,0.2-0.3,0.4c-0.1,0.1-0.2,0.3-0.3,0.4c-0.1,0.1-0.2,0.3-0.3,0.4
					c-0.1,0.2-0.2,0.3-0.3,0.4c-0.1,0.1-0.1,0.3-0.3,0.5c-0.9,1.6-1.5,2.4-2,2.4c-0.2,0-0.4-0.2-0.7-0.5s-0.4-0.6-0.4-0.7
					c0-0.1,0.1-0.3,0.2-0.7s0.2-0.6,0.3-0.8c0.1-0.2,0.1-0.4,0.2-0.6s0.1-0.4,0.1-0.7s0-0.4,0.1-0.6s0-0.3,0-0.6
					c0.1-1.2,0.2-1.9,0.2-2c0.1-0.1,0.1-0.2,0.2-0.2c0.4,0,0.7,0.1,1,0.4c0.3,0.3,0.5,0.6,0.5,0.8c0,0.6-0.1,1.4-0.4,2.5
					c0.6-1.1,1.2-1.9,1.7-2.6S109.2,102.6,109.6,102.6z"/>
				<path d="M16,124.1c-0.6,0.4-1.3,0.5-1.9,0.5s-1.2,0-1.6-0.1c-0.1,0.3-0.1,0.5-0.1,0.8s0,0.4,0.1,0.5s0.3,0.2,0.6,0.2
					c0.7,0,1.3-0.1,1.8-0.2c0.5-0.1,0.8-0.2,0.8-0.2c0.4,0,0.6,0.1,0.6,0.4c0,0.4-0.3,0.7-0.9,1c-0.6,0.3-1.3,0.5-2.1,0.5
					s-1.4-0.2-1.9-0.7c-0.5-0.5-0.7-1.1-0.7-1.8s0.2-1.4,0.6-2.1c0.4-0.7,0.9-1.4,1.5-1.9c0.6-0.5,1.2-0.7,1.8-0.7
					c0.6,0,1.1,0.3,1.6,0.9c0.5,0.6,0.8,1.2,0.8,1.7C16.9,123.3,16.6,123.7,16,124.1z M15,122.2c-0.2-0.2-0.4-0.3-0.6-0.3
					s-0.4,0.1-0.7,0.4c-0.3,0.2-0.5,0.6-0.8,1c0.1,0,0.2,0,0.4,0c1.3,0,1.9-0.2,1.9-0.7C15.3,122.5,15.2,122.4,15,122.2z"/>
				<path d="M17.5,125.2c0-0.7,0.2-1.4,0.6-2.2c0.4-0.8,0.9-1.5,1.6-2c0.7-0.6,1.3-0.8,2-0.8c0.3,0,0.7,0.2,1,0.6
					c0.3,0.4,0.5,0.8,0.5,1.1c0,0.2-0.1,0.4-0.3,0.4c-0.1,0-0.3-0.1-0.5-0.2c-0.2-0.1-0.4-0.2-0.6-0.2c-0.2,0-0.5,0.2-0.9,0.5
					c-0.4,0.3-0.7,0.8-1,1.3s-0.4,0.9-0.4,1.2c0,0.3,0.1,0.5,0.2,0.5c0.1,0.1,0.4,0.1,0.8,0.1c0.4,0,0.8,0,1.1-0.1
					c0.3-0.1,0.6-0.2,0.8-0.2c0.2-0.1,0.3-0.1,0.4-0.1c0.3,0,0.4,0.1,0.4,0.3c0,0.4-0.4,0.8-1.1,1.3s-1.4,0.6-2.2,0.6
					c-0.5,0-1-0.3-1.6-0.8C17.8,126.2,17.5,125.7,17.5,125.2z"/>
				<path d="M25.3,121.8c0.7-1,1.4-1.6,2.1-1.6c0.7,0,1.3,0.3,1.8,0.7c0.5,0.5,0.7,1.1,0.7,1.8c0,0.7-0.2,1.4-0.5,2.1
					c-0.3,0.7-0.8,1.3-1.4,1.8c-0.6,0.5-1.3,0.7-1.9,0.7c-0.5,0-1-0.2-1.3-0.7c-0.4-0.5-0.6-1-0.6-1.7
					C24.2,123.9,24.6,122.8,25.3,121.8z M27.6,124.6c0.4-0.7,0.6-1.3,0.6-1.9c0-0.6-0.1-1-0.3-1.2c-0.4,0.2-0.8,0.7-1.2,1.5
					c-0.4,0.7-0.6,1.4-0.6,2s0.1,0.9,0.2,1.1C26.8,125.8,27.2,125.3,27.6,124.6z"/>
				<path d="M35.9,120.2c0.5,0,0.9,0.2,1.3,0.7c0.4,0.4,0.6,0.9,0.6,1.4c0,0.8-0.1,1.6-0.4,2.5c-0.3,0.9-0.5,1.5-0.8,2
					s-0.6,0.7-0.9,0.7c-0.3,0-0.5-0.2-0.5-0.7c0-0.3,0.2-1,0.5-2c0.2-0.8,0.3-1.4,0.3-1.8s0-0.5-0.1-0.5c-0.1,0-0.2,0.1-0.4,0.2
					c-0.1,0.1-0.2,0.2-0.3,0.3c-0.1,0.1-0.2,0.2-0.3,0.4c-0.1,0.1-0.2,0.3-0.3,0.4c-0.1,0.1-0.2,0.3-0.3,0.4
					c-0.1,0.2-0.2,0.3-0.3,0.4c-0.1,0.1-0.1,0.3-0.3,0.5c-0.9,1.6-1.5,2.4-2,2.4c-0.2,0-0.4-0.2-0.7-0.5s-0.4-0.6-0.4-0.7
					c0-0.1,0.1-0.3,0.2-0.7s0.2-0.6,0.3-0.8c0.1-0.2,0.1-0.4,0.2-0.6s0.1-0.4,0.1-0.7s0-0.4,0.1-0.6s0-0.3,0-0.6
					c0.1-1.2,0.2-1.9,0.2-2c0.1-0.1,0.1-0.2,0.2-0.2c0.4,0,0.7,0.1,1,0.4c0.3,0.3,0.5,0.6,0.5,0.8c0,0.6-0.1,1.4-0.4,2.5
					c0.6-1.1,1.2-1.9,1.7-2.6S35.5,120.2,35.9,120.2z"/>
				<path d="M39.5,121.8c0.7-1,1.4-1.6,2.1-1.6c0.7,0,1.3,0.3,1.8,0.7c0.5,0.5,0.7,1.1,0.7,1.8c0,0.7-0.2,1.4-0.5,2.1
					c-0.3,0.7-0.8,1.3-1.4,1.8c-0.6,0.5-1.3,0.7-1.9,0.7c-0.5,0-1-0.2-1.3-0.7c-0.4-0.5-0.6-1-0.6-1.7
					C38.4,123.9,38.7,122.8,39.5,121.8z M41.7,124.6c0.4-0.7,0.6-1.3,0.6-1.9c0-0.6-0.1-1-0.3-1.2c-0.4,0.2-0.8,0.7-1.2,1.5
					c-0.4,0.7-0.6,1.4-0.6,2s0.1,0.9,0.2,1.1C40.9,125.8,41.4,125.3,41.7,124.6z M42.5,119.8c-0.2,0-0.3-0.1-0.4-0.2
					c-0.1-0.1-0.2-0.3-0.2-0.5c0-0.2,0.1-0.4,0.2-0.5c0.1-0.2,0.3-0.4,0.5-0.5c0.2-0.2,0.4-0.4,0.6-0.5c0.2-0.2,0.3-0.3,0.4-0.3
					c0.1-0.1,0.2-0.1,0.3-0.2c0.1-0.1,0.2-0.1,0.2-0.2c0.1-0.1,0.3-0.1,0.4-0.1c0.2,0,0.4,0.1,0.6,0.4c0.2,0.3,0.3,0.5,0.3,0.7
					c0,0.2,0,0.4,0,0.4s-0.1,0.2-0.2,0.3s-0.2,0.2-0.3,0.2c-0.1,0.1-0.3,0.1-0.5,0.3s-0.5,0.2-0.6,0.3c-0.2,0.1-0.3,0.2-0.5,0.3
					C42.9,119.7,42.6,119.8,42.5,119.8z"/>
				<path d="M54.2,120.2c0.4,0,0.7,0.2,0.9,0.7c0.2,0.5,0.4,0.9,0.4,1.3s-0.1,1-0.2,1.8c-0.2,0.8-0.4,1.5-0.7,2.3
					c-0.3,0.7-0.7,1.1-1.1,1.1c-0.3,0-0.5-0.2-0.5-0.6s0.1-1.1,0.4-2.1c0.2-1,0.4-1.6,0.4-1.9c0-0.3,0-0.4-0.1-0.4
					c-0.2,0-0.4,0.2-0.7,0.6c-0.3,0.4-0.6,1-1,1.7c-0.4,0.7-0.6,1.2-0.7,1.4c-0.1,0.2-0.2,0.4-0.2,0.5c-0.1,0.1-0.1,0.2-0.2,0.4
					c-0.3,0.5-0.7,0.5-1.2,0c-0.3-0.3-0.4-0.5-0.4-0.7c0,0,0.1-0.4,0.2-1.1c0.2-0.7,0.2-1.4,0.2-2.3c0-0.4,0-0.5-0.1-0.5
					c-0.1,0-0.2,0.1-0.4,0.3c-0.1,0.2-0.4,0.6-0.7,1.2s-0.6,1.1-0.8,1.5c-0.8,1.3-1.4,2-1.8,2c-0.2,0-0.5-0.2-0.8-0.5
					c-0.3-0.3-0.5-0.6-0.5-0.8c0-0.2,0.1-0.6,0.3-1.3s0.3-1.4,0.4-2.2c0.1-0.8,0.1-1.4,0.2-1.8c0.1-0.4,0.2-0.7,0.3-0.7
					c0.4,0,0.7,0.1,1,0.4c0.3,0.3,0.5,0.6,0.5,0.8c0,0.6-0.2,1.5-0.6,2.9c0.7-1.6,1.2-2.6,1.7-3.2c0.5-0.6,0.9-0.9,1.4-0.9
					c0.2,0,0.5,0.2,0.9,0.7c0.4,0.4,0.5,0.9,0.5,1.3c0,0.4,0,0.7,0,1c0.3-0.7,0.7-1.4,1.3-2S53.7,120.2,54.2,120.2z"/>
				<path d="M57.8,120.2c0.3,0,0.6,0.2,0.9,0.6c0.3,0.4,0.4,0.7,0.4,1.1c0,0.2-0.2,0.8-0.5,1.9s-0.6,2.1-1,3.1
					c-0.1,0.4-0.3,0.5-0.7,0.5c-0.2,0-0.4-0.1-0.5-0.2c-0.2-0.2-0.2-0.4-0.2-0.6s0.1-0.9,0.4-1.8c0.2-1,0.4-1.8,0.5-2.5
					c0.1-0.7,0.2-1.2,0.4-1.5S57.7,120.2,57.8,120.2z M57.6,118.5c0-0.2,0.1-0.5,0.3-0.7s0.4-0.4,0.6-0.4s0.5,0.3,0.7,0.8
					c0.3,0.5,0.4,0.9,0.4,1.1s-0.1,0.4-0.2,0.5c-0.1,0.1-0.3,0.2-0.5,0.2c-0.3,0-0.6-0.2-0.9-0.5S57.6,118.7,57.6,118.5z"/>
				<path d="M59.9,125.2c0-0.7,0.2-1.4,0.6-2.2c0.4-0.8,0.9-1.5,1.6-2c0.7-0.6,1.3-0.8,2-0.8c0.3,0,0.7,0.2,1,0.6
					c0.3,0.4,0.5,0.8,0.5,1.1c0,0.2-0.1,0.4-0.3,0.4c-0.1,0-0.3-0.1-0.5-0.2c-0.2-0.1-0.4-0.2-0.6-0.2c-0.2,0-0.5,0.2-0.9,0.5
					c-0.4,0.3-0.7,0.8-1,1.3s-0.4,0.9-0.4,1.2c0,0.3,0.1,0.5,0.2,0.5c0.1,0.1,0.4,0.1,0.8,0.1c0.4,0,0.8,0,1.1-0.1
					c0.3-0.1,0.6-0.2,0.8-0.2c0.2-0.1,0.3-0.1,0.4-0.1c0.3,0,0.4,0.1,0.4,0.3c0,0.4-0.4,0.8-1.1,1.3c-0.7,0.4-1.4,0.6-2.2,0.6
					c-0.5,0-1-0.3-1.6-0.8C60.2,126.2,59.9,125.7,59.9,125.2z"/>
				<path d="M72.7,123.5c0.2,0.1,0.3,0.3,0.3,0.4c0,0.1-0.1,0.4-0.2,0.8c-0.1,0.4-0.2,0.7-0.2,0.9c0,0.2-0.1,0.4-0.1,0.5
					s0,0.2,0,0.3c0,0.1,0,0.2,0,0.3c0,0.1,0,0.2-0.1,0.2s0,0.1-0.1,0.2s0,0.1-0.1,0.2c0,0-0.1,0.1-0.1,0.1c-0.1,0.1-0.1,0.1-0.3,0.1
					s-0.3-0.1-0.5-0.4c-0.2-0.3-0.3-0.6-0.4-1c-0.9,0.9-1.6,1.3-2.2,1.3c-0.4,0-0.8-0.2-1.3-0.7s-0.7-0.9-0.7-1.3s0.2-1.1,0.6-1.9
					s0.9-1.6,1.6-2.3s1.4-1,2.1-1c0.4,0,0.8,0.2,1.4,0.7c0.5,0.5,0.8,0.9,0.8,1.3S73,123,72.7,123.5z M68.6,125.7
					c0.4,0,0.9-0.3,1.5-0.8c0.6-0.5,1-1.1,1.2-1.9c0-0.1,0.1-0.2,0.2-0.2c0-0.5-0.1-0.8-0.3-0.8c-0.4,0-0.8,0.2-1.3,0.7
					c-0.5,0.5-0.8,1-1.1,1.6s-0.4,1-0.4,1.2c0,0.1,0,0.1,0,0.1C68.5,125.7,68.5,125.7,68.6,125.7z"/>
				<path d="M84.5,120.6c0.1-0.2,0.2-0.3,0.5-0.3s0.5,0.2,0.8,0.5s0.4,0.7,0.4,1.1c0,0.2-0.1,0.6-0.3,1.1c-0.2,0.5-0.3,0.9-0.4,1.1
					c-0.1,0.2-0.2,0.5-0.3,0.9c-0.1,0.4-0.2,0.7-0.4,1s-0.3,0.7-0.4,1.3c-0.2,0.5-0.3,1-0.5,1.5c-0.3,0.8-0.6,1.5-1.1,1.9
					c-0.4,0.5-1,0.7-1.6,0.7s-1.3-0.2-1.8-0.5c-0.5-0.3-0.8-0.7-0.8-1.1c0-0.2,0.1-0.5,0.3-0.7c0.2-0.3,0.4-0.4,0.5-0.4
					c0.1,0,0.3,0.1,0.5,0.3c0.2,0.2,0.4,0.4,0.7,0.7c0.2,0.2,0.4,0.3,0.6,0.3c0.1,0,0.2-0.1,0.3-0.2c0.1-0.1,0.1-0.2,0.2-0.3
					s0.1-0.2,0.2-0.4s0.1-0.3,0.2-0.4s0.1-0.3,0.2-0.5s0.1-0.4,0.2-0.6c0.2-0.5,0.3-1,0.4-1.3c-0.3,0.4-0.6,0.7-1,1
					c-0.3,0.2-0.6,0.4-0.9,0.4c-0.3,0-0.6-0.2-1-0.6c-0.4-0.4-0.6-0.9-0.6-1.4s0.1-1.2,0.3-2s0.5-1.6,0.8-2.2c0.3-0.7,0.6-1,0.9-1
					c0.3,0,0.6,0.1,0.8,0.4c0.3,0.2,0.4,0.5,0.4,0.7s-0.1,0.6-0.3,1.1c-0.2,0.5-0.5,1.1-0.7,1.7c-0.2,0.6-0.3,1.1-0.3,1.5
					c0,0.1,0,0.1,0.1,0.1c0.1,0,0.4-0.2,0.8-0.7c0.4-0.5,0.8-1.1,1.3-1.9C83.8,122.2,84.2,121.4,84.5,120.6z"/>
				<path d="M95.2,122.9c-0.1,0.5-0.3,1-0.5,1.7c-0.2,0.7-0.3,1-0.3,1.1s0.1,0.1,0.2,0.1c0.2,0,0.5-0.1,1.1-0.3s0.9-0.3,1-0.3
					c0.2,0,0.4,0.2,0.4,0.5s-0.3,0.7-0.9,1.1c-0.6,0.4-1.3,0.7-2,0.7c-0.3,0-0.7-0.2-1.1-0.5c-0.4-0.3-0.6-0.7-0.6-1
					c0-0.3,0.1-0.9,0.4-1.8s0.5-1.5,0.6-1.9c-0.4,0.1-0.6,0.2-0.8,0.2c-0.2,0-0.4-0.1-0.6-0.4c-0.2-0.3-0.3-0.5-0.3-0.7
					c0-0.3,0.7-0.6,2.2-0.8c0.2-0.9,0.3-1.6,0.3-2.3c0-0.3,0.1-0.4,0.4-0.4c0.2,0,0.6,0.1,0.9,0.4s0.6,0.6,0.6,0.9
					c0,0.3-0.1,0.7-0.2,1.2c0.4,0,0.8,0,1,0c0.7,0,1.1,0.2,1.1,0.5c0,0.2-0.2,0.4-0.6,0.5c-0.4,0.1-1,0.3-1.9,0.5
					C95.5,122.1,95.4,122.5,95.2,122.9z"/>
				<path d="M99.8,120.2c0.3,0,0.6,0.2,0.9,0.6c0.3,0.4,0.4,0.7,0.4,1.1c0,0.2-0.2,0.8-0.5,1.9s-0.6,2.1-1,3.1
					c-0.1,0.4-0.3,0.5-0.7,0.5c-0.2,0-0.4-0.1-0.5-0.2c-0.2-0.2-0.2-0.4-0.2-0.6s0.1-0.9,0.4-1.8c0.2-1,0.4-1.8,0.5-2.5
					c0.1-0.7,0.2-1.2,0.4-1.5S99.7,120.2,99.8,120.2z M99.6,118.5c0-0.2,0.1-0.5,0.3-0.7s0.4-0.4,0.6-0.4s0.5,0.3,0.7,0.8
					c0.3,0.5,0.4,0.9,0.4,1.1s-0.1,0.4-0.2,0.5c-0.1,0.1-0.3,0.2-0.5,0.2c-0.3,0-0.6-0.2-0.9-0.5S99.6,118.7,99.6,118.5z"/>
				<path d="M107.2,124.1c-0.6,0.4-1.3,0.5-1.9,0.5s-1.2,0-1.6-0.1c-0.1,0.3-0.1,0.5-0.1,0.8s0,0.4,0.1,0.5s0.3,0.2,0.6,0.2
					c0.7,0,1.3-0.1,1.8-0.2c0.5-0.1,0.8-0.2,0.8-0.2c0.4,0,0.6,0.1,0.6,0.4c0,0.4-0.3,0.7-0.9,1c-0.6,0.3-1.3,0.5-2.1,0.5
					s-1.4-0.2-1.9-0.7c-0.5-0.5-0.7-1.1-0.7-1.8s0.2-1.4,0.6-2.1c0.4-0.7,0.9-1.4,1.5-1.9c0.6-0.5,1.2-0.7,1.8-0.7
					c0.6,0,1.1,0.3,1.6,0.9c0.5,0.6,0.8,1.2,0.8,1.7C108.2,123.3,107.9,123.7,107.2,124.1z M106.2,122.2c-0.2-0.2-0.4-0.3-0.6-0.3
					s-0.4,0.1-0.7,0.4c-0.3,0.2-0.5,0.6-0.8,1c0.1,0,0.2,0,0.4,0c1.3,0,1.9-0.2,1.9-0.7C106.5,122.5,106.4,122.4,106.2,122.2z"/>
				<path d="M113.9,120.2c0.5,0,0.9,0.2,1.3,0.7c0.4,0.4,0.6,0.9,0.6,1.4c0,0.8-0.1,1.6-0.4,2.5c-0.3,0.9-0.5,1.5-0.8,2
					s-0.6,0.7-0.9,0.7c-0.3,0-0.5-0.2-0.5-0.7c0-0.3,0.2-1,0.5-2c0.2-0.8,0.3-1.4,0.3-1.8s0-0.5-0.1-0.5c-0.1,0-0.2,0.1-0.4,0.2
					c-0.1,0.1-0.2,0.2-0.3,0.3c-0.1,0.1-0.2,0.2-0.3,0.4c-0.1,0.1-0.2,0.3-0.3,0.4c-0.1,0.1-0.2,0.3-0.3,0.4
					c-0.1,0.2-0.2,0.3-0.3,0.4c-0.1,0.1-0.1,0.3-0.3,0.5c-0.9,1.6-1.5,2.4-2,2.4c-0.2,0-0.4-0.2-0.7-0.5s-0.4-0.6-0.4-0.7
					c0-0.1,0.1-0.3,0.2-0.7s0.2-0.6,0.3-0.8c0.1-0.2,0.1-0.4,0.2-0.6s0.1-0.4,0.1-0.7s0-0.4,0.1-0.6s0-0.3,0-0.6
					c0.1-1.2,0.2-1.9,0.2-2c0.1-0.1,0.1-0.2,0.2-0.2c0.4,0,0.7,0.1,1,0.4c0.3,0.3,0.5,0.6,0.5,0.8c0,0.6-0.1,1.4-0.4,2.5
					c0.6-1.1,1.2-1.9,1.7-2.6S113.5,120.2,113.9,120.2z"/>
				<path d="M121.8,124.1c-0.6,0.4-1.3,0.5-1.9,0.5s-1.2,0-1.6-0.1c-0.1,0.3-0.1,0.5-0.1,0.8s0,0.4,0.1,0.5s0.3,0.2,0.6,0.2
					c0.7,0,1.3-0.1,1.8-0.2c0.5-0.1,0.8-0.2,0.8-0.2c0.4,0,0.6,0.1,0.6,0.4c0,0.4-0.3,0.7-0.9,1c-0.6,0.3-1.3,0.5-2.1,0.5
					s-1.4-0.2-1.9-0.7c-0.5-0.5-0.7-1.1-0.7-1.8s0.2-1.4,0.6-2.1c0.4-0.7,0.9-1.4,1.5-1.9c0.6-0.5,1.2-0.7,1.8-0.7
					c0.6,0,1.1,0.3,1.6,0.9c0.5,0.6,0.8,1.2,0.8,1.7C122.7,123.3,122.4,123.7,121.8,124.1z M120.8,122.2c-0.2-0.2-0.4-0.3-0.6-0.3
					s-0.4,0.1-0.7,0.4c-0.3,0.2-0.5,0.6-0.8,1c0.1,0,0.2,0,0.4,0c1.3,0,1.9-0.2,1.9-0.7C121.1,122.5,121,122.4,120.8,122.2z"/>
				<path d="M134,124.1c-0.6,0.4-1.3,0.5-1.9,0.5s-1.2,0-1.6-0.1c-0.1,0.3-0.1,0.5-0.1,0.8s0,0.4,0.1,0.5s0.3,0.2,0.6,0.2
					c0.7,0,1.3-0.1,1.8-0.2c0.5-0.1,0.8-0.2,0.8-0.2c0.4,0,0.6,0.1,0.6,0.4c0,0.4-0.3,0.7-0.9,1c-0.6,0.3-1.3,0.5-2.1,0.5
					s-1.4-0.2-1.9-0.7c-0.5-0.5-0.7-1.1-0.7-1.8s0.2-1.4,0.6-2.1c0.4-0.7,0.9-1.4,1.5-1.9c0.6-0.5,1.2-0.7,1.8-0.7
					c0.6,0,1.1,0.3,1.6,0.9c0.5,0.6,0.8,1.2,0.8,1.7C135,123.3,134.7,123.7,134,124.1z M133.1,122.2c-0.2-0.2-0.4-0.3-0.6-0.3
					s-0.4,0.1-0.7,0.4c-0.3,0.2-0.5,0.6-0.8,1c0.1,0,0.2,0,0.4,0c1.3,0,1.9-0.2,1.9-0.7C133.3,122.5,133.2,122.4,133.1,122.2z"/>
				<path d="M138.4,116.9c0.4,0.4,0.5,0.8,0.5,1.2c0,0.4-0.1,1-0.2,2c-0.1,1-0.2,1.7-0.4,2.3c-0.8,3.4-1.3,5.1-1.6,5.1
					c-0.2,0-0.5-0.2-0.8-0.5s-0.5-0.6-0.5-0.8c0,0,0.1-0.5,0.4-1.5c0.3-1,0.5-2.2,0.8-3.7s0.4-2.9,0.4-4.3c0-0.3,0.1-0.4,0.4-0.4
					C137.7,116.3,138,116.5,138.4,116.9z"/>
				<path d="M29.1,135.8c-0.2,0-0.4,0.3-0.6,0.8c-0.2,0.5-0.4,1.2-0.6,2.1c0.9-0.1,1.7-0.1,2.5-0.1c0.7,0,1.1,0.3,1.1,0.8
					c0,0.2-0.1,0.5-0.2,0.9c-0.1,0.4-0.3,1-0.6,1.8c-0.3,0.8-0.5,1.6-0.8,2.4c-0.1,0.2-0.1,0.4-0.3,0.4s-0.3,0.1-0.5,0.1
					s-0.4-0.1-0.5-0.3c-0.1-0.2-0.2-0.4-0.2-0.7s0.1-0.9,0.4-2c0.3-1.1,0.4-1.7,0.5-1.9c-0.2,0-0.8,0.1-1.8,0.3
					c-0.5,2-0.8,3.3-1,3.8s-0.4,0.8-0.6,0.8c-0.2,0-0.4-0.1-0.6-0.4c-0.2-0.3-0.4-0.5-0.4-0.7c0-0.2,0-0.3,0.1-0.5
					c0.3-0.8,0.5-1.7,0.7-2.6c-0.3,0.1-0.6,0.1-0.8,0.1s-0.4-0.1-0.6-0.3c-0.2-0.2-0.3-0.5-0.3-0.7c0-0.2,0.2-0.3,0.5-0.5
					c0.3-0.1,0.9-0.3,1.6-0.4c0.3-1.8,0.7-3,1.1-3.7c0.5-0.7,1.1-1.1,2-1.1c0.5,0,1.1,0.2,1.7,0.6s0.9,0.9,0.9,1.5
					c0,0.4-0.1,0.7-0.2,0.9c-0.1,0.2-0.3,0.3-0.5,0.3c-0.2,0-0.4-0.1-0.6-0.3c-0.2-0.2-0.4-0.4-0.5-0.6
					C29.6,136.1,29.3,135.8,29.1,135.8z"/>
				<path d="M36.9,137.8c0.5,0,0.9,0.2,1.3,0.7c0.4,0.4,0.6,0.9,0.6,1.4c0,0.8-0.1,1.6-0.4,2.5c-0.3,0.9-0.5,1.5-0.8,2
					s-0.6,0.7-0.9,0.7c-0.3,0-0.5-0.2-0.5-0.7c0-0.3,0.2-1,0.5-2c0.2-0.8,0.3-1.4,0.3-1.8s0-0.5-0.1-0.5c-0.1,0-0.2,0.1-0.4,0.2
					c-0.1,0.1-0.2,0.2-0.3,0.3c-0.1,0.1-0.2,0.2-0.3,0.4c-0.1,0.1-0.2,0.3-0.3,0.4c-0.1,0.1-0.2,0.3-0.3,0.4
					c-0.1,0.2-0.2,0.3-0.3,0.4c-0.1,0.1-0.1,0.3-0.3,0.5c-0.9,1.6-1.5,2.4-2,2.4c-0.2,0-0.4-0.2-0.7-0.5c-0.3-0.3-0.4-0.6-0.4-0.7
					c0-0.1,0.1-0.3,0.2-0.7s0.2-0.6,0.3-0.8c0.1-0.2,0.1-0.4,0.2-0.6s0.1-0.4,0.1-0.7s0-0.4,0.1-0.6s0-0.3,0-0.6
					c0.1-1.2,0.2-1.9,0.2-2c0.1-0.1,0.1-0.2,0.2-0.2c0.4,0,0.7,0.1,1,0.4c0.3,0.3,0.5,0.6,0.5,0.8c0,0.6-0.1,1.4-0.4,2.5
					c0.6-1.1,1.2-1.9,1.7-2.6S36.5,137.8,36.9,137.8z"/>
				<path d="M50.8,133.9c0.2,0,0.5,0.2,0.9,0.6c0.4,0.4,0.5,0.8,0.5,1.1c0,0.2-0.2,0.9-0.5,2.2c-0.3,1.3-0.5,2.1-0.6,2.4
					c-0.7,3.2-1.3,4.8-1.6,4.8c-0.2,0-0.4-0.1-0.7-0.3s-0.4-0.5-0.4-0.7c0,0,0-0.1,0-0.1c-0.9,0.8-1.6,1.1-2,1.1
					c-0.4,0-0.8-0.2-1.2-0.7c-0.4-0.4-0.6-0.8-0.6-1.2s0-0.7,0.1-1.2c0.1-0.4,0.3-0.9,0.5-1.4c0.2-0.5,0.4-0.9,0.7-1.4
					c0.3-0.4,0.6-0.8,1-1c0.4-0.3,0.8-0.4,1.2-0.4c0.6,0,1.1,0.3,1.5,0.9c0.5-2.2,0.7-3.7,0.7-4.4C50.4,134,50.6,133.9,50.8,133.9z
					 M46.7,143.3c0.2,0,0.6-0.2,1.2-0.6s1-0.9,1.2-1.5c0-0.1,0-0.2,0-0.5c0-0.3-0.1-0.5-0.3-0.7c-0.2-0.2-0.3-0.3-0.5-0.3
					c-0.3,0-0.5,0.1-0.8,0.4s-0.5,0.7-0.6,1.1c-0.3,0.9-0.5,1.5-0.5,2c0,0.1,0,0.1,0,0.1C46.6,143.2,46.6,143.3,46.7,143.3z"/>
				<path d="M57.7,141.7c-0.6,0.4-1.3,0.5-1.9,0.5s-1.2,0-1.6-0.1c-0.1,0.3-0.1,0.5-0.1,0.8s0,0.4,0.1,0.5s0.3,0.2,0.6,0.2
					c0.7,0,1.3-0.1,1.8-0.2c0.5-0.1,0.8-0.2,0.8-0.2c0.4,0,0.6,0.1,0.6,0.4c0,0.4-0.3,0.7-0.9,1c-0.6,0.3-1.3,0.5-2.1,0.5
					s-1.4-0.2-1.9-0.7c-0.5-0.5-0.7-1.1-0.7-1.8s0.2-1.4,0.6-2.1c0.4-0.7,0.9-1.4,1.5-1.9c0.6-0.5,1.2-0.7,1.8-0.7
					c0.6,0,1.1,0.3,1.6,0.9c0.5,0.6,0.8,1.2,0.8,1.7C58.7,140.9,58.4,141.3,57.7,141.7z M56.8,139.8c-0.2-0.2-0.4-0.3-0.6-0.3
					s-0.4,0.1-0.7,0.4c-0.3,0.2-0.5,0.6-0.8,1c0.1,0,0.2,0,0.4,0c1.3,0,1.9-0.2,1.9-0.7C57,140.1,56.9,140,56.8,139.8z"/>
				<path d="M64.6,142.8c0-0.7,0.2-1.4,0.6-2.2c0.4-0.8,0.9-1.5,1.6-2c0.7-0.6,1.3-0.8,2-0.8c0.3,0,0.7,0.2,1,0.6
					c0.3,0.4,0.5,0.8,0.5,1.1c0,0.2-0.1,0.4-0.3,0.4c-0.1,0-0.3-0.1-0.5-0.2c-0.2-0.1-0.4-0.2-0.6-0.2c-0.2,0-0.5,0.2-0.9,0.5
					c-0.4,0.3-0.7,0.8-1,1.3s-0.4,0.9-0.4,1.2c0,0.3,0.1,0.5,0.2,0.5c0.1,0.1,0.4,0.1,0.8,0.1c0.4,0,0.8,0,1.1-0.1
					c0.3-0.1,0.6-0.2,0.8-0.2c0.2-0.1,0.3-0.1,0.4-0.1c0.3,0,0.4,0.1,0.4,0.3c0,0.4-0.4,0.8-1.1,1.3s-1.4,0.6-2.2,0.6
					c-0.5,0-1-0.3-1.6-0.8C64.9,143.8,64.6,143.3,64.6,142.8z"/>
				<path d="M72.2,140.2l-0.1-1.6c0-0.5,0.2-0.8,0.5-0.8c0.2,0,0.4,0.1,0.6,0.2c0.2,0.1,0.3,0.4,0.4,0.7c0.3-0.3,0.7-0.5,1-0.7
					s0.7-0.3,1-0.3c0.7,0,1,0.2,1,0.5c0,0.2,0,0.3-0.1,0.4c-0.1,0.1-0.1,0.1-0.1,0.2c0,0-0.1,0.1-0.2,0.1c-0.1,0.1-0.1,0.1-0.2,0.1
					c-0.2,0.1-0.4,0.2-0.5,0.3c-0.4,0.3-0.8,0.6-1.1,0.9c-0.3,0.4-0.5,0.9-0.7,1.5c-0.3,1.1-0.5,1.9-0.7,2.4
					c-0.2,0.5-0.5,0.8-0.8,0.8c-0.3,0-0.5-0.1-0.7-0.4c-0.1-0.3-0.2-0.5-0.2-0.8c0-0.2,0.1-0.6,0.3-1.1c0.2-0.5,0.3-0.9,0.4-1.3
					C72.2,141.1,72.2,140.6,72.2,140.2z"/>
				<path d="M81.9,141.7c-0.6,0.4-1.3,0.5-1.9,0.5s-1.2,0-1.6-0.1c-0.1,0.3-0.1,0.5-0.1,0.8s0,0.4,0.1,0.5s0.3,0.2,0.6,0.2
					c0.7,0,1.3-0.1,1.8-0.2c0.5-0.1,0.8-0.2,0.8-0.2c0.4,0,0.6,0.1,0.6,0.4c0,0.4-0.3,0.7-0.9,1c-0.6,0.3-1.3,0.5-2.1,0.5
					s-1.4-0.2-1.9-0.7c-0.5-0.5-0.7-1.1-0.7-1.8s0.2-1.4,0.6-2.1c0.4-0.7,0.9-1.4,1.5-1.9c0.6-0.5,1.2-0.7,1.8-0.7
					c0.6,0,1.1,0.3,1.6,0.9c0.5,0.6,0.8,1.2,0.8,1.7C82.8,140.9,82.5,141.3,81.9,141.7z M80.9,139.8c-0.2-0.2-0.4-0.3-0.6-0.3
					s-0.4,0.1-0.7,0.4c-0.3,0.2-0.5,0.6-0.8,1c0.1,0,0.2,0,0.4,0c1.3,0,1.9-0.2,1.9-0.7C81.2,140.1,81.1,140,80.9,139.8z"/>
				<path d="M83.4,142.8c0-0.7,0.2-1.4,0.6-2.2c0.4-0.8,0.9-1.5,1.6-2c0.7-0.6,1.3-0.8,2-0.8c0.3,0,0.7,0.2,1,0.6
					c0.3,0.4,0.5,0.8,0.5,1.1c0,0.2-0.1,0.4-0.3,0.4c-0.1,0-0.3-0.1-0.5-0.2c-0.2-0.1-0.4-0.2-0.6-0.2c-0.2,0-0.5,0.2-0.9,0.5
					c-0.4,0.3-0.7,0.8-1,1.3s-0.4,0.9-0.4,1.2c0,0.3,0.1,0.5,0.2,0.5c0.1,0.1,0.4,0.1,0.8,0.1c0.4,0,0.8,0,1.1-0.1
					c0.3-0.1,0.6-0.2,0.8-0.2c0.2-0.1,0.3-0.1,0.4-0.1c0.3,0,0.4,0.1,0.4,0.3c0,0.4-0.4,0.8-1.1,1.3s-1.4,0.6-2.2,0.6
					c-0.5,0-1-0.3-1.6-0.8C83.7,143.8,83.4,143.3,83.4,142.8z"/>
				<path d="M95.6,141.7c-0.6,0.4-1.3,0.5-1.9,0.5s-1.2,0-1.6-0.1c-0.1,0.3-0.1,0.5-0.1,0.8s0,0.4,0.1,0.5s0.3,0.2,0.6,0.2
					c0.7,0,1.3-0.1,1.8-0.2c0.5-0.1,0.8-0.2,0.8-0.2c0.4,0,0.6,0.1,0.6,0.4c0,0.4-0.3,0.7-0.9,1c-0.6,0.3-1.3,0.5-2.1,0.5
					s-1.4-0.2-1.9-0.7c-0.5-0.5-0.7-1.1-0.7-1.8s0.2-1.4,0.6-2.1c0.4-0.7,0.9-1.4,1.5-1.9c0.6-0.5,1.2-0.7,1.8-0.7
					c0.6,0,1.1,0.3,1.6,0.9c0.5,0.6,0.8,1.2,0.8,1.7C96.5,140.9,96.2,141.3,95.6,141.7z M94.6,139.8c-0.2-0.2-0.4-0.3-0.6-0.3
					s-0.4,0.1-0.7,0.4c-0.3,0.2-0.5,0.6-0.8,1c0.1,0,0.2,0,0.4,0c1.3,0,1.9-0.2,1.9-0.7C94.9,140.1,94.8,140,94.6,139.8z"/>
				<path d="M97.8,140.2l-0.1-1.6c0-0.5,0.2-0.8,0.5-0.8c0.2,0,0.4,0.1,0.6,0.2c0.2,0.1,0.3,0.4,0.4,0.7c0.3-0.3,0.7-0.5,1-0.7
					s0.7-0.3,1-0.3c0.7,0,1,0.2,1,0.5c0,0.2,0,0.3-0.1,0.4c-0.1,0.1-0.1,0.1-0.1,0.2c0,0-0.1,0.1-0.2,0.1c-0.1,0.1-0.1,0.1-0.2,0.1
					c-0.2,0.1-0.4,0.2-0.5,0.3c-0.4,0.3-0.8,0.6-1.1,0.9c-0.3,0.4-0.5,0.9-0.7,1.5c-0.3,1.1-0.5,1.9-0.7,2.4
					c-0.2,0.5-0.5,0.8-0.8,0.8c-0.3,0-0.5-0.1-0.7-0.4c-0.1-0.3-0.2-0.5-0.2-0.8c0-0.2,0.1-0.6,0.3-1.1c0.2-0.5,0.3-0.9,0.4-1.3
					C97.8,141.1,97.8,140.6,97.8,140.2z"/>
				<path d="M112,137.8c0.4,0,0.7,0.2,1.1,0.6c0.3,0.4,0.5,0.8,0.5,1.1c0,0.2-0.1,0.3-0.3,0.3c-0.1,0-0.3,0-0.5-0.1
					c-0.2-0.1-0.4-0.1-0.7-0.1c-0.2,0-0.5,0.1-1,0.2c-0.4,0.1-0.6,0.3-0.6,0.6c0,0.1,0.1,0.2,0.4,0.4c0.3,0.2,0.5,0.4,0.8,0.5
					c0.3,0.2,0.6,0.4,0.8,0.8s0.4,0.7,0.4,1.1s-0.3,0.8-0.8,1.2c-0.6,0.4-1.2,0.6-2,0.6s-1.4-0.2-2-0.5c-0.5-0.3-0.8-0.7-0.8-1.1
					s0.1-0.5,0.4-0.5c0.1,0,0.3,0,0.4,0.1c0.5,0.3,1,0.4,1.7,0.4s1-0.1,1-0.3c0-0.2-0.1-0.4-0.4-0.6c-0.3-0.2-0.6-0.4-0.9-0.6
					c-0.3-0.2-0.6-0.4-0.9-0.7c-0.3-0.3-0.4-0.6-0.4-0.8c0-0.5,0.5-1.1,1.4-1.6C110.7,138.1,111.4,137.8,112,137.8z"/>
				<path d="M115.6,137.8c0.3,0,0.6,0.2,0.9,0.6c0.3,0.4,0.4,0.7,0.4,1.1c0,0.2-0.2,0.8-0.5,1.9s-0.6,2.1-1,3.1
					c-0.1,0.4-0.3,0.5-0.7,0.5c-0.2,0-0.4-0.1-0.5-0.2c-0.2-0.2-0.2-0.4-0.2-0.6s0.1-0.9,0.4-1.8c0.2-1,0.4-1.8,0.5-2.5
					c0.1-0.7,0.2-1.2,0.4-1.5S115.5,137.8,115.6,137.8z M115.4,136.1c0-0.2,0.1-0.5,0.3-0.7s0.4-0.4,0.6-0.4s0.5,0.3,0.7,0.8
					c0.3,0.5,0.4,0.9,0.4,1.1s-0.1,0.4-0.2,0.5c-0.1,0.1-0.3,0.2-0.5,0.2c-0.3,0-0.6-0.2-0.9-0.5S115.4,136.3,115.4,136.1z"/>
				<path d="M122.8,137.8c0.5,0,0.9,0.2,1.3,0.7c0.4,0.4,0.6,0.9,0.6,1.4c0,0.8-0.1,1.6-0.4,2.5c-0.3,0.9-0.5,1.5-0.8,2
					s-0.6,0.7-0.9,0.7c-0.3,0-0.5-0.2-0.5-0.7c0-0.3,0.2-1,0.5-2c0.2-0.8,0.3-1.4,0.3-1.8s0-0.5-0.1-0.5c-0.1,0-0.2,0.1-0.4,0.2
					c-0.1,0.1-0.2,0.2-0.3,0.3c-0.1,0.1-0.2,0.2-0.3,0.4c-0.1,0.1-0.2,0.3-0.3,0.4c-0.1,0.1-0.2,0.3-0.3,0.4
					c-0.1,0.2-0.2,0.3-0.3,0.4c-0.1,0.1-0.1,0.3-0.3,0.5c-0.9,1.6-1.5,2.4-2,2.4c-0.2,0-0.4-0.2-0.7-0.5s-0.4-0.6-0.4-0.7
					c0-0.1,0.1-0.3,0.2-0.7s0.2-0.6,0.3-0.8c0.1-0.2,0.1-0.4,0.2-0.6s0.1-0.4,0.1-0.7s0-0.4,0.1-0.6s0-0.3,0-0.6
					c0.1-1.2,0.2-1.9,0.2-2c0.1-0.1,0.1-0.2,0.2-0.2c0.4,0,0.7,0.1,1,0.4c0.3,0.3,0.5,0.6,0.5,0.8c0,0.6-0.1,1.4-0.4,2.5
					c0.6-1.1,1.2-1.9,1.7-2.6S122.5,137.8,122.8,137.8z"/>
				<path d="M39.2,152.1c0.4,0.4,0.5,0.8,0.5,1.2c0,0.4-0.1,1-0.2,2c-0.1,1-0.2,1.7-0.4,2.3c-0.8,3.4-1.3,5.1-1.6,5.1
					c-0.2,0-0.5-0.2-0.8-0.5s-0.5-0.6-0.5-0.8c0,0,0.1-0.5,0.4-1.5c0.3-1,0.5-2.2,0.8-3.7s0.4-2.9,0.4-4.3c0-0.3,0.1-0.4,0.4-0.4
					C38.5,151.5,38.8,151.7,39.2,152.1z"/>
				<path d="M41.6,155.4c0.3,0,0.6,0.2,0.9,0.6c0.3,0.4,0.4,0.7,0.4,1.1c0,0.2-0.2,0.8-0.5,1.9s-0.6,2.1-1,3.1
					c-0.1,0.4-0.3,0.5-0.7,0.5c-0.2,0-0.4-0.1-0.5-0.2c-0.2-0.2-0.2-0.4-0.2-0.6s0.1-0.9,0.4-1.8c0.2-1,0.4-1.8,0.5-2.5
					c0.1-0.7,0.2-1.2,0.4-1.5S41.5,155.4,41.6,155.4z M41.4,153.7c0-0.2,0.1-0.5,0.3-0.7s0.4-0.4,0.6-0.4s0.5,0.3,0.7,0.8
					c0.3,0.5,0.4,0.9,0.4,1.1s-0.1,0.4-0.2,0.5c-0.1,0.1-0.3,0.2-0.5,0.2c-0.3,0-0.6-0.2-0.9-0.5S41.4,153.9,41.4,153.7z"/>
				<path d="M53.1,155.4c0.4,0,0.7,0.2,0.9,0.7c0.2,0.5,0.4,0.9,0.4,1.3s-0.1,1-0.2,1.8c-0.2,0.8-0.4,1.5-0.7,2.3
					c-0.3,0.7-0.7,1.1-1.1,1.1c-0.3,0-0.5-0.2-0.5-0.6s0.1-1.1,0.4-2.1c0.2-1,0.4-1.6,0.4-1.9c0-0.3,0-0.4-0.1-0.4
					c-0.2,0-0.4,0.2-0.7,0.6c-0.3,0.4-0.6,1-1,1.7c-0.4,0.7-0.6,1.2-0.7,1.4c-0.1,0.2-0.2,0.4-0.2,0.5c-0.1,0.1-0.1,0.2-0.2,0.4
					c-0.3,0.5-0.7,0.5-1.2,0c-0.3-0.3-0.4-0.5-0.4-0.7c0,0,0.1-0.4,0.2-1.1c0.2-0.7,0.2-1.4,0.2-2.3c0-0.4,0-0.5-0.1-0.5
					c-0.1,0-0.2,0.1-0.4,0.3c-0.1,0.2-0.4,0.6-0.7,1.2s-0.6,1.1-0.8,1.5c-0.8,1.3-1.4,2-1.8,2c-0.2,0-0.5-0.2-0.8-0.5
					c-0.3-0.3-0.5-0.6-0.5-0.8c0-0.2,0.1-0.6,0.3-1.3s0.3-1.4,0.4-2.2c0.1-0.8,0.1-1.4,0.2-1.8c0.1-0.4,0.2-0.7,0.3-0.7
					c0.4,0,0.7,0.1,1,0.4c0.3,0.3,0.5,0.6,0.5,0.8c0,0.6-0.2,1.5-0.6,2.9c0.7-1.6,1.2-2.6,1.7-3.2c0.5-0.6,0.9-0.9,1.4-0.9
					c0.2,0,0.5,0.2,0.9,0.7c0.4,0.4,0.5,0.9,0.5,1.3c0,0.4,0,0.7,0,1c0.3-0.7,0.7-1.4,1.3-2S52.6,155.4,53.1,155.4z"/>
				<path d="M56.7,155.4c0.3,0,0.6,0.2,0.9,0.6c0.3,0.4,0.4,0.7,0.4,1.1c0,0.2-0.2,0.8-0.5,1.9s-0.6,2.1-1,3.1
					c-0.1,0.4-0.3,0.5-0.7,0.5c-0.2,0-0.4-0.1-0.5-0.2c-0.2-0.2-0.2-0.4-0.2-0.6s0.1-0.9,0.4-1.8c0.2-1,0.4-1.8,0.5-2.5
					c0.1-0.7,0.2-1.2,0.4-1.5S56.6,155.4,56.7,155.4z M56.5,153.7c0-0.2,0.1-0.5,0.3-0.7s0.4-0.4,0.6-0.4s0.5,0.3,0.7,0.8
					c0.3,0.5,0.4,0.9,0.4,1.1s-0.1,0.4-0.2,0.5c-0.1,0.1-0.3,0.2-0.5,0.2c-0.3,0-0.6-0.2-0.9-0.5S56.5,153.9,56.5,153.7z"/>
				<path d="M62.1,158.1c-0.1,0.5-0.3,1-0.5,1.7c-0.2,0.7-0.3,1-0.3,1.1s0.1,0.1,0.2,0.1c0.2,0,0.5-0.1,1.1-0.3s0.9-0.3,1-0.3
					c0.2,0,0.4,0.2,0.4,0.5s-0.3,0.7-0.9,1.1c-0.6,0.4-1.3,0.7-2,0.7c-0.3,0-0.7-0.2-1.1-0.5c-0.4-0.3-0.6-0.7-0.6-1
					c0-0.3,0.1-0.9,0.4-1.8s0.5-1.5,0.6-1.9c-0.4,0.1-0.6,0.2-0.8,0.2c-0.2,0-0.4-0.1-0.6-0.4c-0.2-0.3-0.3-0.5-0.3-0.7
					c0-0.3,0.7-0.6,2.2-0.8c0.2-0.9,0.3-1.6,0.3-2.3c0-0.3,0.1-0.4,0.4-0.4c0.2,0,0.6,0.1,0.9,0.4s0.6,0.6,0.6,0.9
					c0,0.3-0.1,0.7-0.2,1.2c0.4,0,0.8,0,1,0c0.7,0,1.1,0.2,1.1,0.5c0,0.2-0.2,0.4-0.6,0.5c-0.4,0.1-1,0.3-1.9,0.5
					C62.3,157.3,62.2,157.7,62.1,158.1z"/>
				<path d="M71.1,158.7c0.2,0.1,0.3,0.3,0.3,0.4c0,0.1-0.1,0.4-0.2,0.8c-0.1,0.4-0.2,0.7-0.2,0.9c0,0.2-0.1,0.4-0.1,0.5
					s0,0.2,0,0.3c0,0.1,0,0.2,0,0.3c0,0.1,0,0.2-0.1,0.2s0,0.1-0.1,0.2s0,0.1-0.1,0.2c0,0-0.1,0.1-0.1,0.1c-0.1,0.1-0.1,0.1-0.3,0.1
					s-0.3-0.1-0.5-0.4c-0.2-0.3-0.3-0.6-0.4-1c-0.9,0.9-1.6,1.3-2.2,1.3c-0.4,0-0.8-0.2-1.3-0.7s-0.7-0.9-0.7-1.3s0.2-1.1,0.6-1.9
					s0.9-1.6,1.6-2.3s1.4-1,2.1-1c0.4,0,0.8,0.2,1.4,0.7c0.5,0.5,0.8,0.9,0.8,1.3S71.3,158.2,71.1,158.7z M67,160.9
					c0.4,0,0.9-0.3,1.5-0.8c0.6-0.5,1-1.1,1.2-1.9c0-0.1,0.1-0.2,0.2-0.2c0-0.5-0.1-0.8-0.3-0.8c-0.4,0-0.8,0.2-1.3,0.7
					c-0.5,0.5-0.8,1-1.1,1.6s-0.4,1-0.4,1.2c0,0.1,0,0.1,0,0.1C66.8,160.9,66.9,160.9,67,160.9z"/>
				<path d="M72.2,160.4c0-0.7,0.2-1.4,0.6-2.2c0.4-0.8,0.9-1.5,1.6-2c0.7-0.6,1.3-0.8,2-0.8c0.3,0,0.7,0.2,1,0.6
					c0.3,0.4,0.5,0.8,0.5,1.1c0,0.2-0.1,0.4-0.3,0.4c-0.1,0-0.3-0.1-0.5-0.2c-0.2-0.1-0.4-0.2-0.6-0.2c-0.2,0-0.5,0.2-0.9,0.5
					c-0.4,0.3-0.7,0.8-1,1.3s-0.4,0.9-0.4,1.2c0,0.3,0.1,0.5,0.2,0.5c0.1,0.1,0.4,0.1,0.8,0.1c0.4,0,0.8,0,1.1-0.1
					c0.3-0.1,0.6-0.2,0.8-0.2c0.2-0.1,0.3-0.1,0.4-0.1c0.3,0,0.4,0.1,0.4,0.3c0,0.4-0.4,0.8-1.1,1.3s-1.4,0.6-2.2,0.6
					c-0.5,0-1-0.3-1.6-0.8C72.5,161.4,72.2,160.9,72.2,160.4z"/>
				<path d="M80.7,155.4c0.3,0,0.6,0.2,0.9,0.6c0.3,0.4,0.4,0.7,0.4,1.1c0,0.2-0.2,0.8-0.5,1.9s-0.6,2.1-1,3.1
					c-0.1,0.4-0.3,0.5-0.7,0.5c-0.2,0-0.4-0.1-0.5-0.2c-0.2-0.2-0.2-0.4-0.2-0.6s0.1-0.9,0.4-1.8c0.2-1,0.4-1.8,0.5-2.5
					c0.1-0.7,0.2-1.2,0.4-1.5S80.5,155.4,80.7,155.4z M80.5,153.7c0-0.2,0.1-0.5,0.3-0.7s0.4-0.4,0.6-0.4s0.5,0.3,0.7,0.8
					c0.3,0.5,0.4,0.9,0.4,1.1s-0.1,0.4-0.2,0.5c-0.1,0.1-0.3,0.2-0.5,0.2c-0.3,0-0.6-0.2-0.9-0.5S80.5,153.9,80.5,153.7z"/>
				<path d="M83.8,157c0.7-1,1.4-1.6,2.1-1.6c0.7,0,1.3,0.3,1.8,0.7c0.5,0.5,0.7,1.1,0.7,1.8c0,0.7-0.2,1.4-0.5,2.1
					c-0.3,0.7-0.8,1.3-1.4,1.8c-0.6,0.5-1.3,0.7-1.9,0.7c-0.5,0-1-0.2-1.3-0.7c-0.4-0.5-0.6-1-0.6-1.7C82.7,159.1,83,158,83.8,157z
					 M86,159.8c0.4-0.7,0.6-1.3,0.6-1.9c0-0.6-0.1-1-0.3-1.2c-0.4,0.2-0.8,0.7-1.2,1.5c-0.4,0.7-0.6,1.4-0.6,2s0.1,0.9,0.2,1.1
					C85.2,161,85.7,160.5,86,159.8z"/>
				<path d="M94.3,155.4c0.5,0,0.9,0.2,1.3,0.7c0.4,0.4,0.6,0.9,0.6,1.4c0,0.8-0.1,1.6-0.4,2.5c-0.3,0.9-0.5,1.5-0.8,2
					s-0.6,0.7-0.9,0.7c-0.3,0-0.5-0.2-0.5-0.7c0-0.3,0.2-1,0.5-2c0.2-0.8,0.3-1.4,0.3-1.8s0-0.5-0.1-0.5c-0.1,0-0.2,0.1-0.4,0.2
					c-0.1,0.1-0.2,0.2-0.3,0.3c-0.1,0.1-0.2,0.2-0.3,0.4c-0.1,0.1-0.2,0.3-0.3,0.4c-0.1,0.1-0.2,0.3-0.3,0.4
					c-0.1,0.2-0.2,0.3-0.3,0.4c-0.1,0.1-0.1,0.3-0.3,0.5c-0.9,1.6-1.5,2.4-2,2.4c-0.2,0-0.4-0.2-0.7-0.5s-0.4-0.6-0.4-0.7
					c0-0.1,0.1-0.3,0.2-0.7s0.2-0.6,0.3-0.8c0.1-0.2,0.1-0.4,0.2-0.6s0.1-0.4,0.1-0.7s0-0.4,0.1-0.6s0-0.3,0-0.6
					c0.1-1.2,0.2-1.9,0.2-2c0.1-0.1,0.1-0.2,0.2-0.2c0.4,0,0.7,0.1,1,0.4c0.3,0.3,0.5,0.6,0.5,0.8c0,0.6-0.1,1.4-0.4,2.5
					c0.6-1.1,1.2-1.9,1.7-2.6S93.9,155.4,94.3,155.4z"/>
				<path d="M102.2,159.3c-0.6,0.4-1.3,0.5-1.9,0.5s-1.2,0-1.6-0.1c-0.1,0.3-0.1,0.5-0.1,0.8s0,0.4,0.1,0.5s0.3,0.2,0.6,0.2
					c0.7,0,1.3-0.1,1.8-0.2c0.5-0.1,0.8-0.2,0.8-0.2c0.4,0,0.6,0.1,0.6,0.4c0,0.4-0.3,0.7-0.9,1c-0.6,0.3-1.3,0.5-2.1,0.5
					s-1.4-0.2-1.9-0.7c-0.5-0.5-0.7-1.1-0.7-1.8s0.2-1.4,0.6-2.1c0.4-0.7,0.9-1.4,1.5-1.9c0.6-0.5,1.2-0.7,1.8-0.7
					c0.6,0,1.1,0.3,1.6,0.9c0.5,0.6,0.8,1.2,0.8,1.7C103.1,158.5,102.8,158.9,102.2,159.3z M101.2,157.4c-0.2-0.2-0.4-0.3-0.6-0.3
					s-0.4,0.1-0.7,0.4c-0.3,0.2-0.5,0.6-0.8,1c0.1,0,0.2,0,0.4,0c1.3,0,1.9-0.2,1.9-0.7C101.5,157.7,101.4,157.6,101.2,157.4z"/>
				<path d="M108.2,155.4c0.4,0,0.7,0.2,1.1,0.6c0.3,0.4,0.5,0.8,0.5,1.1c0,0.2-0.1,0.3-0.3,0.3c-0.1,0-0.3,0-0.5-0.1
					c-0.2-0.1-0.4-0.1-0.7-0.1c-0.2,0-0.5,0.1-1,0.2c-0.4,0.1-0.6,0.3-0.6,0.6c0,0.1,0.1,0.2,0.4,0.4c0.3,0.2,0.5,0.4,0.8,0.5
					c0.3,0.2,0.6,0.4,0.8,0.8s0.4,0.7,0.4,1.1s-0.3,0.8-0.8,1.2c-0.6,0.4-1.2,0.6-2,0.6s-1.4-0.2-2-0.5c-0.5-0.3-0.8-0.7-0.8-1.1
					s0.1-0.5,0.4-0.5c0.1,0,0.3,0,0.4,0.1c0.5,0.3,1,0.4,1.7,0.4s1-0.1,1-0.3c0-0.2-0.1-0.4-0.4-0.6c-0.3-0.2-0.6-0.4-0.9-0.6
					c-0.3-0.2-0.6-0.4-0.9-0.7c-0.3-0.3-0.4-0.6-0.4-0.8c0-0.5,0.5-1.1,1.4-1.6C106.9,155.7,107.7,155.4,108.2,155.4z"/>
				<path d="M111.9,162.9c-0.3,0-0.6-0.2-1-0.5c-0.4-0.4-0.6-0.7-0.6-0.9s0.1-0.5,0.4-0.8c0.2-0.3,0.5-0.4,0.7-0.4
					c0.2,0,0.5,0.3,0.8,0.8c0.3,0.5,0.4,0.9,0.4,1.2c0,0.1-0.1,0.3-0.3,0.5C112.2,162.8,112.1,162.9,111.9,162.9z"/>
			</g>
		</g>
	</g>
</g>
</svg>
