<svg xmlns="http://www.w3.org/2000/svg" xmlns:xlink="http://www.w3.org/1999/xlink" viewBox="0 0 408.24 133.24"><defs><style>.cls-1{fill:url(#linear-gradient);}.cls-2{fill:url(#New_Gradient_Swatch);}.cls-3{stroke-miterlimit:10;stroke-width:8px;fill:url(#linear-gradient-2);stroke:url(#New_Gradient_Swatch-2);}.cls-4{fill:#505050;}.cls-5{font-size:26.05px;font-family:Poppins-SemiBold, Poppins;font-weight:600;}.cls-5,.cls-6{fill:#fff;}.cls-10,.cls-11,.cls-12,.cls-7,.cls-8,.cls-9{fill:#545c8d;}.cls-8{font-size:6.87px;}.cls-10,.cls-11,.cls-12,.cls-8,.cls-9{font-family:FontAwesome;}.cls-9{font-size:12.71px;}.cls-10{font-size:8.07px;}.cls-11{font-size:8.05px;}.cls-12{font-size:6.14px;}</style><linearGradient id="linear-gradient" x1="40.24" y1="66.62" x2="408.24" y2="66.62" gradientUnits="userSpaceOnUse"><stop offset="0" stop-color="#545c8d"/><stop offset="0.48" stop-color="#525a8b"/><stop offset="0.75" stop-color="#4b5382"/><stop offset="0.97" stop-color="#3f4874"/><stop offset="1" stop-color="#3d4672"/></linearGradient><linearGradient id="New_Gradient_Swatch" x1="40.24" y1="66.62" x2="408.24" y2="66.62" gradientUnits="userSpaceOnUse"><stop offset="0" stop-color="#3d4672"/><stop offset="0.03" stop-color="#3f4874"/><stop offset="0.25" stop-color="#4b5382"/><stop offset="0.52" stop-color="#525a8b"/><stop offset="1" stop-color="#545c8d"/></linearGradient><linearGradient id="linear-gradient-2" x1="9.34" y1="66.62" x2="123.9" y2="66.62" xlink:href="#linear-gradient"/><linearGradient id="New_Gradient_Swatch-2" x1="5.34" y1="66.62" x2="127.9" y2="66.62" xlink:href="#New_Gradient_Swatch"/></defs><title>img1_btn2</title><g id="cortar"><rect class="cls-1" x="40.24" y="23.62" width="368" height="86" rx="43"/><path class="cls-2" d="M365.24,30.54a36.08,36.08,0,1,1,0,72.16h-282a36.08,36.08,0,0,1,0-72.16h282m0-6.92h-282a43,43,0,0,0-43,43h0a43,43,0,0,0,43,43h282a43,43,0,0,0,43-43h0a43,43,0,0,0-43-43Z"/><circle class="cls-3" cx="66.62" cy="66.62" r="57.28"/><path class="cls-4" d="M53.08,1.4l-.2,0-.91.2h-.11l-.09,0h-.7a1,1,0,0,0,.23,2,1,1,0,0,0,.24,0c.58-.14,1.16-.27,1.75-.39a1,1,0,0,0,.77-1.19,1,1,0,0,0-1-.79ZM44.9,3.68a1,1,0,0,0-.33.06c-1.45.51-2.88,1.06-4.29,1.67h0l-.07,0h-.06l0,0h-.3l0,0h0l-.07,0h0c-1.66.73-3.28,1.54-4.86,2.4a1,1,0,0,0-.39,1.35,1,1,0,0,0,.88.52,1.07,1.07,0,0,0,.48-.12,64.82,64.82,0,0,1,9.52-4.24,1,1,0,0,0-.33-1.94ZM32.59,9.5a1,1,0,0,0-.51.15c-.53.32-1,.64-1.57,1a1,1,0,0,0,.54,1.84,1,1,0,0,0,.54-.16l1.52-1A1,1,0,0,0,33.45,10a1,1,0,0,0-.86-.48Zm-7,4.87a1,1,0,0,0-.62.22h0l0,0h0l0,0h0l0,0h0l0,0h0l0,0h0l0,0h0l0,0h0l0,0h0l0,0h0l0,0h0l0,0h0l0,0h0l0,0h0l0,0h0l0,0h0l0,0h0l0,0h0l0,0h0l0,0h0l0,0h0l0,0h0l0,0h0l0,0h0l0,0h0l0,0h0l0,0h0l0,0h0l0,0h0l0,0h0l0,0h0l0,0h0l0,0h0l0,0h0l0,0h0l0,0h0l0,0h0l0,0h0l0,0h0l0,0h0l0,0h0l0,0h0l0,0h0l0,0h0l0,0h0l0,0h0l0,0h0l0,0h0l0,0h0l0,0h0l0,0h0l0,0h0l0,0h0l0,0h0l0,0h0l0,0h0l0,0h0l0,0h0l0,0h0l0,0h0l0,0h0l0,0h0l0,0h0l0,0h0l0,0h0l0,0h0l0,0h0l0,0h0l0,0h0l0,0h0l0,0h0l0,0h0l0,0h0l0,0h0l0,0h0l0,0h0l0,0h0l0,0h0l0,0h0l0,0h0l0,0h0l0,0h0l0,0h0l0,0h0l0,0h0l0,0h0l0,0h0l0,0h0l0,0h0l0,0h0l0,0h0l0,0h0l0,0h0l0,0h0l0,0h0l0,0h0l0,0h0l0,0h0l0,0h0l0,0h0l0,0h0l0,0h0l0,0h0l0,0h0l0,0h0l0,0h0l0,0h0l0,0h0l0,0h0l0,0h0l0,0h0l0,0h0l0,0h0l0,0h0l0,0h0l0,0h0l0,0h0l0,0h0l0,0h0l0,0h0l0,0h0l0,0h0l0,0h0l0,0h0l0,0h0l0,0h0l0,0h0l0,0h0l0,0h0l0,0h0l0,0h0l0,0h0l0,0h0l0,0h0l0,0h0l0,0h0l0,0h0l0,0h0l0,0h0l0,0h0l-.06.05h0l0,0h0l0,0h0l0,0h0l0,0h0l0,0h0l0,0h0l0,0h0l0,0h0l0,0h0l0,0h0l0,0h0l0,0h0l0,0h0l0,0h0l0,0h0l0,0h0l0,0h0l0,0h0l0,0h0l0,0h0l0,0h0l0,0h0l0,0h0l-.06.05h0l0,0h0l0,0h0l0,0h0l0,0h0l0,0h0l0,0h0l0,0h0l0,0h0l0,0h0l0,0h0l0,0h0l0,0h0l0,0h0l0,0h0l0,0h0l0,0h0l0,0h0l0,0h0l0,0h0l0,0h0l0,0h0l0,0h0l0,0h0l0,0h0l0,0h0l0,0h0l0,0h0l0,0h0l0,0h0l0,0h0l0,0h0l0,0h0l0,0h0l0,0h0l0,0h0l0,0h0v0h0l0,0h0l0,0h0l0,0h0l0,0h0l0,0h0l0,0v0h0l0,0h0l0,0h0v0l0,0h0v0h0v0l0,0h0l0,0v0h0v0h0v0l0,0h0l0,0h0l0,0v0h0l0,0h0v0h0l0,0h0l0,0h0l-.05.05h0l0,0h0l-.05.06h0l0,0h0l0,0h0l0,0h0l0,0h0l0,0h0l0,0h0l0,0h0l-.08.09h0l0,0h0l0,.05h0l-.08.08a1,1,0,0,0,.08,1.41,1,1,0,0,0,.67.26,1,1,0,0,0,.74-.33,65.8,65.8,0,0,1,7.59-7.15,1,1,0,0,0,.15-1.4,1,1,0,0,0-.78-.38Zm-9.69,9.56a1,1,0,0,0-.77.37l-.42.51h0l0,0h0v0h0l0,0h0l0,0h0v0h0v0h0l0,0h0v0h0l0,0h0l0,0h0v0h0v0h0v0h0v0h0v0h0l0,0h0v0h0v0h0l0,0h0l0,0h0v0h0l0,0h0l-.12.15a1,1,0,0,0,.18,1.4.94.94,0,0,0,.61.21,1,1,0,0,0,.79-.38c.37-.47.74-.94,1.12-1.4a1,1,0,0,0-.13-1.41,1,1,0,0,0-.64-.23Zm-5,6.9a1,1,0,0,0-.84.46,66.43,66.43,0,0,0-5,9.55,1,1,0,0,0,.54,1.3.91.91,0,0,0,.39.08A1,1,0,0,0,7,41.61a64.34,64.34,0,0,1,4.8-9.25A1,1,0,0,0,11.5,31a1,1,0,0,0-.53-.15ZM5,43.05a1,1,0,0,0-.94.65H4v0H4l0,.12H4v0H4v0H4v0H4v0H4l0,.11h0v0h0v0h0l-.27.77h0v0h0v0h0v0h0v0h0l0,.06h0v0h0v0h0v0h0l-.11.3a1,1,0,0,0,.64,1.27,1.12,1.12,0,0,0,.31.05,1,1,0,0,0,1-.69c.19-.56.39-1.13.59-1.69a1,1,0,0,0-.59-1.28A1,1,0,0,0,5,43.05ZM2.59,51.2a1,1,0,0,0-1,.78A66.46,66.46,0,0,0,.12,62.63a1,1,0,0,0,.94,1h.06a1,1,0,0,0,1-.94A65.09,65.09,0,0,1,3.57,52.42a1,1,0,0,0-.76-1.2l-.22,0ZM1,64.72a1,1,0,0,0-1,1c0,.11,0,.21,0,.32H0v0H0v0H0v0H0v0H0v0H0v.06H0v0H0v0H0v0H0v0H0v0H0v0H0v0H0v0H0v0H0v0H0v0H0v0H0v0H0v0H0v0H0v0H0v0H0v0H0v0H0c0,.23,0,.46,0,.7a1,1,0,0,0,1,1H1a1,1,0,0,0,1-1c0-.3,0-.61,0-.91s0-.59,0-.89a1,1,0,0,0-1-1Zm.43,8.49H1.32a1,1,0,0,0-.88,1.1c0,.32.07.63.12.94h0v.11h0v0h0v0h0v0h0v0h0v0h0v0h0v0h0v0h0v0h0v0h0v0h0v0h0v0h0v0h0v0h0v0h0V76h0v0h0c.23,1.61.51,3.2.85,4.77h0v0h0v.08h0v0h0v0h0l0,.06h0v0h0v0h0v0h0v0h0v0h0v0h0v0h0v0h0v0h0v0h0v0h0v0h0v0h0v0h0v0h0v0h0l0,.07h0v0h0v0h0l0,.08h0c.24,1,.51,2.08.8,3.1a1,1,0,0,0,1,.72.84.84,0,0,0,.27,0,1,1,0,0,0,.69-1.23,64.28,64.28,0,0,1-2-10.23,1,1,0,0,0-1-.88ZM4.39,86.49a1.19,1.19,0,0,0-.32.05,1,1,0,0,0-.63,1.27l.26.77h0v0h0v0h0v0h0v0h0v0h0v0h0v0h0v0h0v0h0v0h0l.25.7a1,1,0,0,0,.94.65,1.07,1.07,0,0,0,.35-.06,1,1,0,0,0,.59-1.28c-.21-.56-.4-1.13-.59-1.7a1,1,0,0,0-1-.68Zm3.22,7.87a1,1,0,0,0-.44.1,1,1,0,0,0-.46,1.33c.49,1,1,2,1.54,3h0l0,.07h0l0,0h0v0h.05v0h0v0h0v0h0v0h0v0h0l0,.06h0v0h0l0,.08h0q1.37,2.39,2.92,4.65h0v0h0l0,0h0l0,0h.05v0h0v0h0v0h0v0h0v0h0v0h0l0,0h0l0,0h0l.05.07h0v0h0l.19.27a1,1,0,0,0,.81.42,1,1,0,0,0,.58-.18,1,1,0,0,0,.24-1.39,64.87,64.87,0,0,1-5.31-9,1,1,0,0,0-.9-.56Zm7.2,11.54a1,1,0,0,0-.61.21,1,1,0,0,0-.18,1.41c.28.35.56.71.85,1.06h0l0,0h0v0h0l0,0h0l0,0h0v0h0c.06.06.11.13.16.19a1,1,0,0,0,1.41.14,1,1,0,0,0,.13-1.41c-.38-.46-.75-.93-1.12-1.4a1,1,0,0,0-.79-.39Zm5.65,6.36a1,1,0,0,0-.71,1.71h0l0,0h0l0,0h0l0,0h0v0h0l0,0h0l0,0h0l0,0h0l0,0h0l0,0h0l0,0h0l0,0h0l0,0h0l0,0h0l0,0h0l0,0h0l0,0h0l0,0h0l0,0h0l0,0h0l0,0h0l0,0h0l0,0h0l0,0h0l0,0h0l0,0h0l0,0h0l0,0h0l0,0h0l.06.05h0l0,0h0l.06,0h0l0,0h0l.06.06h0l0,0h0l.06,0h0l0,0h0l.09.09h0l.09.09h0l0,0h0l.06,0h0l.18.17h0l.13.12h0l.09.08h0l.28.26h0l.12.11h0l.1.08h0l.09.09h0l.06,0h0l0,0h0l.09.08h0l.09.08h0l.1.08h0l0,0h0l0,0h0l0,0h0l0,0h0l.06.06h0l0,0h0l.06,0h0l0,0h0l.06,0h0l0,0h0l0,0h0l0,0h0l0,0h0l0,0h0l0,0h0l0,0h0l0,0h0l0,0h0l0,0h0l0,0h0l0,0h0l0,0h0l0,0h0l0,0h0l0,0h0l0,0h0l0,0h0l0,0h0l0,0h0l0,0h0v0h0l0,0h0l0,0h0l0,0h0l0,0h0l0,0h0l0,0h0l0,0h0l0,0h0l0,0h0l0,0h0l0,0h0l0,0h0l0,0h0l.06,0h0l0,0h0l0,0h0l0,0h0l0,0h0l0,0h0l0,0h0l.1.08h0l.1.08h0c1,.83,2.09,1.63,3.17,2.41a1,1,0,0,0,.57.18,1,1,0,0,0,.82-.42,1,1,0,0,0-.24-1.4,65.37,65.37,0,0,1-8-6.71,1,1,0,0,0-.7-.29Zm10.61,8.53a1,1,0,0,0-.55,1.83l.11.07h0l0,0h0c.47.3.94.6,1.42.89a1,1,0,0,0,1.37-.34,1,1,0,0,0-.33-1.37l-1.52-1a1,1,0,0,0-.54-.16Zm7.42,4.13a1,1,0,0,0-.43,1.91l1.25.58h0l.11,0h0l.12.05h0l.09,0h0l.08,0h0l.07,0h0l.08,0h0l.07,0h.06l.06,0h0l0,0h.07l.05,0h.06l.05,0h.07l0,0h0l.05,0h.73l0,0h.08l0,0h0l.07,0h.05l.07,0h0l.1,0h0l.21.08h0c1.93.76,3.91,1.44,5.92,2a1.26,1.26,0,0,0,.27,0,1,1,0,0,0,.28-2,65.05,65.05,0,0,1-9.74-3.7,1,1,0,0,0-.43-.1Zm12.83,4.53a1,1,0,0,0-1,.77,1,1,0,0,0,.74,1.2l.45.11h.29l1.07.23.2,0a1,1,0,0,0,.2-2c-.58-.12-1.17-.25-1.75-.39a.91.91,0,0,0-.23,0Zm8.38,1.43a1,1,0,0,0-.11,2h.11l.22,0h.68l.21,0h.48l.63.05h0l.79,0h.06l.69,0h4.72l1,0H70l.38,0a1,1,0,0,0,.94-1,1,1,0,0,0-1-1h0c-1.2.07-2.41.1-3.61.1a67.42,67.42,0,0,1-6.82-.35Zm15.42-.18H75l-1.78.2a1,1,0,0,0,.1,2h.1l.91-.1H75l.25,0a1,1,0,0,0-.13-2Zm16.64-4.45a1.08,1.08,0,0,0-.38.08,63.73,63.73,0,0,1-9.92,3.2,1,1,0,0,0,.23,2,.91.91,0,0,0,.23,0,66.73,66.73,0,0,0,10.23-3.3,1,1,0,0,0-.39-1.93Zm4.42-2a1,1,0,0,0-.45.1c-.53.27-1.07.54-1.61.79a1,1,0,0,0,.42,1.91,1.08,1.08,0,0,0,.43-.1l.29-.14h.06c.41-.2.82-.39,1.22-.6h.09a1,1,0,0,0-.45-1.89Zm14.22-9.73a1,1,0,0,0-.66.26,65,65,0,0,1-8.3,6.31,1,1,0,0,0,.54,1.84,1.08,1.08,0,0,0,.54-.15l.77-.5h0l.06,0h0l0,0h.21l0,0h.18l0,0h0l.07,0h0l.06,0h0l.07,0h0v0h0l.09-.06h0l.1-.07h0l.1-.07h0l.11-.08h0l.1-.07h0l.63-.45h0l.43-.31h0l.08-.06h0l0,0h0l.3-.22h0l.1-.07h0l.29-.21h0l.07,0h0l.07,0h0v0h0l0,0h0l0,0h0l.1-.07h0l.08-.07h0v0h0l0,0h0l0,0h0l0,0h0l.06-.05h0l.06-.05h0l.07,0h0l.08-.07h0l.06,0h0l.05,0h0l0,0h0l.08-.06h0l.06,0h0v0h0l.1-.08h0l.1-.07h0l.08-.06h0v0h0c.85-.69,1.68-1.39,2.49-2.12a1,1,0,0,0,.08-1.41,1,1,0,0,0-.75-.34Zm3.5-3.37a1,1,0,0,0-.72.31c-.41.43-.84.85-1.26,1.27a1,1,0,0,0,1.4,1.43l.57-.57h0l0,0H114l0,0h0l0,0h0l.57-.59a1,1,0,0,0,0-1.41,1,1,0,0,0-.69-.28Zm10.23-13.87a1,1,0,0,0-.88.52,65,65,0,0,1-5.75,8.69,1,1,0,0,0,1.57,1.24h0l0,0h0l0,0h0v0h0l0,0h0v0h0v0h0l0,0h0l0,0h0v0h0l0,0h0v0h0l0,0h0l0,0h0v0h0l0-.06h0v0h0v0h0v0h0l0-.06h0v0h0v0h0l.05-.06h0v0h0l0,0h0l0-.06h0l0,0h0v0h0l0-.06h0v0h0l0,0h0l.06-.08h0v0h0l0,0h0l0-.06h0l0,0h0v0h0l0-.06h0v0h0l0,0h0l.06-.08h0v0h0l.06-.08h0l0,0h0l.22-.3h0l.07-.1h0c.13-.18.26-.35.38-.53h0l.38-.53h0l.21-.31h0l0,0h0l0-.08h0l.07-.1h0l0,0h0l0-.08h0v0h0v0h0l0-.07h0l0-.08h0v0h0v0h0l0-.06h0v0h0l.05-.06h0v0h0v0h0l0-.06h0v0h0v0h0l.06-.09h0v0h0l0,0h0l0-.06h0v0h0v0h0l0-.07h0v0h0v0h0l0,0h0v0h0v0h0l0,0h0l0,0h0v0h0l0,0h0l0,0h0v0h0l0,0h0v0h0v0h0v0h0l0,0h0l0,0h0v0h0v0h0v0h.06v0h0v0h0v0h0v0h0v0H123v0H123l0,0h0v0h0v0h0v0h0l0,0h0v0h0l0,0h0v0h0v0h0l0,0h0l0-.08h0l0-.07h0v0h0v0h0l.06-.11h0c.49-.81,1-1.64,1.43-2.48a1,1,0,0,0-.39-1.35.94.94,0,0,0-.48-.13Zm2.18-4.34a1,1,0,0,0-.91.59c-.25.54-.5,1.08-.77,1.62a1,1,0,0,0,.46,1.34,1,1,0,0,0,.44.1,1,1,0,0,0,.9-.56l0-.1h0v0h0v0h0v0h0l0-.06h0v0h0v0h0c.18-.39.37-.78.55-1.18h0v0h0v0h0l0-.06a1,1,0,0,0-.49-1.33,1.06,1.06,0,0,0-.42-.09Zm5-16.47a1,1,0,0,0-1,.84,64.2,64.2,0,0,1-2.54,10.11,1,1,0,0,0,.63,1.26.87.87,0,0,0,.32.06,1,1,0,0,0,.95-.68,65.76,65.76,0,0,0,2.61-10.43,1,1,0,0,0-.82-1.15Zm.62-4.82a1,1,0,0,0-1,.91c-.06.6-.12,1.19-.19,1.79a1,1,0,0,0,.87,1.11h.12a1,1,0,0,0,1-.88c0-.15,0-.3.05-.46h0v0h0v0h0v0h0v0h0l0-.09h0v0h0v0h0v0h0c0-.35.08-.7.11-1a1,1,0,0,0-.91-1.08Zm-.68-17.22-.17,0a1,1,0,0,0-.82,1.15A64.3,64.3,0,0,1,131.24,66a1,1,0,0,0,1,1h0a1,1,0,0,0,1-1,66.51,66.51,0,0,0-.94-10.54h0v-.07h0v0h0v0a1,1,0,0,0-1-.83Zm-1-4.75-.24,0a1,1,0,0,0-.73,1.21c.14.58.28,1.16.41,1.75a1,1,0,0,0,1,.78l.22,0a1,1,0,0,0,.76-1.19l0-.14h0v0h0v0h0v0h0c-.11-.52-.23-1-.36-1.54a1,1,0,0,0-1-.75Zm-6.35-16a1,1,0,0,0-.49.13,1,1,0,0,0-.38,1.36,64.82,64.82,0,0,1,4.33,9.48,1,1,0,0,0,.94.66,1,1,0,0,0,.34-.06,1,1,0,0,0,.6-1.28c-.21-.56-.42-1.13-.64-1.69h0v0h0l0-.07h0v0h0v0h0l0-.07h0v0h0v0h0l0,0h0v0h0v0h0v0h0v0h0v0h0v0h0v0h0v0h0v0h0v0h0v0h0v0h0v0h0v0h0v0h0v0h0v0h0v0h0v0h0v0h0l0,0h0v0h0l0,0h0v0h0l0,0h0v0h0l0-.06h0v0h0v0h0l0-.07h0l0,0h0v0h0v0h0l0-.08h0v0h0v0h0l0,0h0l0,0h0v0h0v0h0v0h0l0-.06h0l0-.07h0v0h0v0h0v0h0l0-.06h0v0h0v0h0l0,0h0v0h0v0h0l0-.08h0v0h0v0h0v0h0l0-.05h0l0-.07h0v0h0l0-.07h0v0h0v0h0v0h0v0h0v0h0v0h0v0h0v0h0v0h0v0h0v0h0v0h0v0h0v0h0v0h0v0h0v0h0v0h0v0h0v0h0v0h0v0h0v0h0v0h0v0h0v0h0v0h0v0h0v0h0v0h0v0h0v0h0v0h0v0h0v0h0v0h0l0,0h0v0h0v0h0v0h0l0,0h0v0h0v0h0v0h0l0-.07h0l-.06-.11h0v0h0l0-.07h0v0h0l0-.07h0v0h0v0h0l0-.09h0l-.11-.23h0l-.11-.2h0v0h0L125.3,35h0c0-.06-.07-.13-.11-.2h0l-.18-.33h0l-.18-.33h0l0,0a1,1,0,0,0-.87-.51Zm-2.53-4.15a1,1,0,0,0-.55.17,1,1,0,0,0-.28,1.39c.33.49.65,1,1,1.51a1,1,0,0,0,.85.47,1,1,0,0,0,.52-.15,1,1,0,0,0,.32-1.38c-.14-.24-.29-.47-.44-.71h0l0,0h0v0h0v0l0-.05h0v0h0v0h0v0h0c-.14-.22-.28-.44-.43-.65a1,1,0,0,0-.83-.45Zm-11.29-13a1,1,0,0,0-.67,1.75,65,65,0,0,1,7.23,7.52,1,1,0,0,0,1.55-1.27h0l0,0h0v0h0l0,0h0l0,0h0l0,0h0l0,0h0l0,0h0l0,0h0l0,0h0l0,0h0l-.08-.1h0a67.24,67.24,0,0,0-5.61-6h0l0,0h0l-.06,0h0l0,0h0l0-.06h0l0,0h0l0,0h0l0,0h0l0,0h0l0,0h0l0,0h0l0,0h0l0,0h0l0,0h0l0,0h0v0h0v0h0l0,0h0l0,0h0l0,0h0l0,0h0l-.05-.05h0l0,0h0l0,0h0l0,0h0l-.54-.49a1,1,0,0,0-.66-.25Zm-3.76-3.08a1,1,0,0,0-.79.39,1,1,0,0,0,.19,1.4l1.41,1.11a1,1,0,0,0,.62.22,1,1,0,0,0,.78-.37,1,1,0,0,0-.15-1.41h0l0,0h0v0h0l0,0h0l-.57-.44h0l-.09-.07h0v0h0l0,0h0l0,0h-.07l0,0h-.26l0,0h0l0,0H107l0,0h0a1,1,0,0,0-.61-.2Zm-15-8.56A1,1,0,0,0,91,6.77a63.89,63.89,0,0,1,9.3,4.71,1,1,0,0,0,.52.14,1,1,0,0,0,.52-1.85,67.38,67.38,0,0,0-9.59-4.86,1,1,0,0,0-.37-.07ZM86.84,3.17a1,1,0,0,0-.3,2c.57.18,1.13.37,1.7.57a1,1,0,0,0,.33.06,1,1,0,0,0,.33-1.94h-.12c-.44-.16-.89-.32-1.35-.46h-.09l-.19-.07a1.06,1.06,0,0,0-.31-.05ZM69.89.08a1,1,0,0,0-1,1,1,1,0,0,0,.95,1.05A64.19,64.19,0,0,1,80.19,3.43l.2,0a1,1,0,0,0,.21-2H75.39C73.6.34,71.78.17,69.94.08ZM66.62,0H64.31A66.54,66.54,0,0,0,55.9.86a1,1,0,0,0,.17,2h.16A65.49,65.49,0,0,1,66.62,2h.24a1,1,0,0,0,0-2h-.24Z"/><path class="cls-4" d="M53.07,5,53,5h-.06l-.71.16h-.64l-.09,0h0l-.26.06A.51.51,0,0,0,50.8,6a.51.51,0,0,0,.49.38l.12,0L53.18,6a.49.49,0,0,0,.38-.59.5.5,0,0,0-.49-.4ZM44.86,7.4a.51.51,0,0,0-.17,0Q41.87,8.48,39.2,9.76h0l-.11.06h0l-.09,0h-.09l0,0h-.51l-.05,0h-.1l-.07,0h0l-.11,0h0c-1,.52-2,1.07-3,1.64a.5.5,0,0,0-.18.68.51.51,0,0,0,.44.25.47.47,0,0,0,.25-.07A62.21,62.21,0,0,1,45,8.37a.49.49,0,0,0,.3-.64.51.51,0,0,0-.47-.33ZM32.61,13.54a.5.5,0,0,0-.27.08l-1.54,1a.49.49,0,0,0-.13.69.5.5,0,0,0,.41.22.52.52,0,0,0,.29-.09c.5-.34,1-.68,1.51-1a.5.5,0,0,0,.15-.69.51.51,0,0,0-.42-.23Zm-6.85,5.13a.49.49,0,0,0-.32.12,64.78,64.78,0,0,0-6.07,6h0l-.08.09h0v0h0l0,0h0l-.06.07h-.1v0H19l0,0h-.07l-.07.08h0v0h0l-.84,1a.52.52,0,0,0,.07.71.54.54,0,0,0,.32.11.51.51,0,0,0,.39-.18,62.18,62.18,0,0,1,7.39-7.57.5.5,0,0,0-.33-.88Zm-9.34,10a.51.51,0,0,0-.4.2q-.55.73-1.08,1.5a.49.49,0,0,0,.12.69.52.52,0,0,0,.29.09.51.51,0,0,0,.41-.21c.35-.5.7-1,1.06-1.47a.5.5,0,0,0-.1-.7.47.47,0,0,0-.3-.1ZM11.79,35.9a.49.49,0,0,0-.44.26,2.15,2.15,0,0,0-.14.26h0v0h0l0,.07h0v0h0v0h0v0h0v0h0v0H11v0h0v0h-.07v0h0v0h0v0h0v0h0v0h0v0h0l0,.08h0v0h0v0h0v0h0c-.41.79-.81,1.59-1.19,2.4h0a.89.89,0,0,0-.08.17h0L9.41,40h0v0h0v0h0l-.06.13h0v0h0v0h0l-.05.11h0v0h0v0h0v0h0l0,.06h0v0h0v0h0v0h0l0,0h0v0h0v0h0v0h0v0h0v0h0l0,.05H9v0H9v0H9v0H9v0H9l0,0H9v0H9v0h0v0h0v0H8.84v0h0v0h0v0h0l0,0H8.69v0h0v0h0l0,.07h0v0h0v0h0v0h0v0h0v0h0l0,.06h0l0,.07h0v0h0v0h0v0h0v0h0l-.05.11h0l0,.13h0v0h0v0h0l0,.12h0l-.05.12h0v0h0v0h0L8.1,43h0v0h0v0h0v0h0l0,.09H8v0H8v0H8v0H8v0H8l0,.1H8v0H8v0H8v0h0l0,.09h0l0,.1h0v0h0v0h0v0h0v0h0l0,.08h0v0h0v0h0v0h0l0,.05h0v0h0v0h0v0h0v0h0v0h0v0h0v0h0v0h0v0h0v0h0v0h0v0h0v0h0l0,.07h0v0h0v0h0v0h0L7,46a.5.5,0,0,0,.31.63.51.51,0,0,0,.17,0,.5.5,0,0,0,.47-.34,62.64,62.64,0,0,1,4.3-9.66A.5.5,0,0,0,12,36a.53.53,0,0,0-.24-.06ZM6.51,48.55a.51.51,0,0,0-.48.36c-.09.33-.19.66-.28,1h0v0h0v0h0v0h0v0h0v0h0v0h0l-.16.61a.5.5,0,0,0,.36.61l.12,0A.5.5,0,0,0,6.51,51c.15-.59.31-1.18.48-1.76a.5.5,0,0,0-.34-.62l-.14,0ZM4.68,56.91a.51.51,0,0,0-.5.42,62.68,62.68,0,0,0-.66,10.74.5.5,0,0,0,.5.48H4A.5.5,0,0,0,4.52,68a63.14,63.14,0,0,1,.65-10.56.5.5,0,0,0-.42-.56Zm-.51,13.7h0a.5.5,0,0,0-.46.53c0,.19,0,.38.05.58h0v0h0v0h0v0h0v0h0v.06h0v0h0v0h0v0h0v0h0v0h0v0h0v0h0v0h0v0h0v0h0v0h0v0h0v0h0v0h0v0h0v.08h0v0h0c0,.16,0,.31,0,.47a.51.51,0,0,0,.5.44h0a.5.5,0,0,0,.45-.55c-.06-.6-.12-1.21-.16-1.81a.5.5,0,0,0-.5-.46Zm1.2,8.47H5.26a.49.49,0,0,0-.38.59A62.63,62.63,0,0,0,8,90a.5.5,0,0,0,.46.31.43.43,0,0,0,.19,0,.5.5,0,0,0,.28-.64,61.26,61.26,0,0,1-3-10.13.5.5,0,0,0-.49-.4Zm4.27,13a.54.54,0,0,0-.21.05.5.5,0,0,0-.25.66c.26.56.53,1.12.8,1.68a.5.5,0,0,0,.45.27.44.44,0,0,0,.22-.05.5.5,0,0,0,.22-.67c-.26-.54-.52-1.09-.77-1.64a.51.51,0,0,0-.46-.3Zm4.07,7.53a.42.42,0,0,0-.26.08.49.49,0,0,0-.16.69c.09.13.18.27.26.41h0v0h0v0h.1v0h0a63.24,63.24,0,0,0,5.67,7.42h.13v0h0l0,0h0l.19.22a.51.51,0,0,0,.71,0,.49.49,0,0,0,0-.7,62.89,62.89,0,0,1-6.4-8.42.51.51,0,0,0-.43-.23Zm8.57,10.7a.5.5,0,0,0-.36.85l.89.87h0l0,0h0l0,0h0l0,0h0l.25.24a.52.52,0,0,0,.35.14.48.48,0,0,0,.36-.16.5.5,0,0,0,0-.71c-.44-.41-.88-.83-1.31-1.26a.47.47,0,0,0-.35-.15ZM28.73,116a.51.51,0,0,0-.4.2.5.5,0,0,0,.09.7l.14.1h0l0,0h0l0,0h.33v0H29a62.54,62.54,0,0,0,8.49,5.31.46.46,0,0,0,.23.06.5.5,0,0,0,.23-.94A62.94,62.94,0,0,1,29,116.06a.49.49,0,0,0-.3-.1ZM40.48,123a.52.52,0,0,0-.46.29.5.5,0,0,0,.25.66l1.31.59h.13l.25.11a.43.43,0,0,0,.19,0,.49.49,0,0,0,.46-.3.5.5,0,0,0-.26-.66c-.56-.24-1.11-.48-1.67-.74a.45.45,0,0,0-.2,0Zm8,3a.49.49,0,0,0-.47.35.51.51,0,0,0,.33.63l.1,0h.34a62.94,62.94,0,0,0,10.07,2.1h.06a.5.5,0,0,0,.06-1,62,62,0,0,1-10.34-2.19l-.15,0ZM62,128.57a.5.5,0,0,0,0,1c.58,0,1.17.08,1.76.1h.11a.5.5,0,0,0,0-1c-.61,0-1.21-.06-1.82-.11Zm19.1-1.52h-.11c-1.61.38-3.26.7-4.9.95-1.85.29-3.72.49-5.57.6a.5.5,0,0,0-.46.54.49.49,0,0,0,.49.46H71c1.49-.1,3-.26,4.48-.47h0l.22,0h0l.09,0h.41c1.67-.25,3.31-.58,4.93-1a.5.5,0,0,0,.37-.6.5.5,0,0,0-.49-.38Zm4.72-1.31-.15,0c-.58.19-1.16.37-1.75.53a.51.51,0,0,0-.34.62.49.49,0,0,0,.48.36.34.34,0,0,0,.14,0l.58-.17h.06l0,0H85l1-.29a.5.5,0,0,0,.32-.63.49.49,0,0,0-.47-.35Zm15.62-7.53a.5.5,0,0,0-.28.08,61.29,61.29,0,0,1-9.26,5.1.5.5,0,0,0-.25.66.49.49,0,0,0,.46.3.43.43,0,0,0,.19,0,63.21,63.21,0,0,0,7.43-3.91h0l0,0h0l.06,0h.06l.08,0H100l.06,0h.09l.05,0h.5l0,0h.08l.08,0h0l.12-.07h0l.63-.41a.5.5,0,0,0-.28-.91Zm4-2.88a.45.45,0,0,0-.31.11c-.48.37-1,.74-1.45,1.1a.5.5,0,0,0,.3.9.53.53,0,0,0,.3-.09l1.14-.87h0l0,0h.05l0,0h0v0h0l.18-.14a.49.49,0,0,0,.08-.7.48.48,0,0,0-.39-.19Zm12-12.52a.51.51,0,0,0-.41.2,61.32,61.32,0,0,1-6.9,8,.5.5,0,0,0,.35.86.49.49,0,0,0,.35-.15l.3-.29h0l.12-.12h.06l.06-.06h.07l0,0h.1l0,0h.24l0,0h0l0,0h0v0h0l0,0h0v0h0v0h0l0,0h0l0,0h0l0,0h0l.06-.07h0v0h0l.06-.06h0l0,0h0l.06-.07h0v0h0l0,0h0l0,0h0l.06-.07h0v0h0l0,0h0l.06-.07h0v0h0l0,0h0l.06-.07h0v0h0v0h0l0,0h0l0-.05h0v0h0v0h0l0,0h0l.06-.06h0l0,0h0l0,0h.08l0,0h0v0h.05v0h0l0,0h0l0,0h0v0h.13l0,0h.09l0,0h.08v0h0l0,0h.09l0,0h.08l0-.06h0v0h0l.08-.1h0v0h0l.08-.09h0v0h0c1.14-1.33,2.23-2.7,3.25-4.12a.51.51,0,0,0-.11-.7.52.52,0,0,0-.29-.09Zm2.71-4.08a.52.52,0,0,0-.43.24c-.32.52-.64,1-1,1.54a.49.49,0,0,0,.15.69.44.44,0,0,0,.27.09.51.51,0,0,0,.42-.23l.06-.1h0l0,0h0v0h0l0,0h0v0h0v0h0l0-.06h0v0h0l.78-1.24a.5.5,0,0,0-.17-.68.5.5,0,0,0-.26-.08ZM127,82.82a.5.5,0,0,0-.48.37,61.83,61.83,0,0,1-3.69,9.91.5.5,0,0,0,.24.67.52.52,0,0,0,.21,0,.48.48,0,0,0,.45-.28,63.2,63.2,0,0,0,3.12-7.94h0c0-.06,0-.12,0-.18h0v0h0v0h0l0-.09h0v0h0v0h0v0h0v0h0v0h0v0h0v0h0v0h0v0h0v0h0v0h0v0h0v0h0v0h0v0h0v0h0v0h0v0h0l0-.07h0v0h0v0h0v0h0v0h0l0-.1h0v0h0v0h0v0h0l0-.11h0v0h0v0h0c0-.19.11-.38.16-.57a.5.5,0,0,0-.35-.61l-.13,0Zm1.12-4.76a.49.49,0,0,0-.49.4c-.12.6-.24,1.19-.37,1.78a.49.49,0,0,0,.37.6h.11a.49.49,0,0,0,.49-.39l.09-.39h0v0h0v0h0v0h0v0h0v0h0v0h0v0h0v0h0v0h0v0h0v0h0l0-.06h0v0h0v0h0v0h0v0h0v0h0v0h0v0h0v0h0v0h0v0h0v0h0v-.06h0v0h0v0h0v0h0l0-.09h0v0h0l0-.14h0l0-.11h0v0h0l0-.09h0a.49.49,0,0,0-.4-.58Zm.9-17.32h0a.5.5,0,0,0-.46.54,61.17,61.17,0,0,1,0,10.57.5.5,0,0,0,.46.54h0a.5.5,0,0,0,.5-.46,62.26,62.26,0,0,0,0-10.75.5.5,0,0,0-.5-.45Zm-.61-4.86h-.08a.5.5,0,0,0-.42.57l.12.75c.06.35.11.7.16,1a.5.5,0,0,0,.49.44h.07a.51.51,0,0,0,.43-.56l-.15-1h0v0h0v0h0l-.06-.38h0v0h0v0h0v0h0v0h0v0h0c0-.09,0-.18,0-.26a.49.49,0,0,0-.49-.42Zm-5.17-16.56a.41.41,0,0,0-.21,0,.49.49,0,0,0-.24.66,63.05,63.05,0,0,1,3.69,9.91.5.5,0,0,0,.48.37l.13,0a.5.5,0,0,0,.35-.61,62.4,62.4,0,0,0-3.75-10.09.51.51,0,0,0-.45-.27ZM121,35a.45.45,0,0,0-.25.07.5.5,0,0,0-.19.68c.3.53.6,1.06.89,1.59a.5.5,0,0,0,.44.27.46.46,0,0,0,.23-.06.5.5,0,0,0,.21-.66c-.29-.56-.6-1.11-.91-1.65A.5.5,0,0,0,121,35Zm-10.64-13.7a.5.5,0,0,0-.35.86,62,62,0,0,1,6.93,8,.5.5,0,0,0,.4.21.51.51,0,0,0,.42-.78,64.07,64.07,0,0,0-7.07-8.16.5.5,0,0,0-.33-.12ZM106.68,18a.5.5,0,0,0-.38.19.49.49,0,0,0,.06.7c.47.39.93.78,1.38,1.18a.5.5,0,0,0,.34.13.51.51,0,0,0,.37-.17.5.5,0,0,0,0-.69q-.7-.63-1.44-1.23a.48.48,0,0,0-.3-.11ZM91.94,8.85a.49.49,0,0,0-.45.3.49.49,0,0,0,.25.66A62.73,62.73,0,0,1,101,14.9a.49.49,0,0,0,.28.09.48.48,0,0,0,.41-.23.49.49,0,0,0-.12-.68,63.24,63.24,0,0,0-9.45-5.19.41.41,0,0,0-.19,0ZM87.4,7.05a.5.5,0,0,0-.17,1q.85.3,1.71.63l.18,0a.48.48,0,0,0,.46-.32.5.5,0,0,0-.27-.64l-1.76-.65a.39.39,0,0,0-.15,0Zm-17-3.44a.51.51,0,0,0-.5.47.5.5,0,0,0,.47.53A62.65,62.65,0,0,1,80.83,6.14l.11,0a.51.51,0,0,0,.49-.39.5.5,0,0,0-.36-.6A63.74,63.74,0,0,0,70.42,3.61ZM66.7,3.5a64.47,64.47,0,0,0-9.64.74h-.17l-.9.14h0a.51.51,0,0,0-.41.58.5.5,0,0,0,.49.42h.09l1.05-.17A63,63,0,0,1,66.7,4.5h.64a.51.51,0,0,0,.5-.5.5.5,0,0,0-.5-.5H66.7Z"/><text class="cls-5" transform="translate(152.65 60.53)">Gobernabilidad<tspan x="0" y="25">y legitimidad</tspan></text><path class="cls-6" d="M66.84,97.93s-10.26-6.36-21.55-2.58l4.53-12.6s14.85-2.13,16.62,1.52C66.43,86.72,66.84,97.93,66.84,97.93Z"/><path class="cls-6" d="M67.07,98s9.79-6.64,21.15-3.18L83,82.46s-14.87-1.82-16.39,1.88C66.73,86.8,67.07,98,67.07,98Z"/><circle class="cls-6" cx="62.62" cy="75.2" r="5.7"/><circle class="cls-6" cx="43.33" cy="68.18" r="10.08"/><circle class="cls-6" cx="82.78" cy="54.15" r="10.08"/><circle class="cls-6" cx="48.15" cy="49.33" r="5.26"/><circle class="cls-6" cx="63.05" cy="58.98" r="7.01"/><circle class="cls-6" cx="91.11" cy="73.88" r="7.01"/><circle class="cls-6" cx="63.49" cy="38.37" r="8.33"/><circle class="cls-6" cx="77.52" cy="71.69" r="3.95"/><path class="cls-7" d="M88.33,51.24V52h-.75a.4.4,0,0,1-.41.38h-9A.4.4,0,0,1,77.8,52h-.75v-.75L82.69,49Zm0,7.52v.75H77.05v-.75a.39.39,0,0,1,.41-.38H87.92A.39.39,0,0,1,88.33,58.76Zm-8.27-6v4.51h.75V52.74h1.5v4.51h.76V52.74h1.5v4.51h.75V52.74h1.5v4.51h.35a.4.4,0,0,1,.41.38V58H77.8v-.37a.4.4,0,0,1,.41-.38h.35V52.74Z"/><text class="cls-8" transform="translate(87.75 76.68)"></text><text class="cls-9" transform="translate(59.69 42.97)"></text><text class="cls-10" transform="translate(57.94 78.25)"></text><text class="cls-10" transform="translate(43.91 51.94)"></text><text class="cls-11" transform="translate(58.81 62.47)"></text><text class="cls-12" transform="translate(74.6 73.86)"></text><path class="cls-7" d="M46.7,73.14a3,3,0,0,0,.25-.66.31.31,0,0,0,0-.27l-.07-.06a.43.43,0,0,0-.18,0h0l-.67.11a1.38,1.38,0,0,1-.87-.1,1.42,1.42,0,0,1-.76-.93,1.83,1.83,0,0,1,.12-1.29,1.85,1.85,0,0,1,.91-.92,1.44,1.44,0,0,1,1.2,0,1.37,1.37,0,0,1,.64.62l.34.58h0l0,0s.06.07.1.08a.15.15,0,0,0,.09,0,.33.33,0,0,0,.23-.15,3.13,3.13,0,0,0,.34-.62l1.27-2.71-2.82-1.32a3.86,3.86,0,0,1-.68-.39.65.65,0,0,1-.28-.46.55.55,0,0,1,0-.27.72.72,0,0,1,.27-.29l.59-.36h0a1,1,0,0,0,.45-.48,1,1,0,0,0,0-.91,1.57,1.57,0,0,0-1.8-.84,1.12,1.12,0,0,0-.71.58,1.08,1.08,0,0,0-.07.64v0l.11.68a.69.69,0,0,1-.05.39.5.5,0,0,1-.18.21.68.68,0,0,1-.53.08,3.63,3.63,0,0,1-.74-.27L40.56,62.6l-1.27,2.72c-.28.59-.35.9-.21,1.1a.47.47,0,0,0,.43.15l.68-.11h0a1.14,1.14,0,0,1,.77.08,1.58,1.58,0,0,1-1.32,2.83,1.25,1.25,0,0,1-.56-.53l-.35-.59a.47.47,0,0,0-.39-.23c-.25,0-.44.27-.72.86l-1.28,2.75h0l9.12,4.27a0,0,0,0,1,0,0Z"/></g></svg>