<svg xmlns="http://www.w3.org/2000/svg" xmlns:xlink="http://www.w3.org/1999/xlink" viewBox="0 0 409.22 133.24"><defs><style>.cls-1{fill:url(#linear-gradient);}.cls-2{fill:url(#linear-gradient-2);}.cls-3,.cls-7{stroke-miterlimit:10;}.cls-3{stroke-width:8px;fill:url(#linear-gradient-3);stroke:url(#linear-gradient-4);}.cls-4{fill:#72be44;}.cls-5{font-size:26.05px;font-family:Poppins-SemiBold, Poppins;font-weight:600;}.cls-5,.cls-6{fill:#fff;}.cls-7{fill:none;stroke:#72be44;stroke-width:0.83px;}</style><linearGradient id="linear-gradient" x1="41.22" y1="66.62" x2="409.22" y2="66.62" gradientUnits="userSpaceOnUse"><stop offset="0" stop-color="#72be44"/><stop offset="0.41" stop-color="#74bf46"/><stop offset="0.65" stop-color="#7bc14f"/><stop offset="0.85" stop-color="#86c55d"/><stop offset="1" stop-color="#94ca6e"/></linearGradient><linearGradient id="linear-gradient-2" x1="41.22" y1="66.62" x2="409.22" y2="66.62" gradientUnits="userSpaceOnUse"><stop offset="0" stop-color="#94ca6e"/><stop offset="0.41" stop-color="#92c96c"/><stop offset="0.65" stop-color="#8bc763"/><stop offset="0.85" stop-color="#80c355"/><stop offset="1" stop-color="#72be44"/></linearGradient><linearGradient id="linear-gradient-3" x1="9.32" y1="66.62" x2="123.88" y2="66.62" xlink:href="#linear-gradient"/><linearGradient id="linear-gradient-4" x1="5.32" y1="66.62" x2="127.88" y2="66.62" xlink:href="#linear-gradient-2"/></defs><title>img1_btn1</title><g id="cortar"><rect class="cls-1" x="41.22" y="23.62" width="368" height="86" rx="43"/><path class="cls-2" d="M366.22,30.54a36.08,36.08,0,1,1,0,72.16h-282a36.08,36.08,0,0,1,0-72.16h282m0-6.92h-282a43,43,0,0,0-43,43h0a43,43,0,0,0,43,43h282a43,43,0,0,0,43-43h0a43,43,0,0,0-43-43Z"/><circle class="cls-3" cx="66.6" cy="66.62" r="57.28"/><path class="cls-4" d="M48.86,2.43a1.24,1.24,0,0,0-.27,0h-.87l-.07,0h0l-1,.33h0l-.06,0h-.28a1,1,0,0,0-.64,1.26,1,1,0,0,0,1,.7,1,1,0,0,0,.3,0c.75-.24,1.51-.47,2.27-.68a1,1,0,0,0-.27-2ZM38.38,6.36a.9.9,0,0,0-.42.1A65.57,65.57,0,0,0,28.45,12h0v0h0l0,0h0l-.1.07h-.15l-.05,0h-.17v0h-.21l-.06,0h0l0,0h-.09l0,0h0l-.11.08h-.05l0,0h0c-.47.34-.93.69-1.39,1a1,1,0,0,0,.62,1.79,1,1,0,0,0,.61-.21A65.25,65.25,0,0,1,38.81,8.26a1,1,0,0,0-.43-1.9Zm-15,9.84a1,1,0,0,0-.65.25c-.62.54-1.22,1.08-1.81,1.64a1,1,0,0,0,0,1.41,1,1,0,0,0,1.41.05c.57-.54,1.16-1.08,1.75-1.59a1,1,0,0,0-.66-1.76Zm-7.76,8.06a1,1,0,0,0-.78.36A67.09,67.09,0,0,0,7.17,36.49a1,1,0,0,0,.44,1.35A1,1,0,0,0,9,37.4a64.87,64.87,0,0,1,7.48-11.51,1,1,0,0,0-.77-1.63Zm-9.3,15.3a1,1,0,0,0-.92.6c-.09.21-.18.41-.26.62h0v0h0v0h0v.06h0v0h0l0,0h0l0,.07h0l0,.07H5l-.51,1.27a1,1,0,0,0,.57,1.3,1.13,1.13,0,0,0,.36.06,1,1,0,0,0,.94-.63c.28-.73.58-1.47.89-2.19a1,1,0,0,0-.52-1.31.89.89,0,0,0-.39-.09ZM2.81,50.17a1,1,0,0,0-1,.77c-.15.59-.28,1.19-.41,1.8h0v0h0v0h0v0h0v0h0v0h0v0h0v0h0v0h0v0h0v0h0v.06h0v0h0v0h0v0h0v0h0v0h0v0h0v0h0v0h0v0h0v0h0A67.37,67.37,0,0,0,.15,61.77h0v0h0v0h0v0h0v0h0v0h0v0h0v0h0v0h0v0h0v0h0v0h0v.08h0v0h0v0h0v0h0v0h0v0h0v0h0v0h0v0h0v0h0v0h0C.06,63.32,0,64.15,0,65a1,1,0,0,0,1,1H1a1,1,0,0,0,1-1A64.66,64.66,0,0,1,3.78,51.41,1,1,0,0,0,3,50.2a.91.91,0,0,0-.23,0ZM1,68H1a1,1,0,0,0-1,1q0,.91.09,1.83h0v.07h0v0h0v0h0v0h0v.07h0c0,.11,0,.22,0,.33a1,1,0,0,0,1,.92h.07a1,1,0,0,0,.93-1.07c-.06-.78-.1-1.57-.13-2.36a1,1,0,0,0-1-1ZM2.37,79.11a.75.75,0,0,0-.21,0,1,1,0,0,0-.77,1.18h0v0h0v0h0v0h0v0h0v0h0v0h0v0h0v0h0v0h0v0h0v0h0v.06h0v0h0v0h0v0h0v0h0v0h0v0h0l0,.1h0v0h0v0h0v0h0v0h0v0h0v0h0v.06h0v0h0v0h0v0h0v0h0v0h0v0h0v0h0v0h0l0,.09h0v0h0v0h0v0h0v0h0v0h0v0h0l0,.12h0v0h0v0h0v0h0v0h0v0h0v0h0v0h0v0h0l0,.1h0v0h0v0h0v0h0v0h0v0h0v0H2v0H2v0H2l0,.1H2v0H2v0H2v0H2v0H2v0H2v0H2v0H2v0H2l0,.1h0v0h0v0h0v0h0v0h0v0h0v0h0v0h0l0,.12h0v0h0v0h0v0h0v0h0v0h0v0h0v0h0v0h0l0,.12h0v0h0v0h0v0h0v0h0v0h0v0h0l0,.09h0v0h0v0h0v0h0v0h0v0h0v0h0v0h0l0,.12h0v0h0v0h0v0h0v0h0v0h0v0h0l0,.08h0v0h0v0h0v0h0v0h0v0h0v0h0v0h0l0,.07h0v0h0v0h0v0h0v0h0v0h0v0h0v0h0v0h0l0,.09h0v0h0v0h0v0h0v0h0v0h0v0h0l0,.07h0v0h0v0h0v0h0v0h0v0h0v0h0v0h0v0h0v0h0v0h0v0h0v0H3v0H3v0H3v0H3v0H3v0H3v0H3v0H3v0h0v0h0v0h0l0,.06h0v0h0v0h0v0h0v0h0v0h0l0,0v0h0v0h0v0h0v0h0v0h0v0h0v0h0v0h0v0h0v0h0v0h0v0h0v0h0v0h0v0h0v0h0v0h0v0h0v0h0v0h0v0h0l0,0h0v0h0v0h0v0h0v0h0v0h0v0h0v0h0v0h0v0h0v0h0v0h0v0h0v0h0v0h0l0,.08h0v0h0v0h0v0h0v0h0v0h0v0h0v0h0v0h0v0h0v0h0v0h0v0h0v0h0v0h0v0h0v0h0v0h0v0H4v0H4v0H4v0H4v0H4v0H4v0H4v0H4v0H4l0,.08h0v0h0v0h0v0h0v0h0v0h0v0h0v0h0v0h0v0h0v0h0l0,0h0v0h0v0h0v0h0v0h0v0h0v0h0v0h0v0h0l0,.07h0v0h0v0h0v0h0v0h0v0h0v0h0v0h0v0h0v0h0v0h0v0h0v0h0v0h0l0,0h0v0h0v0h0v0h0v0h0v0h0v0h0v0h0v0h0v0h0v0h0v0h0v0h0v0h0v0h0v0h0v0h0l0,0h0v0h0v0h0v0h0v0h0v0h0l0,0h0v0H5v0H5v0H5v0H5v0H5l0,0H5v0h0v0h0v0h0v0h0v0h0l0,0h0v0h0v0h0v0h0v0h0v0h0l0,.11h0v0h0v0h0v0h0v0h0v0h0l.06.16h0v0h0v0h0v0h0v0h0v0h0c.08.18.15.36.24.54a1,1,0,0,0,.91.59,1,1,0,0,0,.41-.08A1,1,0,0,0,7.57,93,63.82,63.82,0,0,1,3.35,79.9a1,1,0,0,0-1-.79ZM8.4,96a1,1,0,0,0-.46.12,1,1,0,0,0-.43,1.35q.45.85.93,1.71h0l0,.06h0v0h0v0h0v.06h0v0l0,0h0v0h0l.08.16a1,1,0,0,0,1.37.37,1,1,0,0,0,.37-1.36c-.39-.69-.77-1.38-1.13-2.08A1,1,0,0,0,8.4,96Zm6,9.44a1,1,0,0,0-.8,1.61c.63.82,1.27,1.62,1.93,2.4h0v0h0l.1.13h0l0,0h0l0,0h0v0h.06l0,0h0v0H16l0,0h.13l.06.07h.05v0h0v0h0l.12.13h0v0h0l0,0h0a67,67,0,0,0,4.76,4.92h0l0,0h0l0,0h0l.11.1h0v0h0v0h0l.07.07h.14l0,0h.15l0,0h0l0,0h0v0H22v0h0l0,0h0l0,0h0l.08.07h0l0,0h0l0,0h0l0,0h0l1.19,1a1,1,0,0,0,1.3-1.52,65.5,65.5,0,0,1-9.44-10,1,1,0,0,0-.79-.4ZM27.11,118a1,1,0,0,0-.8.4,1,1,0,0,0,.2,1.4h.06l0,0h0l0,0h0l0,0h0l0,0h0l.06,0h0c.57.42,1.15.84,1.73,1.24a.92.92,0,0,0,.57.18,1,1,0,0,0,.82-.42,1,1,0,0,0-.25-1.4c-.64-.44-1.28-.91-1.91-1.38a1,1,0,0,0-.6-.21Zm9.47,6a1,1,0,0,0-.46,1.89c1.3.67,2.61,1.29,4,1.87h0l.3.13h0l.31.13h0l.18.08H41l.16.07h.18l.1,0h.18l.1,0h.21l.07,0h.23l0,0H43.7l.06,0H44l.09,0h.15l.17.06h.15l.16.06h.1l.24.09h0l.29.1h0c1.31.44,2.65.84,4,1.2a1.15,1.15,0,0,0,.26,0,1,1,0,0,0,.26-2,64.57,64.57,0,0,1-12.8-5,1.07,1.07,0,0,0-.46-.11Zm16.89,5.94a1,1,0,0,0-1,.8,1,1,0,0,0,.78,1.18l1,.2h.33l1.05.18h.16a1,1,0,0,0,.17-2c-.78-.13-1.56-.27-2.33-.43l-.2,0Zm25,.24a.55.55,0,0,0-.18,0,65.38,65.38,0,0,1-11.71,1.05l-2,0h0a1,1,0,0,0,0,2l1.07,0h9.14l.11,0H75l.13,0h.08l.21,0h0c1.1-.15,2.19-.32,3.27-.52a1,1,0,0,0-.18-2Zm6.23-1.46a.84.84,0,0,0-.27,0c-.76.22-1.53.42-2.29.61a1,1,0,0,0,.24,2l.24,0,.44-.11h1.41l.07,0h0l.44-.13a1,1,0,0,0-.28-2Zm20.36-9.92a1,1,0,0,0-.59.19,64.8,64.8,0,0,1-11.9,6.83,1,1,0,0,0,.4,1.91,1.1,1.1,0,0,0,.4-.08c1.91-.84,3.77-1.77,5.57-2.77h0l1-.55h0l.21-.12h0l0,0h0l.19-.11h0l0,0h0l.18-.11h0l0,0h0l0,0h0l.14-.08h0l0,0h0l.15-.09h.07l0,0h0l.1-.06h0l0,0h0l0,0h.05l.12-.07h0l0,0h.08l.09-.06h.07l0,0h.07l0,0h.17v0h0l0,0h.44l0,0h.18l.08,0H103l.1-.07h.15l.08-.06h0l0,0h.07l.14-.1h.09a.91.91,0,0,1,.16-.11h0l0,0h0c.6-.41,1.19-.82,1.78-1.25a1,1,0,0,0,.22-1.39,1,1,0,0,0-.81-.41Zm5-4a1,1,0,0,0-.66.25c-.59.52-1.19,1-1.8,1.54a1,1,0,0,0-.14,1.4,1,1,0,0,0,.78.37,1,1,0,0,0,.63-.23l0,0h0l.39-.32h0l0-.05h0l0,0h0l0,0h0v0h.06l0,0h0l0,0h0l0,0h0l.06,0h0l.06-.05h0l1-.85a1,1,0,0,0,.09-1.41,1,1,0,0,0-.75-.34Zm14.14-17.7a1,1,0,0,0-.88.52,65.22,65.22,0,0,1-7.83,11.27,1,1,0,0,0,.1,1.41,1,1,0,0,0,1.41-.1h.13l0,0h0v0h.15l0,0h0v0h0v0h0v0h.07l0,0h0l0,0h0v0h0v0h.09l0,0h0l0,0h0v0h0v0h0l0,0h.07l0-.06h0l0,0h0l0,0h0l0,0h0l.09-.1h0v0h0l0,0h0v0h0v0h0l0,0h0l0-.07h0v0h0l0,0h0l0,0h0v0h0l0,0h0l.09-.11h0l0,0h0v0h0l0,0h0l0,0h0l.08-.11h0l0,0h0l0,0h0v0h0l0,0h0l.09-.11h0v0h0v0h0l0,0h0l0,0h0l.13-.17h0l.31-.39h0l0,0h0v0h0q1.38-1.77,2.63-3.63h0a2.14,2.14,0,0,1,.13-.19h0l0,0h0l.09-.14h0v0h0v0h0l0,0h0v0h0l0,0h0l0-.07h0v0h0l0,0h0v0h0v0h0v0h0v0h0l0,0h0l0,0h0v0h0v0h0l0,0h0v0h0l0,0h0v0h0v0h0v0h0v0h0v0h0v0h.05v0h0l0-.06h0v0h0v0h0v0h0v0h0v0h0l.08-.12h0v0h0v0h0v0h0l.11-.17h0c.67-1.08,1.31-2.18,1.93-3.3a1,1,0,0,0-.4-1.35,1.07,1.07,0,0,0-.48-.12ZM127,91.32a1,1,0,0,0-.92.61c-.31.72-.63,1.45-1,2.16a1,1,0,0,0,.48,1.33,1.11,1.11,0,0,0,.43.09,1,1,0,0,0,.9-.57c.18-.38.35-.75.52-1.13h0l0-.07h0v0h0v0h0v0h0v0h0v0h0v0h0v0h0v0h0v0h0v0h0v-.06h0v-.06h0v-.06h0v-.06h0v-.06h0V93h0v0h0v0h0v0h0l0,0h0l0-.06h0l0-.05a1,1,0,0,0-.53-1.31,1.09,1.09,0,0,0-.39-.08Zm5.12-22.06a1,1,0,0,0-1,.95,64.42,64.42,0,0,1-2.2,13.54,1,1,0,0,0,.7,1.23,1.27,1.27,0,0,0,.26,0,1,1,0,0,0,1-.74,66.14,66.14,0,0,0,1.76-8.62h0c0-.11,0-.22,0-.33h0v0h0v0h0v0h0v0h0v0h0v0h0v0h0v0h0l0-.16h0v0h0v0h0v0h0v0h0v0h0v0h0v0h0v0h0v0h0v0h0v-.09h0v0h0v0h0v0h0v0h0v0h0v0h0v0h0v0h0v0h0v0h0v0h0c.14-1.28.25-2.58.32-3.88a1,1,0,0,0-.94-1Zm0-6.4h0a1,1,0,0,0-1,1c0,.78.05,1.58.05,2.36a1,1,0,0,0,1,1h0a1,1,0,0,0,1-1c0-.6,0-1.19,0-1.79h0v0h0v-.08h0V64.2h0v0h0v0h0v0h0a2.35,2.35,0,0,1,0-.26,1,1,0,0,0-1-1Zm-4.83-22.13a1,1,0,0,0-.38.07,1,1,0,0,0-.55,1.31,63.56,63.56,0,0,1,3.82,13.18,1,1,0,0,0,1,.82h.17a1,1,0,0,0,.81-1.16,66,66,0,0,0-3.94-13.59,1,1,0,0,0-.92-.62Zm-2.72-5.8a1,1,0,0,0-.88,1.47c.37.7.72,1.41,1.07,2.11a1,1,0,0,0,.9.57,1.12,1.12,0,0,0,.43-.1,1,1,0,0,0,.47-1.34l-.18-.36h0l0,0h0v0h0l0,0h0v0h0v0h0V37h0v0h0l0,0h0l0-.06h0l0-.06h0l0-.07h0l0-.07h0l0-.06h0l0-.06h0l0-.07h0l0-.07h0l0-.07h0l0-.06h0l0,0h0l0,0h0v0h0v0h0l0,0h0l0,0h0v0h0v0h0l0,0h0v0h0v0h0v0h0l0,0h0v0l0,0h0v0h0l0-.06h0l-.12-.23a1,1,0,0,0-.88-.53Zm-13.9-17.88a1,1,0,0,0-.74.32,1,1,0,0,0,.07,1.42A65.38,65.38,0,0,1,119.18,29a1,1,0,0,0,.81.42,1,1,0,0,0,.58-.19,1,1,0,0,0,.24-1.39,67.24,67.24,0,0,0-4.93-6.09h0v0h0l0,0h0l0,0h0l-.11-.12h0l0,0h0l0,0h0v0h0l-.08-.09h0v0h-.08v0h0l-.06-.07h0v0h0v0h-.09l0,0h0l0,0h0v0h-.07l0,0H115v0h0v0h0v0h0v0h0l0,0h0v0h0l0,0h0l0,0h0l0,0h0l0,0h0l0,0h0l0,0h0l0-.06h0l0,0h0l0,0h0l0,0h0l0,0h0l0,0h0l0,0h0l-.08-.08h0v0h0v0h0v0h0l0,0h0c-1-1-2-2-3-2.92a1,1,0,0,0-.68-.26ZM105.78,13a1,1,0,0,0-.8.4,1,1,0,0,0,.21,1.4c.62.47,1.25,1,1.87,1.45a1,1,0,0,0,.62.22,1,1,0,0,0,.78-.38,1,1,0,0,0-.15-1.4l-.39-.31h0l-.06,0h0l0,0h0l0,0h0l0,0h0l0,0h0v0h-.08l0,0h0l-1-.75h0l0,0h0l0,0h0l-.09-.07a1,1,0,0,0-.6-.19ZM85.56,2.78a1,1,0,0,0-.29,2,64.08,64.08,0,0,1,12.64,5.34,1,1,0,0,0,.48.12,1,1,0,0,0,.88-.51,1,1,0,0,0-.39-1.36h-.13l-.08,0h-.18l-.08,0h-.19l-.08,0H98l-.09,0h-.18l-.09,0h-.16l-.13-.06H97.2L97,7.35h-.13l-.13-.07h-.12l-.18-.09h-.09l-.16-.07h-.11l-.18-.09h-.09l-.18-.09h0l0,0h0l-.16-.07H95.3l-.18-.08h0l0,0h0l-.27-.13h0a67,67,0,0,0-9-3.42.9.9,0,0,0-.28,0ZM79.35,1.24a1,1,0,0,0-.19,2c.77.15,1.54.32,2.31.5a.86.86,0,0,0,.23,0,1,1,0,0,0,.22-2l-.59-.14h-.07l-.08,0h0l-.07,0h0l-1.57-.32a.62.62,0,0,0-.19,0ZM66.6,0H58.79l-.12,0h-1l-.13,0h-1l-.12,0H56l-.15,0h-.36l-.18,0H55l-.1,0h-1l-.09,0H52.53a1,1,0,0,0,.21,2,.76.76,0,0,0,.21,0A65.63,65.63,0,0,1,66.6,2h0c1.32,0,2.65,0,4,.12h.06a1,1,0,0,0,.06-2L69.54.06H66.6Z"/><path class="cls-4" d="M49.79,5.81a.47.47,0,0,0-.17,0h0l-.06,0h0c-.51.14-1,.29-1.52.45h-.26l-.35.1a.68.68,0,0,0-.43.83.66.66,0,0,0,.63.46.64.64,0,0,0,.2,0c.72-.23,1.44-.44,2.17-.64a.66.66,0,0,0-.18-1.3Zm-14.33,6a.62.62,0,0,0-.32.09l-.23.13h-.06l0,0h-.08l0,0h0c-.75.44-1.48.89-2.2,1.35h0l0,0h0l0,0h0l0,0h-.06l0,0h-.16l-.08,0h0l-.19.13a.66.66,0,0,0-.18.91.65.65,0,0,0,.55.3.69.69,0,0,0,.36-.11c1-.69,2.12-1.36,3.2-2a.66.66,0,0,0,.25-.9.68.68,0,0,0-.58-.33ZM30.34,15.1a.68.68,0,0,0-.38.12c-1,.73-2,1.48-3,2.26h0l0,0h0l-.13.1h0l0,0h0l0,0h0l-.11.09h0v0h0v0h0l0,0h0l-.11.09h0v0h-.08l-.07.06h-.08v0h0l-.06.05h-.14v0h0l-.05,0h-.14l0,0h-.16l0,0h-.15l0,0h-.17v0H25l0,0h0v0h-.34v0h-.18l0,0H24.2l0,0h0v0H24l0,0h0v0h-.12l-.06.06h-.12v0h0l0,0h-.16v0h-.16v0h0l0,0H23.1v0h0v0h-.16v0h0v0h-.16v0h-.16l0,0h-.15l0,0H22.2l0,0H22v0h0l0,0h0v0h-.11l0,0h-.12l0,0h0l0,0h-.11v0h0l-.05,0h0v0h0v0h0v0h0l0,0h0l-.08.09h0v0h0v0h0l-.1.1h0l0,0h0l0,0h0l-.1.1h0l0,0h0l0,0h0l0,0h0l-.12.13h0l0,0h0l-.13.14h0l0,0h0l0,0h0l-.14.15h0v0h0c-.13.13-.25.27-.37.4a.66.66,0,0,0,.49,1.1.64.64,0,0,0,.49-.22,62.33,62.33,0,0,1,9.8-8.71.66.66,0,0,0-.38-1.2ZM18,26.8a.66.66,0,0,0-.51.25c-.48.6-1,1.21-1.42,1.83a.67.67,0,0,0,.14.92.65.65,0,0,0,.92-.14c.45-.6.92-1.2,1.39-1.78A.67.67,0,0,0,18,26.8ZM9.79,40a.66.66,0,0,0-.6.38c-.5,1.1-1,2.2-1.41,3.32h0l0,.12h0l0,.11h0a.65.65,0,0,0,.37.85.69.69,0,0,0,.24.05.67.67,0,0,0,.61-.43c.45-1.16.95-2.33,1.47-3.47a.66.66,0,0,0-.6-.93ZM7.53,45.67a.66.66,0,0,0-.63.45c-.16.46-.31.93-.46,1.39h0v0h0v0h0c0,.07,0,.14-.07.2h0v0h0v0h0v0h0v0h0v0h0l0,.13h0v0h0v0h0v0h0v0h0v0h0v0h0v0h0v0h0v0h0v0h0v0h0v0h0v0h0v0H6v0H6v0H6v0H6v0H6v0H6v0H6v0H6l0,.1H6v0h0v0h0v0h0v0h0v0h0v0h0l0,.12h0v0h0v0h0v0h0v0h0v0h0l-.06.2h0v0h0v0h0a61.25,61.25,0,0,0-1.84,9.38.65.65,0,0,0,.57.73h.08a.67.67,0,0,0,.66-.58A61,61,0,0,1,8.15,46.55a.66.66,0,0,0-.41-.84.78.78,0,0,0-.21,0ZM4.24,62.39a.66.66,0,0,0-.66.62c0,.77-.07,1.54-.08,2.32a.64.64,0,0,0,.64.66h0a.65.65,0,0,0,.65-.64c0-.75.05-1.51.09-2.26a.66.66,0,0,0-.62-.69ZM5.3,77.89l-.12,0a.66.66,0,0,0-.53.76c.12.61.25,1.22.38,1.82H5v0H5v.06h0v0h0v.06h0v0h0v.06h0v0h0v0h0v0h0v0h0v0h0v0h0v0h0v0h0v0h0v0h0v0h0v0h0v0h0v0h0v0h0v0h0v0h0v0h0v0h0v0h0v0h0l0,.06h0v0h0v.06h0v0h0c.06.27.13.54.2.81a.65.65,0,0,0,.64.49.44.44,0,0,0,.16,0,.66.66,0,0,0,.48-.8c-.31-1.21-.59-2.44-.83-3.67a.66.66,0,0,0-.65-.54Zm1.45,5.92a.63.63,0,0,0-.19,0,.64.64,0,0,0-.44.81A62.3,62.3,0,0,0,11.28,97a.65.65,0,0,0,.58.34.6.6,0,0,0,.31-.08.65.65,0,0,0,.26-.89,62.08,62.08,0,0,1-5-12.11.66.66,0,0,0-.63-.47Zm7,15.52a.64.64,0,0,0-.35.1.66.66,0,0,0-.21.91c.18.28.37.56.55.85h0l0,.06h0l0,0h0l0,0h0l0,0h0l0,0h0l0,0h0l0,0h0l0,0h0l0,0h0l0,0h0l0,0h0l0,0h0l0,0h0l0,0h0l0,0h0l0,0h0l0,0h0l0,0h0l0,0h0l0,0h0l0,0h0l0,0h0l0,0h0l0,.06h0l0,0h0l.18.27a.68.68,0,0,0,.55.28.7.7,0,0,0,.37-.11.66.66,0,0,0,.17-.92c-.42-.62-.84-1.25-1.24-1.89a.66.66,0,0,0-.56-.3Zm9.88,12a.63.63,0,0,0-.48.2.66.66,0,0,0,0,.93h0l.05,0h0l0,0h.1l0,0h0v0h0v0h0v0h0l0,0h0l0,0h0l0,0h0l0,0h0l0,0h.07l0,0h.05v0h0l0,0h0l0,0h0v0h0l0,0h0v0h0v0h0l0,0h0l0,0h0l0,0h0l0,0h0c.46.42.93.83,1.4,1.23h0v0h0l0,0h.05v0h0l0,0h0l0,0h0l.19.15a.66.66,0,0,0,.42.15.69.69,0,0,0,.51-.23.66.66,0,0,0-.09-.93c-1-.8-1.9-1.65-2.81-2.5a.66.66,0,0,0-.45-.18Zm4.62,4a.66.66,0,0,0-.41,1.18c.5.38,1,.76,1.51,1.13h0l.09.06h0l.06,0h0l0,0h0l0,0h.17l0,0h.06l0,0h.35l.05,0h.06l.05,0h0l.06,0h0l.09.06h0l.09.06h0l0,0h0l.08.06h0l.3.2h0l.29.19h0l1.07.71h0l.11.07h0l.11.07h0l.07,0h0l.09,0h0l0,0h0l.07,0h0l0,0h0l.07,0h0l.07,0h0l.07,0h0l0,0h0l.05,0h.06l.05,0h.16l0,0H34l0,0h.18l0,0h.07l0,0h.16l0,0h.05l.06,0h.05l0,0h0l.07,0h0l.09.06h0l.09,0h0c1.36.79,2.76,1.52,4.18,2.21a.71.71,0,0,0,.28.06.68.68,0,0,0,.6-.37.66.66,0,0,0-.31-.88,62.3,62.3,0,0,1-11.16-6.91.67.67,0,0,0-.4-.14ZM43,123.81a.66.66,0,0,0-.61.41.67.67,0,0,0,.36.86l.22.08h.12l0,0h0c.58.23,1.16.46,1.75.67a.57.57,0,0,0,.22,0,.65.65,0,0,0,.62-.43.66.66,0,0,0-.39-.85c-.7-.25-1.41-.53-2.11-.81a.7.7,0,0,0-.25,0Zm15,4a.66.66,0,0,0-.65.57.65.65,0,0,0,.56.74c1.27.18,2.54.31,3.83.41h0a.66.66,0,0,0,.05-1.31c-1.25-.1-2.51-.23-3.75-.4Zm19.3-.36h-.11L76,127.7a62.55,62.55,0,0,1-9.45.72c-.79,0-1.59,0-2.39,0h0a.66.66,0,0,0,0,1.32h.09l2,0h.34a63.3,63.3,0,0,0,9.65-.74h.06l1.23-.2A.64.64,0,0,0,78,128a.66.66,0,0,0-.65-.55Zm6-1.33-.18,0c-.72.2-1.46.39-2.19.56a.67.67,0,0,0-.49.8.65.65,0,0,0,.64.5h.16l.21-.05h.26c.59-.14,1.18-.3,1.76-.46a.66.66,0,0,0,.46-.81.65.65,0,0,0-.63-.48Zm15.65-6.74a.67.67,0,0,0-.34.09c-1.07.65-2.18,1.27-3.28,1.86a.64.64,0,0,0-.28.88.66.66,0,0,0,.58.36.68.68,0,0,0,.31-.08c1.14-.6,2.26-1.23,3.35-1.89a.65.65,0,0,0,.22-.9.64.64,0,0,0-.56-.32Zm12.18-9.64a.61.61,0,0,0-.47.2,62.69,62.69,0,0,1-10.14,8.33.65.65,0,0,0-.19.91.68.68,0,0,0,.55.3.69.69,0,0,0,.36-.11h0l.09-.06h0l0,0h0l0,0h0l.11-.07h.09l.13-.09h0l0,0h0l0,0h0l.13-.09h0l0,0h0l1.06-.74h0l.17-.12h0l0,0h0l.38-.28h0l0,0h0l.1-.07h0l0,0H104l0,0h0l.08-.06h0v0h0l0,0h0l.06,0h0l0,0h0v0h.09l.06,0h.13l0,0h0l0,0h0l0,0h0v0h.11l0,0h.36l.07,0h0l0,0h.06l0,0h0l.09-.07h0l0,0h.08l.14-.12h0l0,0h0L106,116h0a64.92,64.92,0,0,0,5.64-5.09.66.66,0,0,0,0-.93.65.65,0,0,0-.46-.19Zm4-4.55a.66.66,0,0,0-.51.25c-.48.58-1,1.16-1.46,1.73a.65.65,0,0,0,.07.93.64.64,0,0,0,.43.16.7.7,0,0,0,.5-.22c.5-.59,1-1.18,1.48-1.78a.66.66,0,0,0-.51-1.07ZM124,90.63a.65.65,0,0,0-.6.4c-.5,1.15-1,2.3-1.6,3.41a.67.67,0,0,0,.29.89A.67.67,0,0,0,123,95c.09-.19.18-.38.28-.56h0l0-.07h0v0h0v0h0l0,0h0v0h0v0h0v0h0v0h0l0-.06h0v0h0c.4-.83.78-1.66,1.15-2.51a.65.65,0,0,0-.35-.86.58.58,0,0,0-.26-.06Zm4.32-14.91a.66.66,0,0,0-.65.55,61.35,61.35,0,0,1-3.42,12.67.66.66,0,0,0,.38.85.69.69,0,0,0,.24,0,.66.66,0,0,0,.61-.42c.28-.72.55-1.44.8-2.17h0v0h0v0h0v0h0v0h0v0h0l0-.11h0v0h0v0h0v0h0v0h0v0h0v0h0v0h0v0h0v0h0l0-.09h0v0h0v0h0v0h0v0h0v0h0v0h0v0h0l0-.12h0v0h0v0h0v0h0v0h0a62.15,62.15,0,0,0,2.3-9.6.67.67,0,0,0-.54-.76Zm.65-6.06a.66.66,0,0,0-.65.62c-.05.75-.1,1.51-.18,2.26a.66.66,0,0,0,.6.71h.06a.67.67,0,0,0,.66-.6,1.49,1.49,0,0,1,0-.21h0v0h0v0h0v0h0v0h0v0h0c0-.32.05-.63.08-1h0v0h0v0h0v0h0v0h0v0h0c0-.26,0-.51.05-.77a.66.66,0,0,0-.62-.7Zm-1.33-17h-.14a.66.66,0,0,0-.5.79c.26,1.22.49,2.46.69,3.7a.66.66,0,0,0,.65.56h.1A.66.66,0,0,0,129,57l-.12-.75h0l0-.08h0v0h0v-.05h0v0h0v0h0v0h0v-.06h0v0h0c-.15-.88-.33-1.76-.51-2.64a.66.66,0,0,0-.65-.51ZM122.47,38a.65.65,0,0,0-.59.95,62.28,62.28,0,0,1,4.58,12.3.66.66,0,0,0,.64.49.44.44,0,0,0,.16,0,.66.66,0,0,0,.48-.79,63,63,0,0,0-4.69-12.59.66.66,0,0,0-.58-.34Zm-3-5.31a.64.64,0,0,0-.35.1.66.66,0,0,0-.21.91c.4.63.8,1.29,1.17,1.93a.66.66,0,0,0,.57.33.63.63,0,0,0,.33-.09.65.65,0,0,0,.25-.88c-.39-.68-.8-1.35-1.21-2a.67.67,0,0,0-.55-.29Zm-11-13a.68.68,0,0,0-.49.22.65.65,0,0,0,0,.93c.93.84,1.85,1.72,2.72,2.61a.67.67,0,0,0,.47.2.63.63,0,0,0,.46-.19.65.65,0,0,0,0-.91c-.91-.93-1.85-1.83-2.81-2.7a.67.67,0,0,0-.42-.16ZM95.8,10.75a.67.67,0,0,0-.59.35.66.66,0,0,0,.28.89,62.34,62.34,0,0,1,10.88,7.34.66.66,0,0,0,.42.15.68.68,0,0,0,.51-.23.66.66,0,0,0-.06-.91,62.72,62.72,0,0,0-11.16-7.52.58.58,0,0,0-.28-.07ZM90.28,8.16a.67.67,0,0,0-.61.41.65.65,0,0,0,.36.86c.69.29,1.39.59,2.08.9a.63.63,0,0,0,.27.06A.65.65,0,0,0,93,10a.66.66,0,0,0-.31-.86c-.71-.32-1.43-.64-2.16-.93a.59.59,0,0,0-.23-.05ZM73.78,3.91a.65.65,0,0,0-.65.58.64.64,0,0,0,.57.73c1.25.15,2.5.33,3.73.55h.12a.66.66,0,0,0,.12-1.31c-1.26-.22-2.54-.41-3.82-.56Zm-7.1-.41h0A64.47,64.47,0,0,0,57,4.24h-.33l-.1,0h-.08q-1.61.25-3.18.6a.66.66,0,0,0-.51.78.66.66,0,0,0,.65.52h.14c1.19-.26,2.4-.48,3.61-.67a63.64,63.64,0,0,1,9.44-.72h0c1.59,0,3.2.06,4.77.19h.06a.65.65,0,0,0,.65-.61.66.66,0,0,0-.6-.71l-1.62-.1h-.43c-.91,0-1.82-.06-2.73-.07h-.1Z"/><text class="cls-5" transform="translate(151.63 60.53)">Gobernabilidad<tspan x="0" y="25">y eficacia</tspan></text><path class="cls-6" d="M50.43,49.37a6.06,6.06,0,0,0,0,3.14c.87,3.21,4.16,4.4,4.52,4.53a11.48,11.48,0,0,0-3.48,7,11.77,11.77,0,0,0,3.14,9l-6.27,4.18a13.63,13.63,0,0,1,10.1,2.44,14.93,14.93,0,0,0,4.87,3.13,16,16,0,0,0,11.14,0l8.71,1.4L80,79.32A15.3,15.3,0,0,0,86,71.66C88.21,65,84.71,59.22,84.2,58.43l4.53-6.27a15.16,15.16,0,0,0-3.48.35,15.5,15.5,0,0,0-3.83,1.39,13.23,13.23,0,0,0-4.18-4.18c-7.47-4.59-16.86.73-17.41,1.05a6.64,6.64,0,0,1-5.57,1.39A6.39,6.39,0,0,1,50.43,49.37Z"/><path class="cls-7" d="M51.47,64c.27.34,3.23,3.61,5.4,3.66.33,0,2.1,0,2.79-1,.53-.86.14-2-.35-3.48C58.66,61.21,58,60.76,58.26,60c.39-1.11,2.16-1.36,2.44-1.4,1.65-.23,3.8.46,4.18,1.74.2.69-.26,1-1.39,3.83-.81,2-.77,2.26-.7,2.44.51,1.39,4.28,1.26,6.62,1a11.47,11.47,0,0,1-.35-7.32c.14-.45.64-2.06,1.39-2.09s.93,1.66,2.44,2.44a3.31,3.31,0,0,0,3.13,0c1.93-1.19,1.17-4.67,1-5.22-.22-1-.41-1.86-1-2.09-1-.38-2,1.41-4.18,1.39a2,2,0,0,1-1.39-.35c-1-.79-.61-2.73-.35-4.17a12.6,12.6,0,0,1,.7-2.44"/><path class="cls-7" d="M86.29,63.65c-.64-.17-3.09-.88-4.87,0-.9.45-2.58,1.6-2.44,2.79.12,1,1.39,1,2.09,2.43a3.44,3.44,0,0,1,0,3.14c-1.11,1.82-4.51,1.8-5.22.69-.32-.49.07-.93.35-3.48.13-1.19.19-1.8,0-2.09-.82-1.22-4.73,0-6.62.7a16.05,16.05,0,0,1,0,3.13c-.14,1.45-.22,2.18-.7,2.44-.82.45-1.72-1-3.48-1a3.69,3.69,0,0,0-3.13,1.74C61,76.38,63.39,80,65.05,80c1,0,1.29-1.26,3.48-2.09a3.21,3.21,0,0,1,2.09-.35c1.32.44,2,2.86,1.74,5.92"/><path class="cls-6" d="M49,40.91a.46.46,0,0,0-.65-.07l-1,.54c-.15-.51-.3-1-.43-1.42a11.37,11.37,0,0,0-.61-1.87,2,2,0,0,0-.25-.43,2.4,2.4,0,0,0-2.35-1.25,2.78,2.78,0,0,0-1.84.6c-.56.49-.63,1-1.2,2.73-.3.91-.57,1.63-.73,2a3.73,3.73,0,0,0,2,.09,3.22,3.22,0,0,0,.68.48l-2.29,1.82a.6.6,0,0,0,0,.92l1.6,1.39c-.63,1.4-1.33,2.78-1.33,2.78l1.79-.05v4.12a.65.65,0,0,0,.62.69.65.65,0,0,0,.63-.68V49.18h.62v4.17a.65.65,0,0,0,.62.69.65.65,0,0,0,.63-.68V49.13l2-.07-1.77-3.53V44.09l3.18-2.53A.47.47,0,0,0,49,40.91Zm-7.51,3.44.6-.38-.11.12v1.57l-.57-.76A.39.39,0,0,1,41.48,44.35Zm3.66-2a3,3,0,0,0,.71-.52l.07,0,.34.06A3.36,3.36,0,0,1,45.14,42.36Z"/><path class="cls-6" d="M96.3,49.75v3.39a.91.91,0,0,1-.39.81v5.18a.67.67,0,1,1-1.34,0v-5h-.39v4.94a.69.69,0,0,1-.67.7.68.68,0,0,1-.68-.68V54a.91.91,0,0,1-.39-.81V49.75l-3.2-2.56a.46.46,0,1,1,.57-.73A19.94,19.94,0,0,0,93.05,48a3,3,0,0,1,1.23-5.73h.17A3,3,0,0,1,95.67,48L98,49.85a.6.6,0,0,1,0,.93l-1.94,1.68,0-.74.82-1.14a.39.39,0,0,0-.1-.56l-.58-.39"/><path class="cls-6" d="M94,89.07h0c-.15.22-.38.13-.51,0l-2-2.35.83,4.06H91.22V94a.54.54,0,0,1-.53.54.53.53,0,0,1-.53-.54v-3.2h-.5V94a.54.54,0,0,1-.53.54A.53.53,0,0,1,88.6,94v-3.2h-1l.82-4.15-2,2.45c-.14.15-.36.24-.52,0h0a.35.35,0,0,1,0-.5s2.69-3.31,2.93-3.4A1.88,1.88,0,0,1,88.5,85a2.68,2.68,0,0,1-.65.14,2.92,2.92,0,0,1-1.42-.3A11.81,11.81,0,0,0,87.27,83c.4-1.16.33-1.56.76-2.07A2.63,2.63,0,0,1,89.79,80v0H90v0a2.68,2.68,0,0,1,1.76.91c.43.51.35.91.76,2.07a11.94,11.94,0,0,0,.83,1.88,2.9,2.9,0,0,1-1.42.3,2.79,2.79,0,0,1-.65-.14l-.23.14c.24.09,2.92,3.4,2.92,3.4A.34.34,0,0,1,94,89.07Z"/><path class="cls-6" d="M101.1,89.07h0c-.15.22-.38.13-.51,0l-2-2.35.82,4.06H98.35V94a.53.53,0,0,1-.53.54.54.54,0,0,1-.53-.54v-3.2h-.5V94a.53.53,0,0,1-.53.54.54.54,0,0,1-.53-.54v-3.2h-1l.82-4.15-2,2.45c-.13.15-.36.24-.51,0h0a.35.35,0,0,1,0-.5s2.68-3.31,2.92-3.4L95.64,85a2.87,2.87,0,0,1-.66.14,2.94,2.94,0,0,1-1.42-.3A11,11,0,0,0,94.4,83c.4-1.16.33-1.56.76-2.07A2.66,2.66,0,0,1,96.92,80v0h.24v0a2.63,2.63,0,0,1,1.76.91c.43.51.36.91.76,2.07a11.81,11.81,0,0,0,.84,1.88,2.92,2.92,0,0,1-1.42.3,2.68,2.68,0,0,1-.65-.14l-.24.14c.24.09,2.92,3.4,2.92,3.4A.35.35,0,0,1,101.1,89.07Z"/><path class="cls-6" d="M39.6,80.32S37,77.07,36.73,77a2.35,2.35,0,0,0-1.08-4.43h-.14A2.35,2.35,0,0,0,34.43,77c-.23.09-2.87,3.34-2.87,3.34a.35.35,0,0,0,0,.5h0c.15.21.37.12.5,0l1.81-2.13V81a.92.92,0,0,0,.39.64v4a.52.52,0,1,0,1,0V81.77h.5v3.84a.52.52,0,1,0,1,0v-4a.92.92,0,0,0,.39-.64V78.66l1.81,2.13c.13.15.35.24.5,0h0A.34.34,0,0,0,39.6,80.32Z"/><path class="cls-6" d="M47,80.32S44.36,77.07,44.13,77a2.35,2.35,0,0,0-1.08-4.43h-.14A2.35,2.35,0,0,0,41.83,77c-.24.09-2.87,3.34-2.87,3.34a.35.35,0,0,0,0,.5h0c.15.21.37.12.5,0l1.81-2.13V81a.92.92,0,0,0,.39.64v4a.52.52,0,1,0,1,0V81.77h.49v3.84a.53.53,0,1,0,1.05,0v-4a.92.92,0,0,0,.39-.64V78.66l1.81,2.13c.13.15.35.24.5,0h0A.34.34,0,0,0,47,80.32Z"/></g></svg>