<svg xmlns="http://www.w3.org/2000/svg" viewBox="0 0 59.39 63.34"><defs><style>.cls-1{isolation:isolate;}.cls-2{opacity:0.2;mix-blend-mode:multiply;}.cls-3{fill:#522e90;}</style></defs><title>img3_arrow</title><g class="cls-1"><g id="cortar"><g class="cls-2"><path d="M35.38,58.6,18.12,42.28a2.09,2.09,0,0,1,1.38-3.62l8.39-.23-.2-7.35C27.3,17,24.32,7.75,8.68,8.18c-1.35,0-2.69.14-4,.28-.52,0-1.11.19-1.63.21a1.07,1.07,0,0,1-1.18-1,1.06,1.06,0,0,1,.53-.94A18,18,0,0,1,4.83,5.43C9,3.45,14.91,1,19.5.86a29.63,29.63,0,0,1,11,1.43c11.44,4.25,13.71,17.57,14,28.33l.2,7.34,8.4-.23a2.11,2.11,0,0,1,2.15,2,2.06,2.06,0,0,1-.58,1.49L38.33,58.52a2.09,2.09,0,0,1-1.46.66A2.06,2.06,0,0,1,35.38,58.6Z"/></g><path class="cls-3" d="M37.54,60.76,20.28,44.44a2.09,2.09,0,0,1,1.38-3.62l8.39-.23-.2-7.35c-.39-14.13-3.37-23.33-19-22.9-1.34,0-2.69.14-4,.28-.52.05-1.11.19-1.63.21A1.06,1.06,0,0,1,4,9.81a1,1,0,0,1,.53-.93A18,18,0,0,1,7,7.59c4.15-2,10.08-4.44,14.67-4.57a29.81,29.81,0,0,1,11,1.43C44.07,8.7,46.34,22,46.64,32.78l.2,7.35,8.4-.24a2.09,2.09,0,0,1,1.57,3.54L40.49,60.68a2.07,2.07,0,0,1-3,.08Z"/></g></g></svg>