<?xml version="1.0" encoding="utf-8"?>
<!-- Generator: Adobe Illustrator 23.0.3, SVG Export Plug-In . SVG Version: 6.00 Build 0)  -->
<!DOCTYPE svg PUBLIC "-//W3C//DTD SVG 1.1//EN" "http://www.w3.org/Graphics/SVG/1.1/DTD/svg11.dtd" [
	<!ENTITY Graphic_x0020_Style_x0020_10 "fill:none;stroke:#FFFFFF;stroke-miterlimit:10;">
	<!ENTITY st0 "display:none;">
	<!ENTITY st1 "opacity:0.1;">
	<!ENTITY st2 "fill:#5B5B5F;">
	<!ENTITY st3 "fill:#5B5B5F;stroke:#5B5B5F;stroke-width:0.436;stroke-miterlimit:10;">
	<!ENTITY st4 "fill:#5B5B5F;stroke:#5B5B5F;stroke-width:0.218;stroke-miterlimit:10;">
	<!ENTITY st5 "clip-path:url(#SVGID_2_);">
	<!ENTITY st6 "opacity:0.28;fill:#FFFFFF;">
	<!ENTITY st7 "fill:none;">
	<!ENTITY st8 "opacity:0.5;">
	<!ENTITY st9 "fill:none;stroke:#5B5B5F;stroke-width:0.6541;stroke-miterlimit:10;">
	<!ENTITY st10 "fill:none;stroke:#5B5B5F;stroke-width:0.8721;stroke-linecap:round;stroke-linejoin:round;stroke-miterlimit:10;">
	<!ENTITY st11 "fill:none;stroke:#5B5B5F;stroke-width:0.6541;stroke-linecap:round;stroke-linejoin:round;stroke-miterlimit:10;">
	<!ENTITY st12 "clip-path:url(#SVGID_4_);">
	<!ENTITY st13 "clip-path:url(#SVGID_6_);">
	<!ENTITY st14 "clip-path:url(#SVGID_8_);">
	<!ENTITY st15 "clip-path:url(#SVGID_10_);">
	<!ENTITY st16 "clip-path:url(#SVGID_12_);">
	<!ENTITY st17 "opacity:0.42;fill:#79BAB9;">
	<!ENTITY st18 "fill:#333333;">
	<!ENTITY st19 "fill:#F4CD27;stroke:#FBB03B;stroke-width:0.7813;stroke-miterlimit:10;">
	<!ENTITY st20 "fill:#FFFFFF;">
	<!ENTITY st21 "fill:#522E90;">
	<!ENTITY st22 "opacity:0.35;fill:#808080;">
	<!ENTITY st23 "fill:#0B476F;stroke:#2C3235;stroke-miterlimit:10;">
	<!ENTITY st24 "fill:#736357;">
	<!ENTITY st25 "fill:#3A3432;">
	<!ENTITY st26 "fill:#006837;stroke:#084728;stroke-miterlimit:10;">
	<!ENTITY st27 "fill:#084728;">
	<!ENTITY st28 "fill:url(#SVGID_13_);stroke:#333333;stroke-width:2.1867;stroke-miterlimit:10;">
	<!ENTITY st29 "opacity:0.54;">
	<!ENTITY st30 "opacity:0.11;">
	<!ENTITY st31 "fill:#1A1A1A;">
	<!ENTITY st32 "fill:#ECF8FE;stroke:#52474C;stroke-width:3.153;stroke-miterlimit:10;">
	<!ENTITY st33 "opacity:0.19;">
	<!ENTITY st34 "fill:url(#SVGID_14_);stroke:#333333;stroke-width:2.1867;stroke-miterlimit:10;">
	<!ENTITY st35 "fill:#262626;">
	<!ENTITY st36 "fill:#614415;">
	<!ENTITY st37 "fill:#F4CD27;stroke:#FBB03B;stroke-width:0.8208;stroke-miterlimit:10;">
	<!ENTITY st38 "fill:#F4CD27;stroke:#FBB03B;stroke-width:0.8506;stroke-miterlimit:10;">
	<!ENTITY st39 "fill:none;stroke:#FFFFFF;stroke-width:3.2662;stroke-miterlimit:10;">
	<!ENTITY st40 "fill:#F4CD27;">
	<!ENTITY st41 "fill:#FF931E;">
	<!ENTITY st42 "fill:#F15A24;">
	<!ENTITY st43 "fill:#72BE44;">
]>
<svg version="1.1" xmlns="http://www.w3.org/2000/svg" xmlns:xlink="http://www.w3.org/1999/xlink" x="0px" y="0px"
	 viewBox="0 0 231 149.3" style="enable-background:new 0 0 231 149.3;" xml:space="preserve">
<g id="bg" style="&st0;">
</g>
<g id="Layer_5">
</g>
<g id="Layer_16">
</g>
<g id="Layer_4">
</g>
<g id="Layer_6">
	<g>
		<g>
			<rect x="15" y="0.4" style="&st37;" width="67" height="74"/>
			<path style="&st20;" d="M71.9,36.9c-0.2-9.9-2.1-19.7-5.6-28.9c-6.2,6.9-13.2,13.2-20.9,18.5c-3.5,2.4-7.1,4.6-10,7.6
				c-2.9,3-5.2,7-5.1,11.2c0.1,3.6,1.9,7.1,4.8,9.3c-2.9,2.2-6.2,3.7-9.7,4.8c-0.2,0.1-0.4,0.2-0.4,0.4c0,0.1,0,0.2,0.1,0.2
				c0.7,1.2,1.4,2.3,2.1,3.5c0.1,0.1,0.2,0.3,0.3,0.3c0.1,0,0.2,0,0.3-0.1c3.5-1.8,6.7-3.8,10-5.9c4.6,4.4,11.7,5.5,18,4.1
				c3.8-0.8,7.4-2.4,10.1-5.2C71,51.6,72,43.9,71.9,36.9z M57.7,20.9c0.2-0.5,0.6-1.1,1.3-1.5c0.7,0.5,1,1,1.3,1.4
				c0.3,0.5,0.4,0.9,0.5,1.4c0,0.5,0,0.9-0.2,1.4c-0.2,0.5-0.4,1-1,1.7c-0.8-0.3-1.2-0.8-1.6-1.2c-0.3-0.5-0.5-1-0.6-1.5
				C57.4,22,57.5,21.5,57.7,20.9z M50.3,29.7c0.1-0.4,0.3-0.9,0.6-1.3l0.2-0.3c0.1-0.1,0.1-0.3,0.3-0.5c0.1-0.1,0.2-0.2,0.3-0.2
				c0.1,0,0.1,0,0.2,0c0.1,0,0.2,0.1,0.3,0.2c0.1,0.2,0,0.3,0,0.3c0,0-0.1,0.1-0.1,0.1c-0.1,0-0.1,0-0.1-0.1c0.1,0,0-0.1,0-0.1
				c0,0-0.1,0-0.1,0c0,0.1,0.1,0.1,0.1,0.1c0,0,0,0,0.1,0c0.1,0,0.1,0,0.1,0c0.1,0,0.1,0.1,0.2,0.2l0.1,0.3c0.2,0.4,0.3,0.8,0.4,1.2
				c0.2,0.8,0.3,1.6,0.4,2.4c0,0.8,0,1.6-0.1,2.4c-0.1,0.8-0.4,1.7-0.9,2.6c-0.8-0.7-1.3-1.5-1.7-2.3c-0.3-0.8-0.5-1.7-0.6-2.6
				C49.9,31.4,50,30.6,50.3,29.7z M38.6,39.9c-0.2-1-0.3-2,0-3.1c1,0.6,1.7,1.2,2.3,1.9c0.6,0.7,1.1,1.4,1.6,2.2
				c0.5,0.8,0.8,1.6,1.2,2.4c0.3,0.9,0.6,1.8,0.6,3c-1.1-0.3-2-0.9-2.7-1.5c-0.7-0.6-1.4-1.4-1.9-2.2C39.2,41.7,38.8,40.8,38.6,39.9
				z M48.3,46.1c2.2-2.8,4.3-5.7,6.3-8.7c2-3,3.8-6,5.6-9.1c1.8-3.1,3.4-6.3,5.1-9.6c-0.4,3.7-1.4,7.3-2.8,10.7
				c-1.4,3.5-3.1,6.8-5.2,9.8c-2.1,3.1-4.4,6-7.1,8.6c-2.6,2.6-5.6,4.9-8.8,6.7C43.7,51.7,46,48.9,48.3,46.1z M58,56.5
				c-1.2,0.1-2.4,0-3.6-0.3c-1.2-0.3-2.3-0.8-3.3-1.4c-1-0.7-1.9-1.5-2.6-2.6c1.3,0,2.4,0.1,3.5,0.2c1.1,0.2,2.1,0.4,3.2,0.6
				c1,0.3,2,0.5,3.1,0.9c1,0.4,2.1,0.8,3.2,1.4C60.4,56.1,59.2,56.4,58,56.5z M64.8,43.4c-0.7,0.3-1.5,0.4-2.2,0.4
				c-0.7,0-1.5-0.1-2.2-0.3c-0.8-0.2-1.5-0.6-2.3-1.2c0.7-0.7,1.5-1.1,2.2-1.3c0.7-0.3,1.5-0.4,2.2-0.4c0.7,0,1.5,0.1,2.2,0.3
				c0.8,0.2,1.5,0.6,2.3,1.2C66.3,42.7,65.5,43.1,64.8,43.4z M68.4,28.4c-0.2,0.4-0.5,0.6-0.8,0.8c-0.3,0.1-0.7,0.2-1.1,0.1
				c-0.4-0.1-0.9-0.3-1.5-0.7c0-0.8,0.2-1.2,0.4-1.6c0.2-0.4,0.5-0.6,0.8-0.8c0.3-0.1,0.7-0.2,1.1-0.1c0.4,0.1,0.9,0.3,1.5,0.7
				C68.7,27.5,68.6,28,68.4,28.4z"/>
		</g>
		<g>
			<rect x="13.7" y="81.9" style="&st7;" width="204.3" height="63"/>
			<path style="&st20;" d="M17.4,87.5c0.5,0,1.1,0,1.7-0.1c0.6-0.1,1-0.1,1.1-0.1s0.3,0,0.3,0.1c0.1,0.1,0.1,0.2,0.1,0.3
				c0,0.4-0.4,0.8-1.2,1c-0.8,0.3-1.7,0.4-2.7,0.5c-0.4,1.2-0.6,2-0.6,2.3c0,0.2,0.1,0.3,0.3,0.3c1.1,0,2.3-0.1,3.5-0.5
				c0.4-0.1,0.6-0.2,0.7-0.2c0.2,0,0.3,0.1,0.3,0.4c0,0.4-0.3,0.7-0.8,1c-0.5,0.3-1.2,0.6-2,0.8c-0.8,0.2-1.6,0.3-2.4,0.3
				c-0.5,0-0.9-0.2-1.2-0.5C14.2,92.9,14,92.5,14,92c0-0.5,0.3-1.6,0.8-3.5c0.5-1.9,0.8-3.3,0.8-4.2c0,0,0-0.1,0-0.2
				c0-0.1,0-0.3,0.1-0.3c0.1-0.3,0.4-0.5,0.9-0.5c0.5-0.1,1.4-0.1,2.7-0.1c2.2,0,3.2,0.2,3.2,0.7c0,0.3-0.3,0.5-0.8,0.6
				c-0.4,0.1-0.9,0.2-1.5,0.2c-1,0.1-1.8,0.3-2.6,0.5C17.6,85.9,17.5,86.6,17.4,87.5L17.4,87.5z"/>
			<path style="&st20;" d="M28,93.3c0,0.4-0.2,0.6-0.5,0.6c-0.5,0-1.3-0.7-2.1-2c-1.1,1.3-1.9,2-2.3,2c-0.3,0-0.5-0.1-0.8-0.4
				c-0.2-0.3-0.4-0.5-0.4-0.7c0,0,0.1-0.2,0.3-0.4c0.8-0.8,1.5-1.5,2.1-2.2c-0.4-0.8-0.8-1.5-1.1-2.2c-0.3-0.7-0.5-1.1-0.5-1.3
				c0-0.2,0-0.3,0-0.3c0-0.1,0.1-0.2,0.3-0.2c0.4,0,0.9,0.1,1.3,0.2s0.7,0.4,0.7,0.6c0,0.4,0.2,0.9,0.5,1.5c0.6-0.9,1.1-1.5,1.5-1.8
				s0.7-0.5,0.9-0.5c0.2,0,0.5,0.1,0.8,0.4s0.5,0.6,0.5,0.8c0,0.1,0,0.2-0.1,0.3s-0.2,0.2-0.4,0.4c-0.2,0.1-0.4,0.3-0.5,0.5
				c-0.2,0.2-0.7,0.8-1.6,2l0.4,0.8C27.6,92.3,28,93,28,93.3z"/>
			<path style="&st20;" d="M34.8,86.1c0.4,0,0.8,0.3,1.2,1s0.6,1.3,0.6,2c0,0.4-0.2,0.9-0.5,1.4c-0.3,0.5-0.8,1.1-1.3,1.6
				c-0.5,0.5-1.1,0.9-1.8,1.2c-0.7,0.3-1.3,0.5-1.9,0.5H31c-0.6,2.6-1.1,3.9-1.3,3.9c-0.2,0-0.4-0.2-0.7-0.5
				c-0.2-0.4-0.4-0.6-0.4-0.9c0-0.2,0.1-0.9,0.4-2.1c0.9-3.5,1.3-6.1,1.3-7.9c0-0.3,0.1-0.5,0.4-0.5c0.2,0,0.5,0.1,0.9,0.4
				c0.4,0.3,0.6,0.6,0.7,1C33.3,86.5,34.1,86.1,34.8,86.1z M33.7,90.7c0.7-0.7,1-1.3,1-1.8s-0.1-0.8-0.4-0.8c-0.4,0-0.9,0.2-1.3,0.7
				c-0.2,0.2-0.4,0.5-0.6,0.9c-0.2,0.4-0.4,0.8-0.6,1.4L31.5,92C32.2,91.9,33,91.5,33.7,90.7z"/>
			<path style="&st20;" d="M38.3,88.6L38.2,87c0-0.6,0.2-0.8,0.5-0.8c0.2,0,0.4,0.1,0.6,0.2c0.2,0.1,0.3,0.4,0.4,0.7
				c0.3-0.3,0.7-0.5,1.1-0.7c0.4-0.2,0.8-0.3,1.1-0.3c0.7,0,1.1,0.2,1.1,0.5c0,0.2,0,0.3-0.1,0.4c-0.1,0.1-0.1,0.1-0.2,0.2
				s-0.1,0.1-0.2,0.2c-0.1,0.1-0.1,0.1-0.2,0.1c-0.2,0.1-0.4,0.3-0.5,0.3c-0.5,0.3-0.8,0.6-1.2,1s-0.6,0.9-0.7,1.6
				c-0.3,1.2-0.5,2-0.8,2.6c-0.3,0.6-0.5,0.8-0.9,0.8s-0.5-0.2-0.7-0.5s-0.2-0.6-0.2-0.8c0-0.3,0.1-0.7,0.3-1.2
				c0.2-0.5,0.3-1,0.4-1.4C38.3,89.6,38.3,89.1,38.3,88.6z"/>
			<path style="&st20;" d="M48.6,90.2c-0.7,0.4-1.3,0.6-2,0.6s-1.3,0-1.7-0.1c-0.1,0.3-0.1,0.5-0.1,0.8s0,0.5,0.1,0.6
				c0.1,0.1,0.3,0.2,0.7,0.2c0.8,0,1.4-0.1,1.9-0.2s0.8-0.2,0.8-0.2c0.4,0,0.6,0.1,0.6,0.4c0,0.4-0.3,0.8-1,1.1
				c-0.6,0.4-1.4,0.5-2.2,0.5c-0.8,0-1.5-0.3-2-0.8c-0.5-0.5-0.8-1.2-0.8-1.9s0.2-1.5,0.6-2.3s1-1.5,1.6-2c0.6-0.5,1.3-0.8,1.9-0.8
				c0.6,0,1.2,0.3,1.8,0.9s0.8,1.2,0.8,1.9C49.6,89.4,49.3,89.8,48.6,90.2z M47.6,88.2C47.4,88.1,47.2,88,47,88s-0.4,0.1-0.7,0.4
				c-0.3,0.3-0.6,0.6-0.8,1c0.1,0,0.2,0,0.4,0c1.4,0,2.1-0.2,2.1-0.7C47.9,88.6,47.8,88.4,47.6,88.2z"/>
			<path style="&st20;" d="M55,86.1c0.4,0,0.8,0.2,1.1,0.7c0.4,0.5,0.6,0.9,0.6,1.2c0,0.2-0.1,0.4-0.3,0.4c-0.1,0-0.3,0-0.5-0.1
				c-0.2-0.1-0.5-0.1-0.7-0.1c-0.2,0-0.6,0.1-1,0.2c-0.5,0.2-0.7,0.4-0.7,0.6c0,0.1,0.1,0.2,0.4,0.4c0.3,0.2,0.6,0.4,0.9,0.6
				c0.3,0.2,0.6,0.5,0.9,0.8S56,91.6,56,92s-0.3,0.8-0.9,1.3s-1.3,0.6-2.1,0.6s-1.5-0.2-2.1-0.6c-0.6-0.4-0.9-0.8-0.9-1.1
				s0.2-0.6,0.5-0.6c0.1,0,0.3,0.1,0.5,0.1c0.5,0.3,1.1,0.4,1.9,0.4c0.7,0,1.1-0.1,1.1-0.3s-0.1-0.4-0.4-0.7s-0.6-0.5-0.9-0.7
				c-0.3-0.2-0.6-0.5-0.9-0.8s-0.4-0.6-0.4-0.9c0-0.5,0.5-1.1,1.5-1.8C53.7,86.4,54.4,86.1,55,86.1z"/>
			<path style="&st20;" d="M58.9,86.1c0.3,0,0.7,0.2,0.9,0.6s0.4,0.8,0.4,1.2c0,0.2-0.2,0.9-0.5,2c-0.3,1.2-0.7,2.3-1,3.3
				c-0.1,0.4-0.4,0.6-0.7,0.6c-0.2,0-0.4-0.1-0.6-0.2c-0.2-0.2-0.2-0.4-0.2-0.6s0.1-0.9,0.4-2c0.3-1.1,0.5-2,0.6-2.7
				c0.1-0.7,0.3-1.3,0.4-1.6C58.6,86.3,58.8,86.1,58.9,86.1z M58.7,84.2c0-0.3,0.1-0.5,0.4-0.8c0.2-0.3,0.5-0.4,0.7-0.4
				c0.2,0,0.5,0.3,0.8,0.8S61,84.8,61,85s-0.1,0.4-0.2,0.6c-0.2,0.1-0.3,0.2-0.5,0.2c-0.3,0-0.6-0.2-1-0.6
				C58.9,84.8,58.7,84.5,58.7,84.2z"/>
			<path style="&st20;" d="M62.2,87.8c0.8-1.1,1.5-1.7,2.3-1.7c0.8,0,1.4,0.3,1.9,0.8c0.5,0.5,0.8,1.2,0.8,1.9
				c0,0.8-0.2,1.5-0.5,2.3s-0.9,1.4-1.5,1.9c-0.7,0.5-1.3,0.8-2.1,0.8c-0.5,0-1-0.2-1.4-0.7C61.3,92.6,61,92,61,91.3
				C61,90.1,61.4,88.9,62.2,87.8z M64.7,90.9c0.4-0.7,0.6-1.4,0.6-2.1c0-0.6-0.1-1.1-0.3-1.3c-0.4,0.3-0.9,0.8-1.3,1.6
				c-0.4,0.8-0.6,1.5-0.6,2.1s0.1,1,0.2,1.1C63.8,92.1,64.3,91.6,64.7,90.9z M65.5,85.7c-0.2,0-0.3-0.1-0.4-0.2
				c-0.1-0.1-0.2-0.3-0.2-0.5c0-0.2,0.1-0.4,0.2-0.6s0.3-0.4,0.5-0.6c0.2-0.2,0.5-0.4,0.6-0.6s0.3-0.3,0.4-0.4
				c0.1-0.1,0.2-0.2,0.3-0.2c0.1-0.1,0.2-0.2,0.3-0.2c0.1-0.1,0.3-0.1,0.4-0.1c0.2,0,0.5,0.1,0.7,0.4c0.2,0.3,0.3,0.5,0.3,0.7
				c0,0.2,0,0.4-0.1,0.5c0,0.1-0.1,0.2-0.2,0.3c-0.1,0.1-0.2,0.2-0.4,0.2c-0.1,0.1-0.3,0.2-0.6,0.3c-0.3,0.1-0.5,0.2-0.7,0.3
				c-0.2,0.1-0.3,0.2-0.5,0.3C65.8,85.6,65.6,85.7,65.5,85.7z"/>
			<path style="&st20;" d="M73.4,86.1c0.5,0,1,0.2,1.4,0.7c0.4,0.5,0.6,1,0.6,1.5c0,0.9-0.1,1.7-0.4,2.7c-0.3,0.9-0.6,1.6-0.9,2.1
				c-0.3,0.5-0.7,0.8-1,0.8c-0.3,0-0.5-0.2-0.5-0.7c0-0.4,0.2-1.1,0.5-2.2c0.3-0.9,0.4-1.5,0.4-1.9c0-0.4-0.1-0.6-0.2-0.6
				c-0.1,0-0.3,0.1-0.4,0.2s-0.2,0.2-0.3,0.3c-0.1,0.1-0.2,0.2-0.3,0.4c-0.1,0.2-0.2,0.3-0.3,0.4s-0.2,0.3-0.3,0.5
				c-0.1,0.2-0.2,0.4-0.3,0.5c-0.1,0.1-0.2,0.3-0.3,0.5c-0.9,1.7-1.7,2.6-2.2,2.6c-0.2,0-0.5-0.2-0.8-0.5c-0.3-0.4-0.5-0.6-0.5-0.8
				c0-0.1,0.1-0.3,0.2-0.7c0.1-0.4,0.3-0.6,0.3-0.8c0.1-0.2,0.1-0.4,0.2-0.6c0-0.2,0.1-0.5,0.1-0.7c0-0.3,0.1-0.5,0.1-0.6
				s0-0.4,0.1-0.7c0.1-1.3,0.2-2,0.2-2.2c0.1-0.1,0.1-0.2,0.2-0.2c0.4,0,0.7,0.2,1.1,0.5c0.4,0.3,0.5,0.6,0.5,0.9
				c0,0.6-0.2,1.5-0.5,2.7c0.7-1.1,1.2-2.1,1.8-2.8C72.6,86.5,73.1,86.1,73.4,86.1z"/>
			<path style="&st20;" d="M88.4,81.9c0.2,0,0.6,0.2,0.9,0.7c0.4,0.4,0.6,0.8,0.6,1.2c0,0.2-0.2,1-0.5,2.4c-0.4,1.4-0.6,2.2-0.6,2.5
				c-0.8,3.5-1.4,5.2-1.8,5.2c-0.2,0-0.4-0.1-0.7-0.4c-0.3-0.2-0.4-0.5-0.4-0.7c0,0,0-0.1,0-0.1c-1,0.8-1.7,1.2-2.2,1.2
				c-0.4,0-0.9-0.2-1.3-0.7c-0.4-0.5-0.6-0.9-0.6-1.3c0-0.4,0.1-0.8,0.2-1.3c0.1-0.5,0.3-1,0.5-1.5c0.2-0.5,0.5-1,0.8-1.5
				c0.3-0.5,0.6-0.8,1-1.1s0.8-0.4,1.3-0.4c0.6,0,1.2,0.3,1.6,1c0.5-2.4,0.8-3.9,0.8-4.7C88,82.1,88.1,81.9,88.4,81.9z M84,91.9
				c0.2,0,0.7-0.2,1.3-0.6c0.6-0.4,1-1,1.3-1.6c0-0.1,0-0.3,0-0.5s-0.1-0.5-0.3-0.8c-0.2-0.2-0.3-0.4-0.5-0.4
				c-0.3,0-0.6,0.2-0.9,0.5c-0.3,0.3-0.5,0.7-0.7,1.1c-0.3,0.9-0.5,1.6-0.5,2.1c0,0.1,0,0.1,0,0.2C83.8,91.9,83.9,91.9,84,91.9z"/>
			<path style="&st20;" d="M95.8,90.2c-0.7,0.4-1.3,0.6-2,0.6s-1.3,0-1.7-0.1c-0.1,0.3-0.1,0.5-0.1,0.8s0,0.5,0.1,0.6
				c0.1,0.1,0.3,0.2,0.7,0.2c0.8,0,1.4-0.1,1.9-0.2c0.5-0.1,0.8-0.2,0.8-0.2c0.4,0,0.6,0.1,0.6,0.4c0,0.4-0.3,0.8-1,1.1
				c-0.6,0.4-1.4,0.5-2.2,0.5c-0.8,0-1.5-0.3-2-0.8c-0.5-0.5-0.8-1.2-0.8-1.9s0.2-1.5,0.6-2.3c0.4-0.8,1-1.5,1.6-2
				c0.6-0.5,1.3-0.8,1.9-0.8s1.2,0.3,1.8,0.9s0.8,1.2,0.8,1.9C96.8,89.4,96.5,89.8,95.8,90.2z M94.7,88.2c-0.2-0.2-0.4-0.3-0.6-0.3
				c-0.2,0-0.4,0.1-0.7,0.4c-0.3,0.3-0.6,0.6-0.8,1c0.1,0,0.2,0,0.4,0c1.4,0,2.1-0.2,2.1-0.7C95.1,88.6,94.9,88.4,94.7,88.2z"/>
			<path style="&st20;" d="M100.4,82.6c0.4,0.4,0.6,0.9,0.6,1.3c0,0.4-0.1,1.1-0.2,2.1c-0.1,1-0.2,1.8-0.4,2.5
				c-0.8,3.6-1.4,5.4-1.7,5.4c-0.2,0-0.5-0.2-0.8-0.5c-0.3-0.4-0.5-0.6-0.5-0.9c0,0,0.1-0.5,0.4-1.6c0.3-1,0.5-2.3,0.8-3.9
				s0.4-3.1,0.4-4.6c0-0.3,0.2-0.4,0.5-0.4C99.8,81.9,100.1,82.1,100.4,82.6z"/>
			<path style="&st20;" d="M113,86.1c0.5,0,0.9,0.3,1.3,0.8c0.4,0.5,0.6,1,0.6,1.5s-0.1,1-0.3,1.6s-0.5,1.2-0.8,1.8
				c-0.3,0.6-0.8,1.1-1.3,1.5c-0.5,0.4-1.1,0.6-1.7,0.6s-1.2-0.3-2-0.8c-0.2,0.6-0.4,0.8-0.5,0.8c-0.2,0-0.5-0.2-0.8-0.5
				c-0.3-0.3-0.5-0.6-0.5-0.9c0-0.2,0.2-0.9,0.5-2.2c1-3.7,1.5-6.3,1.5-7.9c0-0.3,0.1-0.5,0.4-0.5c0.2,0,0.5,0.2,0.9,0.7
				c0.4,0.4,0.6,0.8,0.6,1.2c0,0.9-0.3,2.3-0.8,4.2C111.4,86.7,112.3,86.1,113,86.1z M110.5,92.1c0.5,0,1.1-0.4,1.7-1.3
				c0.6-0.9,0.9-1.7,0.9-2.5c0-0.1,0-0.1,0-0.1s-0.1,0-0.2,0c-0.5,0-1.1,0.3-1.8,1c-0.6,0.7-1.2,1.5-1.7,2.5
				C109.9,91.9,110.2,92.1,110.5,92.1z"/>
			<path style="&st20;" d="M117.4,86.1c0.3,0,0.7,0.2,0.9,0.6c0.3,0.4,0.4,0.8,0.4,1.2c0,0.2-0.2,0.9-0.5,2c-0.3,1.2-0.7,2.3-1,3.3
				c-0.1,0.4-0.4,0.6-0.7,0.6c-0.2,0-0.4-0.1-0.6-0.2s-0.2-0.4-0.2-0.6s0.1-0.9,0.4-2s0.5-2,0.6-2.7c0.1-0.7,0.3-1.3,0.4-1.6
				C117.1,86.3,117.2,86.1,117.4,86.1z M117.1,84.2c0-0.3,0.1-0.5,0.4-0.8c0.2-0.3,0.5-0.4,0.7-0.4c0.2,0,0.5,0.3,0.8,0.8
				c0.3,0.5,0.5,0.9,0.5,1.2s-0.1,0.4-0.2,0.6s-0.3,0.2-0.5,0.2c-0.3,0-0.6-0.2-1-0.6S117.1,84.5,117.1,84.2z"/>
			<path style="&st20;" d="M125.3,90.2c-0.7,0.4-1.3,0.6-2,0.6s-1.3,0-1.7-0.1c-0.1,0.3-0.1,0.5-0.1,0.8s0,0.5,0.1,0.6
				c0.1,0.1,0.3,0.2,0.7,0.2c0.8,0,1.4-0.1,1.9-0.2c0.5-0.1,0.8-0.2,0.8-0.2c0.4,0,0.6,0.1,0.6,0.4c0,0.4-0.3,0.8-1,1.1
				c-0.6,0.4-1.4,0.5-2.2,0.5c-0.8,0-1.5-0.3-2-0.8c-0.5-0.5-0.8-1.2-0.8-1.9s0.2-1.5,0.6-2.3c0.4-0.8,1-1.5,1.6-2
				c0.6-0.5,1.3-0.8,1.9-0.8s1.2,0.3,1.8,0.9s0.8,1.2,0.8,1.9C126.3,89.4,126,89.8,125.3,90.2z M124.2,88.2
				c-0.2-0.2-0.4-0.3-0.6-0.3c-0.2,0-0.4,0.1-0.7,0.4c-0.3,0.3-0.6,0.6-0.8,1c0.1,0,0.2,0,0.4,0c1.4,0,2.1-0.2,2.1-0.7
				C124.5,88.6,124.4,88.4,124.2,88.2z"/>
			<path style="&st20;" d="M132.4,86.1c0.5,0,1,0.2,1.4,0.7c0.4,0.5,0.6,1,0.6,1.5c0,0.9-0.1,1.7-0.4,2.7s-0.6,1.6-0.9,2.1
				c-0.3,0.5-0.7,0.8-1,0.8s-0.5-0.2-0.5-0.7c0-0.4,0.2-1.1,0.5-2.2c0.3-0.9,0.4-1.5,0.4-1.9c0-0.4,0-0.6-0.1-0.6
				c-0.1,0-0.3,0.1-0.4,0.2s-0.2,0.2-0.3,0.3c-0.1,0.1-0.2,0.2-0.3,0.4c-0.1,0.2-0.2,0.3-0.3,0.4c-0.1,0.1-0.2,0.3-0.3,0.5
				c-0.1,0.2-0.2,0.4-0.3,0.5c-0.1,0.1-0.2,0.3-0.3,0.5c-0.9,1.7-1.7,2.6-2.2,2.6c-0.2,0-0.5-0.2-0.8-0.5c-0.3-0.4-0.5-0.6-0.5-0.8
				c0-0.1,0.1-0.3,0.2-0.7c0.1-0.4,0.3-0.6,0.3-0.8s0.1-0.4,0.2-0.6c0-0.2,0.1-0.5,0.1-0.7s0.1-0.5,0.1-0.6c0-0.1,0-0.4,0.1-0.7
				c0.1-1.3,0.2-2,0.2-2.2c0.1-0.1,0.1-0.2,0.2-0.2c0.4,0,0.7,0.2,1.1,0.5s0.5,0.6,0.5,0.9c0,0.6-0.2,1.5-0.5,2.7
				c0.7-1.1,1.2-2.1,1.8-2.8S132,86.1,132.4,86.1z"/>
			<path style="&st20;" d="M140.4,86.1c0.3,0,0.5,0.1,0.8,0.3c0.2,0.2,0.4,0.4,0.4,0.6c0,0.4-0.3,1.2-0.9,2.5s-1.1,2.4-1.7,3.2
				c-0.5,0.8-0.9,1.2-1.2,1.2c-0.2,0-0.4-0.1-0.7-0.3c-0.3-0.2-0.5-0.4-0.5-0.6c-0.2-0.6-0.5-1.7-0.9-3.2s-0.5-2.6-0.5-3
				s0.1-0.6,0.4-0.6c0.3,0,0.7,0.1,1,0.4c0.6,0.5,0.9,1.1,1,1.8c0,0.4,0.1,0.8,0.1,1.3c0,0.5,0.1,1,0.1,1.4c0.2-0.5,0.5-1.1,0.9-2
				c0.4-0.9,0.7-1.6,0.9-2.1C140,86.4,140.2,86.1,140.4,86.1z"/>
			<path style="&st20;" d="M143.2,86.1c0.3,0,0.7,0.2,0.9,0.6c0.3,0.4,0.4,0.8,0.4,1.2c0,0.2-0.2,0.9-0.5,2c-0.3,1.2-0.7,2.3-1,3.3
				c-0.1,0.4-0.4,0.6-0.7,0.6c-0.2,0-0.4-0.1-0.6-0.2s-0.2-0.4-0.2-0.6s0.1-0.9,0.4-2s0.5-2,0.6-2.7c0.1-0.7,0.3-1.3,0.4-1.6
				C142.9,86.3,143.1,86.1,143.2,86.1z M143,84.2c0-0.3,0.1-0.5,0.4-0.8c0.2-0.3,0.5-0.4,0.7-0.4c0.2,0,0.5,0.3,0.8,0.8
				c0.3,0.5,0.5,0.9,0.5,1.2s-0.1,0.4-0.2,0.6s-0.3,0.2-0.5,0.2c-0.3,0-0.6-0.2-1-0.6S143,84.5,143,84.2z"/>
			<path style="&st20;" d="M150.7,86.1c0.3,0,0.5,0.1,0.8,0.3c0.2,0.2,0.4,0.4,0.4,0.6c0,0.4-0.3,1.2-0.9,2.5s-1.1,2.4-1.7,3.2
				c-0.5,0.8-0.9,1.2-1.2,1.2c-0.2,0-0.4-0.1-0.7-0.3c-0.3-0.2-0.5-0.4-0.5-0.6c-0.2-0.6-0.5-1.7-0.9-3.2s-0.5-2.6-0.5-3
				s0.1-0.6,0.4-0.6c0.3,0,0.7,0.1,1,0.4c0.6,0.5,0.9,1.1,1,1.8c0,0.4,0.1,0.8,0.1,1.3c0,0.5,0.1,1,0.1,1.4c0.2-0.5,0.5-1.1,0.9-2
				c0.4-0.9,0.7-1.6,0.9-2.1C150.2,86.4,150.5,86.1,150.7,86.1z"/>
			<path style="&st20;" d="M153.5,86.1c0.3,0,0.7,0.2,0.9,0.6c0.3,0.4,0.4,0.8,0.4,1.2c0,0.2-0.2,0.9-0.5,2c-0.3,1.2-0.7,2.3-1,3.3
				c-0.1,0.4-0.4,0.6-0.7,0.6c-0.2,0-0.4-0.1-0.6-0.2s-0.2-0.4-0.2-0.6s0.1-0.9,0.4-2s0.5-2,0.6-2.7c0.1-0.7,0.3-1.3,0.4-1.6
				C153.2,86.3,153.3,86.1,153.5,86.1z M153.2,84.2c0-0.3,0.1-0.5,0.4-0.8c0.2-0.3,0.5-0.4,0.7-0.4c0.2,0,0.5,0.3,0.8,0.8
				c0.3,0.5,0.5,0.9,0.5,1.2s-0.1,0.4-0.2,0.6s-0.3,0.2-0.5,0.2c-0.3,0-0.6-0.2-1-0.6S153.2,84.5,153.2,84.2z"/>
			<path style="&st20;" d="M156.5,88.6l-0.1-1.7c0-0.6,0.2-0.8,0.5-0.8c0.2,0,0.4,0.1,0.6,0.2c0.2,0.1,0.3,0.4,0.4,0.7
				c0.3-0.3,0.7-0.5,1.1-0.7c0.4-0.2,0.8-0.3,1.1-0.3c0.7,0,1.1,0.2,1.1,0.5c0,0.2,0,0.3-0.1,0.4s-0.1,0.1-0.2,0.2s-0.1,0.1-0.2,0.2
				c-0.1,0.1-0.1,0.1-0.2,0.1c-0.2,0.1-0.4,0.3-0.5,0.3c-0.5,0.3-0.8,0.6-1.2,1c-0.3,0.4-0.6,0.9-0.7,1.6c-0.3,1.2-0.5,2-0.8,2.6
				s-0.5,0.8-0.9,0.8c-0.3,0-0.5-0.2-0.7-0.5c-0.2-0.3-0.2-0.6-0.2-0.8c0-0.3,0.1-0.7,0.3-1.2c0.2-0.5,0.3-1,0.4-1.4
				C156.4,89.6,156.5,89.1,156.5,88.6z"/>
			<path style="&st20;" d="M173.2,89.6c0.2,0.2,0.3,0.3,0.3,0.4s-0.1,0.4-0.2,0.8s-0.2,0.7-0.2,1c0,0.2-0.1,0.4-0.1,0.5
				c0,0.1,0,0.2-0.1,0.3c0,0.1,0,0.2-0.1,0.3c0,0.1,0,0.2-0.1,0.3c0,0.1,0,0.1-0.1,0.2c0,0.1-0.1,0.2-0.1,0.2c0,0-0.1,0.1-0.1,0.1
				c-0.1,0.1-0.2,0.1-0.3,0.1c-0.1,0-0.3-0.1-0.5-0.4c-0.2-0.3-0.4-0.6-0.5-1c-0.9,1-1.7,1.4-2.4,1.4c-0.4,0-0.9-0.2-1.4-0.7
				c-0.5-0.5-0.8-0.9-0.8-1.4s0.2-1.2,0.6-2c0.4-0.9,1-1.7,1.8-2.4c0.7-0.8,1.5-1.1,2.2-1.1c0.4,0,0.9,0.2,1.5,0.7
				c0.5,0.5,0.8,0.9,0.8,1.3C173.7,88.6,173.5,89.1,173.2,89.6z M168.9,92c0.4,0,0.9-0.3,1.6-0.8c0.7-0.5,1.1-1.2,1.2-2.1
				c0-0.1,0.1-0.2,0.3-0.2c0-0.6-0.1-0.9-0.3-0.9c-0.4,0-0.8,0.3-1.3,0.8s-0.9,1.1-1.2,1.7c-0.3,0.6-0.5,1-0.5,1.3
				c0,0.1,0,0.1,0,0.2C168.7,91.9,168.8,92,168.9,92z"/>
			<path style="&st20;" d="M185.7,86.1c0.4,0,0.8,0.3,1.2,1c0.4,0.7,0.6,1.3,0.6,2c0,0.4-0.2,0.9-0.5,1.4c-0.3,0.5-0.8,1.1-1.3,1.6
				c-0.5,0.5-1.1,0.9-1.8,1.2c-0.7,0.3-1.3,0.5-1.9,0.5h-0.2c-0.6,2.6-1.1,3.9-1.3,3.9c-0.2,0-0.4-0.2-0.7-0.5
				c-0.2-0.4-0.4-0.6-0.4-0.9c0-0.2,0.1-0.9,0.4-2.1c0.9-3.5,1.3-6.1,1.3-7.9c0-0.3,0.1-0.5,0.4-0.5c0.2,0,0.5,0.1,0.9,0.4
				s0.6,0.6,0.7,1C184.1,86.5,185,86.1,185.7,86.1z M184.6,90.7c0.7-0.7,1-1.3,1-1.8s-0.1-0.8-0.4-0.8c-0.4,0-0.9,0.2-1.3,0.7
				c-0.2,0.2-0.4,0.5-0.6,0.9c-0.2,0.4-0.4,0.8-0.6,1.4l-0.3,0.9C183.1,91.9,183.9,91.5,184.6,90.7z"/>
			<path style="&st20;" d="M194.7,89.6c0.2,0.2,0.3,0.3,0.3,0.4s-0.1,0.4-0.2,0.8s-0.2,0.7-0.2,1c0,0.2-0.1,0.4-0.1,0.5
				c0,0.1,0,0.2-0.1,0.3c0,0.1,0,0.2-0.1,0.3c0,0.1,0,0.2-0.1,0.3c0,0.1,0,0.1-0.1,0.2c0,0.1-0.1,0.2-0.1,0.2c0,0-0.1,0.1-0.1,0.1
				c-0.1,0.1-0.2,0.1-0.3,0.1c-0.1,0-0.3-0.1-0.5-0.4c-0.2-0.3-0.4-0.6-0.5-1c-0.9,1-1.7,1.4-2.4,1.4c-0.4,0-0.9-0.2-1.4-0.7
				c-0.5-0.5-0.8-0.9-0.8-1.4s0.2-1.2,0.6-2c0.4-0.9,1-1.7,1.8-2.4c0.7-0.8,1.5-1.1,2.2-1.1c0.4,0,0.9,0.2,1.5,0.7
				c0.5,0.5,0.8,0.9,0.8,1.3C195.2,88.6,195,89.1,194.7,89.6z M190.4,92c0.4,0,0.9-0.3,1.6-0.8c0.7-0.5,1.1-1.2,1.2-2.1
				c0-0.1,0.1-0.2,0.3-0.2c0-0.6-0.1-0.9-0.3-0.9c-0.4,0-0.8,0.3-1.3,0.8s-0.9,1.1-1.2,1.7c-0.3,0.6-0.5,1-0.5,1.3
				c0,0.1,0,0.1,0,0.2C190.2,91.9,190.3,92,190.4,92z"/>
			<path style="&st20;" d="M196.8,88.6l-0.1-1.7c0-0.6,0.2-0.8,0.5-0.8c0.2,0,0.4,0.1,0.6,0.2c0.2,0.1,0.3,0.4,0.4,0.7
				c0.3-0.3,0.7-0.5,1.1-0.7c0.4-0.2,0.8-0.3,1.1-0.3c0.7,0,1.1,0.2,1.1,0.5c0,0.2,0,0.3-0.1,0.4s-0.1,0.1-0.2,0.2s-0.1,0.1-0.2,0.2
				c-0.1,0.1-0.1,0.1-0.2,0.1c-0.2,0.1-0.4,0.3-0.5,0.3c-0.5,0.3-0.8,0.6-1.2,1c-0.3,0.4-0.6,0.9-0.7,1.6c-0.3,1.2-0.5,2-0.8,2.6
				s-0.5,0.8-0.9,0.8c-0.3,0-0.5-0.2-0.7-0.5c-0.2-0.3-0.2-0.6-0.2-0.8c0-0.3,0.1-0.7,0.3-1.2c0.2-0.5,0.3-1,0.4-1.4
				C196.8,89.6,196.8,89.1,196.8,88.6z"/>
			<path style="&st20;" d="M205,89c-0.2,0.5-0.3,1.1-0.6,1.8c-0.2,0.7-0.3,1.1-0.3,1.2s0.1,0.1,0.2,0.1s0.6-0.1,1.2-0.3
				s1-0.3,1.1-0.3c0.3,0,0.4,0.2,0.4,0.5c0,0.3-0.3,0.7-1,1.2c-0.7,0.5-1.4,0.7-2.1,0.7c-0.3,0-0.7-0.2-1.1-0.5
				c-0.4-0.3-0.7-0.7-0.7-1.1c0-0.3,0.2-0.9,0.5-1.9c0.3-1,0.5-1.6,0.6-2c-0.4,0.1-0.7,0.2-0.9,0.2s-0.4-0.1-0.6-0.4
				s-0.3-0.5-0.3-0.8c0-0.3,0.8-0.6,2.3-0.8c0.2-0.9,0.3-1.7,0.3-2.4c0-0.3,0.2-0.5,0.5-0.5c0.3,0,0.6,0.2,1,0.5
				c0.4,0.3,0.6,0.6,0.6,0.9s-0.1,0.7-0.2,1.3c0.5,0,0.8,0,1.1,0c0.8,0,1.1,0.2,1.1,0.5c0,0.2-0.2,0.4-0.7,0.6
				c-0.4,0.2-1.1,0.3-2,0.5C205.2,88.2,205.1,88.5,205,89z"/>
			<path style="&st20;" d="M209.9,86.1c0.3,0,0.7,0.2,0.9,0.6c0.3,0.4,0.4,0.8,0.4,1.2c0,0.2-0.2,0.9-0.5,2c-0.3,1.2-0.7,2.3-1,3.3
				c-0.1,0.4-0.4,0.6-0.7,0.6c-0.2,0-0.4-0.1-0.6-0.2s-0.2-0.4-0.2-0.6s0.1-0.9,0.4-2s0.5-2,0.6-2.7c0.1-0.7,0.3-1.3,0.4-1.6
				C209.6,86.3,209.7,86.1,209.9,86.1z M209.7,84.2c0-0.3,0.1-0.5,0.4-0.8c0.2-0.3,0.5-0.4,0.7-0.4c0.2,0,0.5,0.3,0.8,0.8
				c0.3,0.5,0.5,0.9,0.5,1.2s-0.1,0.4-0.2,0.6s-0.3,0.2-0.5,0.2c-0.3,0-0.6-0.2-1-0.6S209.7,84.5,209.7,84.2z"/>
			<path style="&st20;" d="M212.9,88.6l-0.1-1.7c0-0.6,0.2-0.8,0.5-0.8c0.2,0,0.4,0.1,0.6,0.2c0.2,0.1,0.3,0.4,0.4,0.7
				c0.3-0.3,0.7-0.5,1.1-0.7c0.4-0.2,0.8-0.3,1.1-0.3c0.7,0,1.1,0.2,1.1,0.5c0,0.2,0,0.3-0.1,0.4s-0.1,0.1-0.2,0.2s-0.1,0.1-0.2,0.2
				c-0.1,0.1-0.1,0.1-0.2,0.1c-0.2,0.1-0.4,0.3-0.5,0.3c-0.5,0.3-0.8,0.6-1.2,1c-0.3,0.4-0.6,0.9-0.7,1.6c-0.3,1.2-0.5,2-0.8,2.6
				s-0.5,0.8-0.9,0.8c-0.3,0-0.5-0.2-0.7-0.5c-0.2-0.3-0.2-0.6-0.2-0.8c0-0.3,0.1-0.7,0.3-1.2c0.2-0.5,0.3-1,0.4-1.4
				C212.9,89.6,212.9,89.1,212.9,88.6z"/>
			<path style="&st20;" d="M20.4,99.9c0.2,0,0.6,0.2,0.9,0.7c0.4,0.4,0.6,0.8,0.6,1.2c0,0.2-0.2,1-0.5,2.4c-0.3,1.4-0.6,2.2-0.6,2.5
				c-0.8,3.5-1.4,5.2-1.8,5.2c-0.2,0-0.4-0.1-0.7-0.4c-0.3-0.2-0.4-0.5-0.4-0.7c0,0,0-0.1,0-0.1c-1,0.8-1.7,1.2-2.2,1.2
				c-0.4,0-0.9-0.2-1.3-0.7c-0.4-0.5-0.6-0.9-0.6-1.3c0-0.4,0.1-0.8,0.2-1.3c0.1-0.5,0.3-1,0.5-1.5c0.2-0.5,0.5-1,0.8-1.5
				c0.3-0.5,0.6-0.8,1-1.1s0.8-0.4,1.3-0.4c0.6,0,1.2,0.3,1.6,1c0.5-2.4,0.8-3.9,0.8-4.7C20,100.1,20.1,99.9,20.4,99.9z M16,109.9
				c0.3,0,0.7-0.2,1.3-0.6c0.6-0.4,1-1,1.3-1.6c0-0.1,0-0.3,0-0.5s-0.1-0.5-0.3-0.8c-0.2-0.2-0.3-0.4-0.5-0.4
				c-0.3,0-0.6,0.2-0.9,0.5c-0.3,0.3-0.5,0.7-0.7,1.1c-0.3,0.9-0.5,1.6-0.5,2.1c0,0.1,0,0.1,0,0.2C15.9,109.9,15.9,109.9,16,109.9z"
				/>
			<path style="&st20;" d="M27.8,108.2c-0.7,0.4-1.3,0.6-2,0.6c-0.7,0-1.3,0-1.7-0.1c-0.1,0.3-0.1,0.5-0.1,0.8s0,0.5,0.1,0.6
				c0.1,0.1,0.3,0.2,0.7,0.2c0.8,0,1.4-0.1,1.9-0.2c0.5-0.1,0.8-0.2,0.8-0.2c0.4,0,0.6,0.1,0.6,0.4c0,0.4-0.3,0.8-1,1.1
				c-0.6,0.4-1.4,0.5-2.2,0.5c-0.8,0-1.5-0.3-2-0.8c-0.5-0.5-0.8-1.2-0.8-1.9s0.2-1.5,0.6-2.3c0.4-0.8,1-1.5,1.6-2
				c0.6-0.5,1.3-0.8,1.9-0.8s1.2,0.3,1.8,0.9s0.8,1.2,0.8,1.9C28.8,107.4,28.5,107.8,27.8,108.2z M26.8,106.2
				c-0.2-0.2-0.4-0.3-0.6-0.3s-0.4,0.1-0.7,0.4c-0.3,0.3-0.6,0.6-0.8,1c0.1,0,0.2,0,0.4,0c1.4,0,2.1-0.2,2.1-0.7
				C27.1,106.6,27,106.4,26.8,106.2z"/>
			<path style="&st20;" d="M40.5,104.5c0.1-0.3,0.2-0.4,0.5-0.4c0.2,0,0.5,0.2,0.8,0.6c0.3,0.4,0.5,0.8,0.5,1.1
				c0,0.1-0.2,0.8-0.7,2.2c-0.5,1.4-0.8,2.4-1.1,3.2c-0.1,0.4-0.4,0.6-0.7,0.6c-0.2,0-0.4-0.1-0.5-0.2s-0.2-0.4-0.2-0.7
				c0-0.3,0.1-0.8,0.2-1.3c-1,1.5-1.8,2.2-2.5,2.2c-0.3,0-0.7-0.2-1.2-0.6c-0.5-0.4-0.7-0.8-0.7-1.2c0-1,0.3-2.2,0.8-3.7
				c0.5-1.5,1.1-2.2,1.5-2.2c0.3,0,0.5,0.1,0.8,0.4c0.2,0.3,0.3,0.5,0.3,0.9c0,0.1-0.1,0.5-0.4,1c-0.8,1.6-1.1,2.8-1.1,3.5
				c0,0.1,0,0.1,0.1,0.1c0.2,0,0.4-0.2,0.8-0.7s0.9-1.2,1.4-2C39.8,106.3,40.2,105.4,40.5,104.5z"/>
			<path style="&st20;" d="M48,104.1c0.5,0,1,0.2,1.4,0.7c0.4,0.5,0.6,1,0.6,1.5c0,0.9-0.1,1.7-0.4,2.7c-0.3,0.9-0.6,1.6-0.9,2.1
				c-0.3,0.5-0.7,0.8-1,0.8c-0.3,0-0.5-0.2-0.5-0.7c0-0.4,0.2-1.1,0.5-2.2c0.3-0.9,0.4-1.5,0.4-1.9c0-0.4,0-0.6-0.2-0.6
				c-0.1,0-0.3,0.1-0.4,0.2s-0.2,0.2-0.3,0.3c-0.1,0.1-0.2,0.2-0.3,0.4c-0.1,0.2-0.2,0.3-0.3,0.4c-0.1,0.1-0.2,0.3-0.3,0.5
				c-0.1,0.2-0.2,0.4-0.3,0.5c-0.1,0.1-0.2,0.3-0.3,0.5c-0.9,1.7-1.7,2.6-2.2,2.6c-0.2,0-0.5-0.2-0.8-0.5c-0.3-0.4-0.5-0.6-0.5-0.8
				c0-0.1,0.1-0.3,0.2-0.7c0.1-0.4,0.3-0.6,0.3-0.8s0.1-0.4,0.2-0.6c0-0.2,0.1-0.5,0.1-0.7c0-0.3,0.1-0.5,0.1-0.6
				c0-0.1,0-0.4,0.1-0.7c0.1-1.3,0.2-2,0.2-2.2c0.1-0.1,0.1-0.2,0.2-0.2c0.4,0,0.7,0.2,1.1,0.5s0.5,0.6,0.5,0.9
				c0,0.6-0.2,1.5-0.5,2.7c0.7-1.1,1.2-2.1,1.8-2.8C47.2,104.5,47.6,104.1,48,104.1z"/>
			<path style="&st20;" d="M57.2,107.6c0.2,0.2,0.3,0.3,0.3,0.4s-0.1,0.4-0.2,0.8c-0.1,0.4-0.2,0.7-0.2,1c0,0.2-0.1,0.4-0.1,0.5
				c0,0.1,0,0.2-0.1,0.3c0,0.1,0,0.2-0.1,0.3c0,0.1,0,0.2-0.1,0.3c0,0.1,0,0.1-0.1,0.2c0,0.1-0.1,0.2-0.1,0.2c0,0-0.1,0.1-0.1,0.1
				c-0.1,0.1-0.2,0.1-0.3,0.1s-0.3-0.1-0.5-0.4c-0.2-0.3-0.4-0.6-0.5-1c-0.9,1-1.7,1.4-2.4,1.4c-0.4,0-0.9-0.2-1.4-0.7
				c-0.5-0.5-0.8-0.9-0.8-1.4s0.2-1.2,0.6-2c0.4-0.9,1-1.7,1.8-2.4c0.7-0.8,1.5-1.1,2.2-1.1c0.4,0,0.9,0.2,1.5,0.7
				c0.5,0.5,0.8,0.9,0.8,1.3C57.6,106.6,57.5,107.1,57.2,107.6z M52.8,110c0.4,0,0.9-0.3,1.6-0.8c0.7-0.5,1.1-1.2,1.2-2.1
				c0-0.1,0.1-0.2,0.3-0.2c0-0.6-0.1-0.9-0.3-0.9c-0.4,0-0.8,0.3-1.3,0.8c-0.5,0.5-0.9,1.1-1.2,1.7c-0.3,0.6-0.5,1-0.5,1.3
				c0,0.1,0,0.1,0,0.2S52.7,110,52.8,110z"/>
			<path style="&st20;" d="M65.1,106.6L65,105c0-0.6,0.2-0.8,0.5-0.8c0.2,0,0.4,0.1,0.6,0.2c0.2,0.1,0.3,0.4,0.4,0.7
				c0.3-0.3,0.7-0.5,1.1-0.7c0.4-0.2,0.8-0.3,1.1-0.3c0.7,0,1.1,0.2,1.1,0.5c0,0.2,0,0.3-0.1,0.4s-0.1,0.1-0.1,0.2
				c0,0-0.1,0.1-0.2,0.2c-0.1,0.1-0.1,0.1-0.2,0.1c-0.2,0.1-0.4,0.3-0.5,0.3c-0.4,0.3-0.8,0.6-1.2,1c-0.3,0.4-0.6,0.9-0.7,1.6
				c-0.3,1.2-0.5,2-0.8,2.6s-0.5,0.8-0.9,0.8c-0.3,0-0.5-0.2-0.7-0.5c-0.2-0.3-0.2-0.6-0.2-0.8c0-0.3,0.1-0.7,0.3-1.2
				c0.2-0.5,0.3-1,0.4-1.4C65,107.6,65.1,107.1,65.1,106.6z"/>
			<path style="&st20;" d="M75.4,108.2c-0.7,0.4-1.3,0.6-2,0.6c-0.7,0-1.3,0-1.7-0.1c-0.1,0.3-0.1,0.5-0.1,0.8s0,0.5,0.1,0.6
				c0.1,0.1,0.3,0.2,0.7,0.2c0.8,0,1.4-0.1,1.9-0.2c0.5-0.1,0.8-0.2,0.8-0.2c0.4,0,0.6,0.1,0.6,0.4c0,0.4-0.3,0.8-1,1.1
				c-0.6,0.4-1.4,0.5-2.2,0.5s-1.5-0.3-2-0.8c-0.5-0.5-0.8-1.2-0.8-1.9s0.2-1.5,0.6-2.3c0.4-0.8,1-1.5,1.6-2
				c0.6-0.5,1.3-0.8,1.9-0.8s1.2,0.3,1.8,0.9c0.5,0.6,0.8,1.2,0.8,1.9C76.4,107.4,76,107.8,75.4,108.2z M74.3,106.2
				c-0.2-0.2-0.4-0.3-0.6-0.3c-0.2,0-0.4,0.1-0.7,0.4c-0.3,0.3-0.6,0.6-0.8,1c0.1,0,0.2,0,0.4,0c1.4,0,2.1-0.2,2.1-0.7
				C74.6,106.6,74.5,106.4,74.3,106.2z"/>
			<path style="&st20;" d="M80,100.6c0.4,0.4,0.6,0.9,0.6,1.3c0,0.4-0.1,1.1-0.2,2.1c-0.1,1-0.2,1.8-0.4,2.5
				c-0.8,3.6-1.4,5.4-1.7,5.4c-0.2,0-0.5-0.2-0.8-0.5c-0.3-0.4-0.5-0.6-0.5-0.9c0,0,0.1-0.5,0.4-1.6s0.5-2.3,0.8-3.9
				s0.4-3.1,0.4-4.6c0-0.3,0.2-0.4,0.5-0.4C79.3,99.9,79.6,100.1,80,100.6z"/>
			<path style="&st20;" d="M87.3,107.6c0.2,0.2,0.3,0.3,0.3,0.4s-0.1,0.4-0.2,0.8c-0.1,0.4-0.2,0.7-0.2,1c0,0.2-0.1,0.4-0.1,0.5
				c0,0.1,0,0.2-0.1,0.3c0,0.1,0,0.2-0.1,0.3c0,0.1,0,0.2-0.1,0.3s0,0.1-0.1,0.2c0,0.1-0.1,0.2-0.1,0.2s-0.1,0.1-0.1,0.1
				c-0.1,0.1-0.2,0.1-0.3,0.1c-0.1,0-0.3-0.1-0.5-0.4c-0.2-0.3-0.4-0.6-0.5-1c-0.9,1-1.7,1.4-2.4,1.4c-0.4,0-0.9-0.2-1.4-0.7
				c-0.5-0.5-0.8-0.9-0.8-1.4s0.2-1.2,0.6-2c0.4-0.9,1-1.7,1.8-2.4c0.7-0.8,1.5-1.1,2.2-1.1c0.4,0,0.9,0.2,1.5,0.7
				c0.6,0.5,0.8,0.9,0.8,1.3C87.8,106.6,87.6,107.1,87.3,107.6z M83,110c0.4,0,0.9-0.3,1.6-0.8c0.7-0.5,1.1-1.2,1.2-2.1
				c0-0.1,0.1-0.2,0.3-0.2c0-0.6-0.1-0.9-0.3-0.9c-0.4,0-0.8,0.3-1.3,0.8c-0.5,0.5-0.9,1.1-1.2,1.7c-0.3,0.6-0.5,1-0.5,1.3
				c0,0.1,0,0.1,0,0.2C82.8,109.9,82.9,110,83,110z"/>
			<path style="&st20;" d="M88.6,109.5c0-0.7,0.2-1.5,0.7-2.3c0.4-0.8,1-1.6,1.7-2.2s1.4-0.9,2.1-0.9c0.3,0,0.7,0.2,1.1,0.7
				c0.4,0.5,0.6,0.9,0.6,1.2c0,0.3-0.1,0.4-0.4,0.4c-0.1,0-0.3-0.1-0.5-0.2s-0.4-0.2-0.6-0.2s-0.5,0.2-0.9,0.6
				c-0.4,0.4-0.8,0.8-1.1,1.4c-0.3,0.5-0.5,0.9-0.5,1.2s0.1,0.5,0.2,0.6s0.4,0.1,0.8,0.1c0.4,0,0.9,0,1.2-0.1
				c0.4-0.1,0.6-0.2,0.8-0.2s0.3-0.1,0.5-0.1c0.3,0,0.4,0.1,0.4,0.4c0,0.4-0.4,0.9-1.2,1.3c-0.8,0.5-1.5,0.7-2.3,0.7
				c-0.5,0-1-0.3-1.7-0.8C88.9,110.5,88.6,110,88.6,109.5z"/>
			<path style="&st20;" d="M97.6,104.1c0.3,0,0.7,0.2,0.9,0.6c0.3,0.4,0.4,0.8,0.4,1.2c0,0.2-0.2,0.9-0.5,2c-0.3,1.2-0.7,2.3-1,3.3
				c-0.1,0.4-0.4,0.6-0.7,0.6c-0.2,0-0.4-0.1-0.6-0.2s-0.2-0.4-0.2-0.6s0.1-0.9,0.4-2s0.5-2,0.6-2.7c0.1-0.7,0.3-1.3,0.4-1.6
				C97.4,104.3,97.5,104.1,97.6,104.1z M97.4,102.2c0-0.3,0.1-0.5,0.4-0.8c0.2-0.3,0.5-0.4,0.7-0.4c0.2,0,0.5,0.3,0.8,0.8
				c0.3,0.5,0.5,0.9,0.5,1.2s-0.1,0.4-0.2,0.6s-0.3,0.2-0.5,0.2c-0.3,0-0.6-0.2-1-0.6S97.4,102.5,97.4,102.2z"/>
			<path style="&st20;" d="M100.9,105.8c0.8-1.1,1.5-1.7,2.3-1.7s1.4,0.3,1.9,0.8c0.5,0.5,0.8,1.2,0.8,1.9c0,0.8-0.2,1.5-0.5,2.3
				c-0.4,0.8-0.9,1.4-1.5,1.9c-0.7,0.5-1.3,0.8-2.1,0.8c-0.5,0-1-0.2-1.4-0.7c-0.4-0.5-0.6-1.1-0.6-1.8
				C99.8,108.1,100.2,106.9,100.9,105.8z M103.4,108.9c0.4-0.7,0.6-1.4,0.6-2.1c0-0.6-0.1-1.1-0.3-1.3c-0.4,0.3-0.9,0.8-1.3,1.6
				c-0.4,0.8-0.6,1.5-0.6,2.1s0.1,1,0.2,1.1C102.5,110.1,103,109.6,103.4,108.9z M104.2,103.7c-0.2,0-0.3-0.1-0.4-0.2
				s-0.2-0.3-0.2-0.5c0-0.2,0.1-0.4,0.2-0.6s0.3-0.4,0.5-0.6c0.2-0.2,0.5-0.4,0.6-0.6c0.2-0.2,0.3-0.3,0.4-0.4
				c0.1-0.1,0.2-0.2,0.3-0.2c0.1-0.1,0.2-0.2,0.3-0.2c0.1-0.1,0.3-0.1,0.4-0.1c0.2,0,0.5,0.1,0.7,0.4s0.3,0.5,0.3,0.7
				c0,0.2,0,0.4-0.1,0.5c0,0.1-0.1,0.2-0.2,0.3c-0.1,0.1-0.2,0.2-0.4,0.2s-0.3,0.2-0.6,0.3c-0.3,0.1-0.5,0.2-0.7,0.3
				c-0.2,0.1-0.3,0.2-0.5,0.3C104.6,103.6,104.3,103.7,104.2,103.7z"/>
			<path style="&st20;" d="M112.2,104.1c0.5,0,1,0.2,1.4,0.7c0.4,0.5,0.6,1,0.6,1.5c0,0.9-0.1,1.7-0.4,2.7s-0.6,1.6-0.9,2.1
				c-0.3,0.5-0.7,0.8-1,0.8s-0.5-0.2-0.5-0.7c0-0.4,0.2-1.1,0.5-2.2c0.3-0.9,0.4-1.5,0.4-1.9c0-0.4,0-0.6-0.1-0.6
				c-0.1,0-0.3,0.1-0.4,0.2s-0.2,0.2-0.3,0.3c-0.1,0.1-0.2,0.2-0.3,0.4c-0.1,0.2-0.2,0.3-0.3,0.4c-0.1,0.1-0.2,0.3-0.3,0.5
				c-0.1,0.2-0.2,0.4-0.3,0.5c-0.1,0.1-0.2,0.3-0.3,0.5c-0.9,1.7-1.7,2.6-2.2,2.6c-0.2,0-0.5-0.2-0.8-0.5c-0.3-0.4-0.5-0.6-0.5-0.8
				c0-0.1,0.1-0.3,0.2-0.7c0.1-0.4,0.3-0.6,0.3-0.8s0.1-0.4,0.2-0.6c0-0.2,0.1-0.5,0.1-0.7s0.1-0.5,0.1-0.6c0-0.1,0-0.4,0.1-0.7
				c0.1-1.3,0.2-2,0.2-2.2c0.1-0.1,0.1-0.2,0.2-0.2c0.4,0,0.7,0.2,1.1,0.5s0.5,0.6,0.5,0.9c0,0.6-0.2,1.5-0.5,2.7
				c0.7-1.1,1.2-2.1,1.8-2.8S111.8,104.1,112.2,104.1z"/>
			<path style="&st20;" d="M119,114.3c0.3,0,0.7-0.5,1-1.6s0.7-2.5,1.1-4.2c0.4-1.7,0.7-2.8,0.8-3.2c0.1-0.5,0.3-0.8,0.4-0.9
				c0.1-0.2,0.2-0.2,0.3-0.2c0.3,0,0.6,0.2,0.9,0.6s0.4,0.8,0.4,1.2c0,0.2-0.7,2.6-2,7.2c-0.3,1-0.7,1.7-1.3,2.1
				c-0.6,0.4-1.2,0.7-2,0.7c-0.5,0-1-0.2-1.5-0.6c-0.5-0.4-0.8-0.8-0.8-1.1c0-0.2,0.1-0.5,0.3-0.8c0.2-0.3,0.3-0.4,0.5-0.4
				s0.4,0.2,0.8,0.6c0.1,0.1,0.1,0.2,0.2,0.2C118.4,114.1,118.7,114.3,119,114.3z M123,101.4c0.2-0.3,0.5-0.4,0.7-0.4
				c0.2,0,0.5,0.3,0.8,0.8c0.3,0.5,0.5,1,0.5,1.3c0,0.2-0.1,0.3-0.2,0.4c-0.2,0.1-0.3,0.2-0.5,0.2c-0.3,0-0.6-0.2-1-0.6
				s-0.6-0.7-0.6-1C122.6,102,122.7,101.7,123,101.4z"/>
			<path style="&st20;" d="M129.9,104.5c0.1-0.3,0.2-0.4,0.5-0.4s0.5,0.2,0.8,0.6c0.3,0.4,0.5,0.8,0.5,1.1c0,0.1-0.2,0.8-0.7,2.2
				c-0.5,1.4-0.8,2.4-1.1,3.2c-0.1,0.4-0.4,0.6-0.7,0.6c-0.2,0-0.4-0.1-0.5-0.2c-0.1-0.1-0.2-0.4-0.2-0.7c0-0.3,0.1-0.8,0.2-1.3
				c-1,1.5-1.9,2.2-2.5,2.2c-0.3,0-0.7-0.2-1.2-0.6c-0.5-0.4-0.7-0.8-0.7-1.2c0-1,0.3-2.2,0.8-3.7c0.5-1.5,1.1-2.2,1.5-2.2
				c0.3,0,0.5,0.1,0.8,0.4c0.2,0.3,0.3,0.5,0.3,0.9c0,0.1-0.1,0.5-0.4,1c-0.8,1.6-1.1,2.8-1.1,3.5c0,0.1,0,0.1,0.1,0.1
				c0.2,0,0.4-0.2,0.8-0.7s0.9-1.2,1.4-2C129.2,106.3,129.6,105.4,129.9,104.5z"/>
			<path style="&st20;" d="M136.7,104.1c0.4,0,0.8,0.2,1.1,0.7s0.6,0.9,0.6,1.2c0,0.2-0.1,0.4-0.3,0.4c-0.1,0-0.3,0-0.5-0.1
				c-0.2-0.1-0.5-0.1-0.7-0.1c-0.2,0-0.6,0.1-1,0.2c-0.5,0.2-0.7,0.4-0.7,0.6c0,0.1,0.1,0.2,0.4,0.4c0.3,0.2,0.6,0.4,0.9,0.6
				s0.6,0.5,0.9,0.8c0.3,0.4,0.4,0.7,0.4,1.2s-0.3,0.8-0.9,1.3c-0.6,0.4-1.3,0.6-2.1,0.6c-0.8,0-1.5-0.2-2.1-0.6s-0.9-0.8-0.9-1.1
				s0.2-0.6,0.5-0.6c0.1,0,0.3,0.1,0.5,0.1c0.5,0.3,1.1,0.4,1.9,0.4s1.1-0.1,1.1-0.3s-0.1-0.4-0.4-0.7c-0.3-0.2-0.6-0.5-0.9-0.7
				s-0.6-0.5-0.9-0.8s-0.4-0.6-0.4-0.9c0-0.5,0.5-1.1,1.5-1.8C135.4,104.4,136.1,104.1,136.7,104.1z"/>
			<path style="&st20;" d="M142.4,107c-0.2,0.5-0.3,1.1-0.6,1.8c-0.2,0.7-0.3,1.1-0.3,1.2s0.1,0.1,0.2,0.1s0.6-0.1,1.2-0.3
				s1-0.3,1.1-0.3c0.3,0,0.4,0.2,0.4,0.5c0,0.3-0.3,0.7-1,1.2c-0.7,0.5-1.4,0.7-2.1,0.7c-0.3,0-0.7-0.2-1.1-0.5
				c-0.4-0.3-0.7-0.7-0.7-1.1c0-0.3,0.2-0.9,0.5-1.9c0.3-1,0.5-1.6,0.6-2c-0.4,0.1-0.7,0.2-0.9,0.2s-0.4-0.1-0.6-0.4
				s-0.3-0.5-0.3-0.8c0-0.3,0.8-0.6,2.3-0.8c0.2-0.9,0.3-1.7,0.3-2.4c0-0.3,0.2-0.5,0.5-0.5c0.3,0,0.6,0.2,1,0.5
				c0.4,0.3,0.6,0.6,0.6,0.9s-0.1,0.7-0.2,1.3c0.5,0,0.8,0,1.1,0c0.8,0,1.1,0.2,1.1,0.5c0,0.2-0.2,0.4-0.7,0.6
				c-0.4,0.2-1.1,0.3-2,0.5C142.7,106.2,142.6,106.5,142.4,107z"/>
			<path style="&st20;" d="M152.1,107.6c0.2,0.2,0.3,0.3,0.3,0.4s-0.1,0.4-0.2,0.8s-0.2,0.7-0.2,1c0,0.2-0.1,0.4-0.1,0.5
				c0,0.1,0,0.2-0.1,0.3c0,0.1,0,0.2-0.1,0.3c0,0.1,0,0.2-0.1,0.3c0,0.1,0,0.1-0.1,0.2c0,0.1-0.1,0.2-0.1,0.2c0,0-0.1,0.1-0.1,0.1
				c-0.1,0.1-0.2,0.1-0.3,0.1c-0.1,0-0.3-0.1-0.5-0.4c-0.2-0.3-0.4-0.6-0.5-1c-0.9,1-1.7,1.4-2.4,1.4c-0.4,0-0.9-0.2-1.4-0.7
				c-0.5-0.5-0.8-0.9-0.8-1.4s0.2-1.2,0.6-2c0.4-0.9,1-1.7,1.8-2.4c0.7-0.8,1.5-1.1,2.2-1.1c0.4,0,0.9,0.2,1.5,0.7
				c0.5,0.5,0.8,0.9,0.8,1.3C152.5,106.6,152.4,107.1,152.1,107.6z M147.7,110c0.4,0,0.9-0.3,1.6-0.8c0.7-0.5,1.1-1.2,1.2-2.1
				c0-0.1,0.1-0.2,0.3-0.2c0-0.6-0.1-0.9-0.3-0.9c-0.4,0-0.8,0.3-1.3,0.8s-0.9,1.1-1.2,1.7c-0.3,0.6-0.5,1-0.5,1.3
				c0,0.1,0,0.1,0,0.2C147.5,109.9,147.6,110,147.7,110z"/>
			<path style="&st20;" d="M164.8,108.2c-0.7,0.4-1.3,0.6-2,0.6s-1.3,0-1.7-0.1c-0.1,0.3-0.1,0.5-0.1,0.8s0,0.5,0.1,0.6
				c0.1,0.1,0.3,0.2,0.7,0.2c0.8,0,1.4-0.1,1.9-0.2c0.5-0.1,0.8-0.2,0.8-0.2c0.4,0,0.6,0.1,0.6,0.4c0,0.4-0.3,0.8-1,1.1
				c-0.6,0.4-1.4,0.5-2.2,0.5c-0.8,0-1.5-0.3-2-0.8c-0.5-0.5-0.8-1.2-0.8-1.9s0.2-1.5,0.6-2.3c0.4-0.8,1-1.5,1.6-2
				c0.6-0.5,1.3-0.8,1.9-0.8s1.2,0.3,1.8,0.9s0.8,1.2,0.8,1.9C165.8,107.4,165.5,107.8,164.8,108.2z M163.8,106.2
				c-0.2-0.2-0.4-0.3-0.6-0.3c-0.2,0-0.4,0.1-0.7,0.4c-0.3,0.3-0.6,0.6-0.8,1c0.1,0,0.2,0,0.4,0c1.4,0,2.1-0.2,2.1-0.7
				C164.1,106.6,164,106.4,163.8,106.2z"/>
			<path style="&st20;" d="M171.9,104.1c0.5,0,1,0.2,1.4,0.7c0.4,0.5,0.6,1,0.6,1.5c0,0.9-0.1,1.7-0.4,2.7s-0.6,1.6-0.9,2.1
				c-0.3,0.5-0.7,0.8-1,0.8s-0.5-0.2-0.5-0.7c0-0.4,0.2-1.1,0.5-2.2c0.3-0.9,0.4-1.5,0.4-1.9c0-0.4,0-0.6-0.1-0.6
				c-0.1,0-0.3,0.1-0.4,0.2s-0.2,0.2-0.3,0.3c-0.1,0.1-0.2,0.2-0.3,0.4c-0.1,0.2-0.2,0.3-0.3,0.4c-0.1,0.1-0.2,0.3-0.3,0.5
				c-0.1,0.2-0.2,0.4-0.3,0.5c-0.1,0.1-0.2,0.3-0.3,0.5c-0.9,1.7-1.7,2.6-2.2,2.6c-0.2,0-0.5-0.2-0.8-0.5c-0.3-0.4-0.5-0.6-0.5-0.8
				c0-0.1,0.1-0.3,0.2-0.7c0.1-0.4,0.3-0.6,0.3-0.8s0.1-0.4,0.2-0.6c0-0.2,0.1-0.5,0.1-0.7s0.1-0.5,0.1-0.6c0-0.1,0-0.4,0.1-0.7
				c0.1-1.3,0.2-2,0.2-2.2c0.1-0.1,0.1-0.2,0.2-0.2c0.4,0,0.7,0.2,1.1,0.5s0.5,0.6,0.5,0.9c0,0.6-0.2,1.5-0.5,2.7
				c0.7-1.1,1.2-2.1,1.8-2.8S171.6,104.1,171.9,104.1z"/>
			<path style="&st20;" d="M178.3,107c-0.2,0.5-0.3,1.1-0.6,1.8c-0.2,0.7-0.3,1.1-0.3,1.2s0.1,0.1,0.2,0.1s0.6-0.1,1.2-0.3
				s1-0.3,1.1-0.3c0.3,0,0.4,0.2,0.4,0.5c0,0.3-0.3,0.7-1,1.2c-0.7,0.5-1.4,0.7-2.1,0.7c-0.3,0-0.7-0.2-1.1-0.5
				c-0.4-0.3-0.7-0.7-0.7-1.1c0-0.3,0.2-0.9,0.5-1.9c0.3-1,0.5-1.6,0.6-2c-0.4,0.1-0.7,0.2-0.9,0.2s-0.4-0.1-0.6-0.4
				s-0.3-0.5-0.3-0.8c0-0.3,0.8-0.6,2.3-0.8c0.2-0.9,0.3-1.7,0.3-2.4c0-0.3,0.2-0.5,0.5-0.5c0.3,0,0.6,0.2,1,0.5
				c0.4,0.3,0.6,0.6,0.6,0.9s-0.1,0.7-0.2,1.3c0.5,0,0.8,0,1.1,0c0.8,0,1.1,0.2,1.1,0.5c0,0.2-0.2,0.4-0.7,0.6
				c-0.4,0.2-1.1,0.3-2,0.5C178.5,106.2,178.4,106.5,178.3,107z"/>
			<path style="&st20;" d="M182.3,106.6l-0.1-1.7c0-0.6,0.2-0.8,0.5-0.8c0.2,0,0.4,0.1,0.6,0.2c0.2,0.1,0.3,0.4,0.4,0.7
				c0.3-0.3,0.7-0.5,1.1-0.7c0.4-0.2,0.8-0.3,1.1-0.3c0.7,0,1.1,0.2,1.1,0.5c0,0.2,0,0.3-0.1,0.4s-0.1,0.1-0.2,0.2s-0.1,0.1-0.2,0.2
				c-0.1,0.1-0.1,0.1-0.2,0.1c-0.2,0.1-0.4,0.3-0.5,0.3c-0.5,0.3-0.8,0.6-1.2,1c-0.3,0.4-0.6,0.9-0.7,1.6c-0.3,1.2-0.5,2-0.8,2.6
				s-0.5,0.8-0.9,0.8c-0.3,0-0.5-0.2-0.7-0.5c-0.2-0.3-0.2-0.6-0.2-0.8c0-0.3,0.1-0.7,0.3-1.2c0.2-0.5,0.3-1,0.4-1.4
				C182.3,107.6,182.3,107.1,182.3,106.6z"/>
			<path style="&st20;" d="M192.7,108.2c-0.7,0.4-1.3,0.6-2,0.6s-1.3,0-1.7-0.1c-0.1,0.3-0.1,0.5-0.1,0.8s0,0.5,0.1,0.6
				c0.1,0.1,0.3,0.2,0.7,0.2c0.8,0,1.4-0.1,1.9-0.2c0.5-0.1,0.8-0.2,0.8-0.2c0.4,0,0.6,0.1,0.6,0.4c0,0.4-0.3,0.8-1,1.1
				c-0.6,0.4-1.4,0.5-2.2,0.5c-0.8,0-1.5-0.3-2-0.8c-0.5-0.5-0.8-1.2-0.8-1.9s0.2-1.5,0.6-2.3c0.4-0.8,1-1.5,1.6-2
				c0.6-0.5,1.3-0.8,1.9-0.8s1.2,0.3,1.8,0.9s0.8,1.2,0.8,1.9C193.6,107.4,193.3,107.8,192.7,108.2z M191.6,106.2
				c-0.2-0.2-0.4-0.3-0.6-0.3c-0.2,0-0.4,0.1-0.7,0.4c-0.3,0.3-0.6,0.6-0.8,1c0.1,0,0.2,0,0.4,0c1.4,0,2.1-0.2,2.1-0.7
				C191.9,106.6,191.8,106.4,191.6,106.2z"/>
			<path style="&st20;" d="M205.7,108.2c-0.7,0.4-1.3,0.6-2,0.6s-1.3,0-1.7-0.1c-0.1,0.3-0.1,0.5-0.1,0.8s0,0.5,0.1,0.6
				c0.1,0.1,0.3,0.2,0.7,0.2c0.8,0,1.4-0.1,1.9-0.2c0.5-0.1,0.8-0.2,0.8-0.2c0.4,0,0.6,0.1,0.6,0.4c0,0.4-0.3,0.8-1,1.1
				c-0.6,0.4-1.4,0.5-2.2,0.5c-0.8,0-1.5-0.3-2-0.8c-0.5-0.5-0.8-1.2-0.8-1.9s0.2-1.5,0.6-2.3c0.4-0.8,1-1.5,1.6-2
				c0.6-0.5,1.3-0.8,1.9-0.8s1.2,0.3,1.8,0.9s0.8,1.2,0.8,1.9C206.7,107.4,206.4,107.8,205.7,108.2z M204.7,106.2
				c-0.2-0.2-0.4-0.3-0.6-0.3c-0.2,0-0.4,0.1-0.7,0.4c-0.3,0.3-0.6,0.6-0.8,1c0.1,0,0.2,0,0.4,0c1.4,0,2.1-0.2,2.1-0.7
				C205,106.6,204.9,106.4,204.7,106.2z"/>
			<path style="&st20;" d="M210.4,100.6c0.4,0.4,0.6,0.9,0.6,1.3c0,0.4-0.1,1.1-0.2,2.1c-0.1,1-0.2,1.8-0.4,2.5
				c-0.8,3.6-1.4,5.4-1.7,5.4c-0.2,0-0.5-0.2-0.8-0.5c-0.3-0.4-0.5-0.6-0.5-0.9c0,0,0.1-0.5,0.4-1.6c0.3-1,0.5-2.3,0.8-3.9
				s0.4-3.1,0.4-4.6c0-0.3,0.2-0.4,0.5-0.4C209.7,99.9,210,100.1,210.4,100.6z"/>
			<path style="&st20;" d="M18.8,122.1c0.4,0,0.8,0.2,1.1,0.7c0.4,0.5,0.6,0.9,0.6,1.2c0,0.2-0.1,0.4-0.3,0.4c-0.1,0-0.3,0-0.5-0.1
				s-0.5-0.1-0.7-0.1c-0.2,0-0.6,0.1-1,0.2c-0.5,0.2-0.7,0.4-0.7,0.6c0,0.1,0.1,0.2,0.4,0.4s0.6,0.4,0.9,0.6s0.6,0.5,0.9,0.8
				s0.4,0.7,0.4,1.2c0,0.4-0.3,0.8-0.9,1.3c-0.6,0.4-1.3,0.6-2.1,0.6c-0.8,0-1.5-0.2-2.1-0.6s-0.9-0.8-0.9-1.1
				c0-0.4,0.2-0.6,0.5-0.6c0.1,0,0.3,0.1,0.5,0.1c0.5,0.3,1.1,0.4,1.9,0.4s1.1-0.1,1.1-0.3c0-0.2-0.1-0.4-0.4-0.7s-0.6-0.5-0.9-0.7
				s-0.6-0.5-0.9-0.8c-0.3-0.3-0.4-0.6-0.4-0.9c0-0.5,0.5-1.1,1.5-1.8C17.5,122.4,18.3,122.1,18.8,122.1z"/>
			<path style="&st20;" d="M26.8,126.2c-0.7,0.4-1.3,0.6-2,0.6c-0.7,0-1.3,0-1.7-0.1c-0.1,0.3-0.1,0.5-0.1,0.8s0,0.5,0.1,0.6
				c0.1,0.1,0.3,0.2,0.7,0.2c0.8,0,1.4-0.1,1.9-0.2c0.5-0.1,0.8-0.2,0.8-0.2c0.4,0,0.6,0.1,0.6,0.4c0,0.4-0.3,0.8-1,1.1
				c-0.6,0.4-1.4,0.5-2.2,0.5c-0.8,0-1.5-0.3-2-0.8c-0.5-0.5-0.8-1.2-0.8-1.9s0.2-1.5,0.6-2.3c0.4-0.8,1-1.5,1.6-2
				c0.6-0.5,1.3-0.8,1.9-0.8s1.2,0.3,1.8,0.9s0.8,1.2,0.8,1.9C27.8,125.4,27.4,125.8,26.8,126.2z M25.7,124.2
				c-0.2-0.2-0.4-0.3-0.6-0.3s-0.4,0.1-0.7,0.4c-0.3,0.3-0.6,0.6-0.8,1c0.1,0,0.2,0,0.4,0c1.4,0,2.1-0.2,2.1-0.7
				C26,124.6,25.9,124.4,25.7,124.2z"/>
			<path style="&st20;" d="M29.2,124.6l-0.1-1.7c0-0.6,0.2-0.8,0.5-0.8c0.2,0,0.4,0.1,0.6,0.2c0.2,0.1,0.3,0.4,0.4,0.7
				c0.3-0.3,0.7-0.5,1.1-0.7s0.8-0.3,1.1-0.3c0.7,0,1.1,0.2,1.1,0.5c0,0.2,0,0.3-0.1,0.4c-0.1,0.1-0.1,0.1-0.1,0.2
				c0,0-0.1,0.1-0.2,0.2c-0.1,0.1-0.1,0.1-0.2,0.1c-0.2,0.1-0.4,0.3-0.5,0.3c-0.5,0.3-0.8,0.6-1.2,1c-0.3,0.4-0.6,0.9-0.7,1.6
				c-0.3,1.2-0.5,2-0.8,2.6c-0.3,0.6-0.5,0.8-0.9,0.8s-0.6-0.2-0.7-0.5c-0.2-0.3-0.2-0.6-0.2-0.8c0-0.3,0.1-0.7,0.3-1.2
				c0.2-0.5,0.3-1,0.4-1.4C29.1,125.6,29.2,125.1,29.2,124.6z"/>
			<path style="&st20;" d="M41.4,118.5c0-0.4,0.2-0.6,0.5-0.6c0.3,0,0.6,0.2,0.9,0.7c0.3,0.4,0.5,0.8,0.5,1.2c0,0.3-0.1,0.8-0.2,1.4
				c-0.1,0.6-0.3,1.1-0.4,1.6c-0.1,0.5-0.3,1.2-0.6,2c-0.3,0.9-0.5,1.5-0.6,1.9c0.7-1.3,1.3-2.4,2.1-3.2s1.3-1.2,1.8-1.2
				c0.3,0,0.7,0.3,1.1,0.8c0.4,0.5,0.6,1,0.6,1.5s-0.1,1.1-0.2,1.9s-0.4,1.6-0.8,2.4c-0.4,0.8-0.8,1.2-1.2,1.2
				c-0.3,0-0.5-0.2-0.5-0.7c0-0.3,0.1-0.9,0.3-1.7c0.3-1.1,0.4-1.9,0.4-2.1s0-0.4-0.1-0.4c-0.6,0-1.4,1-2.5,2.9
				c-0.4,0.7-0.7,1.1-1,1.5c-0.3,0.3-0.5,0.5-0.7,0.5c-0.2,0-0.5-0.2-0.8-0.6s-0.5-0.7-0.5-0.9c0-0.2,0-0.5,0.1-0.9s0.2-1,0.4-1.7
				c0.2-0.7,0.5-2.1,0.9-4C41.2,119.8,41.4,118.8,41.4,118.5z"/>
			<path style="&st20;" d="M53.3,122.5c0.1-0.3,0.2-0.4,0.5-0.4c0.2,0,0.5,0.2,0.8,0.6c0.3,0.4,0.5,0.8,0.5,1.1
				c0,0.1-0.2,0.8-0.7,2.2c-0.5,1.4-0.8,2.4-1.1,3.2c-0.1,0.4-0.4,0.6-0.7,0.6c-0.2,0-0.4-0.1-0.5-0.2s-0.2-0.4-0.2-0.7
				c0-0.3,0.1-0.8,0.2-1.3c-1,1.5-1.8,2.2-2.5,2.2c-0.3,0-0.7-0.2-1.2-0.6c-0.5-0.4-0.7-0.8-0.7-1.2c0-1,0.3-2.2,0.8-3.7
				c0.5-1.5,1.1-2.2,1.5-2.2c0.3,0,0.5,0.1,0.8,0.4c0.2,0.3,0.3,0.5,0.3,0.9c0,0.1-0.1,0.5-0.4,1c-0.8,1.6-1.1,2.8-1.1,3.5
				c0,0.1,0,0.1,0.1,0.1c0.2,0,0.4-0.2,0.8-0.7s0.9-1.2,1.4-2C52.6,124.3,53,123.4,53.3,122.5z"/>
			<path style="&st20;" d="M65.4,122.1c0.4,0,0.7,0.3,1,0.8c0.3,0.5,0.4,1,0.4,1.4c0,0.4-0.1,1.1-0.2,1.9c-0.2,0.8-0.4,1.7-0.8,2.4
				c-0.4,0.8-0.7,1.2-1.1,1.2c-0.3,0-0.5-0.2-0.5-0.7s0.1-1.2,0.4-2.2c0.3-1,0.4-1.7,0.4-2c0-0.3,0-0.5-0.1-0.5
				c-0.2,0-0.5,0.2-0.8,0.7s-0.6,1.1-1,1.8c-0.4,0.8-0.7,1.3-0.8,1.5c-0.1,0.2-0.2,0.4-0.2,0.5c-0.1,0.1-0.1,0.3-0.2,0.4
				c-0.3,0.5-0.7,0.5-1.3,0c-0.3-0.3-0.4-0.5-0.4-0.7c0,0,0.1-0.4,0.2-1.1c0.2-0.7,0.2-1.6,0.2-2.5c0-0.4,0-0.6-0.1-0.6
				c-0.1,0-0.3,0.1-0.4,0.4c-0.2,0.2-0.4,0.7-0.7,1.3c-0.3,0.6-0.6,1.1-0.9,1.6c-0.8,1.4-1.5,2.1-1.9,2.1c-0.2,0-0.5-0.2-0.8-0.6
				c-0.3-0.4-0.5-0.7-0.5-0.8s0.1-0.7,0.3-1.4c0.2-0.7,0.4-1.5,0.4-2.4c0.1-0.8,0.1-1.5,0.2-2c0.1-0.5,0.2-0.7,0.4-0.7
				c0.4,0,0.7,0.2,1.1,0.5c0.4,0.3,0.5,0.6,0.5,0.9c0,0.6-0.2,1.6-0.6,3.1c0.7-1.7,1.3-2.8,1.8-3.4c0.5-0.6,1-0.9,1.5-0.9
				c0.3,0,0.6,0.2,1,0.7s0.6,0.9,0.6,1.3s0,0.8,0,1.1c0.3-0.8,0.8-1.5,1.4-2.2C64.2,122.4,64.8,122.1,65.4,122.1z"/>
			<path style="&st20;" d="M73.9,125.6c0.2,0.2,0.3,0.3,0.3,0.4s-0.1,0.4-0.2,0.8c-0.1,0.4-0.2,0.7-0.2,1c0,0.2-0.1,0.4-0.1,0.5
				s0,0.2-0.1,0.3c0,0.1,0,0.2-0.1,0.3c0,0.1,0,0.2-0.1,0.3s0,0.1-0.1,0.2c0,0.1-0.1,0.2-0.1,0.2c0,0-0.1,0.1-0.1,0.1
				c-0.1,0.1-0.2,0.1-0.3,0.1c-0.1,0-0.3-0.1-0.5-0.4c-0.2-0.3-0.4-0.6-0.5-1c-0.9,1-1.7,1.4-2.4,1.4c-0.4,0-0.9-0.2-1.4-0.7
				c-0.5-0.5-0.8-0.9-0.8-1.4c0-0.5,0.2-1.2,0.6-2c0.4-0.9,1-1.7,1.8-2.4s1.5-1.1,2.2-1.1c0.4,0,0.9,0.2,1.5,0.7
				c0.6,0.5,0.8,0.9,0.8,1.3C74.4,124.6,74.3,125.1,73.9,125.6z M69.6,128c0.4,0,0.9-0.3,1.6-0.8c0.7-0.5,1.1-1.2,1.2-2.1
				c0-0.1,0.1-0.2,0.3-0.2c0-0.6-0.1-0.9-0.3-0.9c-0.4,0-0.8,0.3-1.3,0.8c-0.5,0.5-0.9,1.1-1.2,1.7c-0.3,0.6-0.5,1-0.5,1.3
				c0,0.1,0,0.1,0,0.2C69.4,127.9,69.5,128,69.6,128z"/>
			<path style="&st20;" d="M80.7,122.1c0.5,0,1,0.2,1.4,0.7c0.4,0.5,0.6,1,0.6,1.5c0,0.9-0.1,1.7-0.4,2.7s-0.6,1.6-0.9,2.1
				c-0.3,0.5-0.7,0.8-1,0.8s-0.5-0.2-0.5-0.7c0-0.4,0.2-1.1,0.5-2.2c0.3-0.9,0.4-1.5,0.4-1.9c0-0.4,0-0.6-0.1-0.6
				c-0.1,0-0.3,0.1-0.4,0.2s-0.2,0.2-0.3,0.3c-0.1,0.1-0.2,0.2-0.3,0.4c-0.1,0.2-0.2,0.3-0.3,0.4c-0.1,0.1-0.2,0.3-0.3,0.5
				c-0.1,0.2-0.2,0.4-0.3,0.5s-0.2,0.3-0.3,0.5c-0.9,1.7-1.7,2.6-2.2,2.6c-0.2,0-0.5-0.2-0.8-0.5c-0.3-0.4-0.5-0.6-0.5-0.8
				c0-0.1,0.1-0.3,0.2-0.7c0.1-0.4,0.3-0.6,0.3-0.8s0.1-0.4,0.2-0.6c0-0.2,0.1-0.5,0.1-0.7s0.1-0.5,0.1-0.6c0-0.1,0-0.4,0.1-0.7
				c0.1-1.3,0.2-2,0.2-2.2c0.1-0.1,0.1-0.2,0.2-0.2c0.4,0,0.7,0.2,1.1,0.5s0.5,0.6,0.5,0.9c0,0.6-0.2,1.5-0.5,2.7
				c0.7-1.1,1.2-2.1,1.8-2.8S80.4,122.1,80.7,122.1z"/>
			<path style="&st20;" d="M84.6,123.8c0.8-1.1,1.5-1.7,2.3-1.7s1.4,0.3,1.9,0.8c0.5,0.5,0.8,1.2,0.8,1.9c0,0.8-0.2,1.5-0.5,2.3
				c-0.4,0.8-0.9,1.4-1.5,1.9c-0.7,0.5-1.3,0.8-2.1,0.8c-0.5,0-1-0.2-1.4-0.7c-0.4-0.5-0.6-1.1-0.6-1.8
				C83.5,126.1,83.8,124.9,84.6,123.8z M87.1,126.9c0.4-0.7,0.6-1.4,0.6-2.1c0-0.6-0.1-1.1-0.3-1.3c-0.4,0.3-0.9,0.8-1.3,1.6
				c-0.4,0.8-0.6,1.5-0.6,2.1s0.1,1,0.2,1.1C86.2,128.1,86.7,127.6,87.1,126.9z"/>
			<path style="&st20;" d="M101.7,122.5c0.1-0.3,0.2-0.4,0.5-0.4c0.3,0,0.5,0.2,0.8,0.5c0.3,0.3,0.4,0.7,0.4,1.2
				c0,0.3-0.1,0.6-0.3,1.2s-0.3,0.9-0.4,1.2s-0.2,0.5-0.3,0.9c-0.1,0.4-0.3,0.8-0.4,1.1c-0.1,0.3-0.3,0.8-0.5,1.3s-0.4,1.1-0.5,1.6
				c-0.3,0.9-0.7,1.6-1.1,2.1c-0.4,0.5-1,0.7-1.7,0.7s-1.3-0.2-1.9-0.6c-0.6-0.4-0.8-0.8-0.8-1.1c0-0.2,0.1-0.5,0.3-0.8
				s0.4-0.4,0.5-0.4c0.1,0,0.3,0.1,0.6,0.4c0.2,0.2,0.5,0.5,0.7,0.7c0.3,0.2,0.5,0.4,0.7,0.4c0.1,0,0.2-0.1,0.3-0.2s0.2-0.2,0.2-0.3
				c0.1-0.1,0.1-0.2,0.2-0.4c0.1-0.2,0.1-0.3,0.2-0.5s0.1-0.3,0.2-0.6c0.1-0.2,0.1-0.4,0.2-0.6c0.2-0.5,0.3-1,0.4-1.4
				c-0.3,0.4-0.7,0.8-1,1c-0.4,0.3-0.7,0.4-1,0.4s-0.7-0.2-1.1-0.7c-0.4-0.4-0.7-0.9-0.7-1.5c0-0.5,0.1-1.3,0.4-2.2
				c0.2-0.9,0.5-1.7,0.9-2.4c0.3-0.7,0.7-1,0.9-1c0.3,0,0.6,0.1,0.9,0.4c0.3,0.3,0.4,0.5,0.4,0.8s-0.1,0.6-0.4,1.2s-0.5,1.1-0.7,1.8
				c-0.3,0.6-0.4,1.2-0.4,1.6c0,0.1,0,0.1,0.1,0.1c0.1,0,0.4-0.2,0.8-0.7c0.4-0.5,0.9-1.2,1.4-2.1
				C101.1,124.3,101.5,123.4,101.7,122.5z"/>
			<path style="&st20;" d="M112.8,118.6c0.4,0.4,0.6,0.9,0.6,1.3c0,0.4-0.1,1.1-0.2,2.1c-0.1,1-0.2,1.8-0.4,2.5
				c-0.8,3.6-1.4,5.4-1.7,5.4c-0.2,0-0.5-0.2-0.8-0.5c-0.3-0.4-0.5-0.6-0.5-0.9c0,0,0.1-0.5,0.4-1.6c0.3-1,0.5-2.3,0.8-3.9
				s0.4-3.1,0.4-4.6c0-0.3,0.2-0.4,0.5-0.4C112.1,117.9,112.4,118.1,112.8,118.6z"/>
			<path style="&st20;" d="M120.1,125.6c0.2,0.2,0.3,0.3,0.3,0.4s-0.1,0.4-0.2,0.8s-0.2,0.7-0.2,1c0,0.2-0.1,0.4-0.1,0.5
				c0,0.1,0,0.2-0.1,0.3c0,0.1,0,0.2-0.1,0.3c0,0.1,0,0.2-0.1,0.3c0,0.1,0,0.1-0.1,0.2c0,0.1-0.1,0.2-0.1,0.2c0,0-0.1,0.1-0.1,0.1
				c-0.1,0.1-0.2,0.1-0.3,0.1c-0.1,0-0.3-0.1-0.5-0.4c-0.2-0.3-0.4-0.6-0.5-1c-0.9,1-1.7,1.4-2.4,1.4c-0.4,0-0.9-0.2-1.4-0.7
				c-0.5-0.5-0.8-0.9-0.8-1.4c0-0.5,0.2-1.2,0.6-2c0.4-0.9,1-1.7,1.8-2.4c0.7-0.8,1.5-1.1,2.2-1.1c0.4,0,0.9,0.2,1.5,0.7
				c0.5,0.5,0.8,0.9,0.8,1.3C120.5,124.6,120.4,125.1,120.1,125.6z M115.7,128c0.4,0,0.9-0.3,1.6-0.8c0.7-0.5,1.1-1.2,1.2-2.1
				c0-0.1,0.1-0.2,0.3-0.2c0-0.6-0.1-0.9-0.3-0.9c-0.4,0-0.8,0.3-1.3,0.8s-0.9,1.1-1.2,1.7c-0.3,0.6-0.5,1-0.5,1.3
				c0,0.1,0,0.1,0,0.2C115.6,127.9,115.6,128,115.7,128z"/>
			<path style="&st20;" d="M132.7,122.1c0.5,0,1,0.2,1.4,0.7c0.4,0.5,0.6,1,0.6,1.5c0,0.9-0.1,1.7-0.4,2.7s-0.6,1.6-0.9,2.1
				c-0.3,0.5-0.7,0.8-1,0.8s-0.5-0.2-0.5-0.7c0-0.4,0.2-1.1,0.5-2.2c0.3-0.9,0.4-1.5,0.4-1.9c0-0.4,0-0.6-0.1-0.6
				c-0.1,0-0.3,0.1-0.4,0.2s-0.2,0.2-0.3,0.3c-0.1,0.1-0.2,0.2-0.3,0.4c-0.1,0.2-0.2,0.3-0.3,0.4c-0.1,0.1-0.2,0.3-0.3,0.5
				c-0.1,0.2-0.2,0.4-0.3,0.5c-0.1,0.1-0.2,0.3-0.3,0.5c-0.9,1.7-1.7,2.6-2.2,2.6c-0.2,0-0.5-0.2-0.8-0.5c-0.3-0.4-0.5-0.6-0.5-0.8
				c0-0.1,0.1-0.3,0.2-0.7c0.1-0.4,0.3-0.6,0.3-0.8s0.1-0.4,0.2-0.6c0-0.2,0.1-0.5,0.1-0.7s0.1-0.5,0.1-0.6c0-0.1,0-0.4,0.1-0.7
				c0.1-1.3,0.2-2,0.2-2.2c0.1-0.1,0.1-0.2,0.2-0.2c0.4,0,0.7,0.2,1.1,0.5s0.5,0.6,0.5,0.9c0,0.6-0.2,1.5-0.5,2.7
				c0.7-1.1,1.2-2.1,1.8-2.8S132.3,122.1,132.7,122.1z"/>
			<path style="&st20;" d="M141.8,125.6c0.2,0.2,0.3,0.3,0.3,0.4s-0.1,0.4-0.2,0.8s-0.2,0.7-0.2,1c0,0.2-0.1,0.4-0.1,0.5
				c0,0.1,0,0.2-0.1,0.3c0,0.1,0,0.2-0.1,0.3c0,0.1,0,0.2-0.1,0.3c0,0.1,0,0.1-0.1,0.2c0,0.1-0.1,0.2-0.1,0.2c0,0-0.1,0.1-0.1,0.1
				c-0.1,0.1-0.2,0.1-0.3,0.1c-0.1,0-0.3-0.1-0.5-0.4c-0.2-0.3-0.4-0.6-0.5-1c-0.9,1-1.7,1.4-2.4,1.4c-0.4,0-0.9-0.2-1.4-0.7
				c-0.5-0.5-0.8-0.9-0.8-1.4c0-0.5,0.2-1.2,0.6-2c0.4-0.9,1-1.7,1.8-2.4c0.7-0.8,1.5-1.1,2.2-1.1c0.4,0,0.9,0.2,1.5,0.7
				c0.5,0.5,0.8,0.9,0.8,1.3C142.3,124.6,142.1,125.1,141.8,125.6z M137.5,128c0.4,0,0.9-0.3,1.6-0.8c0.7-0.5,1.1-1.2,1.2-2.1
				c0-0.1,0.1-0.2,0.3-0.2c0-0.6-0.1-0.9-0.3-0.9c-0.4,0-0.8,0.3-1.3,0.8s-0.9,1.1-1.2,1.7c-0.3,0.6-0.5,1-0.5,1.3
				c0,0.1,0,0.1,0,0.2C137.3,127.9,137.4,128,137.5,128z"/>
			<path style="&st20;" d="M146.6,125c-0.2,0.5-0.3,1.1-0.6,1.8c-0.2,0.7-0.3,1.1-0.3,1.2c0,0,0.1,0.1,0.2,0.1s0.6-0.1,1.2-0.3
				s1-0.3,1.1-0.3c0.3,0,0.4,0.2,0.4,0.5c0,0.3-0.3,0.7-1,1.2c-0.7,0.5-1.4,0.7-2.1,0.7c-0.3,0-0.7-0.2-1.1-0.5
				c-0.4-0.3-0.7-0.7-0.7-1.1c0-0.3,0.2-0.9,0.5-1.9c0.3-1,0.5-1.6,0.6-2c-0.4,0.1-0.7,0.2-0.9,0.2s-0.4-0.1-0.6-0.4
				s-0.3-0.5-0.3-0.8c0-0.3,0.8-0.6,2.3-0.8c0.2-0.9,0.3-1.7,0.3-2.4c0-0.3,0.2-0.5,0.5-0.5c0.3,0,0.6,0.2,1,0.5
				c0.4,0.3,0.6,0.6,0.6,0.9s-0.1,0.7-0.2,1.3c0.5,0,0.8,0,1.1,0c0.8,0,1.1,0.2,1.1,0.5c0,0.2-0.2,0.4-0.7,0.6
				c-0.4,0.2-1.1,0.3-2,0.5C146.9,124.2,146.8,124.5,146.6,125z"/>
			<path style="&st20;" d="M155.1,122.5c0.1-0.3,0.2-0.4,0.5-0.4s0.5,0.2,0.8,0.6c0.3,0.4,0.5,0.8,0.5,1.1c0,0.1-0.2,0.8-0.7,2.2
				c-0.5,1.4-0.8,2.4-1.1,3.2c-0.1,0.4-0.4,0.6-0.7,0.6c-0.2,0-0.4-0.1-0.5-0.2c-0.1-0.1-0.2-0.4-0.2-0.7c0-0.3,0.1-0.8,0.2-1.3
				c-1,1.5-1.9,2.2-2.5,2.2c-0.3,0-0.7-0.2-1.2-0.6c-0.5-0.4-0.7-0.8-0.7-1.2c0-1,0.3-2.2,0.8-3.7c0.5-1.5,1.1-2.2,1.5-2.2
				c0.3,0,0.5,0.1,0.8,0.4c0.2,0.3,0.3,0.5,0.3,0.9c0,0.1-0.1,0.5-0.4,1c-0.8,1.6-1.1,2.8-1.1,3.5c0,0.1,0,0.1,0.1,0.1
				c0.2,0,0.4-0.2,0.8-0.7s0.9-1.2,1.4-2C154.4,124.3,154.8,123.4,155.1,122.5z"/>
			<path style="&st20;" d="M158,124.6l-0.1-1.7c0-0.6,0.2-0.8,0.5-0.8c0.2,0,0.4,0.1,0.6,0.2c0.2,0.1,0.3,0.4,0.4,0.7
				c0.3-0.3,0.7-0.5,1.1-0.7c0.4-0.2,0.8-0.3,1.1-0.3c0.7,0,1.1,0.2,1.1,0.5c0,0.2,0,0.3-0.1,0.4s-0.1,0.1-0.2,0.2s-0.1,0.1-0.2,0.2
				c-0.1,0.1-0.1,0.1-0.2,0.1c-0.2,0.1-0.4,0.3-0.5,0.3c-0.5,0.3-0.8,0.6-1.2,1c-0.3,0.4-0.6,0.9-0.7,1.6c-0.3,1.2-0.5,2-0.8,2.6
				s-0.5,0.8-0.9,0.8c-0.3,0-0.5-0.2-0.7-0.5c-0.2-0.3-0.2-0.6-0.2-0.8c0-0.3,0.1-0.7,0.3-1.2c0.2-0.5,0.3-1,0.4-1.4
				C157.9,125.6,158,125.1,158,124.6z"/>
			<path style="&st20;" d="M169,125.6c0.2,0.2,0.3,0.3,0.3,0.4s-0.1,0.4-0.2,0.8s-0.2,0.7-0.2,1c0,0.2-0.1,0.4-0.1,0.5
				c0,0.1,0,0.2-0.1,0.3c0,0.1,0,0.2-0.1,0.3c0,0.1,0,0.2-0.1,0.3c0,0.1,0,0.1-0.1,0.2c0,0.1-0.1,0.2-0.1,0.2c0,0-0.1,0.1-0.1,0.1
				c-0.1,0.1-0.2,0.1-0.3,0.1c-0.1,0-0.3-0.1-0.5-0.4c-0.2-0.3-0.4-0.6-0.5-1c-0.9,1-1.7,1.4-2.4,1.4c-0.4,0-0.9-0.2-1.4-0.7
				c-0.5-0.5-0.8-0.9-0.8-1.4c0-0.5,0.2-1.2,0.6-2c0.4-0.9,1-1.7,1.8-2.4c0.7-0.8,1.5-1.1,2.2-1.1c0.4,0,0.9,0.2,1.5,0.7
				c0.5,0.5,0.8,0.9,0.8,1.3C169.4,124.6,169.3,125.1,169,125.6z M164.6,128c0.4,0,0.9-0.3,1.6-0.8c0.7-0.5,1.1-1.2,1.2-2.1
				c0-0.1,0.1-0.2,0.3-0.2c0-0.6-0.1-0.9-0.3-0.9c-0.4,0-0.8,0.3-1.3,0.8s-0.9,1.1-1.2,1.7c-0.3,0.6-0.5,1-0.5,1.3
				c0,0.1,0,0.1,0,0.2C164.4,127.9,164.5,128,164.6,128z"/>
			<path style="&st20;" d="M173.3,118.6c0.4,0.4,0.6,0.9,0.6,1.3c0,0.4-0.1,1.1-0.2,2.1c-0.1,1-0.2,1.8-0.4,2.5
				c-0.8,3.6-1.4,5.4-1.7,5.4c-0.2,0-0.5-0.2-0.8-0.5c-0.3-0.4-0.5-0.6-0.5-0.9c0,0,0.1-0.5,0.4-1.6c0.3-1,0.5-2.3,0.8-3.9
				s0.4-3.1,0.4-4.6c0-0.3,0.2-0.4,0.5-0.4C172.6,117.9,172.9,118.1,173.3,118.6z"/>
			<path style="&st20;" d="M179.9,126.2c-0.7,0.4-1.3,0.6-2,0.6s-1.3,0-1.7-0.1c-0.1,0.3-0.1,0.5-0.1,0.8s0,0.5,0.1,0.6
				c0.1,0.1,0.3,0.2,0.7,0.2c0.8,0,1.4-0.1,1.9-0.2c0.5-0.1,0.8-0.2,0.8-0.2c0.4,0,0.6,0.1,0.6,0.4c0,0.4-0.3,0.8-1,1.1
				c-0.6,0.4-1.4,0.5-2.2,0.5c-0.8,0-1.5-0.3-2-0.8c-0.5-0.5-0.8-1.2-0.8-1.9s0.2-1.5,0.6-2.3c0.4-0.8,1-1.5,1.6-2
				c0.6-0.5,1.3-0.8,1.9-0.8s1.2,0.3,1.8,0.9s0.8,1.2,0.8,1.9C180.9,125.4,180.6,125.8,179.9,126.2z M178.9,124.2
				c-0.2-0.2-0.4-0.3-0.6-0.3c-0.2,0-0.4,0.1-0.7,0.4c-0.3,0.3-0.6,0.6-0.8,1c0.1,0,0.2,0,0.4,0c1.4,0,2.1-0.2,2.1-0.7
				C179.2,124.6,179.1,124.4,178.9,124.2z"/>
			<path style="&st20;" d="M183.8,127.9l3.3-0.1c0.2,0,0.4,0,0.6,0.1c0.2,0.1,0.2,0.2,0.2,0.4c0,0.5-0.4,0.8-1.3,1.1
				c-0.9,0.3-2,0.4-3.3,0.4c-0.5,0-0.9-0.2-1.4-0.6c-0.4-0.4-0.6-0.8-0.6-1.1c0-0.3,0.3-0.6,0.8-1c0.5-0.4,1.1-0.8,1.7-1.2
				c0.6-0.4,1.2-0.7,1.7-1c0.5-0.3,0.8-0.5,0.8-0.7c0-0.1-0.3-0.2-0.8-0.2s-1,0-1.3,0.1s-0.6,0.1-0.8,0.1s-0.5-0.2-0.7-0.5
				c-0.3-0.3-0.4-0.6-0.4-0.8c0-0.3,0.3-0.5,0.8-0.6c0.5-0.1,1.1-0.2,1.7-0.2s1.3,0.1,2,0.3c0.3,0.1,0.6,0.3,1,0.8
				c0.3,0.4,0.5,0.7,0.5,1c0,0.4-0.2,0.9-0.7,1.3c-0.4,0.5-0.9,0.9-1.4,1.2c-0.5,0.3-1,0.6-1.4,0.8
				C183.9,127.7,183.7,127.9,183.8,127.9C183.7,127.9,183.7,127.9,183.8,127.9z"/>
			<path style="&st20;" d="M195.1,125.6c0.2,0.2,0.3,0.3,0.3,0.4s-0.1,0.4-0.2,0.8s-0.2,0.7-0.2,1c0,0.2-0.1,0.4-0.1,0.5
				c0,0.1,0,0.2-0.1,0.3c0,0.1,0,0.2-0.1,0.3c0,0.1,0,0.2-0.1,0.3c0,0.1,0,0.1-0.1,0.2c0,0.1-0.1,0.2-0.1,0.2c0,0-0.1,0.1-0.1,0.1
				c-0.1,0.1-0.2,0.1-0.3,0.1c-0.1,0-0.3-0.1-0.5-0.4c-0.2-0.3-0.4-0.6-0.5-1c-0.9,1-1.7,1.4-2.4,1.4c-0.4,0-0.9-0.2-1.4-0.7
				c-0.5-0.5-0.8-0.9-0.8-1.4c0-0.5,0.2-1.2,0.6-2c0.4-0.9,1-1.7,1.8-2.4c0.7-0.8,1.5-1.1,2.2-1.1c0.4,0,0.9,0.2,1.5,0.7
				c0.5,0.5,0.8,0.9,0.8,1.3C195.6,124.6,195.4,125.1,195.1,125.6z M190.8,128c0.4,0,0.9-0.3,1.6-0.8c0.7-0.5,1.1-1.2,1.2-2.1
				c0-0.1,0.1-0.2,0.3-0.2c0-0.6-0.1-0.9-0.3-0.9c-0.4,0-0.8,0.3-1.3,0.8s-0.9,1.1-1.2,1.7c-0.3,0.6-0.5,1-0.5,1.3
				c0,0.1,0,0.1,0,0.2C190.6,127.9,190.7,128,190.8,128z"/>
			<path style="&st20;" d="M198.2,130.1c-0.3,0-0.7-0.2-1.1-0.6c-0.4-0.4-0.6-0.7-0.6-1s0.1-0.6,0.4-0.9s0.5-0.4,0.8-0.4
				c0.3,0,0.5,0.3,0.9,0.8c0.3,0.6,0.5,1,0.5,1.3c0,0.1-0.1,0.3-0.3,0.5C198.5,130,198.4,130.1,198.2,130.1z"/>
		</g>
		<g>
			<g>
				<g>
					<g>
						<g>
							<path style="&st20;" d="M230.7,143c0.3,0,0.2-0.4,0.3-0.5C230.4,142.6,230.7,143.1,230.7,143z"/>
							<polygon style="&st20;" points="225.1,143.9 225.2,143.8 224.4,144.2 							"/>
							<path style="&st20;" d="M219.8,143.9c0.5,0.7,1.9-0.1,2.8,0.1l0.2,0.2l0.4-0.6C222.1,143.7,220.6,144.1,219.8,143.9z"/>
							<path style="&st20;" d="M217,142.4c0.2,0.3-0.6,0.2,0.7,0.1c-0.1,0-0.1,0-0.1-0.1C217.5,142.4,217.3,142.4,217,142.4z"/>
							<path style="&st20;" d="M217.6,142.4C218.1,142.4,217.2,142.2,217.6,142.4L217.6,142.4z"/>
							<path style="&st20;" d="M215,142.6l0.7-0.2c-0.2-0.2-0.8-0.2-0.6-0.3C214.4,142.1,214.6,142.3,215,142.6z"/>
							<path style="&st20;" d="M214.3,143.1l0.4-0.1C214.6,142.9,214.5,142.9,214.3,143.1z"/>
							<path style="&st20;" d="M215.5,142.7l-0.8,0.2c0.1,0.1,0.1,0.3,0.4-0.1C215,143.1,215.2,142.9,215.5,142.7z"/>
							<path style="&st20;" d="M215.9,142.9c0.4,0.2,0.9,0.3,0.2,0.5C217.6,143.3,217.3,142.8,215.9,142.9z"/>
							<path style="&st20;" d="M219.6,144.7l0.5,0.2l0.5-0.2C220.4,144.7,219.5,144.4,219.6,144.7z"/>
							<path style="&st20;" d="M210.5,142.2c0,0.2,0.2,0.4,0.3,0.6l0.5-0.2C211,142.5,210.5,142.4,210.5,142.2z"/>
							<path style="&st20;" d="M210.8,142.8l-0.8,0.3C210.7,143.1,210.8,142.9,210.8,142.8z"/>
							<polygon style="&st20;" points="214.2,143.9 215.5,143.3 213.9,143.9 							"/>
							<polygon style="&st20;" points="207.4,142.2 207.8,141.8 207,142.3 							"/>
							<path style="&st20;" d="M205.3,142.2c0.3-0.3-0.5-0.5-0.1-0.7c-0.6,0.1-1,0.3-1.5,0.5C204.2,142,204.7,142,205.3,142.2z"/>
							<path style="&st20;" d="M203,142.4c0.2-0.1,0.5-0.2,0.7-0.3C203.5,142.1,203.3,142.2,203,142.4z"/>
							<path style="&st20;" d="M208.6,143c-0.1-0.1-0.2-0.3-0.6-0.4l0.3,0.4C208.4,143,208.5,143,208.6,143z"/>
							<path style="&st20;" d="M208.3,143L208.3,143c-0.4,0-0.6,0-0.7,0C207.7,142.9,207.9,143,208.3,143z"/>
							<path style="&st20;" d="M208.7,143C208.6,143,208.6,143,208.7,143C208.6,143,208.6,143,208.7,143z"/>
							<path style="&st20;" d="M212.1,143.5c-0.5,0.2-1.5,0.5-0.5,0.9C211.9,144,211.4,143.8,212.1,143.5z"/>
							<path style="&st20;" d="M209,143.5l0.9,0.1c0-0.1-0.2-0.3,0.1-0.4L209,143.5z"/>
							<polygon style="&st20;" points="208.6,143.6 209,143.5 208.7,143.5 							"/>
							<path style="&st20;" d="M204.5,142.8c-0.4,0.2-0.8,0.2-1.2,0.2c0.5,0.1,1,0.1,1.5,0.1C204.8,143,205,142.8,204.5,142.8z"/>
							<path style="&st20;" d="M206.3,142.9C206.3,142.9,206.3,142.9,206.3,142.9C206.3,143,206.3,143,206.3,142.9z"/>
							<path style="&st20;" d="M198.8,143C198.8,143.1,198.8,143.1,198.8,143C198.9,143.1,198.9,143.1,198.8,143L198.8,143z"/>
							<path style="&st20;" d="M204.8,143.2c0.4,0.1,0.6,0,0.8-0.2C205.4,143.1,205.1,143.2,204.8,143.2
								C204.7,143.2,204.7,143.3,204.8,143.2z"/>
							<path style="&st20;" d="M201.8,142.6c0.2,0.1,0.4,0.2,0.6,0.2C202.2,142.7,201.9,142.5,201.8,142.6z"/>
							<path style="&st20;" d="M206.1,142.8C206.2,142.8,206.2,142.8,206.1,142.8C206.1,142.7,206.1,142.8,206.1,142.8z"/>
							<path style="&st20;" d="M206.1,142.8c-0.2,0.1-0.3,0.2-0.5,0.3c0.2,0,0.4-0.1,0.6-0.1C206.2,142.9,206.2,142.9,206.1,142.8z"
								/>
							<path style="&st20;" d="M197.4,145.8c0.1-0.4,1-0.8,1.9-0.3c0.8-0.3,0.3-1.6-0.4-2.3c0,0.2,0,0.3-0.9,0.6
								c0.3,0.2,1.9,0.5,1.2,0.9c-1.1,0.2-0.9-0.1-1.5-0.3c0.5,0.5-1.4,0.7-1.2,1.4l1-0.3C197.5,145.5,197.1,145.7,197.4,145.8z"/>
							<path style="&st20;" d="M200.5,143.2l0.3,0c-0.4-0.1-0.7-0.2-1.2-0.5c-0.6,0.2-0.7,0.3-0.7,0.5l1.7,0.1L200.5,143.2z"/>
							<path style="&st20;" d="M202.4,143.1c-0.3,0.4-1.1,0.6-0.6,1.1c1,0,0.7-0.4,1.3-0.5C201.5,143.7,203.6,143.4,202.4,143.1
								c0.3,0,0.6,0,0.9-0.1c-0.3-0.1-0.6-0.1-0.9-0.2c0,0,0,0,0,0l0,0c0,0,0,0,0,0c0.1,0.1,0.1,0.1,0,0.1c0,0,0,0,0,0
								C202.4,143,202.4,143,202.4,143.1c-0.5-0.1-0.1-0.1,0.1-0.2c0,0,0,0,0-0.1c0,0,0,0,0,0l-1.7,0.2
								C201.2,143.2,201.6,143.2,202.4,143.1z"/>
							<path style="&st20;" d="M210.7,145.3c-0.1,0,0-0.1-0.1-0.1C210.5,145.2,210.5,145.3,210.7,145.3z"/>
							<path style="&st20;" d="M210,145c0.1-0.1,0.2-0.2,0.6-0.2c0.3,0.1,0,0.2,0,0.3c0.2-0.1,0.8-0.3,0.1-0.5l-0.1,0.1
								c-0.7-0.1-1.5-0.7-1.4-0.7C209.4,144.3,209.6,144.6,210,145z"/>
							<path style="&st20;" d="M206.1,144.2l-1.4,0.2l0.7,0.4l0-0.2C206.2,144.6,206,144.3,206.1,144.2z"/>
							<polygon style="&st20;" points="198.6,142.8 198.8,142.4 198,143 							"/>
							<polygon style="&st20;" points="196.8,142.9 196.9,142.5 196.4,142.7 							"/>
							<path style="&st20;" d="M95.8,147.8l-0.4,0.1C95.6,147.9,95.8,147.8,95.8,147.8z"/>
							<path style="&st20;" d="M98.8,147.8l0.1-0.2C98.7,147.7,98.7,147.8,98.8,147.8z"/>
							<path style="&st20;" d="M152.9,142.9c-0.6-0.4-1.2-0.9-1.2-0.5l0.2,0.4C152.3,142.8,152.6,142.8,152.9,142.9z"/>
							<path style="&st20;" d="M122.8,145.5c0.1,0,0.1,0.1,0.2,0.1c0.1-0.1,0.3-0.3,0.4-0.4C123.2,145.3,123,145.4,122.8,145.5z"/>
							<path style="&st20;" d="M122.4,147.3l-0.8-0.3C121.8,147.1,122,147.2,122.4,147.3z"/>
							<path style="&st20;" d="M79.8,148.2l-0.5,0.4C80.1,148.7,79.8,148.5,79.8,148.2z"/>
							<path style="&st20;" d="M178.5,143c-0.5-0.2-0.9-0.2-1.3-0.3C177.8,143,178.3,143.4,178.5,143z"/>
							<path style="&st20;" d="M97,143.2c-0.2,0.1-0.4,0.2-0.3,0.3C96.9,143.4,97.1,143.3,97,143.2z"/>
							<path style="&st20;" d="M175.8,142.8c0.1,0,0.2,0.1,0.3,0.1c0.4-0.1,0.7-0.1,1.2-0.1C176.8,142.6,176.3,142.5,175.8,142.8z"
								/>
							<path style="&st20;" d="M21.8,147.9c0,0-0.1,0-0.1-0.1C21.7,147.9,21.7,147.9,21.8,147.9z"/>
							<path style="&st20;" d="M4.9,143.5c0.2,0,0.4,0,0.7,0C5.5,143.4,5.3,143.4,4.9,143.5z"/>
							<path style="&st20;" d="M189.6,142.7C190,142.7,189.7,142.6,189.6,142.7L189.6,142.7z"/>
							<path style="&st20;" d="M191.5,144.4c-0.1,0-0.1,0.1-0.2,0.2C191.4,144.5,191.4,144.4,191.5,144.4z"/>
							<path style="&st20;" d="M172,145.5C172,145.5,172,145.5,172,145.5C172.1,145.6,172,145.5,172,145.5z"/>
							<path style="&st20;" d="M190.2,142.9c-0.1-0.1-0.3-0.1-0.5-0.1C189.8,142.8,189.9,142.8,190.2,142.9z"/>
							<path style="&st20;" d="M190.1,142.7c0.1,0,0.2,0,0.3,0C190.5,142.6,190.5,142.6,190.1,142.7z"/>
							<path style="&st20;" d="M189.1,142.7c0.2,0,0.4,0,0.6,0c-0.1,0-0.1-0.1-0.1-0.1C189.5,142.7,189.4,142.7,189.1,142.7z"/>
							<path style="&st20;" d="M52.9,146.7C52.9,146.7,52.9,146.7,52.9,146.7C52.4,146.9,52.6,146.8,52.9,146.7z"/>
							<path style="&st20;" d="M143,147.4C143,147.4,143,147.4,143,147.4C143,147.4,143,147.4,143,147.4L143,147.4z"/>
							<path style="&st20;" d="M141.6,147.7c0.6-0.5,0.9-0.5,1.4-0.4l-0.5-1.3L141.6,147.7z"/>
							<path style="&st20;" d="M88.8,147.9l1,0.4c-1.2,0.6-2,0.4-1.1,1c0.1-1.4,3.7-0.1,3.9-1.5l0.6,0.3c-0.2,0-0.2,0.1-0.4,0.1
								c1.2,0.7,0.9-1,2.5-0.8c0.6,0.1,0.9,0.3,0.6,0.5l1.2-0.3c0.4,0,0.3,0.3-0.1,0.2l1.9-0.1l0,0c0.3-0.2,0.9-0.5,1.2-0.7
								c0.5,0.2-0.2,0.1-0.1,0.3l1-0.3c0.4,0.4-0.4,0.7-1.2,0.6c1,1.4,0.9-0.3,3,0.5l-1,0.2c0.6,0.8,1.4,0.5,2.5,1
								c-0.3-0.3-2.2-1.2-1.1-1.5c0.3,0.1,0.7,0.2,1.3-0.1c0,0.5,0.6,0.4,1.3,0.3l-0.1,0.6c0.8-0.2,0.7-0.5,1.2-0.8
								c0.9,0.1,1.1,0.6,1.3,1c1.4,0.1-1-0.8,0.7-0.9c1.2,0.2,2,0,3.5-0.4c0.8,0.2-0.1,0.4,0.2,0.6l0.7-0.5c0.2,0,0.1,0.2,0.1,0.2
								c0.6-0.2,0.1-0.6,1-0.8c0.3-0.7,2,1,3.2,0.2c0.3,0.2-0.1,0.4-0.1,0.6c1.7-0.5,1.4-0.4,2.8-1.1l1.2,0.4
								c-0.9-0.5,0.2-1,1.2-1.5c-0.3-0.2-0.6-0.4-0.7-0.5l1.5-0.3c0.2,0.1,0,0.3-0.2,0.6c0.1-0.1,0.2-0.1,0.3-0.2
								c0.5,0.2,0.3,0.6-0.1,1c-0.2-0.1-0.4-0.3-0.5-0.4c-0.4,0.4-0.7,0.8-0.7,1.2c0.1-0.1,0.3-0.1,0.5-0.2
								c-0.1,0.1-0.2,0.2-0.1,0.3c0.1,0.1,0.2-0.1,0.5-0.2l0.3,0.7l0.1-0.3l2,0.4c1.4-0.7,2.7-1.8,4.9-2.1c-0.6,0.5-0.1,0.9-0.2,1.5
								c-0.6-0.7-1.8,0.3-2.9,0.1c0.6,0.1,0.5,0.4,0.3,0.5l2.1-0.6c0,0.5,0.4,0.4,1,0.6c-0.4-1,1.6-0.7,2.4-1
								c0.1,0.3-0.2,0.7-1.2,0.6c1.1,0.8,1.5-1.2,2.6-0.5c-0.3,0-0.4,0-0.5,0.1c0.6-0.3,2-0.1,1.7,0.2l-0.3,0c1.7,0.1,5.1,0,5.4-0.8
								c0,0.1-0.2,1-0.3,1.2l3-2.9c-0.3,0.7,0.8,2.5-0.6,2.9c0.4,0.1,0.9,0.2,1.7,0c-0.3-0.1-0.7-1.1-0.3-1.1c1,0.8,0.7,0.4,2,1.1
								c-0.4-0.2,0-1.3,0.7-1.3c-0.1,0.2,0.1,1.1-0.2,1.2l1.6-1.1c-0.4,0.2-0.1,1,0.3,1.3c-0.2-0.2,1.4,0,1.8-0.1l-0.7-0.3
								c1.8,0.2,1.8-1.6,3.6-1.5c-0.2,0.2-0.5,1.4,0.4,1.6c0.4-0.6,1.9-2.8,3.5-3.2l0.3,0.3l1.2-0.4c-0.8,0.9-2.9,2.7-4.1,3.4
								c0.7,0.3,0.2,0.4,1.2,0.4c0.4,0.3-0.6,0.5-0.9,0.5l2.4,0.2c-0.1-0.7,1.8-0.7,1.7-1.2l-2.6,0.7c-0.1-0.7,1.5-1.9,3.2-1.8
								c0.4,0.3-0.3,1.2-0.3,1.4c0.2-0.2,1.6-0.4,1.8-0.3l-0.7,0.4c0.9,0.3,1.5-0.9,2.7-0.2c0.4,0,1.2,0.9,1.2,0.5
								c-0.6-0.8-0.8-3.1-0.3-3.7c0.1,0.1,2,0.7,2.5,1.1c0.6,0.6-1,1.4-0.4,2c0-0.2,0.4-0.4,0.5-0.5c0.4,0.2-0.2,0.6,0.7,0.5
								c0.1-0.7,1.8,0.1,0.4-0.6c0.9-0.2,0.9,0.1,1.9,0.1c-0.3-0.4,0.9-1.5,1.8-1.7c-0.1,0.2,0.1,0.4,0.2,0.5
								c1.8,0.1,2.7,0.4,4.4,0.4c0.2,0.2,1,0.4,0.6,0.7c0.2-0.1,0.5-0.4,1-0.4c1,0.6-1.1,0.1-0.4,0.8c0.1-0.4,1.3-0.5,2.1-0.8
								c-0.2-0.6-1.7-0.1-2.4,0.1c0-0.8,1.3-1.7,3-2.1c1.4-0.2,0.6,0.5,0.8,0.4c2.6,0.1,2.2-1.5,4.4-0.9c0.9,0.5,0,1.1,0.2,1.5
								c-1.1,0.2-1.7-0.3-2.5-0.3l0.9,0.3c-0.4,0.2-1.1,0.3-1.5,0.2c0.7,0.5,4.4,0.1,6.4,0.5c0.4-0.2,1-0.4,0.7-0.6l-0.6,0.1
								c-0.6-0.4,1.2-0.6,0.4-0.8c0.8-0.3,1.8-0.8,3-0.5l0.2,0.6c0-0.2-0.8-0.4-1.1-0.2c0.5-0.3,1.8,0.8,2.4,0L193,144
								c0.9-0.3,1.9-1,3-0.8c-0.5-0.6-0.2,0.1-1-0.6c0.7,0.9-2.7,0-1.7,0.9c-0.8-0.8-1.3-0.3-2.3-1c0,0.2,0.4,0.4-0.5,0.3
								c0,0.1-0.1,0.1-0.2,0.2c0,0,0,0-0.1,0c0,0,0,0,0,0c0,0,0,0,0,0c0.2,0.1,0.4,0.2,0.5,0.3c-0.4,0.5-1.9,0.4-2.3,0.7
								c-0.5-0.1,0.2-0.2-0.1-0.4l-0.7,0.4c-0.1-0.4-1.4-0.7-0.2-1l-1.1,0c-0.7-0.3-1.6-0.4-2.1-0.2c-0.5-0.1-1.3,0.5-0.9,0.1
								l-1.8,0.3l0-0.1c-1.7-0.1-3.6,0.7-5.5-0.1c-0.6,0.1-1.2,0.3-2.2,0.1l-0.2-0.4c-0.7,0.1-2.2-0.4-2.6,0c-0.8-1-3.6-0.2-4.9-0.4
								l0,0.5c-0.9,0-1.8,0.1-2.9,0.3l0.1,0.4c-1,0.4-2.5-0.3-4-0.3c0.1-0.2,0.5-0.1,0.8,0c-1.8-1-3.9,0.7-5.5,0
								c-0.4,0.2-0.7,0.1-1,0c0,0,0.1,0,0.1,0c0,0-0.1,0-0.2,0c-0.2-0.1-0.4-0.2-0.6-0.2c0.2,0.1,0.3,0.2,0.5,0.2
								c-0.3,0-0.8,0.1-1.3,0.2l-0.2-0.5c0,0-0.1,0-0.1,0c-0.5-0.2-0.4,0.2-0.1,0.6c-0.2,0.1-0.5,0.2-0.6,0.3
								c-0.4-0.8-1.2,0.3-1.8-0.6c-0.3,0.4-2.4,0.3-2.6,1.2c0-0.1-0.2-0.2,0.1-0.2c-0.5-0.1-1.1-0.2-1.5,0l-0.2-0.6l-1.2,0.8
								c-0.7-0.4-1-0.6-0.3-1.1c-1.7,0.7-1.4,0.3-2.8,1l0.1-0.4c-0.5,0-1.3,0.5-1.6,0.2c-1.1-0.8-5.7-0.1-8.6-0.8
								c0.6,1.2-1.4-0.5-1.5,0.4c-0.2-0.3-0.6-0.4-0.1-0.7c-1.5,0.3-2.3-0.4-3.3,0.3c-0.2-0.3,0.3-0.4,0.2-0.6
								c-0.1,0.1-0.5,0.2-0.6,0.1c-0.2-0.2,0.2-0.2,0.5-0.4c-1.5,0-1.7,0.9-1.8,1.7c-0.8-0.4-1.2-0.3-1.7,0.2
								c-0.3-0.3-0.7-0.5,0.2-0.6c-0.5,0-3.3-0.4-3.3,0.3c-0.2-0.2-0.7,0-0.9,0c-1.2,0-1.3-0.1-2.5,0l0.3,0.1
								c-0.5,0.8-1,0.2-1.9,0.3l0-0.1c-2.2-0.6-0.9,0.3-3.1-0.4l0.1,0.5c-0.2,1-1.9-0.6-3.2-0.2l0.5,0.3c-0.7,0.4-1.9-1.4-2.6-1.5
								c-0.1-0.1,0.2-0.1,0.4-0.2c-1.8-0.6-0.2,0.6-1.6,0.8c-0.2-0.3,0.3-0.9-0.6-0.9c-0.4-0.3-2.6,1.1-3.8,0.5
								c0.3,0.3,0.5,0.5-0.1,0.7c-1,0.1-2.6-1-3.4-0.2c-0.1-0.1-0.2-0.1-0.2-0.2c-0.7,0.2-2.4,0.4-2.8,0.8c-0.7-1.7-4.5,0.8-4.5-0.7
								l-2.2,0.1l0.1-0.2c-1.4-0.1-1.9,0.3-2.4,0.6c-0.3-0.1-0.1-0.2-0.1-0.3c-2.1-0.3-2.3-0.2-4,0.5l-0.2-0.5
								c-0.5,0.3-3-0.8-5.1-0.2c0-0.1,0.1-0.2,0.2-0.2c-2.3,0.6-5.5-1.4-6.4,0.4l-1.5,0.4c2,0.1-0.3,0.8,0.5,1.1
								c-0.8,0.1-2-0.5-1-0.6l0.1,0.1c0.3-0.9-2.4-0.3-2.4-1c-3.9,0-7.6-0.5-11.3-0.5l0.4,0.7l-1.3,0c-0.3-0.2-0.4-0.6,0.5-0.5
								c-0.5-0.4-1.5,0.3-1.5,0.5c-1.8-0.3,0.7-0.9,0.1-0.9l-0.7,0.1l0.2,0.1c-0.6,0.3-0.6,0.6-1.7,0.6c-0.7-0.1-0.4-0.5-0.6-0.5
								c0-0.1-0.1-0.1-0.4,0l-1.6-0.1l0.6,0.6c-0.7,0.3-1.5,0-0.8,0.6c-1.1-1-5.9-0.4-6.6-0.7c-1,0.4-2,0.4-3.2,0.4
								c0.3,0.1,0.5,0.8-0.6,0.7c0.4-1.3-1.9-0.6-2.8-1.5c0.8,0.6-3,0.2-1.8,1.1c-0.9-0.1-0.1-0.5-0.7-0.8c-2.1,0.5-4.6-0.3-7.1-0.2
								c0,0.2,0.4,0.4-0.2,0.7l-1.4-0.9c-0.5,0.1-0.5,1-1.4,0.4c0.1,0.1,0.3,0.4,0,0.4c-5-0.9-10.2,0.7-15.3-0.9
								c0.7,0.3,0.2,0.4-0.3,0.4c0.3,0.1,0,0.4,0.1,0.7l-2.1-0.7c-0.4,0.7-2.3,0-2.5,0.7l0.7-0.1c-0.9,0.7,1.3,1.7,1.1,2.6
								c1-0.8,2.7,1.3,4.3,0c0.4,0.2-0.3,0.3-0.1,0.5c0.4-0.4,0.9-0.5,1.9-0.3L8.8,147c2.6-0.1,3.8,0.3,6.7,0.6l-0.2-0.5
								c0.6,0.1,0.8,0.2,1.1,0.3c0.7-0.7-1.8,0-1.1-0.8c0.8,1,4.5,0,5,1.1c1,0-0.3-0.5,0.7-0.5l0.3,0.3l0.2-0.4c0.6,0.1,1,0.4,1,0.7
								c-0.2,0-0.4,0.1-0.6,0.1c0.8,0.3,2.3-0.1,2.6,0l-0.9-0.2c2.7-0.3,5.9,0.1,8.5-0.5l-0.2-0.2c2-0.4,1.6,0.2,3.7,0.1l-0.1,0.1
								c0.4-0.2,1-0.3,1.6-0.3c-0.5,0.3,1,0.5,0.3,0.8c2.1-0.4,1.1-0.3,2.5-1.2l0.3,0.4c0.5-0.3,0.5-0.5,1.6-0.6
								c-0.9,0.3,0.7,0.6-0.3,1c2.3,0.8,3.4-0.8,4.4,0.4c1-1-2-0.6-1.4-0.8c-0.5-0.3,0.9-0.8,1.6-0.7c0.7,0,1.2,1.3,3,1.3
								c-0.2,0-0.2,0.1-0.4,0.1c0.7,0.3,1.3-0.4,2.2,0.1c0.5-0.6,1.1,0,1.2-0.8l-1.7,0.2c0.9-0.2,1.8-1.1,3.4-0.7
								c-0.1,0.2-0.6,0.4-0.9,0.5c0.5,0.2,0.9-0.2,1.3,0.1c-0.1,0.8-2,0.2-3,0.8c0.5,0.3,1.9-0.6,1.4,0.3c0.7-1.1,1.8,0.1,3-0.7
								l-0.1,0.5c0.2-0.1,0.6-0.3,1-0.3l-0.6,0.6c1-0.5,1.9,0.5,2.9,0.2c-2,0-0.4-0.6-1.3-0.9c2.5-0.6,1.4,1.2,4.2,1
								c-0.4,0.1-1.4-0.3-0.8-0.5c0.5,0.1,1.2,0.3,1.5,0.5c1.8-0.1-0.3-0.5,0.5-0.8c0.6,0.6,0.9-0.2,1.7-0.4l0,0.5
								c2.1,0.3,0.6-1,2.4-0.6l-0.8,0.7l1-0.2L67,148c1.1-0.4,1.4-0.3,2.4-0.1c-0.2-0.3,0.1-0.9,1.1-0.9c0.6,0.3-0.4,0.5,1,0.4
								c-0.3,0.3-0.6,0.7-1.2,0.2c-0.1,0.2-0.3,0.3-0.4,0.5c0.7,0.3,1.7,0.1,2.2,0.1c-0.2,0-0.4,0-0.5-0.1l1.9-0.7
								c0.3,0.2,0.1,0.3-0.2,0.5c0.4-0.1,0.7-0.3,1.2-0.3c-0.1,0.4-0.1,0.8-0.9,1l1.8-0.4c0.1,0.2,0.9,0.5,0.7,0.6
								c1,0.2,2.5-0.8,3.8-0.5c0.1-0.1,0.2-0.1,0.5-0.2c1.2,0.1,2.4,0.6,3.8,0l0.8,0.7c1.2-0.2-1.1-0.9,0.8-1.2
								c1.4-0.2,0.5,0.6,1,0.8c0.7-0.4,1.9-1.1,3.1-0.5C89.5,148,89.2,147.9,88.8,147.9z M103.1,147.6c-0.3,0.1-0.8,0.4-1,0.1
								C102.4,147.2,102.7,147.4,103.1,147.6z M124.9,146.4c-0.2,0.2-0.5,0.1-0.9-0.1C124.3,146.3,124.6,146.3,124.9,146.4z
								 M185.5,143.1C185.5,143.1,185.5,143.1,185.5,143.1C184.8,142.9,185,143,185.5,143.1z M186.8,143.3c0.1-0.1,0.1-0.1,0.1-0.2
								c-0.1,0.1-0.4,0.1-0.7,0.1C186.2,143.3,186.4,143.4,186.8,143.3z M48.9,143.5l0.2,0.1C48.5,143.7,48.7,143.6,48.9,143.5z"/>
							<path style="&st20;" d="M122.4,147.1c-0.1-0.1-0.1-0.2-0.1-0.3C122.2,146.9,122.2,147,122.4,147.1z"/>
							<path style="&st20;" d="M79.9,148.2C79.9,148.2,79.9,148.2,79.9,148.2C79.9,148.2,79.9,148.2,79.9,148.2L79.9,148.2z"/>
							<path style="&st20;" d="M166.9,147.4c-0.3-0.1-0.4-0.2-0.5-0.2C166.3,147.2,166.5,147.3,166.9,147.4z"/>
							<path style="&st20;" d="M193.6,142.5l-0.8,0.1c0.4,0,0.5,0.1,0.7,0.2C193.5,142.6,193.3,142.5,193.6,142.5z"/>
							<path style="&st20;" d="M200.7,145.5c0.1-0.1,0.3,0,0.4-0.1l0-0.2C200.5,145.2,200.2,145.4,200.7,145.5z"/>
							<path style="&st20;" d="M194.3,144.1c0.1,0.4,0.6,0.3,1.2,0.2c0,0-0.1,0-0.1,0C195.5,143.7,194.9,143.9,194.3,144.1z"/>
							<path style="&st20;" d="M195.6,144.3c0.2,0,0.4,0,0.5,0C196.2,144,195.9,144.2,195.6,144.3z"/>
							<path style="&st20;" d="M188.4,143c0.3,0.1,0.2-0.5,0.3-0.4C189,142.1,186.9,143.3,188.4,143z"/>
							<polygon style="&st20;" points="194.8,145.4 194.6,144.9 194.3,145.3 							"/>
							<path style="&st20;" d="M190.2,145l0.9,0.1c0-0.1,0.1-0.1,0.2-0.2C190.8,145,190.2,144.9,190.2,145z"/>
							<path style="&st20;" d="M191.4,145c0.3,0,0.6,0,0.7-0.1C192,144.9,191.6,144.9,191.4,145z"/>
							<polygon style="&st20;" points="193.5,145.6 193.3,145.5 192.6,145.4 							"/>
							<path style="&st20;" d="M180.3,144.9l-1,0.1c-0.1,0.2,0.2,0.3,0.5,0.2C180.1,145.2,180.5,145.1,180.3,144.9z"/>
							<path style="&st20;" d="M183.4,146.3c-0.3-0.1-0.3-0.2-0.4-0.4l0,0.6L183.4,146.3z"/>
							<path style="&st20;" d="M180.4,146.5c-0.1,0.2-1.5,0.5-0.2,0.5C180.4,146.7,181.4,146.6,180.4,146.5z"/>
							<polygon style="&st20;" points="165.3,145.7 165.6,145.7 165.5,144.6 							"/>
							<path style="&st20;" d="M152,148.1c1.2,0.2,0.3-0.6,1.4-0.3c0.3-0.2-0.9-0.2-0.6-0.5C152,147.6,151.6,147.4,152,148.1z"/>
							<path style="&st20;" d="M152.7,147.3c0.1,0,0.2-0.1,0.4-0.2C152.9,147.2,152.8,147.3,152.7,147.3z"/>
							<polygon style="&st20;" points="2.1,143 1.3,142.7 1.8,143.1 							"/>
							<path style="&st20;" d="M0.6,143.7l-0.2-0.6L0,143.7C0.2,143.6,0.5,143.6,0.6,143.7z"/>
							<path style="&st20;" d="M105.3,148.9l0.1-0.2c-0.1-0.2-0.3-0.2-0.7-0.2L105.3,148.9z"/>
							<polygon style="&st20;" points="94.9,148.4 95.1,148.4 94.7,147.8 							"/>
							<path style="&st20;" d="M86.2,149.2c0.4,0,0.8-0.1,1.1-0.1C86.5,149.2,86.1,148.4,86.2,149.2z"/>
						</g>
					</g>
				</g>
			</g>
		</g>
	</g>
</g>
<g id="respuestas">
</g>
</svg>
