<svg xmlns="http://www.w3.org/2000/svg" viewBox="0 0 231 149.3"><defs><style>.cls-1{fill:#f4cd27;stroke:#fbb03b;stroke-miterlimit:10;stroke-width:0.85px;}.cls-2{fill:#fff;}</style></defs><title>act1_social</title><g id="Layer_6" data-name="Layer 6"><rect class="cls-1" x="10" y="0.4" width="67" height="74"/><path class="cls-2" d="M52.4,20.7s-5.3-6.5-5.8-6.7a4.6,4.6,0,0,0,2.6-4.1,4.7,4.7,0,0,0-4.7-4.7h-.3a4.7,4.7,0,0,0-4.7,4.7A4.5,4.5,0,0,0,42,14c-.4.2-5.7,6.7-5.7,6.7a.8.8,0,0,0,.1,1h0c.3.4.7.3,1,0L41,17.4V22a1.8,1.8,0,0,0,.8,1.3v8a.9.9,0,0,0,1,1,1,1,0,0,0,1.1-1V23.6h.9v7.7a1,1,0,0,0,1.1,1,.9.9,0,0,0,1-1v-8a1.8,1.8,0,0,0,.8-1.3V17.4l3.6,4.3c.3.3.7.4,1,0h0A.8.8,0,0,0,52.4,20.7Z"/><ellipse class="cls-2" cx="44.3" cy="32.1" rx="7.5" ry="1.4"/><path class="cls-2" d="M53.2,57.3s-5.3-6.7-5.8-6.9a4.8,4.8,0,0,0-2.2-9h-.3a4.8,4.8,0,0,0-2.2,9c-.5.2-5.9,6.9-5.9,6.9a.8.8,0,0,0,.1,1h0a.6.6,0,0,0,1-.1l3.7-4.3v4.6a1.7,1.7,0,0,0,.8,1.3V68a1.1,1.1,0,0,0,1.1,1.1,1,1,0,0,0,1-1.1V60.2h1V68a1.1,1.1,0,1,0,2.2,0V59.8a1.7,1.7,0,0,0,.8-1.3V53.9l3.6,4.3c.3.3.8.5,1.1.1h0A.7.7,0,0,0,53.2,57.3Z"/><ellipse class="cls-2" cx="45" cy="68.9" rx="7.6" ry="1.4"/><ellipse class="cls-2" cx="61.8" cy="55" rx="7.5" ry="1.4"/><path class="cls-2" d="M69.5,44.4s-5-6.2-5.5-6.4l.5-.3a2.4,2.4,0,0,0,1.2.3,5,5,0,0,0,2.6-.6,17.9,17.9,0,0,1-1.5-3.5c-.8-2.2-.7-2.9-1.5-3.9A5,5,0,0,0,62,28.3h-.4A5.6,5.6,0,0,0,58.3,30c-.8,1-.7,1.7-1.4,3.9a17,17,0,0,1-1.6,3.5A5.1,5.1,0,0,0,58,38a2.7,2.7,0,0,0,1.2-.3l.4.3c-.4.2-5.4,6.4-5.4,6.4a.6.6,0,0,0,0,.9h0c.3.4.7.2,1,0L59,40.7l-1.6,7.7h2v6a1,1,0,0,0,1,1.1,1.1,1.1,0,0,0,1-1.1v-6h.9v6a1,1,0,0,0,1,1.1,1.1,1.1,0,0,0,1-1.1v-6h2.1l-1.6-7.6,3.7,4.5a.6.6,0,0,0,.9,0h0A.6.6,0,0,0,69.5,44.4Z"/><ellipse class="cls-2" cx="23.8" cy="53.9" rx="7.5" ry="1.4"/><path class="cls-2" d="M31.5,43.3s-5-6.2-5.5-6.4l.5-.2,1.2.2a4.7,4.7,0,0,0,2.6-.5,25.9,25.9,0,0,1-1.5-3.5c-.8-2.2-.6-3-1.5-3.9a4.6,4.6,0,0,0-3.2-1.7h-.5A5.1,5.1,0,0,0,20.3,29c-.8.9-.7,1.7-1.4,3.9a16.8,16.8,0,0,1-1.6,3.5,5,5,0,0,0,2.7.5l1.2-.2.4.2c-.4.2-5.4,6.4-5.4,6.4s-.3.8,0,.9h0c.3.5.7.3,1,0L21,39.6l-1.5,7.8h1.9v6a1,1,0,0,0,1,1,1.1,1.1,0,0,0,1-1v-6h.9v6a1,1,0,0,0,1,1,1.1,1.1,0,0,0,1-1v-6h2.1l-1.6-7.6,3.7,4.4c.2.3.6.5.9,0h0C31.7,44.1,31.7,43.6,31.5,43.3Z"/><path class="cls-2" d="M19.3,83.4a1.6,1.6,0,0,1,.9.3.7.7,0,0,1,.4.6,1.3,1.3,0,0,1-.1.6l-.4.9-.5,1L19,88l-.7,1.4-.7,1.5a9.8,9.8,0,0,1-.6,1.4l-.5,1c-.4.7-.7,1-1,1a.9.9,0,0,1-.6-.3,1.3,1.3,0,0,1-.6-.7,24.7,24.7,0,0,1-1.1-4.8,39.1,39.1,0,0,1-.8-4.4c0-.5.2-.7.5-.7a1.6,1.6,0,0,1,1,.4,2.5,2.5,0,0,1,.8,1.2,5,5,0,0,1,.3,1.2,23.2,23.2,0,0,0,.2,2.4c.1,1,.3,1.8.4,2.5A56.1,56.1,0,0,1,18,85.2C18.6,84,19,83.4,19.3,83.4Z"/><path class="cls-2" d="M21.7,86.6a1,1,0,0,1,.9.6,2.1,2.1,0,0,1,.5,1.2,10.3,10.3,0,0,1-.6,2c-.3,1.2-.7,2.3-1,3.4a.7.7,0,0,1-.7.6,1.1,1.1,0,0,1-.9-.9c0-.3.2-1,.4-2a23.2,23.2,0,0,0,.6-2.7,10.8,10.8,0,0,1,.4-1.7C21.4,86.8,21.5,86.6,21.7,86.6Zm-.2-1.8a1.6,1.6,0,0,1,.3-.9c.3-.2.5-.4.7-.4s.5.3.8.8a4.2,4.2,0,0,1,.5,1.2.6.6,0,0,1-.3.6l-.4.2a1.7,1.7,0,0,1-1.1-.6A2.1,2.1,0,0,1,21.5,84.8Z"/><path class="cls-2" d="M28.7,86.6c.4,0,.7.3,1.1.7a2.2,2.2,0,0,1,.6,1.2c0,.3-.1.4-.3.4l-.6-.2h-.7l-1,.2c-.5.2-.7.4-.7.7l.4.4.9.6.9.8a1.9,1.9,0,0,1,.4,1.2q0,.6-.9,1.2a3.1,3.1,0,0,1-2.1.7,3.3,3.3,0,0,1-2.1-.6c-.6-.4-.9-.7-.9-1.1s.2-.6.5-.6h.4a3.8,3.8,0,0,0,1.9.5c.8,0,1.1-.1,1.1-.3a.9.9,0,0,0-.4-.7l-.9-.7a2.5,2.5,0,0,1-1-.8,2,2,0,0,1-.4-.8q0-.9,1.5-1.8A5.3,5.3,0,0,1,28.7,86.6Z"/><path class="cls-2" d="M32.6,86.6a1,1,0,0,1,.9.6,2.1,2.1,0,0,1,.5,1.2,10.3,10.3,0,0,1-.6,2,33.7,33.7,0,0,1-1,3.4.7.7,0,0,1-.7.6,1.1,1.1,0,0,1-.9-.9c0-.3.2-1,.4-2a23.2,23.2,0,0,0,.6-2.7l.4-1.7C32.3,86.8,32.4,86.6,32.6,86.6Zm-.2-1.8a1.6,1.6,0,0,1,.3-.9c.3-.2.5-.4.7-.4s.5.3.8.8a4.2,4.2,0,0,1,.5,1.2.8.8,0,0,1-.2.6l-.5.2a1.4,1.4,0,0,1-1-.6Q32.4,85.1,32.4,84.8Z"/><path class="cls-2" d="M35.9,88.3c.8-1.1,1.5-1.7,2.3-1.7a2.6,2.6,0,0,1,1.9.8,2.7,2.7,0,0,1,.8,1.9,6.9,6.9,0,0,1-.5,2.4,5.8,5.8,0,0,1-1.6,1.9,3.2,3.2,0,0,1-2,.8,1.9,1.9,0,0,1-1.5-.8,2.8,2.8,0,0,1-.6-1.8A5.9,5.9,0,0,1,35.9,88.3Zm2.4,3.1a4.2,4.2,0,0,0,.6-2.1,3.5,3.5,0,0,0-.2-1.3,3.6,3.6,0,0,0-1.3,1.6,5.2,5.2,0,0,0-.7,2.1,2,2,0,0,0,.2,1.1A2.7,2.7,0,0,0,38.3,91.4Z"/><path class="cls-2" d="M47.2,86.6a1.9,1.9,0,0,1,1.3.7,2.4,2.4,0,0,1,.6,1.5,8.4,8.4,0,0,1-.4,2.7,10.9,10.9,0,0,1-.9,2.1c-.3.5-.6.8-1,.8s-.5-.3-.5-.7a11.6,11.6,0,0,1,.5-2.2,7,7,0,0,0,.4-1.9c0-.4,0-.6-.2-.6s-.2,0-.3.2-.3.2-.3.3l-.3.4-.3.4-.3.5c-.1.2-.2.3-.2.5l-.3.5c-1,1.7-1.7,2.6-2.2,2.6s-.5-.2-.8-.6a1.5,1.5,0,0,1-.5-.8l.2-.7a2,2,0,0,0,.3-.8,1.4,1.4,0,0,0,.2-.7,1.5,1.5,0,0,0,.1-.7,1.3,1.3,0,0,0,.1-.6v-.6a9.6,9.6,0,0,1,.3-2.2.2.2,0,0,1,.2-.2A1.8,1.8,0,0,1,44,87a1.5,1.5,0,0,1,.5.8,7.8,7.8,0,0,1-.5,2.7l1.8-2.8C46.3,87,46.8,86.6,47.2,86.6Z"/><path class="cls-2" d="M56.3,90.1l.3.4a8.1,8.1,0,0,1-.2.9,5.1,5.1,0,0,0-.2.9,1.1,1.1,0,0,0-.1.5.4.4,0,0,1-.1.3v.3c0,.1-.1.2-.1.3v.4h-.1l-.3.2c-.2,0-.3-.2-.5-.5a2.3,2.3,0,0,1-.5-1A3.6,3.6,0,0,1,52,94.4a2.6,2.6,0,0,1-1.4-.7,2.1,2.1,0,0,1-.7-1.5,5.8,5.8,0,0,1,.6-2,8.4,8.4,0,0,1,1.8-2.4,3.1,3.1,0,0,1,2.2-1.2,2.8,2.8,0,0,1,1.5.8c.5.5.8.9.8,1.3A3,3,0,0,1,56.3,90.1ZM52,92.5a3.3,3.3,0,0,0,1.6-.8,4.5,4.5,0,0,0,1.2-2.1c0-.1.1-.2.3-.2s-.2-.9-.3-.9a2.3,2.3,0,0,0-1.4.8A6.6,6.6,0,0,0,52.2,91a3.6,3.6,0,0,0-.5,1.3.1.1,0,0,0,.1.1Z"/><path class="cls-2" d="M67.7,86.6c.4,0,.7.3,1,.8a4.3,4.3,0,0,1,.4,1.4,8.1,8.1,0,0,1-.3,1.9,7.3,7.3,0,0,1-.8,2.5c-.3.8-.7,1.2-1.1,1.2s-.5-.3-.5-.7a7.9,7.9,0,0,1,.4-2.2c.2-1,.4-1.7.4-2s-.1-.5-.2-.5-.4.2-.7.7l-1.1,1.8L64.5,93l-.3.5a.5.5,0,0,1-.2.4c-.3.6-.7.6-1.3,0a1.3,1.3,0,0,1-.4-.7l.3-1.1a19.5,19.5,0,0,0,.2-2.5c0-.4,0-.6-.1-.6s-.3.1-.4.4a7.9,7.9,0,0,0-.8,1.3l-.8,1.5c-.9,1.5-1.5,2.2-1.9,2.2s-.5-.2-.9-.6-.4-.6-.4-.8a7,7,0,0,1,.3-1.4,10,10,0,0,0,.4-2.4c.1-.9.2-1.5.2-2s.2-.7.4-.7a2.1,2.1,0,0,1,1.1.5,1.5,1.5,0,0,1,.5.8,13.3,13.3,0,0,1-.6,3.1,17.3,17.3,0,0,1,1.7-3.4,2,2,0,0,1,1.5-.9c.3,0,.6.3,1,.7a3,3,0,0,1,.5,1.4v1.1a7.4,7.4,0,0,1,1.4-2.2A3.3,3.3,0,0,1,67.7,86.6Z"/><path class="cls-2" d="M71,88.3c.8-1.1,1.5-1.7,2.3-1.7A2.7,2.7,0,0,1,76,89.3a5.3,5.3,0,0,1-.6,2.4,4.5,4.5,0,0,1-1.5,1.9,3.2,3.2,0,0,1-2.1.8,1.9,1.9,0,0,1-1.4-.8,2.8,2.8,0,0,1-.6-1.8A5.9,5.9,0,0,1,71,88.3Zm2.4,3.1a4.2,4.2,0,0,0,.6-2.1,2.1,2.1,0,0,0-.3-1.3,4.4,4.4,0,0,0-1.2,1.6,4,4,0,0,0-.7,2.1,2,2,0,0,0,.2,1.1A3.1,3.1,0,0,0,73.4,91.4Z"/><path class="cls-2" d="M81.5,86.6a1.5,1.5,0,0,1,1.1.7,2.2,2.2,0,0,1,.6,1.2c0,.3-.1.4-.3.4l-.5-.2h-.7l-1.1.2c-.4.2-.7.4-.7.7l.4.4.9.6a3.4,3.4,0,0,1,.9.8,1.9,1.9,0,0,1,.4,1.2q0,.6-.9,1.2a3.1,3.1,0,0,1-2.1.7,3.7,3.7,0,0,1-2.1-.6c-.6-.4-.9-.7-.9-1.1s.2-.6.5-.6h.5a3.5,3.5,0,0,0,1.8.5q1.2,0,1.2-.3a1,1,0,0,0-.5-.7l-.9-.7a3.2,3.2,0,0,1-.9-.8,1.5,1.5,0,0,1-.5-.8q0-.9,1.5-1.8A5.8,5.8,0,0,1,81.5,86.6Z"/><path class="cls-2" d="M92.6,83.1a2.1,2.1,0,0,1,.5,1.2,10.8,10.8,0,0,1-.2,2.2q-.2,1.5-.3,2.4c-.9,3.7-1.4,5.5-1.8,5.5s-.5-.2-.8-.6a1.5,1.5,0,0,1-.5-.8c0-.1.2-.6.4-1.6a39.1,39.1,0,0,0,.9-3.9,39.1,39.1,0,0,0,.4-4.6c0-.3.1-.5.4-.5S92.2,82.6,92.6,83.1Z"/><path class="cls-2" d="M99.9,90.1c.2.2.2.3.2.4a3.9,3.9,0,0,1-.1.9,9.2,9.2,0,0,0-.3.9.7.7,0,0,1-.1.5v.3a.4.4,0,0,1-.1.3v.3a.3.3,0,0,0-.1.2c0,.1,0,.2-.1.2a.1.1,0,0,1-.1.1c0,.1-.1.2-.3.2s-.3-.2-.5-.5a2.3,2.3,0,0,1-.5-1,3.7,3.7,0,0,1-2.3,1.5,2.3,2.3,0,0,1-1.4-.7,2.2,2.2,0,0,1-.8-1.5,4.7,4.7,0,0,1,.7-2,8.1,8.1,0,0,1,1.7-2.4A3.3,3.3,0,0,1,98,86.6a2.2,2.2,0,0,1,1.5.8,1.7,1.7,0,0,1,.8,1.3A2.7,2.7,0,0,1,99.9,90.1Zm-4.4,2.4a3.3,3.3,0,0,0,1.6-.8,3.3,3.3,0,0,0,1.2-2.1c.1-.1.1-.2.3-.2s-.1-.9-.3-.9-.8.3-1.3.8A6.6,6.6,0,0,0,95.8,91a2.4,2.4,0,0,0-.5,1.3h.2Z"/><path class="cls-2" d="M112.4,86.6c.3,0,.7.4,1.2,1a4.1,4.1,0,0,1,.6,2,3,3,0,0,1-.5,1.4,6.5,6.5,0,0,1-1.3,1.6,5.7,5.7,0,0,1-1.8,1.2,3.4,3.4,0,0,1-1.9.5h-.2c-.6,2.7-1.1,4-1.3,4s-.4-.2-.7-.6a1.6,1.6,0,0,1-.3-.8,9.6,9.6,0,0,1,.4-2.1,34.7,34.7,0,0,0,1.3-8c0-.3.1-.4.4-.4a1.2,1.2,0,0,1,.9.4,1.7,1.7,0,0,1,.7,1A3.9,3.9,0,0,1,112.4,86.6Zm-1.2,4.7a2.9,2.9,0,0,0,1-1.9c0-.5-.1-.8-.4-.8a1.9,1.9,0,0,0-1.3.8l-.7.8-.6,1.4-.2,1A4.6,4.6,0,0,0,111.2,91.3Z"/><path class="cls-2" d="M116.1,88.3c.8-1.1,1.5-1.7,2.3-1.7a2.6,2.6,0,0,1,1.9.8,2.7,2.7,0,0,1,.8,1.9,6.9,6.9,0,0,1-.5,2.4,5.8,5.8,0,0,1-1.6,1.9,3.2,3.2,0,0,1-2,.8,1.9,1.9,0,0,1-1.5-.8,2.8,2.8,0,0,1-.6-1.8A5.9,5.9,0,0,1,116.1,88.3Zm2.4,3.1a4.2,4.2,0,0,0,.6-2.1,3.5,3.5,0,0,0-.2-1.3,3.6,3.6,0,0,0-1.3,1.6,4,4,0,0,0-.7,2.1,2,2,0,0,0,.2,1.1A2.7,2.7,0,0,0,118.5,91.4Z"/><path class="cls-2" d="M126.6,86.6a1.9,1.9,0,0,1,1.2.7,2.8,2.8,0,0,1,.5,1.2c0,.3-.1.4-.3.4l-.5-.2h-.7l-1.1.2c-.4.2-.6.4-.6.7l.4.4.8.6a2.4,2.4,0,0,1,.9.8,1.9,1.9,0,0,1,.4,1.2q0,.6-.9,1.2a3.1,3.1,0,0,1-2.1.7,3.7,3.7,0,0,1-2.1-.6c-.6-.4-.9-.7-.9-1.1s.2-.6.5-.6h.5a3.5,3.5,0,0,0,1.8.5q1.2,0,1.2-.3a1,1,0,0,0-.5-.7l-.9-.7a3.2,3.2,0,0,1-.9-.8,1.5,1.5,0,0,1-.5-.8q0-.9,1.5-1.8A5.8,5.8,0,0,1,126.6,86.6Z"/><path class="cls-2" d="M130.5,86.6a1.2,1.2,0,0,1,1,.6,1.9,1.9,0,0,1,.4,1.2,17.2,17.2,0,0,1-.5,2c-.4,1.2-.7,2.3-1.1,3.4a.7.7,0,0,1-.7.6.9.9,0,0,1-.6-.3,1.4,1.4,0,0,1-.2-.6,8.2,8.2,0,0,1,.4-2q.3-1.6.6-2.7a13.9,13.9,0,0,1,.3-1.7C130.2,86.8,130.4,86.6,130.5,86.6Zm-.2-1.8a1.2,1.2,0,0,1,.4-.9,1,1,0,0,1,.7-.4c.2,0,.5.3.8.8a3.1,3.1,0,0,1,.4,1.2.8.8,0,0,1-.2.6l-.5.2c-.3,0-.6-.2-1-.6S130.3,85,130.3,84.8Z"/><path class="cls-2" d="M138.6,86.6a1.9,1.9,0,0,1,1.3.8,2.4,2.4,0,0,1,.6,1.5,5.5,5.5,0,0,1-.3,1.6,7.6,7.6,0,0,1-.9,1.8,3.7,3.7,0,0,1-1.3,1.5,2.7,2.7,0,0,1-1.6.6,3.2,3.2,0,0,1-2-.9c-.2.6-.4.9-.5.9s-.5-.2-.8-.6a1.5,1.5,0,0,1-.5-.8,21.1,21.1,0,0,1,.5-2.2,34.1,34.1,0,0,0,1.5-7.9.5.5,0,0,1,.5-.5c.2,0,.5.2.9.7a1.7,1.7,0,0,1,.6,1.2,19.4,19.4,0,0,1-.8,4.2C136.9,87.2,137.9,86.6,138.6,86.6Zm-2.5,6c.6,0,1.1-.4,1.7-1.3a4.3,4.3,0,0,0,.9-2.5h-.3a2.4,2.4,0,0,0-1.7,1,9.2,9.2,0,0,0-1.7,2.4A1.5,1.5,0,0,0,136.1,92.6Z"/><path class="cls-2" d="M142.9,86.6a1.2,1.2,0,0,1,1,.6,1.9,1.9,0,0,1,.4,1.2,17.2,17.2,0,0,1-.5,2c-.4,1.2-.7,2.3-1,3.4s-.4.6-.8.6a.9.9,0,0,1-.6-.3,1.4,1.4,0,0,1-.2-.6,8.2,8.2,0,0,1,.4-2q.3-1.6.6-2.7a13.9,13.9,0,0,1,.3-1.7C142.6,86.8,142.8,86.6,142.9,86.6Zm-.2-1.8a1.2,1.2,0,0,1,.4-.9,1,1,0,0,1,.7-.4c.2,0,.5.3.8.8a3.1,3.1,0,0,1,.4,1.2c0,.3,0,.5-.2.6l-.5.2c-.3,0-.6-.2-1-.6S142.7,85,142.7,84.8Z"/><path class="cls-2" d="M148.2,83.1a1.7,1.7,0,0,1,.6,1.2c0,.4-.1,1.2-.2,2.2s-.3,1.8-.4,2.4c-.8,3.7-1.4,5.5-1.7,5.5s-.5-.2-.8-.6a1,1,0,0,1-.5-.8,10.2,10.2,0,0,1,.4-1.6c.2-1,.5-2.3.8-3.9a25.3,25.3,0,0,0,.4-4.6.5.5,0,0,1,.5-.5C147.5,82.4,147.8,82.6,148.2,83.1Z"/><path class="cls-2" d="M150.8,86.6a1.2,1.2,0,0,1,1,.6,2.8,2.8,0,0,1,.4,1.2,17.2,17.2,0,0,1-.5,2c-.4,1.2-.7,2.3-1.1,3.4a.7.7,0,0,1-.7.6.9.9,0,0,1-.6-.3,1.4,1.4,0,0,1-.2-.6,8.2,8.2,0,0,1,.4-2c.2-1.1.4-2,.5-2.7l.4-1.7C150.5,86.8,150.7,86.6,150.8,86.6Zm-.2-1.8a1.2,1.2,0,0,1,.4-.9,1,1,0,0,1,.7-.4c.2,0,.4.3.8.8a3.1,3.1,0,0,1,.4,1.2.8.8,0,0,1-.2.6l-.5.2c-.3,0-.6-.2-1-.6S150.6,85,150.6,84.8Z"/><path class="cls-2" d="M159.4,82.4c.3,0,.6.2,1,.7a1.7,1.7,0,0,1,.6,1.2c0,.2-.2,1-.5,2.4l-.7,2.5c-.8,3.4-1.4,5.2-1.7,5.2a1.3,1.3,0,0,1-.7-.4c-.3-.3-.4-.5-.4-.7v-.2c-1,.9-1.7,1.3-2.2,1.3a1.9,1.9,0,0,1-1.2-.7,2.2,2.2,0,0,1-.6-1.3,6.2,6.2,0,0,1,.1-1.3,12.1,12.1,0,0,1,.5-1.4,5.3,5.3,0,0,1,.8-1.5,3.6,3.6,0,0,1,1-1.1,2.1,2.1,0,0,1,1.3-.5,1.9,1.9,0,0,1,1.5,1,21.9,21.9,0,0,0,.8-4.7A.5.5,0,0,1,159.4,82.4ZM155,92.5c.3,0,.7-.3,1.3-.7a4,4,0,0,0,1.3-1.6v-.5a1.1,1.1,0,0,0-.3-.8.7.7,0,0,0-.5-.4,1,1,0,0,0-.8.5,3.5,3.5,0,0,0-.7,1.2,7.6,7.6,0,0,0-.5,2.1h.2Z"/><path class="cls-2" d="M167.5,90.1l.3.4a8.1,8.1,0,0,1-.2.9,5.1,5.1,0,0,0-.2.9,1.1,1.1,0,0,0-.1.5v.3a.4.4,0,0,1-.1.3v.5c0,.1,0,.2-.1.2a.1.1,0,0,1-.1.1c0,.1-.1.2-.3.2s-.3-.2-.5-.5a2.3,2.3,0,0,1-.4-1,4.1,4.1,0,0,1-2.4,1.5,2.6,2.6,0,0,1-1.4-.7,2.1,2.1,0,0,1-.7-1.5,5.8,5.8,0,0,1,.6-2,6.9,6.9,0,0,1,1.8-2.4,2.9,2.9,0,0,1,2.2-1.2,2.3,2.3,0,0,1,1.4.8c.6.5.9.9.9,1.3A3,3,0,0,1,167.5,90.1Zm-4.4,2.4a3,3,0,0,0,1.6-.8,3.9,3.9,0,0,0,1.3-2.1l.2-.2q0-.9-.3-.9c-.4,0-.8.3-1.3.8a6.6,6.6,0,0,0-1.2,1.7,3.6,3.6,0,0,0-.5,1.3h.2Z"/><path class="cls-2" d="M175.2,82.4c.2,0,.5.2.9.7a1.7,1.7,0,0,1,.6,1.2c0,.2-.2,1-.5,2.4a14.8,14.8,0,0,0-.6,2.5c-.8,3.4-1.4,5.2-1.8,5.2s-.4-.2-.7-.4-.4-.5-.4-.7v-.2c-1,.9-1.7,1.3-2.1,1.3a1.9,1.9,0,0,1-1.3-.7,2.2,2.2,0,0,1-.6-1.3,6.9,6.9,0,0,1,.2-1.3,7.5,7.5,0,0,1,1.2-2.9,3.6,3.6,0,0,1,1-1.1,2.4,2.4,0,0,1,1.3-.5,2,2,0,0,1,1.6,1,19.7,19.7,0,0,0,.7-4.7A.5.5,0,0,1,175.2,82.4Zm-4.4,10.1a4.1,4.1,0,0,0,1.2-.7,4.3,4.3,0,0,0,1.4-1.6.7.7,0,0,1-.1-.5,1.9,1.9,0,0,0-.2-.8l-.5-.4a1.4,1.4,0,0,0-.9.5,2.3,2.3,0,0,0-.6,1.2,5.7,5.7,0,0,0-.6,2.1h.3Z"/><path class="cls-2" d="M189,82.4c.3,0,.6.2,1,.7a1.7,1.7,0,0,1,.6,1.2,18,18,0,0,1-.6,2.4c-.3,1.4-.5,2.2-.6,2.5-.8,3.4-1.4,5.2-1.7,5.2a1.3,1.3,0,0,1-.7-.4c-.3-.3-.4-.5-.4-.7v-.2c-1,.9-1.7,1.3-2.2,1.3a1.9,1.9,0,0,1-1.2-.7,2.2,2.2,0,0,1-.6-1.3,6.2,6.2,0,0,1,.1-1.3,12.1,12.1,0,0,1,.5-1.4,5.3,5.3,0,0,1,.8-1.5,3.6,3.6,0,0,1,1-1.1,2.1,2.1,0,0,1,1.3-.5,1.9,1.9,0,0,1,1.5,1,21.9,21.9,0,0,0,.8-4.7A.5.5,0,0,1,189,82.4Zm-4.4,10.1c.3,0,.7-.3,1.3-.7a4,4,0,0,0,1.3-1.6v-.5a1.1,1.1,0,0,0-.3-.8c-.2-.2-.3-.4-.5-.4a1,1,0,0,0-.8.5,3.5,3.5,0,0,0-.7,1.2,7.6,7.6,0,0,0-.5,2.1h.2Z"/><path class="cls-2" d="M196.4,90.8a4.6,4.6,0,0,1-2,.5h-1.7a2.4,2.4,0,0,0-.2.8.8.8,0,0,0,.2.6h.6a6.2,6.2,0,0,0,2-.2l.8-.2c.4,0,.6.2.6.4s-.3.8-.9,1.1a4.4,4.4,0,0,1-2.3.6,2.8,2.8,0,0,1-2-.8,2.9,2.9,0,0,1-.8-1.9,4.3,4.3,0,0,1,.7-2.3,6.2,6.2,0,0,1,1.6-2,2.9,2.9,0,0,1,1.9-.8,2.1,2.1,0,0,1,1.7,1,2.4,2.4,0,0,1,.8,1.8A1.7,1.7,0,0,1,196.4,90.8Zm-1-2-.6-.3c-.2,0-.4.1-.7.4a2.7,2.7,0,0,0-.8,1h.3c1.4,0,2.1-.2,2.1-.7A.5.5,0,0,0,195.4,88.8Z"/><path class="cls-2" d="M12,110a4.3,4.3,0,0,1,.7-2.3,7.2,7.2,0,0,1,1.7-2.2,3.2,3.2,0,0,1,2.1-.9c.4,0,.7.3,1.1.7a2.2,2.2,0,0,1,.6,1.2.4.4,0,0,1-.4.4h-.5l-.6-.2c-.3,0-.6.2-1,.6a7.5,7.5,0,0,0-1.1,1.3,2.7,2.7,0,0,0-.4,1.3c0,.3,0,.5.1.5a1.7,1.7,0,0,0,.9.2h1.2l.8-.3h.5c.3,0,.4.1.4.3s-.4.9-1.2,1.4a4.8,4.8,0,0,1-2.3.7,2.4,2.4,0,0,1-1.6-.9A1.9,1.9,0,0,1,12,110Z"/><path class="cls-2" d="M20.4,106.3c.8-1.1,1.6-1.7,2.4-1.7a2.7,2.7,0,0,1,2.7,2.7,5.3,5.3,0,0,1-.6,2.4,5.5,5.5,0,0,1-1.5,1.9,3.4,3.4,0,0,1-2.1.8,1.9,1.9,0,0,1-1.4-.8,2.8,2.8,0,0,1-.6-1.8A6.6,6.6,0,0,1,20.4,106.3Zm2.5,3.1a4.2,4.2,0,0,0,.6-2.1,2.1,2.1,0,0,0-.3-1.3,5.8,5.8,0,0,0-1.3,1.6,4.8,4.8,0,0,0-.6,2.1,2,2,0,0,0,.2,1.1A3.1,3.1,0,0,0,22.9,109.4Z"/><path class="cls-2" d="M31.7,104.6a2.1,2.1,0,0,1,1.4.7,2.4,2.4,0,0,1,.6,1.5,12.6,12.6,0,0,1-.4,2.7,10.9,10.9,0,0,1-.9,2.1c-.4.5-.7.8-1,.8s-.5-.3-.5-.7a6.8,6.8,0,0,1,.5-2.2,16.4,16.4,0,0,0,.4-1.9c0-.4-.1-.6-.2-.6a.4.4,0,0,0-.4.2l-.3.3-.3.4-.2.4-.3.5-.3.5-.3.5c-.9,1.7-1.6,2.6-2.2,2.6s-.4-.2-.8-.6a1.2,1.2,0,0,1-.4-.8,1.4,1.4,0,0,1,.2-.7,3.4,3.4,0,0,1,.3-.8,6.4,6.4,0,0,0,.2-.7,2,2,0,0,1,.1-.7v-.6c.1-.1.1-.3.1-.6s.2-2,.2-2.2l.2-.2a1.6,1.6,0,0,1,1.1.5c.4.3.6.6.6.8a11.2,11.2,0,0,1-.5,2.7,17,17,0,0,1,1.8-2.8C30.9,105,31.3,104.6,31.7,104.6Z"/><path class="cls-2" d="M39.3,104.6c.4,0,.7.3,1.1.7a2.2,2.2,0,0,1,.6,1.2c0,.3-.1.4-.3.4l-.6-.2h-.7l-1,.2c-.5.2-.7.4-.7.7l.4.4.9.6.9.8a1.9,1.9,0,0,1,.4,1.2q0,.6-.9,1.2a3.1,3.1,0,0,1-2.1.7,3.5,3.5,0,0,1-2.1-.6c-.6-.4-.9-.7-.9-1.1s.2-.6.5-.6h.4a3.8,3.8,0,0,0,1.9.5c.8,0,1.1-.1,1.1-.3a.9.9,0,0,0-.4-.7l-.9-.7a2.5,2.5,0,0,1-1-.8,2,2,0,0,1-.4-.8q0-.9,1.5-1.8A5.3,5.3,0,0,1,39.3,104.6Z"/><path class="cls-2" d="M45,107.5c-.1.5-.3,1.1-.5,1.9a7,7,0,0,1-.4,1.1h.3l1.2-.3,1.1-.4c.2,0,.3.2.3.5s-.3.8-1,1.3a3.8,3.8,0,0,1-2.1.7,1.7,1.7,0,0,1-1.1-.6,1.3,1.3,0,0,1-.7-1,8.8,8.8,0,0,1,.5-1.9l.6-2-.9.2c-.2,0-.4-.2-.6-.5a1.1,1.1,0,0,1-.3-.7c0-.4.7-.6,2.3-.9a11.2,11.2,0,0,0,.3-2.4c0-.3.1-.4.4-.4a1.4,1.4,0,0,1,1,.5,1.2,1.2,0,0,1,.6.9,3.7,3.7,0,0,1-.2,1.3h1.1c.8,0,1.2.2,1.2.5s-.3.5-.7.6l-2,.5A7.6,7.6,0,0,1,45,107.5Z"/><path class="cls-2" d="M49.1,107.2v-1.7c0-.6.2-.9.5-.9a.9.9,0,0,1,.6.3,1,1,0,0,1,.5.7l1.1-.8a2.3,2.3,0,0,1,1.1-.2c.7,0,1.1.1,1.1.5s-.1.3-.1.4-.2.1-.2.2h-.2l-.2.2-.4.3a4,4,0,0,0-1.2,1,3.4,3.4,0,0,0-.7,1.6c-.3,1.2-.6,2-.8,2.6s-.6.9-.9.9-.5-.2-.7-.5a3.1,3.1,0,0,1-.2-.8,3.5,3.5,0,0,1,.3-1.2l.4-1.4A5.3,5.3,0,0,0,49.1,107.2Z"/><path class="cls-2" d="M59,105c.1-.2.2-.4.5-.4s.5.2.8.6a2.5,2.5,0,0,1,.5,1.1c0,.1-.3.9-.7,2.2L59,111.7c-.1.5-.4.7-.7.7a.5.5,0,0,1-.5-.3.8.8,0,0,1-.2-.6,11.5,11.5,0,0,1,.2-1.4c-1.1,1.5-1.9,2.3-2.5,2.3a2.9,2.9,0,0,1-1.8-1.9,12.5,12.5,0,0,1,.8-3.6c.5-1.5,1.1-2.3,1.5-2.3a1.2,1.2,0,0,1,.8.4,1.6,1.6,0,0,1,.3.9l-.3,1a9.4,9.4,0,0,0-1.2,3.5h.1c.2,0,.4-.3.9-.8a15.8,15.8,0,0,0,1.4-2A15.9,15.9,0,0,0,59,105Z"/><path class="cls-2" d="M62.7,104.6a1.1,1.1,0,0,1,.9.6,1.9,1.9,0,0,1,.4,1.2,7.3,7.3,0,0,1-.5,2c-.3,1.2-.7,2.3-1,3.4a.7.7,0,0,1-.7.6.7.7,0,0,1-.6-.3.9.9,0,0,1-.3-.6c0-.3.2-1,.4-2a23.2,23.2,0,0,0,.6-2.7,10.8,10.8,0,0,1,.4-1.7C62.4,104.8,62.5,104.6,62.7,104.6Zm-.2-1.8a1.6,1.6,0,0,1,.3-.9c.3-.2.5-.4.7-.4s.5.3.8.8a4.2,4.2,0,0,1,.5,1.2.6.6,0,0,1-.3.6l-.5.2a1.8,1.8,0,0,1-1-.6A2.1,2.1,0,0,1,62.5,102.8Z"/><path class="cls-2" d="M65.7,107.2v-1.7q0-.9.6-.9a.9.9,0,0,1,.6.3,1.4,1.4,0,0,1,.4.7l1.1-.8a2.3,2.3,0,0,1,1.1-.2c.7,0,1.1.1,1.1.5s-.1.3-.1.4l-.2.2h-.1l-.2.2-.5.3a4,4,0,0,0-1.2,1,4.8,4.8,0,0,0-.7,1.6,13.7,13.7,0,0,1-.8,2.6c-.2.6-.5.9-.8.9a.9.9,0,0,1-.8-.5,3.1,3.1,0,0,1-.2-.8,3.5,3.5,0,0,1,.3-1.2c.2-.6.3-1,.4-1.4A5.3,5.3,0,0,0,65.7,107.2Z"/><path class="cls-2" d="M76.1,110a4.3,4.3,0,0,1,.7-2.3,7.2,7.2,0,0,1,1.7-2.2,3.2,3.2,0,0,1,2.1-.9c.4,0,.7.3,1.1.7a1.9,1.9,0,0,1,.5,1.2c0,.3-.1.4-.3.4h-.5l-.7-.2q-.3,0-.9.6a4.7,4.7,0,0,0-1.1,1.3,2.7,2.7,0,0,0-.4,1.3c0,.3,0,.5.1.5a1.4,1.4,0,0,0,.9.2h1.2l.8-.3h.5c.2,0,.4.1.4.3s-.4.9-1.2,1.4a4.8,4.8,0,0,1-2.3.7,2.8,2.8,0,0,1-1.7-.9A2,2,0,0,1,76.1,110Z"/><path class="cls-2" d="M84.5,106.3c.8-1.1,1.6-1.7,2.3-1.7a2.6,2.6,0,0,1,1.9.8,2.4,2.4,0,0,1,.8,1.9,6.9,6.9,0,0,1-.5,2.4,7,7,0,0,1-1.5,1.9,3.7,3.7,0,0,1-2.1.8,1.7,1.7,0,0,1-1.4-.8,2.8,2.8,0,0,1-.6-1.8A6.6,6.6,0,0,1,84.5,106.3Zm2.5,3.1a4.2,4.2,0,0,0,.6-2.1,2.1,2.1,0,0,0-.3-1.3,4.5,4.5,0,0,0-1.3,1.6,4.8,4.8,0,0,0-.6,2.1c0,.6,0,1,.2,1.1A3.1,3.1,0,0,0,87,109.4Z"/><path class="cls-2" d="M93.3,101.1a1.7,1.7,0,0,1,.6,1.2c0,.4-.1,1.2-.2,2.2a11.9,11.9,0,0,1-.4,2.4c-.8,3.7-1.4,5.5-1.7,5.5s-.5-.2-.8-.6a1.5,1.5,0,0,1-.5-.8,10.2,10.2,0,0,1,.4-1.6c.3-1,.5-2.3.8-3.9a25.3,25.3,0,0,0,.4-4.6.5.5,0,0,1,.5-.5C92.6,100.4,92.9,100.6,93.3,101.1Z"/><path class="cls-2" d="M100,108.8a5.4,5.4,0,0,1-2.1.5H96.2a2.2,2.2,0,0,0-.1.8c0,.3,0,.5.1.6h.7a5.5,5.5,0,0,0,1.9-.2l.9-.2c.4,0,.6.2.6.4s-.4.8-1,1.1a4,4,0,0,1-2.2.6,2.9,2.9,0,0,1-2.1-.8,2.8,2.8,0,0,1-.7-1.9,5.3,5.3,0,0,1,.6-2.3,7.8,7.8,0,0,1,1.6-2,3.1,3.1,0,0,1,1.9-.8,2.2,2.2,0,0,1,1.8,1,2.9,2.9,0,0,1,.8,1.8A1.7,1.7,0,0,1,100,108.8Zm-1.1-2a.9.9,0,0,0-.6-.3,1.3,1.3,0,0,0-.7.4,4.4,4.4,0,0,0-.8,1h.4c1.4,0,2.1-.2,2.1-.7S99.1,106.9,98.9,106.8Z"/><path class="cls-2" d="M101.6,110a4.3,4.3,0,0,1,.7-2.3,7.2,7.2,0,0,1,1.7-2.2,3.2,3.2,0,0,1,2.1-.9,2,2,0,0,1,1.1.7,2.8,2.8,0,0,1,.5,1.2c0,.3-.1.4-.3.4h-.5l-.7-.2q-.3,0-.9.6a4.7,4.7,0,0,0-1.1,1.3,3.1,3.1,0,0,0-.5,1.3c0,.3.1.5.2.5a1.3,1.3,0,0,0,.8.2H106l.8-.3h.4c.3,0,.5.1.5.3s-.4.9-1.2,1.4a5.1,5.1,0,0,1-2.3.7,2.8,2.8,0,0,1-1.7-.9A2,2,0,0,1,101.6,110Z"/><path class="cls-2" d="M112.5,107.5a14.5,14.5,0,0,0-.6,1.9,7,7,0,0,1-.4,1.1h.3l1.2-.3,1.1-.4c.2,0,.3.2.3.5s-.3.8-1,1.3a3.8,3.8,0,0,1-2.1.7,1.7,1.7,0,0,1-1.1-.6,1.5,1.5,0,0,1-.7-1,8.8,8.8,0,0,1,.5-1.9l.6-2-.9.2c-.2,0-.4-.2-.6-.5a1.1,1.1,0,0,1-.3-.7c0-.4.7-.6,2.3-.9a11.2,11.2,0,0,0,.3-2.4c0-.3.1-.4.4-.4a1.4,1.4,0,0,1,1,.5,1.2,1.2,0,0,1,.6.9,3.7,3.7,0,0,1-.2,1.3h1.1c.8,0,1.2.2,1.2.5s-.3.5-.7.6l-2,.5Z"/><path class="cls-2" d="M117.4,104.6a1.2,1.2,0,0,1,.9.6,1.9,1.9,0,0,1,.4,1.2,7.3,7.3,0,0,1-.5,2c-.3,1.2-.7,2.3-1,3.4a.7.7,0,0,1-.7.6.6.6,0,0,1-.6-.3.9.9,0,0,1-.3-.6c0-.3.2-1,.4-2a23.2,23.2,0,0,0,.6-2.7,10.8,10.8,0,0,1,.4-1.7C117.1,104.8,117.2,104.6,117.4,104.6Zm-.2-1.8a1.6,1.6,0,0,1,.3-.9,1.3,1.3,0,0,1,.7-.4c.2,0,.5.3.8.8a4.2,4.2,0,0,1,.5,1.2.6.6,0,0,1-.3.6l-.5.2c-.3,0-.6-.2-1-.6A1.4,1.4,0,0,1,117.2,102.8Z"/><path class="cls-2" d="M124.8,104.6a1.1,1.1,0,0,1,.8.3c.2.2.4.4.4.6a9.4,9.4,0,0,1-.9,2.5,29.6,29.6,0,0,1-1.7,3.2q-.7,1.2-1.2,1.2l-.6-.3a1.7,1.7,0,0,1-.6-.6,26.5,26.5,0,0,1-.8-3.3,12.8,12.8,0,0,1-.5-2.9c0-.5.1-.7.4-.7a2.1,2.1,0,0,1,1,.4,2.4,2.4,0,0,1,1,1.9,4.9,4.9,0,0,1,.1,1.3c0,.5.1,1,.1,1.4a10.9,10.9,0,0,0,.9-2.1l.9-2.1C124.4,104.9,124.6,104.6,124.8,104.6Z"/><path class="cls-2" d="M132.3,108.1l.3.4a8.1,8.1,0,0,1-.2.9,4.6,4.6,0,0,1-.3.9.7.7,0,0,1-.1.5v.3a.4.4,0,0,1-.1.3v.3a.3.3,0,0,0-.1.2c0,.1,0,.2-.1.2a.1.1,0,0,1-.1.1c0,.1-.1.2-.3.2s-.3-.2-.5-.5a2.3,2.3,0,0,1-.4-1,4.1,4.1,0,0,1-2.4,1.5,2.6,2.6,0,0,1-1.4-.7,2.2,2.2,0,0,1-.8-1.5,6.8,6.8,0,0,1,.7-2,6.9,6.9,0,0,1,1.8-2.4,2.9,2.9,0,0,1,2.2-1.2,2.3,2.3,0,0,1,1.4.8,1.7,1.7,0,0,1,.8,1.3A2.7,2.7,0,0,1,132.3,108.1Zm-4.4,2.4a3,3,0,0,0,1.6-.8,3.9,3.9,0,0,0,1.3-2.1l.2-.2q0-.9-.3-.9c-.4,0-.8.3-1.3.8a6.6,6.6,0,0,0-1.2,1.7,3.6,3.6,0,0,0-.5,1.3h.2Z"/><path class="cls-2" d="M143.7,104.6c.4,0,.7.3.9.8a2.7,2.7,0,0,1,.4,1.4,17.6,17.6,0,0,1-.2,1.9,10.4,10.4,0,0,1-.8,2.5c-.4.8-.7,1.2-1.1,1.2s-.5-.3-.5-.7a7.9,7.9,0,0,1,.4-2.2,13.5,13.5,0,0,0,.3-2c0-.3,0-.5-.1-.5s-.5.2-.8.7l-1,1.8-.8,1.5c-.1.2-.1.4-.2.5l-.2.4c-.3.6-.8.6-1.3,0a.9.9,0,0,1-.4-.7s.1-.4.2-1.1a10.1,10.1,0,0,0,.3-2.5,1.5,1.5,0,0,0-.1-.6c-.2,0-.3.1-.5.4a11.1,11.1,0,0,0-.7,1.3,9.9,9.9,0,0,1-.9,1.5c-.8,1.5-1.4,2.2-1.9,2.2s-.5-.2-.8-.6-.5-.6-.5-.8a4.3,4.3,0,0,1,.4-1.4,20,20,0,0,0,.4-2.4c.1-.9.1-1.5.2-2s.1-.7.3-.7a1.6,1.6,0,0,1,1.1.5c.4.3.6.6.6.8a15.1,15.1,0,0,1-.7,3.1,16.4,16.4,0,0,1,1.8-3.4,2,2,0,0,1,1.5-.9c.2,0,.5.3.9.7a2.4,2.4,0,0,1,.6,1.4v1.1a7.4,7.4,0,0,1,1.4-2.2A2.8,2.8,0,0,1,143.7,104.6Z"/><path class="cls-2" d="M151.6,108.8a5.4,5.4,0,0,1-2.1.5h-1.7a2.2,2.2,0,0,0-.1.8c0,.3,0,.5.1.6h.7a5.5,5.5,0,0,0,1.9-.2l.8-.2c.5,0,.7.2.7.4s-.4.8-1,1.1a4.3,4.3,0,0,1-2.2.6,2.9,2.9,0,0,1-2.1-.8,2.8,2.8,0,0,1-.7-1.9,5.3,5.3,0,0,1,.6-2.3,7.8,7.8,0,0,1,1.6-2,3.1,3.1,0,0,1,1.9-.8,2.4,2.4,0,0,1,1.8,1,2.9,2.9,0,0,1,.8,1.8A1.9,1.9,0,0,1,151.6,108.8Zm-1.1-2a.9.9,0,0,0-.6-.3c-.2,0-.4.1-.7.4a4.4,4.4,0,0,0-.8,1h.4c1.4,0,2-.2,2-.7A.5.5,0,0,0,150.5,106.8Z"/><path class="cls-2" d="M158.7,104.6a2.1,2.1,0,0,1,1.4.7,2.4,2.4,0,0,1,.6,1.5,8.6,8.6,0,0,1-.5,2.7,5.1,5.1,0,0,1-.9,2.1c-.3.5-.6.8-.9.8s-.5-.3-.5-.7a6.8,6.8,0,0,1,.5-2.2,11.2,11.2,0,0,0,.3-1.9c0-.4,0-.6-.1-.6s-.3,0-.4.2l-.3.3-.3.4-.3.4a1.7,1.7,0,0,1-.2.5c-.2.2-.3.3-.3.5l-.3.5c-.9,1.7-1.7,2.6-2.2,2.6s-.5-.2-.8-.6a1.5,1.5,0,0,1-.5-.8l.3-.7a3.4,3.4,0,0,1,.3-.8c0-.2.1-.4.1-.7a6.4,6.4,0,0,0,.2-.7v-.6a3.5,3.5,0,0,0,.1-.6,14.1,14.1,0,0,1,.2-2.2l.2-.2a1.6,1.6,0,0,1,1.1.5,1,1,0,0,1,.5.8,10.3,10.3,0,0,1-.4,2.7,29.1,29.1,0,0,1,1.7-2.8C157.9,105,158.3,104.6,158.7,104.6Z"/><path class="cls-2" d="M165,107.5a13,13,0,0,1-.6,1.9l-.3,1.1h.3l1.1-.3,1.1-.4c.3,0,.4.2.4.5s-.3.8-1,1.3a4.4,4.4,0,0,1-2.1.7,1.7,1.7,0,0,1-1.1-.6,1.3,1.3,0,0,1-.7-1,8.8,8.8,0,0,1,.5-1.9l.6-2-.9.2c-.2,0-.4-.2-.6-.5a.9.9,0,0,1-.4-.7c0-.4.8-.6,2.4-.9a10.6,10.6,0,0,0,.2-2.4c0-.3.2-.4.5-.4a1.4,1.4,0,0,1,1,.5,1.2,1.2,0,0,1,.6.9,10.5,10.5,0,0,1-.2,1.3h1.1c.8,0,1.1.2,1.1.5s-.2.5-.6.6l-2,.5A7.6,7.6,0,0,1,165,107.5Z"/><path class="cls-2" d="M174,108.8a5.4,5.4,0,0,1-2.1.5h-1.7a2.2,2.2,0,0,0-.1.8c0,.3,0,.5.1.6h.7a5.5,5.5,0,0,0,1.9-.2l.8-.2c.4,0,.7.2.7.4s-.4.8-1,1.1a4.4,4.4,0,0,1-2.3.6,2.6,2.6,0,0,1-2.7-2.7,5.3,5.3,0,0,1,.6-2.3,6.2,6.2,0,0,1,1.6-2,3.1,3.1,0,0,1,1.9-.8,2.4,2.4,0,0,1,1.8,1,2.9,2.9,0,0,1,.8,1.8A1.9,1.9,0,0,1,174,108.8Zm-1.1-2-.6-.3c-.2,0-.4.1-.7.4a2.7,2.7,0,0,0-.8,1h.4c1.3,0,2-.2,2-.7A.5.5,0,0,0,172.9,106.8Z"/><path class="cls-2" d="M186.6,105a.7.7,0,0,1,.5-.4c.2,0,.5.2.8.6a2.5,2.5,0,0,1,.5,1.1,13,13,0,0,1-.7,2.2l-1.1,3.2c-.1.5-.3.7-.7.7s-.3-.1-.5-.3a.8.8,0,0,1-.2-.6,11.5,11.5,0,0,1,.2-1.4c-1,1.5-1.8,2.3-2.4,2.3a2.7,2.7,0,0,1-1.9-1.9,12.5,12.5,0,0,1,.8-3.6c.6-1.5,1.1-2.3,1.6-2.3a1,1,0,0,1,.7.4,1.2,1.2,0,0,1,.4.9,3.5,3.5,0,0,1-.4,1,10.8,10.8,0,0,0-1.1,3.5h0c.2,0,.5-.3.9-.8a9.5,9.5,0,0,0,1.4-2A15.9,15.9,0,0,0,186.6,105Z"/><path class="cls-2" d="M194.2,104.6a1.9,1.9,0,0,1,1.3.7,2.4,2.4,0,0,1,.6,1.5,8.4,8.4,0,0,1-.4,2.7,10.9,10.9,0,0,1-.9,2.1c-.3.5-.6.8-1,.8s-.5-.3-.5-.7a11.6,11.6,0,0,1,.5-2.2,7,7,0,0,0,.4-1.9c0-.4-.1-.6-.2-.6s-.2,0-.3.2l-.4.3-.2.4-.3.4-.3.5-.3.5a1.7,1.7,0,0,1-.2.5c-1,1.7-1.7,2.6-2.2,2.6s-.5-.2-.8-.6a1.5,1.5,0,0,1-.5-.8l.2-.7a2,2,0,0,0,.3-.8,1.4,1.4,0,0,0,.2-.7c0-.2.1-.4.1-.7s.1-.4.1-.6v-.6a9.6,9.6,0,0,1,.3-2.2.2.2,0,0,1,.2-.2,1.8,1.8,0,0,1,1.1.5,1.5,1.5,0,0,1,.5.8,11.2,11.2,0,0,1-.5,2.7l1.8-2.8C193.3,105,193.8,104.6,194.2,104.6Z"/><path class="cls-2" d="M22.1,122.6c.4,0,.7.3,1,.8a2.7,2.7,0,0,1,.4,1.4,8.1,8.1,0,0,1-.3,1.9,10.3,10.3,0,0,1-.7,2.5q-.6,1.2-1.2,1.2c-.3,0-.5-.3-.5-.7a7.9,7.9,0,0,1,.4-2.2,8.2,8.2,0,0,0,.4-2c0-.3-.1-.5-.2-.5s-.4.2-.7.7-.6,1.1-1,1.8a12.3,12.3,0,0,0-.8,1.5l-.3.5a.5.5,0,0,1-.2.4q-.4.9-1.2,0a.9.9,0,0,1-.4-.7,4.5,4.5,0,0,1,.2-1.1,10.1,10.1,0,0,0,.2-2.5c0-.4,0-.6-.1-.6s-.3.1-.4.4a4.6,4.6,0,0,0-.7,1.3l-.9,1.5c-.8,1.5-1.5,2.2-1.9,2.2s-.5-.2-.8-.6-.5-.6-.5-.8a7,7,0,0,1,.3-1.4,10,10,0,0,0,.4-2.4c.1-.9.2-1.5.2-2s.2-.7.4-.7a1.8,1.8,0,0,1,1.1.5,1.5,1.5,0,0,1,.5.8,13.3,13.3,0,0,1-.6,3.1,25.9,25.9,0,0,1,1.7-3.4c.6-.6,1-.9,1.5-.9s.6.3,1,.7a2.4,2.4,0,0,1,.6,1.4,3.7,3.7,0,0,1-.1,1.1,7.8,7.8,0,0,1,1.5-2.2A2.8,2.8,0,0,1,22.1,122.6Z"/><path class="cls-2" d="M29.6,123c.1-.2.2-.4.5-.4s.5.2.8.6a2.5,2.5,0,0,1,.5,1.1c0,.1-.3.9-.7,2.2l-1.1,3.2c-.1.5-.4.7-.7.7a.5.5,0,0,1-.5-.3.8.8,0,0,1-.2-.6,11.5,11.5,0,0,1,.2-1.4c-1.1,1.5-1.9,2.3-2.5,2.3a1.6,1.6,0,0,1-1.1-.7,1.5,1.5,0,0,1-.7-1.2,12.5,12.5,0,0,1,.8-3.6c.5-1.5,1.1-2.3,1.5-2.3a1.2,1.2,0,0,1,.8.4,1.8,1.8,0,0,1,.4.9c0,.1-.2.4-.4,1a9.4,9.4,0,0,0-1.2,3.5h.1c.2,0,.4-.3.9-.8a15.8,15.8,0,0,0,1.4-2A15.9,15.9,0,0,0,29.6,123Z"/><path class="cls-2" d="M37.1,122.6a2.1,2.1,0,0,1,1.4.7,2.4,2.4,0,0,1,.6,1.5,12.6,12.6,0,0,1-.4,2.7,10.9,10.9,0,0,1-.9,2.1c-.4.5-.7.8-1,.8s-.5-.3-.5-.7a6.8,6.8,0,0,1,.5-2.2,16.4,16.4,0,0,0,.4-1.9c0-.4-.1-.6-.2-.6a.4.4,0,0,0-.4.2l-.3.3-.3.4-.2.4-.3.5-.3.5-.3.5c-.9,1.7-1.6,2.6-2.2,2.6s-.4-.2-.8-.6a1.2,1.2,0,0,1-.4-.8,1.4,1.4,0,0,1,.2-.7,3.4,3.4,0,0,1,.3-.8,6.4,6.4,0,0,0,.2-.7,2,2,0,0,1,.1-.7v-.6c.1-.1.1-.3.1-.6s.2-2,.2-2.2l.2-.2a1.6,1.6,0,0,1,1.1.5c.4.3.6.6.6.8a11.2,11.2,0,0,1-.5,2.7,17,17,0,0,1,1.8-2.8C36.3,123,36.8,122.6,37.1,122.6Z"/><path class="cls-2" d="M46.3,118.4c.3,0,.6.2,1,.7a1.6,1.6,0,0,1,.5,1.2,11.7,11.7,0,0,1-.5,2.4c-.3,1.4-.5,2.2-.6,2.5-.8,3.4-1.4,5.2-1.8,5.2s-.4-.2-.7-.4-.4-.5-.4-.7,0-.1.1-.2a4.4,4.4,0,0,1-2.2,1.3,2.1,2.1,0,0,1-1.3-.7,2.2,2.2,0,0,1-.6-1.3,6.9,6.9,0,0,1,.2-1.3,12.1,12.1,0,0,1,.5-1.4,10.7,10.7,0,0,1,.7-1.5,3.8,3.8,0,0,1,1.1-1.1,2.1,2.1,0,0,1,1.2-.5,1.9,1.9,0,0,1,1.6,1,31.5,31.5,0,0,0,.8-4.7C45.9,118.6,46,118.4,46.3,118.4Zm-4.4,10.1a4.2,4.2,0,0,0,1.3-.7,4,4,0,0,0,1.3-1.6v-.5a1.1,1.1,0,0,0-.3-.8c-.2-.2-.3-.4-.5-.4a1.4,1.4,0,0,0-.9.5,3.4,3.4,0,0,0-.6,1.2,5.2,5.2,0,0,0-.5,2.1h.2Z"/><path class="cls-2" d="M49.1,124.3c.8-1.1,1.5-1.7,2.3-1.7a2.7,2.7,0,0,1,2.7,2.7,5.3,5.3,0,0,1-.6,2.4,4.5,4.5,0,0,1-1.5,1.9,3.2,3.2,0,0,1-2.1.8,1.9,1.9,0,0,1-1.4-.8,2.8,2.8,0,0,1-.6-1.8A5.9,5.9,0,0,1,49.1,124.3Zm2.4,3.1a4.2,4.2,0,0,0,.6-2.1,2.1,2.1,0,0,0-.3-1.3,4.4,4.4,0,0,0-1.2,1.6,4,4,0,0,0-.7,2.1,2,2,0,0,0,.2,1.1A3.1,3.1,0,0,0,51.5,127.4Z"/><path class="cls-2" d="M67,126.1l.3.4a8.1,8.1,0,0,1-.2.9,4.6,4.6,0,0,1-.3.9.7.7,0,0,1-.1.5v.3a.4.4,0,0,1-.1.3v.5c0,.1,0,.2-.1.2h-.1c0,.1-.1.2-.3.2l-.5-.5a2.3,2.3,0,0,1-.5-1,3.7,3.7,0,0,1-2.3,1.5,2.6,2.6,0,0,1-1.4-.7,2.2,2.2,0,0,1-.8-1.5,6.8,6.8,0,0,1,.7-2,8.1,8.1,0,0,1,1.7-2.4,3.3,3.3,0,0,1,2.3-1.2,2.3,2.3,0,0,1,1.4.8,1.7,1.7,0,0,1,.8,1.3A2.7,2.7,0,0,1,67,126.1Zm-4.4,2.4a3,3,0,0,0,1.6-.8,3.9,3.9,0,0,0,1.3-2.1c0-.1,0-.2.2-.2s-.1-.9-.3-.9-.8.3-1.3.8a6.6,6.6,0,0,0-1.2,1.7,3.6,3.6,0,0,0-.5,1.3h.2Z"/><path class="cls-2" d="M71.3,119.1a1.7,1.7,0,0,1,.6,1.2c0,.4-.1,1.2-.2,2.2s-.3,1.8-.4,2.4c-.8,3.7-1.4,5.5-1.7,5.5s-.5-.2-.8-.6a1,1,0,0,1-.5-.8,10.2,10.2,0,0,1,.4-1.6c.2-1,.5-2.3.8-3.9a25.3,25.3,0,0,0,.4-4.6.5.5,0,0,1,.5-.5C70.6,118.4,70.9,118.6,71.3,119.1Z"/><path class="cls-2" d="M75.8,125.5a14.5,14.5,0,0,0-.6,1.9l-.3,1.1h.2l1.2-.3,1.1-.4a.5.5,0,0,1,.4.5c0,.4-.4.8-1,1.3a4.4,4.4,0,0,1-2.1.7,1.9,1.9,0,0,1-1.2-.6,1.4,1.4,0,0,1-.6-1,7,7,0,0,1,.4-1.9l.6-2-.8.2a1,1,0,0,1-.7-.5,1.1,1.1,0,0,1-.3-.7c0-.4.8-.6,2.3-.9a11.2,11.2,0,0,0,.3-2.4c0-.3.2-.4.5-.4a1.5,1.5,0,0,1,1,.5,1.2,1.2,0,0,1,.6.9,10.5,10.5,0,0,1-.2,1.3h1.1c.7,0,1.1.2,1.1.5s-.2.5-.7.6l-2,.5A6.1,6.1,0,0,1,75.8,125.5Z"/><path class="cls-2" d="M84.7,126.8a4.6,4.6,0,0,1-2,.5H81a2.4,2.4,0,0,0-.2.8.8.8,0,0,0,.2.6h.6a6.2,6.2,0,0,0,2-.2l.8-.2c.4,0,.6.2.6.4s-.3.8-1,1.1a3.8,3.8,0,0,1-2.2.6,2.8,2.8,0,0,1-2-.8,2.9,2.9,0,0,1-.8-1.9,4.3,4.3,0,0,1,.7-2.3,7.5,7.5,0,0,1,1.5-2,3.4,3.4,0,0,1,2-.8,2.1,2.1,0,0,1,1.7,1,2.4,2.4,0,0,1,.8,1.8A1.7,1.7,0,0,1,84.7,126.8Zm-1-2a.9.9,0,0,0-.6-.3c-.2,0-.4.1-.7.4a4.5,4.5,0,0,0-.9,1h.4c1.4,0,2.1-.2,2.1-.7A.5.5,0,0,0,83.7,124.8Z"/><path class="cls-2" d="M87.2,125.2v-1.7c0-.6.1-.9.5-.9a.9.9,0,0,1,.6.3c.2.1.3.3.4.7l1.1-.8a2.6,2.6,0,0,1,1.1-.2c.7,0,1.1.1,1.1.5s0,.3-.1.4-.1.1-.1.2h-.2l-.2.2-.5.3-1.2,1a4.8,4.8,0,0,0-.7,1.6,8.9,8.9,0,0,1-.8,2.6c-.2.6-.5.9-.8.9a.8.8,0,0,1-.7-.5,1.6,1.6,0,0,1-.3-.8,3.5,3.5,0,0,1,.3-1.2,11,11,0,0,0,.6-2.7Z"/><path class="cls-2" d="M97.3,122.6a2.1,2.1,0,0,1,1.4.7,2.3,2.3,0,0,1,.5,1.5,8.4,8.4,0,0,1-.4,2.7,5.1,5.1,0,0,1-.9,2.1c-.3.5-.6.8-1,.8s-.5-.3-.5-.7a11.6,11.6,0,0,1,.5-2.2,7,7,0,0,0,.4-1.9c0-.4,0-.6-.1-.6s-.3,0-.4.2l-.3.3-.3.4-.3.4a.9.9,0,0,1-.3.5c-.1.2-.2.3-.2.5l-.3.5c-.9,1.7-1.7,2.6-2.2,2.6s-.5-.2-.8-.6a1.5,1.5,0,0,1-.5-.8l.2-.7.4-.8c0-.2.1-.4.1-.7a1.5,1.5,0,0,0,.1-.7,1.3,1.3,0,0,0,.1-.6,1.8,1.8,0,0,1,.1-.6,7.1,7.1,0,0,1,.2-2.2l.2-.2a1.6,1.6,0,0,1,1.1.5,1,1,0,0,1,.5.8,7.8,7.8,0,0,1-.5,2.7l1.8-2.8C96.5,123,96.9,122.6,97.3,122.6Z"/><path class="cls-2" d="M106.4,126.1l.3.4a2,2,0,0,1-.2.9,5.1,5.1,0,0,0-.2.9,4.3,4.3,0,0,1-.1.5c0,.2,0,.3-.1.3v.3a.4.4,0,0,1-.1.3v.4h-.1l-.3.2c-.2,0-.3-.2-.5-.5a2.3,2.3,0,0,1-.5-1,3.6,3.6,0,0,1-2.4,1.5,2.6,2.6,0,0,1-1.4-.7,2.1,2.1,0,0,1-.7-1.5,5.8,5.8,0,0,1,.6-2,10.8,10.8,0,0,1,1.8-2.4,3.3,3.3,0,0,1,2.2-1.2,2.8,2.8,0,0,1,1.5.8c.5.5.8.9.8,1.3A3,3,0,0,1,106.4,126.1Zm-4.3,2.4a3.3,3.3,0,0,0,1.6-.8,3.8,3.8,0,0,0,1.2-2.1c0-.1.1-.2.3-.2s-.2-.9-.3-.9a2.3,2.3,0,0,0-1.4.8,10.4,10.4,0,0,0-1.2,1.7,3,3,0,0,0-.4,1.3h.2Z"/><path class="cls-2" d="M111.3,125.5a14.5,14.5,0,0,0-.6,1.9,7,7,0,0,1-.4,1.1h.3l1.2-.3,1.1-.4c.2,0,.3.2.3.5s-.3.8-1,1.3a3.8,3.8,0,0,1-2.1.7,1.7,1.7,0,0,1-1.1-.6,1.5,1.5,0,0,1-.7-1,8.8,8.8,0,0,1,.5-1.9l.6-2-.9.2c-.2,0-.4-.2-.6-.5a1.1,1.1,0,0,1-.3-.7c0-.4.7-.6,2.3-.9a11.2,11.2,0,0,0,.3-2.4c0-.3.1-.4.4-.4a1.4,1.4,0,0,1,1,.5,1.2,1.2,0,0,1,.6.9,3.7,3.7,0,0,1-.2,1.3h1.1c.8,0,1.2.2,1.2.5s-.3.5-.7.6l-2,.5Z"/><path class="cls-2" d="M116.2,122.6a1.2,1.2,0,0,1,.9.6,1.9,1.9,0,0,1,.4,1.2,7.3,7.3,0,0,1-.5,2c-.3,1.2-.7,2.3-1,3.4a.7.7,0,0,1-.7.6.6.6,0,0,1-.6-.3.9.9,0,0,1-.3-.6c0-.3.2-1,.4-2a23.2,23.2,0,0,0,.6-2.7,10.8,10.8,0,0,1,.4-1.7C115.9,122.8,116,122.6,116.2,122.6Zm-.2-1.8a1.6,1.6,0,0,1,.3-.9,1.3,1.3,0,0,1,.7-.4c.2,0,.5.3.8.8a4.2,4.2,0,0,1,.5,1.2.6.6,0,0,1-.3.6l-.5.2c-.3,0-.6-.2-1-.6A1.4,1.4,0,0,1,116,120.8Z"/><path class="cls-2" d="M123.6,122.6a1.1,1.1,0,0,1,.8.3c.2.2.4.4.4.6a9.4,9.4,0,0,1-.9,2.5,29.6,29.6,0,0,1-1.7,3.2q-.7,1.2-1.2,1.2l-.6-.3a1.7,1.7,0,0,1-.6-.6,26.5,26.5,0,0,1-.8-3.3,12.8,12.8,0,0,1-.5-2.9c0-.5.1-.7.4-.7a2.1,2.1,0,0,1,1,.4,2.4,2.4,0,0,1,1,1.9,4.9,4.9,0,0,1,.1,1.3c0,.5.1,1,.1,1.4a10.9,10.9,0,0,0,.9-2.1l.9-2.1C123.2,122.9,123.4,122.6,123.6,122.6Z"/><path class="cls-2" d="M125.8,124.3c.8-1.1,1.5-1.7,2.3-1.7a2.6,2.6,0,0,1,1.9.8,2.7,2.7,0,0,1,.8,1.9,6.9,6.9,0,0,1-.5,2.4,7,7,0,0,1-1.5,1.9,3.7,3.7,0,0,1-2.1.8,1.9,1.9,0,0,1-1.5-.8,2.8,2.8,0,0,1-.6-1.8A5.9,5.9,0,0,1,125.8,124.3Zm2.4,3.1a4.2,4.2,0,0,0,.6-2.1c0-.6,0-1.1-.2-1.3a3.6,3.6,0,0,0-1.3,1.6,4.8,4.8,0,0,0-.6,2.1,2.5,2.5,0,0,0,.1,1.1A2.7,2.7,0,0,0,128.2,127.4Z"/><path class="cls-2" d="M133.3,130.6c-.3,0-.6-.2-1-.6s-.6-.7-.6-1a1.8,1.8,0,0,1,1.1-1.3q.4,0,.9.9a3.1,3.1,0,0,1,.5,1.3.9.9,0,0,1-.3.5Z"/><path class="cls-2" d="M230.7,143c.4,0,.2-.4.3-.5S230.7,143.1,230.7,143Z"/><polygon class="cls-2" points="225.1 143.9 225.2 143.8 224.4 144.2 225.1 143.9"/><path class="cls-2" d="M219.8,143.9c.5.7,1.9-.1,2.9.2h.1l.5-.5A14.7,14.7,0,0,1,219.8,143.9Z"/><path class="cls-2" d="M217,142.4c.2.3-.6.2.7.1H217Z"/><path class="cls-2" d="M217.6,142.4c.5,0-.4-.2,0,0Z"/><path class="cls-2" d="M215,142.6l.7-.3c-.1-.1-.8-.2-.5-.3S214.6,142.3,215,142.6Z"/><path class="cls-2" d="M214.3,143.1h.4C214.6,142.9,214.5,142.9,214.3,143.1Z"/><path class="cls-2" d="M215.5,142.8l-.8.2c.1.1.1.3.4-.1S215.2,142.9,215.5,142.8Z"/><path class="cls-2" d="M215.9,142.9c.5.1,1,.2.3.5C217.6,143.3,217.3,142.8,215.9,142.9Z"/><path class="cls-2" d="M219.6,144.7l.5.2.5-.3C220.4,144.8,219.5,144.4,219.6,144.7Z"/><path class="cls-2" d="M210.5,142.2c-.1.1.2.4.3.6l.5-.2C211,142.5,210.5,142.4,210.5,142.2Z"/><path class="cls-2" d="M210.8,142.8l-.9.3C210.7,143.1,210.8,143,210.8,142.8Z"/><polygon class="cls-2" points="214.2 143.9 215.5 143.3 213.9 143.9 214.2 143.9"/><polygon class="cls-2" points="207.4 142.2 207.8 141.8 207 142.4 207.4 142.2"/><path class="cls-2" d="M205.3,142.2c.4-.3-.4-.5-.1-.6a3.4,3.4,0,0,0-1.4.5A2.7,2.7,0,0,1,205.3,142.2Z"/><path class="cls-2" d="M203,142.4c.3,0,.5-.2.8-.3Z"/><path class="cls-2" d="M208.6,143a1,1,0,0,0-.7-.5l.4.5Z"/><path class="cls-2" d="M208.3,143Z"/><path class="cls-2" d="M208.7,143h0Z"/><path class="cls-2" d="M212.1,143.5c-.5.2-1.5.5-.5.9S211.4,143.9,212.1,143.5Z"/><path class="cls-2" d="M209,143.5h.9c0-.1-.2-.3.1-.4Z"/><polygon class="cls-2" points="208.6 143.7 209 143.5 208.7 143.5 208.6 143.7"/><path class="cls-2" d="M204.5,142.8l-1.2.3h1.5C204.8,143,205,142.8,204.5,142.8Z"/><path class="cls-2" d="M206.3,142.9h0Z"/><path class="cls-2" d="M198.8,143.1h0Z"/><path class="cls-2" d="M204.8,143.3l.8-.2h-.8C204.7,143.2,204.7,143.3,204.8,143.3Z"/><path class="cls-2" d="M201.8,142.6l.6.3C202.2,142.7,201.9,142.5,201.8,142.6Z"/><path class="cls-2" d="M206.1,142.8h.1C206.1,142.7,206.1,142.8,206.1,142.8Z"/><path class="cls-2" d="M206.1,142.8l-.5.3h.7Z"/><path class="cls-2" d="M197.4,145.8c.1-.4,1-.8,1.9-.3s.3-1.6-.4-2.4-.1.4-.9.6,1.9.5,1.1.9-.9-.2-1.4-.4-1.4.7-1.2,1.5l1-.3C197.5,145.5,197.1,145.7,197.4,145.8Z"/><path class="cls-2" d="M200.5,143.2h.3a2.4,2.4,0,0,1-1.2-.5c-.6.2-.7.3-.7.5h1.6Z"/><path class="cls-2" d="M202.4,143.1c-.3.4-1.1.6-.6,1.1s.7-.4,1.3-.5c-1.6.1.5-.3-.7-.5h.9l-.9-.2h0c-.5-.1-.1-.1.1-.1h0l-1.7.2Z"/><path class="cls-2" d="M210.7,145.3h-.1C210.5,145.2,210.5,145.3,210.7,145.3Z"/><path class="cls-2" d="M210,145c.1,0,.2-.2.6-.2s0,.2,0,.4.8-.3.1-.5h-.1a2.7,2.7,0,0,1-1.4-.7A3.5,3.5,0,0,0,210,145Z"/><path class="cls-2" d="M206.1,144.2l-1.3.2.7.4v-.3C206.2,144.6,206,144.4,206.1,144.2Z"/><polygon class="cls-2" points="198.6 142.8 198.8 142.4 198 143 198.6 142.8"/><polygon class="cls-2" points="196.8 142.9 196.9 142.5 196.4 142.7 196.8 142.9"/><path class="cls-2" d="M95.8,147.8h0Z"/><path class="cls-2" d="M98.8,147.8v-.2C98.7,147.7,98.7,147.8,98.8,147.8Z"/><path class="cls-2" d="M152.9,142.9c-.6-.3-1.3-.9-1.2-.5l.2.5Z"/><path class="cls-2" d="M122.8,145.5l.2.2.4-.5Z"/><path class="cls-2" d="M122.4,147.3l-.8-.3Z"/><path class="cls-2" d="M79.8,148.3l-.4.4C80.1,148.7,79.8,148.5,79.8,148.3Z"/><path class="cls-2" d="M178.5,143.1l-1.3-.3C177.8,143,178.3,143.4,178.5,143.1Z"/><path class="cls-2" d="M97,143.2c-.2.1-.4.2-.3.3S97.1,143.3,97,143.2Z"/><path class="cls-2" d="M175.8,142.8h1.4A1.4,1.4,0,0,0,175.8,142.8Z"/><path class="cls-2" d="M21.8,147.9h0Z"/><path class="cls-2" d="M4.9,143.5h0Z"/><path class="cls-2" d="M189.6,142.7Z"/><path class="cls-2" d="M191.5,144.4l-.2.2Z"/><path class="cls-2" d="M172,145.5h0C172.1,145.6,172,145.6,172,145.5Z"/><path class="cls-2" d="M190.2,142.9h0Z"/><path class="cls-2" d="M190.1,142.7h0Z"/><path class="cls-2" d="M189.1,142.7h0Z"/><path class="cls-2" d="M52.9,146.7h-.1C52.4,146.9,52.6,146.9,52.9,146.7Z"/><path class="cls-2" d="M143,147.4Z"/><path class="cls-2" d="M141.6,147.8a1.2,1.2,0,0,1,1.4-.4l-.5-1.2Z"/><path class="cls-2" d="M88.8,147.9l1,.4c-1.2.7-2,.4-1.1,1,.1-1.4,3.7-.2,3.8-1.5l.7.3h-.4c1.2.7.9-1,2.5-.8s.9.3.5.5l1.3-.3c.3,0,.2.2-.1.2h1.8l1.2-.6c.5.1-.2.1-.1.3l1-.4c.5.4-.4.7-1.1.7.9,1.3.8-.4,2.9.4l-.9.2c.6.8,1.3.5,2.5,1s-2.3-1.2-1.1-1.6a1.5,1.5,0,0,0,1.3-.1c0,.5.6.4,1.3.3v.7c.8-.2.7-.5,1.2-.8s1.1.5,1.3,1-1-.8.7-1,2,0,3.5-.4-.2.4.1.6l.7-.5c.2,0,.2.2.1.3s.1-.7,1.1-.9,2,1.1,3.2.3-.2.4-.1.6a9.1,9.1,0,0,0,2.8-1.1l1.2.4c-.9-.4.2-1,1.2-1.5l-.8-.5,1.6-.4c.2.2,0,.4-.2.6h.2c.6.2.3.6-.1,1l-.5-.4c-.4.3-.8.8-.7,1.2l.5-.2c-.1.1-.2.2-.1.2s.2,0,.4-.2l.4.7v-.3l2,.5c1.4-.7,2.6-1.8,4.9-2.1-.6.5-.1.9-.1,1.5s-1.8.3-3,.1c.6.1.5.4.3.5l2.1-.6c0,.5.5.4,1,.6s1.6-.7,2.4-1-.1.7-1.1.6c1.1.8,1.4-1.2,2.6-.5s-.4-.1-.5.1,2-.1,1.7.2h-.3c1.7.2,5.2.1,5.4-.8a7,7,0,0,1-.3,1.2l3-2.9c-.3.8.7,2.5-.7,2.9a3.5,3.5,0,0,0,1.8,0c-.3-.1-.7-1.1-.3-1.1s.7.4,2,1.1c-.5-.2,0-1.3.7-1.3s0,1.2-.2,1.3l1.6-1.1c-.4.2-.1.9.3,1.2s1.4,0,1.8-.1l-.7-.2c1.8.1,1.8-1.6,3.6-1.6-.2.3-.5,1.5.4,1.6s1.9-2.7,3.5-3.2l.3.3,1.2-.3a28.5,28.5,0,0,1-4.1,3.4c.7.2.2.3,1.2.3s-.5.5-.8.5l2.4.2c-.2-.7,1.8-.7,1.7-1.2l-2.6.7c-.1-.7,1.5-1.9,3.2-1.8s-.3,1.2-.3,1.4a3.6,3.6,0,0,1,1.7-.3l-.7.4c1,.2,1.6-.9,2.7-.3s1.2.9,1.2.5a4.9,4.9,0,0,1-.3-3.7,11.9,11.9,0,0,1,2.5,1.1c.6.6-1,1.4-.4,1.9a.7.7,0,0,1,.5-.4c.4.1-.2.5.7.4s1.8.1.4-.5c.9-.2.9.1,2,.1s.9-1.5,1.7-1.7a.9.9,0,0,0,.3.5c1.8.1,2.7.4,4.4.4.1.1.9.3.6.6a2,2,0,0,1,1-.3c1,.5-1.2,0-.4.8s1.3-.6,2-.8-1.7-.2-2.4.1,1.3-1.7,3-2.1.6.5.9.4c2.5.1,2.2-1.5,4.3-.9s.1,1.1.2,1.5-1.7-.3-2.4-.3l.9.2a2.6,2.6,0,0,1-1.5.2c.7.5,4.4.1,6.3.5s1-.3.7-.6H189c-.6-.4,1.2-.6.4-.8a4.8,4.8,0,0,1,3-.5l.2.6c0-.2-.8-.4-1.1-.2s1.8.8,2.4,0l-.9-.4a7.4,7.4,0,0,1,3-.8c-.5-.6-.3.1-1-.6.6.9-2.7,0-1.7.9-.7-.8-1.3-.4-2.3-1.1s.3.4-.5.3l-.2.2h0l.4.3c-.4.5-1.8.5-2.3.7s.2-.2-.1-.4l-.7.3c-.1-.4-1.4-.7-.1-1h-1.2a5,5,0,0,0-2.1-.2c-.5,0-1.3.5-.9.2l-1.7.3h0c-1.8-.1-3.6.7-5.6-.1a6.6,6.6,0,0,1-2.1.1l-.2-.4c-.8.2-2.3-.4-2.6,0s-3.6-.2-4.9-.4v.5a18.1,18.1,0,0,0-2.9.4v.4c-1,.4-2.5-.3-4-.3h.7c-1.8-1-3.8.7-5.5,0a1.2,1.2,0,0,1-1,0h0l-.6-.3.5.3a3.2,3.2,0,0,0-1.3.2l-.2-.5h-.1c-.5-.2-.4.2-.2.6s-.4.1-.6.3-1.2.2-1.7-.6-2.4.3-2.7,1.2-.1-.2.1-.2a2.6,2.6,0,0,0-1.5,0l-.2-.6-1.2.8c-.7-.3-1-.6-.3-1-1.7.7-1.3.3-2.8,1V144c-.5,0-1.3.5-1.6.2s-5.7-.1-8.6-.8c.5,1.2-1.4-.5-1.5.4s-.6-.5-.1-.7c-1.5.3-2.3-.4-3.3.3s.3-.4.2-.5-.5.2-.7,0,.3-.2.5-.3c-1.5,0-1.7.9-1.8,1.7s-1.2-.4-1.7.2-.8-.6.2-.7-3.3-.3-3.3.3-.8,0-.9,0H116c-.4.8-.9.2-1.9.3h0c-2.1-.6-.9.2-3.1-.4l.2.5c-.2,1-1.9-.6-3.2-.2l.5.3c-.7.3-1.9-1.5-2.6-1.6s.2-.1.4-.2c-1.8-.6-.2.6-1.6.8s.4-.9-.5-.9-2.6,1.1-3.9.4c.3.3.6.5,0,.7s-2.6-1-3.5-.1v-.2c-.8.2-2.4.3-2.8.8-.7-1.7-4.6.8-4.5-.8H87.2a3,3,0,0,0-2.5.6c-.3-.1,0-.3,0-.3-2.1-.3-2.3-.3-4.1.5v-.5c-.5.3-3.1-.8-5.1-.2l.2-.2c-2.3.6-5.5-1.4-6.3.4l-1.6.4c2,.2-.3.8.6,1.1-.8.1-2-.5-1.1-.6h.2c.3-1-2.5-.4-2.4-1-3.9.1-7.7-.5-11.3-.5l.4.7H52.9c-.4-.2-.5-.6.4-.6s-1.5.4-1.5.5c-1.8-.3.7-.8.1-.8h-.5a2.7,2.7,0,0,1-1.8.6c-.7-.2-.3-.5-.6-.5s-.1-.1-.4,0H47l.6.6c-.7.3-1.5,0-.7.6-1.1-1-6-.3-6.6-.6a6.8,6.8,0,0,1-3.2.3c.3.1.5.8-.6.7.4-1.3-1.9-.6-2.7-1.5.7.6-3,.1-1.8,1-.9-.1-.1-.5-.7-.8-2.1.5-4.6-.3-7.1-.1-.1.1.3.4-.2.7l-1.4-.9c-.5.1-.4,1-1.3.4s.3.4-.1.4c-5-.8-10.2.7-15.3-.9.7.3.2.4-.3.4s0,.4.1.7l-2.2-.7c-.4.7-2.2,0-2.5.7h.7c-.9.7,1.3,1.6,1.1,2.6,1-.9,2.7,1.2,4.3,0s-.3.3-.1.6.9-.5,1.9-.4H8.8c2.6-.1,3.7.3,6.7.6l-.2-.5a3.4,3.4,0,0,1,1,.4c.7-.7-1.8-.1-1.1-.9.8,1,4.5.1,5,1.2s-.2-.6.7-.6l.3.3.2-.4c.7.1,1,.5,1,.7h-.6c.8.3,2.4-.1,2.6,0l-.9-.2c2.7-.3,5.9.1,8.5-.5l-.2-.2c2-.4,1.6.2,3.7.1h0a3.8,3.8,0,0,1,1.6-.3c-.6.3,1,.5.3.8,2.1-.4,1-.4,2.4-1.2l.4.4a2.1,2.1,0,0,1,1.5-.6c-.8.3.7.5-.3,1,2.3.8,3.4-.9,4.4.3,1.1-1-1.9-.5-1.3-.8s.8-.7,1.5-.6,1.3,1.3,3.1,1.3h-.4c.7.3,1.3-.3,2.2.1s1.1,0,1.2-.7H50.4c1-.2,1.9-1.1,3.4-.6l-.9.4c.5.3.9-.1,1.4.1s-2.1.2-3.1.8c.5.3,1.9-.6,1.4.3.8-1.1,1.8.1,3-.7v.5l.9-.3-.6.6c1-.5,1.9.5,2.9.2-2,0-.5-.6-1.3-1,2.4-.6,1.4,1.3,4.1,1.1-.3,0-1.4-.3-.8-.5a4.3,4.3,0,0,1,1.6.5c1.8-.1-.3-.5.5-.8s.9-.2,1.7-.4v.5c2.1.3.5-1,2.4-.7l-.8.7,1-.2-.2.6a4,4,0,0,1,2.4-.2c-.2-.3.2-.8,1.1-.9s-.4.5.9.4c-.3.3-.6.7-1.1.3l-.4.4c.7.4,1.7.1,2.2.1h-.5l1.9-.7c.3.2,0,.3-.2.5a3.5,3.5,0,0,1,1.2-.3c-.1.4-.1.8-.9,1l1.8-.5c.1.2.9.5.7.6s2.5-.7,3.8-.4a.6.6,0,0,1,.5-.2c1.2.1,2.3.5,3.8,0l.9.7c1.1-.2-1.2-.9.8-1.1s.5.6.9.7a4.1,4.1,0,0,1,3.2-.5A2.6,2.6,0,0,1,88.8,147.9Zm14.3-.3c-.2.1-.8.4-1,.1S102.7,147.5,103.1,147.6Zm21.8-1.1c-.2.1-.5,0-.9-.1A1,1,0,0,1,124.9,146.5Zm60.6-3.4h-.1C184.8,142.9,185,143,185.5,143.1Zm1.3.2c.1-.1.1-.1,0-.2h-.7C186.2,143.3,186.4,143.4,186.8,143.3Zm-137.9.2h.2C48.5,143.8,48.7,143.6,48.9,143.5Z"/><path class="cls-2" d="M122.4,147.1v-.2C122.2,146.9,122.2,147,122.4,147.1Z"/><path class="cls-2" d="M79.9,148.2Z"/><path class="cls-2" d="M166.9,147.4l-.5-.3C166.3,147.3,166.5,147.4,166.9,147.4Z"/><path class="cls-2" d="M193.6,142.5h-.9l.8.2C193.5,142.7,193.3,142.5,193.6,142.5Z"/><path class="cls-2" d="M200.7,145.5h.4v-.2C200.5,145.2,200.2,145.4,200.7,145.5Z"/><path class="cls-2" d="M194.3,144.1c.1.4.6.3,1.2.2h-.1C195.5,143.7,194.9,143.9,194.3,144.1Z"/><path class="cls-2" d="M195.6,144.3a.4.4,0,0,1,.5,0C196.2,144,195.9,144.2,195.6,144.3Z"/><path class="cls-2" d="M188.4,143c.3.1.2-.5.3-.3S186.9,143.3,188.4,143Z"/><polygon class="cls-2" points="194.8 145.4 194.6 144.9 194.3 145.3 194.8 145.4"/><path class="cls-2" d="M190.2,145.1h1c-.1-.1.1-.1.2-.2S190.2,144.9,190.2,145.1Z"/><path class="cls-2" d="M191.4,145h0Z"/><polygon class="cls-2" points="193.5 145.6 193.3 145.5 192.6 145.4 193.5 145.6"/><path class="cls-2" d="M180.3,145h-1c-.1.2.2.3.6.2S180.5,145.1,180.3,145Z"/><path class="cls-2" d="M183.4,146.3l-.5-.3v.6Z"/><path class="cls-2" d="M180.4,146.5c-.1.1-1.4.5-.1.4S181.4,146.6,180.4,146.5Z"/><polygon class="cls-2" points="165.3 145.7 165.6 145.7 165.5 144.7 165.3 145.7"/><path class="cls-2" d="M152,148.1c1.2.3.2-.6,1.3-.3s-.9-.2-.6-.5S151.6,147.5,152,148.1Z"/><path class="cls-2" d="M152.7,147.3h0Z"/><polygon class="cls-2" points="2.1 143 1.3 142.8 1.8 143.1 2.1 143"/><path class="cls-2" d="M.6,143.7v-.6l-.5.6Z"/><path class="cls-2" d="M105.3,148.9h0c-.1-.2-.3-.2-.6-.2Z"/><polygon class="cls-2" points="94.9 148.4 95.1 148.4 94.7 147.9 94.9 148.4"/><path class="cls-2" d="M86.2,149.2h1.1C86.5,149.2,86.1,148.5,86.2,149.2Z"/></g></svg>