<svg xmlns="http://www.w3.org/2000/svg" viewBox="0 0 231 150.8"><defs><style>.cls-1{fill:#fff;}.cls-2{fill:#f4cd27;stroke:#fbb03b;stroke-miterlimit:10;stroke-width:0.85px;}</style></defs><title>act1_territorial</title><g id="Layer_6" data-name="Layer 6"><path class="cls-1" d="M13.9,95.9c-.3,0-.6-.2-.9-.7a2.4,2.4,0,0,1-.6-1.1,20.4,20.4,0,0,1,.5-2.3,1.2,1.2,0,0,1-.4-.9c0-.2.2-.4.7-.6a36.6,36.6,0,0,0,1-4.9c0-.3.1-.5.4-.5s.5.2.9.7a2.4,2.4,0,0,1,.6,1.4c0,.2-.2,1.1-.5,2.7a10.7,10.7,0,0,1,2.5-.3,22.1,22.1,0,0,0,.8-4c0-.3.1-.5.4-.5s.5.2.9.7a2.4,2.4,0,0,1,.6,1.4,26.4,26.4,0,0,1-.6,2.6c.5.1.8.3.8.5s-.4.6-1.1.8-.6,2.3-.7,2.7-.2.8-.3,1-.1.5-.2.7-.2.6-.3.6-.5-.2-.8-.6a1.4,1.4,0,0,1-.5-1.1,28.2,28.2,0,0,1,.6-2.9,11.9,11.9,0,0,0-2.7.5l-.6,2.5a5.8,5.8,0,0,0-.2,1Q14.1,95.9,13.9,95.9Z"/><path class="cls-1" d="M28.2,91.6c.1.2.2.3.2.5a3.2,3.2,0,0,1-.1.8,9.2,9.2,0,0,0-.3.9c0,.3-.1.4-.1.6v.3c0,.1-.1.1-.1.3v.2a.3.3,0,0,0-.1.2v.2c0,.1-.1.1-.1.2h-.3c-.1,0-.3-.1-.5-.4a3.1,3.1,0,0,1-.5-1,3.9,3.9,0,0,1-2.3,1.4,1.9,1.9,0,0,1-1.4-.7,2.3,2.3,0,0,1-.8-1.4,4.6,4.6,0,0,1,.7-2.1,9.6,9.6,0,0,1,1.7-2.4,3.1,3.1,0,0,1,2.2-1.1,2.3,2.3,0,0,1,1.5.7c.5.5.8.9.8,1.3A2.7,2.7,0,0,1,28.2,91.6ZM23.8,94a3.3,3.3,0,0,0,1.6-.8,2.8,2.8,0,0,0,1.2-2.1c0-.1.1-.2.3-.2s-.1-.8-.3-.8a1.9,1.9,0,0,0-1.3.7L24,92.5a3,3,0,0,0-.4,1.3V94Z"/><path class="cls-1" d="M35.3,88.2a1.7,1.7,0,0,1,1.3.7,2.6,2.6,0,0,1,.6,1.5,5,5,0,0,1-.3,1.6,7.6,7.6,0,0,1-.9,1.8,3.7,3.7,0,0,1-1.3,1.5,2.7,2.7,0,0,1-1.6.6,3.7,3.7,0,0,1-2-.8c-.2.5-.4.8-.5.8a1.5,1.5,0,0,1-.8-.5,2.1,2.1,0,0,1-.5-.9c0-.2.2-.9.5-2.1a34.7,34.7,0,0,0,1.5-8c0-.3.2-.4.5-.4s.5.2.9.6a2.2,2.2,0,0,1,.6,1.2,19.4,19.4,0,0,1-.8,4.2C33.6,88.8,34.6,88.2,35.3,88.2Zm-2.5,6c.6,0,1.1-.5,1.7-1.3a4.5,4.5,0,0,0,.9-2.6h-.3a2.4,2.4,0,0,0-1.7,1,12.1,12.1,0,0,0-1.7,2.5A2.1,2.1,0,0,0,32.8,94.2Z"/><path class="cls-1" d="M41,84.6a2.2,2.2,0,0,1,.6,1.3c0,.4-.1,1.1-.2,2.1s-.3,1.9-.4,2.5c-.8,3.6-1.4,5.4-1.7,5.4s-.5-.2-.9-.5a1.6,1.6,0,0,1-.4-.9l.4-1.6c.2-1,.5-2.3.8-3.9a24.5,24.5,0,0,0,.4-4.6c0-.3.2-.4.5-.4S40.6,84.2,41,84.6Z"/><path class="cls-1" d="M48.3,91.6c.2.2.3.3.3.5s-.1.4-.2.8a5.1,5.1,0,0,0-.2.9,1.5,1.5,0,0,0-.1.6.4.4,0,0,0-.1.3V95a.3.3,0,0,0-.1.2c0,.1,0,.2-.1.2v.2l-.2.2c0,.1-.1.1-.3.1s-.3-.1-.5-.4a3,3,0,0,1-.4-1A4.4,4.4,0,0,1,44,95.9a2.5,2.5,0,0,1-2.1-2.1,5.7,5.7,0,0,1,.6-2.1,8,8,0,0,1,1.8-2.4,2.9,2.9,0,0,1,2.2-1.1,2.1,2.1,0,0,1,1.4.7c.6.5.9.9.9,1.3A3,3,0,0,1,48.3,91.6ZM43.9,94a3,3,0,0,0,1.6-.8,3.3,3.3,0,0,0,1.3-2.1l.2-.2c0-.5-.1-.8-.2-.8a1.9,1.9,0,0,0-1.4.7,8.8,8.8,0,0,0-1.2,1.7,3.6,3.6,0,0,0-.5,1.3c0,.1,0,.2.1.2Z"/><path class="cls-1" d="M59.7,88.2c.4,0,.7.2,1,.7a4.4,4.4,0,0,1,.3,1.5,8,8,0,0,1-.2,1.9,11.3,11.3,0,0,1-.8,2.4c-.3.8-.7,1.2-1.1,1.2s-.5-.2-.5-.7a8.5,8.5,0,0,1,.4-2.2c.2-1,.4-1.7.4-2s-.1-.5-.2-.5-.5.3-.7.7-.7,1.1-1.1,1.9a8.5,8.5,0,0,0-.7,1.5l-.3.5-.2.4c-.3.5-.8.5-1.3,0a1,1,0,0,1-.4-.8l.3-1.1a18.1,18.1,0,0,0,.2-2.5c0-.4,0-.6-.1-.6s-.3.2-.4.4a6,6,0,0,0-.8,1.3c-.3.6-.6,1.1-.8,1.6s-1.5,2.1-2,2.1-.5-.2-.8-.6a1.5,1.5,0,0,1-.5-.8,4.3,4.3,0,0,1,.4-1.4,17.2,17.2,0,0,0,.4-2.4c.1-.8.1-1.5.2-2s.2-.7.3-.7a1.6,1.6,0,0,1,1.1.5,1.2,1.2,0,0,1,.6.9,11.1,11.1,0,0,1-.7,3.1,14,14,0,0,1,1.8-3.4,2,2,0,0,1,1.5-.9,1.3,1.3,0,0,1,.9.7,2.2,2.2,0,0,1,.6,1.3v1.1a6,6,0,0,1,1.4-2.1A2.4,2.4,0,0,1,59.7,88.2Z"/><path class="cls-1" d="M63,89.8a3,3,0,0,1,2.3-1.7,2.5,2.5,0,0,1,1.9.9,2.6,2.6,0,0,1,.8,1.9,5.3,5.3,0,0,1-.6,2.3,4,4,0,0,1-1.5,1.9,3.2,3.2,0,0,1-2.1.8,1.7,1.7,0,0,1-1.4-.7,2.8,2.8,0,0,1-.6-1.8A6,6,0,0,1,63,89.8Zm2.4,3.1a4.1,4.1,0,0,0,.6-2,2.4,2.4,0,0,0-.3-1.4,5.8,5.8,0,0,0-1.3,1.6,4.8,4.8,0,0,0-.6,2.1,2.9,2.9,0,0,0,.2,1.2A4.1,4.1,0,0,0,65.4,92.9Z"/><path class="cls-1" d="M73.5,88.2c.4,0,.7.2,1.1.7a1.7,1.7,0,0,1,.6,1.2.3.3,0,0,1-.3.3h-.6l-.7-.2-1,.3c-.5.1-.7.4-.7.6s.2.3.4.4l.9.6a3.8,3.8,0,0,1,.9.9,1.5,1.5,0,0,1,.4,1.1,1.7,1.7,0,0,1-.9,1.3,3.7,3.7,0,0,1-2.1.6,3.3,3.3,0,0,1-2.1-.6c-.6-.3-.9-.7-.9-1.1s.2-.6.5-.6l.4.2a3.8,3.8,0,0,0,1.9.4c.8,0,1.1-.1,1.1-.3s-.1-.4-.4-.7l-.9-.6-1-.8a1.8,1.8,0,0,1-.4-.9q0-.7,1.5-1.8A4.8,4.8,0,0,1,73.5,88.2Z"/><path class="cls-1" d="M87.9,84q.3,0,.9.6a2.2,2.2,0,0,1,.6,1.2c0,.2-.2,1-.5,2.4a14.8,14.8,0,0,0-.6,2.5c-.8,3.5-1.4,5.2-1.8,5.2s-.4-.1-.7-.4a.9.9,0,0,1-.4-.7h0a4.6,4.6,0,0,1-2.1,1.2,1.6,1.6,0,0,1-1.3-.7,2.2,2.2,0,0,1-.6-1.3,6,6,0,0,1,.2-1.2,4.4,4.4,0,0,1,.5-1.5,10.1,10.1,0,0,1,.7-1.5,3.8,3.8,0,0,1,1.1-1.1,1.9,1.9,0,0,1,2.8.5,29.6,29.6,0,0,0,.8-4.7C87.5,84.1,87.6,84,87.9,84ZM83.5,94l1.2-.6a4.6,4.6,0,0,0,1.4-1.7,2,2,0,0,1-.1-.5,1.2,1.2,0,0,0-.2-.8l-.5-.3a1.2,1.2,0,0,0-.9.4,2.7,2.7,0,0,0-.6,1.2,5.2,5.2,0,0,0-.5,2.1V94Z"/><path class="cls-1" d="M95.3,92.3a4.2,4.2,0,0,1-2.1.6l-1.7-.2a2.5,2.5,0,0,0-.1.8c0,.3,0,.5.1.6a1,1,0,0,0,.7.2l1.9-.2.9-.2c.4,0,.6.1.6.4s-.3.7-1,1.1a5.1,5.1,0,0,1-2.2.5,2.9,2.9,0,0,1-2.1-.8,2.5,2.5,0,0,1-.7-1.9,4.6,4.6,0,0,1,.6-2.2,6.4,6.4,0,0,1,1.6-2,2.6,2.6,0,0,1,1.9-.8,2.4,2.4,0,0,1,1.8.9,2.9,2.9,0,0,1,.8,1.9C96.3,91.5,96,91.9,95.3,92.3Zm-1.1-2a.9.9,0,0,0-.6-.3,1.3,1.3,0,0,0-.7.4l-.8,1h.4c1.4,0,2.1-.2,2.1-.7S94.4,90.5,94.2,90.3Z"/><path class="cls-1" d="M99.9,84.6a2.2,2.2,0,0,1,.6,1.3c0,.4-.1,1.1-.2,2.1s-.2,1.9-.3,2.5q-1.4,5.4-1.8,5.4a1.5,1.5,0,0,1-.8-.5,2.1,2.1,0,0,1-.5-.9s.1-.5.4-1.6a23.9,23.9,0,0,0,.8-3.9,24.5,24.5,0,0,0,.4-4.6c0-.3.2-.4.5-.4A1.2,1.2,0,0,1,99.9,84.6Z"/><path class="cls-1" d="M112.4,92.3a4.2,4.2,0,0,1-2.1.6l-1.7-.2a2.5,2.5,0,0,0-.1.8c0,.3,0,.5.1.6a1,1,0,0,0,.7.2l1.9-.2.8-.2c.5,0,.7.1.7.4s-.4.7-1,1.1a5.4,5.4,0,0,1-2.2.5,2.9,2.9,0,0,1-2.1-.8,2.5,2.5,0,0,1-.7-1.9,4.6,4.6,0,0,1,.6-2.2,6.4,6.4,0,0,1,1.6-2,2.6,2.6,0,0,1,1.9-.8,2.6,2.6,0,0,1,1.8.9,2.9,2.9,0,0,1,.8,1.9C113.4,91.5,113,91.9,112.4,92.3Zm-1.1-2-.6-.3c-.2,0-.4.1-.7.4l-.8,1h.4c1.4,0,2-.2,2-.7S111.5,90.5,111.3,90.3Z"/><path class="cls-1" d="M118.8,88.2a1.6,1.6,0,0,1,1.1.7,1.6,1.6,0,0,1,.5,1.2.3.3,0,0,1-.3.3h-.5l-.7-.2-1,.3c-.5.1-.7.4-.7.6s.1.3.4.4l.9.6.9.9a2.1,2.1,0,0,1,.4,1.1,1.7,1.7,0,0,1-.9,1.3,4,4,0,0,1-2.2.6,3.7,3.7,0,0,1-2.1-.6,1.4,1.4,0,0,1-.8-1.1c0-.4.1-.6.5-.6l.4.2a3.6,3.6,0,0,0,1.9.4c.7,0,1.1-.1,1.1-.3s-.1-.4-.4-.7l-1-.6-.9-.8a1.2,1.2,0,0,1-.4-.9q0-.7,1.5-1.8A4.5,4.5,0,0,1,118.8,88.2Z"/><path class="cls-1" d="M121,93.5a5.6,5.6,0,0,1,.6-2.3,9.1,9.1,0,0,1,1.8-2.1,3.2,3.2,0,0,1,2.1-.9,1.6,1.6,0,0,1,1.1.7,2.1,2.1,0,0,1,.5,1.2c0,.2-.1.4-.3.4l-.5-.2-.7-.2q-.3,0-.9.6a5.3,5.3,0,0,0-1.1,1.4,2.8,2.8,0,0,0-.5,1.2.8.8,0,0,0,.2.6h2.1l.8-.3h.4c.3,0,.5.1.5.4s-.4.9-1.2,1.3a4.1,4.1,0,0,1-2.3.7,2.9,2.9,0,0,1-1.7-.8A2.4,2.4,0,0,1,121,93.5Z"/><path class="cls-1" d="M134,92.3a3.6,3.6,0,0,1-2,.6l-1.7-.2a3.1,3.1,0,0,0-.2.8.7.7,0,0,0,.8.8l2-.2.8-.2c.4,0,.6.1.6.4s-.3.7-.9,1.1a5.6,5.6,0,0,1-2.3.5,2.8,2.8,0,0,1-2-.8,2.6,2.6,0,0,1-.8-1.9A3.8,3.8,0,0,1,129,91a5.3,5.3,0,0,1,1.6-2,2.5,2.5,0,0,1,1.9-.8,2.2,2.2,0,0,1,1.7.9A2.5,2.5,0,0,1,135,91C135,91.5,134.7,91.9,134,92.3Zm-1-2a.9.9,0,0,0-.6-.3c-.2,0-.4.1-.7.4a3.9,3.9,0,0,0-.8,1h.3c1.4,0,2.1-.2,2.1-.7S133.2,90.5,133,90.3Z"/><path class="cls-1" d="M141.2,88.2a1.6,1.6,0,0,1,1.3.7,2,2,0,0,1,.6,1.5,8.2,8.2,0,0,1-.4,2.6,12.3,12.3,0,0,1-.9,2.2c-.3.5-.6.7-1,.7s-.5-.2-.5-.7a11.6,11.6,0,0,1,.5-2.2,6.3,6.3,0,0,0,.4-1.9c0-.4-.1-.6-.2-.6l-.3.2q-.3.1-.3.3l-.3.4-.3.4-.3.5-.3.5a1.7,1.7,0,0,1-.2.5c-1,1.7-1.7,2.6-2.2,2.6a1.5,1.5,0,0,1-.8-.5,2.8,2.8,0,0,1-.5-.8,4.5,4.5,0,0,1,.2-.8,1.6,1.6,0,0,0,.3-.8,1.4,1.4,0,0,0,.2-.6c0-.2.1-.5.1-.7a3.5,3.5,0,0,1,.1-.6v-.7a7.3,7.3,0,0,1,.3-2.1c0-.2.1-.3.2-.3a1.8,1.8,0,0,1,1.1.5,1.4,1.4,0,0,1,.5.9A11.4,11.4,0,0,1,138,92l1.8-2.7C140.3,88.5,140.8,88.2,141.2,88.2Z"/><path class="cls-1" d="M150.3,91.6c.2.2.3.3.3.5s-.1.4-.2.8a5.1,5.1,0,0,0-.2.9,1.5,1.5,0,0,0-.1.6c0,.1-.1.2-.1.3V95a.3.3,0,0,0-.1.2v.6h-.3c-.2,0-.3-.1-.6-.4a3,3,0,0,1-.4-1,3.8,3.8,0,0,1-2.4,1.4,2.5,2.5,0,0,1-2.1-2.1,5.7,5.7,0,0,1,.6-2.1,10.1,10.1,0,0,1,1.8-2.4,2.9,2.9,0,0,1,2.2-1.1,2.5,2.5,0,0,1,1.5.7c.5.5.8.9.8,1.3A3,3,0,0,1,150.3,91.6ZM146,94a3.3,3.3,0,0,0,1.6-.8,3.7,3.7,0,0,0,1.2-2.1l.2-.2c0-.5-.1-.8-.2-.8a2.1,2.1,0,0,0-1.4.7,8.8,8.8,0,0,0-1.2,1.7,3.6,3.6,0,0,0-.5,1.3c0,.1,0,.2.1.2Z"/><path class="cls-1" d="M152.4,90.7V89c0-.6.2-.8.6-.8a.7.7,0,0,1,.6.2,2.1,2.1,0,0,1,.4.7,4.1,4.1,0,0,1,1.1-.7l1.1-.3c.7,0,1.1.2,1.1.5s-.1.3-.1.4-.1.2-.2.2a.3.3,0,0,0-.1.2h-.2l-.5.3a4,4,0,0,0-1.2,1,5.4,5.4,0,0,0-.7,1.7,12.3,12.3,0,0,1-.8,2.5c-.2.6-.5.9-.8.9a.9.9,0,0,1-.8-.5,2.4,2.4,0,0,1-.2-.8,3.5,3.5,0,0,1,.3-1.2,10.3,10.3,0,0,0,.4-1.4A5.3,5.3,0,0,0,152.4,90.7Z"/><path class="cls-1" d="M158.7,88.2a1.2,1.2,0,0,1,1,.6,2.5,2.5,0,0,1,.4,1.1c0,.2-.2.9-.5,2.1s-.7,2.3-1.1,3.3a.7.7,0,0,1-.7.6.9.9,0,0,1-.6-.3.8.8,0,0,1-.2-.6,9.2,9.2,0,0,1,.4-2c.2-1,.4-1.9.5-2.7s.3-1.3.4-1.6S158.6,88.2,158.7,88.2Zm-.2-1.9a1,1,0,0,1,.4-.8.7.7,0,0,1,.6-.4c.3,0,.5.2.8.8a1.9,1.9,0,0,1,.5,1.2.8.8,0,0,1-.2.5.6.6,0,0,1-.5.2c-.3,0-.6-.2-1-.6A1.4,1.4,0,0,1,158.5,86.3Z"/><path class="cls-1" d="M162,89.8c.8-1.1,1.6-1.7,2.3-1.7a2.3,2.3,0,0,1,1.9.9,2.2,2.2,0,0,1,.8,1.9,6.8,6.8,0,0,1-.5,2.3,5.8,5.8,0,0,1-1.5,1.9,3.7,3.7,0,0,1-2.1.8,1.6,1.6,0,0,1-1.4-.7,2.8,2.8,0,0,1-.6-1.8A5.9,5.9,0,0,1,162,89.8Zm2.5,3.1a4.1,4.1,0,0,0,.6-2,2.4,2.4,0,0,0-.3-1.4,4.5,4.5,0,0,0-1.3,1.6,4.8,4.8,0,0,0-.6,2.1,3.5,3.5,0,0,0,.1,1.2A3.6,3.6,0,0,0,164.5,92.9Z"/><path class="cls-1" d="M179.3,92.3a4.2,4.2,0,0,1-2.1.6l-1.7-.2a2.5,2.5,0,0,0-.1.8c0,.3,0,.5.1.6a1,1,0,0,0,.7.2l1.9-.2.8-.2c.4,0,.6.1.6.4s-.3.7-.9,1.1a5.6,5.6,0,0,1-2.3.5,2.8,2.8,0,0,1-2-.8,2.6,2.6,0,0,1-.8-1.9,4.7,4.7,0,0,1,.7-2.2,5.3,5.3,0,0,1,1.6-2,2.6,2.6,0,0,1,1.9-.8,2.6,2.6,0,0,1,1.8.9,2.9,2.9,0,0,1,.8,1.9C180.3,91.5,179.9,91.9,179.3,92.3Zm-1.1-2a.9.9,0,0,0-.6-.3c-.2,0-.4.1-.7.4a3.9,3.9,0,0,0-.8,1h.4c1.3,0,2-.2,2-.7S178.4,90.5,178.2,90.3Z"/><path class="cls-1" d="M186.4,88.2a1.7,1.7,0,0,1,1.4.7,2,2,0,0,1,.6,1.5,8.5,8.5,0,0,1-.5,2.6,5.6,5.6,0,0,1-.9,2.2c-.3.5-.6.7-1,.7s-.5-.2-.5-.7A11.6,11.6,0,0,1,186,93a6.3,6.3,0,0,0,.4-1.9c0-.4,0-.6-.1-.6a.5.5,0,0,0-.4.2l-.3.3-.3.4-.3.4c0,.2-.1.3-.3.5l-.2.5-.3.5c-.9,1.7-1.7,2.6-2.2,2.6a1.5,1.5,0,0,1-.8-.5,2.8,2.8,0,0,1-.5-.8,4.5,4.5,0,0,1,.2-.8l.4-.8c0-.2.1-.4.1-.6a1.7,1.7,0,0,0,.1-.7,1.8,1.8,0,0,0,.1-.6,2,2,0,0,1,.1-.7,10.7,10.7,0,0,1,.2-2.1c.1-.2.1-.3.2-.3a1.6,1.6,0,0,1,1.1.5,1.1,1.1,0,0,1,.5.9,10.3,10.3,0,0,1-.4,2.6,26.2,26.2,0,0,1,1.7-2.7C185.6,88.5,186,88.2,186.4,88.2Z"/><path class="cls-1" d="M200.7,92.3a4.2,4.2,0,0,1-2.1.6l-1.7-.2a2.5,2.5,0,0,0-.1.8c0,.3,0,.5.1.6a1,1,0,0,0,.7.2l1.9-.2.8-.2c.4,0,.7.1.7.4s-.4.7-1,1.1a5.6,5.6,0,0,1-2.3.5,2.8,2.8,0,0,1-2-.8,2.5,2.5,0,0,1-.7-1.9,4.6,4.6,0,0,1,.6-2.2,5.3,5.3,0,0,1,1.6-2,2.6,2.6,0,0,1,1.9-.8,2.6,2.6,0,0,1,1.8.9,2.9,2.9,0,0,1,.8,1.9C201.7,91.5,201.3,91.9,200.7,92.3Zm-1.1-2a.9.9,0,0,0-.6-.3c-.2,0-.4.1-.7.4a3.9,3.9,0,0,0-.8,1h.4c1.3,0,2-.2,2-.7S199.8,90.5,199.6,90.3Z"/><path class="cls-1" d="M205.3,84.6a2.2,2.2,0,0,1,.6,1.3c0,.4-.1,1.1-.2,2.1a13.1,13.1,0,0,1-.4,2.5c-.8,3.6-1.4,5.4-1.7,5.4a1.5,1.5,0,0,1-.8-.5,1.4,1.4,0,0,1-.5-.9l.4-1.6c.3-1,.5-2.3.8-3.9a24.5,24.5,0,0,0,.4-4.6c0-.3.2-.4.5-.4S204.9,84.2,205.3,84.6Z"/><path class="cls-1" d="M16.9,115l1.1-.3.5.2a.6.6,0,0,1,.2.5.4.4,0,0,1-.2.4l-.8.5-1.1.8-.8.6a.7.7,0,0,1-.6.2c-.2,0-.3-.1-.5-.4a1.6,1.6,0,0,1-.3-.8,19.6,19.6,0,0,1,1.2-3.4,2.9,2.9,0,0,1-1.5.6,1.6,1.6,0,0,1-1.3-.8,1.9,1.9,0,0,1-.7-1.3,3.7,3.7,0,0,1,.4-1.6,8.1,8.1,0,0,1,1-1.8,7.5,7.5,0,0,1,1.5-1.6,3.2,3.2,0,0,1,1.7-.6,1.7,1.7,0,0,1,1.4.7,1.7,1.7,0,0,1,.7,1.3c0,.3-.1.4-.4.4l-.6-.3-.6-.3c-.5,0-.9.3-1.5.8a11.5,11.5,0,0,0-1.4,1.7,3.6,3.6,0,0,0-.5,1.3v.2h.3a2.5,2.5,0,0,0,1.5-.9,3.3,3.3,0,0,0,1.3-2.1l.4-.2a1.6,1.6,0,0,1,.9.4l.6.6a8.4,8.4,0,0,1-.2,1c-.2.5-.5,1.1-.8,2S17.1,114.4,16.9,115Z"/><path class="cls-1" d="M25.1,106.5a.5.5,0,0,1,.5-.3c.2,0,.5.2.8.6a1.9,1.9,0,0,1,.5,1c0,.2-.3.9-.7,2.2l-1.1,3.3a.7.7,0,0,1-.7.6l-.5-.2a1.4,1.4,0,0,1-.2-.7,10.5,10.5,0,0,1,.2-1.3c-1.1,1.5-1.9,2.2-2.5,2.2a1.7,1.7,0,0,1-1.1-.6,1.5,1.5,0,0,1-.7-1.2,12.4,12.4,0,0,1,.8-3.7c.5-1.5,1.1-2.2,1.5-2.2a.9.9,0,0,1,.8.4,1.2,1.2,0,0,1,.4.8l-.4,1a10,10,0,0,0-1.2,3.5h.1c.2,0,.4-.2.9-.7l1.4-2.1A11.1,11.1,0,0,0,25.1,106.5Z"/><path class="cls-1" d="M32.8,110.3a3.6,3.6,0,0,1-2,.6l-1.7-.2a3.1,3.1,0,0,0-.2.8.8.8,0,0,0,.2.6c0,.1.3.2.6.2l2-.2.8-.2c.4,0,.6.1.6.4s-.3.7-1,1.1a5.1,5.1,0,0,1-2.2.5,2.8,2.8,0,0,1-2-.8,2.6,2.6,0,0,1-.8-1.9,4.6,4.6,0,0,1,.6-2.2,8.3,8.3,0,0,1,1.6-2,2.8,2.8,0,0,1,1.9-.8,2.3,2.3,0,0,1,1.8.9,2.5,2.5,0,0,1,.8,1.9C33.8,109.5,33.5,109.9,32.8,110.3Zm-1-2a.9.9,0,0,0-.6-.3c-.2,0-.4.1-.7.4l-.9,1H30c1.4,0,2.1-.2,2.1-.7S32,108.5,31.8,108.3Z"/><path class="cls-1" d="M45,106.2c.4,0,.7.2,1.1.7a1.7,1.7,0,0,1,.6,1.2c0,.2-.1.3-.4.3h-.5l-.7-.2-1,.3c-.5.1-.7.4-.7.6s.1.3.4.4l.9.6.9.9A2.1,2.1,0,0,1,46,112a1.7,1.7,0,0,1-.9,1.3,3.8,3.8,0,0,1-2.2.6,3.2,3.2,0,0,1-2-.6c-.6-.3-.9-.7-.9-1.1s.1-.6.5-.6l.4.2a3.8,3.8,0,0,0,1.9.4c.7,0,1.1-.1,1.1-.3s-.1-.4-.4-.7l-.9-.6-1-.8a1.2,1.2,0,0,1-.4-.9q0-.7,1.5-1.8A4.8,4.8,0,0,1,45,106.2Z"/><path class="cls-1" d="M52.9,110.3a3.6,3.6,0,0,1-2,.6l-1.7-.2a3.1,3.1,0,0,0-.2.8.8.8,0,0,0,.2.6c0,.1.3.2.6.2l2-.2.8-.2c.4,0,.6.1.6.4s-.3.7-1,1.1a5.1,5.1,0,0,1-2.2.5,2.8,2.8,0,0,1-2-.8,2.6,2.6,0,0,1-.8-1.9,4.6,4.6,0,0,1,.6-2.2,8.3,8.3,0,0,1,1.6-2,2.8,2.8,0,0,1,1.9-.8,2.3,2.3,0,0,1,1.8.9,2.5,2.5,0,0,1,.8,1.9C53.9,109.5,53.6,109.9,52.9,110.3Zm-1-2a.8.8,0,0,0-1.3.1l-.9,1h.4c1.4,0,2.1-.2,2.1-.7S52.1,108.5,51.9,108.3Z"/><path class="cls-1" d="M62.2,102.6c0-.4.1-.6.5-.6s.5.2.9.6a2.8,2.8,0,0,1,.5,1.2,3.4,3.4,0,0,1-.2,1.3,6.2,6.2,0,0,1-.4,1.6,18.9,18.9,0,0,1-.6,2.1,17.1,17.1,0,0,1-.5,1.8,13.6,13.6,0,0,1,2-3.2c.8-.8,1.4-1.2,1.9-1.2s.6.2,1,.8a2.4,2.4,0,0,1,.6,1.5c0,.4-.1,1-.2,1.8a8.5,8.5,0,0,1-.9,2.4q-.6,1.2-1.2,1.2c-.3,0-.5-.2-.5-.7a8.6,8.6,0,0,1,.3-1.7,9.6,9.6,0,0,0,.4-2.1c0-.2,0-.3-.1-.3s-1.4.9-2.5,2.9a10.4,10.4,0,0,1-1,1.4,1,1,0,0,1-.7.5c-.2,0-.5-.2-.8-.6a1,1,0,0,1-.5-.8,3.4,3.4,0,0,1,.1-.9c.1-.4.2-1,.4-1.7s.5-2.1.9-4.1S62.2,102.8,62.2,102.6Z"/><path class="cls-1" d="M75.1,109.6c.2.2.3.3.3.5s-.1.4-.2.8a5.1,5.1,0,0,0-.2.9,1.5,1.5,0,0,0-.1.6.4.4,0,0,0-.1.3v.3a.3.3,0,0,0-.1.2c0,.1,0,.2-.1.2v.4h-.3a.7.7,0,0,1-.6-.4,3,3,0,0,1-.4-1,4.4,4.4,0,0,1-2.4,1.4,2.5,2.5,0,0,1-2.1-2.1,5.7,5.7,0,0,1,.6-2.1,8,8,0,0,1,1.8-2.4,2.9,2.9,0,0,1,2.2-1.1,2.1,2.1,0,0,1,1.4.7c.6.5.9.9.9,1.3A3,3,0,0,1,75.1,109.6ZM70.8,112a3.1,3.1,0,0,0,1.5-.8,3.3,3.3,0,0,0,1.3-2.1l.2-.2c0-.5-.1-.8-.2-.8a2.1,2.1,0,0,0-1.4.7,8.8,8.8,0,0,0-1.2,1.7,3.6,3.6,0,0,0-.5,1.3c0,.1,0,.2.1.2Z"/><path class="cls-1" d="M76.4,111.5a5.6,5.6,0,0,1,.6-2.3,9.1,9.1,0,0,1,1.8-2.1,3.2,3.2,0,0,1,2.1-.9,1.6,1.6,0,0,1,1.1.7,2.1,2.1,0,0,1,.5,1.2c0,.2-.1.4-.3.4l-.5-.2-.7-.2q-.3,0-.9.6a5.3,5.3,0,0,0-1.1,1.4,2.8,2.8,0,0,0-.5,1.2.8.8,0,0,0,.2.6h2.1l.8-.3H82c.3,0,.5.1.5.4s-.4.9-1.2,1.3a4.1,4.1,0,0,1-2.3.7,3.2,3.2,0,0,1-1.7-.8A2.4,2.4,0,0,1,76.4,111.5Z"/><path class="cls-1" d="M89.4,110.3a3.6,3.6,0,0,1-2,.6l-1.7-.2a3.1,3.1,0,0,0-.2.8.8.8,0,0,0,.2.6l.6.2,2-.2.8-.2c.4,0,.6.1.6.4s-.3.7-.9,1.1a5.6,5.6,0,0,1-2.3.5,2.8,2.8,0,0,1-2-.8,2.6,2.6,0,0,1-.8-1.9,3.8,3.8,0,0,1,.7-2.2,5.3,5.3,0,0,1,1.6-2,2.5,2.5,0,0,1,1.9-.8,2.2,2.2,0,0,1,1.7.9,2.5,2.5,0,0,1,.8,1.9C90.4,109.5,90.1,109.9,89.4,110.3Zm-1-2a.9.9,0,0,0-.6-.3c-.2,0-.4.1-.7.4a3.9,3.9,0,0,0-.8,1h.3c1.4,0,2.1-.2,2.1-.7S88.6,108.5,88.4,108.3Z"/><path class="cls-1" d="M97.6,108.7V107c0-.6.1-.8.5-.8a.7.7,0,0,1,.6.2c.2.1.3.4.4.7l1.1-.7,1.1-.3c.7,0,1.1.2,1.1.5s0,.3-.1.4a.3.3,0,0,0-.1.2c-.1,0-.1.1-.2.2h-.2l-.5.3a5.8,5.8,0,0,0-1.2,1,5.4,5.4,0,0,0-.7,1.7,12.3,12.3,0,0,1-.8,2.5c-.2.6-.5.9-.8.9a.8.8,0,0,1-.7-.5,1.3,1.3,0,0,1-.3-.8,3.5,3.5,0,0,1,.3-1.2,4.3,4.3,0,0,0,.4-1.4A5.3,5.3,0,0,0,97.6,108.7Z"/><path class="cls-1" d="M108,110.3a4.2,4.2,0,0,1-2.1.6l-1.7-.2a2.5,2.5,0,0,0-.1.8c0,.3,0,.5.1.6a1,1,0,0,0,.7.2l1.9-.2.8-.2c.4,0,.7.1.7.4s-.4.7-1,1.1a5.6,5.6,0,0,1-2.3.5,2.8,2.8,0,0,1-2-.8,2.5,2.5,0,0,1-.7-1.9,4.6,4.6,0,0,1,.6-2.2,5.3,5.3,0,0,1,1.6-2,2.6,2.6,0,0,1,1.9-.8,2.6,2.6,0,0,1,1.8.9,2.9,2.9,0,0,1,.8,1.9C109,109.5,108.6,109.9,108,110.3Zm-1.1-2a.9.9,0,0,0-.6-.3c-.2,0-.4.1-.7.4a3.9,3.9,0,0,0-.8,1h.4c1.3,0,2-.2,2-.7S107.1,108.5,106.9,108.3Z"/><path class="cls-1" d="M115.9,109.6c.2.2.3.3.3.5a1.7,1.7,0,0,1-.2.8,5.1,5.1,0,0,0-.2.9c0,.3-.1.4-.1.6a.4.4,0,0,1-.1.3v.9c0,.1-.1.1-.1.2H115c-.2,0-.3-.1-.5-.4a3.1,3.1,0,0,1-.5-1,3.8,3.8,0,0,1-2.4,1.4,2.5,2.5,0,0,1-2.1-2.1,5.7,5.7,0,0,1,.6-2.1,13.7,13.7,0,0,1,1.8-2.4,2.9,2.9,0,0,1,2.2-1.1,2.5,2.5,0,0,1,1.5.7c.5.5.8.9.8,1.3A3,3,0,0,1,115.9,109.6Zm-4.3,2.4a3.3,3.3,0,0,0,1.6-.8,3.2,3.2,0,0,0,1.2-2.1c0-.1.1-.2.3-.2s-.2-.8-.3-.8a2.1,2.1,0,0,0-1.4.7,8.8,8.8,0,0,0-1.2,1.7,3,3,0,0,0-.4,1.3v.2Z"/><path class="cls-1" d="M120.3,102.6a2.7,2.7,0,0,1,.5,1.3,19.7,19.7,0,0,1-.1,2.1c-.2,1-.3,1.9-.4,2.5q-1.2,5.4-1.8,5.4a1.5,1.5,0,0,1-.8-.5,2.1,2.1,0,0,1-.5-.9,9.3,9.3,0,0,0,.4-1.6,39.1,39.1,0,0,0,.9-3.9,37.3,37.3,0,0,0,.4-4.6c0-.3.1-.4.4-.4S119.9,102.2,120.3,102.6Z"/><path class="cls-1" d="M122.9,106.2a1,1,0,0,1,.9.6,1.8,1.8,0,0,1,.5,1.1,12.5,12.5,0,0,1-.6,2.1,31.8,31.8,0,0,1-1,3.3.7.7,0,0,1-.7.6.9.9,0,0,1-.6-.3c-.2-.1-.2-.3-.2-.6a15.7,15.7,0,0,1,.3-2,16.8,16.8,0,0,0,.6-2.7l.4-1.6C122.6,106.3,122.7,106.2,122.9,106.2Zm-.2-1.9a1.3,1.3,0,0,1,.3-.8c.3-.3.5-.4.7-.4s.5.2.8.8a2.8,2.8,0,0,1,.5,1.2.8.8,0,0,1-.2.5.6.6,0,0,1-.5.2,1.4,1.4,0,0,1-1-.6A1.4,1.4,0,0,1,122.7,104.3Z"/><path class="cls-1" d="M131.5,102c.3,0,.6.2,1,.6a1.9,1.9,0,0,1,.5,1.2,11.7,11.7,0,0,1-.5,2.4c-.3,1.4-.5,2.2-.6,2.5-.8,3.5-1.4,5.2-1.8,5.2s-.4-.1-.7-.4a1.3,1.3,0,0,1-.4-.7h.1a4.8,4.8,0,0,1-2.2,1.2,1.7,1.7,0,0,1-1.3-.7,2.2,2.2,0,0,1-.6-1.3,6,6,0,0,1,.2-1.2,8.8,8.8,0,0,1,.5-1.5l.7-1.5a5.7,5.7,0,0,1,1.1-1.1,1.9,1.9,0,0,1,1.2-.4,1.8,1.8,0,0,1,1.6.9,29.6,29.6,0,0,0,.8-4.7C131.1,102.1,131.2,102,131.5,102Zm-4.4,10a3.3,3.3,0,0,0,1.3-.6,4.3,4.3,0,0,0,1.3-1.7v-.5a1.3,1.3,0,0,0-.3-.8c-.2-.2-.3-.3-.5-.3a1.2,1.2,0,0,0-.9.4,13.4,13.4,0,0,0-.6,1.2,7.6,7.6,0,0,0-.5,2.1v.2Z"/><path class="cls-1" d="M139.6,109.6a.6.6,0,0,1,.2.5,3.2,3.2,0,0,1-.1.8,9.2,9.2,0,0,0-.3.9c0,.3-.1.4-.1.6v.3c0,.1-.1.1-.1.3v.2a.3.3,0,0,0-.1.2v.2c0,.1,0,.1-.1.2s-.1.1-.3.1-.3-.1-.5-.4a3.1,3.1,0,0,1-.5-1,3.9,3.9,0,0,1-2.3,1.4,1.9,1.9,0,0,1-1.4-.7,2.3,2.3,0,0,1-.8-1.4,4.6,4.6,0,0,1,.7-2.1,9.6,9.6,0,0,1,1.7-2.4,3.1,3.1,0,0,1,2.2-1.1,2.3,2.3,0,0,1,1.5.7c.5.5.8.9.8,1.3A2.7,2.7,0,0,1,139.6,109.6Zm-4.4,2.4a3.3,3.3,0,0,0,1.6-.8,2.8,2.8,0,0,0,1.2-2.1c.1-.1.1-.2.3-.2s-.1-.8-.3-.8a1.9,1.9,0,0,0-1.3.7,8.8,8.8,0,0,0-1.2,1.7,2.4,2.4,0,0,0-.5,1.3v.2Z"/><path class="cls-1" d="M147.3,102q.3,0,.9.6a2.2,2.2,0,0,1,.6,1.2c0,.2-.2,1-.5,2.4l-.7,2.5c-.8,3.5-1.4,5.2-1.7,5.2a1.5,1.5,0,0,1-1.1-1.1h0a4.3,4.3,0,0,1-2.2,1.2,1.5,1.5,0,0,1-1.2-.7,2.2,2.2,0,0,1-.6-1.3,5.3,5.3,0,0,1,.1-1.2,8.8,8.8,0,0,1,.5-1.5,10.9,10.9,0,0,1,.8-1.5,5.2,5.2,0,0,1,1-1.1,2,2,0,0,1,1.3-.4,1.8,1.8,0,0,1,1.5.9,21,21,0,0,0,.8-4.7C146.8,102.1,147,102,147.3,102Zm-4.5,10a2.8,2.8,0,0,0,1.3-.6,4.3,4.3,0,0,0,1.3-1.7v-.5a1.3,1.3,0,0,0-.3-.8.5.5,0,0,0-.5-.3,1,1,0,0,0-.8.4,4.7,4.7,0,0,0-.7,1.2,7.6,7.6,0,0,0-.5,2.1c0,.1,0,.1.1.2Z"/><path class="cls-1" d="M160.4,110.3a3.6,3.6,0,0,1-2,.6l-1.7-.2a3.1,3.1,0,0,0-.2.8.8.8,0,0,0,.2.6c0,.1.3.2.6.2l2-.2.8-.2c.4,0,.6.1.6.4s-.3.7-1,1.1a5.1,5.1,0,0,1-2.2.5,2.8,2.8,0,0,1-2-.8,2.6,2.6,0,0,1-.8-1.9,4.6,4.6,0,0,1,.6-2.2,8.3,8.3,0,0,1,1.6-2,2.9,2.9,0,0,1,2-.8,2.2,2.2,0,0,1,1.7.9,2.5,2.5,0,0,1,.8,1.9C161.4,109.5,161.1,109.9,160.4,110.3Zm-1-2-.6-.3c-.2,0-.4.1-.7.4l-.9,1h.4c1.4,0,2.1-.2,2.1-.7S159.6,108.5,159.4,108.3Z"/><path class="cls-1" d="M165.1,102.6a2,2,0,0,1,.5,1.3,19.7,19.7,0,0,1-.1,2.1c-.2,1-.3,1.9-.4,2.5q-1.2,5.4-1.8,5.4c-.2,0-.4-.2-.8-.5a2.1,2.1,0,0,1-.5-.9,9.3,9.3,0,0,0,.4-1.6,39.1,39.1,0,0,0,.9-3.9,37.3,37.3,0,0,0,.4-4.6c0-.3.1-.4.4-.4S164.7,102.2,165.1,102.6Z"/><path class="cls-1" d="M12,129.5a4.6,4.6,0,0,1,.7-2.3,6.8,6.8,0,0,1,1.7-2.1,3.2,3.2,0,0,1,2.1-.9c.4,0,.7.2,1.1.7a1.7,1.7,0,0,1,.6,1.2.4.4,0,0,1-.4.4l-.5-.2-.6-.2c-.3,0-.6.2-1,.6a8.5,8.5,0,0,0-1.1,1.4,2.4,2.4,0,0,0-.4,1.2c0,.3,0,.5.1.6h2.1l.8-.3h.5c.3,0,.4.1.4.4s-.4.9-1.2,1.3a3.9,3.9,0,0,1-2.3.7,2.7,2.7,0,0,1-1.6-.8A2.2,2.2,0,0,1,12,129.5Z"/><path class="cls-1" d="M20.4,125.8c.8-1.1,1.6-1.7,2.4-1.7a2.5,2.5,0,0,1,1.9.9,2.6,2.6,0,0,1,.8,1.9,5.3,5.3,0,0,1-.6,2.3,4.7,4.7,0,0,1-1.5,1.9,3.4,3.4,0,0,1-2.1.8,1.7,1.7,0,0,1-1.4-.7,2.8,2.8,0,0,1-.6-1.8A6.6,6.6,0,0,1,20.4,125.8Zm2.5,3.1a4.1,4.1,0,0,0,.6-2,2.4,2.4,0,0,0-.3-1.4,5.8,5.8,0,0,0-1.3,1.6,4.8,4.8,0,0,0-.6,2.1,2.9,2.9,0,0,0,.2,1.2A4.1,4.1,0,0,0,22.9,128.9Z"/><path class="cls-1" d="M27.3,125.8c.8-1.1,1.5-1.7,2.3-1.7a2.5,2.5,0,0,1,1.9.9,2.6,2.6,0,0,1,.8,1.9,6.8,6.8,0,0,1-.5,2.3,4.9,4.9,0,0,1-1.6,1.9,3.2,3.2,0,0,1-2,.8,1.8,1.8,0,0,1-1.5-.7,2.8,2.8,0,0,1-.6-1.8A6,6,0,0,1,27.3,125.8Zm2.4,3.1a4.1,4.1,0,0,0,.4-3.4,3.6,3.6,0,0,0-1.3,1.6,4,4,0,0,0-.7,2.1,2.9,2.9,0,0,0,.2,1.2A3.4,3.4,0,0,0,29.7,128.9Z"/><path class="cls-1" d="M38.5,124.2c.4,0,.8.3,1.2,1a3.5,3.5,0,0,1,.6,1.9,3.7,3.7,0,0,1-.5,1.5,8.7,8.7,0,0,1-1.3,1.5,8.3,8.3,0,0,1-1.8,1.3,4.5,4.5,0,0,1-1.9.5h-.2c-.6,2.6-1,3.9-1.3,3.9s-.4-.2-.7-.5a2.3,2.3,0,0,1-.3-.9,12.3,12.3,0,0,1,.4-2.1,34,34,0,0,0,1.3-7.9c0-.3.1-.5.4-.5a1.8,1.8,0,0,1,.9.4,1.4,1.4,0,0,1,.7,1.1A3.9,3.9,0,0,1,38.5,124.2Zm-1.2,4.6a2.8,2.8,0,0,0,1-1.8c0-.6-.1-.8-.4-.8a1.7,1.7,0,0,0-1.3.7,3.5,3.5,0,0,0-.6.9,5.4,5.4,0,0,0-.7,1.3l-.2,1A4.6,4.6,0,0,0,37.3,128.8Z"/><path class="cls-1" d="M46.8,128.3a3.6,3.6,0,0,1-2,.6l-1.7-.2a3.1,3.1,0,0,0-.2.8.7.7,0,0,0,.8.8l2-.2.8-.2c.4,0,.6.1.6.4s-.3.7-1,1.1a4.8,4.8,0,0,1-2.2.5,2.8,2.8,0,0,1-2-.8,2.6,2.6,0,0,1-.8-1.9,4.6,4.6,0,0,1,.6-2.2,8.3,8.3,0,0,1,1.6-2,2.9,2.9,0,0,1,2-.8,2.2,2.2,0,0,1,1.7.9,2.5,2.5,0,0,1,.8,1.9C47.8,127.5,47.5,127.9,46.8,128.3Zm-1-2a.9.9,0,0,0-.6-.3c-.2,0-.4.1-.7.4l-.9,1H44c1.4,0,2.1-.2,2.1-.7S46,126.5,45.8,126.3Z"/><path class="cls-1" d="M49.3,126.7V125c0-.6.1-.8.5-.8a.7.7,0,0,1,.6.2c.2.1.3.4.4.7l1.1-.7,1.1-.3c.7,0,1.1.2,1.1.5s0,.3-.1.4a.3.3,0,0,0-.1.2l-.2.2h-.2l-.5.3a5.8,5.8,0,0,0-1.2,1,5.4,5.4,0,0,0-.7,1.7,8.1,8.1,0,0,1-.8,2.5c-.2.6-.5.9-.8.9a.8.8,0,0,1-.7-.5,1.3,1.3,0,0,1-.3-.8,3.5,3.5,0,0,1,.3-1.2,4.3,4.3,0,0,0,.4-1.4A5.1,5.1,0,0,0,49.3,126.7Z"/><path class="cls-1" d="M60.2,127.6c.2.2.3.3.3.5l-.2.8a5.1,5.1,0,0,0-.2.9,1.5,1.5,0,0,0-.1.6v1.2c0,.1-.1.1-.1.2h-.3c-.2,0-.3-.1-.5-.4a3.1,3.1,0,0,1-.5-1,3.8,3.8,0,0,1-2.4,1.4,2.5,2.5,0,0,1-2.1-2.1,5.7,5.7,0,0,1,.6-2.1,10.1,10.1,0,0,1,1.8-2.4,2.9,2.9,0,0,1,2.2-1.1,2.5,2.5,0,0,1,1.5.7c.5.5.8.9.8,1.3A3,3,0,0,1,60.2,127.6ZM55.9,130a3.3,3.3,0,0,0,1.6-.8,3.7,3.7,0,0,0,1.2-2.1c0-.1.1-.2.3-.2s-.2-.8-.3-.8a2.1,2.1,0,0,0-1.4.7,8.8,8.8,0,0,0-1.2,1.7,3.6,3.6,0,0,0-.5,1.3v.2Z"/><path class="cls-1" d="M65,127.1c-.1.5-.3,1.1-.5,1.8a4.8,4.8,0,0,0-.4,1.2h.3l1.2-.3,1.1-.3c.2,0,.3.1.3.5s-.3.7-1,1.2a3.1,3.1,0,0,1-2.1.7,2.1,2.1,0,0,1-1.1-.5c-.5-.4-.7-.7-.7-1.1a10.6,10.6,0,0,1,.5-1.9l.6-2-.9.2a.7.7,0,0,1-.6-.4,1.6,1.6,0,0,1-.3-.8c0-.3.7-.6,2.3-.8a12,12,0,0,0,.3-2.4c0-.3.1-.5.4-.5a1.9,1.9,0,0,1,1,.5,1.2,1.2,0,0,1,.6.9,3.4,3.4,0,0,1-.2,1.3h1.1c.8,0,1.1.1,1.1.5s-.2.4-.6.5a6.4,6.4,0,0,1-2,.5Z"/><path class="cls-1" d="M70,124.2a1.2,1.2,0,0,1,.9.6,1.7,1.7,0,0,1,.4,1.1c0,.2-.2.9-.5,2.1s-.7,2.3-1,3.3a.8.8,0,0,1-.8.6.5.5,0,0,1-.5-.3.6.6,0,0,1-.3-.6,9.2,9.2,0,0,1,.4-2c.3-1,.4-1.9.6-2.7a4.6,4.6,0,0,1,.4-1.6C69.7,124.3,69.8,124.2,70,124.2Zm-.3-1.9c0-.3.2-.5.4-.8a.9.9,0,0,1,.7-.4c.2,0,.5.2.8.8a2.8,2.8,0,0,1,.5,1.2.5.5,0,0,1-.3.5c-.1.2-.3.2-.5.2s-.6-.2-1-.6A1.4,1.4,0,0,1,69.7,122.3Z"/><path class="cls-1" d="M77.4,124.2l.8.2a.9.9,0,0,1,.3.6,7.1,7.1,0,0,1-.8,2.5,29.6,29.6,0,0,1-1.7,3.2q-.7,1.2-1.2,1.2l-.6-.3-.6-.6a28.7,28.7,0,0,1-.8-3.2,14.2,14.2,0,0,1-.5-3c0-.4.1-.6.4-.6a1.4,1.4,0,0,1,1,.4,2.1,2.1,0,0,1,1,1.8,5.3,5.3,0,0,1,.1,1.3c0,.6.1,1,.1,1.4a9.6,9.6,0,0,0,.9-2l.9-2.2C77,124.4,77.2,124.2,77.4,124.2Z"/><path class="cls-1" d="M80.2,124.2a1.1,1.1,0,0,1,.9.6,1.7,1.7,0,0,1,.4,1.1A8.5,8.5,0,0,1,81,128c-.3,1.1-.7,2.3-1,3.3a.7.7,0,0,1-.7.6.7.7,0,0,1-.6-.3.6.6,0,0,1-.3-.6c0-.3.2-.9.4-2a16.8,16.8,0,0,0,.6-2.7,9.1,9.1,0,0,1,.4-1.6C79.9,124.3,80,124.2,80.2,124.2Zm-.2-1.9a1.3,1.3,0,0,1,.3-.8c.3-.3.5-.4.7-.4s.5.2.8.8a2.8,2.8,0,0,1,.5,1.2.5.5,0,0,1-.3.5c-.1.2-.3.2-.5.2a1.8,1.8,0,0,1-1-.6A1.6,1.6,0,0,1,80,122.3Z"/><path class="cls-1" d="M87.2,124.2c.4,0,.7.2,1.1.7a1.7,1.7,0,0,1,.6,1.2.3.3,0,0,1-.3.3H88l-.7-.2-1,.3c-.5.1-.7.4-.7.6s.1.3.4.4l.9.6a3.8,3.8,0,0,1,.9.9,1.5,1.5,0,0,1,.4,1.1,1.7,1.7,0,0,1-.9,1.3,3.7,3.7,0,0,1-2.1.6,3.3,3.3,0,0,1-2.1-.6c-.6-.3-.9-.7-.9-1.1s.2-.6.5-.6l.4.2a3.8,3.8,0,0,0,1.9.4c.8,0,1.1-.1,1.1-.3s-.1-.4-.4-.7l-.9-.6-1-.8a1.8,1.8,0,0,1-.4-.9q0-.7,1.5-1.8A4.8,4.8,0,0,1,87.2,124.2Z"/><path class="cls-1" d="M99.5,124.2c.4,0,.7.2,1,.7a4.8,4.8,0,0,1,.4,1.5,9.9,9.9,0,0,1-.3,1.9,7.5,7.5,0,0,1-.8,2.4c-.3.8-.7,1.2-1.1,1.2s-.5-.2-.5-.7a8.5,8.5,0,0,1,.4-2.2c.2-1,.4-1.7.4-2s-.1-.5-.2-.5-.4.3-.7.7-.7,1.1-1.1,1.9a8.5,8.5,0,0,0-.7,1.5l-.3.5-.2.4c-.3.5-.7.5-1.3,0s-.4-.5-.4-.8l.3-1.1a18.1,18.1,0,0,0,.2-2.5c0-.4,0-.6-.1-.6l-.4.4c-.2.2-.4.7-.8,1.3l-.8,1.6c-.9,1.4-1.5,2.1-1.9,2.1s-.5-.2-.9-.6a1.2,1.2,0,0,1-.4-.8,7,7,0,0,1,.3-1.4,9.3,9.3,0,0,0,.4-2.4,19.1,19.1,0,0,0,.2-2c.1-.4.2-.7.4-.7a2.1,2.1,0,0,1,1.1.5,1.4,1.4,0,0,1,.5.9,14.3,14.3,0,0,1-.6,3.1,14.8,14.8,0,0,1,1.7-3.4,2,2,0,0,1,1.5-.9c.3,0,.6.2,1,.7a2.7,2.7,0,0,1,.5,1.3v1.1a6,6,0,0,1,1.4-2.1A2.8,2.8,0,0,1,99.5,124.2Z"/><path class="cls-1" d="M102.8,125.8c.8-1.1,1.5-1.7,2.3-1.7a2.5,2.5,0,0,1,1.9.9,2.6,2.6,0,0,1,.8,1.9,5.3,5.3,0,0,1-.6,2.3,4,4,0,0,1-1.5,1.9,3.2,3.2,0,0,1-2.1.8,1.7,1.7,0,0,1-1.4-.7,2.8,2.8,0,0,1-.6-1.8A6,6,0,0,1,102.8,125.8Zm2.4,3.1a4.1,4.1,0,0,0,.6-2,2.4,2.4,0,0,0-.3-1.4,4.4,4.4,0,0,0-1.2,1.6,4,4,0,0,0-.7,2.1,2.9,2.9,0,0,0,.2,1.2A4.1,4.1,0,0,0,105.2,128.9Z"/><path class="cls-1" d="M110.3,132.2a1.7,1.7,0,0,1-1.1-.6,2.3,2.3,0,0,1-.5-1,1.6,1.6,0,0,1,.3-.9,1,1,0,0,1,.8-.4c.2,0,.5.3.8.8a2.4,2.4,0,0,1,.5,1.3l-.2.5Z"/><path class="cls-1" d="M230.7,144.5c.4.1.2-.4.3-.4S230.7,144.6,230.7,144.5Z"/><polygon class="cls-1" points="225.1 145.5 225.2 145.3 224.4 145.7 225.1 145.5"/><path class="cls-1" d="M219.8,145.5c.5.7,1.9-.1,2.9.1v.2l.5-.6A15.5,15.5,0,0,1,219.8,145.5Z"/><path class="cls-1" d="M217,143.9c.2.3-.6.3.7.1H217Z"/><path class="cls-1" d="M217.6,143.9c.5,0-.4-.2,0,0Z"/><path class="cls-1" d="M215,144.1l.7-.2c-.1-.2-.8-.2-.5-.4S214.6,143.8,215,144.1Z"/><path class="cls-1" d="M214.3,144.6h.4C214.6,144.5,214.5,144.4,214.3,144.6Z"/><path class="cls-1" d="M215.5,144.3l-.8.2c.1.1.1.4.4-.1S215.2,144.4,215.5,144.3Z"/><path class="cls-1" d="M215.9,144.4c.5.2,1,.3.3.5C217.6,144.8,217.3,144.3,215.9,144.4Z"/><path class="cls-1" d="M219.6,146.2l.5.2.5-.2C220.4,146.3,219.5,146,219.6,146.2Z"/><path class="cls-1" d="M210.5,143.7c-.1.2.2.4.3.6h.5C211,144.1,210.5,144,210.5,143.7Z"/><path class="cls-1" d="M210.8,144.3l-.9.3C210.7,144.6,210.8,144.5,210.8,144.3Z"/><polygon class="cls-1" points="214.2 145.4 215.5 144.9 213.9 145.4 214.2 145.4"/><polygon class="cls-1" points="207.4 143.7 207.8 143.4 207 143.9 207.4 143.7"/><path class="cls-1" d="M205.3,143.8c.4-.3-.4-.5-.1-.7l-1.4.5A2.1,2.1,0,0,1,205.3,143.8Z"/><path class="cls-1" d="M203,144l.8-.4Z"/><path class="cls-1" d="M208.6,144.5a1,1,0,0,0-.7-.4l.4.4Z"/><path class="cls-1" d="M208.3,144.5Z"/><path class="cls-1" d="M208.7,144.5h0Z"/><path class="cls-1" d="M212.1,145c-.5.3-1.5.5-.5.9S211.4,145.4,212.1,145Z"/><path class="cls-1" d="M209,145.1h.9c0-.2-.2-.3.1-.4Z"/><polygon class="cls-1" points="208.6 145.2 209 145.1 208.7 145 208.6 145.2"/><path class="cls-1" d="M204.5,144.4l-1.2.2h1.5C204.8,144.6,205,144.3,204.5,144.4Z"/><path class="cls-1" d="M206.3,144.5Z"/><path class="cls-1" d="M198.8,144.6h0Z"/><path class="cls-1" d="M204.8,144.8a.7.7,0,0,0,.8-.2h-.8C204.7,144.8,204.7,144.8,204.8,144.8Z"/><path class="cls-1" d="M201.8,144.2l.6.2C202.2,144.3,201.9,144,201.8,144.2Z"/><path class="cls-1" d="M206.1,144.4h0Z"/><path class="cls-1" d="M206.1,144.4l-.5.2h.5Z"/><path class="cls-1" d="M197.4,147.3c.1-.4,1-.7,1.9-.3s.3-1.6-.4-2.3-.1.3-.9.5,1.9.5,1.1.9-.9-.1-1.4-.4-1.4.8-1.2,1.5l1-.3C197.5,147,197.1,147.2,197.4,147.3Z"/><path class="cls-1" d="M200.5,144.7h.3l-1.2-.6c-.6.2-.7.4-.7.5h1.6Z"/><path class="cls-1" d="M202.4,144.7c-.3.4-1.1.6-.6,1s.7-.3,1.3-.5c-1.6.1.5-.3-.7-.5h.9l-.9-.2h.1c0,.1.1.1,0,.1h0c-.1,0-.1.1-.1.2s-.1-.2.1-.2h0l-1.7.3Z"/><path class="cls-1" d="M210.7,146.8a.1.1,0,0,1-.1-.1C210.5,146.8,210.5,146.8,210.7,146.8Z"/><path class="cls-1" d="M210,146.6a.5.5,0,0,1,.6-.2c.3.1,0,.2,0,.3s.8-.3.1-.5h-.1c-.7-.2-1.5-.7-1.4-.8A3.8,3.8,0,0,0,210,146.6Z"/><path class="cls-1" d="M206.1,145.7l-1.3.2.7.4v-.2C206.2,146.2,206,145.9,206.1,145.7Z"/><polygon class="cls-1" points="198.6 144.4 198.8 143.9 198 144.6 198.6 144.4"/><polygon class="cls-1" points="196.8 144.4 196.9 144 196.4 144.3 196.8 144.4"/><path class="cls-1" d="M95.8,149.3l-.4.2Z"/><path class="cls-1" d="M98.8,149.4v-.2C98.7,149.3,98.7,149.4,98.8,149.4Z"/><path class="cls-1" d="M152.9,144.5c-.6-.4-1.3-1-1.2-.5l.2.4A1.6,1.6,0,0,1,152.9,144.5Z"/><path class="cls-1" d="M122.8,147.1h.2l.4-.4Z"/><path class="cls-1" d="M122.4,148.9l-.8-.3Z"/><path class="cls-1" d="M79.8,149.8l-.4.4C80.1,150.2,79.8,150,79.8,149.8Z"/><path class="cls-1" d="M178.5,144.6l-1.3-.3C177.8,144.6,178.3,144.9,178.5,144.6Z"/><path class="cls-1" d="M97,144.7c-.2.1-.4.2-.3.3S97.1,144.8,97,144.7Z"/><path class="cls-1" d="M175.8,144.3h1.4A1.4,1.4,0,0,0,175.8,144.3Z"/><path class="cls-1" d="M21.8,149.4h0Z"/><path class="cls-1" d="M4.9,145.1h0Z"/><path class="cls-1" d="M189.6,144.2Z"/><path class="cls-1" d="M191.5,146l-.2.2Z"/><path class="cls-1" d="M172,147h0C172.1,147.1,172,147.1,172,147Z"/><path class="cls-1" d="M190.2,144.4h0Z"/><path class="cls-1" d="M190.1,144.2h.4C190.5,144.2,190.5,144.2,190.1,144.2Z"/><path class="cls-1" d="M189.1,144.3h.6c-.1,0-.1,0-.1-.1Z"/><path class="cls-1" d="M52.9,148.3h-.1C52.4,148.4,52.6,148.4,52.9,148.3Z"/><path class="cls-1" d="M143,149Z"/><path class="cls-1" d="M141.6,149.3a1.4,1.4,0,0,1,1.4-.4l-.5-1.2Z"/><path class="cls-1" d="M88.8,149.5l1,.4c-1.2.6-2,.4-1.1.9.1-1.3,3.7-.1,3.8-1.5l.7.3h-.4c1.2.6.9-1,2.5-.8s.9.3.5.4l1.3-.3c.3,0,.2.3-.1.2h1.8l1.2-.7c.5.2-.2.1-.1.3l1-.3c.5.3-.4.7-1.1.6.9,1.4.8-.3,2.9.5h-.9c.6.8,1.3.5,2.5,1s-2.3-1.2-1.1-1.5a1.7,1.7,0,0,0,1.3-.2c0,.5.6.4,1.3.4v.6c.8-.2.7-.5,1.2-.8a1.4,1.4,0,0,1,1.3,1c1.4.1-1-.8.7-.9a7.4,7.4,0,0,0,3.5-.4c.8.2-.2.4.1.6l.7-.6c.2.1.2.2.1.3s.1-.6,1.1-.8,2,1,3.2.2-.2.4-.1.6a9.1,9.1,0,0,0,2.8-1l1.2.4c-.9-.5.2-1.1,1.2-1.5l-.8-.6,1.6-.3c.2.1,0,.3-.2.6l.2-.2c.6.3.3.6-.1,1l-.5-.4c-.4.4-.8.8-.7,1.2l.5-.2c-.1.1-.2.2-.1.3l.4-.3.4.8v-.3l2,.4c1.4-.7,2.6-1.8,4.9-2.1-.6.6-.1.9-.1,1.5s-1.8.3-3,.2c.6,0,.5.3.3.4l2.1-.6c0,.5.5.4,1,.6s1.6-.6,2.4-.9-.1.6-1.1.6c1.1.7,1.4-1.2,2.6-.6h-.5c.6-.3,2,0,1.7.3h-.3c1.7.1,5.2,0,5.4-.9a5.3,5.3,0,0,1-.3,1.2l3-2.8c-.3.7.7,2.4-.7,2.9a2.9,2.9,0,0,0,1.8-.1c-.3-.1-.7-1-.3-1.1s.7.4,2,1.1c-.5-.1,0-1.3.7-1.2s0,1.1-.2,1.2l1.6-1.1c-.4.2-.1.9.3,1.3s1.4,0,1.8-.1l-.7-.3c1.8.2,1.8-1.6,3.6-1.5-.2.2-.5,1.4.4,1.6s1.9-2.8,3.5-3.3l.3.4,1.2-.4a23.2,23.2,0,0,1-4.1,3.4c.7.3.2.4,1.2.4s-.5.4-.8.4l2.4.2c-.2-.6,1.8-.6,1.7-1.2l-2.6.7c-.1-.7,1.5-1.9,3.2-1.8s-.3,1.2-.3,1.4,1.6-.4,1.7-.2l-.7.3c1,.3,1.6-.9,2.7-.2s1.2.8,1.2.4a4.8,4.8,0,0,1-.3-3.7l2.5,1.1c.6.6-1,1.5-.4,2s.3-.4.5-.5-.2.6.7.5,1.8,0,.4-.6c.9-.2.9.1,2,.1s.9-1.5,1.7-1.7a.9.9,0,0,0,.3.5c1.8.1,2.7.4,4.4.4.1.2.9.4.6.7a1.3,1.3,0,0,1,1-.4c1,.6-1.2.1-.4.8s1.3-.6,2-.8-1.7-.1-2.4.1,1.3-1.7,3-2.1.6.6.9.4c2.5.2,2.2-1.4,4.3-.8s.1,1,.2,1.4-1.7-.3-2.4-.3l.9.3a2.6,2.6,0,0,1-1.5.1c.7.5,4.4.1,6.3.6s1-.4.7-.6H189c-.6-.5,1.2-.6.4-.8a4.8,4.8,0,0,1,3-.6l.2.6c0-.2-.8-.3-1.1-.2s1.8.9,2.4.1l-.9-.4a5.2,5.2,0,0,1,3-.8c-.5-.6-.3.1-1-.7.6.9-2.7,0-1.7.9-.7-.8-1.3-.3-2.3-1s.3.4-.5.3l-.2.2h0c.2.1.4.2.4.3s-1.8.4-2.3.7.2-.3-.1-.5l-.7.4c-.1-.5-1.4-.8-.1-1h-1.2a3.8,3.8,0,0,0-2.1-.1c-.5-.1-1.3.5-.9.1l-1.7.3h0c-1.8-.1-3.6.7-5.6-.1a6.2,6.2,0,0,1-2.1.2l-.2-.4c-.8.1-2.3-.4-2.6,0s-3.6-.2-4.9-.4v.5a10.6,10.6,0,0,0-2.9.3v.4c-1,.4-2.5-.3-4-.2.1-.2.5-.2.7-.1-1.8-1-3.8.8-5.5,0a.9.9,0,0,1-1,0h0l-.6-.2.5.2-1.3.2-.2-.5h-.1c-.5-.2-.4.3-.2.6l-.6.3c-.4-.8-1.2.3-1.7-.6s-2.4.3-2.7,1.2-.1-.2.1-.2a2,2,0,0,0-1.5.1l-.2-.6-1.2.8c-.7-.4-1-.6-.3-1.1-1.7.7-1.3.3-2.8,1v-.4c-.5,0-1.3.6-1.6.2s-5.7-.1-8.6-.8c.5,1.2-1.4-.5-1.5.4s-.6-.4-.1-.7c-1.5.3-2.3-.4-3.3.4s.3-.4.2-.6a.9.9,0,0,1-.7.1c-.1-.2.3-.3.5-.4-1.5.1-1.7.9-1.8,1.7a1.2,1.2,0,0,0-1.7.2c-.3-.3-.8-.5.2-.6s-3.3-.4-3.3.2a1.3,1.3,0,0,0-.9.1H116c-.4.8-.9.2-1.9.3h0c-2.1-.5-.9.3-3.1-.3l.2.4c-.2,1.1-1.9-.6-3.2-.2l.5.3c-.7.3-1.9-1.4-2.6-1.5s.2-.2.4-.3c-1.8-.6-.2.7-1.6.8s.4-.8-.5-.9-2.6,1.1-3.9.4c.3.3.6.6,0,.8s-2.6-1-3.5-.2V145c-.8.2-2.4.4-2.8.8-.7-1.7-4.6.8-4.5-.7H87.1V145a3.4,3.4,0,0,0-2.5.6c-.3-.1,0-.2,0-.3a5.7,5.7,0,0,0-4.1.5v-.5c-.5.3-3.1-.7-5.1-.2l.2-.2c-2.3.6-5.5-1.4-6.3.4l-1.6.5c2,.1-.3.8.6,1.1-.8.1-2-.6-1.1-.7h.2c.3-.9-2.5-.3-2.4-1-3.9.1-7.7-.4-11.3-.5l.4.8H52.9c-.4-.2-.5-.6.4-.5s-1.5.3-1.5.5c-1.8-.3.7-.9.1-.9h-.5a2.3,2.3,0,0,1-1.8.5c-.7-.1-.3-.4-.6-.4H47l.6.5c-.7.3-1.5,0-.7.7-1.1-1-6-.4-6.6-.7a8.3,8.3,0,0,1-3.2.4c.3.1.5.7-.6.6.4-1.3-1.9-.5-2.7-1.5.7.6-3,.2-1.8,1.1-.9-.1-.1-.5-.7-.8-2.1.5-4.6-.4-7.1-.2-.1.2.3.4-.2.7l-1.4-.9c-.5.1-.4,1-1.3.4s.3.4-.1.4c-5-.8-10.2.8-15.3-.9.7.4.2.4-.3.4s0,.5.1.7L3.5,145c-.4.7-2.2.1-2.5.7h.7c-.9.7,1.3,1.7,1.1,2.6,1-.8,2.7,1.3,4.3.1s-.3.3-.1.5.9-.5,1.9-.3H8.8c2.6-.1,3.7.3,6.7.6l-.2-.5a2,2,0,0,1,1,.3c.7-.7-1.8,0-1.1-.8.8.9,4.5,0,5,1.1s-.2-.6.7-.6l.3.3.2-.3c.7,0,1,.4,1,.6h-.6c.8.4,2.4-.1,2.6,0h-.9c2.7-.3,5.9.1,8.5-.5l-.2-.3c2-.4,1.6.3,3.7.1h0a3.8,3.8,0,0,1,1.6-.3c-.6.3,1,.5.3.8,2.1-.4,1-.3,2.4-1.1l.4.3a2.1,2.1,0,0,1,1.5-.6c-.8.3.7.6-.3,1,2.3.8,3.4-.8,4.4.4,1.1-1.1-1.9-.6-1.3-.8s.8-.8,1.5-.7,1.3,1.3,3.1,1.3h-.4c.7.2,1.3-.4,2.2,0s1.1.1,1.2-.7l-1.7.2c1-.2,1.9-1.2,3.4-.7-.1.2-.6.4-.9.5s.9-.2,1.4.1-2.1.1-3.1.7c.5.4,1.9-.5,1.4.3.8-1.1,1.8.2,3-.7v.5l.9-.3-.6.6c1-.5,1.9.5,2.9.2-2,0-.5-.6-1.3-.9,2.4-.6,1.4,1.2,4.1,1-.3.1-1.4-.3-.8-.5l1.6.5c1.8-.1-.3-.5.5-.8s.9-.2,1.7-.4v.5c2.1.3.5-1,2.4-.6l-.8.6h1l-.2.5a3.3,3.3,0,0,1,2.4-.1c-.2-.4.2-.9,1.1-.9s-.4.4.9.4c-.3.3-.6.7-1.1.2l-.4.5a5.4,5.4,0,0,0,2.2,0h-.5l1.9-.6c.3.1,0,.3-.2.4s.6-.3,1.2-.3-.1.8-.9,1l1.8-.4c.1.1.9.4.7.6s2.5-.8,3.8-.5l.5-.2c1.2.1,2.3.6,3.8,0l.9.7c1.1-.1-1.2-.8.8-1.1s.5.6.9.8a3.4,3.4,0,0,1,3.2-.5Zm14.3-.3c-.2.1-.8.4-1,.1S102.7,149,103.1,149.2Zm21.8-1.2a1,1,0,0,1-.9-.1A1.4,1.4,0,0,1,124.9,148Zm60.6-3.4h-.1C184.8,144.5,185,144.5,185.5,144.6Zm1.3.2c.1,0,.1-.1,0-.2s-.4.2-.7.1S186.4,144.9,186.8,144.8ZM48.9,145l.2.2C48.5,145.3,48.7,145.2,48.9,145Z"/><path class="cls-1" d="M122.4,148.7a.4.4,0,0,1-.1-.3C122.2,148.5,122.2,148.6,122.4,148.7Z"/><path class="cls-1" d="M79.9,149.7h0a.1.1,0,0,1-.1.1Z"/><path class="cls-1" d="M166.9,148.9a.6.6,0,0,1-.5-.2C166.3,148.8,166.5,148.9,166.9,148.9Z"/><path class="cls-1" d="M193.6,144h-.9l.8.2C193.5,144.2,193.3,144,193.6,144Z"/><path class="cls-1" d="M200.7,147h.4v-.2C200.5,146.7,200.2,146.9,200.7,147Z"/><path class="cls-1" d="M194.3,145.6c.1.4.6.3,1.2.2h-.1C195.5,145.2,194.9,145.4,194.3,145.6Z"/><path class="cls-1" d="M195.6,145.8h.5C196.2,145.6,195.9,145.7,195.6,145.8Z"/><path class="cls-1" d="M188.4,144.6c.3.1.2-.5.3-.4S186.9,144.8,188.4,144.6Z"/><polygon class="cls-1" points="194.8 147 194.6 146.5 194.3 146.9 194.8 147"/><path class="cls-1" d="M190.2,146.6h1c-.1-.1.1-.1.2-.1S190.2,146.4,190.2,146.6Z"/><path class="cls-1" d="M191.4,146.6h0Z"/><polygon class="cls-1" points="193.5 147.1 193.3 147 192.6 147 193.5 147.1"/><path class="cls-1" d="M180.3,146.5h-1c-.1.2.2.3.6.2S180.5,146.7,180.3,146.5Z"/><path class="cls-1" d="M183.4,147.9c-.3-.1-.3-.2-.5-.4v.6Z"/><path class="cls-1" d="M180.4,148c-.1.2-1.4.5-.1.5S181.4,148.2,180.4,148Z"/><polygon class="cls-1" points="165.3 147.2 165.6 147.2 165.5 146.2 165.3 147.2"/><path class="cls-1" d="M152,149.7c1.2.2.2-.7,1.3-.4s-.9-.2-.6-.4S151.6,149,152,149.7Z"/><path class="cls-1" d="M152.7,148.9l.4-.2Z"/><polygon class="cls-1" points="2.1 144.5 1.3 144.3 1.8 144.6 2.1 144.5"/><path class="cls-1" d="M.6,145.3v-.7l-.5.6C.2,145.2.5,145.1.6,145.3Z"/><path class="cls-1" d="M105.3,150.5v-.2c-.1-.2-.3-.2-.6-.2Z"/><polygon class="cls-1" points="94.9 150 95.1 150 94.7 149.4 94.9 150"/><path class="cls-1" d="M86.2,150.7h1.1C86.5,150.7,86.1,150,86.2,150.7Z"/><rect class="cls-2" x="12" y="0.4" width="67" height="74"/><rect class="cls-1" x="24.9" y="12.9" width="3.3" height="54.44"/><path class="cls-1" d="M30.4,42.3V17.1c10.2-5.4,15.8-4.2,19.1-1.7s3.7,5.2,7,6.9c4.8,2.4,10.1.1,14.2-2.6V48.4a19.5,19.5,0,0,1-12,.9c-5.3-1.5-7.2-4.8-12.1-7C43.2,40.8,37.9,39.7,30.4,42.3Z"/></g></svg>