<svg xmlns="http://www.w3.org/2000/svg" viewBox="0 0 166.3 234"><defs><style>.cls-1{opacity:0.25;}.cls-2,.cls-5{fill:#fff;}.cls-3{fill:#b1b9c8;}.cls-4{fill:#522e90;}.cls-5{opacity:0.46;}</style></defs><title>act2_nota3</title><g id="papers"><path class="cls-1" d="M155.2,13.6l10.3-1.1s-4.8,63.1-4.2,123.1c.5,41.7,5,98.4,5,98.4s-39.9-7.7-80.3-9.5-79.9-.3-79.9-.3.1-14.3,2.8-62.7,15-101.9,15-101.9l92.6-22.4Z"/><path class="cls-2" d="M157.7,222.2,0,217.2Q3.3,109.2,13,1.7l151.4,9Q158,116.3,157.7,222.2Z"/><path class="cls-3" d="M96.8,11.8a9.6,9.6,0,1,1-9-10.2A9.6,9.6,0,0,1,96.8,11.8Z"/><path class="cls-4" d="M95.5,10.2A9.6,9.6,0,1,1,86.5,0,9.6,9.6,0,0,1,95.5,10.2Z"/><path class="cls-5" d="M78,10.4A8.6,8.6,0,0,1,94.1,6.7,8.7,8.7,0,0,0,77.3,9.1a8.6,8.6,0,0,0,1.2,4.8A8.1,8.1,0,0,1,78,10.4Z"/><path d="M40.3,31.1l1,.5c.5.4.8.7.8.9a8,8,0,0,0,.3,1.6c.2.7.5,1.4.7,2l1.5-1.8c.6-.9,1.2-1.6,1.6-2.1s.8-.8,1.1-.8.4.2.7.4a1.3,1.3,0,0,1,.3.8,4.1,4.1,0,0,1-.1,1c-.1.4-.1.7-.2,1.1l-.4,1.4c-.2.5-.3,1-.4,1.3l-.3,1.1a2,2,0,0,1-.2.9c0,.3-.1.5-.1.7a3.9,3.9,0,0,0-.2.6l-.2.3c-.1.2-.2.3-.4.3s-.4-.2-.5-.5a2.7,2.7,0,0,1-.3-1.2,14.1,14.1,0,0,1,.8-3.9l-.6.9-.7.8-.5.7a1.7,1.7,0,0,1-1.2.6,1,1,0,0,1-1-.6,11.1,11.1,0,0,1-.4-1.3L41,35.4a17.2,17.2,0,0,1-.5,2.6c-.2.8-.3,1.3-.4,1.6a1.6,1.6,0,0,1-.3.8c-.1.6-.3.9-.5.9a1.1,1.1,0,0,1-.6-.6,2.5,2.5,0,0,1-.5-1.1c0-.2.3-1.5.8-3.8a19.7,19.7,0,0,0,.8-4.3C39.8,31.2,40,31.1,40.3,31.1Z"/><path d="M54.6,37.4c.2.1.3.2.3.4s-.1.3-.2.7a5.1,5.1,0,0,0-.2.9,4.3,4.3,0,0,1-.1.5v.3c-.1.1-.1.1-.1.3s0,.1-.1.2v.2c0,.1-.1.1-.1.2a.1.1,0,0,1-.1.1h-.3c-.1,0-.3-.1-.4-.4a1.9,1.9,0,0,1-.5-.9,3.5,3.5,0,0,1-2.2,1.3,2.2,2.2,0,0,1-1.3-.6,1.9,1.9,0,0,1-.7-1.4,5.5,5.5,0,0,1,.6-1.9,8.7,8.7,0,0,1,1.7-2.2,2.9,2.9,0,0,1,2-1.1,2.1,2.1,0,0,1,1.4.7c.5.5.8.9.8,1.2A3,3,0,0,1,54.6,37.4Zm-4,2.2a3.6,3.6,0,0,0,1.5-.8,2.9,2.9,0,0,0,1.1-1.9.2.2,0,0,1,.2-.2c0-.5-.1-.8-.2-.8a1.9,1.9,0,0,0-1.3.7,9.1,9.1,0,0,0-1.1,1.6,2.8,2.8,0,0,0-.5,1.2.1.1,0,0,0,.1.1C50.4,39.6,50.5,39.6,50.6,39.6Z"/><path d="M61,34.1a1.6,1.6,0,0,1,1.3.7,2.4,2.4,0,0,1,.5,1.4,7.1,7.1,0,0,1-.4,2.4,5.5,5.5,0,0,1-.8,2c-.3.5-.6.7-.9.7s-.5-.2-.5-.6a6.4,6.4,0,0,1,.5-2.1,8.2,8.2,0,0,0,.3-1.8c0-.3,0-.5-.1-.5a.5.5,0,0,0-.4.2l-.3.3c-.1.1-.1.2-.2.4l-.3.3-.3.5c-.1.2-.2.3-.2.4l-.3.5c-.8,1.6-1.5,2.4-2,2.4a1,1,0,0,1-.8-.5,1.3,1.3,0,0,1-.4-.7,4.1,4.1,0,0,1,.2-.7l.3-.8a1.3,1.3,0,0,0,.1-.6c.1-.2.1-.4.2-.6v-.6a1.8,1.8,0,0,1,.1-.6,5.4,5.4,0,0,1,.2-2A.2.2,0,0,1,57,34a1.4,1.4,0,0,1,1,.4,1.5,1.5,0,0,1,.5.8,9.9,9.9,0,0,1-.5,2.5l1.7-2.6C60.2,34.4,60.6,34.1,61,34.1Z"/><path d="M65.2,34.1a.9.9,0,0,1,.8.6,1.4,1.4,0,0,1,.4,1,7.3,7.3,0,0,1-.5,2L65,40.8a.8.8,0,0,1-.7.5l-.5-.2a.9.9,0,0,1-.3-.6,7.7,7.7,0,0,1,.4-1.9c.2-.9.4-1.8.5-2.5l.4-1.5C64.9,34.3,65,34.1,65.2,34.1ZM65,32.4a1.3,1.3,0,0,1,.3-.8c.2-.2.4-.4.6-.4s.5.3.8.8a2.4,2.4,0,0,1,.4,1.1.8.8,0,0,1-.2.5l-.5.2a1.6,1.6,0,0,1-.9-.5A1.4,1.4,0,0,1,65,32.4Z"/><path d="M71.9,32.1c-.2,0-.4.3-.6.8a14.2,14.2,0,0,0-.6,2.1h2.5c.7,0,1.1.2,1.1.7a4.4,4.4,0,0,1-.2,1,11,11,0,0,0-.7,1.7c-.2.8-.5,1.6-.7,2.4l-.3.4h-.5l-.5-.2a1.9,1.9,0,0,1-.2-.7,8.2,8.2,0,0,1,.4-2c.3-1.1.4-1.7.5-1.9l-1.8.2c-.5,2-.8,3.3-1,3.8s-.4.8-.6.8a.7.7,0,0,1-.6-.4c-.3-.3-.4-.5-.4-.7a1.1,1.1,0,0,1,.1-.5,17.6,17.6,0,0,0,.7-2.7h-.8a1,1,0,0,1-1-1c0-.2.2-.4.5-.5l1.6-.4a12.7,12.7,0,0,1,1.1-3.7A2.5,2.5,0,0,1,72,30.4a2.9,2.9,0,0,1,1.7.7,1.7,1.7,0,0,1,.9,1.4,2,2,0,0,1-.2.9.5.5,0,0,1-.5.4.9.9,0,0,1-.6-.3l-.5-.5Q72.2,32.1,71.9,32.1Z"/><path d="M79.8,38a4.1,4.1,0,0,1-1.9.5H76.3a1.7,1.7,0,0,0-.1.7c0,.3,0,.5.1.6h.6a5,5,0,0,0,1.8-.2l.8-.2c.4,0,.6.2.6.4s-.3.7-.9,1a3.6,3.6,0,0,1-2.1.5,2.5,2.5,0,0,1-1.9-.7,2.4,2.4,0,0,1-.7-1.8,4.5,4.5,0,0,1,.6-2.1,6.5,6.5,0,0,1,1.5-1.8,2.7,2.7,0,0,1,1.7-.8A2.2,2.2,0,0,1,80,35a2.5,2.5,0,0,1,.7,1.7C80.7,37.2,80.4,37.6,79.8,38Zm-1-1.9-.5-.3c-.2,0-.4.2-.7.4a4.4,4.4,0,0,0-.8,1h.4c1.3,0,1.9-.2,1.9-.7S79,36.3,78.8,36.1Z"/><path d="M85.8,34.1a1.3,1.3,0,0,1,1,.7,1.5,1.5,0,0,1,.5,1.1.3.3,0,0,1-.3.3H85.9a2.4,2.4,0,0,0-1,.2q-.6.1-.6.6c0,.1.1.2.4.4l.8.5a3,3,0,0,1,.8.8,1.5,1.5,0,0,1,.4,1.1,1.4,1.4,0,0,1-.8,1.1,3.6,3.6,0,0,1-2,.6,3.3,3.3,0,0,1-2-.5,1.4,1.4,0,0,1-.8-1c0-.4.2-.6.5-.6H82a3.1,3.1,0,0,0,1.7.5c.7,0,1.1-.1,1.1-.3s-.2-.4-.4-.7l-.9-.6-.9-.7a2,2,0,0,1-.4-.8c0-.5.5-1.1,1.4-1.7A4.2,4.2,0,0,1,85.8,34.1Z"/><path d="M91.1,36.8a15.4,15.4,0,0,1-.5,1.7l-.3,1.1c0,.1.1.1.2.1l1.1-.3,1-.3c.3,0,.4.1.4.4s-.3.7-.9,1.2a3.9,3.9,0,0,1-2,.6,1.5,1.5,0,0,1-1.1-.5,1.2,1.2,0,0,1-.6-1c0-.2.2-.8.4-1.7l.6-1.9-.8.2c-.2,0-.4-.2-.6-.4a1.3,1.3,0,0,1-.3-.7c0-.3.7-.6,2.2-.8a21.5,21.5,0,0,0,.2-2.3.5.5,0,0,1,.5-.4,2.1,2.1,0,0,1,.9.5c.4.3.6.6.6.8a7.4,7.4,0,0,1-.2,1.2h1c.7,0,1,.2,1,.5s-.2.4-.6.5l-1.8.5C91.4,36,91.3,36.4,91.1,36.8Z"/><path d="M100.1,37.4c.2.1.3.2.3.4s-.1.3-.2.7a5.1,5.1,0,0,0-.2.9,1.1,1.1,0,0,0-.1.5c0,.1-.1.2-.1.3v.3c0,.1-.1.1-.1.2v.2c-.1.1-.1.1-.1.2h-.4c-.1,0-.3-.1-.5-.4a1.9,1.9,0,0,1-.4-.9,3.5,3.5,0,0,1-2.2,1.3,2.2,2.2,0,0,1-1.3-.6,1.9,1.9,0,0,1-.7-1.4,5.5,5.5,0,0,1,.6-1.9,8.2,8.2,0,0,1,1.6-2.2,3.1,3.1,0,0,1,2.1-1.1,2.3,2.3,0,0,1,1.4.7,1.9,1.9,0,0,1,.7,1.2A2.7,2.7,0,0,1,100.1,37.4ZM96,39.6a2.8,2.8,0,0,0,1.5-.8,3.5,3.5,0,0,0,1.2-1.9.2.2,0,0,1,.2-.2c0-.5-.1-.8-.3-.8a1.9,1.9,0,0,0-1.2.7,5.7,5.7,0,0,0-1.1,1.6,2.8,2.8,0,0,0-.5,1.2c0,.1,0,.1.1.1S95.9,39.6,96,39.6Z"/><path d="M111.6,34.5c.1-.3.2-.4.4-.4s.5.2.8.6a1.9,1.9,0,0,1,.5,1,11.3,11.3,0,0,1-.7,2c-.4,1.3-.7,2.3-1,3s-.3.6-.6.6-.4,0-.5-.2a.8.8,0,0,1-.2-.6,7.4,7.4,0,0,1,.2-1.2c-1,1.3-1.7,2-2.3,2a2.1,2.1,0,0,1-1.1-.5,1.7,1.7,0,0,1-.6-1.2,10.2,10.2,0,0,1,.7-3.4q.8-2.1,1.5-2.1a.9.9,0,0,1,.7.4,1.1,1.1,0,0,1,.3.8,4.2,4.2,0,0,1-.3.9,9.5,9.5,0,0,0-1.1,3.3.1.1,0,0,0,.1.1l.8-.7,1.3-1.9A27.2,27.2,0,0,0,111.6,34.5Z"/><path d="M118.6,34.1a1.5,1.5,0,0,1,1.3.7,2,2,0,0,1,.6,1.4,10.9,10.9,0,0,1-.4,2.4,8.1,8.1,0,0,1-.8,2c-.4.5-.7.7-1,.7s-.4-.2-.4-.6a8.7,8.7,0,0,1,.4-2.1,5.4,5.4,0,0,0,.4-1.8c0-.3-.1-.5-.2-.5l-.3.2-.3.3-.3.4c-.1.1-.2.2-.2.3l-.3.5-.3.4c0,.2-.1.3-.2.5s-1.6,2.4-2,2.4a1,1,0,0,1-.8-.5,1.3,1.3,0,0,1-.4-.7,1.2,1.2,0,0,1,.2-.7l.3-.8c0-.2.1-.4.1-.6a1.3,1.3,0,0,0,.1-.6c0-.3.1-.4.1-.6v-.6c.1-1.2.2-1.9.2-2l.3-.2a1.6,1.6,0,0,1,1,.4,1.5,1.5,0,0,1,.5.8,9.9,9.9,0,0,1-.5,2.5l1.7-2.6C117.9,34.4,118.3,34.1,118.6,34.1Z"/><path d="M127.2,37.4c.2.1.2.2.2.4a2.6,2.6,0,0,1-.1.7,5.1,5.1,0,0,0-.2.9,1.1,1.1,0,0,0-.1.5.4.4,0,0,0-.1.3v.3c-.1.1-.1.1-.1.2v.2c-.1.1-.1.1-.1.2a.1.1,0,0,0-.1.1h-.3c-.1,0-.3-.1-.5-.4a1.9,1.9,0,0,1-.4-.9,3.5,3.5,0,0,1-2.2,1.3,1.9,1.9,0,0,1-1.3-.6,1.9,1.9,0,0,1-.7-1.4,5.5,5.5,0,0,1,.6-1.9,8.2,8.2,0,0,1,1.6-2.2,3.1,3.1,0,0,1,2.1-1.1,1.9,1.9,0,0,1,1.3.7c.6.5.8.9.8,1.2A2.7,2.7,0,0,1,127.2,37.4Zm-4.1,2.2a2.8,2.8,0,0,0,1.5-.8,3.5,3.5,0,0,0,1.2-1.9.2.2,0,0,1,.2-.2c0-.5-.1-.8-.3-.8a1.7,1.7,0,0,0-1.2.7,4.2,4.2,0,0,0-1.1,1.6,2.8,2.8,0,0,0-.5,1.2h.2Z"/><path d="M41.3,55c.2.1.3.2.3.4s-.1.3-.2.7a5.1,5.1,0,0,0-.2.9,1.1,1.1,0,0,0-.1.5c0,.1-.1.2-.1.3v.3c0,.1-.1.1-.1.2v.2c-.1.1-.1.1-.1.2h-.4c-.1,0-.3-.1-.5-.4a1.9,1.9,0,0,1-.4-.9,3.5,3.5,0,0,1-2.2,1.3,2.2,2.2,0,0,1-1.3-.6,1.9,1.9,0,0,1-.7-1.4,5.5,5.5,0,0,1,.6-1.9,8.2,8.2,0,0,1,1.6-2.2,3.1,3.1,0,0,1,2.1-1.1,2.3,2.3,0,0,1,1.4.7,1.9,1.9,0,0,1,.7,1.2A2.7,2.7,0,0,1,41.3,55Zm-4.1,2.2a2.8,2.8,0,0,0,1.5-.8,3.5,3.5,0,0,0,1.2-1.9.2.2,0,0,1,.2-.2c0-.5-.1-.8-.2-.8a1.9,1.9,0,0,0-1.3.7,5.7,5.7,0,0,0-1.1,1.6A2.8,2.8,0,0,0,37,57c0,.1,0,.1.1.1S37.1,57.2,37.2,57.2Z"/><path d="M45.3,48.4a1.7,1.7,0,0,1,.6,1.2c0,.4-.1,1-.2,2s-.2,1.7-.3,2.3c-.8,3.3-1.4,5-1.7,5s-.4-.1-.7-.5a1.5,1.5,0,0,1-.5-.8,13.1,13.1,0,0,1,.4-1.4c.2-1,.5-2.2.8-3.7a32.2,32.2,0,0,0,.3-4.3c0-.3.2-.4.5-.4S45,48,45.3,48.4Z"/><path d="M49.5,54.4a15.4,15.4,0,0,1-.5,1.7l-.3,1.1h.2L50,57l1-.3c.3,0,.4.1.4.4s-.3.7-1,1.2a3.3,3.3,0,0,1-1.9.6,1.5,1.5,0,0,1-1.1-.5,1.2,1.2,0,0,1-.6-1,6.9,6.9,0,0,1,.4-1.7l.6-1.9L47,54c-.2,0-.4-.2-.6-.4a1.3,1.3,0,0,1-.3-.7c0-.3.7-.6,2.2-.8a21.5,21.5,0,0,0,.2-2.3.4.4,0,0,1,.4-.4,1.9,1.9,0,0,1,1,.5,1,1,0,0,1,.5.8,5.7,5.7,0,0,1-.1,1.2h1c.7,0,1,.2,1,.5s-.2.4-.6.5l-1.8.5C49.8,53.6,49.7,54,49.5,54.4Z"/><path d="M57.9,55.6a4.5,4.5,0,0,1-1.9.5H54.4a1.9,1.9,0,0,0-.2.7.8.8,0,0,0,.2.6c0,.1.3.1.6.1a5,5,0,0,0,1.8-.2l.8-.2a.5.5,0,0,1,.5.4c0,.4-.3.7-.9,1a3.5,3.5,0,0,1-2,.5,2.4,2.4,0,0,1-1.9-.7,2.5,2.5,0,0,1-.8-1.8,4.8,4.8,0,0,1,.6-2.1,6.5,6.5,0,0,1,1.5-1.8,2.9,2.9,0,0,1,1.8-.8,2.2,2.2,0,0,1,1.7.9,2.5,2.5,0,0,1,.7,1.7C58.8,54.8,58.5,55.2,57.9,55.6Zm-1-1.9a.9.9,0,0,0-.6-.3l-.6.4a2.7,2.7,0,0,0-.8,1h.4c1.2,0,1.9-.2,1.9-.7S57.1,53.9,56.9,53.7Z"/><path d="M60.1,54.1V52.5c0-.5.1-.8.4-.8l.6.2a1.6,1.6,0,0,1,.4.7,4.1,4.1,0,0,1,1.1-.7,1.9,1.9,0,0,1,1-.3c.6,0,1,.2,1,.5s0,.3-.1.4l-.2.2h-.1c-.1.1-.2.1-.2.2l-.5.2a4.7,4.7,0,0,0-1,1,3.5,3.5,0,0,0-.7,1.5c-.3,1.1-.5,1.9-.7,2.4s-.5.8-.8.8a.7.7,0,0,1-.7-.4,2.4,2.4,0,0,1-.2-.8,3.6,3.6,0,0,1,.3-1.1,7.9,7.9,0,0,0,.3-1.3A4.5,4.5,0,0,0,60.1,54.1Z"/><path d="M69.6,51.7a1.6,1.6,0,0,1,1.3.7,2.4,2.4,0,0,1,.5,1.4,7.1,7.1,0,0,1-.4,2.4,5.5,5.5,0,0,1-.8,2c-.3.5-.6.7-.9.7s-.5-.2-.5-.6a11.2,11.2,0,0,1,.5-2.1,8.2,8.2,0,0,0,.3-1.8c0-.3,0-.5-.1-.5l-.4.2-.3.3c0,.1-.1.2-.2.4l-.3.3c0,.2-.1.3-.2.5l-.3.4a1.3,1.3,0,0,1-.3.5c-.8,1.6-1.5,2.4-2,2.4s-.4-.1-.7-.5a1.8,1.8,0,0,1-.5-.7,4.1,4.1,0,0,1,.2-.7,1.6,1.6,0,0,0,.3-.8c.1-.2.1-.4.2-.6a1.3,1.3,0,0,1,.1-.6v-.6a3.5,3.5,0,0,0,.1-.6,10.3,10.3,0,0,1,.2-2c.1-.1.1-.2.2-.2a1.3,1.3,0,0,1,1,.4,1,1,0,0,1,.5.8,9.1,9.1,0,0,1-.4,2.5c.6-1,1.1-1.9,1.6-2.6S69.2,51.7,69.6,51.7Z"/><path d="M78.1,55c.2.1.3.2.3.4s-.1.3-.2.7a5.1,5.1,0,0,0-.2.9,4.3,4.3,0,0,1-.1.5v.3c0,.1-.1.1-.1.3v.2c-.1.1-.1.1-.1.2s0,.1-.1.2h-.1c0,.1-.1.1-.2.1s-.3-.1-.5-.4a1.9,1.9,0,0,1-.5-.9,3.3,3.3,0,0,1-2.2,1.3,2.2,2.2,0,0,1-1.3-.6,2.3,2.3,0,0,1-.7-1.4,5.5,5.5,0,0,1,.6-1.9,8.7,8.7,0,0,1,1.7-2.2,3.1,3.1,0,0,1,2-1.1,2.1,2.1,0,0,1,1.4.7c.5.5.8.9.8,1.2A3,3,0,0,1,78.1,55Zm-4,2.2a3.6,3.6,0,0,0,1.5-.8,2.9,2.9,0,0,0,1.1-1.9c0-.1.1-.2.3-.2s-.2-.8-.3-.8a1.9,1.9,0,0,0-1.3.7,9.1,9.1,0,0,0-1.1,1.6,2.4,2.4,0,0,0-.4,1.2h0C73.9,57.2,74,57.2,74.1,57.2Z"/><path d="M82.6,54.4a15.4,15.4,0,0,1-.5,1.7l-.3,1.1H82l1.1-.3,1-.3c.3,0,.4.1.4.4s-.3.7-.9,1.2a3.9,3.9,0,0,1-2,.6,1.5,1.5,0,0,1-1.1-.5,1.2,1.2,0,0,1-.6-1c0-.2.2-.8.4-1.7l.6-1.9-.8.2c-.2,0-.4-.2-.6-.4a1.3,1.3,0,0,1-.3-.7c0-.3.7-.6,2.2-.8a21.5,21.5,0,0,0,.2-2.3.5.5,0,0,1,.5-.4,2.1,2.1,0,0,1,.9.5c.4.3.6.6.6.8a7.4,7.4,0,0,1-.2,1.2h1c.7,0,1,.2,1,.5s-.2.4-.6.5l-1.8.5C82.9,53.6,82.8,54,82.6,54.4Z"/><path d="M87.2,51.7a1,1,0,0,1,.9.6,1.4,1.4,0,0,1,.4,1,17.2,17.2,0,0,1-.5,2l-.9,3.1c-.2.3-.4.5-.7.5l-.6-.2a1.4,1.4,0,0,1-.2-.6,7.7,7.7,0,0,1,.4-1.9c.2-.9.4-1.8.5-2.5a9.6,9.6,0,0,1,.3-1.5C87,51.9,87.1,51.7,87.2,51.7ZM87,50a1,1,0,0,1,.4-.8c.2-.2.4-.4.6-.4s.5.3.7.8a3.1,3.1,0,0,1,.5,1.1.8.8,0,0,1-.2.5l-.5.2a1.4,1.4,0,0,1-.9-.5Q87,50.3,87,50Z"/><path d="M94.2,51.7a1.1,1.1,0,0,1,.7.3.5.5,0,0,1,.3.5,6.6,6.6,0,0,1-.8,2.3,20.6,20.6,0,0,1-1.5,3c-.5.7-.9,1.1-1.1,1.1a.9.9,0,0,1-.6-.3,1,1,0,0,1-.6-.5c-.2-.6-.4-1.6-.8-3a17.2,17.2,0,0,1-.4-2.8c0-.4.1-.6.4-.6a1.2,1.2,0,0,1,.9.4,2.3,2.3,0,0,1,1,1.7V55c.1.5.1,1,.2,1.3l.8-1.9.8-2C93.8,51.9,94,51.7,94.2,51.7Z"/><path d="M101.1,55c.2.1.3.2.3.4s-.1.3-.2.7a5.1,5.1,0,0,0-.2.9,4.3,4.3,0,0,1-.1.5v.3c0,.1-.1.1-.1.3v.2c-.1.1-.1.1-.1.2s0,.1-.1.2h-.1c0,.1-.1.1-.2.1s-.3-.1-.5-.4a1.9,1.9,0,0,1-.5-.9,3.3,3.3,0,0,1-2.2,1.3,2.2,2.2,0,0,1-1.3-.6,2.3,2.3,0,0,1-.7-1.4,5.5,5.5,0,0,1,.6-1.9,8.7,8.7,0,0,1,1.7-2.2,3.1,3.1,0,0,1,2-1.1,2.1,2.1,0,0,1,1.4.7c.5.5.8.9.8,1.2A3,3,0,0,1,101.1,55Zm-4,2.2a3.6,3.6,0,0,0,1.5-.8,2.9,2.9,0,0,0,1.1-1.9c0-.1.1-.2.3-.2s-.2-.8-.3-.8a1.9,1.9,0,0,0-1.3.7,9.1,9.1,0,0,0-1.1,1.6,2.4,2.4,0,0,0-.4,1.2h0C96.9,57.2,97,57.2,97.1,57.2Z"/><path d="M113.7,55a.5.5,0,0,1,.2.4,2.6,2.6,0,0,1-.1.7,4.6,4.6,0,0,1-.3.9.7.7,0,0,1-.1.5v.3c0,.1,0,.1-.1.3v.2c0,.1,0,.1-.1.2v.2h-.4c-.1,0-.3-.1-.5-.4a1.9,1.9,0,0,1-.4-.9,3.5,3.5,0,0,1-2.2,1.3,1.9,1.9,0,0,1-1.3-.6,1.9,1.9,0,0,1-.7-1.4,5.5,5.5,0,0,1,.6-1.9,8.2,8.2,0,0,1,1.6-2.2,3.1,3.1,0,0,1,2.1-1.1,1.9,1.9,0,0,1,1.3.7c.5.5.8.9.8,1.2A2.7,2.7,0,0,1,113.7,55Zm-4.1,2.2a2.8,2.8,0,0,0,1.5-.8,3.5,3.5,0,0,0,1.2-1.9c0-.1,0-.2.2-.2s-.1-.8-.3-.8a1.5,1.5,0,0,0-1.2.7,6.1,6.1,0,0,0-1.2,1.6,2.4,2.4,0,0,0-.4,1.2h.2Z"/><path d="M123.1,48.4a1.6,1.6,0,0,1,.5,1.2,18.2,18.2,0,0,1-.1,2c-.1.9-.3,1.7-.4,2.3-.8,3.3-1.3,5-1.6,5a1,1,0,0,1-.8-.5,1.2,1.2,0,0,1-.4-.8,13.1,13.1,0,0,1,.4-1.4c.2-1,.5-2.2.7-3.7a21.5,21.5,0,0,0,.4-4.3c0-.3.1-.4.4-.4S122.7,48,123.1,48.4Z"/><path d="M129.9,55c.2.1.3.2.3.4s-.1.3-.2.7a5.1,5.1,0,0,0-.2.9,4.3,4.3,0,0,1-.1.5v.3c-.1.1-.1.1-.1.3s0,.1-.1.2v.2c0,.1-.1.1-.1.2h-.1c0,.1-.1.1-.3.1s-.3-.1-.4-.4a1.9,1.9,0,0,1-.5-.9,3.5,3.5,0,0,1-2.2,1.3,2.2,2.2,0,0,1-1.3-.6,1.9,1.9,0,0,1-.7-1.4,5.5,5.5,0,0,1,.6-1.9,8.7,8.7,0,0,1,1.7-2.2,2.9,2.9,0,0,1,2-1.1,2.1,2.1,0,0,1,1.4.7c.5.5.8.9.8,1.2A3,3,0,0,1,129.9,55Zm-4,2.2a2.9,2.9,0,0,0,1.4-.8,2.6,2.6,0,0,0,1.2-1.9.2.2,0,0,1,.2-.2c0-.5-.1-.8-.2-.8a1.9,1.9,0,0,0-1.3.7,9.1,9.1,0,0,0-1.1,1.6,2.8,2.8,0,0,0-.5,1.2.1.1,0,0,0,.1.1C125.7,57.2,125.8,57.2,125.9,57.2Z"/><path d="M40.4,69.3a1.9,1.9,0,0,1,1.2.7,2.4,2.4,0,0,1,.6,1.4,4.9,4.9,0,0,1-.3,1.5,13,13,0,0,1-.8,1.7A5.3,5.3,0,0,1,39.9,76a3.3,3.3,0,0,1-1.6.5,2.8,2.8,0,0,1-1.8-.8c-.2.6-.4.8-.5.8s-.4-.1-.7-.5a1.5,1.5,0,0,1-.5-.8c0-.2.2-.8.5-2a34.2,34.2,0,0,0,1.4-7.4c0-.3.1-.4.4-.4s.5.2.9.6a2.1,2.1,0,0,1,.5,1.1,14.6,14.6,0,0,1-.7,3.9C38.8,69.9,39.7,69.3,40.4,69.3Zm-2.3,5.6c.5,0,1-.4,1.6-1.2a4.6,4.6,0,0,0,.8-2.4h-.3a2.4,2.4,0,0,0-1.6.9,9.1,9.1,0,0,0-1.5,2.3A1.2,1.2,0,0,0,38.1,74.9Z"/><path d="M48.8,72.6c.2.1.3.2.3.4l-.2.7a5.1,5.1,0,0,0-.2.9,1.1,1.1,0,0,0-.1.5c0,.1-.1.2-.1.3v.3c0,.1-.1.1-.1.2v.2c0,.1-.1.1-.1.2h-.4c-.1,0-.3-.1-.5-.4a1.9,1.9,0,0,1-.4-.9,3.5,3.5,0,0,1-2.2,1.3,2.2,2.2,0,0,1-1.3-.6,1.9,1.9,0,0,1-.7-1.4,5.5,5.5,0,0,1,.6-1.9A8.2,8.2,0,0,1,45,70.4a3.1,3.1,0,0,1,2.1-1.1,2.1,2.1,0,0,1,1.4.7,1.9,1.9,0,0,1,.7,1.2A2.7,2.7,0,0,1,48.8,72.6Zm-4.1,2.2a2.8,2.8,0,0,0,1.5-.8,3,3,0,0,0,1.2-1.9l.2-.2c0-.5-.1-.8-.2-.8a1.9,1.9,0,0,0-1.3.7A5.7,5.7,0,0,0,45,73.4a2.8,2.8,0,0,0-.5,1.2c0,.1,0,.1.1.1Z"/><path d="M55.2,69.3a1.4,1.4,0,0,1,1.2.7,2,2,0,0,1,.6,1.4,7.1,7.1,0,0,1-.4,2.4,5.5,5.5,0,0,1-.8,2c-.3.5-.6.7-1,.7s-.4-.2-.4-.6a8.7,8.7,0,0,1,.4-2.1,5.4,5.4,0,0,0,.4-1.8c0-.3-.1-.5-.2-.5l-.3.2-.3.3-.3.4-.2.3-.3.5-.2.4-.3.5c-.9,1.6-1.5,2.4-2,2.4a1,1,0,0,1-.8-.5,1.3,1.3,0,0,1-.4-.7,1.2,1.2,0,0,1,.2-.7l.3-.8c0-.2.1-.4.1-.6a1.3,1.3,0,0,0,.1-.6,1.5,1.5,0,0,0,.1-.6v-.6a7,7,0,0,1,.3-2,.2.2,0,0,1,.2-.2,1.4,1.4,0,0,1,1,.4,1.5,1.5,0,0,1,.5.8,9.9,9.9,0,0,1-.5,2.5l1.7-2.6C54.4,69.6,54.8,69.3,55.2,69.3Z"/><path d="M57.8,74.3a4.8,4.8,0,0,1,.6-2.1,5.3,5.3,0,0,1,1.6-2,3,3,0,0,1,2-.9c.3,0,.6.2,1,.7a2.1,2.1,0,0,1,.5,1.1c0,.2-.1.4-.3.4l-.5-.2h-.6a1.4,1.4,0,0,0-.9.5,5.8,5.8,0,0,0-1,1.2,2.4,2.4,0,0,0-.4,1.2c0,.3,0,.5.1.5a1.3,1.3,0,0,0,.8.2h1.1l.8-.3H63c.3,0,.4.1.4.3s-.3.9-1,1.3a4.9,4.9,0,0,1-2.2.6,2.5,2.5,0,0,1-1.6-.7A2.2,2.2,0,0,1,57.8,74.3Z"/><path d="M70.6,72.6a.5.5,0,0,1,.2.4,1.4,1.4,0,0,1-.2.7,6.4,6.4,0,0,1-.2.9.7.7,0,0,1-.1.5v1c0,.1,0,.1-.1.2a.1.1,0,0,1-.1.1h-.2c-.2,0-.3-.1-.5-.4a1.3,1.3,0,0,1-.4-.9,3.6,3.6,0,0,1-2.3,1.3,2.2,2.2,0,0,1-1.3-.6,2.3,2.3,0,0,1-.7-1.4,5.5,5.5,0,0,1,.6-1.9,8.7,8.7,0,0,1,1.7-2.2,3.1,3.1,0,0,1,2.1-1.1,2.1,2.1,0,0,1,1.3.7c.5.5.8.9.8,1.2A4.3,4.3,0,0,1,70.6,72.6Zm-4.1,2.2A2.8,2.8,0,0,0,68,74a2.9,2.9,0,0,0,1.1-1.9c0-.1.1-.2.3-.2s-.1-.8-.3-.8a1.9,1.9,0,0,0-1.3.7,9.1,9.1,0,0,0-1.1,1.6,2.4,2.4,0,0,0-.4,1.2h.2Z"/><path d="M72.5,71.7V70.1c0-.5.2-.8.5-.8l.6.2a1.6,1.6,0,0,1,.4.7l1-.7,1-.3c.7,0,1.1.2,1.1.5s-.1.3-.1.4l-.2.2h-.1l-.2.2-.5.2a5.2,5.2,0,0,0-1.1,1,3.4,3.4,0,0,0-.6,1.5,11,11,0,0,1-.8,2.4c-.2.6-.5.8-.8.8a.5.5,0,0,1-.6-.4,1.2,1.2,0,0,1-.2-.8,8.9,8.9,0,0,1,.2-1.1,9.3,9.3,0,0,0,.4-1.3A4.5,4.5,0,0,0,72.5,71.7Z"/><path d="M78.4,69.3a1.2,1.2,0,0,1,.9.6,2.1,2.1,0,0,1,.4,1,17.2,17.2,0,0,1-.5,2c-.3,1.1-.7,2.1-1,3.1a.7.7,0,0,1-.7.5l-.5-.2a.7.7,0,0,1-.2-.6,12.9,12.9,0,0,1,.3-1.9c.3-.9.4-1.8.6-2.5a9.6,9.6,0,0,1,.3-1.5C78.1,69.5,78.2,69.3,78.4,69.3Zm-.2-1.7a1.3,1.3,0,0,1,.3-.8,1.3,1.3,0,0,1,.7-.4c.2,0,.4.3.7.8a2.4,2.4,0,0,1,.4,1.1c0,.2,0,.4-.2.5l-.4.2a1.9,1.9,0,0,1-1-.5A2.1,2.1,0,0,1,78.2,67.6Z"/><path d="M82.5,74.8l3.1-.2.5.2a.5.5,0,0,1,.2.4c0,.4-.4.8-1.2,1a14.2,14.2,0,0,1-3.1.3,1.8,1.8,0,0,1-1.3-.6q-.6-.6-.6-.9c0-.3.2-.6.7-1a9.1,9.1,0,0,1,1.6-1.1,7.8,7.8,0,0,0,1.5-1c.5-.3.8-.5.8-.6H81.9c-.2,0-.4-.2-.7-.5s-.4-.6-.4-.8.3-.5.8-.6l1.5-.2,1.9.2a2.2,2.2,0,0,1,.9.8,1.6,1.6,0,0,1,.4.9,1.7,1.7,0,0,1-.6,1.2,6.9,6.9,0,0,1-1.3,1.1l-1.3.8-.7.4Z"/><path d="M93.1,72.6c.2.1.3.2.3.4l-.2.7a5.1,5.1,0,0,0-.2.9,1.1,1.1,0,0,0-.1.5.4.4,0,0,1-.1.3v.7c0,.1-.1.1-.1.2h-.4c-.1,0-.3-.1-.5-.4a3.9,3.9,0,0,1-.4-.9,3.5,3.5,0,0,1-2.2,1.3,2.2,2.2,0,0,1-1.3-.6,1.9,1.9,0,0,1-.7-1.4,5.5,5.5,0,0,1,.6-1.9,8.7,8.7,0,0,1,1.7-2.2,2.7,2.7,0,0,1,2-1.1,2.1,2.1,0,0,1,1.4.7,1.9,1.9,0,0,1,.7,1.2A2.7,2.7,0,0,1,93.1,72.6Zm-4,2.2a2.9,2.9,0,0,0,1.4-.8,3,3,0,0,0,1.2-1.9l.2-.2c0-.5-.1-.8-.2-.8a1.9,1.9,0,0,0-1.3.7,9.1,9.1,0,0,0-1.1,1.6,2.8,2.8,0,0,0-.5,1.2.1.1,0,0,0,.1.1Z"/><path d="M94.3,74.3a4.8,4.8,0,0,1,.6-2.1,6.4,6.4,0,0,1,1.6-2,3.2,3.2,0,0,1,2-.9,1.3,1.3,0,0,1,1,.7,1.5,1.5,0,0,1,.5,1.1c0,.2-.1.4-.3.4l-.5-.2h-.6a1,1,0,0,0-.8.5,5.8,5.8,0,0,0-1,1.2,2.8,2.8,0,0,0-.5,1.2c0,.3.1.5.2.5s.3.2.8.2h1.1l.8-.3h.4c.3,0,.4.1.4.3s-.4.9-1.1,1.3a4.2,4.2,0,0,1-2.1.6,2.5,2.5,0,0,1-1.6-.7A2,2,0,0,1,94.3,74.3Z"/><path d="M102.7,69.3a1,1,0,0,1,.9.6,1.4,1.4,0,0,1,.4,1,17.2,17.2,0,0,1-.5,2l-.9,3.1a.8.8,0,0,1-.7.5l-.6-.2a1.4,1.4,0,0,1-.2-.6,7.7,7.7,0,0,1,.4-1.9c.2-.9.4-1.8.5-2.5a7.5,7.5,0,0,1,.4-1.5C102.5,69.5,102.6,69.3,102.7,69.3Zm-.2-1.7a1,1,0,0,1,.4-.8c.2-.2.4-.4.6-.4s.5.3.8.8a5.1,5.1,0,0,1,.4,1.1.8.8,0,0,1-.2.5l-.5.2a1.4,1.4,0,0,1-.9-.5Q102.5,67.9,102.5,67.6Z"/><path d="M105.8,70.9a2.9,2.9,0,0,1,2.2-1.6,2.4,2.4,0,0,1,1.8.7,2.9,2.9,0,0,1,.7,1.9A5.4,5.4,0,0,1,110,74a6.2,6.2,0,0,1-1.4,1.8,3.1,3.1,0,0,1-2,.7,1.6,1.6,0,0,1-1.3-.7,2.3,2.3,0,0,1-.6-1.6A5.7,5.7,0,0,1,105.8,70.9Zm2.3,2.8a3.5,3.5,0,0,0,.6-1.9,1.7,1.7,0,0,0-.3-1.2,3.2,3.2,0,0,0-1.2,1.5,4.1,4.1,0,0,0-.6,1.9,2,2,0,0,0,.2,1.1A3,3,0,0,0,108.1,73.7Zm.7-4.8c-.1,0-.2,0-.4-.2a.6.6,0,0,1-.1-.4.7.7,0,0,1,.2-.6l.5-.5.6-.5.4-.4.2-.2.3-.2h.3a.8.8,0,0,1,.7.4,2.5,2.5,0,0,1,.2.7v.4c0,.1-.1.2-.2.3l-.4.2-.5.3-.6.3-.5.3A1.1,1.1,0,0,1,108.8,68.9Z"/><path d="M116.3,69.3a1.6,1.6,0,0,1,1.3.7,2.4,2.4,0,0,1,.5,1.4,7.1,7.1,0,0,1-.4,2.4,5.5,5.5,0,0,1-.8,2c-.3.5-.6.7-.9.7s-.5-.2-.5-.6a11.2,11.2,0,0,1,.5-2.1,8.2,8.2,0,0,0,.3-1.8c0-.3,0-.5-.1-.5l-.4.2-.3.3-.2.4-.3.3-.2.5-.3.4-.3.5c-.8,1.6-1.5,2.4-2,2.4s-.4-.1-.7-.5a1.8,1.8,0,0,1-.5-.7l.2-.7.3-.8c.1-.2.1-.4.2-.6a1.3,1.3,0,0,1,.1-.6V72a3.5,3.5,0,0,0,.1-.6,10.3,10.3,0,0,1,.2-2l.2-.2a1.4,1.4,0,0,1,1,.4,1.5,1.5,0,0,1,.5.8,9.1,9.1,0,0,1-.4,2.5c.6-1,1.1-1.9,1.6-2.6S115.9,69.3,116.3,69.3Z"/><path d="M129.5,69.7c.1-.3.2-.4.5-.4a1,1,0,0,1,.7.5,1.5,1.5,0,0,1,.4,1.1,2.8,2.8,0,0,1-.2,1.1l-.4,1a1.6,1.6,0,0,1-.3.9l-.3,1a11.2,11.2,0,0,1-.5,1.3,8.8,8.8,0,0,1-.5,1.5,6.7,6.7,0,0,1-1,1.9,2,2,0,0,1-1.6.7,3.5,3.5,0,0,1-1.8-.5c-.5-.4-.8-.7-.8-1.1a1.1,1.1,0,0,1,.3-.7c.2-.3.3-.4.5-.4l.5.3.7.7a.9.9,0,0,0,.6.3c.1,0,.2,0,.3-.2l.2-.3c.1,0,.1-.2.2-.3s.1-.3.1-.4.1-.4.2-.6.1-.4.2-.5a5.7,5.7,0,0,1,.4-1.4l-1,1-.9.3c-.3,0-.6-.2-1-.6a2,2,0,0,1-.6-1.4,9.6,9.6,0,0,1,.3-2,11.3,11.3,0,0,1,.8-2.2c.3-.7.6-1,.9-1a.9.9,0,0,1,.8.4.9.9,0,0,1,.4.7,3.6,3.6,0,0,1-.3,1.1,7.7,7.7,0,0,0-.7,1.6,3.7,3.7,0,0,0-.4,1.6h.1c.1,0,.4-.3.7-.7a13.3,13.3,0,0,0,1.4-2A12.8,12.8,0,0,0,129.5,69.7Z"/><path d="M31.4,86.9q.6,0,1.2.9a3.8,3.8,0,0,1,.6,1.9,2.7,2.7,0,0,1-.5,1.3,7.9,7.9,0,0,1-1.2,1.5l-1.7,1.1a4.1,4.1,0,0,1-1.8.5h-.1c-.6,2.5-1.1,3.7-1.3,3.7s-.4-.2-.6-.5a1.6,1.6,0,0,1-.3-.8,10.4,10.4,0,0,1,.4-2,34.2,34.2,0,0,0,1.2-7.4c0-.3.1-.4.4-.4a1.2,1.2,0,0,1,.8.4,1.3,1.3,0,0,1,.7.9A3.5,3.5,0,0,1,31.4,86.9Zm-1,4.3a2.6,2.6,0,0,0,.9-1.7c0-.5-.1-.7-.4-.7a1.5,1.5,0,0,0-1.2.7,1.8,1.8,0,0,0-.6.8,8.1,8.1,0,0,0-.6,1.3l-.2.8A3.8,3.8,0,0,0,30.4,91.2Z"/><path d="M39.2,90.8a4.1,4.1,0,0,1-1.9.5H35.7a1.7,1.7,0,0,0-.1.7c0,.3,0,.5.1.6h.6a5,5,0,0,0,1.8-.2l.8-.2c.4,0,.6.2.6.4s-.3.7-.9,1a3.6,3.6,0,0,1-2.1.5,2.5,2.5,0,0,1-1.9-.7,2.4,2.4,0,0,1-.7-1.8,4.8,4.8,0,0,1,.6-2.1A6.5,6.5,0,0,1,36,87.7a2.9,2.9,0,0,1,1.8-.8,2.1,2.1,0,0,1,1.6.9,2.7,2.7,0,0,1,.8,1.7C40.2,90,39.9,90.4,39.2,90.8Zm-.9-1.9a.9.9,0,0,0-.6-.3c-.2,0-.4.2-.7.4a4.3,4.3,0,0,0-.7,1h.3c1.3,0,1.9-.2,1.9-.7Z"/><path d="M41.5,89.3V87.7c0-.5.2-.8.5-.8l.6.2a4.3,4.3,0,0,1,.4.7l1-.7,1-.3c.7,0,1,.2,1,.5s0,.3-.1.4-.1.1-.1.2h-.2c0,.1-.1.1-.1.2l-.5.2a5.2,5.2,0,0,0-1.1,1,3.4,3.4,0,0,0-.6,1.5,11,11,0,0,1-.8,2.4c-.2.6-.5.8-.8.8a.5.5,0,0,1-.6-.4,1.3,1.3,0,0,1-.3-.8,3.6,3.6,0,0,1,.3-1.1,9.3,9.3,0,0,0,.4-1.3A4.5,4.5,0,0,0,41.5,89.3Z"/><path d="M55.2,86.9a1.1,1.1,0,0,1,.9.7,2.7,2.7,0,0,1,.4,1.4c0,.4-.1,1-.2,1.8a9.7,9.7,0,0,1-.8,2.2c-.3.8-.7,1.1-1,1.1s-.5-.2-.5-.6a8,8,0,0,1,.4-2.1,10.5,10.5,0,0,0,.3-1.8c0-.3,0-.5-.1-.5s-.4.2-.7.7a19.4,19.4,0,0,0-1,1.7c-.4.7-.6,1.2-.7,1.4s-.2.3-.2.5l-.2.3q-.4.8-1.2,0a.7.7,0,0,1-.4-.6c0-.1.1-.4.2-1.1a8.5,8.5,0,0,0,.3-2.3c0-.4-.1-.6-.2-.6s-.2.1-.3.4a5.4,5.4,0,0,0-.7,1.2l-.8,1.4c-.8,1.4-1.4,2-1.8,2a1,1,0,0,1-.8-.5,1.2,1.2,0,0,1-.4-.8,6.6,6.6,0,0,1,.3-1.3,14.3,14.3,0,0,0,.4-2.2c0-.8.1-1.4.1-1.8s.2-.7.4-.7a1.4,1.4,0,0,1,1,.4,1.5,1.5,0,0,1,.5.8,11.3,11.3,0,0,1-.6,2.9,13.1,13.1,0,0,1,1.7-3.1,1.7,1.7,0,0,1,1.3-.9c.3,0,.6.2.9.7a1.7,1.7,0,0,1,.6,1.2v1a4.9,4.9,0,0,1,1.3-2A2.4,2.4,0,0,1,55.2,86.9Z"/><path d="M58.8,86.9a1,1,0,0,1,.9.6,1.4,1.4,0,0,1,.4,1,17.2,17.2,0,0,1-.5,2l-.9,3.1a.8.8,0,0,1-.7.5l-.6-.2a1.4,1.4,0,0,1-.2-.6,7.7,7.7,0,0,1,.4-1.9c.2-.9.4-1.8.5-2.5a7.5,7.5,0,0,1,.4-1.5C58.6,87.1,58.7,86.9,58.8,86.9Zm-.2-1.7a1,1,0,0,1,.4-.8c.2-.2.4-.4.6-.4s.5.3.8.8a5.1,5.1,0,0,1,.4,1.1.8.8,0,0,1-.2.5l-.5.2a1.4,1.4,0,0,1-.9-.5Q58.6,85.5,58.6,85.2Z"/><path d="M64.2,89.6a15.4,15.4,0,0,1-.5,1.7l-.3,1.1h.2l1.1-.3,1-.3a.4.4,0,0,1,.4.4c0,.3-.4.7-1,1.2a3.5,3.5,0,0,1-1.9.6,1.5,1.5,0,0,1-1.1-.5,1.2,1.2,0,0,1-.6-1,6.9,6.9,0,0,1,.4-1.7l.6-1.9-.8.2c-.2,0-.4-.2-.6-.4a1.3,1.3,0,0,1-.3-.7c0-.3.7-.6,2.1-.8a10.4,10.4,0,0,0,.3-2.3.4.4,0,0,1,.4-.4,1.9,1.9,0,0,1,1,.5,1.5,1.5,0,0,1,.5.8,3,3,0,0,1-.2,1.2H66c.7,0,1,.2,1,.5s-.2.4-.6.5l-1.9.5A9.3,9.3,0,0,1,64.2,89.6Z"/><path d="M72.6,90.8a4.9,4.9,0,0,1-2,.5H69c0,.2-.1.5-.1.7a3.5,3.5,0,0,0,.1.6h.7a5,5,0,0,0,1.8-.2l.7-.2c.4,0,.6.2.6.4s-.3.7-.9,1a3.6,3.6,0,0,1-2.1.5,2.5,2.5,0,0,1-1.9-.7,2.9,2.9,0,0,1-.7-1.8,4.8,4.8,0,0,1,.6-2.1,6.5,6.5,0,0,1,1.5-1.8,2.9,2.9,0,0,1,1.8-.8,2.1,2.1,0,0,1,1.6.9,2.7,2.7,0,0,1,.8,1.7C73.5,90,73.2,90.4,72.6,90.8Zm-1-1.9a.9.9,0,0,0-.6-.3c-.2,0-.4.2-.6.4a2.7,2.7,0,0,0-.8,1h.3c1.3,0,2-.2,2-.7Z"/><path d="M84,95.2l1-.3.5.2.2.4-.2.4-.7.5-1.1.7-.8.6-.5.2c-.2,0-.3-.2-.5-.4a1.3,1.3,0,0,1-.3-.8,32.6,32.6,0,0,1,1.1-3.1,2,2,0,0,1-1.3.5,1.9,1.9,0,0,1-1.3-.7,1.9,1.9,0,0,1-.6-1.3,3.3,3.3,0,0,1,.4-1.4,7,7,0,0,1,.9-1.7,6.7,6.7,0,0,1,1.4-1.5,2.9,2.9,0,0,1,1.6-.6,1.6,1.6,0,0,1,1.3.7,1.9,1.9,0,0,1,.7,1.2.4.4,0,0,1-.4.4l-.5-.3-.6-.3a2.1,2.1,0,0,0-1.4.8A6.5,6.5,0,0,0,81.6,91a2.8,2.8,0,0,0-.5,1.2h.2a2.8,2.8,0,0,0,1.5-.8,4.1,4.1,0,0,0,1.2-2c.1-.2.2-.3.4-.3l.8.4.6.6a2.3,2.3,0,0,1-.3.9,16,16,0,0,1-.7,1.9Z"/><path d="M91.6,87.3c.1-.3.2-.4.5-.4a1,1,0,0,1,.7.6,1.9,1.9,0,0,1,.5,1,11.3,11.3,0,0,1-.7,2c-.4,1.3-.7,2.3-1,3s-.3.6-.6.6-.4,0-.5-.2a.8.8,0,0,1-.2-.6,7.4,7.4,0,0,1,.2-1.2c-1,1.3-1.7,2-2.3,2a2.1,2.1,0,0,1-1.1-.5,1.7,1.7,0,0,1-.6-1.2,10.8,10.8,0,0,1,.8-3.4c.5-1.4.9-2.1,1.4-2.1a.8.8,0,0,1,.7.4,1.1,1.1,0,0,1,.3.8,4.2,4.2,0,0,1-.3.9,9.5,9.5,0,0,0-1.1,3.3.1.1,0,0,0,.1.1l.8-.7,1.3-1.9A13.6,13.6,0,0,0,91.6,87.3Z"/><path d="M98.9,90.8a4.9,4.9,0,0,1-2,.5H95.3a1.7,1.7,0,0,0-.1.7c0,.3,0,.5.1.6H96a5,5,0,0,0,1.8-.2l.7-.2c.4,0,.6.2.6.4s-.3.7-.9,1a3.6,3.6,0,0,1-2.1.5,2.5,2.5,0,0,1-1.9-.7,2.4,2.4,0,0,1-.7-1.8,4.8,4.8,0,0,1,.6-2.1,6.5,6.5,0,0,1,1.5-1.8,2.9,2.9,0,0,1,1.8-.8,2.1,2.1,0,0,1,1.6.9,2.7,2.7,0,0,1,.8,1.7C99.8,90,99.5,90.4,98.9,90.8Zm-1-1.9a.9.9,0,0,0-.6-.3c-.2,0-.4.2-.7.4a4.3,4.3,0,0,0-.7,1h.3c1.3,0,2-.2,2-.7Z"/><path d="M111.1,90.8a4.5,4.5,0,0,1-1.9.5h-1.6a1.9,1.9,0,0,0-.2.7.8.8,0,0,0,.2.6h.6a5,5,0,0,0,1.8-.2l.8-.2a.5.5,0,0,1,.5.4c0,.4-.3.7-.9,1a3.6,3.6,0,0,1-2.1.5,2.6,2.6,0,0,1-1.9-.7,2.9,2.9,0,0,1-.7-1.8,4.8,4.8,0,0,1,.6-2.1,6.5,6.5,0,0,1,1.5-1.8,2.9,2.9,0,0,1,1.8-.8,2.1,2.1,0,0,1,1.6.9,2.2,2.2,0,0,1,.8,1.7C112,90,111.7,90.4,111.1,90.8Zm-1-1.9a.9.9,0,0,0-.6-.3l-.6.4a2.7,2.7,0,0,0-.8,1h.4c1.2,0,1.9-.2,1.9-.7Z"/><path d="M115.4,83.6a1.6,1.6,0,0,1,.5,1.2,18.2,18.2,0,0,1-.1,2c-.1.9-.3,1.7-.4,2.3-.8,3.3-1.3,5-1.6,5a1,1,0,0,1-.8-.5,1.2,1.2,0,0,1-.4-.8,13.1,13.1,0,0,1,.4-1.4c.2-1,.5-2.2.7-3.7a21.5,21.5,0,0,0,.4-4.3c0-.3.1-.4.4-.4A1.2,1.2,0,0,1,115.4,83.6Z"/><path d="M126.1,86.9c.4,0,.7.2,1.1.7a2.1,2.1,0,0,1,.5,1.1.3.3,0,0,1-.3.3h-1.1a2.2,2.2,0,0,0-1,.2q-.6.1-.6.6c0,.1.1.2.4.4l.8.5.8.8a1.5,1.5,0,0,1,.4,1.1c0,.4-.3.8-.9,1.1a3.2,3.2,0,0,1-2,.6,3,3,0,0,1-1.9-.5,1.4,1.4,0,0,1-.8-1c0-.4.1-.6.4-.6h.5a2.9,2.9,0,0,0,1.7.5c.7,0,1.1-.1,1.1-.3s-.2-.4-.4-.7l-.9-.6-.9-.7a2,2,0,0,1-.4-.8c0-.5.5-1.1,1.4-1.7A4.3,4.3,0,0,1,126.1,86.9Z"/><path d="M133.6,90.8a4.9,4.9,0,0,1-2,.5H130c0,.2-.1.5-.1.7a3.5,3.5,0,0,0,.1.6h.7a5,5,0,0,0,1.8-.2l.7-.2c.4,0,.6.2.6.4s-.3.7-.9,1a3.6,3.6,0,0,1-2.1.5,2.5,2.5,0,0,1-1.9-.7,2.9,2.9,0,0,1-.7-1.8,4.8,4.8,0,0,1,.6-2.1,6.5,6.5,0,0,1,1.5-1.8,2.9,2.9,0,0,1,1.8-.8,2.1,2.1,0,0,1,1.6.9,2.7,2.7,0,0,1,.8,1.7C134.5,90,134.2,90.4,133.6,90.8Zm-1-1.9a.9.9,0,0,0-.6-.3c-.2,0-.4.2-.6.4a2.7,2.7,0,0,0-.8,1h.3c1.3,0,2-.2,2-.7Z"/><path d="M135.8,89.3V87.7c0-.5.2-.8.5-.8l.6.2a1.6,1.6,0,0,1,.4.7l1-.7,1-.3c.7,0,1.1.2,1.1.5s-.1.3-.1.4l-.2.2h-.1c-.1.1-.2.1-.2.2l-.5.2a5.2,5.2,0,0,0-1.1,1,3.4,3.4,0,0,0-.6,1.5,11,11,0,0,1-.8,2.4c-.2.6-.5.8-.8.8a.5.5,0,0,1-.6-.4,1.2,1.2,0,0,1-.2-.8,8.9,8.9,0,0,1,.2-1.1,9.3,9.3,0,0,0,.4-1.3A4.5,4.5,0,0,0,135.8,89.3Z"/><path d="M40.4,101.2c0-.4.1-.6.4-.6a1.2,1.2,0,0,1,.9.6,2.1,2.1,0,0,1,.5,1.1,10.5,10.5,0,0,1-.2,1.3c-.1.5-.3,1-.4,1.4s-.3,1.1-.5,2l-.6,1.7a10.4,10.4,0,0,1,2-3c.6-.8,1.2-1.2,1.7-1.2s.6.3,1,.8a2.7,2.7,0,0,1,.5,1.3,16.2,16.2,0,0,1-.2,1.8,10.5,10.5,0,0,1-.8,2.3c-.4.7-.7,1-1.1,1s-.5-.2-.5-.6a6.9,6.9,0,0,1,.3-1.6c.2-1.1.4-1.7.4-1.9a.6.6,0,0,0-.1-.4q-.9,0-2.4,2.7l-.9,1.4a.9.9,0,0,1-.7.4,1,1,0,0,1-.8-.5,1.2,1.2,0,0,1-.4-.8,2.5,2.5,0,0,1,.1-.8c.1-.4.2-.9.4-1.6s.4-2,.8-3.8S40.4,101.4,40.4,101.2Z"/><path d="M51.4,104.9c.1-.3.2-.4.4-.4s.5.2.8.6a1.9,1.9,0,0,1,.5,1,11.3,11.3,0,0,1-.7,2c-.4,1.3-.7,2.3-1,3s-.3.6-.6.6-.4,0-.5-.2a.8.8,0,0,1-.2-.6,7.4,7.4,0,0,1,.2-1.2c-1,1.3-1.7,2-2.3,2a2.1,2.1,0,0,1-1.1-.5,1.7,1.7,0,0,1-.6-1.2,10.2,10.2,0,0,1,.7-3.4q.8-2.1,1.5-2.1a.9.9,0,0,1,.7.4,1.1,1.1,0,0,1,.3.8l-.3.9a7.7,7.7,0,0,0-1.1,3.3h.1l.8-.7,1.3-1.9A27.2,27.2,0,0,0,51.4,104.9Z"/><path d="M62.7,104.5a1.1,1.1,0,0,1,.9.7,2.7,2.7,0,0,1,.4,1.4c0,.4-.1,1-.2,1.8a9.7,9.7,0,0,1-.8,2.2c-.3.8-.7,1.1-1,1.1s-.5-.2-.5-.6a8,8,0,0,1,.4-2.1,10.5,10.5,0,0,0,.3-1.8c0-.3,0-.5-.1-.5s-.4.2-.7.7a19.4,19.4,0,0,0-1,1.7c-.4.7-.6,1.2-.7,1.4s-.2.3-.2.5l-.2.3q-.4.8-1.2,0a.7.7,0,0,1-.4-.6c0-.1.1-.4.2-1.1a8.5,8.5,0,0,0,.3-2.3c0-.4-.1-.6-.2-.6s-.2.1-.4.4l-.6,1.2-.8,1.4c-.8,1.4-1.4,2-1.8,2a1,1,0,0,1-.8-.5,1.5,1.5,0,0,1-.5-.8,12.8,12.8,0,0,1,.4-1.3,14.3,14.3,0,0,0,.4-2.2c0-.8.1-1.4.1-1.8s.2-.7.4-.7a1.4,1.4,0,0,1,1,.4,1.5,1.5,0,0,1,.5.8,11.3,11.3,0,0,1-.6,2.9,13.9,13.9,0,0,1,1.6-3.1,2.1,2.1,0,0,1,1.4-.9c.3,0,.6.2.9.7a1.7,1.7,0,0,1,.6,1.2,2.8,2.8,0,0,1-.1,1,6.6,6.6,0,0,1,1.4-2A2.2,2.2,0,0,1,62.7,104.5Z"/><path d="M70.7,107.8c.2.1.3.2.3.4l-.2.7a5.1,5.1,0,0,0-.2.9,1.1,1.1,0,0,0-.1.5.4.4,0,0,0-.1.3v.9h-.4c-.1,0-.3-.1-.5-.4a1.9,1.9,0,0,1-.4-.9,3.5,3.5,0,0,1-2.2,1.3,2.2,2.2,0,0,1-1.3-.6,1.9,1.9,0,0,1-.7-1.4,5.5,5.5,0,0,1,.6-1.9,8.2,8.2,0,0,1,1.6-2.2,3.1,3.1,0,0,1,2.1-1.1,2.3,2.3,0,0,1,1.4.7,1.9,1.9,0,0,1,.7,1.2A2.7,2.7,0,0,1,70.7,107.8ZM66.6,110a2.8,2.8,0,0,0,1.5-.8,3.5,3.5,0,0,0,1.2-1.9l.2-.2c0-.5-.1-.8-.3-.8a1.9,1.9,0,0,0-1.2.7,5.7,5.7,0,0,0-1.1,1.6,2.8,2.8,0,0,0-.5,1.2c0,.1,0,.1.1.1Z"/><path d="M77,104.5a1.5,1.5,0,0,1,1.3.7,2,2,0,0,1,.6,1.4,7.1,7.1,0,0,1-.4,2.4,8.1,8.1,0,0,1-.8,2,1.3,1.3,0,0,1-1,.7c-.3,0-.4-.2-.4-.6a8.7,8.7,0,0,1,.4-2.1,5.4,5.4,0,0,0,.4-1.8c0-.3-.1-.5-.2-.5l-.3.2-.3.3-.3.4c-.1.1-.2.2-.2.3l-.3.5-.2.4-.3.5c-.9,1.6-1.5,2.4-2,2.4a1,1,0,0,1-.8-.5,1.3,1.3,0,0,1-.4-.7,1.2,1.2,0,0,1,.2-.7l.3-.8c0-.2.1-.4.1-.6a1.3,1.3,0,0,0,.1-.6,1.5,1.5,0,0,0,.1-.6v-.6a7,7,0,0,1,.3-2l.2-.2a1.4,1.4,0,0,1,1,.4,1.5,1.5,0,0,1,.5.8,9.9,9.9,0,0,1-.5,2.5l1.7-2.6C76.3,104.8,76.7,104.5,77,104.5Z"/><path d="M80.7,106.1c.7-1.1,1.4-1.6,2.1-1.6a2.4,2.4,0,0,1,1.8.7,2.5,2.5,0,0,1,.7,1.9,4.1,4.1,0,0,1-.5,2.1,4.9,4.9,0,0,1-1.4,1.8,2.8,2.8,0,0,1-1.9.7,1.7,1.7,0,0,1-1.4-.7,2.8,2.8,0,0,1-.5-1.6A5.1,5.1,0,0,1,80.7,106.1Zm2.2,2.8a3.5,3.5,0,0,0,.6-1.9,1.7,1.7,0,0,0-.3-1.2,2.7,2.7,0,0,0-1.1,1.5,4.1,4.1,0,0,0-.6,1.9,2.5,2.5,0,0,0,.1,1.1A2.6,2.6,0,0,0,82.9,108.9Z"/><path d="M95.9,104.5a1.3,1.3,0,0,1,1,.7,1.7,1.7,0,0,1,.6,1.1.3.3,0,0,1-.3.3H96a1.8,1.8,0,0,0-.9.2c-.5.1-.7.3-.7.6s.1.2.4.4l.8.5.9.8a2,2,0,0,1,.3,1.1,1.4,1.4,0,0,1-.8,1.1,3.4,3.4,0,0,1-2,.6,3.3,3.3,0,0,1-2-.5,1.4,1.4,0,0,1-.8-1c0-.4.2-.6.5-.6h.4a3.5,3.5,0,0,0,1.8.5c.6,0,1-.1,1-.3s-.1-.4-.4-.7l-.9-.6a2.7,2.7,0,0,1-.8-.7,1.2,1.2,0,0,1-.4-.8c0-.5.4-1.1,1.3-1.7A4.6,4.6,0,0,1,95.9,104.5Z"/><path d="M103.3,108.4a4.5,4.5,0,0,1-1.9.5H99.8a1.7,1.7,0,0,0-.1.7c0,.3,0,.5.1.6h.6a5,5,0,0,0,1.8-.2l.8-.2c.4,0,.6.2.6.4s-.3.7-.9,1a3.6,3.6,0,0,1-2.1.5,2.5,2.5,0,0,1-1.9-.7,2.4,2.4,0,0,1-.7-1.8,4.8,4.8,0,0,1,.6-2.1,8.6,8.6,0,0,1,1.4-1.8,2.9,2.9,0,0,1,1.8-.8,2.2,2.2,0,0,1,1.7.9,2.5,2.5,0,0,1,.7,1.7C104.2,107.6,103.9,108,103.3,108.4Zm-1-1.9-.5-.3c-.2,0-.4.2-.7.4a4.4,4.4,0,0,0-.8,1h.4c1.3,0,1.9-.2,1.9-.7S102.5,106.7,102.3,106.5Z"/><path d="M110.7,107.8c.2.1.3.2.3.4l-.2.7a5.1,5.1,0,0,0-.2.9,4.3,4.3,0,0,1-.1.5v.3c0,.1-.1.1-.1.3v.4c0,.1,0,.1-.1.2h-.1c0,.1-.1.1-.3.1l-.4-.4a1.9,1.9,0,0,1-.5-.9,3.3,3.3,0,0,1-2.2,1.3,2.2,2.2,0,0,1-1.3-.6,2.3,2.3,0,0,1-.7-1.4,5.5,5.5,0,0,1,.6-1.9,8.7,8.7,0,0,1,1.7-2.2,3.1,3.1,0,0,1,2-1.1,2.1,2.1,0,0,1,1.4.7c.5.5.8.9.8,1.2A3,3,0,0,1,110.7,107.8Zm-4,2.2a3.6,3.6,0,0,0,1.5-.8,2.9,2.9,0,0,0,1.1-1.9c0-.1.1-.2.3-.2s-.2-.8-.3-.8a1.9,1.9,0,0,0-1.3.7,9.1,9.1,0,0,0-1.1,1.6,2.4,2.4,0,0,0-.4,1.2h.2Z"/><path d="M122.7,108.4a4.9,4.9,0,0,1-1.9.5h-1.7c0,.2-.1.5-.1.7a3.5,3.5,0,0,0,.1.6h.7a5,5,0,0,0,1.8-.2l.8-.2a.5.5,0,0,1,.5.4c0,.4-.3.7-.9,1a3.6,3.6,0,0,1-2.1.5,2.5,2.5,0,0,1-1.9-.7,2.9,2.9,0,0,1-.7-1.8,4.8,4.8,0,0,1,.6-2.1,6.5,6.5,0,0,1,1.5-1.8,2.9,2.9,0,0,1,1.8-.8,2.1,2.1,0,0,1,1.6.9,2.7,2.7,0,0,1,.8,1.7C123.6,107.6,123.3,108,122.7,108.4Zm-1-1.9a.9.9,0,0,0-.6-.3l-.6.4a2.7,2.7,0,0,0-.8,1h.4c1.2,0,1.9-.2,1.9-.7S121.9,106.7,121.7,106.5Z"/><path d="M127,101.2a1.6,1.6,0,0,1,.5,1.2,18.2,18.2,0,0,1-.1,2c-.1.9-.3,1.7-.4,2.3-.8,3.3-1.3,5-1.6,5a1,1,0,0,1-.8-.5,1.2,1.2,0,0,1-.4-.8l.3-1.4a23.3,23.3,0,0,0,.8-3.7,21.5,21.5,0,0,0,.4-4.3c0-.3.1-.4.4-.4S126.6,100.8,127,101.2Z"/><path d="M24,127.1a4.8,4.8,0,0,1,.6-2.1,6.4,6.4,0,0,1,1.6-2,3.2,3.2,0,0,1,2-.9,1.3,1.3,0,0,1,1,.7,1.5,1.5,0,0,1,.5,1.1c0,.2-.1.4-.3.4l-.5-.2h-.6a1,1,0,0,0-.8.5,6.3,6.3,0,0,0-1.1,1.2,4.1,4.1,0,0,0-.4,1.2c0,.3.1.5.2.5a1,1,0,0,0,.7.2h1.2l.7-.3h.5c.2,0,.4.1.4.3s-.4.9-1.1,1.3a4.3,4.3,0,0,1-2.2.6,2.5,2.5,0,0,1-1.5-.7A2,2,0,0,1,24,127.1Z"/><path d="M36.2,126a4.5,4.5,0,0,1-1.9.5H32.7a1.9,1.9,0,0,0-.2.7.8.8,0,0,0,.2.6h.6a5,5,0,0,0,1.8-.2l.8-.2c.4,0,.5.2.5.4s-.3.7-.9,1a3.5,3.5,0,0,1-2,.5,2.4,2.4,0,0,1-1.9-.7,2.5,2.5,0,0,1-.8-1.8,4.5,4.5,0,0,1,.6-2.1,6.5,6.5,0,0,1,1.5-1.8,2.9,2.9,0,0,1,1.8-.8,2.2,2.2,0,0,1,1.7.9,2.5,2.5,0,0,1,.7,1.7C37.1,125.2,36.8,125.6,36.2,126Zm-1-1.9-.6-.3-.6.4a4.4,4.4,0,0,0-.8,1h.4c1.3,0,1.9-.2,1.9-.7Z"/><path d="M42.8,122.1a1.6,1.6,0,0,1,1.3.7,2,2,0,0,1,.6,1.4,10.9,10.9,0,0,1-.4,2.4,7.7,7.7,0,0,1-.9,2c-.3.5-.6.7-.9.7s-.5-.2-.5-.6a11.2,11.2,0,0,1,.5-2.1,10.1,10.1,0,0,0,.4-1.8c0-.3-.1-.5-.2-.5l-.3.2-.3.3-.3.4-.2.3-.3.5-.3.4c0,.2-.1.3-.2.5s-1.6,2.4-2.1,2.4-.4-.1-.7-.5a1.3,1.3,0,0,1-.4-.7,1.2,1.2,0,0,1,.2-.7l.3-.8c0-.2.1-.4.1-.6s.1-.4.1-.6.1-.4.1-.6v-.6c.1-1.2.2-1.9.2-2l.2-.2a1.7,1.7,0,0,1,1.1.4,1.5,1.5,0,0,1,.5.8,9.9,9.9,0,0,1-.5,2.5l1.7-2.6C42.1,122.4,42.5,122.1,42.8,122.1Z"/><path d="M48.7,124.8a15.4,15.4,0,0,1-.5,1.7l-.3,1.1c0,.1.1.1.2.1l1.1-.3,1-.3c.3,0,.4.1.4.4s-.3.7-1,1.2a3.3,3.3,0,0,1-1.9.6,1.5,1.5,0,0,1-1.1-.5,1.2,1.2,0,0,1-.6-1c0-.2.2-.8.4-1.7l.6-1.9-.8.2c-.2,0-.4-.2-.6-.4a1.3,1.3,0,0,1-.3-.7c0-.3.7-.6,2.2-.8a21.5,21.5,0,0,0,.2-2.3.5.5,0,0,1,.5-.4,2.1,2.1,0,0,1,.9.5,1,1,0,0,1,.5.8,5.7,5.7,0,0,1-.1,1.2h1c.7,0,1,.2,1,.5s-.2.4-.6.5l-1.8.5Z"/><path d="M52.5,124.5v-1.6c0-.5.2-.8.5-.8l.6.2a1.6,1.6,0,0,1,.4.7l1-.7,1-.3c.7,0,1.1.2,1.1.5s-.1.3-.1.4l-.2.2h-.1c-.1.1-.2.1-.2.2l-.5.2a5.2,5.2,0,0,0-1.1,1,3.4,3.4,0,0,0-.6,1.5,11,11,0,0,1-.8,2.4c-.2.6-.5.8-.8.8a.5.5,0,0,1-.6-.4,1.2,1.2,0,0,1-.2-.8A8.9,8.9,0,0,1,52,127a9.3,9.3,0,0,0,.4-1.3A4.5,4.5,0,0,0,52.5,124.5Z"/><path d="M57.8,123.7c.8-1.1,1.5-1.6,2.2-1.6a2.4,2.4,0,0,1,1.8.7,2.5,2.5,0,0,1,.7,1.9,5.4,5.4,0,0,1-.5,2.1,4.9,4.9,0,0,1-1.4,1.8,3.1,3.1,0,0,1-2,.7,1.6,1.6,0,0,1-1.3-.7,2.3,2.3,0,0,1-.6-1.6A5.7,5.7,0,0,1,57.8,123.7Zm2.3,2.8a3.5,3.5,0,0,0,.6-1.9,1.7,1.7,0,0,0-.3-1.2,3.2,3.2,0,0,0-1.2,1.5,4.1,4.1,0,0,0-.6,1.9,2,2,0,0,0,.2,1.1A3,3,0,0,0,60.1,126.5Z"/><path d="M74.6,118.2q.3,0,.9.6a2.1,2.1,0,0,1,.5,1.1c0,.2-.2,1-.5,2.3l-.6,2.3c-.7,3.2-1.3,4.8-1.6,4.8l-.7-.3a1.3,1.3,0,0,1-.3-.7h0c-1,.7-1.6,1.1-2,1.1a1.7,1.7,0,0,1-1.2-.6,1.9,1.9,0,0,1-.6-1.2,5,5,0,0,1,.2-1.2,10.3,10.3,0,0,1,.4-1.4l.7-1.3a3.6,3.6,0,0,1,1-1.1,1.9,1.9,0,0,1,1.2-.4,1.5,1.5,0,0,1,1.4.9,27.8,27.8,0,0,0,.8-4.4C74.2,118.3,74.3,118.2,74.6,118.2Zm-4.2,9.4a2.2,2.2,0,0,0,1.2-.6,4,4,0,0,0,1.3-1.6,1.2,1.2,0,0,1-.1-.5,1,1,0,0,0-.2-.7c-.2-.2-.3-.3-.5-.3a1.2,1.2,0,0,0-.8.4l-.6,1.1a7.1,7.1,0,0,0-.5,2h.2Z"/><path d="M81.5,126a4.5,4.5,0,0,1-1.9.5H78a1.9,1.9,0,0,0-.2.7.8.8,0,0,0,.2.6h.6a5,5,0,0,0,1.8-.2l.8-.2a.5.5,0,0,1,.5.4c0,.4-.3.7-.9,1a3.6,3.6,0,0,1-2.1.5,2.3,2.3,0,0,1-1.8-.7,2.5,2.5,0,0,1-.8-1.8,4.5,4.5,0,0,1,.6-2.1,6.5,6.5,0,0,1,1.5-1.8,2.9,2.9,0,0,1,1.8-.8,2.4,2.4,0,0,1,1.7.9,2.5,2.5,0,0,1,.7,1.7C82.4,125.2,82.1,125.6,81.5,126Zm-1-1.9-.6-.3-.6.4a2.7,2.7,0,0,0-.8,1h.4c1.2,0,1.9-.2,1.9-.7Z"/><path d="M88.4,127.1A4.8,4.8,0,0,1,89,125a5.3,5.3,0,0,1,1.6-2,3,3,0,0,1,2-.9c.3,0,.6.2,1,.7a2.1,2.1,0,0,1,.5,1.1.4.4,0,0,1-.4.4l-.4-.2h-.6a1.4,1.4,0,0,0-.9.5,5.8,5.8,0,0,0-1,1.2,2.4,2.4,0,0,0-.4,1.2c0,.3,0,.5.1.5l.8.2h1.1l.8-.3h.4c.3,0,.4.1.4.3s-.3.9-1,1.3a4.9,4.9,0,0,1-2.2.6,2.5,2.5,0,0,1-1.6-.7A2.2,2.2,0,0,1,88.4,127.1Z"/><path d="M100.1,122.5c.1-.3.2-.4.5-.4a1,1,0,0,1,.7.6,1.9,1.9,0,0,1,.5,1,11.3,11.3,0,0,1-.7,2c-.4,1.3-.7,2.3-1,3s-.3.6-.6.6-.4,0-.5-.2a.8.8,0,0,1-.2-.6,7.4,7.4,0,0,1,.2-1.2c-1,1.3-1.7,2-2.3,2a2.1,2.1,0,0,1-1.1-.5,1.7,1.7,0,0,1-.6-1.2,8.6,8.6,0,0,1,.8-3.4c.5-1.4.9-2.1,1.4-2.1a.8.8,0,0,1,.7.4,1.1,1.1,0,0,1,.3.8,4.2,4.2,0,0,1-.3.9,9.5,9.5,0,0,0-1.1,3.3h.1l.8-.7L99,125A13.6,13.6,0,0,0,100.1,122.5Z"/><path d="M108,125.4a.5.5,0,0,1,.2.4,1.4,1.4,0,0,1-.2.7,6.4,6.4,0,0,1-.2.9.7.7,0,0,1-.1.5v.3c0,.1,0,.1-.1.3v.2c0,.1-.1.1-.1.2v.2h-.1c0,.1-.1.1-.2.1s-.3-.1-.5-.4a1.3,1.3,0,0,1-.4-.9,3.6,3.6,0,0,1-2.3,1.3,2.2,2.2,0,0,1-1.3-.6,2.3,2.3,0,0,1-.7-1.4,5.5,5.5,0,0,1,.6-1.9,8.7,8.7,0,0,1,1.7-2.2,3.1,3.1,0,0,1,2.1-1.1,2.1,2.1,0,0,1,1.3.7c.5.5.8.9.8,1.2A4.3,4.3,0,0,1,108,125.4Zm-4.1,2.2a2.8,2.8,0,0,0,1.5-.8,2.9,2.9,0,0,0,1.1-1.9c0-.1.1-.2.3-.2s-.1-.8-.3-.8a1.5,1.5,0,0,0-1.2.7,6.1,6.1,0,0,0-1.2,1.6,2.4,2.4,0,0,0-.4,1.2h.2Z"/><path d="M112,118.8a2.1,2.1,0,0,1,.5,1.2,18.2,18.2,0,0,1-.1,2c-.2.9-.3,1.7-.4,2.3-.8,3.3-1.3,5-1.6,5a1,1,0,0,1-.8-.5,1.2,1.2,0,0,1-.4-.8l.3-1.4c.3-1,.5-2.2.8-3.7a21.5,21.5,0,0,0,.4-4.3c0-.3.1-.4.4-.4S111.6,118.4,112,118.8Z"/><path d="M117.4,130.4l1-.3.5.2a.5.5,0,0,1,0,.8l-.7.5-1,.7-.8.6-.6.2-.5-.4a1.2,1.2,0,0,1-.2-.8,16,16,0,0,1,1.1-3.1,2.4,2.4,0,0,1-1.4.5,1.5,1.5,0,0,1-1.2-.7,1.7,1.7,0,0,1-.7-1.3,3.3,3.3,0,0,1,.4-1.4,14,14,0,0,1,.9-1.7,5.4,5.4,0,0,1,1.5-1.5,2.4,2.4,0,0,1,1.5-.6,1.7,1.7,0,0,1,1.4.7,1.7,1.7,0,0,1,.6,1.2c0,.3-.1.4-.4.4l-.5-.3-.6-.3a2.3,2.3,0,0,0-1.4.8,10.1,10.1,0,0,0-1.3,1.6,2.8,2.8,0,0,0-.5,1.2h.3a3.1,3.1,0,0,0,1.5-.9,3.5,3.5,0,0,0,1.2-1.9.3.3,0,0,1,.3-.3l.9.4.5.6a5.1,5.1,0,0,1-.2.9,20.5,20.5,0,0,1-.8,1.9Z"/><path d="M125.1,122.5a.4.4,0,0,1,.4-.4c.2,0,.5.2.8.6a1.6,1.6,0,0,1,.4,1,17.9,17.9,0,0,1-.6,2c-.5,1.3-.8,2.3-1,3a.7.7,0,0,1-.7.6c-.2,0-.3,0-.4-.2s-.2-.3-.2-.6a5.7,5.7,0,0,1,.1-1.2c-.9,1.3-1.7,2-2.3,2a1.9,1.9,0,0,1-1-.5,1.5,1.5,0,0,1-.7-1.2,10.8,10.8,0,0,1,.8-3.4c.5-1.4,1-2.1,1.4-2.1a.8.8,0,0,1,.7.4.9.9,0,0,1,.4.8c0,.1-.2.4-.4.9a9.5,9.5,0,0,0-1.1,3.3h.1c.2,0,.4-.3.8-.7l1.3-1.9A14.2,14.2,0,0,0,125.1,122.5Z"/><path d="M128.5,122.1c.4,0,.6.2.9.6a1.4,1.4,0,0,1,.4,1,17.2,17.2,0,0,1-.5,2,28.1,28.1,0,0,1-1,3.1.6.6,0,0,1-.6.5l-.6-.2a1.4,1.4,0,0,1-.2-.6,12.9,12.9,0,0,1,.3-1.9,14.9,14.9,0,0,0,.6-2.5,9.6,9.6,0,0,1,.3-1.5C128.2,122.3,128.4,122.1,128.5,122.1Zm-.2-1.7a1.3,1.3,0,0,1,.3-.8c.3-.2.5-.4.7-.4s.4.3.7.8a3.1,3.1,0,0,1,.5,1.1.5.5,0,0,1-.3.5l-.4.2a1.9,1.9,0,0,1-1-.5A2.1,2.1,0,0,1,128.3,120.4Z"/><path d="M135.9,126a4.1,4.1,0,0,1-1.9.5h-1.6a1.7,1.7,0,0,0-.1.7c0,.3,0,.5.1.6h.6a5,5,0,0,0,1.8-.2l.8-.2c.4,0,.6.2.6.4s-.3.7-.9,1a3.6,3.6,0,0,1-2.1.5,2.5,2.5,0,0,1-1.9-.7,2.4,2.4,0,0,1-.7-1.8,4.5,4.5,0,0,1,.6-2.1,6.5,6.5,0,0,1,1.5-1.8,2.9,2.9,0,0,1,1.8-.8,2.2,2.2,0,0,1,1.6.9,2.7,2.7,0,0,1,.8,1.7C136.9,125.2,136.5,125.6,135.9,126Zm-1-1.9c-.2-.2-.3-.3-.5-.3s-.4.2-.7.4a4.4,4.4,0,0,0-.8,1h.4c1.3,0,1.9-.2,1.9-.7Z"/><path d="M138.2,124.5v-1.6c0-.5.2-.8.5-.8l.5.2a1.8,1.8,0,0,1,.5.7l1-.7,1-.3c.7,0,1,.2,1,.5s0,.3-.1.4v.2h-.2l-.2.2-.4.2a4,4,0,0,0-1.8,2.5,12.1,12.1,0,0,1-.7,2.4c-.2.6-.5.8-.8.8a.8.8,0,0,1-.7-.4,2.4,2.4,0,0,1-.2-.8,3.6,3.6,0,0,1,.3-1.1,9.3,9.3,0,0,0,.4-1.3A4.5,4.5,0,0,0,138.2,124.5Z"/><path d="M25.5,142.4a15.4,15.4,0,0,1-.5,1.7l-.3,1.1c0,.1,0,.1.2.1L26,145l1-.3c.3,0,.4.1.4.4s-.3.7-1,1.2a3.3,3.3,0,0,1-1.9.6,1.5,1.5,0,0,1-1.1-.5,1.2,1.2,0,0,1-.6-1,6.9,6.9,0,0,1,.4-1.7l.6-1.9-.8.2c-.2,0-.4-.2-.6-.4a1.3,1.3,0,0,1-.3-.7c0-.3.7-.6,2.1-.8a10.4,10.4,0,0,0,.3-2.3.4.4,0,0,1,.4-.4,1.9,1.9,0,0,1,1,.5,1.5,1.5,0,0,1,.5.8,3,3,0,0,1-.2,1.2h1.1c.7,0,1,.2,1,.5s-.2.4-.6.5l-1.9.5A2.6,2.6,0,0,1,25.5,142.4Z"/><path d="M30.1,139.7a1.2,1.2,0,0,1,.9.6,2.1,2.1,0,0,1,.4,1,17.2,17.2,0,0,1-.5,2c-.3,1.1-.7,2.1-1,3.1a.7.7,0,0,1-.7.5l-.5-.2a1.4,1.4,0,0,1-.2-.6,12.9,12.9,0,0,1,.3-1.9,14.9,14.9,0,0,0,.6-2.5,9.6,9.6,0,0,1,.3-1.5C29.8,139.9,30,139.7,30.1,139.7Zm-.2-1.7a1.3,1.3,0,0,1,.3-.8c.3-.2.5-.4.7-.4s.4.3.7.8a3.1,3.1,0,0,1,.5,1.1.5.5,0,0,1-.3.5l-.4.2a1.9,1.9,0,0,1-1-.5A2.1,2.1,0,0,1,29.9,138Z"/><path d="M37.3,139.7c.3,0,.7.3,1.1.9a3.8,3.8,0,0,1,.6,1.9,2.7,2.7,0,0,1-.5,1.3,7.9,7.9,0,0,1-1.2,1.5,7.1,7.1,0,0,1-1.7,1.1,4.1,4.1,0,0,1-1.8.5h-.1c-.6,2.5-1,3.7-1.3,3.7s-.4-.2-.6-.5a1.6,1.6,0,0,1-.3-.8,10.4,10.4,0,0,1,.4-2,34.2,34.2,0,0,0,1.2-7.4c0-.3.1-.4.4-.4a1.2,1.2,0,0,1,.8.4,1.3,1.3,0,0,1,.7.9A3.5,3.5,0,0,1,37.3,139.7ZM36.2,144a2.6,2.6,0,0,0,.9-1.7c0-.5-.1-.7-.4-.7a1.5,1.5,0,0,0-1.2.7,1.8,1.8,0,0,0-.6.8,8.1,8.1,0,0,0-.6,1.3l-.2.8A3.8,3.8,0,0,0,36.2,144Z"/><path d="M40.7,141.3a2.9,2.9,0,0,1,2.2-1.6,2.4,2.4,0,0,1,1.8.7,2.9,2.9,0,0,1,.7,1.9,5.4,5.4,0,0,1-.5,2.1,6.2,6.2,0,0,1-1.4,1.8,3.1,3.1,0,0,1-2,.7,1.6,1.6,0,0,1-1.3-.7,2.3,2.3,0,0,1-.6-1.6A5.7,5.7,0,0,1,40.7,141.3Zm2.3,2.8a3.5,3.5,0,0,0,.6-1.9,1.7,1.7,0,0,0-.3-1.2,3.2,3.2,0,0,0-1.2,1.5,4.1,4.1,0,0,0-.6,1.9,2,2,0,0,0,.2,1.1A3,3,0,0,0,43,144.1Z"/><path d="M57.5,135.8c.2,0,.5.2.8.6a1.7,1.7,0,0,1,.6,1.1c0,.2-.2,1-.5,2.3l-.6,2.3c-.7,3.2-1.3,4.8-1.6,4.8l-.7-.3a1.3,1.3,0,0,1-.4-.7h.1a3.8,3.8,0,0,1-2.1,1.1,1.5,1.5,0,0,1-1.1-.6,1.9,1.9,0,0,1-.6-1.2,6,6,0,0,1,.2-1.2,10.3,10.3,0,0,1,.4-1.4,8.3,8.3,0,0,1,.7-1.3,3.6,3.6,0,0,1,1-1.1,1.7,1.7,0,0,1,2.6.5,17.3,17.3,0,0,0,.7-4.4C57,135.9,57.2,135.8,57.5,135.8Zm-4.2,9.4a2.2,2.2,0,0,0,1.2-.6,3.1,3.1,0,0,0,1.2-1.6v-.5a1.9,1.9,0,0,0-.2-.7c-.2-.2-.3-.3-.5-.3a1,1,0,0,0-.8.4l-.6,1.1a7.1,7.1,0,0,0-.5,2h.2Z"/><path d="M64.4,143.6a4.9,4.9,0,0,1-1.9.5H60.8c0,.2-.1.5-.1.7a3.5,3.5,0,0,0,.1.6h.7a5,5,0,0,0,1.8-.2l.7-.2c.4,0,.6.2.6.4s-.3.7-.9,1a3.6,3.6,0,0,1-2.1.5,2.5,2.5,0,0,1-1.9-.7,2.9,2.9,0,0,1-.7-1.8,4.8,4.8,0,0,1,.6-2.1,6.5,6.5,0,0,1,1.5-1.8,2.9,2.9,0,0,1,1.8-.8,2.1,2.1,0,0,1,1.6.9,2.7,2.7,0,0,1,.8,1.7C65.3,142.8,65,143.2,64.4,143.6Zm-1-1.9-.6-.3-.6.4a2.7,2.7,0,0,0-.8,1h.4c1.2,0,1.9-.2,1.9-.7Z"/><path d="M72.8,139.7c.4,0,.6.2.9.6a1.4,1.4,0,0,1,.4,1,17.2,17.2,0,0,1-.5,2,28.1,28.1,0,0,1-1,3.1.6.6,0,0,1-.6.5l-.6-.2a1.4,1.4,0,0,1-.2-.6,12.9,12.9,0,0,1,.3-1.9,14.9,14.9,0,0,0,.6-2.5,9.6,9.6,0,0,1,.3-1.5C72.5,139.9,72.7,139.7,72.8,139.7Zm-.2-1.7a1.3,1.3,0,0,1,.3-.8c.3-.2.5-.4.7-.4s.4.3.7.8a3.1,3.1,0,0,1,.5,1.1.5.5,0,0,1-.3.5l-.4.2a1.9,1.9,0,0,1-1-.5A2.1,2.1,0,0,1,72.6,138Z"/><path d="M80,139.7a1.6,1.6,0,0,1,1.3.7,2,2,0,0,1,.6,1.4,10.9,10.9,0,0,1-.4,2.4,7.7,7.7,0,0,1-.9,2c-.3.5-.6.7-.9.7s-.4-.2-.4-.6a8.7,8.7,0,0,1,.4-2.1,10.1,10.1,0,0,0,.4-1.8c0-.3-.1-.5-.2-.5l-.3.2-.3.3-.3.4-.2.3-.3.5-.3.4c0,.2-.1.3-.2.5s-1.6,2.4-2.1,2.4a1.1,1.1,0,0,1-.7-.5,1.3,1.3,0,0,1-.4-.7,1.2,1.2,0,0,1,.2-.7l.3-.8c0-.2.1-.4.1-.6a1.3,1.3,0,0,0,.1-.6c0-.3.1-.4.1-.6v-.6c.1-1.2.2-1.9.2-2l.2-.2a1.7,1.7,0,0,1,1.1.4,1.5,1.5,0,0,1,.5.8,9.9,9.9,0,0,1-.5,2.5l1.7-2.6C79.3,140,79.7,139.7,80,139.7Z"/><path d="M85.9,142.4a15.4,15.4,0,0,1-.5,1.7l-.3,1.1c0,.1.1.1.2.1l1.1-.3,1-.3c.3,0,.4.1.4.4s-.3.7-.9,1.2a3.9,3.9,0,0,1-2,.6,1.5,1.5,0,0,1-1.1-.5,1.2,1.2,0,0,1-.6-1c0-.2.2-.8.4-1.7l.6-1.9-.8.2c-.2,0-.4-.2-.6-.4a1.3,1.3,0,0,1-.3-.7c0-.3.7-.6,2.2-.8a21.5,21.5,0,0,0,.2-2.3.5.5,0,0,1,.5-.4,2.1,2.1,0,0,1,.9.5c.4.3.6.6.6.8a7.4,7.4,0,0,1-.2,1.2h1c.7,0,1,.2,1,.5s-.2.4-.6.5l-1.8.5Z"/><path d="M94.3,143.6a4.5,4.5,0,0,1-1.9.5H90.8a1.9,1.9,0,0,0-.2.7.8.8,0,0,0,.2.6h.6a5,5,0,0,0,1.8-.2l.8-.2c.4,0,.6.2.6.4s-.3.7-.9,1a3.8,3.8,0,0,1-2.1.5,2.4,2.4,0,0,1-1.9-.7,2.4,2.4,0,0,1-.7-1.8,6.3,6.3,0,0,1,.5-2.1,6.5,6.5,0,0,1,1.5-1.8,2.9,2.9,0,0,1,1.8-.8,2.2,2.2,0,0,1,1.7.9,2.5,2.5,0,0,1,.7,1.7C95.2,142.8,94.9,143.2,94.3,143.6Zm-1-1.9-.5-.3c-.2,0-.4.2-.7.4a4.4,4.4,0,0,0-.8,1h.4c1.3,0,1.9-.2,1.9-.7Z"/><path d="M96.6,142.1v-1.6c0-.5.1-.8.5-.8l.5.2a1.6,1.6,0,0,1,.4.7,4.1,4.1,0,0,1,1.1-.7,1.9,1.9,0,0,1,1-.3c.7,0,1,.2,1,.5s0,.3-.1.4v.2h-.2l-.2.2-.4.2a3.6,3.6,0,0,0-1.1,1,5.2,5.2,0,0,0-.7,1.5,12.1,12.1,0,0,1-.7,2.4c-.3.6-.5.8-.8.8a.8.8,0,0,1-.7-.4,2.4,2.4,0,0,1-.2-.8,3.6,3.6,0,0,1,.3-1.1,9.3,9.3,0,0,0,.4-1.3C96.5,143,96.6,142.5,96.6,142.1Z"/><path d="M100.9,144.7a4.8,4.8,0,0,1,.6-2.1,5.3,5.3,0,0,1,1.6-2,3,3,0,0,1,2-.9c.3,0,.6.2,1,.7a2.1,2.1,0,0,1,.5,1.1.4.4,0,0,1-.4.4l-.4-.2h-.6a1.4,1.4,0,0,0-.9.5,5.8,5.8,0,0,0-1,1.2,2.4,2.4,0,0,0-.4,1.2c0,.3,0,.5.1.5l.8.2h1.1l.8-.3h.4c.3,0,.4.1.4.3s-.3.9-1.1,1.3a4.2,4.2,0,0,1-2.1.6,2.5,2.5,0,0,1-1.6-.7A1.9,1.9,0,0,1,100.9,144.7Z"/><path d="M113.7,143a.5.5,0,0,1,.2.4l-.2.7a5.1,5.1,0,0,0-.2.9,4.3,4.3,0,0,1-.1.5v.3c0,.1-.1.1-.1.3v.6a.1.1,0,0,1-.1.1h-.2c-.2,0-.3-.1-.5-.4a1.9,1.9,0,0,1-.5-.9,3.3,3.3,0,0,1-2.2,1.3,2.2,2.2,0,0,1-1.3-.6,2.3,2.3,0,0,1-.7-1.4,5.5,5.5,0,0,1,.6-1.9,8.7,8.7,0,0,1,1.7-2.2,3.1,3.1,0,0,1,2-1.1,2.1,2.1,0,0,1,1.4.7c.5.5.8.9.8,1.2A4.3,4.3,0,0,1,113.7,143Zm-4.1,2.2a3.6,3.6,0,0,0,1.5-.8,2.9,2.9,0,0,0,1.1-1.9c0-.1.1-.2.3-.2s-.2-.8-.3-.8a1.9,1.9,0,0,0-1.3.7,9.1,9.1,0,0,0-1.1,1.6,2.4,2.4,0,0,0-.4,1.2h.2Z"/><path d="M124.3,139.7c.3,0,.6.3.9.7a3.9,3.9,0,0,1,.3,1.4,6.9,6.9,0,0,1-.2,1.8,9.4,9.4,0,0,1-.7,2.2c-.4.8-.7,1.1-1.1,1.1s-.5-.2-.5-.6a17.2,17.2,0,0,1,.4-2.1,6.5,6.5,0,0,0,.4-1.8c0-.3-.1-.5-.2-.5s-.4.2-.7.7-.6,1-.9,1.7a5.6,5.6,0,0,0-.7,1.4l-.3.5c0,.1-.1.2-.2.3s-.7.5-1.2,0a.9.9,0,0,1-.3-.6,3.9,3.9,0,0,1,.2-1.1,16.4,16.4,0,0,0,.2-2.3c0-.4,0-.6-.1-.6s-.3.1-.4.4a5.4,5.4,0,0,0-.7,1.2l-.8,1.4c-.8,1.4-1.4,2-1.8,2s-.4-.1-.7-.5a1.5,1.5,0,0,1-.5-.8,6.6,6.6,0,0,1,.3-1.3,7.8,7.8,0,0,0,.4-2.2c.1-.8.1-1.4.2-1.8s.2-.7.3-.7a1.3,1.3,0,0,1,1,.4,1,1,0,0,1,.5.8,11.3,11.3,0,0,1-.6,2.9,13.1,13.1,0,0,1,1.7-3.1c.5-.6.9-.9,1.4-.9s.5.2.9.7a2.1,2.1,0,0,1,.5,1.2v1a6.3,6.3,0,0,1,1.3-2A2.4,2.4,0,0,1,124.3,139.7Z"/><path d="M131.7,139.7a1.9,1.9,0,0,1,1.3.7,2.2,2.2,0,0,1,.5,1.4,10.4,10.4,0,0,1-.2,1.5,13,13,0,0,1-.8,1.7,8.6,8.6,0,0,1-1.3,1.4,3,3,0,0,1-1.5.5,2.6,2.6,0,0,1-1.8-.8c-.2.6-.4.8-.5.8s-.4-.1-.7-.5-.5-.5-.5-.8.2-.8.5-2a34.2,34.2,0,0,0,1.4-7.4c0-.3.1-.4.4-.4s.5.2.8.6a1.7,1.7,0,0,1,.6,1.1,20.2,20.2,0,0,1-.7,3.9A4.3,4.3,0,0,1,131.7,139.7Zm-2.2,5.6q.8,0,1.5-1.2a4,4,0,0,0,.9-2.4h-.3a2.4,2.4,0,0,0-1.6.9,13.4,13.4,0,0,0-1.6,2.3A1.5,1.5,0,0,0,129.5,145.3Z"/><path d="M135.8,139.7c.4,0,.6.2.9.6a1.4,1.4,0,0,1,.4,1,17.2,17.2,0,0,1-.5,2,28.1,28.1,0,0,1-1,3.1.6.6,0,0,1-.6.5l-.6-.2a1.4,1.4,0,0,1-.2-.6,12.9,12.9,0,0,1,.3-1.9,14.9,14.9,0,0,0,.6-2.5,9.6,9.6,0,0,1,.3-1.5C135.5,139.9,135.7,139.7,135.8,139.7Zm-.2-1.7a1.3,1.3,0,0,1,.3-.8c.3-.2.5-.4.7-.4s.4.3.7.8a3.1,3.1,0,0,1,.5,1.1.5.5,0,0,1-.3.5l-.4.2a1.9,1.9,0,0,1-1-.5A2.1,2.1,0,0,1,135.6,138Z"/><path d="M138.9,141.3c.7-1.1,1.4-1.6,2.1-1.6a2.1,2.1,0,0,1,1.8.7,2.6,2.6,0,0,1,.8,1.9,5.4,5.4,0,0,1-.5,2.1,6.2,6.2,0,0,1-1.4,1.8,3.2,3.2,0,0,1-2,.7,1.5,1.5,0,0,1-1.3-.7,2.3,2.3,0,0,1-.6-1.6A5.7,5.7,0,0,1,138.9,141.3Zm2.3,2.8a4.5,4.5,0,0,0,.5-1.9c0-.6,0-1-.2-1.2a3.2,3.2,0,0,0-1.2,1.5,4.1,4.1,0,0,0-.6,1.9c0,.6,0,1,.2,1.1A3,3,0,0,0,141.2,144.1Z"/><path d="M33,158.9c.7-1.1,1.4-1.6,2.1-1.6a2.4,2.4,0,0,1,1.8.7,2.5,2.5,0,0,1,.7,1.9,4.1,4.1,0,0,1-.5,2.1,4.9,4.9,0,0,1-1.4,1.8,2.8,2.8,0,0,1-1.9.7,1.7,1.7,0,0,1-1.4-.7,2.8,2.8,0,0,1-.5-1.6A5.1,5.1,0,0,1,33,158.9Zm2.2,2.8a3.5,3.5,0,0,0,.6-1.9,2.9,2.9,0,0,0-.2-1.2,3.2,3.2,0,0,0-1.2,1.5,4.1,4.1,0,0,0-.6,1.9,2.5,2.5,0,0,0,.1,1.1A2.6,2.6,0,0,0,35.2,161.7Z"/><path d="M45.3,157.3a1.2,1.2,0,0,1,.9.6,2.1,2.1,0,0,1,.4,1,17.2,17.2,0,0,1-.5,2c-.3,1.1-.7,2.1-1,3.1a.7.7,0,0,1-.7.5l-.5-.2a.7.7,0,0,1-.2-.6,12.9,12.9,0,0,1,.3-1.9c.3-.9.4-1.8.6-2.5a9.6,9.6,0,0,1,.3-1.5C45,157.5,45.2,157.3,45.3,157.3Zm-.2-1.7a1.3,1.3,0,0,1,.3-.8,1.3,1.3,0,0,1,.7-.4c.2,0,.4.3.7.8a3.1,3.1,0,0,1,.5,1.1.5.5,0,0,1-.3.5l-.4.2a1.9,1.9,0,0,1-1-.5A2.1,2.1,0,0,1,45.1,155.6Z"/><path d="M52.5,157.3a1.6,1.6,0,0,1,1.3.7,2,2,0,0,1,.6,1.4,10.9,10.9,0,0,1-.4,2.4,7.7,7.7,0,0,1-.9,2c-.3.5-.6.7-.9.7s-.5-.2-.5-.6a11.2,11.2,0,0,1,.5-2.1,8.2,8.2,0,0,0,.3-1.8c0-.3,0-.5-.1-.5l-.3.2-.3.3-.3.4-.2.3-.3.5-.3.4c0,.2-.1.3-.2.5s-1.6,2.4-2.1,2.4-.4-.1-.7-.5a1.8,1.8,0,0,1-.5-.7,4.1,4.1,0,0,1,.2-.7,1.6,1.6,0,0,0,.3-.8,1.4,1.4,0,0,0,.2-.6c0-.2.1-.4.1-.6a1.1,1.1,0,0,1,.1-.6v-.6c.1-1.2.2-1.9.2-2l.2-.2a1.7,1.7,0,0,1,1.1.4,1.2,1.2,0,0,1,.4.8,9.1,9.1,0,0,1-.4,2.5l1.7-2.6C51.8,157.6,52.2,157.3,52.5,157.3Z"/><path d="M58.4,160a15.4,15.4,0,0,1-.5,1.7l-.3,1.1h.2l1.1-.3,1-.3c.3,0,.4.1.4.4s-.3.7-1,1.2a3.3,3.3,0,0,1-1.9.6,1.5,1.5,0,0,1-1.1-.5,1.2,1.2,0,0,1-.6-1,6.9,6.9,0,0,1,.4-1.7l.6-1.9-.8.2c-.2,0-.4-.2-.6-.4a1.3,1.3,0,0,1-.3-.7c0-.3.7-.6,2.2-.8a21.5,21.5,0,0,0,.2-2.3.4.4,0,0,1,.4-.4,1.9,1.9,0,0,1,1,.5,1.5,1.5,0,0,1,.5.8,5.7,5.7,0,0,1-.1,1.2h1c.7,0,1,.2,1,.5s-.2.4-.6.5l-1.9.5A2.6,2.6,0,0,1,58.4,160Z"/><path d="M66.8,161.2a4.5,4.5,0,0,1-1.9.5H63.3a1.9,1.9,0,0,0-.2.7.8.8,0,0,0,.2.6h.6a5,5,0,0,0,1.8-.2l.8-.2a.5.5,0,0,1,.5.4c0,.4-.3.7-.9,1a3.6,3.6,0,0,1-2.1.5,2.3,2.3,0,0,1-1.8-.7,2.5,2.5,0,0,1-.8-1.8,4.8,4.8,0,0,1,.6-2.1,6.5,6.5,0,0,1,1.5-1.8,2.9,2.9,0,0,1,1.8-.8,2.4,2.4,0,0,1,1.7.9,2.5,2.5,0,0,1,.7,1.7C67.7,160.4,67.4,160.8,66.8,161.2Zm-1-1.9a.9.9,0,0,0-.6-.3l-.6.4a2.7,2.7,0,0,0-.8,1h.4c1.2,0,1.9-.2,1.9-.7Z"/><path d="M69,159.7v-1.6c0-.5.1-.8.4-.8l.6.2a1.6,1.6,0,0,1,.4.7,4.1,4.1,0,0,1,1.1-.7,1.9,1.9,0,0,1,1-.3c.6,0,1,.2,1,.5s-.1.3-.1.4l-.2.2h-.1l-.2.2-.5.2a4.7,4.7,0,0,0-1,1,3.5,3.5,0,0,0-.7,1.5c-.3,1.1-.5,1.9-.7,2.4s-.5.8-.8.8a.7.7,0,0,1-.7-.4,2.4,2.4,0,0,1-.2-.8,3.6,3.6,0,0,1,.3-1.1,7.9,7.9,0,0,0,.3-1.3A4.5,4.5,0,0,0,69,159.7Z"/><path d="M82.8,157.3c.3,0,.6.3.9.7a3.9,3.9,0,0,1,.3,1.4,6.9,6.9,0,0,1-.2,1.8,18.7,18.7,0,0,1-.7,2.2c-.4.8-.7,1.1-1.1,1.1s-.5-.2-.5-.6a17.2,17.2,0,0,1,.4-2.1,16.3,16.3,0,0,0,.4-1.8c0-.3-.1-.5-.2-.5s-.4.2-.7.7-.6,1-.9,1.7l-.8,1.4c0,.2-.1.3-.2.5l-.2.3q-.5.8-1.2,0c-.2-.2-.4-.4-.4-.6l.3-1.1a16.4,16.4,0,0,0,.2-2.3c0-.4,0-.6-.1-.6s-.3.1-.4.4a5.4,5.4,0,0,0-.7,1.2l-.8,1.4c-.8,1.4-1.4,2-1.8,2s-.4-.1-.7-.5a1,1,0,0,1-.5-.8,6.6,6.6,0,0,1,.3-1.3,7.8,7.8,0,0,0,.4-2.2c.1-.8.1-1.4.2-1.8s.1-.7.3-.7a1.3,1.3,0,0,1,1,.4,1,1,0,0,1,.5.8,11.3,11.3,0,0,1-.6,2.9,13.1,13.1,0,0,1,1.7-3.1c.5-.6.9-.9,1.4-.9s.5.2.9.7a2.1,2.1,0,0,1,.5,1.2v1a6.3,6.3,0,0,1,1.3-2A2.4,2.4,0,0,1,82.8,157.3Z"/><path d="M90.1,161.2a4.1,4.1,0,0,1-1.9.5H86.6a1.7,1.7,0,0,0-.1.7c0,.3,0,.5.1.6h.7a5,5,0,0,0,1.8-.2l.7-.2c.4,0,.6.2.6.4s-.3.7-.9,1a3.6,3.6,0,0,1-2.1.5,2.5,2.5,0,0,1-1.9-.7,2.4,2.4,0,0,1-.7-1.8,4.8,4.8,0,0,1,.6-2.1,6.5,6.5,0,0,1,1.5-1.8,2.9,2.9,0,0,1,1.8-.8,2.1,2.1,0,0,1,1.6.9,2.7,2.7,0,0,1,.8,1.7C91.1,160.4,90.8,160.8,90.1,161.2Zm-.9-1.9a.9.9,0,0,0-.6-.3c-.2,0-.4.2-.7.4a4.3,4.3,0,0,0-.7,1h.3c1.3,0,2-.2,2-.7Z"/><path d="M97.6,153.4q.3,0,.9.6a1.5,1.5,0,0,1,.5,1.1,14.7,14.7,0,0,1-.4,2.3,10.7,10.7,0,0,0-.6,2.3c-.8,3.2-1.3,4.8-1.7,4.8a.9.9,0,0,1-.6-.3c-.3-.3-.4-.5-.4-.7h0a3.6,3.6,0,0,1-2,1.1,1.7,1.7,0,0,1-1.2-.6,2.4,2.4,0,0,1-.5-1.2,4.9,4.9,0,0,1,.1-1.2,12.1,12.1,0,0,1,.5-1.4,8.3,8.3,0,0,1,.7-1.3,3.3,3.3,0,0,1,.9-1.1,1.9,1.9,0,0,1,1.2-.4,1.8,1.8,0,0,1,1.5.9,23.9,23.9,0,0,0,.7-4.4C97.2,153.5,97.3,153.4,97.6,153.4Zm-4.1,9.4,1.2-.6a4.8,4.8,0,0,0,1.2-1.6v-.5a1.1,1.1,0,0,0-.3-.7.5.5,0,0,0-.4-.3.9.9,0,0,0-.8.4,2.4,2.4,0,0,0-.6,1.1,4.8,4.8,0,0,0-.5,2h.2Z"/><path d="M100.8,157.3a.9.9,0,0,1,.8.6,1.4,1.4,0,0,1,.4,1,7.3,7.3,0,0,1-.5,2l-.9,3.1a.8.8,0,0,1-.7.5l-.5-.2a.9.9,0,0,1-.3-.6,7.7,7.7,0,0,1,.4-1.9c.2-.9.4-1.8.5-2.5l.4-1.5C100.5,157.5,100.6,157.3,100.8,157.3Zm-.2-1.7a1.3,1.3,0,0,1,.3-.8c.2-.2.4-.4.6-.4s.5.3.8.8a2.4,2.4,0,0,1,.4,1.1.8.8,0,0,1-.2.5l-.5.2a1.6,1.6,0,0,1-.9-.5A1.4,1.4,0,0,1,100.6,155.6Z"/><path d="M108.8,160.6a.5.5,0,0,1,.2.4,2.6,2.6,0,0,1-.1.7,9.2,9.2,0,0,0-.3.9.7.7,0,0,1-.1.5v1.2h-.4c-.2,0-.3-.1-.5-.4a1.9,1.9,0,0,1-.4-.9,3.5,3.5,0,0,1-2.2,1.3,1.9,1.9,0,0,1-1.3-.6,1.9,1.9,0,0,1-.7-1.4,5.5,5.5,0,0,1,.6-1.9,8.2,8.2,0,0,1,1.6-2.2,3.1,3.1,0,0,1,2.1-1.1,1.9,1.9,0,0,1,1.3.7c.5.5.8.9.8,1.2A2.7,2.7,0,0,1,108.8,160.6Zm-4.1,2.2a2.8,2.8,0,0,0,1.5-.8,2.9,2.9,0,0,0,1.1-1.9c.1-.1.1-.2.3-.2s-.1-.8-.3-.8a1.5,1.5,0,0,0-1.2.7,6.1,6.1,0,0,0-1.2,1.6,2.4,2.4,0,0,0-.4,1.2h0C104.5,162.8,104.6,162.8,104.7,162.8Z"/><path d="M110,162.3a4.8,4.8,0,0,1,.6-2.1,5.3,5.3,0,0,1,1.6-2,3,3,0,0,1,2-.9c.3,0,.6.2,1,.7a2.1,2.1,0,0,1,.5,1.1c0,.2-.1.4-.3.4l-.5-.2h-.6a1.4,1.4,0,0,0-.9.5,5.8,5.8,0,0,0-1,1.2,2.4,2.4,0,0,0-.4,1.2c0,.3,0,.5.1.5a1.3,1.3,0,0,0,.8.2H114l.8-.3h.4c.3,0,.4.1.4.3s-.3.9-1,1.3a4.9,4.9,0,0,1-2.2.6,2.5,2.5,0,0,1-1.6-.7A2.2,2.2,0,0,1,110,162.3Z"/><path d="M118.4,157.3a1.2,1.2,0,0,1,.9.6,1.9,1.9,0,0,1,.3,1,10.4,10.4,0,0,1-.4,2c-.4,1.1-.7,2.1-1,3.1a.7.7,0,0,1-.7.5l-.5-.2a.7.7,0,0,1-.2-.6,12.9,12.9,0,0,1,.3-1.9c.2-.9.4-1.8.6-2.5a9.6,9.6,0,0,1,.3-1.5C118.1,157.5,118.2,157.3,118.4,157.3Zm-.2-1.7a1.3,1.3,0,0,1,.3-.8,1,1,0,0,1,.7-.4c.2,0,.4.3.7.8a2.4,2.4,0,0,1,.4,1.1c0,.2,0,.4-.2.5l-.5.2a1.9,1.9,0,0,1-1.4-1.4Z"/><path d="M121.5,158.9c.7-1.1,1.4-1.6,2.1-1.6a2.4,2.4,0,0,1,1.8.7,2.5,2.5,0,0,1,.7,1.9,4.1,4.1,0,0,1-.5,2.1,4.9,4.9,0,0,1-1.4,1.8,2.8,2.8,0,0,1-1.9.7,1.7,1.7,0,0,1-1.4-.7,2.8,2.8,0,0,1-.5-1.6A5.1,5.1,0,0,1,121.5,158.9Zm2.2,2.8a3.5,3.5,0,0,0,.6-1.9,1.7,1.7,0,0,0-.3-1.2,3.2,3.2,0,0,0-1.2,1.5,5.4,5.4,0,0,0-.5,1.9,2.5,2.5,0,0,0,.1,1.1A2.6,2.6,0,0,0,123.7,161.7Zm.8-4.8c-.2,0-.3,0-.4-.2l-.2-.4a1.4,1.4,0,0,1,.2-.6l.5-.5.6-.5.4-.4.3-.2.2-.2h.4a.7.7,0,0,1,.6.4,1.3,1.3,0,0,1,.3.7c0,.2,0,.3-.1.4l-.2.3-.3.2-.6.3-.6.3-.5.3A.8.8,0,0,1,124.5,156.9Z"/><path d="M131.9,157.3a1.6,1.6,0,0,1,1.3.7,2,2,0,0,1,.6,1.4,10.9,10.9,0,0,1-.4,2.4,7.7,7.7,0,0,1-.9,2c-.3.5-.6.7-.9.7s-.5-.2-.5-.6a11.2,11.2,0,0,1,.5-2.1,10.1,10.1,0,0,0,.4-1.8c0-.3-.1-.5-.2-.5l-.3.2-.3.3-.3.4-.2.3-.3.5-.3.4c0,.2-.1.3-.2.5s-1.6,2.4-2.1,2.4-.4-.1-.7-.5a1.3,1.3,0,0,1-.4-.7,1.2,1.2,0,0,1,.2-.7,3.1,3.1,0,0,0,.2-.8,1.4,1.4,0,0,0,.2-.6c0-.2.1-.4.1-.6s.1-.4.1-.6v-.6c.1-1.2.2-1.9.2-2l.2-.2a1.7,1.7,0,0,1,1.1.4,1.2,1.2,0,0,1,.4.8,9.1,9.1,0,0,1-.4,2.5l1.7-2.6C131.2,157.6,131.6,157.3,131.9,157.3Z"/><path d="M51.1,178.8a4.5,4.5,0,0,1-1.9.5H47.6a1.9,1.9,0,0,0-.2.7.8.8,0,0,0,.2.6h.6a5,5,0,0,0,1.8-.2l.8-.2a.5.5,0,0,1,.5.4c0,.4-.3.7-.9,1a3.6,3.6,0,0,1-2.1.5,2.6,2.6,0,0,1-1.9-.7,2.9,2.9,0,0,1-.7-1.8,4.8,4.8,0,0,1,.6-2.1,6.5,6.5,0,0,1,1.5-1.8,2.9,2.9,0,0,1,1.8-.8,2.4,2.4,0,0,1,1.7.9,2.5,2.5,0,0,1,.7,1.7C52,178,51.7,178.4,51.1,178.8Zm-1-1.9a.9.9,0,0,0-.6-.3l-.6.4a2.7,2.7,0,0,0-.8,1h.4c1.2,0,1.9-.2,1.9-.7S50.3,177.1,50.1,176.9Z"/><path d="M52.6,179.9a4.8,4.8,0,0,1,.6-2.1,5.3,5.3,0,0,1,1.6-2,3,3,0,0,1,2-.9c.3,0,.6.2,1,.7a2.1,2.1,0,0,1,.5,1.1c0,.2-.1.4-.3.4l-.5-.2h-.6a1.4,1.4,0,0,0-.9.5,5.8,5.8,0,0,0-1,1.2,2.4,2.4,0,0,0-.4,1.2c0,.3,0,.5.1.5l.8.2h1.1l.8-.3h.4c.3,0,.4.1.4.3s-.3.9-1,1.3a4.9,4.9,0,0,1-2.2.6,2.5,2.5,0,0,1-1.6-.7A2.2,2.2,0,0,1,52.6,179.9Z"/><path d="M60.4,176.5c.8-1.1,1.5-1.6,2.2-1.6a2.4,2.4,0,0,1,1.8.7,2.5,2.5,0,0,1,.7,1.9,5.4,5.4,0,0,1-.5,2.1,4.9,4.9,0,0,1-1.4,1.8,3.1,3.1,0,0,1-2,.7,1.6,1.6,0,0,1-1.3-.7,2.3,2.3,0,0,1-.6-1.6A5.7,5.7,0,0,1,60.4,176.5Zm2.3,2.8a3.5,3.5,0,0,0,.6-1.9,1.7,1.7,0,0,0-.3-1.2,3.2,3.2,0,0,0-1.2,1.5,4.1,4.1,0,0,0-.6,1.9,2,2,0,0,0,.2,1.1A3,3,0,0,0,62.7,179.3Z"/><path d="M70.9,174.9a1.5,1.5,0,0,1,1.3.7,2,2,0,0,1,.6,1.4,7.1,7.1,0,0,1-.4,2.4,8.1,8.1,0,0,1-.8,2,1.3,1.3,0,0,1-1,.7c-.3,0-.4-.2-.4-.6a8.7,8.7,0,0,1,.4-2.1,5.4,5.4,0,0,0,.4-1.8c0-.3-.1-.5-.2-.5l-.3.2-.3.3-.3.4-.2.3-.3.5-.2.4-.3.5c-.9,1.6-1.5,2.4-2,2.4a1,1,0,0,1-.8-.5,1.3,1.3,0,0,1-.4-.7,1.2,1.2,0,0,1,.2-.7l.3-.8c0-.2.1-.4.1-.6a1.3,1.3,0,0,0,.1-.6,1.5,1.5,0,0,0,.1-.6V177a7,7,0,0,1,.3-2l.2-.2a1.4,1.4,0,0,1,1,.4,1.5,1.5,0,0,1,.5.8,9.9,9.9,0,0,1-.5,2.5l1.7-2.6C70.2,175.2,70.6,174.9,70.9,174.9Z"/><path d="M74.6,176.5c.7-1.1,1.4-1.6,2.1-1.6a2.4,2.4,0,0,1,1.8.7,2.5,2.5,0,0,1,.7,1.9,4.1,4.1,0,0,1-.5,2.1,4.9,4.9,0,0,1-1.4,1.8,2.8,2.8,0,0,1-1.9.7,1.7,1.7,0,0,1-1.4-.7,2.8,2.8,0,0,1-.5-1.6A5.1,5.1,0,0,1,74.6,176.5Zm2.2,2.8a3.5,3.5,0,0,0,.6-1.9,2.9,2.9,0,0,0-.2-1.2,3.2,3.2,0,0,0-1.2,1.5,4.1,4.1,0,0,0-.6,1.9,2.5,2.5,0,0,0,.1,1.1A2.6,2.6,0,0,0,76.8,179.3Zm.8-4.8c-.2,0-.3,0-.4-.2l-.2-.4a1.4,1.4,0,0,1,.2-.6l.5-.5.6-.5.4-.4.3-.2.2-.2h.4a.7.7,0,0,1,.6.4,1.3,1.3,0,0,1,.3.7c0,.2,0,.3-.1.4l-.2.3-.3.2-.6.3-.6.3-.5.3A.8.8,0,0,1,77.6,174.5Z"/><path d="M89.3,174.9a1.1,1.1,0,0,1,.9.7,2.7,2.7,0,0,1,.4,1.4,8.2,8.2,0,0,1-.3,1.8,9.4,9.4,0,0,1-.7,2.2c-.3.8-.7,1.1-1.1,1.1s-.4-.2-.4-.6a12.6,12.6,0,0,1,.3-2.1,6.5,6.5,0,0,0,.4-1.8c0-.3,0-.5-.1-.5s-.5.2-.7.7a19.4,19.4,0,0,0-1,1.7c-.4.7-.6,1.2-.7,1.4s-.2.3-.2.5l-.2.3q-.5.8-1.2,0a.7.7,0,0,1-.4-.6c0-.1.1-.4.2-1.1a8.5,8.5,0,0,0,.3-2.3c0-.4-.1-.6-.2-.6l-.4.4-.6,1.2-.8,1.4c-.8,1.4-1.4,2-1.8,2a1,1,0,0,1-.8-.5,1.5,1.5,0,0,1-.5-.8,4,4,0,0,1,.4-1.3,14.3,14.3,0,0,0,.4-2.2c0-.8.1-1.4.1-1.8s.2-.7.4-.7a1.4,1.4,0,0,1,1,.4,1.5,1.5,0,0,1,.5.8,11.3,11.3,0,0,1-.6,2.9,13.9,13.9,0,0,1,1.6-3.1,2.1,2.1,0,0,1,1.4-.9c.3,0,.6.2.9.7a1.6,1.6,0,0,1,.5,1.2v1a6.6,6.6,0,0,1,1.4-2A2.2,2.2,0,0,1,89.3,174.9Z"/><path d="M92.9,174.9c.4,0,.6.2.9.6a1.4,1.4,0,0,1,.4,1,17.2,17.2,0,0,1-.5,2,28.1,28.1,0,0,1-1,3.1.6.6,0,0,1-.6.5l-.6-.2a1.4,1.4,0,0,1-.2-.6,12.9,12.9,0,0,1,.3-1.9,14.9,14.9,0,0,0,.6-2.5,9.6,9.6,0,0,1,.3-1.5C92.7,175.1,92.8,174.9,92.9,174.9Zm-.2-1.7a1.3,1.3,0,0,1,.3-.8c.3-.2.5-.4.7-.4s.5.3.7.8a3.1,3.1,0,0,1,.5,1.1.8.8,0,0,1-.2.5l-.5.2a1.4,1.4,0,0,1-.9-.5Q92.7,173.5,92.7,173.2Z"/><path d="M95,179.9a4.8,4.8,0,0,1,.6-2.1,6.4,6.4,0,0,1,1.6-2,3,3,0,0,1,2-.9,1.3,1.3,0,0,1,1,.7,2.1,2.1,0,0,1,.5,1.1c0,.2-.1.4-.3.4l-.5-.2h-.6a1.4,1.4,0,0,0-.9.5l-1,1.2a2.4,2.4,0,0,0-.4,1.2c0,.3,0,.5.2.5a1,1,0,0,0,.7.2h1.2l.7-.3h.5c.2,0,.4.1.4.3s-.4.9-1.1,1.3a4.6,4.6,0,0,1-2.2.6,2.3,2.3,0,0,1-1.5-.7A2,2,0,0,1,95,179.9Z"/><path d="M107.8,178.2c.2.1.2.2.2.4a2.6,2.6,0,0,1-.1.7,4.6,4.6,0,0,1-.3.9v.5a.4.4,0,0,0-.1.3v.9h-.4c-.1,0-.3-.1-.5-.4a1.9,1.9,0,0,1-.4-.9,3.5,3.5,0,0,1-2.2,1.3,1.9,1.9,0,0,1-1.3-.6,1.9,1.9,0,0,1-.7-1.4,5.5,5.5,0,0,1,.6-1.9A8.2,8.2,0,0,1,104,176a3.1,3.1,0,0,1,2.1-1.1,1.9,1.9,0,0,1,1.3.7c.5.5.8.9.8,1.2A2.7,2.7,0,0,1,107.8,178.2Zm-4.1,2.2a2.8,2.8,0,0,0,1.5-.8,3.5,3.5,0,0,0,1.2-1.9c0-.1,0-.2.2-.2s-.1-.8-.3-.8a1.7,1.7,0,0,0-1.2.7,6.1,6.1,0,0,0-1.2,1.6,2.4,2.4,0,0,0-.4,1.2h.2Z"/><path d="M115.4,176.5c.7-1.1,1.4-1.6,2.1-1.6a2.4,2.4,0,0,1,1.8.7,2.5,2.5,0,0,1,.7,1.9,4.1,4.1,0,0,1-.5,2.1,4.9,4.9,0,0,1-1.4,1.8,2.8,2.8,0,0,1-1.9.7,1.5,1.5,0,0,1-1.3-.7,2.3,2.3,0,0,1-.6-1.6A5.7,5.7,0,0,1,115.4,176.5Zm2.3,2.8a4.5,4.5,0,0,0,.5-1.9,2.9,2.9,0,0,0-.2-1.2,3.2,3.2,0,0,0-1.2,1.5,4.1,4.1,0,0,0-.6,1.9,2.5,2.5,0,0,0,.1,1.1A3.1,3.1,0,0,0,117.7,179.3Z"/><path d="M56.5,190.5c-.2,0-.4.3-.6.8l-.5,2.1h2.5c.7,0,1,.2,1,.7a4.4,4.4,0,0,1-.2,1l-.6,1.7a22.5,22.5,0,0,0-.8,2.4c-.1.2-.1.3-.2.4h-.5l-.5-.2a1,1,0,0,1-.2-.7,8.2,8.2,0,0,1,.4-2c.2-1.1.4-1.7.4-1.9l-1.7.2c-.5,2-.8,3.3-1,3.8s-.4.8-.7.8l-.6-.4a1.3,1.3,0,0,1-.3-.7,1.1,1.1,0,0,1,.1-.5,18.1,18.1,0,0,0,.6-2.7h-.8a.9.9,0,0,1-.6-.3,1.1,1.1,0,0,1-.3-.7c0-.2.1-.4.5-.5l1.6-.4a10.2,10.2,0,0,1,1.1-3.7,2.3,2.3,0,0,1,2-1.1,2.7,2.7,0,0,1,1.7.7,1.7,1.7,0,0,1,.9,1.4,2.2,2.2,0,0,1-.1.9c-.2.3-.3.4-.5.4l-.6-.3-.5-.5C57,190.8,56.7,190.5,56.5,190.5Z"/><path d="M64.3,192.5a1.6,1.6,0,0,1,1.3.7,2.4,2.4,0,0,1,.5,1.4,7.1,7.1,0,0,1-.4,2.4,5.5,5.5,0,0,1-.8,2c-.3.5-.6.7-.9.7s-.5-.2-.5-.6A6.4,6.4,0,0,1,64,197a8.2,8.2,0,0,0,.3-1.8c0-.3,0-.5-.1-.5a.5.5,0,0,0-.4.2l-.3.3-.2.4-.3.3-.3.5c-.1.2-.2.3-.2.4l-.3.5c-.8,1.6-1.5,2.4-2,2.4a1,1,0,0,1-.8-.5,1.3,1.3,0,0,1-.4-.7l.2-.7.3-.8a1.3,1.3,0,0,0,.1-.6l.2-.6v-.6a1.8,1.8,0,0,1,.1-.6,5.4,5.4,0,0,1,.2-2l.2-.2a1.4,1.4,0,0,1,1,.4,1.5,1.5,0,0,1,.5.8,9.9,9.9,0,0,1-.5,2.5l1.7-2.6C63.5,192.8,63.9,192.5,64.3,192.5Z"/><path d="M72.8,195.8c.2.1.3.2.3.4s-.1.3-.2.7a5.1,5.1,0,0,0-.2.9,1.1,1.1,0,0,0-.1.5.4.4,0,0,1-.1.3v.9h-.4c-.1,0-.3-.1-.5-.4a3.9,3.9,0,0,1-.4-.9,3.5,3.5,0,0,1-2.2,1.3,2.2,2.2,0,0,1-1.3-.6,1.9,1.9,0,0,1-.7-1.4,5.5,5.5,0,0,1,.6-1.9,8.7,8.7,0,0,1,1.7-2.2,2.7,2.7,0,0,1,2-1.1,2.1,2.1,0,0,1,1.4.7,1.9,1.9,0,0,1,.7,1.2A2.7,2.7,0,0,1,72.8,195.8Zm-4,2.2a2.9,2.9,0,0,0,1.4-.8,3,3,0,0,0,1.2-1.9.2.2,0,0,1,.2-.2c0-.5-.1-.8-.2-.8a1.9,1.9,0,0,0-1.3.7,9.1,9.1,0,0,0-1.1,1.6,2.8,2.8,0,0,0-.5,1.2h.3Z"/><path d="M79.2,192.5a1.3,1.3,0,0,1,1.2.7,2,2,0,0,1,.6,1.4,7.1,7.1,0,0,1-.4,2.4,5.5,5.5,0,0,1-.8,2c-.3.5-.6.7-.9.7s-.5-.2-.5-.6a8.7,8.7,0,0,1,.4-2.1,5.4,5.4,0,0,0,.4-1.8,1.2,1.2,0,0,0-.1-.5l-.4.2-.3.3-.2.4-.3.3-.3.5c-.1.2-.2.3-.2.4l-.3.5c-.8,1.6-1.5,2.4-2,2.4a1,1,0,0,1-.8-.5,1.3,1.3,0,0,1-.4-.7l.2-.7.3-.8c0-.2.1-.4.1-.6a1.3,1.3,0,0,0,.1-.6,1.5,1.5,0,0,0,.1-.6,1.8,1.8,0,0,1,.1-.6,5.4,5.4,0,0,1,.2-2l.2-.2a1.4,1.4,0,0,1,1,.4,1.5,1.5,0,0,1,.5.8,9.9,9.9,0,0,1-.5,2.5l1.7-2.6C78.4,192.8,78.8,192.5,79.2,192.5Z"/><path d="M81.8,197.5a4.8,4.8,0,0,1,.6-2.1,5.3,5.3,0,0,1,1.6-2,3,3,0,0,1,2-.9c.3,0,.6.2,1,.7a2.1,2.1,0,0,1,.5,1.1c0,.2-.1.4-.3.4l-.5-.2h-.6a1.4,1.4,0,0,0-.9.5,5.8,5.8,0,0,0-1,1.2,2.4,2.4,0,0,0-.4,1.2c0,.3,0,.5.1.5l.8.2h1.2l.7-.3h.5a.3.3,0,0,1,.3.3c0,.5-.3.9-1,1.3a4.9,4.9,0,0,1-2.2.6,2.7,2.7,0,0,1-1.6-.7A2.2,2.2,0,0,1,81.8,197.5Z"/><path d="M90.2,192.5a1.2,1.2,0,0,1,.9.6,2.1,2.1,0,0,1,.4,1,17.2,17.2,0,0,1-.5,2c-.3,1.1-.7,2.1-1,3.1a.7.7,0,0,1-.7.5l-.5-.2a.7.7,0,0,1-.2-.6,12.9,12.9,0,0,1,.3-1.9c.3-.9.4-1.8.6-2.5a9.6,9.6,0,0,1,.3-1.5C89.9,192.7,90.1,192.5,90.2,192.5Zm-.2-1.7a1.3,1.3,0,0,1,.3-.8,1.3,1.3,0,0,1,.7-.4c.2,0,.4.3.7.8a2.4,2.4,0,0,1,.4,1.1c0,.2,0,.4-.2.5l-.4.2a1.9,1.9,0,0,1-1-.5A2.1,2.1,0,0,1,90,190.8Z"/><path d="M97.6,196.4a4.5,4.5,0,0,1-1.9.5H94.1a1.7,1.7,0,0,0-.1.7c0,.3,0,.5.1.6h.6a5,5,0,0,0,1.8-.2l.8-.2c.4,0,.6.2.6.4s-.3.7-.9,1a3.6,3.6,0,0,1-2.1.5A2.4,2.4,0,0,1,93,199a2.4,2.4,0,0,1-.7-1.8,4.8,4.8,0,0,1,.6-2.1,6.2,6.2,0,0,1,1.4-1.8,2.9,2.9,0,0,1,1.8-.8,2.2,2.2,0,0,1,1.7.9,2.5,2.5,0,0,1,.7,1.7C98.5,195.6,98.2,196,97.6,196.4Zm-1-1.9-.5-.3c-.2,0-.4.2-.7.4a4.4,4.4,0,0,0-.8,1H95c1.3,0,1.9-.2,1.9-.7Z"/><path d="M99.9,194.9v-1.6c0-.5.1-.8.5-.8l.5.2a1.6,1.6,0,0,1,.4.7,4.1,4.1,0,0,1,1.1-.7l1-.3c.7,0,1,.2,1,.5s0,.3-.1.4v.2h-.2l-.2.2-.4.2a3.6,3.6,0,0,0-1.1,1,5.2,5.2,0,0,0-.7,1.5,12.1,12.1,0,0,1-.7,2.4c-.3.6-.5.8-.8.8a.8.8,0,0,1-.7-.4,2.4,2.4,0,0,1-.2-.8,3.6,3.6,0,0,1,.3-1.1,9.3,9.3,0,0,0,.4-1.3C99.8,195.8,99.9,195.3,99.9,194.9Z"/><path d="M110.1,195.8c.2.1.3.2.3.4s-.1.3-.2.7a5.1,5.1,0,0,0-.2.9,1.1,1.1,0,0,0-.1.5v1.2h-.4c-.1,0-.3-.1-.5-.4a1.9,1.9,0,0,1-.4-.9,3.5,3.5,0,0,1-2.2,1.3,2.2,2.2,0,0,1-1.3-.6,1.9,1.9,0,0,1-.7-1.4,5.5,5.5,0,0,1,.6-1.9,8.2,8.2,0,0,1,1.6-2.2,3.1,3.1,0,0,1,2.1-1.1,2.3,2.3,0,0,1,1.4.7,1.9,1.9,0,0,1,.7,1.2A2.7,2.7,0,0,1,110.1,195.8ZM106,198a2.8,2.8,0,0,0,1.5-.8,3.5,3.5,0,0,0,1.2-1.9.2.2,0,0,1,.2-.2c0-.5-.1-.8-.2-.8a1.9,1.9,0,0,0-1.3.7,5.7,5.7,0,0,0-1.1,1.6,2.8,2.8,0,0,0-.5,1.2h.2Z"/><path d="M113,200a1.4,1.4,0,0,1-1-.6,1.4,1.4,0,0,1-.6-.9.9.9,0,0,1,.4-.8.8.8,0,0,1,.7-.4c.2,0,.5.2.8.8a2.4,2.4,0,0,1,.4,1.2l-.2.4Z"/></g></svg>