<svg xmlns="http://www.w3.org/2000/svg" viewBox="0 0 258.2 176.8"><defs><style>.cls-1{opacity:0.25;}.cls-2,.cls-5{fill:#fff;}.cls-3{fill:#b1b9c8;}.cls-4{fill:#522e90;}.cls-5{opacity:0.46;}</style></defs><title>act2_nota4</title><g id="papers"><path class="cls-1" d="M228.6,11.5l15.8-.9s-3.9,47.4.5,92.3c3.1,31.3,13.3,73.9,13.3,73.9s-62.2-5.6-124.7-6.9-123.6.2-123.6.2-.6-10.8.8-47.1S28.1,46.6,28.1,46.6L170,29.4Z"/><path class="cls-2" d="M244.3,167.9.1,164.8A1344.2,1344.2,0,0,1,8,3.2L242.6,9.3A1291.6,1291.6,0,0,0,244.3,167.9Z"/><path class="cls-3" d="M141.1,13.7A12,12,0,1,1,129,1.8,12,12,0,0,1,141.1,13.7Z"/><path class="cls-4" d="M139.4,11.8A12,12,0,1,1,127.2,0,12,12,0,0,1,139.4,11.8Z"/><path class="cls-5" d="M117.6,13.7A10.8,10.8,0,0,1,128.2,2.8a11,11,0,0,1,9.1,4.8,11,11,0,0,0-10-6.4,10.8,10.8,0,0,0-10.6,10.9,10.2,10.2,0,0,0,1.8,5.8A11.7,11.7,0,0,1,117.6,13.7Z"/><path d="M19,40.5h3c0,.1.1.2.1.3s-.4.7-1.2,1a9.3,9.3,0,0,1-2.4.4,10.5,10.5,0,0,0-.6,2.2c0,.1.1.2.3.2a13.2,13.2,0,0,0,3.3-.5h.6c.2,0,.3.1.3.4s-.2.6-.7.9a4.7,4.7,0,0,1-1.9.8,8.3,8.3,0,0,1-2.2.3,1.5,1.5,0,0,1-1.1-.4,1.6,1.6,0,0,1-.6-1.2,15.3,15.3,0,0,1,.7-3.2,15.8,15.8,0,0,0,.7-4V37a1.3,1.3,0,0,1,.9-.5h2.5q3,0,3,.6c.1.3-.2.5-.7.6l-1.4.3-2.4.4a8.9,8.9,0,0,1-.3,2.2Z"/><path d="M28,39.1a1.5,1.5,0,0,1,1.1.6,2.1,2.1,0,0,1,.5,1.1c0,.3-.1.4-.3.4h-.5l-.6-.2-1,.3q-.6.1-.6.6c0,.1.1.2.4.4l.8.5a2,2,0,0,1,.8.8,1.3,1.3,0,0,1,.4,1,1.4,1.4,0,0,1-.8,1.2,3.4,3.4,0,0,1-2,.6,3,3,0,0,1-1.9-.5c-.6-.3-.9-.7-.9-1s.2-.6.5-.6l.4.2a4.8,4.8,0,0,0,1.8.4c.7-.1,1-.2,1-.3s-.1-.4-.4-.7l-.9-.6-.9-.7a2,2,0,0,1-.4-.8c0-.5.5-1.1,1.4-1.7A4.3,4.3,0,0,1,28,39.1Z"/><path d="M40.4,39.3c.1-.3.2-.4.5-.4s.4.2.7.6a1.9,1.9,0,0,1,.5,1,17.9,17.9,0,0,1-.6,2c-.4,1.3-.8,2.3-1,3.1a.9.9,0,0,1-.6.6l-.5-.2a1.4,1.4,0,0,1-.2-.7,3,3,0,0,1,.2-1.2c-1,1.4-1.7,2.1-2.3,2.1a1.7,1.7,0,0,1-1.1-.6,1.5,1.5,0,0,1-.6-1.1,8.2,8.2,0,0,1,.7-3.4c.5-1.4.9-2.1,1.4-2.1a1.1,1.1,0,0,1,.7.3,1.3,1.3,0,0,1,.3.8,4.2,4.2,0,0,1-.3.9,9.8,9.8,0,0,0-1,3.3h0c.2,0,.4-.2.8-.7a12.2,12.2,0,0,0,1.3-1.9A13.6,13.6,0,0,0,40.4,39.3Z"/><path d="M47.4,38.8a1.5,1.5,0,0,1,1.3.7,1.9,1.9,0,0,1,.6,1.3,10.7,10.7,0,0,1-.3,2.5,7.7,7.7,0,0,1-.9,2c-.3.5-.6.8-.9.8s-.4-.3-.5-.7a10.8,10.8,0,0,1,.5-2,10.5,10.5,0,0,0,.3-1.8c0-.4,0-.6-.1-.6a.5.5,0,0,0-.4.2l-.3.3c0,.1-.1.2-.2.4l-.3.4c0,.1-.1.2-.2.4l-.3.5c-.1.1-.1.3-.2.4-.9,1.7-1.6,2.5-2,2.5a1.5,1.5,0,0,1-.8-.5,1.8,1.8,0,0,1-.5-.7,4.1,4.1,0,0,1,.2-.7,2,2,0,0,0,.3-.8c.1-.2.1-.4.2-.6a1.3,1.3,0,0,1,.1-.6v-.6a1.8,1.8,0,0,1,.1-.6,5.4,5.4,0,0,1,.2-2c0-.2.1-.2.2-.2a1.4,1.4,0,0,1,1,.4,1.5,1.5,0,0,1,.5.8,9.6,9.6,0,0,1-.4,2.5,17.4,17.4,0,0,1,1.6-2.6C46.7,39.2,47.1,38.8,47.4,38.8Z"/><path d="M56,42c.2.1.3.2.3.4s-.1.3-.2.7a6.4,6.4,0,0,1-.2.9.7.7,0,0,1-.1.5v.8c0,.1,0,.1-.1.2v.2h-.1l-.3.2-.5-.4a3,3,0,0,1-.4-1c-.9.9-1.6,1.4-2.2,1.4a1.7,1.7,0,0,1-1.3-.7A2,2,0,0,1,50,44a4.9,4.9,0,0,1,.6-1.9,11.9,11.9,0,0,1,1.6-2.3,3.1,3.1,0,0,1,2.1-1.1,3,3,0,0,1,1.4.7,1.9,1.9,0,0,1,.7,1.2A2,2,0,0,1,56,42Zm-4,2.2a2.2,2.2,0,0,0,1.5-.8,2.9,2.9,0,0,0,1.1-1.9.2.2,0,0,1,.2-.2c0-.5-.1-.8-.2-.8s-.8.3-1.3.8a8.3,8.3,0,0,0-1.1,1.5,3.1,3.1,0,0,0-.4,1.2v.2Z"/><path d="M68.6,41.8a.8.8,0,0,1,.2.4,3.2,3.2,0,0,1-.1.8,2.9,2.9,0,0,0-.2.9.8.8,0,0,0-.1.4.4.4,0,0,1-.1.3v.3a.3.3,0,0,1-.1.2v.3h-.1c0,.1-.1.1-.1.2h-.3c-.1,0-.3-.1-.5-.4a3.6,3.6,0,0,1-.4-.9,3.5,3.5,0,0,1-2.2,1.3,2.2,2.2,0,0,1-1.3-.6,1.9,1.9,0,0,1-.7-1.3,4.5,4.5,0,0,1,.6-1.9,7.2,7.2,0,0,1,1.6-2.4,2.8,2.8,0,0,1,2-1,2.4,2.4,0,0,1,1.4.6c.5.5.8.9.8,1.3A3.8,3.8,0,0,1,68.6,41.8Zm-4.1,2.3a2.8,2.8,0,0,0,1.5-.8,3.1,3.1,0,0,0,1.1-2l.3-.2c-.1-.5-.2-.8-.3-.8a2.1,2.1,0,0,0-1.2.8,6.1,6.1,0,0,0-1.2,1.6,4.1,4.1,0,0,0-.4,1.2c0,.1,0,.1.1.1S64.4,44.1,64.5,44.1Z"/><path d="M74.8,38.5c.3,0,.7.3,1.1.9a3.2,3.2,0,0,1,.6,1.8,2.7,2.7,0,0,1-.4,1.4A5.3,5.3,0,0,1,74.9,44a6.1,6.1,0,0,1-1.6,1.2,4.9,4.9,0,0,1-1.8.5h-.2c-.6,2.5-1,3.7-1.2,3.7s-.4-.2-.6-.5a1.2,1.2,0,0,1-.4-.8c0-.2.2-.9.4-2a32.7,32.7,0,0,0,1.1-7.4c0-.3.1-.4.4-.4a1.6,1.6,0,0,1,.9.4,1.5,1.5,0,0,1,.6.9A3.7,3.7,0,0,1,74.8,38.5Zm-1,4.3a2.8,2.8,0,0,0,.9-1.7c0-.5-.1-.8-.4-.7a1.7,1.7,0,0,0-1.2.6l-.6.9a8.1,8.1,0,0,0-.6,1.3l-.2.8A3.8,3.8,0,0,0,73.8,42.8Z"/><path d="M82.2,38.7c0-.2.2-.3.4-.3a1.5,1.5,0,0,1,.8.5,1.6,1.6,0,0,1,.4,1,8.5,8.5,0,0,1-.6,2.1l-.9,3a.7.7,0,0,1-.7.6.5.5,0,0,1-.4-.2c-.2-.1-.2-.3-.2-.6a7.2,7.2,0,0,1,.1-1.3c-.9,1.4-1.7,2.1-2.3,2.1a1.4,1.4,0,0,1-1-.5,1.6,1.6,0,0,1-.7-1.1,10.7,10.7,0,0,1,.7-3.5c.5-1.4,1-2.1,1.4-2.1a.9.9,0,0,1,.8.4,1.1,1.1,0,0,1,.3.8,4.2,4.2,0,0,1-.3.9,10.1,10.1,0,0,0-1.1,3.3H79l.8-.7,1.3-1.9C81.5,40.4,81.9,39.6,82.2,38.7Z"/><path d="M89.4,42.1a3.3,3.3,0,0,1-1.9.6H85.9a1.7,1.7,0,0,0-.1.7,3.5,3.5,0,0,0,.1.6h.7l1.8-.2.7-.2c.4,0,.6.1.6.4s-.3.7-.9,1a3.5,3.5,0,0,1-2,.5,2.4,2.4,0,0,1-1.9-.7,2.5,2.5,0,0,1-.8-1.7,4.9,4.9,0,0,1,.6-2.2,8.6,8.6,0,0,1,1.4-1.8,2.9,2.9,0,0,1,1.8-.8,2.5,2.5,0,0,1,1.7.8,2.9,2.9,0,0,1,.8,1.8A1.4,1.4,0,0,1,89.4,42.1Zm-1-1.8-.5-.3c-.2,0-.4.1-.7.4a2.6,2.6,0,0,0-.7,1h.3c1.3,0,1.9-.3,1.9-.7S88.6,40.5,88.4,40.3Z"/><path d="M95.4,38.2a1.4,1.4,0,0,1,1,.6,1.6,1.6,0,0,1,.5,1.2c0,.2-.1.3-.2.3h-.5l-.7-.2-1,.3q-.6.2-.6.6c0,.1.1.2.4.4l.8.5.9.8a2.1,2.1,0,0,1,.4,1.1c0,.3-.3.7-.9,1.1a3.2,3.2,0,0,1-2,.6,3,3,0,0,1-1.9-.4c-.6-.4-.8-.7-.8-1.1s.1-.5.4-.6l.4.2a4.8,4.8,0,0,0,1.8.4c.7,0,1-.1,1-.3A.7.7,0,0,0,94,43a2.2,2.2,0,0,0-.9-.7,2.7,2.7,0,0,1-.8-.7,1,1,0,0,1-.4-.8c-.1-.5.4-1.1,1.3-1.7A4.2,4.2,0,0,1,95.4,38.2Z"/><path d="M100.8,40.9a10.7,10.7,0,0,0-.6,1.7l-.3,1c0,.1.1.1.3.1l1.1-.3,1-.3c.2-.1.3.1.3.4s-.3.7-.9,1.2a3.4,3.4,0,0,1-1.9.7,2.1,2.1,0,0,1-1.1-.5,1.4,1.4,0,0,1-.6-1,6.5,6.5,0,0,1,.4-1.8,17.1,17.1,0,0,1,.5-1.8h-.8a.9.9,0,0,1-.6-.3,1.3,1.3,0,0,1-.3-.8c0-.3.7-.5,2.2-.8a19.9,19.9,0,0,0,.2-2.2c0-.3.1-.4.4-.4a1.2,1.2,0,0,1,.9.4c.4.3.6.6.6.8a5.7,5.7,0,0,1-.1,1.2h1c.7,0,1,.1,1,.5s-.2.3-.6.5l-1.8.5A5.3,5.3,0,0,0,100.8,40.9Z"/><path d="M109.7,41.3c.2.1.3.2.3.4l-.2.7a5.1,5.1,0,0,0-.2.9.7.7,0,0,1-.1.5v.3a.4.4,0,0,1-.1.3v.2c0,.1,0,.1-.1.2V45a.1.1,0,0,0-.1.1h-.3l-.5-.3a3,3,0,0,1-.4-1c-.9.9-1.6,1.4-2.2,1.4a1.7,1.7,0,0,1-1.3-.7,1.7,1.7,0,0,1-.8-1.3,4.9,4.9,0,0,1,.6-1.9,8.7,8.7,0,0,1,1.6-2.3A3.1,3.1,0,0,1,108,38a2.4,2.4,0,0,1,1.3.7c.6.5.8.9.8,1.2A2.7,2.7,0,0,1,109.7,41.3Zm-4,2.2c.4,0,.8-.2,1.5-.8a2.9,2.9,0,0,0,1.1-1.9l.2-.2c0-.5-.1-.8-.2-.8s-.8.3-1.3.8a8.3,8.3,0,0,0-1.1,1.5,3.1,3.1,0,0,0-.4,1.2v.2Z"/><path d="M121.3,37.9q.6,0,1.2.9a3.2,3.2,0,0,1,.6,1.8,3.4,3.4,0,0,1-.5,1.4,7.6,7.6,0,0,1-1.1,1.4,6.6,6.6,0,0,1-1.7,1.2,4.1,4.1,0,0,1-1.8.5h-.2c-.5,2.5-.9,3.7-1.2,3.7s-.4-.2-.6-.5a1.6,1.6,0,0,1-.3-.8,10.4,10.4,0,0,1,.4-2,39.7,39.7,0,0,0,1.1-7.4c0-.3.1-.4.4-.4l.8.3a1.7,1.7,0,0,1,.7,1A3.5,3.5,0,0,1,121.3,37.9Zm-1,4.3a3.5,3.5,0,0,0,1-1.7c-.1-.5-.2-.8-.5-.8a1.9,1.9,0,0,0-1.2.7l-.6.9a4.3,4.3,0,0,0-.5,1.2l-.2.9A3.3,3.3,0,0,0,120.3,42.2Z"/><path d="M124.8,39.4c.7-1.1,1.4-1.6,2.2-1.6a2.4,2.4,0,0,1,2.5,2.5,4.1,4.1,0,0,1-.5,2.1,4.5,4.5,0,0,1-1.4,1.9,2.8,2.8,0,0,1-1.9.7,1.8,1.8,0,0,1-1.3-.6,2.5,2.5,0,0,1-.6-1.7A5.6,5.6,0,0,1,124.8,39.4Zm2.3,2.8a3.8,3.8,0,0,0,.6-1.9,1.7,1.7,0,0,0-.3-1.2,3.2,3.2,0,0,0-1.2,1.5,3.8,3.8,0,0,0-.5,1.9,2.8,2.8,0,0,0,.1,1.1A2.6,2.6,0,0,0,127.1,42.2Z"/><path d="M131,40.1V38.5c0-.5.1-.8.5-.8l.5.2a1.6,1.6,0,0,1,.4.7,4.1,4.1,0,0,1,1.1-.7,1.9,1.9,0,0,1,1-.3c.6,0,1,.2,1,.5s0,.3-.1.4a.1.1,0,0,0-.1.1l-.2.2h-.2l-.4.3a5.2,5.2,0,0,0-1.1,1,3.4,3.4,0,0,0-.6,1.5,11,11,0,0,1-.8,2.4c-.2.6-.4.8-.7.8a.7.7,0,0,1-.7-.4,1.9,1.9,0,0,1-.2-.8,8.9,8.9,0,0,1,.2-1.1,9.3,9.3,0,0,0,.4-1.3A4.1,4.1,0,0,0,131,40.1Z"/><path d="M142.3,34.3c0-.4.2-.6.5-.6s.5.2.9.6a1.9,1.9,0,0,1,.5,1,8.3,8.3,0,0,1-.2,1.3c-.1.6-.2,1-.3,1.5s-.3,1.1-.6,1.9l-.5,1.8a12.7,12.7,0,0,1,1.9-3.1c.7-.8,1.2-1.2,1.7-1.2s.6.3,1,.8a2.2,2.2,0,0,1,.6,1.3,16.2,16.2,0,0,1-.2,1.8,10.5,10.5,0,0,1-.8,2.3c-.3.7-.7,1.1-1.1,1.1s-.5-.2-.5-.7a6.4,6.4,0,0,1,.3-1.5c.2-1.1.4-1.8.4-2s-.1-.4-.2-.4-1.3,1-2.3,2.8a11.6,11.6,0,0,1-.9,1.4.7.7,0,0,1-.6.4c-.3,0-.5-.2-.8-.5a1.5,1.5,0,0,1-.5-.8,2.5,2.5,0,0,1,.1-.8l.4-1.6c.1-.7.4-2,.7-3.8A19.6,19.6,0,0,0,142.3,34.3Z"/><path d="M153.4,37.8a.7.7,0,0,1,.5-.4c.2,0,.5.2.8.6a1.6,1.6,0,0,1,.4,1,17.9,17.9,0,0,1-.6,2c-.4,1.3-.7,2.3-1,3.1s-.3.6-.6.6l-.5-.2a1.4,1.4,0,0,1-.2-.7,7.4,7.4,0,0,1,.2-1.2c-1,1.4-1.7,2.1-2.3,2.1a1.7,1.7,0,0,1-1.1-.6,1.4,1.4,0,0,1-.6-1.1,10.2,10.2,0,0,1,.7-3.4c.5-1.4,1-2.1,1.4-2.1a.9.9,0,0,1,.7.3c.2.3.4.5.4.8s-.2.4-.4,1a8.9,8.9,0,0,0-1,3.2c0,.1,0,.1.1.1s.4-.2.8-.7a9,9,0,0,0,1.2-1.9A9.1,9.1,0,0,0,153.4,37.8Z"/><path d="M164.7,37.3c.4,0,.7.2,1,.7a3.5,3.5,0,0,1,.3,1.3,6.9,6.9,0,0,1-.2,1.8,6.2,6.2,0,0,1-.7,2.3c-.3.7-.6,1.1-1,1.1s-.5-.2-.5-.6a12.6,12.6,0,0,1,.3-2.1,6.5,6.5,0,0,0,.4-1.8c0-.3-.1-.5-.2-.5s-.4.2-.7.7l-.9,1.7c-.4.7-.6,1.2-.7,1.4l-.2.5c-.1.1-.1.2-.2.4s-.7.5-1.2,0-.4-.5-.4-.7.1-.4.2-1.1a8.2,8.2,0,0,0,.2-2.3c0-.4,0-.5-.1-.5l-.4.3-.7,1.2-.7,1.5c-.8,1.3-1.4,2-1.8,2a1,1,0,0,1-.8-.5,1.2,1.2,0,0,1-.4-.8,6.6,6.6,0,0,1,.3-1.3,7.8,7.8,0,0,0,.3-2.2c.1-.8.1-1.4.2-1.9s.1-.6.3-.6a1.3,1.3,0,0,1,1,.4,1,1,0,0,1,.5.8,10.7,10.7,0,0,1-.5,2.9,11.5,11.5,0,0,1,1.6-3.2,2.4,2.4,0,0,1,1.3-.9c.3,0,.6.3,1,.7a2.4,2.4,0,0,1,.5,1.3v1a6.7,6.7,0,0,1,1.3-2.1A2.4,2.4,0,0,1,164.7,37.3Z"/><path d="M172.8,40.4l.2.4a2.8,2.8,0,0,1-.1.8,5.1,5.1,0,0,0-.2.9,1.1,1.1,0,0,0-.1.5c0,.1-.1.2-.1.3v.2c0,.1-.1.2-.1.3V44c0,.1-.1.1-.1.2h-.1c0,.1-.1.1-.3.1s-.3-.1-.5-.4a3.9,3.9,0,0,1-.4-.9c-.9.9-1.6,1.4-2.2,1.4a2.4,2.4,0,0,1-1.3-.7,1.7,1.7,0,0,1-.7-1.3,4.5,4.5,0,0,1,.6-1.9,8.7,8.7,0,0,1,1.6-2.3,2.9,2.9,0,0,1,2-1.1,2.1,2.1,0,0,1,1.4.7,1.7,1.7,0,0,1,.8,1.2A2.4,2.4,0,0,1,172.8,40.4Zm-4.1,2.3a2.8,2.8,0,0,0,1.5-.8,2.9,2.9,0,0,0,1.1-1.9c.1-.1.1-.2.3-.2s-.1-.8-.3-.8a1.5,1.5,0,0,0-1.2.7,6.1,6.1,0,0,0-1.2,1.6,5.4,5.4,0,0,0-.4,1.2c0,.1,0,.1.1.2Z"/><path d="M179.1,37.1a1.8,1.8,0,0,1,1.3.6,2.7,2.7,0,0,1,.5,1.4,11.3,11.3,0,0,1-.3,2.5,10.3,10.3,0,0,1-.8,2c-.3.5-.6.7-.9.7s-.5-.2-.5-.6a8.7,8.7,0,0,1,.4-2.1,8.2,8.2,0,0,0,.3-1.8c0-.3,0-.5-.1-.5l-.4.2-.2.3-.3.4a.5.5,0,0,0-.2.4l-.3.4-.3.5c0,.1-.1.2-.2.4s-1.5,2.5-2,2.5a1.5,1.5,0,0,1-.8-.5c-.3-.4-.4-.6-.4-.8a1,1,0,0,1,.2-.6,3.4,3.4,0,0,1,.3-.8c0-.2.1-.4.1-.6s.1-.4.1-.7a.7.7,0,0,1,.1-.5v-.6a12.1,12.1,0,0,1,.2-2.1.2.2,0,0,1,.2-.2,1.6,1.6,0,0,1,1,.5c.3.3.5.5.5.8a10.3,10.3,0,0,1-.4,2.5,27.6,27.6,0,0,1,1.6-2.7C178.3,37.4,178.7,37.1,179.1,37.1Z"/><path d="M183.3,37a.9.9,0,0,1,.8.6,1.7,1.7,0,0,1,.4,1.1,12.1,12.1,0,0,1-.4,1.9l-.9,3.1a.7.7,0,0,1-.7.6.9.9,0,0,1-.6-.3.8.8,0,0,1-.2-.6,15,15,0,0,1,.3-1.8c.3-1,.4-1.8.6-2.5a15.7,15.7,0,0,1,.3-1.6C183,37.2,183.1,37,183.3,37Zm-.3-1.7a1.6,1.6,0,0,1,.3-.8l.7-.3c.2-.1.4.2.7.7a3.1,3.1,0,0,1,.5,1.1.8.8,0,0,1-.2.5l-.5.2a1.4,1.4,0,0,1-.9-.5Q183,35.6,183,35.3Z"/><path d="M187.5,42.4H191c.2.1.3.2.3.4s-.4.8-1.3,1a9,9,0,0,1-3.1.4,2.1,2.1,0,0,1-1.2-.5,2.2,2.2,0,0,1-.7-1c0-.3.3-.6.7-1a9.1,9.1,0,0,1,1.6-1.1l1.5-1c.5-.3.7-.5.7-.6s-.2-.2-.7-.2h-2c-.2,0-.4-.1-.7-.4s-.4-.6-.4-.8.3-.5.7-.6L188,37a6.5,6.5,0,0,1,1.9.2,1.8,1.8,0,0,1,.9.7,1.6,1.6,0,0,1,.4.9,1.7,1.7,0,0,1-.6,1.2,4.9,4.9,0,0,1-1.3,1.2,5.7,5.7,0,0,0-1.3.8c-.4.2-.6.3-.6.4Z"/><path d="M198,40.1a.5.5,0,0,1,.3.4c0,.1-.1.4-.2.8s-.1.6-.2.9a.9.9,0,0,1-.1.5v.2a.4.4,0,0,1-.1.3v.2a.4.4,0,0,1-.1.3h0c-.1.1-.1.1-.1.2h-.3c-.1,0-.3-.1-.5-.4a3.6,3.6,0,0,1-.4-.9,3.5,3.5,0,0,1-2.2,1.3,1.9,1.9,0,0,1-1.3-.6c-.5-.5-.8-.9-.8-1.3a4.5,4.5,0,0,1,.6-1.9,7.3,7.3,0,0,1,1.6-2.3,2.7,2.7,0,0,1,2.1-1.1,2.2,2.2,0,0,1,1.3.6,1.7,1.7,0,0,1,.8,1.3A2.4,2.4,0,0,1,198,40.1Zm-4,2.3a2.8,2.8,0,0,0,1.5-.8,3.1,3.1,0,0,0,1.1-2c0-.1.1-.1.2-.2s-.1-.8-.2-.8a2.7,2.7,0,0,0-1.3.8,9.1,9.1,0,0,0-1.1,1.6,2.4,2.4,0,0,0-.4,1.2h0C193.8,42.4,193.9,42.4,194,42.4Z"/><path d="M200,39.2V37.6c0-.5.1-.8.5-.8l.5.2a1.6,1.6,0,0,1,.4.7,4.1,4.1,0,0,1,1.1-.7,1.9,1.9,0,0,1,1-.3c.6,0,1,.2,1,.5s0,.3-.1.4a.1.1,0,0,0-.1.1l-.2.2h-.2l-.4.3a5.2,5.2,0,0,0-1.1,1,3.4,3.4,0,0,0-.6,1.5,11,11,0,0,1-.8,2.4c-.2.6-.4.8-.7.8a.7.7,0,0,1-.7-.4,1.2,1.2,0,0,1-.2-.8,8.9,8.9,0,0,1,.2-1.1,9.3,9.3,0,0,0,.4-1.3A4.1,4.1,0,0,0,200,39.2Z"/><path d="M212.4,33.4a1.7,1.7,0,0,1,.6,1.1c0,.4-.1,1.1-.2,2s-.2,1.7-.3,2.3q-1,5.1-1.5,5.1a2.1,2.1,0,0,1-1.3-1.3s.1-.5.4-1.5.5-2.1.7-3.6a33.4,33.4,0,0,0,.3-4.3c0-.3.2-.4.5-.4S212.1,33,212.4,33.4Z"/><path d="M219.4,39.8c.1.2.2.3.2.4a3.2,3.2,0,0,1-.1.8,9.2,9.2,0,0,0-.3.9v.5a.4.4,0,0,0-.1.3v.2a.4.4,0,0,0-.1.3v.2c-.1.1-.1.1-.1.2a.1.1,0,0,0-.1.1h-.3c-.1,0-.3-.1-.5-.4a2.5,2.5,0,0,1-.4-.9,3.5,3.5,0,0,1-2.2,1.3,1.6,1.6,0,0,1-1.3-.6,1.7,1.7,0,0,1-.7-1.3,4.1,4.1,0,0,1,.5-1.9,9.4,9.4,0,0,1,1.6-2.3,3.1,3.1,0,0,1,2.1-1.1,2.3,2.3,0,0,1,1.4.7,2.1,2.1,0,0,1,.8,1.2A3.8,3.8,0,0,1,219.4,39.8Zm-4.1,2.3a2.8,2.8,0,0,0,1.5-.8,3.1,3.1,0,0,0,1.1-1.9c0-.2.1-.2.3-.2s-.2-.8-.3-.8a1.9,1.9,0,0,0-1.3.7,9.1,9.1,0,0,0-1.1,1.6,2.4,2.4,0,0,0-.4,1.2v.2Z"/><path d="M48.4,60.3a4.1,4.1,0,0,1-1.9.5H44.9a2.2,2.2,0,0,0-.1.8.7.7,0,0,0,.1.5,1,1,0,0,0,.7.2,4.8,4.8,0,0,0,1.8-.3l.7-.2c.4,0,.6.2.6.4s-.3.7-.9,1.1a4.6,4.6,0,0,1-2.1.5,3.2,3.2,0,0,1-1.9-.7,2.9,2.9,0,0,1-.7-1.8,4.2,4.2,0,0,1,.6-2.1,5.5,5.5,0,0,1,1.4-1.9,2.9,2.9,0,0,1,1.8-.8,2.2,2.2,0,0,1,1.7.9,2.5,2.5,0,0,1,.7,1.7C49.3,59.5,49,59.9,48.4,60.3Zm-1-1.9a.6.6,0,0,0-.5-.2l-.7.3-.8,1h.4c1.3,0,1.9-.2,1.9-.7Z"/><path d="M49.9,61.4a4.5,4.5,0,0,1,.6-2.1,8.3,8.3,0,0,1,1.6-2.1,3.4,3.4,0,0,1,2-.8c.3,0,.6.2,1,.6a2.1,2.1,0,0,1,.5,1.1c0,.3-.1.4-.3.4l-.5-.2h-.6a2.1,2.1,0,0,0-.9.5,6,6,0,0,0-.9,1.3,2.8,2.8,0,0,0-.5,1.2.8.8,0,0,0,.2.5H54l.8-.3h.4c.3,0,.4.1.4.4s-.3.8-1.1,1.2a3.5,3.5,0,0,1-2.1.7,2.7,2.7,0,0,1-1.6-.8C50.2,62.3,49.9,61.9,49.9,61.4Z"/><path d="M57.7,57.8c.8-1,1.5-1.5,2.2-1.5a2.1,2.1,0,0,1,1.8.7,2.4,2.4,0,0,1,.7,1.8,5.2,5.2,0,0,1-.4,2.1,5.5,5.5,0,0,1-1.4,1.9,3.7,3.7,0,0,1-2,.7,1.6,1.6,0,0,1-1.3-.7,2.3,2.3,0,0,1-.6-1.6A6.1,6.1,0,0,1,57.7,57.8Zm2.4,2.9a4.9,4.9,0,0,0,.5-1.9,2.3,2.3,0,0,0-.3-1.3A4.9,4.9,0,0,0,59.1,59a5.8,5.8,0,0,0-.5,2c0,.6,0,.9.2,1.1A3.6,3.6,0,0,0,60.1,60.7Z"/><path d="M68.2,56.2a1.6,1.6,0,0,1,1.3.6,2,2,0,0,1,.6,1.4,11.3,11.3,0,0,1-.3,2.5,12.9,12.9,0,0,1-.9,2c-.3.4-.6.7-.9.7s-.4-.2-.4-.7a5.1,5.1,0,0,1,.4-2,8.2,8.2,0,0,0,.3-1.8c0-.4,0-.6-.1-.6a.5.5,0,0,0-.4.2l-.3.4-.2.3-.3.4a1.7,1.7,0,0,1-.2.5l-.3.4c-.1.1-.1.3-.2.5s-1.6,2.4-2,2.4a1,1,0,0,1-.8-.5,5,5,0,0,1-.5-.7c0-.1.1-.3.2-.7a1.6,1.6,0,0,0,.3-.8c.1-.1.1-.3.2-.5a1.5,1.5,0,0,1,.1-.7v-.6a3.5,3.5,0,0,0,.1-.6,5.4,5.4,0,0,1,.2-2l.2-.2a1.4,1.4,0,0,1,1,.4,1.5,1.5,0,0,1,.5.8,9.6,9.6,0,0,1-.4,2.5A24.7,24.7,0,0,1,67,57.2C67.5,56.5,67.9,56.2,68.2,56.2Z"/><path d="M71.9,57.7c.7-1.1,1.4-1.6,2.1-1.6a2.4,2.4,0,0,1,1.8.7,2.5,2.5,0,0,1,.8,1.8,5.4,5.4,0,0,1-.5,2.1,4.5,4.5,0,0,1-1.4,1.9,2.8,2.8,0,0,1-1.9.7,2,2,0,0,1-1.4-.6,3.5,3.5,0,0,1-.6-1.7A5.7,5.7,0,0,1,71.9,57.7Zm2.3,2.8a3.6,3.6,0,0,0,.5-1.9,2.9,2.9,0,0,0-.2-1.2,3.5,3.5,0,0,0-1.2,1.4,4.9,4.9,0,0,0-.6,2,2.3,2.3,0,0,0,.2,1.1A3,3,0,0,0,74.2,60.5Z"/><path d="M86.7,55.9c.3,0,.6.2.9.7A4.3,4.3,0,0,1,88,58a6.7,6.7,0,0,1-.3,1.7,8.6,8.6,0,0,1-.6,2.3c-.4.8-.7,1.1-1.1,1.1s-.5-.2-.5-.6a6.8,6.8,0,0,1,.4-2,12.9,12.9,0,0,0,.3-1.9,1.2,1.2,0,0,0-.1-.5c-.2,0-.5.3-.7.7a19.4,19.4,0,0,0-1,1.7c-.4.7-.6,1.2-.7,1.4s-.1.4-.2.5-.1.3-.2.4-.7.5-1.2,0a1.3,1.3,0,0,1-.4-.7l.2-1a6.2,6.2,0,0,0,.2-2.4c0-.3,0-.5-.1-.5l-.4.3L81,59.8l-.8,1.4c-.8,1.4-1.4,2-1.8,2s-.5-.1-.8-.5a1.3,1.3,0,0,1-.4-.7,7,7,0,0,1,.3-1.4,7.8,7.8,0,0,0,.3-2.2c.1-.8.1-1.4.2-1.8s.1-.7.3-.7a1.8,1.8,0,0,1,1,.4c.4.3.6.6.6.8a11.3,11.3,0,0,1-.6,2.9,18.5,18.5,0,0,1,1.6-3.2,2.1,2.1,0,0,1,1.4-.8q.3,0,.9.6a2.7,2.7,0,0,1,.5,1.3v1a6.3,6.3,0,0,1,1.3-2A2.2,2.2,0,0,1,86.7,55.9Z"/><path d="M90.6,55.9a1.1,1.1,0,0,1,.9.5,2.5,2.5,0,0,1,.4,1.1,18.3,18.3,0,0,1-.5,1.9l-.9,3.1a.7.7,0,0,1-.7.6l-.5-.2a.7.7,0,0,1-.2-.6c-.1-.2,0-.4,0-.7l.3-1.1a8.9,8.9,0,0,0,.2-1.1c.1-.3.1-.6.2-1s.1-.7.1-.9.1-.5.2-.8S90.4,55.9,90.6,55.9Zm.7-.4a.5.5,0,0,1-.4-.2.8.8,0,0,1-.2-.5c0-.2.1-.3.2-.5l.5-.6.6-.5.4-.3c0-.1.1-.2.2-.3l.3-.2h.3a1,1,0,0,1,.7.4,2.5,2.5,0,0,1,.2.7v.4c0,.1-.1.2-.2.3l-.4.2-.5.3-.6.3-.5.3Z"/><path d="M98.3,59c.2.2.3.3.3.4s-.1.4-.2.8a6.4,6.4,0,0,1-.2.9.9.9,0,0,1-.1.5v.2a.4.4,0,0,1-.1.3v.3a.3.3,0,0,1-.1.2h0c-.1.1-.1.1-.1.2h-.3c-.1,0-.3-.1-.5-.4a2.5,2.5,0,0,1-.4-.9A3.5,3.5,0,0,1,94.4,63a1.9,1.9,0,0,1-1.3-.6,1.9,1.9,0,0,1-.8-1.3,4.5,4.5,0,0,1,.6-1.9,7.3,7.3,0,0,1,1.6-2.3,3.1,3.1,0,0,1,2.1-1.1,1.9,1.9,0,0,1,1.3.7,1.4,1.4,0,0,1,.8,1.2A2.4,2.4,0,0,1,98.3,59Zm-4,2.3a2.8,2.8,0,0,0,1.5-.8,3.1,3.1,0,0,0,1.1-1.9c0-.2.1-.2.2-.2s-.1-.8-.2-.8a1.9,1.9,0,0,0-1.3.7,9.1,9.1,0,0,0-1.1,1.6,2.4,2.4,0,0,0-.4,1.2h.2Z"/><path d="M110.1,56c0-.3.2-.4.5-.4a1,1,0,0,1,.7.5,1.3,1.3,0,0,1,.4,1,1.6,1.6,0,0,1-.2,1.1,4.5,4.5,0,0,0-.3,1.1,4.6,4.6,0,0,0-.3.9,10.4,10.4,0,0,1-.4,1,9.3,9.3,0,0,1-.4,1.3c-.2.5-.3,1-.5,1.5a4.3,4.3,0,0,1-1,1.9,1.9,1.9,0,0,1-1.6.7,2.7,2.7,0,0,1-1.8-.5,1.4,1.4,0,0,1-.8-1,1.1,1.1,0,0,1,.3-.7c.2-.3.3-.4.5-.4l.5.3.7.6c.2.2.4.4.6.4l.3-.2c.1-.1.2-.2.2-.3l.2-.4c0-.1.1-.3.1-.4l.2-.5c0-.3.1-.4.1-.6a10.3,10.3,0,0,0,.4-1.4,4.5,4.5,0,0,1-.9,1,1.8,1.8,0,0,1-.9.4c-.3,0-.6-.2-1-.6a2.1,2.1,0,0,1-.7-1.4,8.8,8.8,0,0,1,.3-2,12.3,12.3,0,0,1,.8-2.3,1.8,1.8,0,0,1,.9-1c.3,0,.5.2.8.4s.4.5.4.7a3.6,3.6,0,0,1-.3,1.1c-.2.5-.5,1.1-.7,1.7a4.9,4.9,0,0,0-.3,1.5h0c.2,0,.4-.2.8-.7l1.3-1.9A17.4,17.4,0,0,0,110.1,56Z"/><path d="M122.9,54.3c0-.2-.1-.4-.1-.6l-.4-.2-.3.2-.3.9a10.8,10.8,0,0,0-.5,2.1h2.4a.4.4,0,0,1,.2.4c0,.3-.2.5-.7.7l-2.3.5A32.7,32.7,0,0,1,120,62c-.2.4-.4.7-.6.7s-.4-.1-.7-.4a1.3,1.3,0,0,1-.3-.7,1.1,1.1,0,0,1,.1-.5,21,21,0,0,0,.6-2.4h-.8a.9.9,0,0,1-.6-.3.9.9,0,0,1-.3-.7c0-.3.6-.6,2-.9a12,12,0,0,1,1-3.9,2.4,2.4,0,0,1,2.1-1.2,1.4,1.4,0,0,1,1.2.6,2,2,0,0,1,.6,1.5c0,.4,0,.7-.2.9s-.2.3-.4.3a.4.4,0,0,1-.5-.2Z"/><path d="M124.7,57c.7-1.1,1.4-1.6,2.1-1.6a2.4,2.4,0,0,1,2.5,2.5,4.5,4.5,0,0,1-.4,2.2,6.2,6.2,0,0,1-1.4,1.8,3.1,3.1,0,0,1-2,.7,1.8,1.8,0,0,1-1.3-.6,2.5,2.5,0,0,1-.6-1.7A5.7,5.7,0,0,1,124.7,57Zm2.3,2.8a4.9,4.9,0,0,0,.5-1.9,1.7,1.7,0,0,0-.3-1.2c-.4.2-.7.7-1.1,1.5a4.1,4.1,0,0,0-.6,1.9,2,2,0,0,0,.2,1.1A3,3,0,0,0,127,59.8Z"/><path d="M130.8,57.7V56.1c0-.5.2-.8.5-.8l.5.2a1.8,1.8,0,0,1,.5.7l1-.7,1-.3c.7,0,1,.2,1,.5s0,.3-.1.4a.1.1,0,0,1-.1.1l-.2.2a.1.1,0,0,1-.1.1l-.5.3a5.2,5.2,0,0,0-1.1,1,3.4,3.4,0,0,0-.6,1.5c-.3,1.1-.5,1.9-.7,2.4s-.5.8-.8.8a.8.8,0,0,1-.7-.4,1.9,1.9,0,0,1-.2-.8,3.6,3.6,0,0,1,.3-1.1,7.9,7.9,0,0,0,.3-1.3A4.1,4.1,0,0,0,130.8,57.7Z"/><path d="M138.4,58l-.5,1.7-.3,1.1h.2l1.1-.3,1-.3c.3,0,.4.1.4.4s-.3.7-.9,1.2a3.7,3.7,0,0,1-2,.7,1.9,1.9,0,0,1-1-.5,1.3,1.3,0,0,1-.7-1,16.3,16.3,0,0,1,.4-1.8l.6-1.8h-.8a.9.9,0,0,1-.6-.3,1.3,1.3,0,0,1-.3-.8c-.1-.3.7-.5,2.1-.8a5.8,5.8,0,0,0,.2-2.2c0-.3.2-.4.5-.4a1.6,1.6,0,0,1,.9.4,1.2,1.2,0,0,1,.6.9c0,.2-.1.6-.2,1.2h1c.7,0,1.1.2,1.1.5s-.2.4-.6.5l-1.9.5A9.7,9.7,0,0,1,138.4,58Z"/><path d="M147.4,58.4c.2.1.2.2.2.4a2.6,2.6,0,0,1-.1.7,5.1,5.1,0,0,0-.2.9,1.1,1.1,0,0,0-.1.5c0,.1-.1.2-.1.3v.3c0,.1,0,.1-.1.2v.2a.3.3,0,0,1-.1.2.1.1,0,0,1-.1.1c0,.1-.1.2-.3.2s-.3-.2-.4-.4a3.1,3.1,0,0,1-.5-1c-.9.9-1.6,1.4-2.2,1.4a1.9,1.9,0,0,1-1.3-.7,1.6,1.6,0,0,1-.7-1.3,4.9,4.9,0,0,1,.6-1.9,8.7,8.7,0,0,1,1.6-2.3,3.7,3.7,0,0,1,2-1.1,2.6,2.6,0,0,1,1.4.7c.5.5.8.9.8,1.3A2.7,2.7,0,0,1,147.4,58.4Zm-4.1,2.2a2.2,2.2,0,0,0,1.5-.8,2.9,2.9,0,0,0,1.1-1.9c.1-.1.1-.2.3-.2s-.1-.8-.3-.8a1.7,1.7,0,0,0-1.2.8,4.8,4.8,0,0,0-1.1,1.5,3.6,3.6,0,0,0-.5,1.3.1.1,0,0,0,.1.1Z"/><path d="M151.3,51.8a1.7,1.7,0,0,1,.6,1.1c0,.4-.1,1.1-.2,2s-.2,1.8-.3,2.3q-1.1,5.1-1.5,5.1a2.1,2.1,0,0,1-1.3-1.3s.1-.5.4-1.5.5-2.1.7-3.6a33.4,33.4,0,0,0,.3-4.3c0-.3.2-.4.5-.4S151,51.4,151.3,51.8Z"/><path d="M157.6,58.8a3.3,3.3,0,0,1-1.9.6h-1.6a1.7,1.7,0,0,0-.1.7,3.5,3.5,0,0,0,.1.6h.7a5,5,0,0,0,1.8-.2l.7-.2c.4,0,.6.1.6.4s-.3.7-.9,1a3.5,3.5,0,0,1-2,.5,2.1,2.1,0,0,1-1.9-.7,2.3,2.3,0,0,1-.8-1.7,4.2,4.2,0,0,1,.6-2.1,5.8,5.8,0,0,1,1.5-1.9,2.5,2.5,0,0,1,1.7-.8,2.2,2.2,0,0,1,1.7.9,2.5,2.5,0,0,1,.8,1.7A1.4,1.4,0,0,1,157.6,58.8Zm-1-1.8c-.2-.2-.3-.3-.5-.3s-.4.2-.7.4a3.6,3.6,0,0,0-.7,1h.3c1.3,0,1.9-.3,1.9-.7S156.8,57.2,156.6,57Z"/><path d="M159.2,60a3.7,3.7,0,0,1,.5-2.2,7.8,7.8,0,0,1,1.6-2,3,3,0,0,1,2-.9,1.4,1.4,0,0,1,1,.6,1.7,1.7,0,0,1,.5,1.2.3.3,0,0,1-.3.3c-.1.1-.3,0-.5-.1h-.6a1,1,0,0,0-.8.5,4.5,4.5,0,0,0-1,1.3c-.3.5-.5.8-.4,1.1s0,.5.1.6h1.9l.8-.3h.4c.3,0,.4.1.4.3a1.7,1.7,0,0,1-1,1.3,6.3,6.3,0,0,1-2.2.7,3,3,0,0,1-1.6-.8A2.3,2.3,0,0,1,159.2,60Z"/><path d="M171.3,58.7a4.1,4.1,0,0,1-1.9.5h-1.6a2.2,2.2,0,0,0-.1.8.7.7,0,0,0,.1.5,1,1,0,0,0,.7.2,8.4,8.4,0,0,0,1.8-.3l.7-.2c.4,0,.6.1.6.4s-.3.7-.9,1a3.7,3.7,0,0,1-2.1.6,2.6,2.6,0,0,1-1.9-.8,2.1,2.1,0,0,1-.7-1.7,4.2,4.2,0,0,1,.6-2.1,4.5,4.5,0,0,1,1.4-1.9,2.9,2.9,0,0,1,1.8-.8,2.4,2.4,0,0,1,1.7.9,2.5,2.5,0,0,1,.7,1.7C172.2,57.9,171.9,58.3,171.3,58.7Zm-1-1.9-.5-.3c-.2,0-.4.2-.7.4l-.8,1h.4c1.3,0,1.9-.2,1.9-.7S170.5,57,170.3,56.8Z"/><path d="M173.6,57.1V55.6c0-.6.1-.8.4-.8a.7.7,0,0,1,.6.2.9.9,0,0,1,.4.6,4.1,4.1,0,0,1,1.1-.7l.9-.2c.7,0,1.1.1,1.1.4s-.1.3-.1.4-.1.1-.1.2h-.2c-.1.1-.2.1-.2.2l-.4.3a3.3,3.3,0,0,0-1.1.9,4.8,4.8,0,0,0-.7,1.6,8.7,8.7,0,0,1-.7,2.4c-.2.5-.5.8-.8.8a.8.8,0,0,1-.6-.4,1.3,1.3,0,0,1-.2-.8,2.6,2.6,0,0,1,.2-1.1c.2-.5.3-1,.4-1.3S173.6,57.6,173.6,57.1Z"/><path d="M188.6,58.4a3.3,3.3,0,0,1-1.9.6h-1.6a1.7,1.7,0,0,0-.1.7c0,.3,0,.5.1.6h.6l1.8-.2.8-.2c.4,0,.6.1.6.4s-.3.7-.9,1a3.6,3.6,0,0,1-2.1.5,2.5,2.5,0,0,1-1.9-.7,2.3,2.3,0,0,1-.7-1.7,6.3,6.3,0,0,1,.5-2.2,6.5,6.5,0,0,1,1.5-1.8,2.9,2.9,0,0,1,1.8-.8,2.1,2.1,0,0,1,1.6.9,2.1,2.1,0,0,1,.8,1.7A1.5,1.5,0,0,1,188.6,58.4Zm-1-1.8a.9.9,0,0,0-.6-.3c-.1,0-.3.1-.6.4l-.8,1h.4c1.3,0,1.9-.3,1.9-.7S187.8,56.8,187.6,56.6Z"/><path d="M192.8,51.2a1.7,1.7,0,0,1,.6,1.2,18.2,18.2,0,0,1-.1,2c-.1.9-.3,1.7-.4,2.3q-1.1,5.1-1.5,5.1a2.1,2.1,0,0,1-1.3-1.3c0-.1.2-.5.4-1.5s.5-2.2.7-3.7a15.9,15.9,0,0,0,.3-4.3.5.5,0,0,1,.5-.4C192.2,50.6,192.5,50.8,192.8,51.2Z"/><path d="M21.8,74.4a.9.9,0,0,1,.9.5,1.7,1.7,0,0,1,.4,1.1,10.1,10.1,0,0,1-.4,1.9L21.8,81c-.2.4-.4.6-.7.6l-.6-.2a1.4,1.4,0,0,1-.2-.6,12.9,12.9,0,0,1,.3-1.9,15.7,15.7,0,0,0,.5-2.5l.4-1.5C21.6,74.5,21.7,74.4,21.8,74.4Zm-.2-1.8a1.1,1.1,0,0,1,.3-.7c.3-.3.5-.4.7-.4s.4.2.7.7a3.1,3.1,0,0,1,.5,1.1.8.8,0,0,1-.2.5.6.6,0,0,1-.5.2,1.1,1.1,0,0,1-.9-.5A1.2,1.2,0,0,1,21.6,72.6Z"/><path d="M29.1,74.3a1.6,1.6,0,0,1,1.2.6,2,2,0,0,1,.6,1.4,11.3,11.3,0,0,1-.3,2.5,13.8,13.8,0,0,1-.8,2c-.3.5-.6.7-1,.7s-.4-.2-.4-.7a8.2,8.2,0,0,1,.4-2,8.2,8.2,0,0,0,.3-1.8c0-.4,0-.5-.1-.5h-.4l-.3.4-.2.3-.3.4-.2.5-.3.4a1.7,1.7,0,0,1-.2.5c-.9,1.6-1.5,2.4-2,2.4s-.5-.1-.8-.5-.4-.5-.4-.7a1.4,1.4,0,0,1,.2-.7,3.1,3.1,0,0,0,.2-.8c.1-.1.1-.3.2-.5s.1-.5.1-.7V77a3.5,3.5,0,0,0,.1-.6,5.4,5.4,0,0,1,.2-2,.2.2,0,0,1,.2-.2,1.4,1.4,0,0,1,1,.4,1.5,1.5,0,0,1,.5.8,9.6,9.6,0,0,1-.4,2.5c.6-1,1.1-1.9,1.6-2.6S28.7,74.3,29.1,74.3Z"/><path d="M35,76.9c-.1.5-.3,1-.5,1.7l-.3,1.1h.2l1.1-.4,1-.3c.3,0,.4.2.4.5s-.3.7-.9,1.1a3.2,3.2,0,0,1-2,.7,2.1,2.1,0,0,1-1.1-.4c-.4-.4-.6-.7-.6-1a6.5,6.5,0,0,1,.4-1.8l.6-1.9-.9.2c-.1,0-.3-.1-.5-.4a.9.9,0,0,1-.4-.7c0-.3.8-.6,2.2-.8a9.8,9.8,0,0,0,.2-2.3.4.4,0,0,1,.4-.4,2.6,2.6,0,0,1,1,.4,1.2,1.2,0,0,1,.6.9,7.4,7.4,0,0,1-.2,1.2h1c.7,0,1.1.1,1.1.4s-.2.4-.6.6l-1.9.5A6.2,6.2,0,0,0,35,76.9Z"/><path d="M43.4,77.9a3.5,3.5,0,0,1-1.9.6H39.9a1.9,1.9,0,0,0-.2.7.8.8,0,0,0,.2.6h.6a5,5,0,0,0,1.8-.2l.8-.2c.4,0,.5.1.6.4s-.3.7-.9,1a3.6,3.6,0,0,1-2.1.5,2.2,2.2,0,0,1-1.9-.7,2.3,2.3,0,0,1-.8-1.7,4.2,4.2,0,0,1,.6-2.1,5.8,5.8,0,0,1,1.5-1.9,2.9,2.9,0,0,1,1.7-.8,2.2,2.2,0,0,1,1.7.9,2.5,2.5,0,0,1,.8,1.7A1.5,1.5,0,0,1,43.4,77.9Zm-1-1.8-.6-.3c-.2,0-.4.2-.7.4a8.6,8.6,0,0,0-.7,1h.3c1.3,0,2-.3,2-.7Z"/><path d="M45.6,76.4V74.8c0-.5.2-.7.5-.7a.4.4,0,0,1,.5.2,1,1,0,0,1,.5.6l1-.7,1-.3c.7,0,1,.2,1,.5s0,.3-.1.4-.1.1-.1.2h-.2a.1.1,0,0,1-.1.1l-.5.4a3.1,3.1,0,0,0-1.1.9,3.4,3.4,0,0,0-.6,1.6l-.7,2.4c-.3.5-.5.8-.8.8a1,1,0,0,1-.7-.4,3.1,3.1,0,0,1-.2-.8,3.5,3.5,0,0,1,.3-1.2,10.3,10.3,0,0,0,.3-1.2A5.3,5.3,0,0,0,45.6,76.4Z"/><path d="M49.9,79a4.5,4.5,0,0,1,.6-2.1,8.3,8.3,0,0,1,1.6-2.1,3.4,3.4,0,0,1,2-.8c.3,0,.6.2,1,.6a2.1,2.1,0,0,1,.5,1.1c0,.3-.1.4-.3.4l-.5-.2h-.6a1.5,1.5,0,0,0-.8.5,6.4,6.4,0,0,0-1,1.3,2.8,2.8,0,0,0-.5,1.2.8.8,0,0,0,.2.5H54l.8-.2.4-.2c.3,0,.4.1.4.4s-.3.8-1,1.2a4,4,0,0,1-2.2.7,2.7,2.7,0,0,1-1.6-.8C50.2,79.9,49.9,79.5,49.9,79Z"/><path d="M62.7,77.1a.5.5,0,0,1,.3.4l-.2.7a5.1,5.1,0,0,0-.2.9,4.3,4.3,0,0,1-.1.5v.3c0,.1-.1.2-.1.3v.4c0,.1,0,.2-.1.2s0,.1-.1.2h-.2c-.2,0-.3-.2-.5-.4a3.1,3.1,0,0,1-.5-1,3.5,3.5,0,0,1-2.2,1.4,2.2,2.2,0,0,1-1.3-.6,2.3,2.3,0,0,1-.7-1.4,5.5,5.5,0,0,1,.6-1.9,8.7,8.7,0,0,1,1.6-2.3,2.9,2.9,0,0,1,2.1-1c.4-.1.8.2,1.3.6s.8.9.8,1.3A2.7,2.7,0,0,1,62.7,77.1Zm-4,2.2a2.5,2.5,0,0,0,1.4-.7,3.5,3.5,0,0,0,1.2-2l.2-.2c0-.5-.1-.8-.3-.8s-.7.3-1.2.8a7.2,7.2,0,0,0-1.1,1.5,3,3,0,0,0-.4,1.3h.2Z"/><path d="M73.3,73.7a1,1,0,0,1,.9.7,2.4,2.4,0,0,1,.4,1.3c0,.4-.1,1-.2,1.8a15.5,15.5,0,0,1-.7,2.3c-.3.7-.7,1.1-1.1,1.1s-.4-.2-.5-.6a17.2,17.2,0,0,1,.4-2.1,10.5,10.5,0,0,0,.3-1.8c0-.3,0-.5-.1-.5s-.4.2-.7.7a19.4,19.4,0,0,0-1,1.7,9,9,0,0,0-.6,1.4l-.3.5-.2.4q-.5.8-1.2,0a1.3,1.3,0,0,1-.3-.7c-.1,0,0-.4.2-1.1a14,14,0,0,0,.2-2.3c0-.4-.1-.5-.2-.5l-.4.3-.6,1.2L66.8,79c-.8,1.3-1.4,2-1.8,2s-.4-.1-.7-.5a1.5,1.5,0,0,1-.5-.8,6.6,6.6,0,0,1,.3-1.3,14.3,14.3,0,0,0,.4-2.2c0-.8.1-1.4.1-1.8s.2-.7.3-.7a1.7,1.7,0,0,1,1.1.4,1.5,1.5,0,0,1,.5.8,12.2,12.2,0,0,1-.6,2.9,15.3,15.3,0,0,1,1.6-3.2,2.2,2.2,0,0,1,1.4-.9c.2,0,.5.3.9.7a3,3,0,0,1,.6,1.3v1a6.3,6.3,0,0,1,1.2-2.1A2.6,2.6,0,0,1,73.3,73.7Z"/><path d="M80.8,73.6a1.5,1.5,0,0,1,1.2.7,2.2,2.2,0,0,1,.6,1.4,4.9,4.9,0,0,1-.3,1.5,12.2,12.2,0,0,1-.7,1.7,5.3,5.3,0,0,1-1.3,1.3,2.2,2.2,0,0,1-1.5.6,3.2,3.2,0,0,1-1.8-.7c-.2.5-.4.8-.5.8s-.4-.2-.7-.5a1.5,1.5,0,0,1-.5-.8,10.4,10.4,0,0,1,.4-2A32.3,32.3,0,0,0,77,70.1a.4.4,0,0,1,.4-.4q.3,0,.9.6a1.7,1.7,0,0,1,.6,1.1,14.6,14.6,0,0,1-.7,3.9C79.3,74.2,80.1,73.6,80.8,73.6Zm-2.2,5.6q.8,0,1.5-1.2a4.6,4.6,0,0,0,.8-2.4h-.2a2.6,2.6,0,0,0-1.7.9,16.7,16.7,0,0,0-1.5,2.4A1.9,1.9,0,0,0,78.6,79.2Z"/><path d="M84.8,73.5a1,1,0,0,1,.9.6,1.7,1.7,0,0,1,.4,1.1,12.1,12.1,0,0,1-.4,1.9,28.1,28.1,0,0,1-1,3.1q-.2.6-.6.6a.9.9,0,0,1-.6-.3.8.8,0,0,1-.2-.6,15,15,0,0,1,.3-1.8c.2-1,.4-1.8.5-2.5s.3-1.2.4-1.6S84.7,73.5,84.8,73.5Zm-.2-1.7a1.3,1.3,0,0,1,.3-.8,1.3,1.3,0,0,1,.7-.4c.2,0,.4.3.7.8a3.1,3.1,0,0,1,.5,1.1.8.8,0,0,1-.2.5l-.5.2a1.4,1.4,0,0,1-.9-.5Q84.6,72.1,84.6,71.8Z"/><path d="M87.9,75.1a2.9,2.9,0,0,1,2.2-1.6,2.1,2.1,0,0,1,1.8.7,2.4,2.4,0,0,1,.7,1.8,4.1,4.1,0,0,1-.5,2.1A4.3,4.3,0,0,1,90.8,80a3.1,3.1,0,0,1-2,.7,1.6,1.6,0,0,1-1.3-.7,2.3,2.3,0,0,1-.6-1.6A5.6,5.6,0,0,1,87.9,75.1Zm2.4,2.8a4.9,4.9,0,0,0,.5-1.9,1.7,1.7,0,0,0-.3-1.2,3.5,3.5,0,0,0-1.2,1.4,5.8,5.8,0,0,0-.5,2c0,.6,0,.9.2,1.1A3,3,0,0,0,90.3,77.9Z"/><path d="M103.3,71.3c-.2,0-.4.3-.6.8a14.9,14.9,0,0,0-.5,2.2l2.5-.2c.7,0,1,.3,1,.8a3.4,3.4,0,0,1-.1.9,9.3,9.3,0,0,0-.6,1.8,22.5,22.5,0,0,0-.8,2.4l-.2.4h-.5a.5.5,0,0,1-.5-.3c-.2-.1-.2-.4-.3-.6s.2-1,.4-2a9.2,9.2,0,0,0,.4-2l-1.7.3c-.4,2.1-.8,3.3-.9,3.9s-.4.7-.7.7-.3-.1-.6-.4l-.4-.6c0-.2.1-.4.1-.6a19.7,19.7,0,0,0,.7-2.6h-.8a.8.8,0,0,1-.7-.4.9.9,0,0,1-.3-.7c0-.2.2-.3.5-.5l1.6-.3a10.2,10.2,0,0,1,1.1-3.8,2.2,2.2,0,0,1,2-1.1,3.2,3.2,0,0,1,1.7.6,1.8,1.8,0,0,1,.9,1.5,2.5,2.5,0,0,1-.1.9c-.2.2-.3.3-.5.3a.7.7,0,0,1-.6-.2l-.6-.6C103.8,71.6,103.5,71.3,103.3,71.3Z"/><path d="M111.1,73.2a1.8,1.8,0,0,1,1.3.6,2.7,2.7,0,0,1,.5,1.4,11.3,11.3,0,0,1-.3,2.5,10.3,10.3,0,0,1-.8,2c-.3.5-.6.7-.9.7s-.5-.2-.5-.6a8.7,8.7,0,0,1,.4-2.1,8.2,8.2,0,0,0,.3-1.8c0-.3,0-.5-.1-.5l-.4.2c-.1.1-.2.2-.2.3l-.3.4-.2.3-.3.5-.3.5c0,.1-.1.2-.2.4s-1.5,2.5-2,2.5a1.5,1.5,0,0,1-.8-.5c-.3-.4-.4-.6-.4-.8a1,1,0,0,1,.2-.6,3.4,3.4,0,0,1,.3-.8c0-.2.1-.4.1-.6s.1-.4.1-.7a.7.7,0,0,1,.1-.5v-.6a12.1,12.1,0,0,1,.2-2.1l.2-.2a1.6,1.6,0,0,1,1,.5c.3.3.5.5.5.8a10.3,10.3,0,0,1-.4,2.5,27.6,27.6,0,0,1,1.6-2.7C110.3,73.5,110.7,73.2,111.1,73.2Z"/><path d="M119.7,76.3c.1.2.2.3.2.4a2.8,2.8,0,0,1-.1.8,5.1,5.1,0,0,0-.2.9,1.1,1.1,0,0,0-.1.5c0,.1-.1.2-.1.3v.2c0,.1-.1.2-.1.3v.4h-.4c-.1,0-.3-.1-.5-.4a1.9,1.9,0,0,1-.4-.9c-.9.9-1.6,1.4-2.2,1.4a2.4,2.4,0,0,1-1.3-.7,1.7,1.7,0,0,1-.7-1.3,4.5,4.5,0,0,1,.6-1.9,6.9,6.9,0,0,1,1.6-2.3,2.9,2.9,0,0,1,2-1.1,2.1,2.1,0,0,1,1.4.7,1.7,1.7,0,0,1,.8,1.2A3.8,3.8,0,0,1,119.7,76.3Zm-4.1,2.3a2.8,2.8,0,0,0,1.5-.8,2.9,2.9,0,0,0,1.1-1.9c0-.1.1-.2.3-.2s-.2-.8-.3-.8a1.5,1.5,0,0,0-1.2.7,6.1,6.1,0,0,0-1.2,1.6,5.4,5.4,0,0,0-.4,1.2v.2Z"/><path d="M126,73a1.8,1.8,0,0,1,1.3.6,2.7,2.7,0,0,1,.5,1.4,11.3,11.3,0,0,1-.3,2.5,10.3,10.3,0,0,1-.8,2c-.3.5-.6.7-.9.7s-.5-.2-.5-.6a8.7,8.7,0,0,1,.4-2.1,8.2,8.2,0,0,0,.3-1.8c0-.3,0-.5-.1-.5a.4.4,0,0,0-.4.2c-.1.1-.2.2-.2.3l-.3.4a.5.5,0,0,0-.2.4l-.3.4-.3.5-.2.4c-.9,1.6-1.5,2.5-2,2.5a1.5,1.5,0,0,1-.8-.5c-.3-.4-.4-.6-.4-.8a1,1,0,0,1,.2-.6,3.4,3.4,0,0,1,.3-.8c0-.2.1-.4.1-.6s.1-.4.1-.7v-.5a1.3,1.3,0,0,0,.1-.6,12.1,12.1,0,0,1,.2-2.1l.2-.2a1.6,1.6,0,0,1,1,.5c.3.3.5.5.5.8a10.3,10.3,0,0,1-.4,2.5,27.6,27.6,0,0,1,1.6-2.7C125.2,73.3,125.6,73,126,73Z"/><path d="M128.6,78a4.9,4.9,0,0,1,.6-2.2,7.8,7.8,0,0,1,1.6-2,3,3,0,0,1,2-.9c.3,0,.6.2,1,.6a2.4,2.4,0,0,1,.5,1.2c0,.2-.1.3-.3.4l-.5-.2h-.6a1,1,0,0,0-.8.5,4.5,4.5,0,0,0-1,1.3,2.5,2.5,0,0,0-.5,1.1.8.8,0,0,0,.2.6h1.9l.8-.3h.4c.3,0,.4.1.4.3a1.7,1.7,0,0,1-1,1.3,7,7,0,0,1-2.2.7,2.7,2.7,0,0,1-1.6-.8A2.1,2.1,0,0,1,128.6,78Z"/><path d="M137,72.9a1.1,1.1,0,0,1,.9.5,2.5,2.5,0,0,1,.4,1.1,18.3,18.3,0,0,1-.5,1.9l-.9,3.1a.7.7,0,0,1-.7.6l-.5-.2c-.2-.2-.2-.4-.3-.6s.2-.9.4-1.9.4-1.8.5-2.5a15.7,15.7,0,0,1,.3-1.6C136.7,73,136.9,72.9,137,72.9Zm-.2-1.8a1.1,1.1,0,0,1,.3-.7.7.7,0,0,1,.6-.4c.2,0,.5.2.8.7a2.4,2.4,0,0,1,.4,1.1c0,.2,0,.4-.2.5a.4.4,0,0,1-.4.2,1.9,1.9,0,0,1-1-.5A2.1,2.1,0,0,1,136.8,71.1Z"/><path d="M144.5,76.6a3.9,3.9,0,0,1-2,.6h-1.6c0,.2-.1.5-.1.7a1.1,1.1,0,0,0,.2.6h.6l1.8-.2.8-.2c.3,0,.5.1.5.4s-.3.7-.9,1a4.2,4.2,0,0,1-2,.5,2.4,2.4,0,0,1-1.9-.7,2.5,2.5,0,0,1-.8-1.7,4.9,4.9,0,0,1,.6-2.2,6.5,6.5,0,0,1,1.5-1.8,2.1,2.1,0,0,1,1.7-.8,2.5,2.5,0,0,1,1.7.8,2.9,2.9,0,0,1,.8,1.8Q145.4,76,144.5,76.6Zm-1.1-1.8c-.2-.2-.3-.3-.5-.3s-.4.1-.7.4l-.7.9h.3c1.3-.1,1.9-.3,1.9-.7A.5.5,0,0,0,143.4,74.8Z"/><path d="M146.7,75.1V73.5c0-.5.1-.8.5-.8l.5.2a1.6,1.6,0,0,1,.4.7l1.1-.7,1-.3c.7,0,1,.2,1,.5s0,.3-.1.4h-.1l-.2.2h-.2l-.4.3a5.2,5.2,0,0,0-1.1,1,3.4,3.4,0,0,0-.6,1.5c-.3,1.1-.5,1.9-.7,2.4s-.5.8-.8.8a.8.8,0,0,1-.7-.4,2.4,2.4,0,0,1-.2-.8,8.9,8.9,0,0,1,.2-1.1,9.3,9.3,0,0,0,.4-1.3A4.1,4.1,0,0,0,146.7,75.1Z"/><path d="M152,74.2c.7-1,1.4-1.6,2.1-1.6a2.4,2.4,0,0,1,1.8.7,2.5,2.5,0,0,1,.8,1.8,5.9,5.9,0,0,1-.5,2.2,4.9,4.9,0,0,1-1.4,1.8,2.9,2.9,0,0,1-1.9.8,1.7,1.7,0,0,1-1.4-.7,2.9,2.9,0,0,1-.5-1.7A5.3,5.3,0,0,1,152,74.2Zm2.3,2.9a3.1,3.1,0,0,0,.5-2,2.9,2.9,0,0,0-.2-1.2,3.9,3.9,0,0,0-1.2,1.5,4.5,4.5,0,0,0-.6,2,1.9,1.9,0,0,0,.2,1A2.7,2.7,0,0,0,154.3,77.1Z"/><path d="M160.2,79.7a4,4,0,0,1-.8,2.2c-.6.8-1.1,1.2-1.6,1.2s-.4-.1-.4-.3l.3-.5a4.3,4.3,0,0,0,.9-1.9c-.1-.2-.1-.4-.3-.5l-.5-.4a.5.5,0,0,1-.3-.4c0-.2.2-.4.4-.7a1.2,1.2,0,0,1,.9-.4,1.1,1.1,0,0,1,.9.5A2.1,2.1,0,0,1,160.2,79.7Z"/><path d="M169.7,75.1c-.1.5-.3,1.1-.5,1.8l-.3,1h.3l1.1-.3,1-.4c.2,0,.3.2.3.5s-.3.7-.9,1.2a3.7,3.7,0,0,1-2,.7l-1-.5a2,2,0,0,1-.7-1,8.5,8.5,0,0,1,.5-1.8,17.1,17.1,0,0,1,.5-1.8h-.8a.7.7,0,0,1-.6-.4.9.9,0,0,1-.3-.7c0-.3.7-.5,2.1-.8a9.6,9.6,0,0,0,.3-2.2c0-.3.1-.4.4-.4s.5.1.9.4.6.6.6.8a3,3,0,0,1-.2,1.2h1.1c.7,0,1,.1,1,.5s-.2.3-.6.5l-1.9.5A2.6,2.6,0,0,1,169.7,75.1Z"/><path d="M178.7,75.6c.2.1.3.2.3.4l-.2.7a5.1,5.1,0,0,0-.2.9,4.3,4.3,0,0,1-.1.5v.3c0,.1-.1.2-.1.3v.4c0,.1,0,.2-.1.2a.1.1,0,0,1-.1.1h-.2c-.2,0-.3-.1-.5-.3a3.1,3.1,0,0,1-.5-1,3.5,3.5,0,0,1-2.2,1.4,2.6,2.6,0,0,1-2-2,4.9,4.9,0,0,1,.6-1.9,8.7,8.7,0,0,1,1.6-2.3,3.1,3.1,0,0,1,2.1-1.1,2.1,2.1,0,0,1,1.3.7,1.9,1.9,0,0,1,.8,1.2A2.7,2.7,0,0,1,178.7,75.6Zm-4,2.2a2.3,2.3,0,0,0,1.4-.8,3,3,0,0,0,1.2-1.9l.2-.2c0-.5-.1-.8-.3-.8a2.2,2.2,0,0,0-1.2.7,7.6,7.6,0,0,0-1.1,1.6,4.2,4.2,0,0,0-.5,1.2v.2Z"/><path d="M189.3,72.2c.3,0,.6.2.9.7a3.8,3.8,0,0,1,.4,1.3c0,.4-.1,1-.2,1.8a15.5,15.5,0,0,1-.7,2.3c-.4.7-.7,1.1-1.1,1.1s-.5-.2-.5-.6a17.2,17.2,0,0,1,.4-2.1,11.2,11.2,0,0,0,.3-1.9c0-.3,0-.4-.1-.4a1,1,0,0,0-.7.6l-1,1.8-.7,1.4c0,.2-.1.3-.2.5l-.2.3c-.3.5-.7.6-1.2.1s-.4-.5-.4-.7a10.2,10.2,0,0,1,.3-1.1,15.2,15.2,0,0,0,.2-2.3c0-.4-.1-.6-.2-.6l-.4.4-.6,1.2-.8,1.5c-.8,1.3-1.4,2-1.8,2s-.4-.2-.7-.5a1,1,0,0,1-.5-.8,6.6,6.6,0,0,1,.3-1.3,14.3,14.3,0,0,0,.4-2.2c0-.8.1-1.4.1-1.9s.2-.6.3-.6a1.7,1.7,0,0,1,1.1.4c.3.3.5.5.5.8a13.2,13.2,0,0,1-.6,2.9,15.3,15.3,0,0,1,1.6-3.2c.5-.6.9-.9,1.4-.9s.5.2.9.7a1.6,1.6,0,0,1,.5,1.2,1.7,1.7,0,0,1,0,1,8.6,8.6,0,0,1,1.3-2A2.6,2.6,0,0,1,189.3,72.2Z"/><path d="M196.8,72.1a1.5,1.5,0,0,1,1.2.7,2.2,2.2,0,0,1,.6,1.3,4,4,0,0,1-.3,1.5,5.3,5.3,0,0,1-.8,1.7,4.1,4.1,0,0,1-1.2,1.4,2.4,2.4,0,0,1-1.5.6,2.9,2.9,0,0,1-1.8-.7,2.1,2.1,0,0,1-.5.8c-.2,0-.4-.2-.7-.5s-.5-.6-.5-.8a10.4,10.4,0,0,1,.4-2,34,34,0,0,0,1.3-7.5.4.4,0,0,1,.4-.4q.3,0,.9.6a1.7,1.7,0,0,1,.6,1.1,20.2,20.2,0,0,1-.7,3.9C195.2,72.7,196.1,72.1,196.8,72.1Zm-2.2,5.6q.8,0,1.5-1.2a4.6,4.6,0,0,0,.8-2.4h-.2a2.4,2.4,0,0,0-1.7.9,12.5,12.5,0,0,0-1.5,2.4A1.9,1.9,0,0,0,194.6,77.7Z"/><path d="M200.8,72a1,1,0,0,1,.9.6,1.4,1.4,0,0,1,.4,1,10.4,10.4,0,0,1-.4,2c-.3,1.1-.7,2.1-1,3.1a.6.6,0,0,1-.6.5.7.7,0,0,1-.6-.2.8.8,0,0,1-.2-.6,15,15,0,0,1,.3-1.8c.2-1,.4-1.9.5-2.6a7.5,7.5,0,0,1,.4-1.5C200.6,72.2,200.7,72,200.8,72Zm-.2-1.7a1.3,1.3,0,0,1,.3-.8,1.3,1.3,0,0,1,.7-.4c.2,0,.4.3.7.8a2.5,2.5,0,0,1,.5,1.1.8.8,0,0,1-.2.5l-.5.2a1.9,1.9,0,0,1-1-.5A2.1,2.1,0,0,1,200.6,70.3Z"/><path d="M203.4,74.6a5.8,5.8,0,0,1,1.5-1.9,2.5,2.5,0,0,1,1.7-.8,2.2,2.2,0,0,1,1.7.9,2.7,2.7,0,0,1,.8,1.7c0,.5-.3.9-1,1.3a4.1,4.1,0,0,1-1.9.5,4.2,4.2,0,0,1-1.6-.1c0,.3-.1.5-.1.8a4.3,4.3,0,0,0,.1.5,1,1,0,0,0,.7.2l1.8-.2.8-.3a.5.5,0,0,1,.5.4c0,.4-.3.7-.9,1.1a4.6,4.6,0,0,1-2,.5,2.4,2.4,0,0,1-1.9-.7,2.5,2.5,0,0,1-.8-1.8A4.2,4.2,0,0,1,203.4,74.6Zm2.1.4c1.3,0,1.9-.2,1.9-.7l-.3-.4a.6.6,0,0,0-.5-.2l-.7.3a8.6,8.6,0,0,0-.7,1Zm2.9-6.6a.7.7,0,0,1,.6.4,1.3,1.3,0,0,1,.3.7v.4l-.2.3-.4.2-.5.3-.6.3-.5.3-.6.3-.4-.2a.6.6,0,0,1-.2-.5c0-.2,0-.4.2-.5a1.3,1.3,0,0,1,.5-.6l.6-.5.3-.3.3-.3.2-.2Z"/><path d="M214.4,71.8a1.6,1.6,0,0,1,1.3.7,2,2,0,0,1,.6,1.4,6.7,6.7,0,0,1-.4,2.4,7.1,7.1,0,0,1-.8,2.1c-.3.4-.6.7-.9.7s-.5-.2-.5-.7a8.2,8.2,0,0,1,.4-2,6.5,6.5,0,0,0,.4-1.8c0-.4-.1-.6-.2-.6l-.3.2-.3.3-.3.4c-.1.1-.1.3-.2.4l-.3.4a1.7,1.7,0,0,0-.2.5l-.3.5c-.8,1.6-1.5,2.4-2,2.4s-.4-.1-.7-.5a1.8,1.8,0,0,1-.5-.7,4.1,4.1,0,0,1,.2-.7l.3-.8c0-.2.1-.4.1-.6a1.3,1.3,0,0,0,.1-.6,3.5,3.5,0,0,1,.1-.6V74c.1-1.2.2-1.9.2-2l.2-.2a1.3,1.3,0,0,1,1,.4,1,1,0,0,1,.5.8,9.6,9.6,0,0,1-.4,2.5c.6-1.1,1.2-1.9,1.6-2.6S214.1,71.8,214.4,71.8Z"/><path d="M35.4,87.9a1.2,1.2,0,0,1,.9.6,1.5,1.5,0,0,1,.6,1.1c0,.2-.2.9-.5,2.2a20.1,20.1,0,0,0-.5,2.4c-.7,3.2-1.3,4.8-1.6,4.8l-.7-.3a1.1,1.1,0,0,1-.3-.7h0c-1,.8-1.6,1.2-2,1.2a1.5,1.5,0,0,1-1.2-.7,1.7,1.7,0,0,1-.6-1.1,4.9,4.9,0,0,1,.1-1.2,7.8,7.8,0,0,1,.5-1.4,6.1,6.1,0,0,1,.7-1.4,2.2,2.2,0,0,1,.9-1,2.1,2.1,0,0,1,1.2-.5,1.8,1.8,0,0,1,1.5.9,21,21,0,0,0,.6-4.4A.4.4,0,0,1,35.4,87.9Zm-4,9.4a2.2,2.2,0,0,0,1.2-.6,3.1,3.1,0,0,0,1.2-1.6v-.5a1.3,1.3,0,0,0-.3-.7.5.5,0,0,0-.4-.3,1,1,0,0,0-.8.5,2.1,2.1,0,0,0-.6,1,8,8,0,0,0-.5,2c0,.1,0,.1.1.2Z"/><path d="M42.4,95.5a3.3,3.3,0,0,1-1.9.6H38.9a2.2,2.2,0,0,0-.1.8,4.3,4.3,0,0,0,.1.5c.1.1.3.2.7.1a5,5,0,0,0,1.8-.2l.7-.2c.4,0,.6.1.6.4s-.3.7-.9,1a4.7,4.7,0,0,1-2,.6,2.4,2.4,0,0,1-1.9-.8,2.1,2.1,0,0,1-.8-1.7,4.2,4.2,0,0,1,.6-2.1,7.2,7.2,0,0,1,1.4-1.9,2.9,2.9,0,0,1,1.8-.8,2.2,2.2,0,0,1,1.7.9,2.5,2.5,0,0,1,.8,1.7C43.4,94.8,43.1,95.2,42.4,95.5Zm-1-1.8-.5-.3c-.2,0-.4.2-.7.4a3.6,3.6,0,0,0-.7,1h.3c1.3,0,1.9-.3,1.9-.7Z"/><path d="M48.3,91.6a1.3,1.3,0,0,1,1.1.7,1.4,1.4,0,0,1,.5,1.1c0,.2-.1.3-.2.3H48.5l-1,.2q-.6.3-.6.6c0,.1.1.2.4.4l.8.5.9.8a2.1,2.1,0,0,1,.4,1.1q0,.6-.9,1.2a3.2,3.2,0,0,1-2,.6,3.8,3.8,0,0,1-1.9-.5c-.6-.4-.8-.7-.8-1.1s.1-.5.4-.5h.4a3.4,3.4,0,0,0,1.8.4c.7,0,1-.1,1-.3a.7.7,0,0,0-.4-.6c-.3-.2-.5-.5-.9-.6l-.8-.8a.9.9,0,0,1-.4-.8c-.1-.5.4-1,1.3-1.6A3.8,3.8,0,0,1,48.3,91.6Z"/><path d="M56.3,87.6a1.2,1.2,0,0,1,.9.6,1.7,1.7,0,0,1,.6,1.1c0,.2-.2.9-.5,2.2a20.1,20.1,0,0,0-.5,2.4c-.7,3.2-1.2,4.9-1.6,4.9s-.4-.2-.7-.4a.9.9,0,0,1-.3-.7h0a4,4,0,0,1-2,1.2,1.7,1.7,0,0,1-1.2-.6,2.2,2.2,0,0,1-.6-1.2,5,5,0,0,1,.2-1.2,4.3,4.3,0,0,1,.4-1.4,9.1,9.1,0,0,1,.7-1.4,4.3,4.3,0,0,1,.9-1,1.9,1.9,0,0,1,1.2-.4,1.5,1.5,0,0,1,1.5.8,15.7,15.7,0,0,0,.6-4.4A.4.4,0,0,1,56.3,87.6Zm-4,9.4a2.2,2.2,0,0,0,1.2-.6,2.9,2.9,0,0,0,1.2-1.5v-.5a1.4,1.4,0,0,0-.2-.7c-.2-.3-.4-.4-.5-.4a1,1,0,0,0-.8.5,2,2,0,0,0-.6,1.1,6.7,6.7,0,0,0-.5,1.9.3.3,0,0,0,.1.2Z"/><path d="M63.4,95.3a4.9,4.9,0,0,1-1.9.5,4.6,4.6,0,0,1-1.7-.1c0,.3-.1.5-.1.8a.8.8,0,0,0,.2.5l.6.2,1.8-.2.8-.3a.5.5,0,0,1,.5.4c0,.4-.3.7-.8,1.1a4.6,4.6,0,0,1-2.1.5,2.4,2.4,0,0,1-1.9-.7,2.5,2.5,0,0,1-.8-1.8,4.2,4.2,0,0,1,.6-2.1,5.8,5.8,0,0,1,1.5-1.9,3.3,3.3,0,0,1,1.7-.8,2.2,2.2,0,0,1,1.7.9,2.9,2.9,0,0,1,.8,1.7C64.3,94.5,64,94.9,63.4,95.3Zm-1.1-1.9-.5-.2-.7.3a8.6,8.6,0,0,0-.7,1h.3c1.3,0,2-.2,1.9-.7Z"/><path d="M71.2,92.9c.7-1.1,1.4-1.6,2.2-1.6a2.4,2.4,0,0,1,1.8.7,2.9,2.9,0,0,1,.7,1.8,4.7,4.7,0,0,1-.5,2.2A4.9,4.9,0,0,1,74,97.8a2.8,2.8,0,0,1-1.9.7,1.6,1.6,0,0,1-1.3-.6,2.5,2.5,0,0,1-.6-1.7A5.6,5.6,0,0,1,71.2,92.9Zm2.3,2.8a3.8,3.8,0,0,0,.6-1.9,1.7,1.7,0,0,0-.3-1.2,3.2,3.2,0,0,0-1.2,1.5,3,3,0,0,0-.5,1.9,2.5,2.5,0,0,0,.1,1.1A2.6,2.6,0,0,0,73.5,95.7Z"/><path d="M79.9,93.9a15.4,15.4,0,0,1-.5,1.7l-.3,1.1h.2l1.1-.3,1-.4c.3,0,.4.2.4.5s-.3.7-.9,1.2a3.6,3.6,0,0,1-2,.6,2.1,2.1,0,0,1-1.1-.4c-.4-.4-.6-.7-.6-1a16.3,16.3,0,0,1,.4-1.8l.6-1.9-.8.2a.7.7,0,0,1-.6-.4,1.3,1.3,0,0,1-.4-.7c0-.3.8-.6,2.2-.8a6,6,0,0,0,.2-2.2.5.5,0,0,1,.5-.5,2.1,2.1,0,0,1,.9.5c.4.3.6.5.6.8a7.4,7.4,0,0,1-.2,1.2h1c.7,0,1.1.1,1.1.4s-.2.4-.6.6l-1.9.5A6.2,6.2,0,0,0,79.9,93.9Z"/><path d="M83.7,93.5V91.9c0-.5.1-.7.5-.7a.6.6,0,0,1,.5.2.9.9,0,0,1,.4.6l1.1-.7a1.9,1.9,0,0,1,1-.3c.6,0,1,.2,1,.5s0,.3-.1.4v.2h-.2l-.2.2-.4.3a3.1,3.1,0,0,0-1.1.9,3.4,3.4,0,0,0-.6,1.6l-.7,2.4c-.3.5-.5.8-.8.8a1,1,0,0,1-.7-.4,3.1,3.1,0,0,1-.2-.8,7.4,7.4,0,0,1,.2-1.2,8.4,8.4,0,0,0,.4-1.2A5.3,5.3,0,0,0,83.7,93.5Z"/><path d="M93.9,94.3a.5.5,0,0,1,.3.4l-.2.7a6.4,6.4,0,0,1-.2.9.7.7,0,0,1-.1.5v.8c0,.1,0,.1-.1.2V98h-.1l-.3.2-.5-.4a3,3,0,0,1-.4-1c-.9.9-1.6,1.4-2.2,1.4a1.9,1.9,0,0,1-1.3-.6,2.5,2.5,0,0,1-.8-1.4,5.5,5.5,0,0,1,.6-1.9,11.9,11.9,0,0,1,1.6-2.3A3.6,3.6,0,0,1,92.2,91a3,3,0,0,1,1.4.7,1.9,1.9,0,0,1,.7,1.3A1.9,1.9,0,0,1,93.9,94.3Zm-4,2.2a2.5,2.5,0,0,0,1.5-.7,3.3,3.3,0,0,0,1.1-2,.2.2,0,0,1,.2-.2c0-.5-.1-.8-.2-.8s-.8.3-1.3.8l-1.1,1.5a3,3,0,0,0-.4,1.3h.2Z"/><path d="M99.6,91a1.4,1.4,0,0,1,1,.6,1.5,1.5,0,0,1,.5,1.1c.1.2,0,.3-.2.3H99.7l-.9.2c-.5.2-.7.4-.7.6s.2.3.4.4l.8.6a2.8,2.8,0,0,1,.9.7,2.5,2.5,0,0,1,.4,1.1q0,.6-.9,1.2a3.1,3.1,0,0,1-1.9.6,3.9,3.9,0,0,1-2-.5c-.6-.3-.8-.7-.8-1s.1-.6.4-.6h.4a3.4,3.4,0,0,0,1.8.4c.7,0,1-.1,1-.3a.7.7,0,0,0-.4-.6l-.9-.6a2.7,2.7,0,0,1-.8-.7,1.2,1.2,0,0,1-.4-.9c0-.5.4-1,1.3-1.6A4.2,4.2,0,0,1,99.6,91Z"/><path d="M112.9,86.9c.3-.1.6.1.9.5a1.9,1.9,0,0,1,.6,1.2c0,.2-.2.9-.5,2.2a20.1,20.1,0,0,0-.5,2.4c-.7,3.2-1.3,4.8-1.6,4.8l-.7-.3a1.3,1.3,0,0,1-.3-.7h0a5,5,0,0,1-2,1.2,1.9,1.9,0,0,1-1.2-.7,1.7,1.7,0,0,1-.6-1.2c0-.3.1-.7.1-1.1a7.8,7.8,0,0,1,.5-1.4,6.1,6.1,0,0,1,.7-1.4,4.8,4.8,0,0,1,.9-1.1,2.8,2.8,0,0,1,1.2-.4,1.8,1.8,0,0,1,1.5.9,21,21,0,0,0,.6-4.4A.4.4,0,0,1,112.9,86.9Zm-4,9.4a2.2,2.2,0,0,0,1.2-.6,3.6,3.6,0,0,0,1.2-1.6v-.5a1.1,1.1,0,0,0-.3-.7.5.5,0,0,0-.4-.3.9.9,0,0,0-.8.4,2.4,2.4,0,0,0-.6,1.1,7.1,7.1,0,0,0-.5,2,.1.1,0,0,0,.1.1Z"/><path d="M116.1,90.7a1,1,0,0,1,.9.6,1.5,1.5,0,0,1,.4,1.1,12.1,12.1,0,0,1-.4,1.9l-.9,3.1a1,1,0,0,1-.7.6.9.9,0,0,1-.6-.3.8.8,0,0,1-.2-.6,15,15,0,0,1,.3-1.8l.5-2.5.4-1.6C115.9,90.9,116,90.7,116.1,90.7Zm-.2-1.7a1.3,1.3,0,0,1,.3-.8,1.3,1.3,0,0,1,.7-.4c.2,0,.4.3.7.8a2.5,2.5,0,0,1,.5,1.1.8.8,0,0,1-.2.5l-.5.2a1.4,1.4,0,0,1-.9-.5Q115.9,89.3,115.9,89Z"/><path d="M127.6,90.6a.9.9,0,0,1,.9.7,2.4,2.4,0,0,1,.4,1.3,6.9,6.9,0,0,1-.2,1.8,8.8,8.8,0,0,1-.7,2.3c-.3.7-.7,1.1-1,1.1s-.5-.2-.5-.6a12.6,12.6,0,0,1,.3-2.1,7,7,0,0,0,.4-1.9c0-.3-.1-.4-.2-.4s-.4.2-.7.7l-.9,1.7-.7,1.4-.2.5a.5.5,0,0,0-.2.4q-.5.8-1.2,0c-.3-.3-.4-.5-.4-.7s.1-.4.2-1.1a8.2,8.2,0,0,0,.2-2.3c0-.4,0-.5-.1-.5a.5.5,0,0,0-.4.3,5.4,5.4,0,0,0-.7,1.2,10.2,10.2,0,0,1-.8,1.5c-.7,1.3-1.3,2-1.7,2a2.1,2.1,0,0,1-1.3-1.3,6.6,6.6,0,0,1,.3-1.3,7.8,7.8,0,0,0,.4-2.2c.1-.8.1-1.4.2-1.9s.1-.6.3-.6a1.4,1.4,0,0,1,1,.4,1.5,1.5,0,0,1,.5.8,17.3,17.3,0,0,1-.5,2.9,11.5,11.5,0,0,1,1.6-3.2,1.7,1.7,0,0,1,1.3-.9c.3,0,.6.3.9.7a1.9,1.9,0,0,1,.6,1.2v1.1a6.7,6.7,0,0,1,1.3-2.1A2.4,2.4,0,0,1,127.6,90.6Z"/><path d="M135.1,94.3a3.8,3.8,0,0,1-1.9.6h-1.7c0,.2-.1.5-.1.7a.8.8,0,0,0,.2.6c0,.1.3.1.6.1A5,5,0,0,0,134,96l.8-.2c.3,0,.5.1.5.4s-.2.7-.8,1a3.6,3.6,0,0,1-2.1.5,2.1,2.1,0,0,1-1.9-.7,2.3,2.3,0,0,1-.8-1.7,4.9,4.9,0,0,1,.6-2.2,6.5,6.5,0,0,1,1.5-1.8,2.7,2.7,0,0,1,1.7-.8,2.2,2.2,0,0,1,1.7.9,2.5,2.5,0,0,1,.8,1.7A1.5,1.5,0,0,1,135.1,94.3ZM134,92.5c-.2-.2-.3-.3-.5-.3s-.4.2-.7.4a8.6,8.6,0,0,0-.7,1h.3c1.3,0,2-.3,1.9-.7S134.2,92.7,134,92.5Z"/><path d="M141.7,90.4a1.6,1.6,0,0,1,1.2.6,2.2,2.2,0,0,1,.6,1.4,11.3,11.3,0,0,1-.3,2.5,9.6,9.6,0,0,1-.9,2c-.3.5-.6.7-.9.7s-.4-.2-.4-.6a5.5,5.5,0,0,1,.4-2.1,8.2,8.2,0,0,0,.3-1.8c0-.3,0-.5-.1-.5s-.3,0-.4.2l-.3.3c0,.1-.1.2-.2.4l-.3.3c0,.2-.1.3-.2.5l-.3.5c0,.1-.1.2-.2.4s-1.5,2.5-2,2.5a1.5,1.5,0,0,1-.8-.5c-.3-.4-.4-.6-.4-.8a1.8,1.8,0,0,1,.1-.6,2,2,0,0,0,.3-.8c.1-.2.1-.4.2-.6a2,2,0,0,1,.1-.7v-.5c0-.2.1-.4.1-.6a6.2,6.2,0,0,1,.2-2.1.2.2,0,0,1,.2-.2,1.6,1.6,0,0,1,1,.5c.3.3.5.5.5.8a10.3,10.3,0,0,1-.4,2.5,27.6,27.6,0,0,1,1.6-2.7C140.9,90.7,141.3,90.4,141.7,90.4Z"/><path d="M148.7,90.3a1.5,1.5,0,0,1,1.1.6,2.1,2.1,0,0,1,.5,1.2.3.3,0,0,1-.3.3h-.5l-.6-.2-1,.3q-.6.1-.6.6c0,.1.1.2.4.4l.8.5a3,3,0,0,1,.8.8,1.5,1.5,0,0,1,.4,1.1c0,.3-.2.7-.8,1.1a4.3,4.3,0,0,1-2,.7,3.8,3.8,0,0,1-1.9-.5c-.6-.4-.9-.7-.9-1.1s.2-.5.5-.5h.4a3.4,3.4,0,0,0,1.8.4c.7,0,1-.1,1-.3a.7.7,0,0,0-.4-.6l-.9-.7-.9-.7c-.2-.3-.4-.5-.4-.8s.5-1.1,1.4-1.7A4.3,4.3,0,0,1,148.7,90.3Z"/><path d="M152.4,90.3a1.1,1.1,0,0,1,.9.5,2.5,2.5,0,0,1,.4,1.1,18.3,18.3,0,0,1-.5,1.9l-.9,3.1a.7.7,0,0,1-.7.6l-.5-.2a.9.9,0,0,1-.3-.6,7.7,7.7,0,0,1,.4-1.9c.2-1,.3-1.8.5-2.5a15.7,15.7,0,0,1,.3-1.6C152.1,90.4,152.2,90.3,152.4,90.3Zm-.3-1.8a.9.9,0,0,1,.4-.7.7.7,0,0,1,.6-.4c.2,0,.5.2.8.7a2.4,2.4,0,0,1,.4,1.1.8.8,0,0,1-.2.5.6.6,0,0,1-.5.2,1.6,1.6,0,0,1-.9-.5C152.3,89,152.1,88.8,152.1,88.5Z"/><path d="M155.5,91.8c.7-1.1,1.4-1.6,2.1-1.6a2.4,2.4,0,0,1,2.5,2.5,3.9,3.9,0,0,1-.4,2.1,5.5,5.5,0,0,1-1.4,1.9,3.1,3.1,0,0,1-2,.7,1.8,1.8,0,0,1-1.3-.6,2.5,2.5,0,0,1-.6-1.7A5.7,5.7,0,0,1,155.5,91.8Zm2.3,2.8a4.9,4.9,0,0,0,.5-1.9,1.7,1.7,0,0,0-.3-1.2c-.4.2-.7.7-1.1,1.5a4.1,4.1,0,0,0-.6,1.9,2.3,2.3,0,0,0,.2,1.1A3,3,0,0,0,157.8,94.6Z"/><path d="M166,90.1a1.8,1.8,0,0,1,1.3.6,2.4,2.4,0,0,1,.5,1.4,11.3,11.3,0,0,1-.3,2.5,10.3,10.3,0,0,1-.8,2c-.3.5-.6.7-1,.7s-.4-.2-.4-.6a8,8,0,0,1,.4-2.1,8.2,8.2,0,0,0,.3-1.8c0-.4,0-.5-.1-.5h-.4l-.3.4c0,.1-.1.2-.2.3l-.3.4-.2.5-.3.4c0,.2-.1.3-.2.5s-1.5,2.4-2,2.5a1.5,1.5,0,0,1-.8-.5c-.3-.4-.4-.6-.4-.8a1.4,1.4,0,0,1,.2-.7l.2-.7a1.4,1.4,0,0,0,.2-.6c0-.2.1-.5.1-.7v-.5a1.5,1.5,0,0,0,.1-.7,10.3,10.3,0,0,1,.2-2,.2.2,0,0,1,.2-.2,2.1,2.1,0,0,1,1,.4,1.5,1.5,0,0,1,.5.8,9.1,9.1,0,0,1-.4,2.5c.6-1,1.1-1.9,1.6-2.6S165.6,90.1,166,90.1Z"/><path d="M174,93.8a3.8,3.8,0,0,1-1.9.6h-1.7c0,.2-.1.5-.1.7a.8.8,0,0,0,.2.6c0,.1.3.1.6.1l1.8-.2.8-.2c.3,0,.5.1.5.4s-.2.7-.8,1a4.6,4.6,0,0,1-2.1.5,2.6,2.6,0,0,1-2.7-2.4,4.9,4.9,0,0,1,.6-2.2,6.5,6.5,0,0,1,1.5-1.8,2.7,2.7,0,0,1,1.7-.8,2.5,2.5,0,0,1,1.7.8,2.9,2.9,0,0,1,.8,1.8Q174.9,93.2,174,93.8ZM173,92a.9.9,0,0,0-.6-.3c-.2,0-.4.1-.7.4a4.3,4.3,0,0,0-.7,1h.3c1.3,0,2-.3,1.9-.7A.8.8,0,0,0,173,92Z"/><path d="M179.9,89.9a1.4,1.4,0,0,1,1,.6,1.7,1.7,0,0,1,.6,1.2.3.3,0,0,1-.3.3h-.5l-.7-.2-.9.3c-.5.1-.7.3-.7.6s.2.2.4.4l.8.5a3.2,3.2,0,0,1,.9.8,2.1,2.1,0,0,1,.4,1q0,.6-.9,1.2a3.1,3.1,0,0,1-1.9.6,3.3,3.3,0,0,1-2-.4c-.5-.4-.8-.7-.8-1.1s.1-.6.4-.6l.5.2a3.9,3.9,0,0,0,1.7.4c.7,0,1-.1,1-.3a.7.7,0,0,0-.4-.6,2.7,2.7,0,0,0-.8-.7,3.1,3.1,0,0,1-.9-.7,1,1,0,0,1-.4-.8c0-.5.4-1.1,1.3-1.7A4.2,4.2,0,0,1,179.9,89.9Z"/><path d="M192,98l1-.3.5.2.2.4a.8.8,0,0,1-.2.4l-.7.5-1,.7-.8.6a.7.7,0,0,1-.6.2c-.1,0-.3-.1-.5-.4a1.1,1.1,0,0,1-.3-.7,24.4,24.4,0,0,1,1.1-3.1,3.1,3.1,0,0,1-1.3.5,1.7,1.7,0,0,1-1.3-.7,2.4,2.4,0,0,1-.7-1.3,5.1,5.1,0,0,1,.4-1.4,5.6,5.6,0,0,1,.9-1.7,6.7,6.7,0,0,1,1.4-1.5,3.1,3.1,0,0,1,1.6-.7,1.6,1.6,0,0,1,1.3.7,1.5,1.5,0,0,1,.7,1.2c0,.3-.1.4-.4.4l-.5-.3-.6-.3a2.3,2.3,0,0,0-1.4.8,18.3,18.3,0,0,0-1.3,1.6c-.3.6-.5,1-.4,1.3h.2a2.8,2.8,0,0,0,1.5-.8,3.3,3.3,0,0,0,1.1-2,.5.5,0,0,1,.4-.2l.8.3q.6.4.6.6a1.8,1.8,0,0,1-.2.9l-.7,1.9A14.5,14.5,0,0,0,192,98Z"/><path d="M199.5,90c.1-.2.2-.4.5-.4s.4.2.7.6a1.9,1.9,0,0,1,.5,1,17.9,17.9,0,0,1-.6,2c-.4,1.3-.8,2.3-1,3.1s-.3.6-.6.6l-.5-.2a1.4,1.4,0,0,1-.2-.7,7.4,7.4,0,0,1,.2-1.2c-1,1.4-1.7,2.1-2.3,2.1a1.7,1.7,0,0,1-1.1-.6,1.4,1.4,0,0,1-.6-1.1,8.2,8.2,0,0,1,.7-3.4c.5-1.4.9-2.1,1.4-2.1a.9.9,0,0,1,.7.3,1.3,1.3,0,0,1,.3.8,4.3,4.3,0,0,1-.3,1,8.9,8.9,0,0,0-1,3.2h0c.2,0,.4-.2.8-.7a8.7,8.7,0,0,0,1.3-1.9A13.6,13.6,0,0,0,199.5,90Z"/><path d="M206.8,93.4a3.5,3.5,0,0,1-1.9.6l-1.6-.2a2.2,2.2,0,0,0-.1.8c0,.3,0,.4.1.5a.8.8,0,0,0,.6.2l1.8-.2.8-.2q.6,0,.6.3c0,.4-.3.7-.9,1.1a4.6,4.6,0,0,1-2.1.5,2.5,2.5,0,0,1-1.9-.7,2.4,2.4,0,0,1-.7-1.8,4.6,4.6,0,0,1,.5-2.1,7,7,0,0,1,1.5-1.9,2.7,2.7,0,0,1,1.8-.7,1.9,1.9,0,0,1,1.6.8,2.9,2.9,0,0,1,.8,1.7C207.7,92.6,207.4,93,206.8,93.4Zm-1-1.9-.6-.2a.7.7,0,0,0-.6.4,2.4,2.4,0,0,0-.8.9h.4c1.2,0,1.9-.2,1.9-.7Z"/><path d="M35.3,105.5a1.2,1.2,0,0,1,.9.6,1.5,1.5,0,0,1,.6,1.1c0,.2-.2.9-.5,2.2a20.1,20.1,0,0,0-.5,2.4c-.7,3.2-1.3,4.8-1.6,4.8l-.7-.3a1.1,1.1,0,0,1-.3-.7h0a4,4,0,0,1-2,1.2A1.5,1.5,0,0,1,30,116a1.7,1.7,0,0,1-.6-1.1c0-.4.1-.8.1-1.2a7.8,7.8,0,0,1,.5-1.4,6.1,6.1,0,0,1,.7-1.4,2.9,2.9,0,0,1,.9-1,2.1,2.1,0,0,1,1.2-.5,1.8,1.8,0,0,1,1.5.9,21,21,0,0,0,.6-4.4A.4.4,0,0,1,35.3,105.5Zm-4,9.4a2.2,2.2,0,0,0,1.2-.6,2.8,2.8,0,0,0,1.2-1.6v-.5a1.3,1.3,0,0,0-.3-.7.5.5,0,0,0-.4-.3,1,1,0,0,0-.8.5,2.1,2.1,0,0,0-.6,1,8,8,0,0,0-.5,2v.2Z"/><path d="M38.5,109.4a.8.8,0,0,1,.9.5,1.7,1.7,0,0,1,.4,1.1,12.1,12.1,0,0,1-.4,1.9,28.1,28.1,0,0,1-1,3.1q-.1.6-.6.6a.9.9,0,0,1-.6-.3.8.8,0,0,1-.2-.6,15,15,0,0,1,.3-1.8c.2-1,.4-1.8.5-2.5s.3-1.2.4-1.6S38.4,109.4,38.5,109.4Zm-.2-1.8a1.6,1.6,0,0,1,.3-.8,1.1,1.1,0,0,1,.7-.3c.2,0,.4.2.7.7a3.1,3.1,0,0,1,.5,1.1.8.8,0,0,1-.2.5l-.5.2a1.4,1.4,0,0,1-.9-.5Q38.3,107.9,38.3,107.6Z"/><path d="M46.2,112.3a.8.8,0,0,1,.2.5,1.9,1.9,0,0,1-.3.9,14.2,14.2,0,0,0-.6,2.1,8.3,8.3,0,0,1-.5,2,5,5,0,0,1-.5,1.3l-.8.9a2.7,2.7,0,0,1-1.2.3,2.7,2.7,0,0,1-1.7-.6c-.5-.4-.7-.7-.7-1a.8.8,0,0,1,.2-.8c.1-.3.3-.4.4-.4l.4.2.4.5.4.5.6.2a.7.7,0,0,0,.6-.4l.4-.9c.2-.8.3-1.4.4-1.7a3.2,3.2,0,0,1-1.6.6,1.5,1.5,0,0,1-1.1-.6,1.7,1.7,0,0,1-.6-1.2,4.9,4.9,0,0,1,.3-1.5,14.2,14.2,0,0,1,.8-1.8,5.7,5.7,0,0,1,1.2-1.5,2.5,2.5,0,0,1,1.6-.6l.8.2a1.3,1.3,0,0,1,.6.7,4.7,4.7,0,0,1,.3,1.7Zm-3.9,2.3a.2.2,0,0,0,.2.2,3.3,3.3,0,0,0,1.3-.8,4,4,0,0,0,1.2-1.5v-.3a2.3,2.3,0,0,0-.2-1.1h-.2c-.5.1-1,.5-1.5,1.5A5.1,5.1,0,0,0,42.3,114.6Z"/><path d="M52.5,109.2a1.8,1.8,0,0,1,1.3.6,2.4,2.4,0,0,1,.5,1.4,7.4,7.4,0,0,1-.3,2.5,13.8,13.8,0,0,1-.8,2c-.3.5-.6.7-.9.7s-.5-.2-.5-.7a8.2,8.2,0,0,1,.4-2,4.7,4.7,0,0,0,.3-1.8c0-.4,0-.5-.1-.5H52c-.1.2-.2.3-.2.4l-.3.3-.2.4-.3.5-.2.4-.3.5c-.8,1.6-1.5,2.4-2,2.4a1,1,0,0,1-.8-.5c-.3-.3-.4-.5-.4-.7s.1-.3.2-.7l.3-.8a4.3,4.3,0,0,0,.1-.5c0-.2.1-.5.1-.7s.1-.4.1-.6v-.6a10.3,10.3,0,0,1,.2-2l.2-.2a1.4,1.4,0,0,1,1,.4,1,1,0,0,1,.5.8,9.6,9.6,0,0,1-.4,2.5c.6-1,1.1-1.9,1.6-2.6S52.1,109.2,52.5,109.2Z"/><path d="M56.7,109.1a1.2,1.2,0,0,1,.9.6,4.2,4.2,0,0,1,.4,1,17.2,17.2,0,0,1-.5,2l-.9,3.1a.8.8,0,0,1-.7.5c-.2,0-.4,0-.5-.2a.6.6,0,0,1-.3-.6,12.3,12.3,0,0,1,.3-1.8c.3-1,.4-1.9.6-2.6a9.6,9.6,0,0,1,.3-1.5C56.4,109.3,56.5,109.1,56.7,109.1Zm-.3-1.7a1,1,0,0,1,.4-.8c.2-.2.4-.4.6-.4s.5.3.8.8a2.1,2.1,0,0,1,.4,1.1.8.8,0,0,1-.2.5l-.5.2a1.6,1.6,0,0,1-.9-.5Q56.4,107.7,56.4,107.4Z"/><path d="M63.4,107.1c-.3,0-.5.2-.6.7a16.2,16.2,0,0,0-.6,2.2h2.5c.7,0,1.1.2,1.1.7a5.1,5.1,0,0,1-.2.9,18.4,18.4,0,0,1-.6,1.8,21.7,21.7,0,0,0-.7,2.4c-.1.2-.2.4-.3.4h-.5L63,116a1.4,1.4,0,0,1-.2-.7,9.2,9.2,0,0,1,.4-2c.2-1.1.4-1.7.4-1.9l-1.7.2c-.5,2.1-.8,3.4-1,3.9s-.4.8-.6.8-.4-.2-.6-.4-.4-.5-.4-.7a1.3,1.3,0,0,1,.1-.6A9.9,9.9,0,0,0,60,112h-.8a.9.9,0,0,1-.6-.3,1.3,1.3,0,0,1-.3-.8c0-.1.1-.3.4-.4l1.6-.4a13.6,13.6,0,0,1,1.1-3.8,2.6,2.6,0,0,1,2-1.1,3.2,3.2,0,0,1,1.7.6c.7.5,1,.9,1,1.5a2,2,0,0,1-.2.9.7.7,0,0,1-.5.4l-.6-.3-.5-.5C63.9,107.3,63.6,107,63.4,107.1Z"/><path d="M66,114a4.5,4.5,0,0,1,.6-2.1,8.3,8.3,0,0,1,1.6-2.1,3.6,3.6,0,0,1,2-.9c.3,0,.6.3,1,.7a2.1,2.1,0,0,1,.5,1.1c0,.2-.1.4-.3.4l-.5-.2h-.6a1.5,1.5,0,0,0-.8.5,6.4,6.4,0,0,0-1,1.3,2.8,2.8,0,0,0-.5,1.2.8.8,0,0,0,.2.5h1.9l.8-.3h.4c.3,0,.4.1.4.4s-.3.8-1,1.2a4,4,0,0,1-2.2.7,3,3,0,0,1-1.6-.8A2.8,2.8,0,0,1,66,114Z"/><path d="M78.8,112.1a.5.5,0,0,1,.3.4l-.2.7a5.1,5.1,0,0,0-.2.9,4.3,4.3,0,0,1-.1.5v.3a.4.4,0,0,1-.1.3v.4c0,.1,0,.2-.1.2h0l-.3.2c-.2,0-.3-.2-.5-.4a3.1,3.1,0,0,1-.5-1c-.8.9-1.5,1.4-2.1,1.4a2.4,2.4,0,0,1-1.4-.6,2.3,2.3,0,0,1-.7-1.4,5.5,5.5,0,0,1,.6-1.9,8.7,8.7,0,0,1,1.6-2.3,3.6,3.6,0,0,1,2.1-1.1,2.4,2.4,0,0,1,1.3.7,1.7,1.7,0,0,1,.8,1.3A2.7,2.7,0,0,1,78.8,112.1Zm-4,2.2a3.1,3.1,0,0,0,1.5-.7,4,4,0,0,0,1.1-2l.2-.2c0-.5-.1-.8-.3-.8s-.7.3-1.2.8a7.2,7.2,0,0,0-1.1,1.5,3,3,0,0,0-.4,1.3h.2Z"/><path d="M85.1,108.7a1.6,1.6,0,0,1,1.3.7,2,2,0,0,1,.6,1.4,6.7,6.7,0,0,1-.4,2.4,7.1,7.1,0,0,1-.8,2.1c-.3.4-.6.7-.9.7s-.5-.2-.5-.7a10.8,10.8,0,0,1,.5-2,10.5,10.5,0,0,0,.3-1.8c0-.4-.1-.6-.2-.6l-.3.2-.3.3-.3.4-.2.4-.3.4-.2.5-.3.5c-.8,1.6-1.5,2.4-2,2.4s-.4-.1-.7-.5a1.8,1.8,0,0,1-.5-.7l.2-.7.3-.8a1.3,1.3,0,0,0,.1-.6,1.3,1.3,0,0,0,.1-.6,1.8,1.8,0,0,0,.1-.6v-.6c.1-1.2.2-1.9.2-2s.2-.2.2-.2a1.7,1.7,0,0,1,1.1.4,1.5,1.5,0,0,1,.5.8,10.8,10.8,0,0,1-.5,2.5,23.6,23.6,0,0,1,1.7-2.6C84.4,109.1,84.8,108.7,85.1,108.7Z"/><path d="M99.1,111.8c.2.2.3.3.3.4l-.2.8a2.9,2.9,0,0,0-.2.9c0,.2-.1.3-.1.5v.2c0,.1-.1.2-.1.3v.2a.4.4,0,0,0-.1.3h-.1v.2h-.2c-.2,0-.3-.1-.5-.4a4.1,4.1,0,0,1-.5-.9,3.3,3.3,0,0,1-2.2,1.3,2.2,2.2,0,0,1-1.3-.6,2.4,2.4,0,0,1-.7-1.3,4.5,4.5,0,0,1,.6-1.9,7.3,7.3,0,0,1,1.6-2.3,2.7,2.7,0,0,1,2.1-1.1,2.4,2.4,0,0,1,1.3.6c.5.5.8.9.8,1.3A2.4,2.4,0,0,1,99.1,111.8Zm-4,2.3a2.9,2.9,0,0,0,1.4-.8,3.2,3.2,0,0,0,1.2-2l.2-.2c0-.5-.1-.7-.3-.7a1.7,1.7,0,0,0-1.2.7,5.7,5.7,0,0,0-1.1,1.6,2.8,2.8,0,0,0-.5,1.2h.3Z"/><path d="M103,105.2a1.7,1.7,0,0,1,.6,1.2,19.2,19.2,0,0,1-.1,2c-.1.9-.3,1.7-.4,2.3-.7,3.3-1.2,5-1.5,5s-.5-.1-.8-.4-.5-.6-.5-.9a10,10,0,0,0,.4-1.4c.2-1,.5-2.2.7-3.7a15.9,15.9,0,0,0,.3-4.3c0-.3.2-.4.5-.4S102.7,104.8,103,105.2Z"/><path d="M113.8,108.4a1.5,1.5,0,0,1,1.1.6,2.1,2.1,0,0,1,.5,1.1c0,.2-.1.4-.3.4l-.5-.2H114l-1,.2q-.6.3-.6.6c0,.1.1.3.4.4l.8.6a2.7,2.7,0,0,1,.8.7,1.7,1.7,0,0,1,.4,1.1,1.4,1.4,0,0,1-.8,1.2,3.4,3.4,0,0,1-2,.6,3,3,0,0,1-1.9-.5c-.6-.3-.9-.7-.9-1s.2-.6.5-.6h.4a3.4,3.4,0,0,0,1.8.4c.7,0,1-.1,1-.3a.9.9,0,0,0-.4-.6l-.9-.6-.9-.7a2,2,0,0,1-.4-.8c0-.5.5-1.1,1.4-1.7A4.3,4.3,0,0,1,113.8,108.4Z"/><path d="M121.3,112.1a3.5,3.5,0,0,1-1.9.6h-1.6a1.7,1.7,0,0,0-.1.7c0,.3,0,.5.1.6h.6l1.8-.2.8-.2c.4,0,.6.1.6.4s-.3.7-.9,1a4.6,4.6,0,0,1-2.1.5,2.5,2.5,0,0,1-1.9-.7,2.3,2.3,0,0,1-.7-1.7,4.7,4.7,0,0,1,.5-2.2,6.5,6.5,0,0,1,1.5-1.8,2.4,2.4,0,0,1,1.8-.8,2.3,2.3,0,0,1,1.6.8,2.9,2.9,0,0,1,.8,1.8Q122.2,111.5,121.3,112.1Zm-1-1.8-.6-.3a.9.9,0,0,0-.6.4,2.7,2.7,0,0,0-.8,1h.4c1.2-.1,1.9-.3,1.9-.7A.5.5,0,0,0,120.3,110.3Z"/><path d="M123.5,110.6V109c0-.5.2-.8.5-.8l.6.2a4.3,4.3,0,0,1,.4.7l1-.7,1-.3c.7,0,1,.2,1,.5v.4h-.2c0,.1-.1.1-.1.2h-.2l-.5.3a4.7,4.7,0,0,0-1,1,3.5,3.5,0,0,0-.7,1.5,12.1,12.1,0,0,1-.7,2.4c-.2.6-.5.8-.8.8a.5.5,0,0,1-.6-.4,1.1,1.1,0,0,1-.3-.8,3.6,3.6,0,0,1,.3-1.1,3.5,3.5,0,0,0,.3-1.3A4.1,4.1,0,0,0,123.5,110.6Z"/><path d="M134.9,104.8c0-.4.1-.6.5-.6s.5.2.8.6a1.5,1.5,0,0,1,.5,1,6.6,6.6,0,0,1-.1,1.3,15.5,15.5,0,0,1-.4,1.5c-.1.5-.3,1.1-.5,1.9a13.2,13.2,0,0,0-.5,1.8,12.7,12.7,0,0,1,1.9-3.1c.6-.8,1.2-1.2,1.6-1.2s.7.3,1.1.8a2.7,2.7,0,0,1,.5,1.3,6.5,6.5,0,0,1-.2,1.8,8.8,8.8,0,0,1-.7,2.3c-.4.7-.8,1.1-1.2,1.1s-.4-.2-.4-.7.1-.8.2-1.5a10.4,10.4,0,0,0,.4-2c0-.2,0-.4-.1-.4s-1.3,1-2.4,2.8l-.8,1.4c-.3.3-.5.4-.7.4a1,1,0,0,1-.8-.5,1.2,1.2,0,0,1-.4-.8,2.5,2.5,0,0,1,.1-.8c0-.4.2-.9.3-1.6s.4-2,.8-3.8S134.9,105,134.9,104.8Z"/><path d="M146,108.3c.1-.2.2-.4.4-.4s.5.2.8.6a1.9,1.9,0,0,1,.5,1q0,.1-.6,2.1a20.8,20.8,0,0,0-1,3,.7.7,0,0,1-.7.6l-.4-.2a.8.8,0,0,1-.2-.7,6.2,6.2,0,0,1,.1-1.2c-.9,1.4-1.7,2.1-2.2,2.1a1.7,1.7,0,0,1-1.1-.6,1.5,1.5,0,0,1-.7-1.1,10.8,10.8,0,0,1,.8-3.4c.4-1.4.9-2.1,1.4-2.1a1.1,1.1,0,0,1,.7.3,1.3,1.3,0,0,1,.3.8,4.3,4.3,0,0,1-.3,1,7.2,7.2,0,0,0-1,3.2h0c.2,0,.4-.2.8-.6a14,14,0,0,0,1.3-2A11.2,11.2,0,0,0,146,108.3Z"/><path d="M157.3,107.8a.9.9,0,0,1,.9.7,2.4,2.4,0,0,1,.4,1.3c0,.4-.1,1-.2,1.8a15.5,15.5,0,0,1-.7,2.3c-.3.7-.7,1.1-1.1,1.1s-.4-.2-.4-.6a12.6,12.6,0,0,1,.3-2.1,10.5,10.5,0,0,0,.3-1.8c0-.3,0-.5-.1-.5s-.4.2-.7.7a8.7,8.7,0,0,0-.9,1.7c-.4.7-.6,1.2-.7,1.4l-.3.5c0,.1-.1.2-.2.4s-.6.5-1.1,0-.4-.5-.4-.7a4.5,4.5,0,0,1,.2-1.1,14,14,0,0,0,.2-2.3c0-.4-.1-.5-.2-.5s-.2.1-.3.3a5.4,5.4,0,0,0-.7,1.2l-.8,1.5c-.8,1.3-1.3,2-1.8,2s-.4-.1-.7-.5a1.5,1.5,0,0,1-.5-.8,8.7,8.7,0,0,1,.3-1.3,14.3,14.3,0,0,0,.4-2.2c0-.8.1-1.4.1-1.8s.2-.7.4-.7a1.6,1.6,0,0,1,1,.4,1.5,1.5,0,0,1,.5.8,12.2,12.2,0,0,1-.6,2.9,22.8,22.8,0,0,1,1.6-3.2,2.5,2.5,0,0,1,1.4-.9c.2,0,.5.3.9.7a2.2,2.2,0,0,1,.6,1.3v1a5.2,5.2,0,0,1,1.3-2.1A2.2,2.2,0,0,1,157.3,107.8Z"/><path d="M165.3,110.9l.3.4a4.5,4.5,0,0,1-.2.8,6.4,6.4,0,0,1-.2.9.7.7,0,0,1-.1.5v.3a.3.3,0,0,1-.1.2v.3a.3.3,0,0,1-.1.2v.2h-.4c-.1,0-.3-.1-.5-.4a1.9,1.9,0,0,1-.4-.9c-.9.9-1.6,1.4-2.2,1.4a1.7,1.7,0,0,1-1.3-.7,1.9,1.9,0,0,1-.8-1.3,4.9,4.9,0,0,1,.6-1.9,8.7,8.7,0,0,1,1.6-2.3,3.1,3.1,0,0,1,2.1-1.1,1.9,1.9,0,0,1,1.3.7,1.4,1.4,0,0,1,.8,1.2A2.4,2.4,0,0,1,165.3,110.9Zm-4,2.3a2.8,2.8,0,0,0,1.5-.8,2.9,2.9,0,0,0,1.1-1.9.2.2,0,0,1,.2-.2c0-.6-.1-.8-.2-.8a1.9,1.9,0,0,0-1.3.7,9.1,9.1,0,0,0-1.1,1.6,3.1,3.1,0,0,0-.4,1.2v.2Z"/><path d="M171.6,107.6a1.8,1.8,0,0,1,1.3.6,2.2,2.2,0,0,1,.6,1.4,7.7,7.7,0,0,1-.4,2.5,6.4,6.4,0,0,1-.8,2c-.3.5-.6.7-.9.7s-.5-.2-.5-.6a11.2,11.2,0,0,1,.5-2.1,8.2,8.2,0,0,0,.3-1.8c0-.3-.1-.5-.2-.5l-.3.2-.3.3-.2.4-.3.4-.3.4-.2.5-.3.4c-.8,1.7-1.5,2.5-2,2.5s-.4-.2-.7-.5-.5-.6-.5-.8l.2-.6c.2-.4.2-.6.3-.8s.1-.4.2-.6a2,2,0,0,1,.1-.7v-1.1c.1-1.3.2-1.9.2-2.1l.2-.2a1.8,1.8,0,0,1,1.1.5c.3.3.5.5.5.8a20.1,20.1,0,0,1-.4,2.5,16,16,0,0,1,1.6-2.7C170.9,108,171.3,107.6,171.6,107.6Z"/><path d="M175.3,109.1c.7-1,1.4-1.6,2.1-1.6a2.4,2.4,0,0,1,1.8.7,3,3,0,0,1,.8,1.8,5.9,5.9,0,0,1-.5,2.2,6.2,6.2,0,0,1-1.4,1.8,3.2,3.2,0,0,1-2,.8,1.6,1.6,0,0,1-1.3-.7,2.5,2.5,0,0,1-.6-1.7A6.2,6.2,0,0,1,175.3,109.1Zm2.3,2.9a5.3,5.3,0,0,0,.5-2,1.7,1.7,0,0,0-.3-1.2,3.9,3.9,0,0,0-1.1,1.5,4.1,4.1,0,0,0-.6,2,1.9,1.9,0,0,0,.2,1A2.7,2.7,0,0,0,177.6,112Z"/><path d="M191.2,107.7c.1-.2.2-.4.5-.4a1.5,1.5,0,0,1,.8.5,2.1,2.1,0,0,1,.4,1.1,3.6,3.6,0,0,1-.3,1.1,5.3,5.3,0,0,1-.3,1.1l-.3.8-.3,1.1a8.3,8.3,0,0,0-.4,1.2,13.1,13.1,0,0,0-.5,1.5,5.5,5.5,0,0,1-1.1,2,2.2,2.2,0,0,1-1.6.7,3.4,3.4,0,0,1-1.7-.5c-.6-.4-.8-.7-.8-1.1a1.1,1.1,0,0,1,.2-.7c.2-.3.4-.4.5-.4l.6.3.6.7.7.3.3-.2.2-.3c0-.1.1-.2.1-.4l.2-.4a4.3,4.3,0,0,0,.1-.5c.1-.2.1-.4.2-.6s.3-.9.4-1.3a2.8,2.8,0,0,1-1,.9,1.2,1.2,0,0,1-.9.4,1.8,1.8,0,0,1-1-.6,2,2,0,0,1-.6-1.4,9.6,9.6,0,0,1,.3-2,7.2,7.2,0,0,1,.8-2.2c.3-.7.6-1,.8-1a1.1,1.1,0,0,1,.8.3,1,1,0,0,1,.4.8,3.6,3.6,0,0,1-.3,1.1l-.7,1.6a5,5,0,0,0-.3,1.6h.1c.1,0,.4-.2.7-.7a7.8,7.8,0,0,0,1.3-1.9A9.1,9.1,0,0,0,191.2,107.7Z"/><path d="M201.5,103.9a2.1,2.1,0,0,1,.5,1.2,18.2,18.2,0,0,1-.1,2c-.1.9-.2,1.7-.3,2.3-.8,3.4-1.3,5.1-1.6,5.1a1.5,1.5,0,0,1-.8-.5c-.3-.4-.4-.6-.4-.8s.1-.5.3-1.5a24.5,24.5,0,0,0,.7-3.7,21.5,21.5,0,0,0,.4-4.3c0-.3.1-.4.4-.4S201.1,103.5,201.5,103.9Z"/><path d="M203.4,108.7a3.5,3.5,0,0,1,2.2-1.6,2.5,2.5,0,0,1,1.8.8,2.4,2.4,0,0,1,.7,1.8,4.1,4.1,0,0,1-.5,2.1,4.3,4.3,0,0,1-1.3,1.9,4,4,0,0,1-2,.7,1.6,1.6,0,0,1-1.3-.7,2.3,2.3,0,0,1-.6-1.6A6.1,6.1,0,0,1,203.4,108.7Zm2.3,2.9a3.8,3.8,0,0,0,.6-1.9,2.3,2.3,0,0,0-.3-1.3,4.9,4.9,0,0,0-1.2,1.5,4.2,4.2,0,0,0-.5,2,2.8,2.8,0,0,0,.1,1.1A2.6,2.6,0,0,0,205.7,111.6Z"/><path d="M17.6,127.2c.4,0,.7.3,1.1.9a4,4,0,0,1,.7,1.9,2.7,2.7,0,0,1-.5,1.3,7.9,7.9,0,0,1-1.2,1.5L16.1,134a4.9,4.9,0,0,1-1.8.5h-.2c-.5,2.4-.9,3.6-1.2,3.7s-.4-.2-.6-.5-.4-.6-.4-.8.2-.9.4-2a28.3,28.3,0,0,0,1.1-7.4.4.4,0,0,1,.4-.4c.3-.1.5.1.9.3a1.5,1.5,0,0,1,.6,1A4,4,0,0,1,17.6,127.2Zm-1,4.4a3,3,0,0,0,.9-1.8c0-.5-.1-.7-.4-.7a1.5,1.5,0,0,0-1.2.7l-.6.8-.6,1.3-.2.9A5.7,5.7,0,0,0,16.6,131.6Z"/><path d="M20.9,129.5V128c0-.6.1-.8.4-.8a.7.7,0,0,1,.6.2.9.9,0,0,1,.4.6l1.1-.7.9-.2c.7,0,1.1.1,1.1.4s0,.3-.1.4v.2h-.2c-.1.1-.1.2-.2.2l-.4.3a3.3,3.3,0,0,0-1.1.9,4.8,4.8,0,0,0-.7,1.6,7.7,7.7,0,0,1-.7,2.4c-.2.5-.5.8-.8.8a.6.6,0,0,1-.6-.4,1.3,1.3,0,0,1-.2-.8,2.6,2.6,0,0,1,.2-1.1c.2-.5.3-1,.4-1.3S20.9,130,20.9,129.5Z"/><path d="M30.5,130.9a3.3,3.3,0,0,1-1.9.6H27a1.7,1.7,0,0,0-.1.7,1.1,1.1,0,0,0,.1.6h.7l1.8-.2.7-.2c.4,0,.6.1.6.4s-.3.7-.9,1a4.6,4.6,0,0,1-2.1.5,2.5,2.5,0,0,1-1.9-.7,2.3,2.3,0,0,1-.7-1.7,4.9,4.9,0,0,1,.6-2.2,6.2,6.2,0,0,1,1.4-1.9,2.7,2.7,0,0,1,1.8-.7,2.7,2.7,0,0,1,1.7.8,2.7,2.7,0,0,1,.7,1.8Q31.4,130.3,30.5,130.9Zm-1-1.8-.5-.3c-.2,0-.4.1-.7.4a7.3,7.3,0,0,0-.8.9h.4c1.3-.1,1.9-.3,1.9-.7A.5.5,0,0,0,29.5,129.1Z"/><path d="M36.4,127a1.5,1.5,0,0,1,1.1.6,2.1,2.1,0,0,1,.5,1.1c0,.3-.1.4-.3.4l-.5-.2h-.6l-1,.3q-.6.2-.6.6c0,.1.1.2.4.4l.8.5a2,2,0,0,1,.8.8,1.3,1.3,0,0,1,.4,1,1.4,1.4,0,0,1-.8,1.2,3.4,3.4,0,0,1-2,.6,3,3,0,0,1-1.9-.5c-.6-.3-.9-.7-.9-1s.2-.6.5-.6l.4.2a3.4,3.4,0,0,0,1.8.3c.7,0,1-.1,1-.2s-.1-.4-.4-.7l-.9-.6-.9-.7a2,2,0,0,1-.4-.8c0-.5.5-1.1,1.4-1.7A4.3,4.3,0,0,1,36.4,127Z"/><path d="M43.9,130.7a3.5,3.5,0,0,1-1.9.6H40.4a1.7,1.7,0,0,0-.1.7c0,.3,0,.5.1.6H41l1.8-.2.8-.2c.4,0,.6.1.6.4s-.3.7-.9,1a3.6,3.6,0,0,1-2.1.5,2.4,2.4,0,0,1-2.6-2.4,4.7,4.7,0,0,1,.5-2.2,6.5,6.5,0,0,1,1.5-1.8,2.9,2.9,0,0,1,1.8-.8,2.1,2.1,0,0,1,1.6.9,2.5,2.5,0,0,1,.8,1.7A1.5,1.5,0,0,1,43.9,130.7Zm-1-1.8a.9.9,0,0,0-.6-.3l-.6.4a3.9,3.9,0,0,0-.8,1h.4c1.2,0,1.9-.3,1.9-.7S43.1,129.1,42.9,128.9Z"/><path d="M50.5,126.8a1.8,1.8,0,0,1,1.3.6,2.7,2.7,0,0,1,.5,1.4,7.4,7.4,0,0,1-.3,2.5,10.3,10.3,0,0,1-.8,2c-.3.5-.6.7-.9.7s-.5-.2-.5-.6a8.7,8.7,0,0,1,.4-2.1,4.7,4.7,0,0,0,.3-1.8c0-.3,0-.5-.1-.5l-.4.2-.2.3-.3.4-.2.3-.3.5-.3.5c0,.1-.1.2-.2.4s-1.5,2.5-2,2.5a1.5,1.5,0,0,1-.8-.5c-.3-.4-.4-.6-.4-.8a1,1,0,0,1,.2-.6,3.4,3.4,0,0,1,.3-.8c0-.2.1-.4.1-.6s.1-.4.1-.7a.7.7,0,0,1,.1-.5V129a12.1,12.1,0,0,1,.2-2.1c.1-.1.1-.2.2-.2a1.6,1.6,0,0,1,1,.5c.4.3.5.5.5.8a10.3,10.3,0,0,1-.4,2.5,27.6,27.6,0,0,1,1.6-2.7C49.7,127.1,50.1,126.8,50.5,126.8Z"/><path d="M56.4,129.4a15.4,15.4,0,0,1-.5,1.7l-.3,1.1c0,.1.1.1.2.1l1.1-.3,1.1-.4c.2,0,.3.2.3.5s-.3.7-.9,1.2a4.8,4.8,0,0,1-2,.7,1.9,1.9,0,0,1-1-.5,1.5,1.5,0,0,1-.7-1,16.3,16.3,0,0,1,.4-1.8l.6-1.8h-.8a.7.7,0,0,1-.6-.4,1.1,1.1,0,0,1-.3-.7c0-.3.7-.5,2.1-.8a9.6,9.6,0,0,0,.3-2.2c0-.3.1-.5.4-.5a2.1,2.1,0,0,1,.9.5c.4.3.6.5.6.8a7.4,7.4,0,0,1-.2,1.2h1c.7,0,1.1.1,1.1.5s-.2.3-.6.5l-1.9.5A2.6,2.6,0,0,1,56.4,129.4Z"/><path d="M65.4,129.8c.2.2.2.3.2.4s0,.4-.1.8a5.1,5.1,0,0,0-.2.9,1.1,1.1,0,0,0-.1.5.4.4,0,0,1-.1.3v.9h-.1c0,.1-.1.1-.3.1l-.4-.4a1.9,1.9,0,0,1-.5-.9,3.5,3.5,0,0,1-2.2,1.4,1.9,1.9,0,0,1-1.3-.7,1.6,1.6,0,0,1-.7-1.3A4.9,4.9,0,0,1,60,130a8.7,8.7,0,0,1,1.6-2.3,3.1,3.1,0,0,1,2-1.1,2.1,2.1,0,0,1,1.4.7,1.9,1.9,0,0,1,.8,1.2A2.4,2.4,0,0,1,65.4,129.8Zm-4.1,2.3a2.8,2.8,0,0,0,1.5-.8,3.5,3.5,0,0,0,1.2-1.9c0-.1,0-.2.2-.2s-.1-.8-.3-.8a1.5,1.5,0,0,0-1.2.7,5.1,5.1,0,0,0-1.1,1.6,4.2,4.2,0,0,0-.5,1.2c0,.1,0,.2.1.2Z"/><path d="M71.7,126.5a1.6,1.6,0,0,1,1.3.7,2.2,2.2,0,0,1,.6,1.3,10.9,10.9,0,0,1-.4,2.5,5.5,5.5,0,0,1-.8,2c-.3.5-.6.7-.9.7s-.5-.2-.5-.6a8.2,8.2,0,0,1,.4-2,6.3,6.3,0,0,0,.4-1.9c0-.3-.1-.5-.2-.5l-.3.2-.3.3-.3.4a.8.8,0,0,0-.2.4l-.3.4-.2.5-.3.4c-.8,1.7-1.5,2.5-2,2.5s-.4-.2-.7-.5a1,1,0,0,1-.5-.8l.2-.6a3.4,3.4,0,0,1,.3-.8c0-.2.1-.4.1-.6a1.5,1.5,0,0,0,.1-.7,4.3,4.3,0,0,1,.1-.5v-.6a10.3,10.3,0,0,1,.2-2c.1-.2.1-.2.2-.2a1.3,1.3,0,0,1,1,.4c.4.3.5.5.5.8a9.6,9.6,0,0,1-.4,2.5,27.6,27.6,0,0,1,1.6-2.7C70.9,126.9,71.3,126.5,71.7,126.5Z"/><path d="M79.8,131.4a3.6,3.6,0,0,1,.5-2.1,8.3,8.3,0,0,1,1.6-2.1,3.4,3.4,0,0,1,2-.8c.3,0,.6.2,1,.6a1.5,1.5,0,0,1,.5,1.1c0,.3-.1.4-.3.4l-.5-.2H84a1.5,1.5,0,0,0-.8.5,6.4,6.4,0,0,0-1,1.3c-.3.5-.5.9-.4,1.2s0,.4.1.5h1.9l.8-.2.4-.2c.3,0,.4.1.4.4s-.3.8-1,1.2a4,4,0,0,1-2.2.7,2.7,2.7,0,0,1-1.6-.7A2.2,2.2,0,0,1,79.8,131.4Z"/><path d="M87.6,127.9c.7-1.1,1.4-1.6,2.1-1.6a2.4,2.4,0,0,1,2.5,2.5,3.9,3.9,0,0,1-.4,2.1,5.5,5.5,0,0,1-1.4,1.9,3.1,3.1,0,0,1-2,.7,1.8,1.8,0,0,1-1.3-.6,2.7,2.7,0,0,1-.6-1.7A5.7,5.7,0,0,1,87.6,127.9Zm2.3,2.8a4.9,4.9,0,0,0,.5-1.9,1.7,1.7,0,0,0-.3-1.2A3.4,3.4,0,0,0,89,129a4.9,4.9,0,0,0-.6,2,2.3,2.3,0,0,0,.2,1.1A3,3,0,0,0,89.9,130.7Z"/><path d="M102.3,126.1c.4,0,.7.2,1,.7a3.9,3.9,0,0,1,.3,1.4,5.9,5.9,0,0,1-.2,1.7,6.2,6.2,0,0,1-.7,2.3c-.3.8-.6,1.1-1,1.1s-.5-.2-.5-.6a10.6,10.6,0,0,1,.3-2,7.7,7.7,0,0,0,.4-1.9c0-.3-.1-.5-.2-.5s-.4.3-.7.7l-.9,1.7-.7,1.4-.2.5c-.1.1-.1.3-.2.4s-.7.5-1.2,0a.9.9,0,0,1-.4-.7l.2-1a9,9,0,0,0,.2-2.4c0-.3,0-.5-.1-.5a.5.5,0,0,0-.4.3c-.1.3-.4.7-.7,1.3l-.7,1.4c-.8,1.4-1.4,2-1.8,2s-.5-.1-.8-.5a1.3,1.3,0,0,1-.4-.7,2.8,2.8,0,0,1,.2-1.4,7.8,7.8,0,0,0,.4-2.2c.1-.8.1-1.4.2-1.8s.1-.7.3-.7a2.1,2.1,0,0,1,1,.4,1,1,0,0,1,.5.8,10.2,10.2,0,0,1-.5,2.9,13.3,13.3,0,0,1,1.6-3.2,1.9,1.9,0,0,1,1.3-.8c.3,0,.6.2,1,.6a2.7,2.7,0,0,1,.5,1.3v1a6.3,6.3,0,0,1,1.3-2A2.2,2.2,0,0,1,102.3,126.1Z"/><path d="M105.4,127.6c.7-1,1.4-1.6,2.1-1.6a2.2,2.2,0,0,1,1.8.8,2.3,2.3,0,0,1,.8,1.8,5.4,5.4,0,0,1-.5,2.1,4.2,4.2,0,0,1-1.4,1.8,2.9,2.9,0,0,1-1.9.8,1.5,1.5,0,0,1-1.3-.7,2.3,2.3,0,0,1-.6-1.6A6.1,6.1,0,0,1,105.4,127.6Zm2.3,2.9a3.8,3.8,0,0,0,.6-1.9,2.3,2.3,0,0,0-.3-1.3,4.9,4.9,0,0,0-1.2,1.5,4.5,4.5,0,0,0-.6,2,5.4,5.4,0,0,0,.2,1.1A3,3,0,0,0,107.7,130.5Z"/><path d="M121.1,126.2c0-.2.2-.3.4-.3a1,1,0,0,1,.8.5,3.1,3.1,0,0,1,.5,1l-.7,2.1-.9,3a.7.7,0,0,1-.7.6l-.4-.2c-.2-.1-.2-.3-.2-.6a7.2,7.2,0,0,1,.1-1.3c-.9,1.4-1.7,2.1-2.3,2.1a1.4,1.4,0,0,1-1-.5,1.6,1.6,0,0,1-.7-1.1,10.7,10.7,0,0,1,.7-3.5c.5-1.4,1-2.1,1.4-2.1a.9.9,0,0,1,.8.4,1.1,1.1,0,0,1,.3.8,4.2,4.2,0,0,1-.3.9,9.5,9.5,0,0,0-1.1,3.3h.1l.8-.7,1.3-1.9C120.4,127.9,120.8,127.1,121.1,126.2Z"/><path d="M128.1,125.8a1.8,1.8,0,0,1,1.3.6,2,2,0,0,1,.6,1.4,7.7,7.7,0,0,1-.4,2.5,6.4,6.4,0,0,1-.8,2c-.3.5-.6.7-.9.7s-.5-.2-.5-.6a8,8,0,0,1,.4-2.1,5.4,5.4,0,0,0,.4-1.8c0-.4-.1-.5-.2-.5h-.3l-.3.4-.3.3-.2.4-.3.5-.2.4-.3.5c-.8,1.6-1.5,2.4-2,2.5s-.4-.2-.7-.5-.5-.6-.5-.8.1-.3.2-.7a2.4,2.4,0,0,1,.3-.7c0-.2.1-.4.1-.6a1.7,1.7,0,0,0,.1-.7,1.1,1.1,0,0,0,.1-.5v-.7c.1-1.2.2-1.9.2-2s.1-.2.2-.2a1.8,1.8,0,0,1,1,.4,1,1,0,0,1,.5.8,6.4,6.4,0,0,1-.4,2.5l1.7-2.6C127.3,126.1,127.8,125.8,128.1,125.8Z"/><path d="M140.6,125.6a1.4,1.4,0,0,1,1,.6,1.9,1.9,0,0,1,.6,1.2.3.3,0,0,1-.3.3h-1.2a1.8,1.8,0,0,0-.9.2c-.5.1-.7.3-.7.6l.4.4.8.5.9.8a2.1,2.1,0,0,1,.4,1.1c0,.4-.3.7-.9,1.1a3.2,3.2,0,0,1-1.9.7,3.9,3.9,0,0,1-2-.5c-.5-.4-.8-.7-.8-1.1s.1-.5.4-.5h.5a2.9,2.9,0,0,0,1.7.4c.7,0,1-.1,1-.3a.7.7,0,0,0-.4-.6,2.7,2.7,0,0,0-.8-.7c-.4-.1-.6-.4-.9-.7a.9.9,0,0,1-.4-.8c0-.5.4-1.1,1.3-1.7A4.2,4.2,0,0,1,140.6,125.6Z"/><path d="M147.6,125.9a.4.4,0,0,1,.4-.4c.2,0,.5.2.8.6a1.6,1.6,0,0,1,.4,1,17.9,17.9,0,0,1-.6,2c-.4,1.3-.7,2.3-.9,3.1a1,1,0,0,1-.7.6l-.5-.2a6.4,6.4,0,0,1-.2-.7,7.4,7.4,0,0,1,.2-1.2c-.9,1.4-1.7,2.1-2.3,2.1s-.6-.2-1.1-.6a1.5,1.5,0,0,1-.6-1.1,10.2,10.2,0,0,1,.7-3.4c.5-1.4,1-2.1,1.4-2.1a1,1,0,0,1,1.1,1.1,2.5,2.5,0,0,1-.4.9,9.8,9.8,0,0,0-1,3.3h.1c.1,0,.4-.2.8-.7a7.8,7.8,0,0,0,1.2-1.9A14.2,14.2,0,0,0,147.6,125.9Z"/><path d="M147.9,135c.3,0,.6-.5,1-1.5l1-3.9c.3-1.6.6-2.6.7-3a2.2,2.2,0,0,1,.3-.9c.1-.2.2-.2.3-.2a1.1,1.1,0,0,1,.9.5,1.7,1.7,0,0,1,.4,1.1c0,.2-.6,2.5-1.8,6.8a3.2,3.2,0,0,1-1.1,1.9,2.7,2.7,0,0,1-1.8.7,2.4,2.4,0,0,1-1.5-.6c-.5-.4-.7-.7-.7-1a1.2,1.2,0,0,1,.2-.8c.2-.2.3-.4.5-.4a1.5,1.5,0,0,1,.7.6v.2A1.5,1.5,0,0,0,147.9,135Zm3.6-12a.7.7,0,0,1,.6-.4c.3,0,.5.2.8.7a2.4,2.4,0,0,1,.4,1.2c0,.2,0,.3-.2.4a.4.4,0,0,1-.4.2,1.4,1.4,0,0,1-1-.5,1.4,1.4,0,0,1-.5-.9A1.1,1.1,0,0,1,151.5,123Z"/><path d="M158.5,129.2a3.5,3.5,0,0,1-1.9.6H155a1.9,1.9,0,0,0-.2.7.8.8,0,0,0,.2.6h.6l1.8-.2.8-.2c.4,0,.6.1.6.4s-.3.7-.9,1a3.6,3.6,0,0,1-2.1.5,2.5,2.5,0,0,1-1.9-.7,3,3,0,0,1-.8-1.7,4.9,4.9,0,0,1,.6-2.2,6.5,6.5,0,0,1,1.5-1.8,2.9,2.9,0,0,1,1.8-.8,2.2,2.2,0,0,1,1.6.9,2.5,2.5,0,0,1,.8,1.7A1.5,1.5,0,0,1,158.5,129.2Zm-1-1.8a.9.9,0,0,0-.6-.3c-.2,0-.4.1-.7.4a8.6,8.6,0,0,0-.7,1h.4c1.2,0,1.9-.3,1.9-.7Z"/><path d="M163.2,128a15.4,15.4,0,0,1-.5,1.7l-.3,1.1h.3l1.1-.3,1-.4c.2,0,.3.2.3.5s-.3.7-.9,1.2a4.9,4.9,0,0,1-1.9.7,2.1,2.1,0,0,1-1.1-.5,1.4,1.4,0,0,1-.6-1,6.5,6.5,0,0,1,.4-1.8,17.1,17.1,0,0,1,.5-1.8h-.8a.7.7,0,0,1-.6-.4,1.1,1.1,0,0,1-.3-.7c0-.3.7-.6,2.1-.8a9.6,9.6,0,0,0,.3-2.2c0-.3.1-.5.4-.5a1.6,1.6,0,0,1,.9.5c.4.3.6.5.6.8a3,3,0,0,1-.2,1.2H165c.7,0,1,.1,1,.5s-.2.3-.6.5l-1.8.5C163.5,127.2,163.4,127.6,163.2,128Z"/><path d="M167.3,126.8c.7-1,1.4-1.6,2.1-1.6a2.9,2.9,0,0,1,1.8.7,2.4,2.4,0,0,1,.7,1.8,4.3,4.3,0,0,1-.4,2.2,6.2,6.2,0,0,1-1.4,1.8,3.2,3.2,0,0,1-2,.8,1.6,1.6,0,0,1-1.3-.7,2.4,2.4,0,0,1-.6-1.7A6.2,6.2,0,0,1,167.3,126.8Zm2.3,2.9a5.3,5.3,0,0,0,.5-2,1.7,1.7,0,0,0-.3-1.2,3.7,3.7,0,0,0-1.1,1.5,4.5,4.5,0,0,0-.6,2,1.9,1.9,0,0,0,.2,1A2.7,2.7,0,0,0,169.6,129.7Z"/><path d="M183.1,125.1c.3,0,.7.3,1.1.9a3.2,3.2,0,0,1,.6,1.8,3,3,0,0,1-.4,1.4,7.9,7.9,0,0,1-2.9,2.6,4.1,4.1,0,0,1-1.8.5h-.1c-.6,2.5-1,3.7-1.2,3.7s-.4-.2-.7-.5a1.6,1.6,0,0,1-.3-.8,10.4,10.4,0,0,1,.4-2,39.7,39.7,0,0,0,1.1-7.4c0-.3.1-.4.4-.4l.9.3a2.1,2.1,0,0,1,.6,1A3.7,3.7,0,0,1,183.1,125.1Zm-1.1,4.3a2.8,2.8,0,0,0,1-1.7c0-.5-.2-.8-.4-.8a2.4,2.4,0,0,0-1.3.7l-.5.9a4.5,4.5,0,0,0-.6,1.2l-.2.9A3.3,3.3,0,0,0,182,129.4Z"/><path d="M186.6,126.6c.7-1.1,1.4-1.6,2.1-1.6a2.4,2.4,0,0,1,2.5,2.5,3.9,3.9,0,0,1-.4,2.1,5.5,5.5,0,0,1-1.4,1.9,3.1,3.1,0,0,1-2,.7,1.8,1.8,0,0,1-1.3-.6,2.7,2.7,0,0,1-.6-1.7A5.7,5.7,0,0,1,186.6,126.6Zm2.3,2.8a4.9,4.9,0,0,0,.5-1.9,1.7,1.7,0,0,0-.3-1.2,3.4,3.4,0,0,0-1.1,1.4,4.9,4.9,0,0,0-.6,2,2.3,2.3,0,0,0,.2,1.1A3,3,0,0,0,188.9,129.4Z"/><path d="M194.7,121.6a1.7,1.7,0,0,1,.6,1.2c0,.3-.1,1-.2,2s-.2,1.7-.3,2.3c-.7,3.3-1.3,5-1.6,5s-.4-.1-.7-.4-.5-.6-.5-.9a13.1,13.1,0,0,1,.4-1.4l.7-3.7a32.2,32.2,0,0,0,.3-4.3c0-.3.1-.4.4-.4A1.2,1.2,0,0,1,194.7,121.6Z"/><path d="M197.5,124.9a1,1,0,0,1,.9.5,1.7,1.7,0,0,1,.4,1.1,7.1,7.1,0,0,1-.5,1.9l-.9,3.1a.7.7,0,0,1-.7.6l-.5-.2a1.4,1.4,0,0,1-.2-.6,2,2,0,0,1,.1-.7,6.5,6.5,0,0,1,.2-1.1,8.9,8.9,0,0,0,.2-1.1c.1-.3.1-.6.2-1a6.4,6.4,0,0,1,.2-.9c0-.3.1-.5.1-.8S197.3,124.9,197.5,124.9Zm.7-.4-.4-.2a.7.7,0,0,1-.1-.5c-.1-.2,0-.3.1-.5l.5-.6.6-.5.4-.3.3-.3.2-.2h.4c.2,0,.4.2.6.4a1.3,1.3,0,0,1,.3.7c0,.2,0,.3-.1.4s-.1.2-.2.3l-.3.2-.6.3-.6.3-.4.3Z"/><path d="M202.6,127.5c-.1.5-.3,1-.5,1.7l-.3,1.1h.2l1.1-.4,1-.3c.3,0,.4.2.4.5s-.3.7-.9,1.1a3.1,3.1,0,0,1-2,.7,1.6,1.6,0,0,1-1-.4c-.5-.4-.7-.7-.7-1a16.3,16.3,0,0,1,.4-1.8l.6-1.9-.8.2a.7.7,0,0,1-.6-.4,1.1,1.1,0,0,1-.3-.7c-.1-.3.7-.6,2.1-.8a6,6,0,0,0,.2-2.2.5.5,0,0,1,.5-.5,2.1,2.1,0,0,1,.9.5.9.9,0,0,1,.6.8,7.4,7.4,0,0,1-.2,1.2h1c.7,0,1.1.1,1.1.4s-.2.4-.6.6l-1.9.5A9.3,9.3,0,0,1,202.6,127.5Z"/><path d="M207.2,124.7a1.2,1.2,0,0,1,.9.6,4.9,4.9,0,0,1,.4,1.1l-.5,1.9-.9,3.1a.7.7,0,0,1-.7.6.5.5,0,0,1-.5-.3.6.6,0,0,1-.3-.6,15,15,0,0,1,.3-1.8c.3-1,.4-1.8.6-2.5a15.7,15.7,0,0,1,.3-1.6C206.9,124.9,207,124.7,207.2,124.7Zm-.3-1.7a1,1,0,0,1,.4-.8c.2-.2.4-.4.6-.4s.5.3.8.8a2.4,2.4,0,0,1,.4,1.1.8.8,0,0,1-.2.5l-.5.2a1.6,1.6,0,0,1-.9-.5Q206.9,123.3,206.9,123Z"/><path d="M209.3,129.7a4.8,4.8,0,0,1,.6-2.1,6.5,6.5,0,0,1,1.6-2.1,3.1,3.1,0,0,1,1.9-.8,1.2,1.2,0,0,1,1,.6,1.7,1.7,0,0,1,.6,1.1c0,.3-.1.4-.4.4l-.4-.2h-.6a2.1,2.1,0,0,0-.9.5,6.4,6.4,0,0,0-1,1.3,2.4,2.4,0,0,0-.4,1.2.6.6,0,0,0,.2.5h1.9l.7-.2.5-.2a.4.4,0,0,1,.4.4c0,.4-.4.8-1.1,1.2a3.5,3.5,0,0,1-2.1.7,2.5,2.5,0,0,1-1.6-.7A2,2,0,0,1,209.3,129.7Z"/><path d="M217.1,126.2c.7-1.1,1.4-1.6,2.1-1.6a2.4,2.4,0,0,1,1.8.7,2.5,2.5,0,0,1,.8,1.8,5.4,5.4,0,0,1-.5,2.1,4.5,4.5,0,0,1-1.4,1.9,2.8,2.8,0,0,1-1.9.7,2,2,0,0,1-1.4-.6,3.4,3.4,0,0,1-.5-1.7A5.6,5.6,0,0,1,217.1,126.2Zm2.3,2.8a3.8,3.8,0,0,0,.6-1.9c-.1-.6-.1-1-.3-1.2a3.5,3.5,0,0,0-1.2,1.4,4.9,4.9,0,0,0-.6,2,2.3,2.3,0,0,0,.2,1.1A2.6,2.6,0,0,0,219.4,129Z"/><path d="M225.3,131.6a4.3,4.3,0,0,1-.8,2.3c-.6.8-1.1,1.2-1.6,1.2s-.4-.1-.4-.3a1.5,1.5,0,0,1,.3-.6,3.5,3.5,0,0,0,.9-1.9c0-.2-.1-.3-.3-.5l-.5-.4c-.2-.1-.2-.2-.2-.4a1.3,1.3,0,0,1,.3-.7,1.8,1.8,0,0,1,.9-.4,1.2,1.2,0,0,1,.9.6A1.6,1.6,0,0,1,225.3,131.6Z"/><path d="M72,147.4a.5.5,0,0,1,.2.4,2.6,2.6,0,0,1-.1.7,5.1,5.1,0,0,0-.2.9,1.1,1.1,0,0,0-.1.5v1.2h-.1c0,.1-.1.1-.3.1s-.3-.1-.5-.3a10.4,10.4,0,0,1-.4-1c-.9.9-1.6,1.4-2.2,1.4a1.9,1.9,0,0,1-1.3-.7,1.6,1.6,0,0,1-.7-1.3,4.9,4.9,0,0,1,.6-1.9,8.7,8.7,0,0,1,1.6-2.3,2.9,2.9,0,0,1,2-1.1,2.6,2.6,0,0,1,1.4.7c.5.5.8.9.8,1.2A2.7,2.7,0,0,1,72,147.4Zm-4.1,2.2a2.2,2.2,0,0,0,1.5-.8,2.9,2.9,0,0,0,1.1-1.9c.1-.1.1-.2.3-.2s-.1-.8-.3-.8a1.7,1.7,0,0,0-1.2.8,5.7,5.7,0,0,0-1.2,1.5,7.9,7.9,0,0,0-.4,1.2c0,.1,0,.2.1.2Z"/><path d="M78,144.4a.7.7,0,0,1,.5-.4c.2,0,.5.2.8.6a1.6,1.6,0,0,1,.4,1,17.9,17.9,0,0,1-.6,2c-.4,1.3-.7,2.3-.9,3.1s-.4.6-.7.6l-.5-.2a1.4,1.4,0,0,1-.2-.7,7.4,7.4,0,0,1,.2-1.2c-1,1.4-1.7,2.1-2.3,2.1s-.6-.2-1.1-.6a1.4,1.4,0,0,1-.6-1.1,10.2,10.2,0,0,1,.7-3.4c.5-1.4,1-2.1,1.4-2.1a.9.9,0,0,1,.7.3,1,1,0,0,1,.4.8,3.5,3.5,0,0,1-.4,1,8.9,8.9,0,0,0-1,3.2h.1c.1,0,.4-.2.8-.7a16.7,16.7,0,0,0,2.3-4.4Z"/><path d="M83.3,146.7a12.2,12.2,0,0,0-.5,1.7l-.3,1.1h.2l1.1-.3,1-.3c.2,0,.3.1.4.5s-.4.7-1,1.1a2.8,2.8,0,0,1-1.9.7,2.1,2.1,0,0,1-1.1-.5,1.2,1.2,0,0,1-.6-1A6.9,6.9,0,0,1,81,148c.3-.9.4-1.6.5-1.9l-.8.2c-.2,0-.4-.2-.6-.4a1.3,1.3,0,0,1-.3-.7c0-.3.7-.6,2.2-.8a21.5,21.5,0,0,0,.2-2.3c0-.3.1-.4.4-.4a1.6,1.6,0,0,1,1,.4,1.4,1.4,0,0,1,.5.9,5.7,5.7,0,0,1-.1,1.2h1c.7,0,1,.2,1,.5s-.2.4-.6.5a5.6,5.6,0,0,1-1.8.5A8.1,8.1,0,0,0,83.3,146.7Z"/><path d="M87.3,145.5c.7-1.1,1.4-1.6,2.1-1.6a2.4,2.4,0,0,1,1.8.7,2.5,2.5,0,0,1,.8,1.8,6.3,6.3,0,0,1-.5,2.2,4.9,4.9,0,0,1-1.4,1.8,3,3,0,0,1-1.9.7,1.8,1.8,0,0,1-1.4-.6,2.5,2.5,0,0,1-.6-1.7A5.7,5.7,0,0,1,87.3,145.5Zm2.3,2.8a3.6,3.6,0,0,0,.5-1.9,2.9,2.9,0,0,0-.2-1.2,3.2,3.2,0,0,0-1.2,1.5,4.1,4.1,0,0,0-.6,1.9,2,2,0,0,0,.2,1.1A3,3,0,0,0,89.6,148.3Zm.7-4.8-.4-.2a.8.8,0,0,1-.2-.5,1.7,1.7,0,0,1,.2-.5,1.2,1.2,0,0,1,.5-.5l.6-.6.4-.3a.2.2,0,0,1,.2-.2l.3-.2.3-.2a1,1,0,0,1,.7.4,2.5,2.5,0,0,1,.2.7v.5l-.2.2a.5.5,0,0,1-.4.2l-.5.3-.6.3-.5.3Z"/><path d="M97.7,143.8a1.8,1.8,0,0,1,1.3.6,2,2,0,0,1,.6,1.4,7.7,7.7,0,0,1-.4,2.5,6.4,6.4,0,0,1-.8,2c-.3.5-.6.7-.9.7s-.5-.2-.5-.6a9.7,9.7,0,0,1,.5-2.1,8.2,8.2,0,0,0,.3-1.8c0-.4-.1-.5-.2-.5h-.3l-.3.4-.3.3a.5.5,0,0,1-.2.4l-.3.5-.2.4-.3.5c-.8,1.6-1.5,2.4-2,2.5s-.4-.2-.7-.5-.5-.6-.5-.8.1-.3.2-.7a2.4,2.4,0,0,1,.3-.7,1.3,1.3,0,0,0,.1-.6,1.7,1.7,0,0,0,.1-.7,1.1,1.1,0,0,0,.1-.5v-.7c.1-1.2.2-1.9.2-2l.2-.2a2.5,2.5,0,0,1,1.1.4,1.5,1.5,0,0,1,.5.8,9.9,9.9,0,0,1-.5,2.5l1.7-2.6C97,144.1,97.4,143.8,97.7,143.8Z"/><path d="M101.4,145.3c.7-1.1,1.4-1.6,2.1-1.6a2.4,2.4,0,0,1,2.5,2.5,4.5,4.5,0,0,1-.4,2.2,6.2,6.2,0,0,1-1.4,1.8,3.1,3.1,0,0,1-2,.7,1.8,1.8,0,0,1-1.3-.6,2.5,2.5,0,0,1-.6-1.7A5.7,5.7,0,0,1,101.4,145.3Zm2.3,2.8a4.5,4.5,0,0,0,.5-1.9,1.7,1.7,0,0,0-.3-1.2,2.7,2.7,0,0,0-1.1,1.5,4.1,4.1,0,0,0-.6,1.9,2,2,0,0,0,.2,1.1A3,3,0,0,0,103.7,148.1Z"/><path d="M116.1,143.5c.4,0,.7.3.9.8a2.2,2.2,0,0,1,.4,1.3,6.9,6.9,0,0,1-.2,1.8,10.1,10.1,0,0,1-.7,2.3c-.3.7-.6,1.1-1,1.1s-.5-.2-.5-.7a10.6,10.6,0,0,1,.3-2,7.7,7.7,0,0,0,.4-1.9c0-.3-.1-.4-.2-.4s-.4.2-.7.6l-.9,1.7-.7,1.4-.2.5-.2.4q-.5.8-1.2,0a.8.8,0,0,1-.4-.7,6.5,6.5,0,0,0,.2-1,8.6,8.6,0,0,0,.2-2.3c0-.4,0-.6-.1-.6s-.3.1-.4.4a5.4,5.4,0,0,0-.7,1.2,5.8,5.8,0,0,1-.8,1.4c-.7,1.4-1.3,2.1-1.7,2.1a1.5,1.5,0,0,1-.8-.5c-.3-.4-.5-.6-.5-.8a6.6,6.6,0,0,1,.3-1.3,8.5,8.5,0,0,0,.4-2.3c.1-.8.1-1.4.2-1.8s.1-.7.3-.7a1.6,1.6,0,0,1,1,.5c.4.3.5.5.5.8a19.1,19.1,0,0,1-.5,2.9,10.2,10.2,0,0,1,1.6-3.2,1.7,1.7,0,0,1,1.3-.9c.3,0,.6.2.9.7a1.7,1.7,0,0,1,.6,1.2v1a6.3,6.3,0,0,1,1.3-2C115.1,143.9,115.6,143.5,116.1,143.5Z"/><path d="M119.2,145q1-1.5,2.1-1.5a2.1,2.1,0,0,1,1.8.7,2.5,2.5,0,0,1,.8,1.8,5.4,5.4,0,0,1-.5,2.1A4.5,4.5,0,0,1,122,150a2.8,2.8,0,0,1-1.9.7,1.7,1.7,0,0,1-1.4-.7,2.8,2.8,0,0,1-.5-1.6A6.1,6.1,0,0,1,119.2,145Zm2.3,2.9a3.8,3.8,0,0,0,.6-1.9c-.1-.6-.1-1-.3-1.2a3.5,3.5,0,0,0-1.2,1.4,4.5,4.5,0,0,0-.6,2,2.3,2.3,0,0,0,.2,1.1A3,3,0,0,0,121.5,147.9Z"/><path d="M135.2,143.6c0-.2.2-.3.4-.3a1,1,0,0,1,.8.4,1.7,1.7,0,0,1,.4,1.1,2.6,2.6,0,0,1-.2,1.1l-.4,1.1a5.1,5.1,0,0,1-.2.9l-.4,1-.4,1.3c-.2.5-.3,1-.5,1.4a6.2,6.2,0,0,1-1,2,2,2,0,0,1-1.6.7,3.5,3.5,0,0,1-1.8-.5,1.4,1.4,0,0,1-.8-1,1.3,1.3,0,0,1,.3-.8c.2-.2.3-.4.5-.4s.3.1.5.4l.7.6a.9.9,0,0,0,.6.3h.3c.1-.2.1-.3.2-.3a.8.8,0,0,1,.2-.4c0-.2.1-.3.1-.4s.1-.3.2-.6a4.3,4.3,0,0,1,.1-.5,10.3,10.3,0,0,0,.4-1.4l-.9,1-.9.4c-.3,0-.6-.2-1.1-.7a1.8,1.8,0,0,1-.6-1.3,8.8,8.8,0,0,1,.3-2,12.3,12.3,0,0,1,.8-2.3c.3-.6.6-1,.9-1a1,1,0,0,1,.8.4,1.3,1.3,0,0,1,.4.7,3.6,3.6,0,0,1-.3,1.1,8.7,8.7,0,0,0-.7,1.7,5.6,5.6,0,0,0-.4,1.5.1.1,0,0,1,.1.1l.8-.7a14,14,0,0,0,1.3-2A11.2,11.2,0,0,0,135.2,143.6Z"/><path d="M145.4,139.8a1.9,1.9,0,0,1,.6,1.2c0,.4-.1,1.1-.2,2s-.2,1.7-.3,2.3c-.7,3.4-1.2,5.1-1.6,5.1s-.4-.2-.7-.5a1.5,1.5,0,0,1-.5-.8s.1-.5.4-1.5.4-2.1.7-3.7a31.9,31.9,0,0,0,.3-4.2c0-.3.1-.5.4-.5A1.2,1.2,0,0,1,145.4,139.8Z"/><path d="M147.9,143.1a1.2,1.2,0,0,1,.9.6,1.4,1.4,0,0,1,.4,1,7.3,7.3,0,0,1-.5,2l-.9,3.1a.7.7,0,0,1-.7.5.6.6,0,0,1-.5-.2.8.8,0,0,1-.2-.6,15,15,0,0,1,.3-1.8c.2-1,.4-1.9.5-2.6a9.6,9.6,0,0,1,.3-1.5C147.6,143.3,147.8,143.1,147.9,143.1Zm-.2-1.7a1.3,1.3,0,0,1,.3-.8c.2-.2.4-.4.6-.4s.5.3.8.8a2.5,2.5,0,0,1,.5,1.1.5.5,0,0,1-.3.5l-.4.2a1.9,1.9,0,0,1-1-.5A2.1,2.1,0,0,1,147.7,141.4Z"/><path d="M155.4,143a1.7,1.7,0,0,1,1.2.7,2.4,2.4,0,0,1,.6,1.4,4.4,4.4,0,0,1-.2,1.5,13,13,0,0,1-.8,1.7,5.3,5.3,0,0,1-1.2,1.4,3.2,3.2,0,0,1-1.5.6,3.4,3.4,0,0,1-1.9-.8c-.2.5-.3.8-.4.8a1.5,1.5,0,0,1-.8-.5,1.2,1.2,0,0,1-.4-.8,10.4,10.4,0,0,1,.4-2,32.5,32.5,0,0,0,1.3-7.4c0-.3.1-.5.4-.5s.5.2.9.6a2.1,2.1,0,0,1,.5,1.2,20.5,20.5,0,0,1-.6,3.9C153.9,143.6,154.8,143,155.4,143Zm-2.2,5.6c.5,0,1-.4,1.6-1.2a3.7,3.7,0,0,0,.7-2.4h-.2a2.2,2.2,0,0,0-1.6,1,7.6,7.6,0,0,0-1.5,2.3C152.6,148.5,152.9,148.7,153.2,148.6Z"/><path d="M158.7,145.3v-1.5c0-.6.2-.8.5-.8s.4,0,.5.2a1,1,0,0,1,.5.6l1-.7,1-.2c.7,0,1,.1,1,.4s0,.3-.1.4a.3.3,0,0,1-.1.2h-.2v.2l-.5.3a4.8,4.8,0,0,0-1.1.9,3.4,3.4,0,0,0-.6,1.6,12.1,12.1,0,0,1-.7,2.4c-.2.5-.5.8-.8.8a.8.8,0,0,1-.7-.4,3.1,3.1,0,0,1-.2-.8,3,3,0,0,1,.3-1.1,11.1,11.1,0,0,0,.3-1.3A5.3,5.3,0,0,0,158.7,145.3Z"/><path d="M168.4,146.7a3.5,3.5,0,0,1-1.9.6h-1.6a1.9,1.9,0,0,0-.2.7.6.6,0,0,0,.2.5c.1.2.3.2.6.2l1.8-.2.8-.2q.6,0,.6.3c0,.4-.3.8-.9,1.1a4.6,4.6,0,0,1-2.1.5,2.5,2.5,0,0,1-1.9-.7,3,3,0,0,1-.8-1.8,4.8,4.8,0,0,1,.6-2.1,7,7,0,0,1,1.5-1.9,2.7,2.7,0,0,1,1.8-.7,2.1,2.1,0,0,1,1.6.8,2.9,2.9,0,0,1,.8,1.8Q169.3,146.1,168.4,146.7Zm-1-1.8-.6-.3c-.2,0-.4.1-.7.4a3.5,3.5,0,0,0-.7.9h.4c1.2-.1,1.9-.3,1.9-.7A.5.5,0,0,0,167.4,144.9Z"/><path d="M171.6,150.3a1.4,1.4,0,0,1-1-.6,1.2,1.2,0,0,1-.6-.9,1.3,1.3,0,0,1,.3-.8c.3-.3.5-.4.7-.4s.6.2.9.8a2.4,2.4,0,0,1,.4,1.1c0,.2-.1.3-.2.5Z"/></g></svg>