<svg xmlns="http://www.w3.org/2000/svg" viewBox="0 0 191.3 178.8"><defs><style>.cls-1{opacity:0.25;}.cls-2,.cls-5{fill:#fff;}.cls-3{fill:#b1b9c8;}.cls-4{fill:#522e90;}.cls-5{opacity:0.46;}</style></defs><title>act2_nota2</title><g id="papers"><path class="cls-1" d="M154,3.3l10.9-2.1S167,48.6,174.6,93c5.3,30.8,16.7,72.3,16.7,72.3s-43.7-.5-87.2,3.3-85.8,10.2-85.8,10.2-1.5-10.7-4.2-46.9,4.3-77.5,4.3-77.5l96.7-28.5Z"/><path class="cls-2" d="M180.8,157.7,11,174.4Q2,93.9,0,12.9L163.5,0Q168.8,79.2,180.8,157.7Z"/><path class="cls-3" d="M90.4,12.8A12,12,0,1,1,77,2.4,12,12,0,0,1,90.4,12.8Z"/><path class="cls-4" d="M88.5,11.2A12,12,0,1,1,75.1.7,11.9,11.9,0,0,1,88.5,11.2Z"/><path class="cls-5" d="M67,15.4a10.8,10.8,0,0,1,9.4-12,10.9,10.9,0,0,1,9.5,3.8A10.8,10.8,0,0,0,75.3,1.9a10.7,10.7,0,0,0-9.3,12,10.2,10.2,0,0,0,2.4,5.6A11.1,11.1,0,0,1,67,15.4Z"/><path d="M41.4,48.7a2.6,2.6,0,0,1-.9,2.2A4.4,4.4,0,0,1,38,52a3.1,3.1,0,0,1-2.4-.4,2.1,2.1,0,0,1-1.1-1.4c0-.5.1-.8.4-.8l.7.3.9.5a1.4,1.4,0,0,0,1.1.2,1.9,1.9,0,0,0,1.2-.6q.6-.6.6-.9t-.9-.9l-1.8-1.4c-.5-.5-.9-.9-.9-1.1a3.4,3.4,0,0,1,.1-1,1,1,0,0,1,.3-.8A7.1,7.1,0,0,1,38,42.2a6.4,6.4,0,0,1,2-.8,1.2,1.2,0,0,1,.9.4,1.3,1.3,0,0,1,.5.9l-.3.3-.9.4-1.1.5c-.9.4-1.4.8-1.3,1s.2.3.5.6l1.2.8a4,4,0,0,1,1.2,1.1A2.8,2.8,0,0,1,41.4,48.7Z"/><path d="M43.5,44.1a1.1,1.1,0,0,1,.9.5,1.4,1.4,0,0,1,.5,1,5.2,5.2,0,0,1-.2,1.9c-.2,1.2-.4,2.2-.6,3.2a.9.9,0,0,1-.6.7l-.6-.2a1.6,1.6,0,0,1-.3-.6,8.8,8.8,0,0,1,.2-1.8c.1-1.1.2-1.9.2-2.6a6.3,6.3,0,0,1,.2-1.6C43.2,44.3,43.3,44.1,43.5,44.1Zm-.4-1.7a.9.9,0,0,1,.2-.8.7.7,0,0,1,.6-.4c.2-.1.5.1.8.6s.6.8.6,1,0,.5-.2.6a.5.5,0,0,1-.4.2c-.3.1-.6-.1-1-.4S43.1,42.6,43.1,42.4Z"/><path d="M51.4,46.2l.3.5a3.7,3.7,0,0,1-.2.9,11.2,11.2,0,0,0-.4,2.1,5.8,5.8,0,0,1-.3,2.1,5,5,0,0,1-.4,1.3,1.7,1.7,0,0,1-.7,1,2.2,2.2,0,0,1-1.1.5,2.5,2.5,0,0,1-1.7-.4c-.6-.4-.9-.7-.9-1a1.9,1.9,0,0,1,.1-.8c.2-.3.3-.4.4-.4s.3,0,.4.2l.5.4.4.4a.7.7,0,0,0,.6.2c.3,0,.4-.2.6-.5l.3-1c.1-.8.2-1.3.2-1.6a3.3,3.3,0,0,1-1.5.7,1.3,1.3,0,0,1-1.2-.5,2.3,2.3,0,0,1-.7-1.1,8.6,8.6,0,0,1,.1-1.5l.6-1.9a9.1,9.1,0,0,1,1.1-1.6,2.5,2.5,0,0,1,1.5-.8h.9l.6.7a6,6,0,0,1,.5,1.6Zm-3.6,2.7a.2.2,0,0,0,.2.2,3.6,3.6,0,0,0,1.2-.9,4.1,4.1,0,0,0,1-1.6v-.3a3,3,0,0,0-.3-1.1h-.2c-.5.1-.9.6-1.3,1.6A5.1,5.1,0,0,0,47.8,48.9Z"/><path d="M57.3,42.4a1.9,1.9,0,0,1,1.4.5,2.4,2.4,0,0,1,.7,1.3,7,7,0,0,1-.1,2.5,5.3,5.3,0,0,1-.6,2.1c-.2.5-.5.8-.8.8s-.5-.1-.6-.6a13.5,13.5,0,0,1,.3-2,15.8,15.8,0,0,0,.1-1.9c-.1-.3-.1-.5-.2-.5l-.3.2-.3.4c-.1.1-.1.2-.2.4a.8.8,0,0,0-.2.4c-.1.1-.1.3-.2.5s-.2.3-.2.4l-.2.5q-1,2.6-1.8,2.7l-.8-.4a1.8,1.8,0,0,1-.5-.7,2.6,2.6,0,0,1,.1-.7,4.5,4.5,0,0,0,.2-.8,1.3,1.3,0,0,0,.1-.6V45a5.8,5.8,0,0,1,0-2,.2.2,0,0,1,.2-.2,1.9,1.9,0,0,1,1,.3c.4.3.6.5.6.7a12.3,12.3,0,0,1-.1,2.6,14.9,14.9,0,0,1,1.3-2.8A2.6,2.6,0,0,1,57.3,42.4Z"/><path d="M61.5,41.9a1.1,1.1,0,0,1,.9.5,1.4,1.4,0,0,1,.5,1,5.2,5.2,0,0,1-.2,1.9l-.6,3.3a.9.9,0,0,1-.6.6.7.7,0,0,1-.6-.2,1.6,1.6,0,0,1-.3-.6,8.8,8.8,0,0,1,.2-1.8c.1-1,.2-1.9.2-2.6a6.3,6.3,0,0,1,.2-1.6C61.2,42.1,61.3,41.9,61.5,41.9Zm-.4-1.7a.9.9,0,0,1,.2-.8.7.7,0,0,1,.6-.4c.2-.1.5.2.8.6s.6.8.6,1.1,0,.4-.2.5l-.4.2c-.3.1-.6-.1-1-.4S61.1,40.4,61.1,40.2Z"/><path d="M67.9,39.1a1.3,1.3,0,0,0-.5.9c-.1.5-.2,1.2-.3,2.2l2.5-.4c.7-.1,1.1.1,1.1.6a3.8,3.8,0,0,1-.1,1,10.1,10.1,0,0,1-.4,1.8c-.2.8-.3,1.6-.5,2.4a.6.6,0,0,1-.2.5c0,.1-.2.1-.4.2l-.6-.2-.3-.7c0-.3.1-.9.2-2s.2-1.8.2-2l-1.7.5c-.2,2.1-.4,3.4-.5,3.9s-.3.8-.6.9-.3-.1-.6-.4-.4-.5-.4-.6a.6.6,0,0,1,0-.6,11.2,11.2,0,0,0,.3-2.7l-.8.2a.9.9,0,0,1-.6-.3.7.7,0,0,1,0-1.2l1.5-.5a12.1,12.1,0,0,1,.7-3.8,2.3,2.3,0,0,1,1.9-1.4,3.5,3.5,0,0,1,1.8.5,1.8,1.8,0,0,1,1.1,1.3,2.2,2.2,0,0,1-.1.9c-.1.3-.2.4-.4.4s-.4,0-.7-.2l-.6-.4C68.5,39.4,68.1,39.1,67.9,39.1Z"/><path d="M71.3,45.8a6,6,0,0,1,.4-2.2A6.7,6.7,0,0,1,73,41.4a3.2,3.2,0,0,1,1.9-1.1,1.5,1.5,0,0,1,1.1.5,1.7,1.7,0,0,1,.6,1.1c.1.2,0,.4-.3.4H75.2c-.2,0-.4.2-.8.6a6.4,6.4,0,0,0-.8,1.4,3.5,3.5,0,0,0-.3,1.2c0,.3.1.5.2.5h.8l1.1-.3.7-.3.5-.2c.2,0,.4.1.4.3s-.3.9-.9,1.4a4.8,4.8,0,0,1-2.1.9,3.2,3.2,0,0,1-1.6-.6A2.1,2.1,0,0,1,71.3,45.8Z"/><path d="M83.8,42.5q.3.2.3.3a2.8,2.8,0,0,1-.1.8c0,.4-.1.7-.1.9v1.1c0,.1,0,.2-.1.2v.3h0c-.1.1-.1.1-.1.2h-.3l-.5-.3a3.5,3.5,0,0,1-.6-.9,3.4,3.4,0,0,1-2,1.6c-.4.1-.8-.1-1.4-.5a1.7,1.7,0,0,1-.8-1.2,4.3,4.3,0,0,1,.4-2,8,8,0,0,1,1.3-2.4,2.7,2.7,0,0,1,1.9-1.3,2.1,2.1,0,0,1,1.5.5,2.7,2.7,0,0,1,.9,1.1A3.9,3.9,0,0,1,83.8,42.5ZM80,45.2a2.8,2.8,0,0,0,1.4-1,2.7,2.7,0,0,0,.9-2c0-.1.1-.2.3-.2s-.3-.8-.4-.8-.8.3-1.2.9a6.5,6.5,0,0,0-.9,1.6,4.5,4.5,0,0,0-.3,1.3c0,.1,0,.1.1.2Z"/><path d="M95.5,46.1l.9-.4c.3,0,.4,0,.6.2s.2.2.2.3,0,.3-.2.4a1.7,1.7,0,0,1-.6.6l-.9.9-.8.6c-.2.2-.3.3-.5.3l-.5-.3c-.2-.3-.4-.5-.4-.8a23.9,23.9,0,0,1,.7-3.2,3.1,3.1,0,0,1-1.2.7,1.9,1.9,0,0,1-1.4-.6,3.3,3.3,0,0,1-.8-1.1,10.4,10.4,0,0,1,.2-1.5,14.2,14.2,0,0,1,.8-1.8,5.2,5.2,0,0,1,1.2-1.7,3.7,3.7,0,0,1,1.5-.8,2,2,0,0,1,1.4.5,2.1,2.1,0,0,1,.8,1.2.4.4,0,0,1-.4.4l-.5-.2a1,1,0,0,0-.6-.2c-.5,0-.9.3-1.3.9a6.2,6.2,0,0,0-1.1,1.7,3,3,0,0,0-.4,1.3h.1c0,.1.1.1.2.1a3.3,3.3,0,0,0,1.4-1,4,4,0,0,0,.9-2.1.3.3,0,0,1,.3-.3l.9.3c.5.2.7.3.7.5a2.3,2.3,0,0,1-.2.9,14.3,14.3,0,0,1-.5,2C95.8,44.8,95.6,45.5,95.5,46.1Z"/><path d="M102.1,37.3c0-.2.2-.3.4-.4a1.5,1.5,0,0,1,.8.5q.6.6.6.9a17.2,17.2,0,0,1-.4,2.2c-.3,1.3-.5,2.3-.6,3.1s-.3.6-.6.6-.3,0-.5-.1a1.6,1.6,0,0,1-.3-.6,7.2,7.2,0,0,1,.1-1.3q-1.2,2.3-2.1,2.4a1.7,1.7,0,0,1-1.1-.5,1.8,1.8,0,0,1-.8-1,9.4,9.4,0,0,1,.4-3.5c.3-1.5.7-2.2,1.2-2.3a1.1,1.1,0,0,1,.7.3,1.2,1.2,0,0,1,.4.8,2.3,2.3,0,0,1-.2.9,10.3,10.3,0,0,0-.7,3.4h.1c.1,0,.4-.3.7-.8a16.3,16.3,0,0,0,1.1-2A27.6,27.6,0,0,0,102.1,37.3Z"/><path d="M109.7,39.9a3.6,3.6,0,0,1-1.8.8h-1.6a1.7,1.7,0,0,0-.1.7.8.8,0,0,0,.2.6c.1.1.3.1.7,0a4.7,4.7,0,0,0,1.7-.4l.8-.3a.6.6,0,0,1,.6.3,1.4,1.4,0,0,1-.8,1.2,4.3,4.3,0,0,1-2,.7,2.8,2.8,0,0,1-2-.5,2.6,2.6,0,0,1-.9-1.6,4.4,4.4,0,0,1,.3-2.2,5.8,5.8,0,0,1,1.3-2,2.8,2.8,0,0,1,1.7-1,1.8,1.8,0,0,1,1.7.7,2.6,2.6,0,0,1,1,1.6A1.5,1.5,0,0,1,109.7,39.9Zm-1.2-1.7-.6-.2c-.2,0-.4.2-.6.5a4.3,4.3,0,0,0-.7,1h.4q1.9-.3,1.8-.9C108.8,38.5,108.7,38.4,108.5,38.2Z"/><path d="M118.5,31.7a1.9,1.9,0,0,1,.7,1.1v4.3c-.4,3.4-.7,5.2-1,5.2a1.6,1.6,0,0,1-.9-.4c-.3-.3-.5-.5-.5-.7s.1-.6.2-1.5.2-2.3.3-3.8a30.5,30.5,0,0,0-.1-4.3c-.1-.3.1-.4.4-.4S118.1,31.3,118.5,31.7Z"/><path d="M126.1,37.3l.3.4a5.4,5.4,0,0,0-.1.8,3.4,3.4,0,0,0-.1.9,4.3,4.3,0,0,1-.1.5v1a.3.3,0,0,0-.1.2c0,.1-.1.1-.1.2h-.3l-.5-.3a4.1,4.1,0,0,1-.5-.9,4.1,4.1,0,0,1-2,1.6,2.2,2.2,0,0,1-1.4-.5,2.2,2.2,0,0,1-.9-1.3,5.8,5.8,0,0,1,.4-1.9,8.5,8.5,0,0,1,1.3-2.5,3.3,3.3,0,0,1,2-1.3,3.4,3.4,0,0,1,1.4.5q.9.6.9,1.2A2.1,2.1,0,0,1,126.1,37.3ZM122.3,40c.4,0,.8-.3,1.4-.9a4,4,0,0,0,.9-2.1c0-.1.1-.1.2-.2s-.2-.8-.4-.7-.7.3-1.1.8l-1,1.7a2.3,2.3,0,0,0-.2,1.3h.2Z"/><path d="M39.2,62.4c.3-.1.6.1.9.4a1.6,1.6,0,0,1,.5,1,10.9,10.9,0,0,1-.2,2L39.8,69q-.1.6-.6.6h-.6a.9.9,0,0,1-.3-.6,17.7,17.7,0,0,1,.1-1.9c.2-1,.2-1.9.3-2.6s.1-1.2.1-1.5S39,62.4,39.2,62.4Zm-.4-1.8a.7.7,0,0,1,.2-.7c.2-.3.4-.5.6-.5s.5.2.8.7a1.8,1.8,0,0,1,.6,1,.7.7,0,0,1-.2.6l-.4.2a1.6,1.6,0,0,1-1-.4A1.2,1.2,0,0,1,38.8,60.6Z"/><path d="M46.3,61.5a1.6,1.6,0,0,1,1.4.5,2.4,2.4,0,0,1,.7,1.3,7.1,7.1,0,0,1-.1,2.5,5.3,5.3,0,0,1-.6,2.1c-.2.5-.5.8-.8.8s-.5-.2-.6-.6a16.2,16.2,0,0,1,.3-2.1,13.6,13.6,0,0,0,.1-1.8c-.1-.4-.1-.5-.2-.5l-.4.2-.2.3-.2.4c-.1.2-.2.3-.2.5l-.2.4-.2.5c-.1.1-.1.3-.2.5q-1,2.6-1.8,2.7c-.2,0-.4-.2-.8-.5s-.5-.5-.5-.7a1.8,1.8,0,0,1,.1-.6,5.1,5.1,0,0,0,.2-.9.7.7,0,0,0,.1-.5V64.1a5.6,5.6,0,0,1,0-2c0-.2.1-.2.2-.2a1,1,0,0,1,1,.3,1,1,0,0,1,.6.7,11.4,11.4,0,0,1-.1,2.5,17.1,17.1,0,0,1,1.3-2.7C45.6,61.9,46,61.5,46.3,61.5Z"/><path d="M52.5,63.5c-.1.4-.2,1-.3,1.7s-.2,1.1-.2,1.2h.2l1.1-.5,1-.4c.2,0,.3.1.4.4a1.9,1.9,0,0,1-.8,1.3,3.7,3.7,0,0,1-1.9.9,2.1,2.1,0,0,1-1.1-.4c-.4-.3-.7-.6-.7-.9a4.4,4.4,0,0,1,.2-1.8,11.2,11.2,0,0,0,.3-1.9l-.8.2c-.1.1-.4,0-.6-.3a1,1,0,0,1-.4-.7c0-.3.7-.6,2.1-1V59.1a.3.3,0,0,1,.3-.5l1,.3a1.7,1.7,0,0,1,.7.8,5.7,5.7,0,0,1-.1,1.2H54c.6-.1,1,0,1.1.3s-.2.4-.6.6l-1.8.7A6.5,6.5,0,0,1,52.5,63.5Z"/><path d="M60.9,63.6a3.7,3.7,0,0,1-1.8.8H57.5a1.1,1.1,0,0,0,0,.8.8.8,0,0,0,.2.5h.6l1.8-.4.7-.3q.6-.1.6.3c.1.4-.2.7-.7,1.1a4.9,4.9,0,0,1-2.1.8,2.5,2.5,0,0,1-1.9-.5,2.1,2.1,0,0,1-.9-1.7,4.4,4.4,0,0,1,.3-2.2,6.7,6.7,0,0,1,1.2-2,3.1,3.1,0,0,1,1.7-1,2.7,2.7,0,0,1,1.8.7,2.6,2.6,0,0,1,.9,1.7C61.8,62.7,61.5,63.2,60.9,63.6Zm-1.2-1.7c-.2-.2-.4-.3-.5-.2s-.4.1-.7.4a5.4,5.4,0,0,0-.6,1.1h.4q1.8-.1,1.8-.9C60.1,62.1,60,62,59.7,61.9Z"/><path d="M63,61.8l-.3-1.5c0-.5.1-.8.4-.9l.6.2a1,1,0,0,1,.5.6l.9-.8,1-.4c.7-.1,1,.1,1.1.4a.6.6,0,0,1-.1.4.3.3,0,0,0-.1.2.1.1,0,0,0-.1.1l-.2.2-.4.3a5.2,5.2,0,0,0-1,1.1,3.4,3.4,0,0,0-.4,1.6,21.7,21.7,0,0,1-.5,2.5c-.2.5-.4.8-.7.8s-.5,0-.7-.3a1.3,1.3,0,0,1-.3-.8,5.4,5.4,0,0,1,.1-1.1,7.9,7.9,0,0,0,.3-1.3A6.2,6.2,0,0,0,63,61.8Z"/><path d="M76.3,57.8c.4,0,.7.2,1,.7a3.4,3.4,0,0,1,.6,1.2,13.6,13.6,0,0,1-.1,1.8,10,10,0,0,1-.4,2.4c-.2.8-.6,1.2-.9,1.2s-.5-.1-.6-.6a19.7,19.7,0,0,1,.1-2.1,8.4,8.4,0,0,0,.2-1.9c-.1-.3-.1-.4-.2-.4s-.4.3-.6.7l-.8,1.9a5.9,5.9,0,0,0-.5,1.4c-.1.2-.1.4-.2.5s-.1.3-.1.4-.7.6-1.2.2-.5-.4-.5-.7a6.7,6.7,0,0,1,.1-1,9.6,9.6,0,0,0,0-2.4c-.1-.3-.1-.5-.2-.5s-.3.1-.4.4l-.5,1.3c-.2.6-.5,1.1-.6,1.5S69.3,66,68.9,66s-.4-.1-.8-.4a1.8,1.8,0,0,1-.5-.7,3.7,3.7,0,0,1,.1-1.4,15,15,0,0,0,.2-2.2,14.2,14.2,0,0,1-.1-1.9c0-.4.1-.6.3-.7a1.4,1.4,0,0,1,1,.4c.4.2.6.4.6.7a11.2,11.2,0,0,1-.2,2.9,11.6,11.6,0,0,1,1.2-3.3c.4-.6.8-1,1.3-1s.6.1,1,.5a1.7,1.7,0,0,1,.6,1.2c.1.4.1.7.2,1a5.8,5.8,0,0,1,1-2.1A2.7,2.7,0,0,1,76.3,57.8Z"/><path d="M84.1,60.8a2.9,2.9,0,0,1-1.8.7H80.7a1.1,1.1,0,0,0,0,.8.8.8,0,0,0,.2.5c0,.1.3.1.6.1l1.8-.4.7-.3q.6-.1.6.3c.1.3-.2.7-.7,1.1a4.9,4.9,0,0,1-2.1.8,2.6,2.6,0,0,1-1.9-.6,2.1,2.1,0,0,1-1-1.6,6,6,0,0,1,.4-2.2,6.7,6.7,0,0,1,1.2-2,3.1,3.1,0,0,1,1.7-1,2.7,2.7,0,0,1,1.8.7,3.3,3.3,0,0,1,.9,1.6C85,59.9,84.7,60.3,84.1,60.8ZM82.9,59l-.5-.2-.7.5-.6,1h.4q1.8-.1,1.8-.9C83.3,59.3,83.2,59.2,82.9,59Z"/><path d="M90.6,52.2c.2-.1.6.1,1,.5a1.4,1.4,0,0,1,.6,1A7.6,7.6,0,0,1,92,56a14.3,14.3,0,0,1-.3,2.4c-.3,3.3-.7,4.9-1,5l-.7-.3a1.3,1.3,0,0,1-.5-.6h0c-.8.8-1.4,1.3-1.8,1.3s-.8-.1-1.3-.5a1.9,1.9,0,0,1-.7-1.1V60.9l.3-1.4.6-1.4a3.6,3.6,0,0,1,.8-1.2,1.8,1.8,0,0,1,2.7.2,27.5,27.5,0,0,0,.2-4.5C90.2,52.3,90.4,52.2,90.6,52.2Zm-3,9.8a4,4,0,0,0,1.2-.8,3.4,3.4,0,0,0,1-1.6,1.1,1.1,0,0,0-.1-.5.9.9,0,0,0-.3-.7l-.5-.3c-.3,0-.5.2-.8.6a3.6,3.6,0,0,0-.4,1.1,10.6,10.6,0,0,0-.3,2,.1.1,0,0,0,.1.1A.1.1,0,0,0,87.6,62Z"/><path d="M94.2,55.7a1.1,1.1,0,0,1,1,.4,3.1,3.1,0,0,1,.5,1,18.8,18.8,0,0,1-.3,2l-.6,3.2a.5.5,0,0,1-.6.6.4.4,0,0,1-.5-.1.9.9,0,0,1-.3-.6,6.9,6.9,0,0,1,.1-1.9c.1-1,.2-1.8.2-2.5a13.2,13.2,0,0,1,.2-1.6C94,55.9,94.1,55.7,94.2,55.7ZM93.8,54a2.4,2.4,0,0,1,.2-.8c.2-.3.4-.5.6-.5s.5.2.9.7a2.3,2.3,0,0,1,.5,1,.7.7,0,0,1-.1.6l-.5.2a1.9,1.9,0,0,1-1-.4C94,54.5,93.8,54.2,93.8,54Z"/><path d="M102.6,57.9l.3.4a3.2,3.2,0,0,1-.1.8,3.4,3.4,0,0,0-.1.9,4.3,4.3,0,0,1-.1.5v1a.3.3,0,0,0-.1.2h-.1a.2.2,0,0,1-.2.2.9.9,0,0,1-.6-.3,4.1,4.1,0,0,1-.5-.9,4.1,4.1,0,0,1-2,1.6,3,3,0,0,1-1.4-.5,2.2,2.2,0,0,1-.9-1.3,5.8,5.8,0,0,1,.4-1.9,6.9,6.9,0,0,1,1.4-2.5,2.9,2.9,0,0,1,1.9-1.3,2.4,2.4,0,0,1,1.4.5q.9.6.9,1.2A2.1,2.1,0,0,1,102.6,57.9Zm-3.8,2.7c.4,0,.8-.3,1.4-.9a4,4,0,0,0,.9-2.1.2.2,0,0,1,.2-.2c-.1-.5-.2-.8-.4-.8a2.7,2.7,0,0,0-1.1.9l-1,1.7a2.3,2.3,0,0,0-.2,1.3h.2Z"/><path d="M104,59.6a4.9,4.9,0,0,1,.3-2.3,7.4,7.4,0,0,1,1.4-2.2,2.8,2.8,0,0,1,1.8-1c.3-.1.7.1,1.1.5a2.3,2.3,0,0,1,.7,1.1c0,.2-.1.3-.3.4h-1.1c-.2,0-.5.2-.8.6a4.2,4.2,0,0,0-.9,1.4,3.5,3.5,0,0,0-.3,1.2.6.6,0,0,0,.2.5,1.1,1.1,0,0,0,.8,0l1.1-.2.8-.3.4-.2c.3,0,.4.1.4.3s-.2.8-.9,1.3a3,3,0,0,1-2.1.9,2.3,2.3,0,0,1-1.6-.5C104.4,60.4,104,60,104,59.6Z"/><path d="M111.7,53.5a1.6,1.6,0,0,1,1,.5,2.4,2.4,0,0,1,.5,1c0,.2-.1.8-.3,2l-.6,3.2a.5.5,0,0,1-.6.6c-.2,0-.4,0-.5-.2a.5.5,0,0,1-.3-.5,6.9,6.9,0,0,1,.1-1.9c.1-1,.2-1.9.2-2.6a13.9,13.9,0,0,1,.2-1.5A1,1,0,0,1,111.7,53.5Zm-.4-1.7a1,1,0,0,1,.2-.7c.2-.3.4-.5.6-.5s.5.2.9.7a2.3,2.3,0,0,1,.5,1,.4.4,0,0,1-.1.5c-.2.2-.3.3-.5.3a1.9,1.9,0,0,1-1-.4A1.2,1.2,0,0,1,111.3,51.8Z"/><path d="M115,54.7a2.7,2.7,0,0,1,1.9-1.8,2.6,2.6,0,0,1,1.9.5,2.8,2.8,0,0,1,.9,1.7,5.5,5.5,0,0,1-.2,2.2,6.7,6.7,0,0,1-1.2,2,2.6,2.6,0,0,1-1.9.9,1.6,1.6,0,0,1-1.4-.5,2.6,2.6,0,0,1-.7-1.6A5.3,5.3,0,0,1,115,54.7Zm2.6,2.6a3.6,3.6,0,0,0,.3-2,2.4,2.4,0,0,0-.4-1.2,4,4,0,0,0-1,1.6,5.9,5.9,0,0,0-.4,2.1,2.9,2.9,0,0,0,.3,1A3.1,3.1,0,0,0,117.6,57.3Zm.1-4.8-.4-.2a.8.8,0,0,1-.2-.5,1.1,1.1,0,0,1,.1-.5l.4-.6.6-.6.3-.4.3-.2.2-.2.3-.2a.9.9,0,0,1,.7.3,1.1,1.1,0,0,1,.3.7.8.8,0,0,1,.1.4l-.2.3-.3.2-.6.4-.5.4-.5.3Z"/><path d="M125.2,51.9a1.8,1.8,0,0,1,1.3.5,1.9,1.9,0,0,1,.7,1.3,7.1,7.1,0,0,1-.1,2.5,5.3,5.3,0,0,1-.6,2.1c-.2.5-.5.8-.8.8s-.5-.1-.5-.6a5.5,5.5,0,0,1,.2-2,6.7,6.7,0,0,0,.1-1.9c0-.3-.1-.5-.2-.5l-.3.2-.3.4-.2.4c-.1.1-.1.3-.2.4a1.7,1.7,0,0,1-.2.5c-.1.1-.1.3-.2.4l-.2.5c-.7,1.7-1.2,2.6-1.7,2.7a1.2,1.2,0,0,1-.8-.4,2.7,2.7,0,0,1-.6-.7,4.1,4.1,0,0,1,.2-.7,4.5,4.5,0,0,1,.2-.8v-.6a1.7,1.7,0,0,0,.1-.7v-.6a3.5,3.5,0,0,1-.1-.6v-2a.2.2,0,0,1,.2-.2,1.3,1.3,0,0,1,1.1.3c.3.3.5.5.5.7a7.9,7.9,0,0,1-.1,2.6,26.1,26.1,0,0,1,1.3-2.8C124.4,52.3,124.8,52,125.2,51.9Z"/><path d="M15.7,81c-.2,0-.4.3-.5.8s-.2,1.3-.3,2.2l2.5-.4c.7-.1,1,.1,1.1.6a3.8,3.8,0,0,1-.1,1c-.1.4-.2,1-.4,1.8s-.3,1.6-.5,2.4a.6.6,0,0,1-.2.5l-.4.2-.6-.2-.3-.7a10.3,10.3,0,0,1,.2-2c.1-1.1.2-1.7.2-2l-1.7.5c-.2,2.1-.4,3.4-.5,3.9s-.3.8-.6.9-.3-.1-.6-.4a2.2,2.2,0,0,1-.5-.6,1.3,1.3,0,0,1,.1-.6,20.2,20.2,0,0,0,.3-2.7l-.8.2-.6-.2a.9.9,0,0,1-.4-.7c-.1-.2.1-.4.4-.6l1.5-.5a9.8,9.8,0,0,1,.7-3.8,2.5,2.5,0,0,1,1.9-1.4,3,3,0,0,1,1.7.5A1.6,1.6,0,0,1,18.4,81a1.4,1.4,0,0,1,0,.9.5.5,0,0,1-.5.4c-.2.1-.4,0-.6-.2l-.6-.4C16.2,81.2,15.9,80.9,15.7,81Z"/><path d="M23.6,82a1.6,1.6,0,0,1,1.4.5,2.4,2.4,0,0,1,.7,1.3,7.1,7.1,0,0,1-.1,2.5,5.3,5.3,0,0,1-.6,2.1,1.3,1.3,0,0,1-.8.8q-.4,0-.6-.6a16.2,16.2,0,0,1,.3-2.1,14.4,14.4,0,0,0,.1-1.8c-.1-.4-.1-.6-.2-.5a.4.4,0,0,0-.4.2l-.2.3c-.1.1-.1.3-.2.4l-.2.4-.2.5-.2.5c-.1.1-.1.3-.2.5-.7,1.7-1.3,2.6-1.8,2.6s-.4-.1-.8-.4-.5-.5-.5-.7a1.8,1.8,0,0,1,.1-.6,5.1,5.1,0,0,0,.2-.9,1.3,1.3,0,0,0,.1-.6V84.6a5.6,5.6,0,0,1,0-2c0-.2.1-.2.1-.3a1.5,1.5,0,0,1,1.1.4,1,1,0,0,1,.6.7,11.4,11.4,0,0,1-.1,2.5,25.1,25.1,0,0,1,1.3-2.8C22.9,82.4,23.3,82,23.6,82Z"/><path d="M32.5,84.2q.3.1.3.3a2.8,2.8,0,0,1-.1.8c0,.4-.1.7-.1.9v1.5c0,.1,0,.2-.1.2v.2h-.3l-.5-.3A2,2,0,0,1,31,87a3.4,3.4,0,0,1-2,1.6,1.7,1.7,0,0,1-1.4-.5,1.7,1.7,0,0,1-.8-1.2,4,4,0,0,1,.3-2,8.9,8.9,0,0,1,1.4-2.5,2.7,2.7,0,0,1,1.9-1.2,2.1,2.1,0,0,1,1.5.5,2.2,2.2,0,0,1,.9,1.1A4.4,4.4,0,0,1,32.5,84.2Zm-3.8,2.7a2.8,2.8,0,0,0,1.4-1,2.7,2.7,0,0,0,.9-2c0-.1.1-.2.2-.3s-.2-.7-.3-.7-.8.3-1.2.9a6.5,6.5,0,0,0-.9,1.6,4.5,4.5,0,0,0-.3,1.3h.1C28.6,86.9,28.6,86.9,28.7,86.9Z"/><path d="M38.4,80.2a1.6,1.6,0,0,1,1.4.5,2.4,2.4,0,0,1,.7,1.3,10.7,10.7,0,0,1-.1,2.5,14.2,14.2,0,0,1-.6,2.1c-.2.5-.5.8-.8.8s-.5-.2-.6-.6.1-1,.2-2.1a7.3,7.3,0,0,0,.2-1.8c-.1-.4-.1-.5-.2-.5l-.4.2c-.1.1-.2.2-.2.3l-.2.4c-.1.2-.2.3-.2.4s-.2.3-.2.5a1.7,1.7,0,0,0-.2.5.8.8,0,0,0-.2.5c-.7,1.7-1.3,2.6-1.8,2.6s-.4-.1-.8-.4-.5-.5-.5-.7a1.8,1.8,0,0,1,.1-.6,5.1,5.1,0,0,0,.2-.9,3.5,3.5,0,0,0,.1-.6V82.8a5.6,5.6,0,0,1,0-2c0-.2.1-.2.1-.2a1.2,1.2,0,0,1,1.1.3,1,1,0,0,1,.6.7,7.9,7.9,0,0,1-.2,2.5l1.4-2.8C37.7,80.6,38.1,80.2,38.4,80.2Z"/><path d="M41.6,84.9a4,4,0,0,1,.4-2.3,7.1,7.1,0,0,1,1.3-2.2,3.2,3.2,0,0,1,1.9-1c.3-.1.6.1,1,.5s.7.7.7,1.1-.1.3-.3.4H45.5c-.2,0-.5.2-.8.6a6.4,6.4,0,0,0-.8,1.4,1.5,1.5,0,0,0-.3,1.2.6.6,0,0,0,.2.5h.8l1.1-.2.7-.3.4-.2a.5.5,0,0,1,.5.3c0,.4-.3.8-1,1.4a3.2,3.2,0,0,1-2,.8,2.5,2.5,0,0,1-1.7-.5A2.7,2.7,0,0,1,41.6,84.9Z"/><path d="M49.4,78.9c.3-.1.6.1.9.4a1.6,1.6,0,0,1,.5,1c0,.2-.1.9-.2,2L50,85.5q-.2.6-.6.6a.7.7,0,0,1-.6-.2.5.5,0,0,1-.3-.5,17.7,17.7,0,0,1,.1-1.9c.2-1,.2-1.9.3-2.6s.1-1.2.1-1.5S49.2,78.9,49.4,78.9Zm-.5-1.8a1.1,1.1,0,0,1,.3-.7c.2-.3.4-.5.6-.5s.5.2.8.7a2.8,2.8,0,0,1,.6,1,.8.8,0,0,1-.2.5.5.5,0,0,1-.4.3,1.6,1.6,0,0,1-1-.4A1.8,1.8,0,0,1,48.9,77.1Z"/><path d="M57.2,81.8a4.6,4.6,0,0,1-1.9.8,8.5,8.5,0,0,1-1.6,0v.8a.8.8,0,0,0,.2.5h.6l1.8-.4.7-.3c.4-.1.6,0,.7.3s-.3.7-.8,1.1a4.4,4.4,0,0,1-2,.8,2.6,2.6,0,0,1-2-.5,2.8,2.8,0,0,1-.9-1.7,4.4,4.4,0,0,1,.3-2.2,5.3,5.3,0,0,1,1.3-2,2.8,2.8,0,0,1,1.6-1,2.7,2.7,0,0,1,1.8.7,2.2,2.2,0,0,1,.9,1.6C58,80.9,57.7,81.3,57.2,81.8ZM56,80.1c-.2-.2-.4-.3-.6-.2a.7.7,0,0,0-.6.4,3.6,3.6,0,0,0-.7,1h.4q1.9-.1,1.8-.9T56,80.1Z"/><path d="M59.2,80,59,78.5c-.1-.5,0-.8.4-.9l.5.2a1,1,0,0,1,.5.6,3.9,3.9,0,0,1,1-.8,1.8,1.8,0,0,1,.9-.4c.7-.1,1.1,0,1.1.4v.3l-.2.2c0,.1,0,.1-.1.2l-.2.2-.4.3a3.1,3.1,0,0,0-.9,1.1,2.5,2.5,0,0,0-.5,1.6,8.9,8.9,0,0,1-.5,2.4c-.1.6-.4.9-.7.9s-.5,0-.7-.3l-.3-.8a2.8,2.8,0,0,1,.2-1.1,8.3,8.3,0,0,0,.2-1.3A6.2,6.2,0,0,0,59.2,80Z"/><path d="M69.5,79.7q.3.1.3.3a2.8,2.8,0,0,1-.1.8c0,.4-.1.7-.1.9v1.1a.3.3,0,0,1-.1.2v.3h0v.2h-.3l-.5-.3-.6-.9a3.4,3.4,0,0,1-2,1.6c-.4.1-.8-.1-1.4-.5a1.7,1.7,0,0,1-.8-1.2,4,4,0,0,1,.3-2,8.9,8.9,0,0,1,1.4-2.5,2.9,2.9,0,0,1,1.9-1.2,2.1,2.1,0,0,1,1.5.5,2.2,2.2,0,0,1,.9,1.1A4.4,4.4,0,0,1,69.5,79.7Zm-3.8,2.7a2.8,2.8,0,0,0,1.4-1,2.7,2.7,0,0,0,.9-2c0-.1.1-.2.3-.2s-.3-.8-.4-.8-.8.3-1.2.9a6.5,6.5,0,0,0-.9,1.6,4.5,4.5,0,0,0-.3,1.3h.1C65.6,82.4,65.6,82.4,65.7,82.4Z"/><path d="M81.4,78.8a3.3,3.3,0,0,1-1.8.8H78a1.7,1.7,0,0,0-.1.7c.1.3.1.5.2.5s.3.2.7.1a6.1,6.1,0,0,0,1.7-.4l.8-.3q.6,0,.6.3a1.4,1.4,0,0,1-.8,1.2,4,4,0,0,1-2,.7,2.8,2.8,0,0,1-2-.5,2.6,2.6,0,0,1-.9-1.7,4.1,4.1,0,0,1,.4-2.1,7.2,7.2,0,0,1,1.2-2.1,3.5,3.5,0,0,1,1.7-.9,1.8,1.8,0,0,1,1.7.7,2.6,2.6,0,0,1,1,1.6C82.3,78,82,78.4,81.4,78.8Zm-1.2-1.7-.6-.2-.6.5a4.4,4.4,0,0,0-.6,1h.3c1.3-.2,1.9-.5,1.9-.9Z"/><path d="M86.9,74.3a1.9,1.9,0,0,1,1.7,1.6c.1.2,0,.3-.2.3H87.2l-.9.4q-.6.3-.6.6c0,.1.2.2.5.4l.8.4,1,.7a3.1,3.1,0,0,1,.5,1,1.9,1.9,0,0,1-.7,1.3,4.6,4.6,0,0,1-1.9.8,3.2,3.2,0,0,1-2-.3,1.8,1.8,0,0,1-1-.9c0-.4.1-.6.4-.6s.3,0,.5,0a2.3,2.3,0,0,0,1.7.2c.7,0,1.1-.2,1-.4s-.1-.3-.4-.5l-1-.6a2.4,2.4,0,0,1-.9-.6,1,1,0,0,1-.5-.8c-.1-.5.3-1.1,1.1-1.7A5.9,5.9,0,0,1,86.9,74.3Z"/><path d="M96.7,69.8a1.9,1.9,0,0,1,.7,1.1v2a17.5,17.5,0,0,1,0,2.3c-.4,3.4-.7,5.2-1,5.2a1.2,1.2,0,0,1-.8-.4c-.4-.3-.6-.5-.6-.7s.1-.6.2-1.5.2-2.3.3-3.8a30.5,30.5,0,0,0-.1-4.3.4.4,0,0,1,.4-.4C96,69.2,96.3,69.4,96.7,69.8Z"/><path d="M104.3,75.5q.3.1.3.3a3.2,3.2,0,0,1-.1.8,3.4,3.4,0,0,0-.1.9V78a.4.4,0,0,0-.1.3v1.1h-.2l-.6-.3a4.1,4.1,0,0,1-.5-.9c-.8,1-1.4,1.5-2,1.6a2.2,2.2,0,0,1-1.4-.5,2.2,2.2,0,0,1-.9-1.3,6.3,6.3,0,0,1,.4-1.9,8.9,8.9,0,0,1,1.4-2.5,2.9,2.9,0,0,1,1.9-1.3,2.4,2.4,0,0,1,1.4.6c.6.3.9.7.9,1.1A2.5,2.5,0,0,1,104.3,75.5Zm-3.8,2.6c.4,0,.8-.3,1.4-.9a4,4,0,0,0,.9-2c0-.2.1-.2.2-.3s-.2-.8-.3-.7a1.7,1.7,0,0,0-1.2.8,7,7,0,0,0-.9,1.7,1.8,1.8,0,0,0-.3,1.3h0A.1.1,0,0,0,100.5,78.1Z"/><path d="M115.8,70.8a1.3,1.3,0,0,1,1.3.6,2.1,2.1,0,0,1,.8,1.2,4.7,4.7,0,0,1-.2,1.6,8.4,8.4,0,0,1-.5,1.7,4.2,4.2,0,0,1-1.1,1.5,2.2,2.2,0,0,1-1.5.8,3.4,3.4,0,0,1-1.9-.6q-.2.9-.3.9a1.2,1.2,0,0,1-.8-.4,1.8,1.8,0,0,1-.6-.8c0-.2.1-.9.2-2a27.8,27.8,0,0,0,.5-7.6.4.4,0,0,1,.4-.4,1.4,1.4,0,0,1,.9.5,1.5,1.5,0,0,1,.7,1,20.4,20.4,0,0,1-.2,4C114.4,71.5,115.2,70.9,115.8,70.8Zm-1.6,5.8c.5-.1,1-.5,1.5-1.4a4.3,4.3,0,0,0,.5-2.4h-.3c-.5,0-1,.4-1.5,1.1a11.7,11.7,0,0,0-1.3,2.5Z"/><path d="M124.6,73c.2.1.3.2.3.4a2.6,2.6,0,0,1-.1.7c0,.4-.1.7-.1.9v.8a.4.4,0,0,1-.1.3v.5a.1.1,0,0,1-.1.1v.2h-.2c-.1.1-.3-.1-.5-.3a2,2,0,0,1-.6-.9,3.4,3.4,0,0,1-2,1.6,1.7,1.7,0,0,1-1.4-.5,1.7,1.7,0,0,1-.8-1.2,4,4,0,0,1,.3-2,8.4,8.4,0,0,1,1.4-2.4c.6-.8,1.2-1.3,1.9-1.3a1.7,1.7,0,0,1,1.4.5,2.4,2.4,0,0,1,1,1.1A3.9,3.9,0,0,1,124.6,73Zm-3.8,2.7a3.3,3.3,0,0,0,1.4-1,2.5,2.5,0,0,0,.9-2,.2.2,0,0,1,.2-.2c-.1-.6-.2-.8-.3-.8s-.8.3-1.2.9a5.6,5.6,0,0,0-.9,1.7,4.1,4.1,0,0,0-.3,1.2v.2Z"/><path d="M129.8,69.1c.4-.1.7.1,1.1.5a2.3,2.3,0,0,1,.7,1.1.3.3,0,0,1-.3.3h-1.1l-1,.3c-.4.2-.6.5-.5.7l.4.4.9.4a2.8,2.8,0,0,1,.9.7,1.4,1.4,0,0,1,.5,1c.1.4-.2.8-.7,1.3a3.7,3.7,0,0,1-1.9.8,3.3,3.3,0,0,1-2-.3c-.6-.3-.9-.6-.9-1a.5.5,0,0,1,.3-.6h.5a3.5,3.5,0,0,0,1.8.2c.7-.1,1-.2,1-.4s-.2-.4-.5-.6l-.9-.5a2.1,2.1,0,0,1-1-.6,1.4,1.4,0,0,1-.5-.8c0-.5.3-1.1,1.2-1.8A4.5,4.5,0,0,1,129.8,69.1Z"/><path d="M137.6,72a3.7,3.7,0,0,1-1.8.8,4.3,4.3,0,0,1-1.6,0,1.1,1.1,0,0,0,0,.8.8.8,0,0,0,.2.5c0,.1.3.1.6.1l1.8-.4.7-.3q.6,0,.6.3c.1.4-.2.7-.8,1.1a4,4,0,0,1-2,.8,2.5,2.5,0,0,1-1.9-.5,2.5,2.5,0,0,1-1-1.7,6,6,0,0,1,.4-2.2,8.2,8.2,0,0,1,1.2-2,2.4,2.4,0,0,1,1.7-.9,2.2,2.2,0,0,1,1.8.6,3.2,3.2,0,0,1,.9,1.7C138.5,71.1,138.2,71.6,137.6,72Zm-1.2-1.7a.6.6,0,0,0-.5-.2c-.2,0-.4.1-.7.4l-.6,1.1h.4q1.8-.1,1.8-.9A.7.7,0,0,0,136.4,70.3Z"/><path d="M149.5,62.7a2.1,2.1,0,0,1,.9.5,2,2,0,0,1,.7,1.1c0,.2-.1.9-.2,2.3a23.6,23.6,0,0,0-.3,2.4c-.4,3.3-.7,4.9-1.1,5l-.7-.3c-.2-.2-.4-.4-.4-.6v-.2c-.8.9-1.5,1.4-1.9,1.4a1.3,1.3,0,0,1-1.2-.5c-.4-.4-.7-.7-.7-1.1a2.4,2.4,0,0,1,0-1.2,3.9,3.9,0,0,1,.3-1.4,5.8,5.8,0,0,1,.5-1.4,3.6,3.6,0,0,1,.8-1.2,3.4,3.4,0,0,1,1.2-.6,1.8,1.8,0,0,1,1.5.8,19.2,19.2,0,0,0,.2-4.5C149.1,62.9,149.2,62.8,149.5,62.7Zm-3,9.8a2,2,0,0,0,1.1-.7,3,3,0,0,0,1-1.7v-.5a2.1,2.1,0,0,0-.4-.6c-.2-.2-.3-.3-.5-.3a1,1,0,0,0-.7.5,4.3,4.3,0,0,0-.5,1.2,5.1,5.1,0,0,0-.2,2h.2Z"/><path d="M157.3,69.6a3.6,3.6,0,0,1-1.9.8h-1.6v.8a.6.6,0,0,0,.2.5.6.6,0,0,0,.6.1l1.8-.4.7-.3q.6,0,.6.3c.1.4-.2.8-.7,1.2a4.8,4.8,0,0,1-2,.7,2.6,2.6,0,0,1-2-.5,2.2,2.2,0,0,1-.9-1.7,4,4,0,0,1,.3-2.1,5.7,5.7,0,0,1,1.3-2.1,2.6,2.6,0,0,1,1.6-.9,2.2,2.2,0,0,1,1.8.6,2.9,2.9,0,0,1,.9,1.7A1.4,1.4,0,0,1,157.3,69.6Zm-1.2-1.7a1,1,0,0,0-.6-.2c-.2,0-.4.2-.6.4a4.1,4.1,0,0,0-.7,1.1h.4c1.2-.2,1.9-.5,1.8-.9A.5.5,0,0,0,156.1,67.9Z"/><path d="M18.6,103.1c-.1.4-.2,1-.3,1.7s-.2,1.1-.2,1.1h.2l1.1-.5,1-.4c.2,0,.3.1.4.4s-.3.7-.8,1.3a3.7,3.7,0,0,1-1.9.9,1.9,1.9,0,0,1-1.1-.4c-.5-.3-.7-.6-.7-.9a4.4,4.4,0,0,1,.2-1.8c.1-1,.3-1.6.3-1.9l-.8.2a.9.9,0,0,1-.6-.3,1.3,1.3,0,0,1-.4-.7c0-.3.7-.6,2.1-1V98.6c-.1-.2,0-.4.3-.4a1.1,1.1,0,0,1,1,.3,1.3,1.3,0,0,1,.7.8,5.7,5.7,0,0,1-.1,1.2l1-.2c.7,0,1.1.1,1.1.4s-.1.4-.5.6l-1.8.7A8.9,8.9,0,0,1,18.6,103.1Z"/><path d="M22.5,101.4c.6-1.1,1.2-1.7,1.9-1.8a2.6,2.6,0,0,1,1.9.5,2.8,2.8,0,0,1,.9,1.7A5.5,5.5,0,0,1,27,104a6.7,6.7,0,0,1-1.2,2,3.1,3.1,0,0,1-1.9.9,1.6,1.6,0,0,1-1.4-.5,2.6,2.6,0,0,1-.7-1.6A5.3,5.3,0,0,1,22.5,101.4Zm2.6,2.6a3.6,3.6,0,0,0,.3-2,2.4,2.4,0,0,0-.4-1.2,4,4,0,0,0-1,1.6,5.9,5.9,0,0,0-.4,2.1,2.9,2.9,0,0,0,.3,1A3.1,3.1,0,0,0,25.1,104Z"/><path d="M33.1,94.6a1.4,1.4,0,0,1,.9.5c.4.4.7.7.7,1.1s-.1.9-.2,2.2-.3,2.2-.3,2.4c-.4,3.3-.7,5-1.1,5s-.4,0-.7-.2a1.3,1.3,0,0,1-.4-.7h0a4.4,4.4,0,0,1-1.9,1.4,1.6,1.6,0,0,1-1.2-.5,2,2,0,0,1-.7-1.1,2.4,2.4,0,0,1,0-1.2,3.5,3.5,0,0,1,.3-1.4,8.8,8.8,0,0,1,.5-1.5,4.4,4.4,0,0,1,.8-1.1,2.3,2.3,0,0,1,1.2-.6,1.7,1.7,0,0,1,1.5.7,18.3,18.3,0,0,0,.2-4.4C32.7,94.8,32.8,94.6,33.1,94.6Zm-3,9.8a3,3,0,0,0,1.1-.7,3.3,3.3,0,0,0,1-1.7v-.5a2.5,2.5,0,0,0-.4-.7c-.2-.2-.3-.3-.5-.2a1,1,0,0,0-.7.5,3.7,3.7,0,0,0-.5,1.1,5.3,5.3,0,0,0-.2,2v.2Z"/><path d="M36.3,99.7c.6-1.1,1.2-1.7,1.9-1.8a2.5,2.5,0,0,1,1.9.5,2.6,2.6,0,0,1,.9,1.8,3.8,3.8,0,0,1-.2,2.1,3.7,3.7,0,0,1-1.2,2,2.7,2.7,0,0,1-1.8,1,1.6,1.6,0,0,1-1.4-.6,2.2,2.2,0,0,1-.8-1.5A6.3,6.3,0,0,1,36.3,99.7Zm2.6,2.6a3.4,3.4,0,0,0,.3-1.9,1.7,1.7,0,0,0-.4-1.2,3.6,3.6,0,0,0-1,1.6,3.8,3.8,0,0,0-.3,2c0,.5.1.9.3,1A3.7,3.7,0,0,0,38.9,102.3Z"/><path d="M52.6,100.1a3.4,3.4,0,0,1-1.9.7H49.1a2.2,2.2,0,0,0,0,.8.8.8,0,0,0,.2.5h.6l1.8-.4.7-.3q.6-.1.6.3c.1.3-.2.7-.7,1.1a3.8,3.8,0,0,1-2.1.7,2.2,2.2,0,0,1-1.9-.5,1.8,1.8,0,0,1-.9-1.6,4.4,4.4,0,0,1,.3-2.2,6.7,6.7,0,0,1,1.2-2,3.1,3.1,0,0,1,1.7-1,2.7,2.7,0,0,1,1.8.7,2.6,2.6,0,0,1,.9,1.6C53.4,99.2,53.1,99.6,52.6,100.1Zm-1.3-1.8-.5-.2a1.3,1.3,0,0,0-.6.5,3.6,3.6,0,0,0-.7,1h.4q1.8-.1,1.8-.9C51.7,98.6,51.6,98.5,51.3,98.3Z"/><path d="M56,92.4a2.5,2.5,0,0,1,.7,1.2v4.3c-.4,3.4-.7,5.2-1,5.2a1.6,1.6,0,0,1-.9-.4,1.5,1.5,0,0,1-.5-.8s.1-.5.2-1.5.2-2.2.3-3.7a30.1,30.1,0,0,0-.1-4.3c-.1-.3.1-.4.4-.5A2.1,2.1,0,0,1,56,92.4Z"/><path d="M63.7,97.2l-.3-1.5c-.1-.6.1-.8.4-.9l.6.2a.9.9,0,0,1,.4.6,3.9,3.9,0,0,1,1-.8,2.6,2.6,0,0,1,1-.4c.6-.1,1,0,1,.4s0,.3,0,.3v.2l-.2.2h-.1l-.5.4a4.8,4.8,0,0,0-.9,1.1,3.4,3.4,0,0,0-.5,1.6,19.4,19.4,0,0,1-.4,2.4c-.2.6-.4.9-.7.9a.6.6,0,0,1-.7-.3,1.3,1.3,0,0,1-.3-.8,2.3,2.3,0,0,1,.1-1.1,8.3,8.3,0,0,0,.2-1.3Z"/><path d="M73.4,97.5a3.6,3.6,0,0,1-1.8.8H70a1.7,1.7,0,0,0-.1.7c.1.3.1.5.2.6h.7a4.3,4.3,0,0,0,1.7-.4l.8-.3q.6,0,.6.3a1.4,1.4,0,0,1-.8,1.2,4,4,0,0,1-2,.7,2.8,2.8,0,0,1-2-.5,2.6,2.6,0,0,1-.9-1.7,3.4,3.4,0,0,1,.4-2.1,5.6,5.6,0,0,1,1.2-2,2.8,2.8,0,0,1,1.7-1,1.8,1.8,0,0,1,1.7.7,2.6,2.6,0,0,1,1,1.6A1.5,1.5,0,0,1,73.4,97.5Zm-1.2-1.7-.6-.2-.6.5a4.4,4.4,0,0,0-.6,1h.3q2-.3,1.8-.9C72.5,96.1,72.4,96,72.2,95.8Z"/><path d="M76.9,89.9a1.5,1.5,0,0,1,.6,1.1,10.4,10.4,0,0,1,.1,2,14.2,14.2,0,0,1-.1,2.3c-.3,3.5-.7,5.2-1,5.3l-.8-.4a1.5,1.5,0,0,1-.5-.8,8.6,8.6,0,0,1,.2-1.5c.1-1,.2-2.2.3-3.7a28.9,28.9,0,0,0-.2-4.3c0-.3.1-.5.4-.5A1.5,1.5,0,0,1,76.9,89.9Z"/><path d="M84.4,95.6c.2.1.3.2.3.4a2.6,2.6,0,0,1-.1.7c0,.4-.1.7-.1.9v1.1a.4.4,0,0,1-.1.3v.4H84c-.1.1-.3,0-.5-.3a3.5,3.5,0,0,1-.6-.9c-.7,1-1.4,1.6-2,1.6s-.8-.1-1.4-.5a1.7,1.7,0,0,1-.8-1.2,4.3,4.3,0,0,1,.4-2,8,8,0,0,1,1.3-2.4,3.1,3.1,0,0,1,1.9-1.3,2.1,2.1,0,0,1,1.5.5,2.7,2.7,0,0,1,.9,1.1A3.9,3.9,0,0,1,84.4,95.6Zm-3.8,2.7a2.8,2.8,0,0,0,1.4-1,2.5,2.5,0,0,0,.9-2c0-.1.1-.2.3-.2s-.3-.8-.4-.8a1.9,1.9,0,0,0-1.2.9,5.6,5.6,0,0,0-.9,1.7,4.1,4.1,0,0,0-.3,1.2c0,.1,0,.1.1.2Z"/><path d="M85.8,97.2a4.7,4.7,0,0,1,.4-2.2,6.1,6.1,0,0,1,1.3-2.2,3.4,3.4,0,0,1,1.9-1.1,2.1,2.1,0,0,1,1.1.5,1.7,1.7,0,0,1,.6,1.1c0,.3-.1.4-.3.4H89.7l-.8.7a5.7,5.7,0,0,0-.8,1.3q-.4.9-.3,1.2a.8.8,0,0,0,.2.6h.8a3.5,3.5,0,0,0,1.1-.3l.7-.3h.5c.2-.1.4,0,.4.2a2.1,2.1,0,0,1-.9,1.4,4.8,4.8,0,0,1-2.1.9,3.4,3.4,0,0,1-2.7-1.9Z"/><path d="M93.6,91.2a1.1,1.1,0,0,1,.9.5,1.4,1.4,0,0,1,.5,1,10.1,10.1,0,0,1-.2,1.9c-.2,1.2-.4,2.2-.6,3.2a.9.9,0,0,1-.6.7l-.6-.2a1.6,1.6,0,0,1-.3-.6,8.8,8.8,0,0,1,.2-1.8c.1-1,.2-1.9.2-2.6a6.3,6.3,0,0,1,.2-1.6C93.3,91.4,93.4,91.2,93.6,91.2Zm-.4-1.7a.9.9,0,0,1,.2-.8.7.7,0,0,1,.6-.4c.2-.1.5.1.8.6s.6.8.6,1.1,0,.4-.2.5l-.4.2c-.3.1-.6-.1-1-.4S93.2,89.7,93.2,89.5Z"/><path d="M96.8,92.4a3.1,3.1,0,0,1,2-1.8,2.3,2.3,0,0,1,1.8.5,2.3,2.3,0,0,1,1,1.7,4.4,4.4,0,0,1-.3,2.2,4.1,4.1,0,0,1-1.2,2,3.1,3.1,0,0,1-1.8.9,1.6,1.6,0,0,1-1.4-.5,2.7,2.7,0,0,1-.8-1.6A5.8,5.8,0,0,1,96.8,92.4ZM99.4,95a3.8,3.8,0,0,0,.3-2,2.5,2.5,0,0,0-.3-1.2,3.4,3.4,0,0,0-1.1,1.6,3.8,3.8,0,0,0,0,3.1A3,3,0,0,0,99.4,95Z"/><path d="M107.1,89.6a1.4,1.4,0,0,1,1.3.5,1.7,1.7,0,0,1,.7,1.3,10.4,10.4,0,0,1,0,2.5,14.2,14.2,0,0,1-.6,2.1,1.6,1.6,0,0,1-.9.8c-.3,0-.5-.2-.5-.6a6,6,0,0,1,.2-2.1,6.1,6.1,0,0,0,.1-1.8c0-.4-.1-.6-.2-.5s-.2,0-.3.2l-.3.3a.8.8,0,0,1-.2.4.5.5,0,0,1-.2.4c0,.2-.1.3-.2.5s-.1.4-.2.5a1.7,1.7,0,0,1-.2.5c-.6,1.7-1.2,2.6-1.7,2.6s-.5-.1-.8-.4-.5-.5-.5-.7,0-.3.1-.7.1-.6.2-.8a1.3,1.3,0,0,1,.1-.6V92.2c-.1-1.2-.1-1.9-.1-2s.1-.3.2-.3a1.7,1.7,0,0,1,1.1.4,1.9,1.9,0,0,1,.6.7,12.9,12.9,0,0,1-.2,2.5l1.3-2.8C106.4,90,106.7,89.6,107.1,89.6Z"/><path d="M116,91.8l.3.3c0,.2-.1.4-.1.8a3.4,3.4,0,0,0-.1.9,4.3,4.3,0,0,1-.1.5v.8c0,.1,0,.2-.1.2v.2c0,.1-.1.1-.1.2h-.3l-.5-.3a2.6,2.6,0,0,1-.5-.9,3.9,3.9,0,0,1-2.1,1.6,2.1,2.1,0,0,1-1.3-.5,2.4,2.4,0,0,1-.9-1.2,6.3,6.3,0,0,1,.4-2,8.5,8.5,0,0,1,1.3-2.5,3.8,3.8,0,0,1,2-1.3,2.7,2.7,0,0,1,1.4.6c.6.4.9.7.9,1.1A2.5,2.5,0,0,1,116,91.8Zm-3.8,2.7a3.3,3.3,0,0,0,1.4-1,4,4,0,0,0,.9-2c0-.2,0-.2.2-.3s-.2-.7-.4-.7-.7.3-1.1.9a14,14,0,0,0-1,1.6,2.3,2.3,0,0,0-.2,1.3h.2Z"/><path d="M126.1,87.3c.4-.1.7.1,1,.6a2.1,2.1,0,0,1,.5,1.2,5.3,5.3,0,0,1,0,1.8,20,20,0,0,1-.4,2.4c-.3.8-.6,1.2-1,1.2s-.5-.1-.5-.5a8,8,0,0,1,.1-2.1,6.9,6.9,0,0,0,.1-1.9c0-.3-.1-.5-.2-.5a1.4,1.4,0,0,0-.6.8c-.2.4-.4,1-.7,1.8l-.6,1.4c0,.3-.1.4-.1.6s-.1.2-.2.4-.6.5-1.2.1a.7.7,0,0,1-.4-.6,7.5,7.5,0,0,1,.1-1.1,20.9,20.9,0,0,0-.1-2.4c0-.3-.1-.5-.2-.5s-.2.2-.3.4l-.6,1.3a11.6,11.6,0,0,1-.6,1.5c-.6,1.5-1.1,2.2-1.5,2.2s-.5-.1-.8-.4-.6-.5-.6-.7.1-.6.2-1.4a15.5,15.5,0,0,0,.1-2.2V88.8c0-.4,0-.6.2-.6a1.2,1.2,0,0,1,1.1.3,1.9,1.9,0,0,1,.6.7,12.6,12.6,0,0,1-.3,2.9,14.7,14.7,0,0,1,1.3-3.3c.4-.6.8-1,1.2-1a1.4,1.4,0,0,1,1,.5,1.9,1.9,0,0,1,.7,1.2c0,.4.1.7.1,1a7.1,7.1,0,0,1,1.1-2.1C125.1,87.7,125.6,87.3,126.1,87.3Z"/><path d="M129.7,86.8a1.1,1.1,0,0,1,.9.5,1.6,1.6,0,0,1,.5,1,5.2,5.2,0,0,1-.2,1.9l-.6,3.3q0,.4-.6.6a.7.7,0,0,1-.6-.2l-.3-.6c0-.2.1-.8.2-1.8s.2-1.9.2-2.6.1-1.2.2-1.6S129.6,86.8,129.7,86.8Zm-.4-1.7a1.3,1.3,0,0,1,.2-.8.7.7,0,0,1,.6-.4c.2-.1.5.2.8.6s.6.8.6,1.1,0,.4-.2.5-.2.2-.4.2-.6-.1-1-.4S129.3,85.3,129.3,85.1Z"/><path d="M137.5,89.7a3.6,3.6,0,0,1-1.8.8h-1.6a1.7,1.7,0,0,0-.1.7c.1.3.1.5.2.6h.7a4.3,4.3,0,0,0,1.7-.4l.8-.3c.4,0,.6.1.6.4s-.2.7-.8,1.1a4,4,0,0,1-2,.7,2.4,2.4,0,0,1-2-.5,2.6,2.6,0,0,1-.9-1.6,4.4,4.4,0,0,1,.3-2.2,7.7,7.7,0,0,1,1.3-2,2.8,2.8,0,0,1,1.7-1,2,2,0,0,1,1.7.7,2.6,2.6,0,0,1,1,1.6A1.5,1.5,0,0,1,137.5,89.7ZM136.3,88l-.6-.2a1.2,1.2,0,0,0-.6.5,4.4,4.4,0,0,0-.6,1h.3q1.9-.3,1.8-.9C136.6,88.3,136.5,88.2,136.3,88Z"/><path d="M143.6,85.1a1.9,1.9,0,0,1,1.4.5,2.4,2.4,0,0,1,.7,1.3,7,7,0,0,1-.1,2.5,5.3,5.3,0,0,1-.6,2.1c-.2.5-.5.8-.8.8s-.5-.1-.5-.6a5.5,5.5,0,0,1,.2-2,15.8,15.8,0,0,0,.1-1.9c0-.3-.1-.5-.2-.5l-.3.2-.3.4-.2.4-.2.4c-.1.1-.1.3-.2.5l-.2.4-.2.5c-.7,1.7-1.3,2.6-1.7,2.7a1.2,1.2,0,0,1-.8-.4,1.5,1.5,0,0,1-.6-.7,2.6,2.6,0,0,1,.1-.7,4.5,4.5,0,0,0,.2-.8,1.3,1.3,0,0,0,.1-.6V87.7a11.5,11.5,0,0,1,0-2,.2.2,0,0,1,.2-.2,1.9,1.9,0,0,1,1,.3c.4.3.6.5.6.8a11.5,11.5,0,0,1-.1,2.5,18.7,18.7,0,0,1,1.3-2.8A2.6,2.6,0,0,1,143.6,85.1Z"/><path d="M149.8,87.1q-.2.8-.3,1.8c-.1.7-.2,1-.2,1.1h.3a2.7,2.7,0,0,0,1-.4l1-.5a.5.5,0,0,1,.4.5c0,.3-.2.7-.8,1.2a3.7,3.7,0,0,1-1.9.9l-1.1-.3c-.4-.3-.7-.6-.7-1a8.8,8.8,0,0,1,.2-1.8,9.9,9.9,0,0,0,.3-1.9l-.8.3-.6-.3-.4-.7c0-.3.7-.7,2.1-1a8.8,8.8,0,0,0,0-2.3c-.1-.3.1-.4.3-.5l1,.3c.4.3.7.6.7.8v1.2h1c.7-.1,1,0,1.1.3s-.2.4-.6.6a8.4,8.4,0,0,1-1.8.7A5.2,5.2,0,0,1,149.8,87.1Z"/><path d="M153.7,85.5c.6-1.2,1.2-1.8,1.9-1.8a2.2,2.2,0,0,1,1.9.5,2.2,2.2,0,0,1,.9,1.7,5.7,5.7,0,0,1-.2,2.2,4.7,4.7,0,0,1-1.2,2,3.1,3.1,0,0,1-1.8.9,1.6,1.6,0,0,1-1.4-.5,2.5,2.5,0,0,1-.8-1.6A5.8,5.8,0,0,1,153.7,85.5Zm2.6,2.6a3.8,3.8,0,0,0,.3-2,2.4,2.4,0,0,0-.4-1.2,3.4,3.4,0,0,0-1,1.6,3.9,3.9,0,0,0-.3,2,1.4,1.4,0,0,0,.3,1.1A3.7,3.7,0,0,0,156.3,88.1Z"/><path d="M20.8,113.8l1,.5a1.5,1.5,0,0,1,.6,1.1,7,7,0,0,1-.2,2.2,14.4,14.4,0,0,1-.3,2.5c-.3,3.2-.7,4.9-1,4.9s-.4,0-.7-.2a1.2,1.2,0,0,1-.5-.7h0c-.8.9-1.4,1.4-1.8,1.4s-.8-.1-1.3-.5a2.3,2.3,0,0,1-.7-1.1v-1.2l.3-1.4a9.4,9.4,0,0,1,.6-1.5,2.8,2.8,0,0,1,.8-1.1,2.4,2.4,0,0,1,1.1-.6,1.9,1.9,0,0,1,1.6.8,27.5,27.5,0,0,0,.2-4.5C20.4,114,20.5,113.9,20.8,113.8Zm-3,9.8c.3,0,.6-.3,1.1-.7a3.9,3.9,0,0,0,1.1-1.7,2,2,0,0,1-.1-.5.9.9,0,0,0-.3-.6l-.5-.3c-.3,0-.5.2-.8.5a3.4,3.4,0,0,0-.4,1.2,9.6,9.6,0,0,0-.3,2h.2Z"/><path d="M28.6,120.7a4.8,4.8,0,0,1-1.8.8H25.2a2.5,2.5,0,0,0-.1.8c.1.3.1.4.2.5H26l1.7-.4.8-.3q.6,0,.6.3a1.2,1.2,0,0,1-.8,1.1,4,4,0,0,1-2,.8,2.8,2.8,0,0,1-2-.5,2.8,2.8,0,0,1-.9-1.7,4.4,4.4,0,0,1,.3-2.2,13.7,13.7,0,0,1,1.3-2,2.6,2.6,0,0,1,1.7-.9,1.9,1.9,0,0,1,1.7.6,3.1,3.1,0,0,1,1,1.7A1.6,1.6,0,0,1,28.6,120.7ZM27.4,119a.7.7,0,0,0-.6-.2l-.6.4-.6,1.1h.3q2-.2,1.8-.9A.7.7,0,0,0,27.4,119Z"/><path d="M37.4,112.4a2.8,2.8,0,0,1,.7,1.1v4.4c-.4,3.4-.7,5.1-1,5.2a1.2,1.2,0,0,1-.8-.4c-.4-.3-.6-.6-.6-.8s.1-.5.2-1.5.2-2.2.3-3.7a30.1,30.1,0,0,0-.1-4.3c-.1-.3.1-.4.4-.5A2.1,2.1,0,0,1,37.4,112.4Z"/><path d="M45,118.1a.5.5,0,0,1,.3.4,3.2,3.2,0,0,1-.1.8,3.4,3.4,0,0,0-.1.9.9.9,0,0,1-.1.5v1c-.1.1-.1.1-.1.2h-.1a.2.2,0,0,1-.2.2c-.2,0-.3-.1-.6-.4a1.9,1.9,0,0,1-.5-.9c-.8,1-1.4,1.6-2,1.6a1.7,1.7,0,0,1-1.4-.5,2,2,0,0,1-.9-1.2,5.8,5.8,0,0,1,.4-1.9,8.9,8.9,0,0,1,1.4-2.5,2.9,2.9,0,0,1,1.9-1.3,1.7,1.7,0,0,1,1.4.5q.9.6.9,1.2A2.2,2.2,0,0,1,45,118.1Zm-3.8,2.7c.4,0,.8-.4,1.4-.9a4,4,0,0,0,.9-2.1l.2-.2c-.1-.5-.2-.8-.4-.8a2.7,2.7,0,0,0-1.1.9,5.6,5.6,0,0,0-.9,1.7q-.4.9-.3,1.2v.2Z"/><path d="M51.7,119.1a4.5,4.5,0,0,1,.4-2.2,5.4,5.4,0,0,1,1.3-2.2,2.9,2.9,0,0,1,1.9-1.1,1.5,1.5,0,0,1,1.1.5,1.7,1.7,0,0,1,.6,1.1c0,.2-.1.4-.3.4H55.6c-.2,0-.4.2-.8.6a6.4,6.4,0,0,0-.8,1.4,1.5,1.5,0,0,0-.3,1.2c0,.3.1.5.2.5h.8l1.1-.3.7-.3.5-.2c.2,0,.4.1.4.3a2.1,2.1,0,0,1-.9,1.4,4.8,4.8,0,0,1-2.1.9,2.9,2.9,0,0,1-1.6-.6A2.1,2.1,0,0,1,51.7,119.1Z"/><path d="M59.1,114.7c.6-1.1,1.2-1.7,1.9-1.8a2.4,2.4,0,0,1,1.9.5,2.3,2.3,0,0,1,1,1.7,5.8,5.8,0,0,1-.3,2.2,4.1,4.1,0,0,1-1.2,2,3.1,3.1,0,0,1-1.8.9,1.6,1.6,0,0,1-1.4-.5,2.7,2.7,0,0,1-.8-1.6A6,6,0,0,1,59.1,114.7Zm2.6,2.6a3.6,3.6,0,0,0,.3-2,1.7,1.7,0,0,0-.4-1.2,4.4,4.4,0,0,0-1,1.6,3.9,3.9,0,0,0-.3,2c0,.6.1,1,.3,1.1A3.7,3.7,0,0,0,61.7,117.3Z"/><path d="M65.4,113.9a3.1,3.1,0,0,1,2-1.8,2.6,2.6,0,0,1,1.9.5,2.8,2.8,0,0,1,.9,1.7,5.5,5.5,0,0,1-.2,2.2,5.6,5.6,0,0,1-1.2,2,3.2,3.2,0,0,1-1.9,1,2,2,0,0,1-1.4-.6,2.2,2.2,0,0,1-.7-1.6A5.2,5.2,0,0,1,65.4,113.9Zm2.6,2.6a5.1,5.1,0,0,0,.4-2,2.4,2.4,0,0,0-.4-1.2,6,6,0,0,0-1.4,3.7,2.9,2.9,0,0,0,.3,1A2.5,2.5,0,0,0,68,116.5Z"/><path d="M75.6,111.1a1.7,1.7,0,0,1,1.2.8,3.8,3.8,0,0,1,.9,1.8,3.3,3.3,0,0,1-.4,1.4,4.4,4.4,0,0,1-1,1.5,6.7,6.7,0,0,1-1.5,1.4,4.1,4.1,0,0,1-1.7.7h-.2c-.3,2.5-.5,3.8-.8,3.8a.7.7,0,0,1-.6-.4,2.5,2.5,0,0,1-.5-.8c0-.2.1-.9.2-2a34.2,34.2,0,0,0,.3-7.5c0-.3.1-.4.3-.4a1,1,0,0,1,.9.2,1.4,1.4,0,0,1,.8.9A3.7,3.7,0,0,1,75.6,111.1Zm-.5,4.4a2.6,2.6,0,0,0,.7-1.8c0-.5-.2-.7-.5-.7a2.2,2.2,0,0,0-1.1.9,3.6,3.6,0,0,0-.5.9,4,4,0,0,0-.4,1.3v.9A3.7,3.7,0,0,0,75.1,115.5Z"/><path d="M83.8,114a4.2,4.2,0,0,1-1.8.8,4.2,4.2,0,0,1-1.6,0,2.2,2.2,0,0,0-.1.8c.1.2.1.4.2.5h.7a6.1,6.1,0,0,0,1.7-.4l.8-.3q.6,0,.6.3c.1.4-.2.7-.8,1.1a4,4,0,0,1-2,.8,2.4,2.4,0,0,1-1.9-.5,2.5,2.5,0,0,1-1-1.7,4.5,4.5,0,0,1,.4-2.2,8.2,8.2,0,0,1,1.2-2,2.4,2.4,0,0,1,1.7-.9,1.9,1.9,0,0,1,1.7.6,2.8,2.8,0,0,1,1,1.7C84.7,113.1,84.4,113.6,83.8,114Zm-1.2-1.7a.7.7,0,0,0-.6-.2l-.6.4a5.4,5.4,0,0,0-.6,1.1h.3c1.3-.1,1.9-.4,1.9-.9Z"/><path d="M85.9,112.3l-.3-1.6c0-.5.1-.8.4-.8a.7.7,0,0,1,.6.1c.2.1.3.3.5.6l.9-.8,1-.4c.7-.1,1,.1,1.1.4s0,.3-.1.4-.1.1-.1.2h-.1c-.1.1-.2.1-.2.2l-.4.3a5.2,5.2,0,0,0-1,1.1,5,5,0,0,0-.5,1.6,11.8,11.8,0,0,1-.4,2.5c-.2.5-.4.8-.7.8s-.5,0-.7-.3a1.1,1.1,0,0,1-.3-.7,2.6,2.6,0,0,1,.1-1.2,6.9,6.9,0,0,0,.2-1.3A4.8,4.8,0,0,0,85.9,112.3Z"/><path d="M96.2,111.9c.2.1.3.2.3.4a2.6,2.6,0,0,1-.1.7,3.4,3.4,0,0,0-.1.9,1.1,1.1,0,0,1-.1.6v1c-.1.1-.1.1-.1.2H96c0,.1-.1.1-.2.2s-.3-.1-.6-.4a1.9,1.9,0,0,1-.5-.9c-.8,1-1.4,1.6-2,1.6a1.7,1.7,0,0,1-1.4-.5,2.4,2.4,0,0,1-.9-1.2,6.3,6.3,0,0,1,.4-2,8.4,8.4,0,0,1,1.4-2.4,2.9,2.9,0,0,1,1.9-1.3,1.7,1.7,0,0,1,1.4.5c.6.4.9.8.9,1.1A2.4,2.4,0,0,1,96.2,111.9Zm-3.8,2.7a3.3,3.3,0,0,0,1.4-1,3.4,3.4,0,0,0,.9-2l.2-.2c-.1-.6-.2-.8-.4-.8a2.1,2.1,0,0,0-1.1.9,5.6,5.6,0,0,0-.9,1.7,1.6,1.6,0,0,0-.3,1.2v.2Z"/><path d="M100.6,110.8c-.1.5-.2,1.1-.4,1.8a8.7,8.7,0,0,0-.1,1.1h.2l1-.4,1-.4c.3-.1.4.1.4.4s-.2.7-.8,1.2a3.4,3.4,0,0,1-1.8.9,1.7,1.7,0,0,1-1.1-.3,1.6,1.6,0,0,1-.8-.9c0-.3.1-.9.2-1.9l.4-1.9-.8.3a.9.9,0,0,1-.6-.3c-.3-.3-.4-.5-.4-.7s.6-.7,2-1a8.8,8.8,0,0,0,0-2.3c0-.3.1-.4.4-.5l1,.4a.9.9,0,0,1,.6.8,4.5,4.5,0,0,1,0,1.2l1-.2c.7-.1,1.1,0,1.1.4s-.2.4-.5.6l-1.8.6C100.7,110,100.7,110.4,100.6,110.8Z"/><path d="M104.8,107.6c.3-.1.6.1.9.4a1.9,1.9,0,0,1,.5,1,5.7,5.7,0,0,1-.2,2l-.6,3.2a.6.6,0,0,1-.6.6.7.7,0,0,1-.6-.1l-.3-.6c0-.2.1-.9.2-1.9s.2-1.8.2-2.5.1-1.3.2-1.6S104.7,107.6,104.8,107.6Zm-.4-1.7a1.2,1.2,0,0,1,.2-.8c.2-.3.4-.5.6-.5s.5.2.8.7a1.8,1.8,0,0,1,.6,1,.7.7,0,0,1-.2.6l-.4.2a1.6,1.6,0,0,1-1-.4C104.6,106.4,104.4,106.1,104.4,105.9Z"/><path d="M111.7,106.7l.7.2c.3.2.4.3.4.5a6.3,6.3,0,0,1-.5,2.4,20.2,20.2,0,0,1-1.2,3.1c-.3.8-.7,1.3-.9,1.3l-.7-.2a1.2,1.2,0,0,1-.5-.5,19.7,19.7,0,0,1-1.2-2.9,12.4,12.4,0,0,1-.8-2.7q-.1-.6.3-.6a1.2,1.2,0,0,1,1,.2,2.8,2.8,0,0,1,1.2,1.6,5,5,0,0,0,.2,1.2,5,5,0,0,0,.3,1.3c.1-.5.3-1.1.5-2a18.9,18.9,0,0,0,.6-2.1A1.4,1.4,0,0,1,111.7,106.7Z"/><path d="M119,109.1a.5.5,0,0,1,.3.4,3.2,3.2,0,0,1-.1.8c0,.4-.1.7-.1.9v1a.4.4,0,0,0-.1.3v.4h0l-.3.2c-.1,0-.3-.1-.5-.4a2.4,2.4,0,0,1-.6-.8,3.9,3.9,0,0,1-2,1.6,2.4,2.4,0,0,1-1.4-.6,1.4,1.4,0,0,1-.8-1.2,3.7,3.7,0,0,1,.3-1.9,8.9,8.9,0,0,1,1.4-2.5,2.9,2.9,0,0,1,1.9-1.3,2.2,2.2,0,0,1,1.4.5,2.1,2.1,0,0,1,1,1.2A3.9,3.9,0,0,1,119,109.1Zm-3.8,2.7a2.1,2.1,0,0,0,1.4-.9,2.9,2.9,0,0,0,.9-2.1.2.2,0,0,1,.2-.2c0-.5-.2-.8-.3-.8a2.4,2.4,0,0,0-1.2.9,5.6,5.6,0,0,0-.9,1.7,4.5,4.5,0,0,0-.3,1.3h.2Z"/><path d="M123.4,112.5a3.5,3.5,0,0,1-.6,2.3c-.5.9-.9,1.3-1.4,1.4s-.4-.1-.4-.3a1,1,0,0,1,.2-.6,2.9,2.9,0,0,0,.6-1.9.5.5,0,0,0-.3-.5l-.5-.3a.5.5,0,0,1-.3-.4,1.3,1.3,0,0,1,.3-.7,1,1,0,0,1,.8-.5,1.1,1.1,0,0,1,1,.4A2.4,2.4,0,0,1,123.4,112.5Z"/><path d="M133.2,104.1a1.8,1.8,0,0,1,1.1.5,2,2,0,0,1,.7,1.1c0,.2-.1.3-.3.4h-1.1l-1,.4c-.4.2-.5.4-.5.6s.1.3.4.4l.9.4.9.7a1.6,1.6,0,0,1,.5,1c.1.4-.2.8-.7,1.3a3,3,0,0,1-1.9.8,3.4,3.4,0,0,1-2-.3c-.6-.2-.9-.6-.9-.9s.1-.6.4-.6h.4a3.5,3.5,0,0,0,1.8.2c.7-.1,1-.2,1-.4s-.2-.4-.5-.6l-.9-.5-1-.6a2.5,2.5,0,0,1-.5-.8q0-.7,1.2-1.8A4.9,4.9,0,0,1,133.2,104.1Z"/><path d="M136.8,103.7a1,1,0,0,1,1,.4,1.8,1.8,0,0,1,.5,1.1c0,.1-.1.8-.3,1.9a30.6,30.6,0,0,1-.5,3.2q-.1.6-.6.6a.7.7,0,0,1-.6-.1.7.7,0,0,1-.3-.6,18.8,18.8,0,0,1,.1-1.9c.1-1,.2-1.8.3-2.5s.1-1.3.1-1.6S136.7,103.7,136.8,103.7Zm-.4-1.7a1.3,1.3,0,0,1,.3-.8,1,1,0,0,1,.6-.5c.2,0,.4.2.8.7l.6,1a1.1,1.1,0,0,1-.2.6l-.4.2a1.6,1.6,0,0,1-1-.4A2.3,2.3,0,0,1,136.4,102Z"/><path d="M144,102.8a2,2,0,0,1,1.4.5,2.4,2.4,0,0,1,.7,1.3,10.7,10.7,0,0,1-.1,2.5,14.2,14.2,0,0,1-.6,2.1c-.2.5-.5.8-.8.8s-.5-.1-.6-.6.1-1,.2-2a8,8,0,0,0,.2-1.9c-.1-.3-.1-.5-.2-.5l-.4.2-.2.4a.5.5,0,0,0-.2.4,5.9,5.9,0,0,0-.4.9l-.3.4c0,.2-.1.3-.1.5q-1,2.5-1.8,2.7c-.2,0-.4-.1-.8-.4a1.8,1.8,0,0,1-.5-.7,2.3,2.3,0,0,1,.1-.7,4.5,4.5,0,0,0,.2-.8c0-.2.1-.4.1-.6v-1.9a5.6,5.6,0,0,1,0-2,.3.3,0,0,1,.1-.2,1.2,1.2,0,0,1,1.1.3,1,1,0,0,1,.6.7,8.5,8.5,0,0,1-.2,2.6,24,24,0,0,1,1.4-2.8C143.3,103.2,143.7,102.9,144,102.8Z"/><path d="M154.4,98.2a1.7,1.7,0,0,1,.6,1.1,10.4,10.4,0,0,1,.1,2,14.2,14.2,0,0,1-.1,2.3c-.3,3.5-.7,5.2-1,5.3l-.8-.4a1.5,1.5,0,0,1-.5-.8,8.6,8.6,0,0,1,.2-1.5c.1-1,.2-2.2.3-3.7a20,20,0,0,0-.2-4.3c0-.3.1-.4.4-.5A1.9,1.9,0,0,1,154.4,98.2Z"/><path d="M161.9,103.9a.5.5,0,0,1,.3.4c.1.1,0,.4,0,.7s-.1.7-.2,1v1.3c-.1,0-.1.1-.1.2v.2h-.1l-.3.2c-.1,0-.3-.1-.5-.4a1.9,1.9,0,0,1-.5-.9c-.8,1-1.5,1.6-2.1,1.6s-.8-.1-1.3-.5a1.7,1.7,0,0,1-.9-1.2,4.6,4.6,0,0,1,.4-2,9.4,9.4,0,0,1,1.3-2.4,3.1,3.1,0,0,1,1.9-1.3,2.1,2.1,0,0,1,1.5.5,1.7,1.7,0,0,1,.6,2.5Zm-3.7,2.7a3.8,3.8,0,0,0,1.3-.9,3.5,3.5,0,0,0,1-2.1c0-.1,0-.2.2-.2s-.2-.8-.4-.8a2.2,2.2,0,0,0-1.1.9,5.9,5.9,0,0,0-1,1.7,4.9,4.9,0,0,0-.3,1.2v.2Z"/><path d="M18.9,140.8a6.4,6.4,0,0,1,.4-2.2,6.1,6.1,0,0,1,1.3-2.2,3.8,3.8,0,0,1,1.9-1.1,1.5,1.5,0,0,1,1.1.5,1.7,1.7,0,0,1,.6,1.1c.1.2,0,.4-.3.4H22.8c-.2,0-.4.3-.8.6a6.4,6.4,0,0,0-.8,1.4,3.5,3.5,0,0,0-.3,1.2c0,.3.1.5.2.5h.8l1.1-.3.7-.3.5-.2c.2,0,.4.1.4.3a2.1,2.1,0,0,1-.9,1.4,4.8,4.8,0,0,1-2.1.9,2.5,2.5,0,0,1-1.6-.6A2.1,2.1,0,0,1,18.9,140.8Z"/><path d="M30,134.7l.4-.4c.3,0,.5.2.9.5a2.1,2.1,0,0,1,.5.9,7.7,7.7,0,0,1-.4,2.2c-.2,1.3-.4,2.3-.6,3.1s-.3.6-.6.6-.3,0-.4-.1a.6.6,0,0,1-.3-.6v-1.3c-.8,1.5-1.5,2.3-2,2.4a1.9,1.9,0,0,1-1.2-.5,1.5,1.5,0,0,1-.7-1,11.5,11.5,0,0,1,.3-3.5c.4-1.5.7-2.2,1.2-2.3a1.3,1.3,0,0,1,.8.3,2,2,0,0,1,.4.8l-.3.9a9.4,9.4,0,0,0-.6,3.4h0c.2,0,.4-.3.7-.8a8.9,8.9,0,0,0,1.1-2A9.2,9.2,0,0,0,30,134.7Z"/><path d="M38.2,136.7l.3.3a2.8,2.8,0,0,1-.1.8,3.4,3.4,0,0,0-.1.9.7.7,0,0,1-.1.5v1.4h-.2l-.6-.3a1.9,1.9,0,0,1-.5-.9c-.8,1-1.4,1.5-2,1.6a1.7,1.7,0,0,1-1.4-.5,2.4,2.4,0,0,1-.9-1.2,6.3,6.3,0,0,1,.4-2,8.9,8.9,0,0,1,1.4-2.5,2.7,2.7,0,0,1,1.9-1.2,1.7,1.7,0,0,1,1.4.5c.6.4.9.7.9,1.1A2.5,2.5,0,0,1,38.2,136.7Zm-3.8,2.7a3.3,3.3,0,0,0,1.4-1,3.7,3.7,0,0,0,.9-2l.2-.3c-.1-.5-.2-.7-.4-.7s-.7.3-1.1.9a6.5,6.5,0,0,0-.9,1.6,1.8,1.8,0,0,0-.3,1.3h.2Z"/><path d="M41.4,129.7a1.9,1.9,0,0,1,.7,1.1v4.3c-.4,3.4-.7,5.2-1,5.2s-.5-.1-.9-.4-.5-.5-.5-.7.1-.6.2-1.5.2-2.2.3-3.8a30.5,30.5,0,0,0-.1-4.3c-.1-.2.1-.4.3-.4S41,129.3,41.4,129.7Z"/><path d="M53.1,131.6a1.6,1.6,0,0,1,1.4.5,2.4,2.4,0,0,1,.7,1.3,7.1,7.1,0,0,1-.1,2.5,5.3,5.3,0,0,1-.6,2.1c-.2.5-.5.8-.8.8s-.5-.2-.6-.6a16.2,16.2,0,0,1,.3-2.1,13.6,13.6,0,0,0,.1-1.8c-.1-.4-.1-.5-.2-.5l-.4.2-.2.3-.2.4-.2.4-.2.5-.2.5c-.1.1-.1.3-.2.5-.7,1.7-1.3,2.6-1.8,2.6s-.4-.1-.8-.4-.5-.5-.5-.7a1.8,1.8,0,0,1,.1-.6,5.1,5.1,0,0,0,.2-.9c.1-.1.1-.3.1-.6v-1.8a5.6,5.6,0,0,1,0-2c0-.2.1-.2.1-.2a1.1,1.1,0,0,1,1.1.3,1,1,0,0,1,.6.7,11.4,11.4,0,0,1-.1,2.5,25.1,25.1,0,0,1,1.3-2.8C52.4,132,52.8,131.6,53.1,131.6Z"/><path d="M56.9,132.7c.6-1.1,1.2-1.7,1.9-1.8a2.4,2.4,0,0,1,1.9.5,2.3,2.3,0,0,1,1,1.7,5.8,5.8,0,0,1-.3,2.2,4.1,4.1,0,0,1-1.2,2,3.1,3.1,0,0,1-1.8.9,1.6,1.6,0,0,1-1.4-.5,2.7,2.7,0,0,1-.8-1.6A6,6,0,0,1,56.9,132.7Zm2.6,2.6a3.6,3.6,0,0,0,.3-2,1.7,1.7,0,0,0-.4-1.2,4.4,4.4,0,0,0-1,1.6,3.9,3.9,0,0,0-.3,2,1.4,1.4,0,0,0,.3,1.1A3.7,3.7,0,0,0,59.5,135.3Z"/><path d="M72.4,129.2c.4,0,.8.3,1.3.8a4.8,4.8,0,0,1,.8,1.8,4.4,4.4,0,0,1-.3,1.4,11.6,11.6,0,0,1-1.1,1.6,6.4,6.4,0,0,1-1.5,1.3,4.1,4.1,0,0,1-1.7.7h-.2c-.3,2.5-.5,3.8-.8,3.8a.7.7,0,0,1-.6-.4,2.5,2.5,0,0,1-.5-.8c0-.2.1-.9.2-2a34.2,34.2,0,0,0,.3-7.5.4.4,0,0,1,.4-.4c.2-.1.5,0,.9.2a1.6,1.6,0,0,1,.7.9A3.7,3.7,0,0,1,72.4,129.2Zm-.5,4.5a3,3,0,0,0,.7-1.9c0-.4-.2-.7-.5-.6s-.7.3-1.1.8a3.6,3.6,0,0,0-.5.9,5,5,0,0,0-.4,1.3v.9A4.1,4.1,0,0,0,71.9,133.7Z"/><path d="M76.1,130.4c.6-1.2,1.2-1.8,1.9-1.9a2.7,2.7,0,0,1,1.9.6,2.6,2.6,0,0,1,.9,1.7,5.7,5.7,0,0,1-.2,2.2,6.2,6.2,0,0,1-1.2,1.9,3,3,0,0,1-1.8,1,1.7,1.7,0,0,1-1.5-.5,2.9,2.9,0,0,1-.7-1.6A5.8,5.8,0,0,1,76.1,130.4Zm2.6,2.5A3.3,3.3,0,0,0,79,131a2.4,2.4,0,0,0-.4-1.2,3.4,3.4,0,0,0-1,1.6,5.8,5.8,0,0,0-.4,2,3.9,3.9,0,0,0,.3,1.1A3,3,0,0,0,78.7,132.9Z"/><path d="M86.7,123.6c.2-.1.5.1.9.5a1.5,1.5,0,0,1,.7,1c0,.2-.1.9-.2,2.3a23.6,23.6,0,0,0-.3,2.4c-.4,3.3-.7,4.9-1.1,5l-.7-.3c-.2-.2-.4-.4-.4-.6h0a3.9,3.9,0,0,1-1.9,1.3,1.3,1.3,0,0,1-1.2-.5c-.4-.4-.7-.7-.7-1.1a2.4,2.4,0,0,1,0-1.2,3.9,3.9,0,0,1,.3-1.4,5.8,5.8,0,0,1,.5-1.4,3.6,3.6,0,0,1,.8-1.2,2.1,2.1,0,0,1,1.2-.5,1.4,1.4,0,0,1,1.5.7,19.2,19.2,0,0,0,.2-4.5C86.3,123.7,86.4,123.6,86.7,123.6Zm-3,9.8a3.9,3.9,0,0,0,1.1-.8,3,3,0,0,0,1-1.7v-.4a1.6,1.6,0,0,0-.4-.7c-.2-.2-.3-.3-.5-.3a1,1,0,0,0-.7.5,6.1,6.1,0,0,0-.5,1.2,5.3,5.3,0,0,0-.2,2h.2Z"/><path d="M89.8,129.5l-.3-1.5c-.1-.6,0-.8.4-.9a.6.6,0,0,1,.5.2,1,1,0,0,1,.5.6,2.5,2.5,0,0,1,1-.8,1.4,1.4,0,0,1,.9-.4c.7-.1,1.1,0,1.1.3v.6l-.2.2h-.1l-.5.4a3.1,3.1,0,0,0-.9,1.1,3.4,3.4,0,0,0-.5,1.6,8.9,8.9,0,0,1-.5,2.4c-.1.6-.4.9-.6.9a1.1,1.1,0,0,1-.8-.3l-.3-.8a8.9,8.9,0,0,1,.2-1.1,8.3,8.3,0,0,0,.2-1.3Z"/><path d="M95.6,126.4a1.1,1.1,0,0,1,.9.5,2.7,2.7,0,0,1,.6,1,18.8,18.8,0,0,1-.3,1.9l-.6,3.3c0,.3-.3.5-.6.6a.7.7,0,0,1-.6-.2.8.8,0,0,1-.2-.5,1.6,1.6,0,0,1,0-.7,5.7,5.7,0,0,1,.1-1.2c0-.5.1-.8.1-1.1a3.8,3.8,0,0,1,.1-1v-.9a2.2,2.2,0,0,0,.1-.8C95.3,126.7,95.4,126.4,95.6,126.4Zm.7-.4-.5-.2-.2-.4a1.3,1.3,0,0,1,.1-.6l.5-.6.5-.6a.5.5,0,0,0,.3-.4l.3-.2.2-.2.4-.2.6.3.4.7v.4l-.2.3-.3.3-.5.3-.6.4-.4.3Z"/><path d="M103.6,128.7a.5.5,0,0,1,.3.4c.1.1,0,.4,0,.8a3.4,3.4,0,0,0-.1.9,1.1,1.1,0,0,0-.1.5v.8a.3.3,0,0,0-.1.2v.2h-.1c0,.1-.1.2-.3.2s-.3-.1-.5-.4a1.9,1.9,0,0,1-.5-.9c-.8,1-1.5,1.6-2.1,1.6s-.8-.1-1.3-.5a1.7,1.7,0,0,1-.9-1.2,5.8,5.8,0,0,1,.4-1.9,8.5,8.5,0,0,1,1.3-2.5,3.1,3.1,0,0,1,2-1.3,2.6,2.6,0,0,1,1.4.5q.9.6.9,1.2A2.4,2.4,0,0,1,103.6,128.7Zm-3.7,2.7c.3,0,.8-.4,1.4-.9a4,4,0,0,0,.9-2.1c0-.1,0-.2.2-.2s-.2-.8-.4-.8a2.7,2.7,0,0,0-1.1.9,9.5,9.5,0,0,0-1,1.7,4.9,4.9,0,0,0-.3,1.2.3.3,0,0,0,.1.2Z"/><path d="M115.6,127.9a3.4,3.4,0,0,1-1.9.7h-1.6a2.2,2.2,0,0,0,0,.8.8.8,0,0,0,.2.5h.6l1.8-.4.7-.3q.6-.2.6.3c.1.3-.2.7-.7,1.1a4.9,4.9,0,0,1-2.1.8,2.2,2.2,0,0,1-1.9-.6,1.8,1.8,0,0,1-.9-1.6,4.4,4.4,0,0,1,.3-2.2,6.7,6.7,0,0,1,1.2-2,3.1,3.1,0,0,1,1.7-1,2.7,2.7,0,0,1,1.8.7,2.6,2.6,0,0,1,.9,1.6C116.4,127,116.1,127.4,115.6,127.9Zm-1.3-1.8-.5-.2-.7.5-.6,1h.4q1.8-.2,1.8-.9Z"/><path d="M122.6,129.9c.1.3,0,.5-.4.6s-1.2-.5-2.1-1.6c-1,1.3-1.6,2-2,2.1a1.1,1.1,0,0,1-.7-.3.7.7,0,0,1-.4-.6c0-.1,0-.2.2-.4a15,15,0,0,0,1.7-2.3l-1.3-2a6.4,6.4,0,0,1-.5-1.1.4.4,0,0,0-.1-.3c.1-.1.1-.2.3-.2a2.5,2.5,0,0,1,1.2.1c.5.1.7.2.7.4l.6,1.4a16.7,16.7,0,0,1,1.2-1.9c.3-.3.6-.6.8-.6a1.3,1.3,0,0,1,.8.3,1.7,1.7,0,0,1,.6.7v.3l-.4.4-.4.5a16.7,16.7,0,0,0-1.3,2l.5.6A6.9,6.9,0,0,1,122.6,129.9Z"/><path d="M124.7,122.9a1.1,1.1,0,0,1,1,.4,2.7,2.7,0,0,1,.5,1.1c0,.1-.1.8-.3,1.9l-.6,3.2a.5.5,0,0,1-.6.6.4.4,0,0,1-.5-.1.7.7,0,0,1-.3-.6,6.9,6.9,0,0,1,.1-1.9c.1-1,.2-1.8.2-2.5s.1-1.3.2-1.6S124.6,122.9,124.7,122.9Zm-.4-1.7a2.4,2.4,0,0,1,.2-.8,1.3,1.3,0,0,1,.6-.5c.2,0,.5.2.9.7a2.9,2.9,0,0,1,.5,1,.6.6,0,0,1-.1.6l-.5.2a1.9,1.9,0,0,1-1-.4C124.5,121.7,124.3,121.4,124.3,121.2Z"/><path d="M131.2,122.1a1.4,1.4,0,0,1,1.1.5,2.3,2.3,0,0,1,.7,1.1.3.3,0,0,1-.3.3h-1.1a2.6,2.6,0,0,0-1,.4c-.4.2-.6.4-.5.6l.4.4.9.4.9.7a1.9,1.9,0,0,1,.5,1,1.9,1.9,0,0,1-.7,1.3,4.1,4.1,0,0,1-1.9.8,3.3,3.3,0,0,1-2-.3q-.9-.4-.9-.9t.3-.6c.2-.1.3,0,.5,0a2.7,2.7,0,0,0,1.8.2c.6,0,1-.2,1-.4l-.5-.5-.9-.6a2.1,2.1,0,0,1-1-.6,1,1,0,0,1-.5-.7q-.1-.7,1.2-1.8A4.9,4.9,0,0,1,131.2,122.1Z"/><path d="M136.9,124.2c-.1.4-.2,1-.4,1.7a8.7,8.7,0,0,0-.1,1.1h.2l1-.5,1-.4c.3-.1.4.1.4.4s-.2.7-.8,1.2a2.4,2.4,0,0,1-1.8.9,1.3,1.3,0,0,1-1.1-.3,1.6,1.6,0,0,1-.8-.9c0-.3.1-.9.2-1.8s.3-1.6.4-1.9l-.8.2a1.3,1.3,0,0,1-1-1c-.1-.3.6-.6,2-1a8.8,8.8,0,0,0,0-2.3c0-.3.1-.4.4-.4s.5,0,1,.3a.9.9,0,0,1,.6.8,4.7,4.7,0,0,1,0,1.2l1-.2c.7-.1,1.1.1,1.1.4s-.2.4-.5.6l-1.8.7A2.7,2.7,0,0,0,136.9,124.2Z"/><path d="M141.1,120.9a1.2,1.2,0,0,1,.9.4,1.8,1.8,0,0,1,.5,1.1,5.3,5.3,0,0,1-.2,1.9c-.2,1.2-.4,2.2-.6,3.2a.7.7,0,0,1-.6.7l-.6-.2-.3-.6c0-.2.1-.8.2-1.9s.2-1.8.2-2.5.1-1.2.2-1.6S140.9,120.9,141.1,120.9Zm-.4-1.7a.8.8,0,0,1,.2-.8,1.3,1.3,0,0,1,.6-.5c.2,0,.5.2.8.7s.6.8.6,1,0,.4-.2.6l-.4.2c-.3.1-.6-.1-1-.4S140.7,119.4,140.7,119.2Z"/><path d="M144.2,122.9l-.3-1.6c0-.5.1-.8.4-.8h.6l.5.6.9-.8,1-.3c.7-.1,1,0,1.1.3s0,.3-.1.4a.3.3,0,0,1-.1.2l-.2.2h-.1l-.4.4a4.7,4.7,0,0,0-1,1,6,6,0,0,0-.5,1.6,10.8,10.8,0,0,1-.4,2.5c-.2.6-.4.9-.7.9a.9.9,0,0,1-.7-.3,1.6,1.6,0,0,1-.3-.8,2.3,2.3,0,0,1,.1-1.1,9.3,9.3,0,0,0,.2-1.4A4.7,4.7,0,0,0,144.2,122.9Z"/><path d="M159.3,122.6a3.4,3.4,0,0,1-1.8.7h-1.7v.8a.8.8,0,0,0,.2.5h.6l1.8-.5.8-.2a.4.4,0,0,1,.6.3c0,.3-.2.7-.8,1.1a4.3,4.3,0,0,1-2,.7,2.3,2.3,0,0,1-2-.5,2.6,2.6,0,0,1-.9-1.6,4.4,4.4,0,0,1,.3-2.2,4.6,4.6,0,0,1,1.3-2,2.8,2.8,0,0,1,1.7-1,2.1,2.1,0,0,1,1.7.7,2.8,2.8,0,0,1,1,1.6A1.7,1.7,0,0,1,159.3,122.6Zm-1.2-1.8-.6-.2a1.3,1.3,0,0,0-.6.5,3.6,3.6,0,0,0-.7,1h.4q2-.3,1.8-.9C158.4,121.1,158.3,121,158.1,120.8Z"/><path d="M162.7,114.9a2,2,0,0,1,.7,1.1c0,.4.1,1.1.1,2a16.3,16.3,0,0,1-.1,2.4c-.4,3.4-.7,5.1-1,5.2a1.2,1.2,0,0,1-.8-.4,1.8,1.8,0,0,1-.6-.8s.1-.5.2-1.5a18.3,18.3,0,0,0,.3-3.7,20.3,20.3,0,0,0-.1-4.3c0-.3.1-.4.4-.5A2.1,2.1,0,0,1,162.7,114.9Z"/><path d="M45.8,150.2a1.4,1.4,0,0,1,1.2.8,2.7,2.7,0,0,1,.8,1.8,1.7,1.7,0,0,1-.3,1.3,5.4,5.4,0,0,1-1,1.6,6.7,6.7,0,0,1-1.5,1.4,4.7,4.7,0,0,1-1.7.7h-.2c-.3,2.5-.5,3.7-.8,3.8s-.4-.1-.7-.4a2,2,0,0,1-.4-.8,10.9,10.9,0,0,1,.2-2,34.5,34.5,0,0,0,.3-7.5c-.1-.3.1-.4.3-.5l.9.3a1.8,1.8,0,0,1,.8.9A3.7,3.7,0,0,1,45.8,150.2Zm-.6,4.4a2.4,2.4,0,0,0,.8-1.8c-.1-.5-.2-.7-.5-.7a1.7,1.7,0,0,0-1.1.8,2.6,2.6,0,0,0-.5.9,5.7,5.7,0,0,0-.4,1.4l-.2.9A3.9,3.9,0,0,0,45.2,154.6Z"/><path d="M49.3,152.2l-.3-1.6c0-.5.1-.8.4-.8a.7.7,0,0,1,.6.1c.2.1.3.3.5.6l.9-.8,1-.4c.7-.1,1,.1,1.1.4s0,.3-.1.4-.1.1-.1.2h-.2v.2l-.4.3a5.2,5.2,0,0,0-1,1.1,5,5,0,0,0-.5,1.6,11.8,11.8,0,0,1-.4,2.5c-.2.5-.4.8-.7.9a.8.8,0,0,1-.7-.4,1.1,1.1,0,0,1-.3-.7,2.6,2.6,0,0,1,.1-1.2,6.9,6.9,0,0,0,.2-1.3A4.8,4.8,0,0,0,49.3,152.2Z"/><path d="M54.5,150.7c.6-1.1,1.2-1.7,1.9-1.8a2.6,2.6,0,0,1,1.9.5,2.8,2.8,0,0,1,.9,1.7,5.5,5.5,0,0,1-.2,2.2,6.7,6.7,0,0,1-1.2,2,2.8,2.8,0,0,1-1.9.9,1.6,1.6,0,0,1-1.4-.5,2.6,2.6,0,0,1-.7-1.6A5.3,5.3,0,0,1,54.5,150.7Zm2.6,2.6a3.6,3.6,0,0,0,.3-2,2.4,2.4,0,0,0-.4-1.2,4,4,0,0,0-1,1.6,5.9,5.9,0,0,0-.4,2.1,2.9,2.9,0,0,0,.3,1A3.1,3.1,0,0,0,57.1,153.3Z"/><path d="M64.8,148.2a.7.7,0,0,1,.5-.4,1.2,1.2,0,0,1,.8.4,1.4,1.4,0,0,1,.5,1,6.2,6.2,0,0,1-.1,1.2,8.9,8.9,0,0,0-.2,1.1,6.4,6.4,0,0,0-.2.9l-.3,1a6.9,6.9,0,0,1-.2,1.3c-.2.6-.3,1.1-.4,1.5a4,4,0,0,1-.8,2.1,2,2,0,0,1-1.5.9,2.7,2.7,0,0,1-1.8-.3c-.6-.3-.9-.6-.9-1s0-.4.2-.7.3-.5.4-.5l.6.3.7.6.7.2.3-.2v-.3c.1-.1.1-.2.1-.4a.8.8,0,0,0,.1-.4,1.1,1.1,0,0,0,.1-.6,1.3,1.3,0,0,0,.1-.6l.3-1.3-.9,1a1,1,0,0,1-.8.5,1.7,1.7,0,0,1-1.1-.5,2.6,2.6,0,0,1-.8-1.3,15.6,15.6,0,0,1,.1-2,8.4,8.4,0,0,1,.6-2.4c.2-.6.5-1,.7-1a1,1,0,0,1,.9.2c.3.3.4.5.4.7a1.7,1.7,0,0,1-.2,1.1,16.7,16.7,0,0,1-.5,1.8,4,4,0,0,0-.1,1.5h.1c.1,0,.3-.3.6-.8a10,10,0,0,0,1.1-2.1A7.9,7.9,0,0,0,64.8,148.2Z"/><path d="M72.6,150.8a3.6,3.6,0,0,1-1.8.8H69.2a1.7,1.7,0,0,0-.1.7c.1.3.1.4.2.5s.3.2.7.1l1.7-.4.8-.3c.3,0,.6.1.6.3a1.4,1.4,0,0,1-.8,1.2,4,4,0,0,1-2,.7,2.8,2.8,0,0,1-2-.5,2.6,2.6,0,0,1-.9-1.7,4,4,0,0,1,.3-2.1,7.4,7.4,0,0,1,1.3-2.1,3.2,3.2,0,0,1,1.7-.9,1.8,1.8,0,0,1,1.7.7,2.6,2.6,0,0,1,1,1.6A1.6,1.6,0,0,1,72.6,150.8Zm-1.2-1.7a.7.7,0,0,0-.6-.2c-.2,0-.4.2-.6.4a3.9,3.9,0,0,0-.6,1.1h.3q1.9-.3,1.8-.9A.5.5,0,0,0,71.4,149.1Z"/><path d="M74.2,151.8a4.7,4.7,0,0,1,.4-2.2,6.1,6.1,0,0,1,1.3-2.2,3.4,3.4,0,0,1,1.9-1.1,2.1,2.1,0,0,1,1.1.5,1.7,1.7,0,0,1,.6,1.1c0,.3,0,.4-.3.4H78.1l-.8.7a5.7,5.7,0,0,0-.8,1.3q-.4.9-.3,1.2a.8.8,0,0,0,.2.6h.8a3.5,3.5,0,0,0,1.1-.3l.7-.3.5-.2c.2,0,.4.1.4.3a2.1,2.1,0,0,1-.9,1.4,4.8,4.8,0,0,1-2.1.9,2,2,0,0,1-1.6-.6A1.9,1.9,0,0,1,74.2,151.8Z"/><path d="M84,148.3q-.1.8-.3,1.8c-.1.7-.2,1-.2,1.1h.2l1.1-.4,1-.5c.2,0,.3.1.4.5s-.2.7-.8,1.2a3.7,3.7,0,0,1-1.9.9,2.1,2.1,0,0,1-1.1-.4,1.1,1.1,0,0,1-.7-.9,4.4,4.4,0,0,1,.2-1.8,11.2,11.2,0,0,0,.3-1.9l-.8.3a.9.9,0,0,1-.6-.4c-.2-.2-.4-.4-.4-.6s.7-.7,2.1-1.1v-2.2a.3.3,0,0,1,.3-.5l1,.3a1.7,1.7,0,0,1,.7.8,5.7,5.7,0,0,1-.1,1.2h1.1c.6-.1,1,0,1.1.3s-.2.4-.6.6l-1.8.7A6.5,6.5,0,0,1,84,148.3Z"/><path d="M87.9,146.7c.6-1.2,1.2-1.8,1.9-1.9a2.7,2.7,0,0,1,1.9.6,2.6,2.6,0,0,1,.9,1.7,5.7,5.7,0,0,1-.2,2.2,6.2,6.2,0,0,1-1.2,1.9,3,3,0,0,1-1.8,1,1.9,1.9,0,0,1-1.4-.5,2.5,2.5,0,0,1-.8-1.6A5.8,5.8,0,0,1,87.9,146.7Zm2.6,2.5a3.3,3.3,0,0,0,.3-1.9,2.4,2.4,0,0,0-.4-1.2,3.4,3.4,0,0,0-1,1.6,5.4,5.4,0,0,0-.4,2,3.9,3.9,0,0,0,.3,1.1A3,3,0,0,0,90.5,149.2Z"/><path d="M103.4,143.2a1.4,1.4,0,0,1,1.2.8,2.9,2.9,0,0,1,.8,1.8,1.7,1.7,0,0,1-.3,1.3,5.4,5.4,0,0,1-1,1.6,6.7,6.7,0,0,1-1.5,1.4,4.7,4.7,0,0,1-1.7.7h-.2c-.3,2.5-.5,3.7-.8,3.8s-.4-.1-.7-.4a2,2,0,0,1-.4-.8,10.9,10.9,0,0,1,.2-2,34.4,34.4,0,0,0,.3-7.5c-.1-.3.1-.4.3-.5l.9.3a1.4,1.4,0,0,1,.8.9A3.7,3.7,0,0,1,103.4,143.2Zm-.6,4.4a2.4,2.4,0,0,0,.8-1.8c-.1-.5-.2-.7-.5-.7a1.7,1.7,0,0,0-1.1.8,4.1,4.1,0,0,0-.5.9,5.7,5.7,0,0,0-.4,1.4l-.2.9A3.9,3.9,0,0,0,102.8,147.6Z"/><path d="M107,144.3a3.1,3.1,0,0,1,2-1.8,2.6,2.6,0,0,1,1.9.5,2.8,2.8,0,0,1,.9,1.7,5.5,5.5,0,0,1-.2,2.2,5.6,5.6,0,0,1-1.2,2,3.2,3.2,0,0,1-1.9,1,2,2,0,0,1-1.4-.6,2.1,2.1,0,0,1-.7-1.5A5.5,5.5,0,0,1,107,144.3Zm2.6,2.6a5.1,5.1,0,0,0,.4-2,2.3,2.3,0,0,0-.4-1.1,2.9,2.9,0,0,0-1,1.6,3.8,3.8,0,0,0-.4,2,2.9,2.9,0,0,0,.3,1A2.5,2.5,0,0,0,109.6,146.9Z"/><path d="M114.6,138.5a2.3,2.3,0,0,1,.7,1.1,17.2,17.2,0,0,0,.1,2c0,1-.1,1.8-.1,2.3-.4,3.5-.7,5.2-1,5.3l-.8-.4c-.4-.3-.6-.6-.6-.8s.1-.5.2-1.5.2-2.2.3-3.7a20.3,20.3,0,0,0-.1-4.3c0-.3.1-.5.4-.5A1.4,1.4,0,0,1,114.6,138.5Z"/><path d="M117.8,141.5c.3-.1.6.1.9.4a1.6,1.6,0,0,1,.5,1c0,.2-.1.9-.2,2l-.6,3.2a.7.7,0,0,1-.7.6h-.5c-.2-.2-.3-.3-.3-.5v-.8c0-.3.1-.6.1-1.1s.1-.9.2-1.2v-.9c0-.4.1-.7.1-1a2.5,2.5,0,0,1,.1-.8C117.4,141.8,117.6,141.5,117.8,141.5Zm.6-.5H118c-.1-.2-.2-.3-.2-.5a.4.4,0,0,1,.1-.5,2.1,2.1,0,0,1,.4-.6l.5-.6.4-.4.2-.3.3-.2h.3c.2-.1.4,0,.7.3a.9.9,0,0,1,.3.6v.5l-.2.3-.3.2-.5.3-.6.4-.4.4A.9.9,0,0,1,118.4,141Z"/><path d="M123.1,143.6c-.1.4-.2,1-.3,1.7a4.5,4.5,0,0,0-.2,1.1h.2l1.1-.5a2.7,2.7,0,0,1,1-.4c.2-.1.3.1.4.4s-.3.7-.8,1.3a2.9,2.9,0,0,1-1.9.8,1.3,1.3,0,0,1-1.1-.3c-.5-.3-.7-.6-.7-.9a4.4,4.4,0,0,1,.2-1.8c.1-1,.3-1.6.3-1.9l-.8.2a.9.9,0,0,1-.6-.3,1.3,1.3,0,0,1-.4-.7c0-.3.6-.6,2.1-1a16.2,16.2,0,0,0-.1-2.3c0-.3.1-.4.4-.4a1.1,1.1,0,0,1,1,.3,1.3,1.3,0,0,1,.7.8,5.7,5.7,0,0,1-.1,1.2l1-.2c.7-.1,1.1.1,1.1.4s-.1.4-.5.6l-1.8.7A8.9,8.9,0,0,1,123.1,143.6Z"/><path d="M127.3,140.3a1.3,1.3,0,0,1,1,.4,2.7,2.7,0,0,1,.5,1.1c0,.1-.1.8-.3,1.9s-.3,2.2-.5,3.2a.8.8,0,0,1-.7.7l-.5-.2a.6.6,0,0,1-.3-.6,6.9,6.9,0,0,1,.1-1.9c.1-1,.2-1.8.2-2.5s.1-1.2.2-1.6S127.2,140.3,127.3,140.3Zm-.4-1.7a2.4,2.4,0,0,1,.2-.8,1.3,1.3,0,0,1,.6-.5c.3,0,.5.2.9.7a2.9,2.9,0,0,1,.5,1,.6.6,0,0,1-.1.6l-.5.2c-.2.1-.6-.1-1-.4S126.9,138.8,126.9,138.6Z"/><path d="M130,145a4.6,4.6,0,0,1,.3-2.2,7.4,7.4,0,0,1,1.4-2.2,2.8,2.8,0,0,1,1.8-1c.4-.1.7.1,1.1.5a2,2,0,0,1,.7,1c0,.3-.1.4-.3.4s-.3,0-.5-.1h-.6c-.2,0-.5.2-.8.6a8.5,8.5,0,0,0-.9,1.4,3.5,3.5,0,0,0-.3,1.2c.1.2.1.4.3.5h.8l1.1-.2.7-.4h.4c.3-.1.4,0,.4.3s-.2.8-.9,1.3a4,4,0,0,1-2,.9,2.5,2.5,0,0,1-1.7-.5C130.4,145.9,130,145.5,130,145Z"/><path d="M137.4,140.6c.6-1.1,1.2-1.7,1.9-1.8a2.3,2.3,0,0,1,1.9.6,2.6,2.6,0,0,1,.9,1.7,5.7,5.7,0,0,1-.2,2.2,6.2,6.2,0,0,1-1.2,1.9,3.2,3.2,0,0,1-1.9,1,2,2,0,0,1-1.4-.5,3.3,3.3,0,0,1-.7-1.6A5.6,5.6,0,0,1,137.4,140.6Zm2.6,2.6a3.3,3.3,0,0,0,.3-1.9,2.4,2.4,0,0,0-.4-1.2,2.9,2.9,0,0,0-1,1.6,5.4,5.4,0,0,0-.4,2,2.3,2.3,0,0,0,.3,1A2.4,2.4,0,0,0,140,143.2Z"/><path d="M145.1,145.7a1.5,1.5,0,0,1-1.1-.5,2.3,2.3,0,0,1-.7-.8,1.6,1.6,0,0,1,.3-.9.7.7,0,0,1,.6-.4q.5-.2.9.6a2.2,2.2,0,0,1,.6,1.2.4.4,0,0,1-.2.4Z"/></g></svg>