<svg xmlns="http://www.w3.org/2000/svg" viewBox="0 0 336.5 105.3"><defs><style>.cls-1{fill:#522e90;}.cls-2{fill:#72be44;}</style></defs><title>img1_tit</title><g id="Layer_13" data-name="Layer 13"><path class="cls-1" d="M12.8,47.2H25.5v7.3H3.3V15.2h9.5Z"/><path class="cls-1" d="M58.6,17.2a18.6,18.6,0,0,1,7.1,7.1,20.3,20.3,0,0,1,2.6,10.4,20.1,20.1,0,0,1-2.6,10.4,17.8,17.8,0,0,1-7.2,7.2,19.9,19.9,0,0,1-10,2.6,20.1,20.1,0,0,1-10-2.6,19.1,19.1,0,0,1-7.2-7.2,21.1,21.1,0,0,1-2.6-10.4,20.7,20.7,0,0,1,2.6-10.3,19.1,19.1,0,0,1,7.2-7.2,19.9,19.9,0,0,1,10-2.6A20.2,20.2,0,0,1,58.6,17.2ZM41.1,26.5a11.8,11.8,0,0,0-2.8,8.2,11.8,11.8,0,0,0,2.8,8.2A9.2,9.2,0,0,0,48.5,46a9.2,9.2,0,0,0,7.4-3.1c1.9-2,2.8-4.7,2.8-8.2s-.9-6.2-2.8-8.2a9.6,9.6,0,0,0-7.4-3.1A9.2,9.2,0,0,0,41.1,26.5Z"/><path class="cls-1" d="M94.3,40.7V54.5H84.8V15.2h15.4c4.6,0,8.2,1.2,10.6,3.5s3.7,5.4,3.7,9.3a13.2,13.2,0,0,1-1.6,6.6,11.3,11.3,0,0,1-4.9,4.5,18,18,0,0,1-7.8,1.6ZM104.8,28q0-5.1-5.7-5.1H94.3V33.1h4.8Q104.8,33.1,104.8,28Z"/><path class="cls-1" d="M147.9,17.2a19.6,19.6,0,0,1,7.2,7.1,21.1,21.1,0,0,1,2.6,10.4A20.4,20.4,0,0,1,155,45.1a19.6,19.6,0,0,1-7.1,7.2,21.5,21.5,0,0,1-20.1,0,18.9,18.9,0,0,1-7.1-7.2A20.4,20.4,0,0,1,118,34.7a21.1,21.1,0,0,1,2.6-10.4,19.6,19.6,0,0,1,7.2-7.1,20.7,20.7,0,0,1,20.1,0Zm-17.5,9.2a12.2,12.2,0,0,0-2.7,8.3,11.9,11.9,0,0,0,2.7,8.2,9.7,9.7,0,0,0,7.4,3.1,9.6,9.6,0,0,0,7.4-3.1c1.9-2,2.8-4.8,2.8-8.2s-.9-6.2-2.7-8.2a9.5,9.5,0,0,0-7.5-3.1A9.6,9.6,0,0,0,130.4,26.4Z"/><path class="cls-1" d="M172.5,47.2h12.7v7.2H163V15.2h9.5Z"/><path class="cls-1" d="M202.3,7.2l-13.4,5.7V6.5L202.3,0Zm-3.2,8V54.4h-9.5V15.2Z"/><path class="cls-1" d="M233.8,15.1v7.6H223.2V54.4h-9.6V22.7H203.1V15.2Z"/><path class="cls-1" d="M247.3,15.1V54.4h-9.5V15.1Z"/><path class="cls-1" d="M284.2,18.7a18.2,18.2,0,0,1,6.4,10.6h-10a9.5,9.5,0,0,0-8.9-5.9,8.3,8.3,0,0,0-6.8,3.1c-1.7,2-2.5,4.7-2.5,8.1s.8,6.2,2.6,8.2a8.3,8.3,0,0,0,6.7,3,9.5,9.5,0,0,0,5.4-1.5,9.8,9.8,0,0,0,3.5-4.3h10a18.3,18.3,0,0,1-6.3,10.7,19.6,19.6,0,0,1-12.5,3.9,19.3,19.3,0,0,1-10-2.5,17,17,0,0,1-6.7-7.1,21.7,21.7,0,0,1-2.4-10.3,21.9,21.9,0,0,1,2.4-10.4,17,17,0,0,1,6.7-7.1,20.9,20.9,0,0,1,22.4,1.4Z"/><path class="cls-1" d="M324.7,17.1a18.2,18.2,0,0,1,7.1,7.2,19.7,19.7,0,0,1,2.6,10.3A20.1,20.1,0,0,1,331.8,45a17.8,17.8,0,0,1-7.2,7.2,19.9,19.9,0,0,1-10,2.6,20.1,20.1,0,0,1-10-2.6,19.1,19.1,0,0,1-7.2-7.2,21.1,21.1,0,0,1-2.6-10.4,20.7,20.7,0,0,1,2.6-10.3,19.1,19.1,0,0,1,7.2-7.2,19.9,19.9,0,0,1,10-2.6A20.2,20.2,0,0,1,324.7,17.1Zm-17.5,9.3a11.8,11.8,0,0,0-2.8,8.2,11.8,11.8,0,0,0,2.8,8.2,10.4,10.4,0,0,0,14.8,0c1.9-2,2.8-4.7,2.8-8.2s-.9-6.2-2.8-8.2a10.4,10.4,0,0,0-14.8,0Z"/><path class="cls-1" d="M34.5,71.2,28.6,82.5v5.7H24.5V82.5L18.6,71.2h4.7l3.3,6.9,3.2-6.9Z"/><path class="cls-1" d="M45,85h5.4v3.2H40.9v-17H45Z"/><path class="cls-1" d="M62.8,85.1H56.5l-1.1,3.1H51.1l6.2-16.9h4.8l6.2,16.9H63.9Zm-1-3.1-2.1-6.3L57.5,82Z"/><path class="cls-2" d="M88.2,87.1v13.4H79V62.3H94c4.5,0,8,1.1,10.3,3.4a12,12,0,0,1,3.6,9.1,12.4,12.4,0,0,1-1.6,6.4,10.4,10.4,0,0,1-4.7,4.3A16.1,16.1,0,0,1,94,87.1ZM98.5,74.8c0-3.3-1.8-5-5.6-5H88.2v9.9h4.7C96.7,79.7,98.5,78.1,98.5,74.8Z"/><path class="cls-2" d="M140.4,64.2a18.1,18.1,0,0,1,7,7,19.9,19.9,0,0,1,2.5,10.1,20.2,20.2,0,0,1-2.5,10.1,19.6,19.6,0,0,1-7,7,19.3,19.3,0,0,1-9.8,2.5,19,19,0,0,1-9.7-2.5,18.1,18.1,0,0,1-7-7,20.2,20.2,0,0,1-2.6-10.1,20,20,0,0,1,2.6-10.1,18.1,18.1,0,0,1,7-7,20.3,20.3,0,0,1,19.5,0Zm-17,9.1c-1.8,1.9-2.7,4.6-2.7,8a11.4,11.4,0,0,0,2.7,8,10.1,10.1,0,0,0,14.4,0,11.4,11.4,0,0,0,2.7-8,11.4,11.4,0,0,0-2.7-8,8.9,8.9,0,0,0-7.2-3A9.2,9.2,0,0,0,123.4,73.3Z"/><path class="cls-2" d="M164.4,93.5h12.3v7H155.1V62.3h9.3Z"/><path class="cls-2" d="M193.4,54.6l-13,5.6V53.9l13-6.3Zm-3.2,7.7v38.2H181V62.3Z"/><path class="cls-2" d="M224.1,62.3v7.4H213.7v30.8h-9.3V69.7H194.1V62.3Z"/><path class="cls-2" d="M237.2,62.3v38.2h-9.3V62.3Z"/><path class="cls-2" d="M273.1,65.8a17.1,17.1,0,0,1,6.2,10.4h-9.8a8.7,8.7,0,0,0-3.3-4.2,9.4,9.4,0,0,0-5.3-1.5,8.3,8.3,0,0,0-6.6,3,12,12,0,0,0-2.5,7.9,12,12,0,0,0,2.5,7.9,8.3,8.3,0,0,0,6.6,3,9.4,9.4,0,0,0,5.3-1.5,8.9,8.9,0,0,0,3.3-4.1h9.8A17.4,17.4,0,0,1,273.1,97a18.5,18.5,0,0,1-12.1,3.9,18.8,18.8,0,0,1-9.8-2.5,16.7,16.7,0,0,1-6.5-6.9,21.8,21.8,0,0,1-2.3-10.1,22.1,22.1,0,0,1,2.3-10.1,16.7,16.7,0,0,1,6.5-6.9,19.8,19.8,0,0,1,9.8-2.5A18.5,18.5,0,0,1,273.1,65.8Z"/><path class="cls-2" d="M308.2,93.6H293.8l-2.3,6.9h-9.8l14-37.9h10.7l14,37.9h-9.8Zm-2.4-7.1-4.8-14-4.8,14Z"/></g></svg>