<svg xmlns="http://www.w3.org/2000/svg" viewBox="0 0 162.4 240.8"><defs><style>.cls-1{fill:#72be44;}.cls-2{fill:#ecf8fe;stroke:#52474c;stroke-miterlimit:10;stroke-width:2.3px;}.cls-3{opacity:0.19;}.cls-4{opacity:0.12;}.cls-5{fill:#fff;}</style></defs><title>act1_idea2_mobile</title><g id="act1_idea2_mobile"><rect class="cls-1" x="4.7" y="185.4" width="94.4" height="27.39"/><path class="cls-2" d="M1.8,116.1c4.9-.3,11-1.7,14-7.1s1.3-13.4.6-17C11.7,69.3,20,43.1,22.8,36.9,35.2,9.5,109.9-3.3,142.9,49.6c25.6,41.1,20.4,112.8-14.6,135-30.8,19.6-81.6-1-102.6-58.6a17.5,17.5,0,0,1-14,0C5.7,123.2,2.7,117.8,1.8,116.1Z"/><path d="M75.7,26.5q.3,0,.9-1.2c.4-.9.9-1.7,1.3-2.5s.8-1.2,1-1.2a.9.9,0,0,1,.8.4,2.1,2.1,0,0,1,.4,1.1,4.4,4.4,0,0,1-.8,1.6c-.5.8-1.1,1.9-1.9,3l-1.7,3.1-.6.8a1.5,1.5,0,0,1-.8.5c-.4,0-.6-.3-.6-1a9.4,9.4,0,0,1,1.1-2.5c.1-.2.2-.3.2-.5a2.1,2.1,0,0,1-1.1-.8,2.5,2.5,0,0,1-.8-1.2,7.7,7.7,0,0,1-.7-2.9,3.3,3.3,0,0,1,.2-1.2.8.8,0,0,1,.8-.4.5.5,0,0,1,.5.4,8.6,8.6,0,0,1,.3,1.3l.3,1.4.6,1.2Q75.6,26.5,75.7,26.5Z"/><path d="M80.8,26.3A2.9,2.9,0,0,1,83,24.7a2.2,2.2,0,0,1,1.8.8,2.4,2.4,0,0,1,.7,1.8,4.7,4.7,0,0,1-.5,2.2,4.9,4.9,0,0,1-1.4,1.8,3.2,3.2,0,0,1-2,.8,1.7,1.7,0,0,1-1.3-.7,2.7,2.7,0,0,1-.6-1.7A5.5,5.5,0,0,1,80.8,26.3Zm2.3,2.9a3.8,3.8,0,0,0,.6-1.9,2.3,2.3,0,0,0-.3-1.3,5.3,5.3,0,0,0-1.8,3.5c0,.6,0,1,.2,1.1A3,3,0,0,0,83.1,29.2Z"/><path d="M45.5,41.4q.6,0,1.2.9a3.5,3.5,0,0,1,.6,1.9,3.4,3.4,0,0,1-.5,1.4A5.3,5.3,0,0,1,45.6,47a6.6,6.6,0,0,1-1.7,1.2,4.9,4.9,0,0,1-1.9.5h-.1c-.6,2.5-1.1,3.7-1.3,3.7s-.4-.1-.6-.5a1.2,1.2,0,0,1-.4-.8c0-.2.2-.9.4-2a36.5,36.5,0,0,0,1.3-7.5c0-.3.1-.5.4-.5a2,2,0,0,1,.8.4,1.7,1.7,0,0,1,.7,1A3.7,3.7,0,0,1,45.5,41.4Zm-1.1,4.4a2.8,2.8,0,0,0,1-1.8c0-.5-.1-.7-.4-.7a1.9,1.9,0,0,0-1.3.7,2.8,2.8,0,0,0-.6.8l-.6,1.3-.2.9A4.5,4.5,0,0,0,44.4,45.8Z"/><path d="M49.1,42.9c.7-1,1.4-1.6,2.2-1.6A2.6,2.6,0,0,1,53.8,44a5.4,5.4,0,0,1-.5,2.1A4.5,4.5,0,0,1,51.9,48a3.2,3.2,0,0,1-2,.7,1.7,1.7,0,0,1-1.4-.7,2.3,2.3,0,0,1-.5-1.7A5.5,5.5,0,0,1,49.1,42.9Zm2.3,3a3.9,3.9,0,0,0,.5-2c0-.6,0-1-.2-1.2a3.2,3.2,0,0,0-1.2,1.5,4.1,4.1,0,0,0-.6,2,2.8,2.8,0,0,0,.1,1.1A3.2,3.2,0,0,0,51.4,45.9Z"/><path d="M55.3,43.8V42.2c0-.6.2-.8.5-.8a.7.7,0,0,1,.6.2.9.9,0,0,1,.4.6,3.9,3.9,0,0,1,1.1-.6l1-.3c.7,0,1,.2,1,.5v.4h-.2c0,.1-.1.1-.2.2a.1.1,0,0,1-.1.1l-.5.3a5.2,5.2,0,0,0-1.1,1,4.8,4.8,0,0,0-.7,1.6c-.3,1.1-.5,1.9-.7,2.4s-.6.8-.9.8a.5.5,0,0,1-.6-.4,1.6,1.6,0,0,1-.3-.8,3.5,3.5,0,0,1,.3-1.2,9.3,9.3,0,0,0,.4-1.3A4.1,4.1,0,0,0,55.3,43.8Z"/><path d="M66.2,42.9c.8-1,1.5-1.6,2.2-1.6a2.3,2.3,0,0,1,1.8.8A2.6,2.6,0,0,1,71,44a5.4,5.4,0,0,1-.5,2.1A4.7,4.7,0,0,1,69,48a2.8,2.8,0,0,1-1.9.7,1.6,1.6,0,0,1-1.4-.7,2.4,2.4,0,0,1-.6-1.7A6.2,6.2,0,0,1,66.2,42.9Zm2.3,3a4.1,4.1,0,0,0,.6-2,2.9,2.9,0,0,0-.2-1.2,3.3,3.3,0,0,0-1.3,1.5,4.1,4.1,0,0,0-.6,2,2.3,2.3,0,0,0,.2,1.1A3,3,0,0,0,68.5,45.9Z"/><path d="M75.1,44.1l-.6,1.8a10.2,10.2,0,0,0-.3,1.1h.2l1.2-.3,1-.3a.5.5,0,0,1,.4.5c0,.3-.4.7-1,1.1a3.1,3.1,0,0,1-2,.7,1.5,1.5,0,0,1-1.1-.5,1.2,1.2,0,0,1-.6-1,6.5,6.5,0,0,1,.4-1.8l.6-1.9-.8.2c-.2,0-.4-.2-.6-.4a1.3,1.3,0,0,1-.3-.8c0-.3.7-.5,2.2-.7a10.2,10.2,0,0,0,.2-2.3.5.5,0,0,1,.5-.5,2.1,2.1,0,0,1,.9.5,1.2,1.2,0,0,1,.6.9,7.4,7.4,0,0,1-.2,1.2h1.1c.7,0,1,.1,1,.4s-.2.4-.6.6l-1.9.5A6.2,6.2,0,0,0,75.1,44.1Z"/><path d="M78.9,43.8V42.2c0-.6.2-.8.5-.8a.7.7,0,0,1,.6.2.9.9,0,0,1,.4.6,3.9,3.9,0,0,1,1.1-.6l1-.3c.7,0,1.1.2,1.1.5s-.1.3-.1.4h-.2c0,.1-.1.1-.2.2a.1.1,0,0,1-.1.1l-.5.3a5.2,5.2,0,0,0-1.1,1,4.8,4.8,0,0,0-.7,1.6,12.1,12.1,0,0,1-.7,2.4c-.3.5-.6.8-.9.8a.5.5,0,0,1-.6-.4,1.3,1.3,0,0,1-.2-.8,3,3,0,0,1,.2-1.2,9.3,9.3,0,0,0,.4-1.3A4.1,4.1,0,0,0,78.9,43.8Z"/><path d="M84.3,42.9c.8-1,1.5-1.6,2.2-1.6a2.6,2.6,0,0,1,1.9.8,2.5,2.5,0,0,1,.7,1.9,5.4,5.4,0,0,1-.5,2.1A4.7,4.7,0,0,1,87.1,48a2.8,2.8,0,0,1-1.9.7,1.6,1.6,0,0,1-1.4-.7,2.4,2.4,0,0,1-.6-1.7A6.2,6.2,0,0,1,84.3,42.9Zm2.4,3a5.3,5.3,0,0,0,.5-2,2.9,2.9,0,0,0-.2-1.2,3.2,3.2,0,0,0-1.2,1.5,4.4,4.4,0,0,0-.7,2,2.3,2.3,0,0,0,.2,1.1A3.7,3.7,0,0,0,86.7,45.9Z"/><path d="M98.2,38a1.7,1.7,0,0,1,.6,1.2c0,.4-.1,1.1-.2,2s-.3,1.8-.4,2.4c-.8,3.4-1.3,5.1-1.6,5.1a1,1,0,0,1-.8-.5,1.5,1.5,0,0,1-.5-.8,9.5,9.5,0,0,0,.4-1.5c.3-1,.5-2.2.8-3.7a23.2,23.2,0,0,0,.4-4.4c0-.3.1-.4.4-.4S97.8,37.6,98.2,38Z"/><path d="M105.2,44.7a.8.8,0,0,1,.2.4,3.2,3.2,0,0,1-.1.8,4.7,4.7,0,0,0-.3.9.9.9,0,0,1-.1.5v.3a.3.3,0,0,1-.1.2v.5c0,.1,0,.1-.1.2a.1.1,0,0,1-.1.1c0,.1-.1.1-.2.1s-.3-.1-.5-.4a2.6,2.6,0,0,1-.5-.9,3.5,3.5,0,0,1-2.2,1.3,1.7,1.7,0,0,1-1.3-.7,1.9,1.9,0,0,1-.8-1.3,3.7,3.7,0,0,1,.7-1.9,7.8,7.8,0,0,1,1.6-2.4,2.9,2.9,0,0,1,2.1-1,2.1,2.1,0,0,1,1.4.7,1.9,1.9,0,0,1,.8,1.2A2.7,2.7,0,0,1,105.2,44.7ZM101,46.9a2.5,2.5,0,0,0,1.5-.7,3,3,0,0,0,1.2-2c0-.1.1-.2.3-.2s-.2-.8-.3-.8a1.9,1.9,0,0,0-1.3.7,5.7,5.7,0,0,0-1.1,1.6,4.2,4.2,0,0,0-.5,1.2v.2Z"/><path d="M112.5,37.4q.3,0,.9.6a1.5,1.5,0,0,1,.5,1.1,10.2,10.2,0,0,1-.5,2.3q-.5,2-.6,2.4c-.7,3.3-1.3,4.9-1.6,4.9a1.1,1.1,0,0,1-.7-.3c-.2-.3-.4-.5-.4-.7h0a4.4,4.4,0,0,1-2,1.1,1.7,1.7,0,0,1-1.2-.6,2.2,2.2,0,0,1-.6-1.2,5,5,0,0,1,.2-1.2,8.3,8.3,0,0,1,.4-1.5l.8-1.3a3.3,3.3,0,0,1,.9-1.1,1.9,1.9,0,0,1,1.2-.4,1.8,1.8,0,0,1,1.5.9,30.4,30.4,0,0,0,.8-4.5C112.1,37.5,112.2,37.4,112.5,37.4Zm-4.2,9.5a3.1,3.1,0,0,0,1.2-.6,3.3,3.3,0,0,0,1.2-1.6v-.5a1.9,1.9,0,0,0-.2-.7l-.5-.3a.9.9,0,0,0-.8.4,2.4,2.4,0,0,0-.6,1.1,5.1,5.1,0,0,0-.5,2v.2Z"/><path d="M115.1,42.9c.8-1,1.5-1.6,2.2-1.6a2.5,2.5,0,0,1,1.8.8,2.6,2.6,0,0,1,.8,1.9,5.4,5.4,0,0,1-.5,2.1,5.8,5.8,0,0,1-1.5,1.9,3.1,3.1,0,0,1-2,.7,1.6,1.6,0,0,1-1.3-.7,2.4,2.4,0,0,1-.6-1.7A6.2,6.2,0,0,1,115.1,42.9Zm2.3,3a4.1,4.1,0,0,0,.6-2,2.9,2.9,0,0,0-.2-1.2,2.8,2.8,0,0,0-1.3,1.5,4.1,4.1,0,0,0-.6,2,2.3,2.3,0,0,0,.2,1.1A3,3,0,0,0,117.4,45.9Z"/><path d="M36.6,63.1a5.2,5.2,0,0,1,.6-2.2,6.2,6.2,0,0,1,1.6-2,3.2,3.2,0,0,1,2-.9c.4,0,.7.2,1.1.7a2.1,2.1,0,0,1,.5,1.1c0,.3-.1.4-.4.4h-.4l-.6-.2a2.1,2.1,0,0,0-.9.5A6.9,6.9,0,0,0,39,61.7a2.4,2.4,0,0,0-.4,1.2c0,.3,0,.5.2.6h1.9l.8-.3h.4c.3,0,.4.1.4.4s-.3.8-1.1,1.2a3.6,3.6,0,0,1-2.2.7,3,3,0,0,1-1.6-.8A1.9,1.9,0,0,1,36.6,63.1Z"/><path d="M44.3,60.4V58.8c0-.5.2-.8.5-.8l.6.2a1.6,1.6,0,0,1,.4.7,4.1,4.1,0,0,1,1.1-.7l1-.3c.7,0,1,.2,1,.5s0,.3-.1.4a.3.3,0,0,1-.1.2h-.2a.3.3,0,0,1-.1.2l-.5.3-1.1.9a4.8,4.8,0,0,0-.7,1.6c-.3,1.1-.5,1.9-.7,2.5s-.6.8-.9.8a.6.6,0,0,1-.6-.5,1.1,1.1,0,0,1-.3-.8,3.6,3.6,0,0,1,.3-1.1,9.3,9.3,0,0,0,.4-1.3A5.3,5.3,0,0,0,44.3,60.4Z"/><path d="M54.1,61.9a3.3,3.3,0,0,1-1.9.6H50.6a1.9,1.9,0,0,0-.2.7.8.8,0,0,0,.2.6h.6a5,5,0,0,0,1.8-.2l.8-.2c.4,0,.6.2.6.4s-.3.7-.9,1.1a4.6,4.6,0,0,1-2.1.5,2.8,2.8,0,0,1-2-.8,2.4,2.4,0,0,1-.7-1.8,4.2,4.2,0,0,1,.6-2.1,5.8,5.8,0,0,1,1.5-1.9,2.9,2.9,0,0,1,1.8-.8,2.1,2.1,0,0,1,1.7.9,2.9,2.9,0,0,1,.8,1.8C55.1,61.2,54.8,61.6,54.1,61.9Zm-1-1.9-.5-.2-.7.3-.8,1h.4c1.3,0,1.9-.2,1.9-.6A.9.9,0,0,0,53.1,60Z"/><path d="M56.7,59.6A2.9,2.9,0,0,1,58.9,58a2.7,2.7,0,0,1,2.6,2.6,4.6,4.6,0,0,1-.6,2.2,4.2,4.2,0,0,1-1.4,1.8,3.2,3.2,0,0,1-2,.8,1.7,1.7,0,0,1-1.3-.7,2.7,2.7,0,0,1-.6-1.7A6.2,6.2,0,0,1,56.7,59.6ZM59,62.5a3.8,3.8,0,0,0,.6-1.9,2.3,2.3,0,0,0-.3-1.3,5.3,5.3,0,0,0-1.8,3.5,2,2,0,0,0,.2,1.1A3,3,0,0,0,59,62.5Z"/><path d="M72.3,66.5l1-.3a.7.7,0,0,1,.6.2c.1.1.1.2.1.4s0,.2-.2.4l-.7.5-1,.7-.9.6-.5.2c-.2,0-.3-.1-.5-.4a1.3,1.3,0,0,1-.3-.8A24.4,24.4,0,0,1,71,64.9a3,3,0,0,1-1.4.5,1.9,1.9,0,0,1-1.2-.7,2.1,2.1,0,0,1-.7-1.3,3.4,3.4,0,0,1,.4-1.5,8.1,8.1,0,0,1,1-1.8,9.6,9.6,0,0,1,1.4-1.5,2.9,2.9,0,0,1,1.6-.6,1.7,1.7,0,0,1,1.4.7,1.9,1.9,0,0,1,.6,1.2c0,.3-.1.4-.4.4l-.5-.3-.6-.2a2.1,2.1,0,0,0-1.4.7,6.1,6.1,0,0,0-1.3,1.6,2.4,2.4,0,0,0-.5,1.3v.2h.2a2.5,2.5,0,0,0,1.5-.9,3.2,3.2,0,0,0,1.2-2,.5.5,0,0,1,.4-.2,1.6,1.6,0,0,1,.9.4c.4.3.5.5.5.6a1.8,1.8,0,0,1-.2.9,20.5,20.5,0,0,1-.8,1.9Z"/><path d="M80.1,58.4c.1-.3.2-.4.4-.4s.5.2.8.6a1.9,1.9,0,0,1,.5,1,13.9,13.9,0,0,1-.7,2.1c-.4,1.3-.7,2.3-1,3.1a.7.7,0,0,1-.7.6l-.4-.2a.8.8,0,0,1-.2-.7,5.7,5.7,0,0,1,.1-1.2c-.9,1.4-1.7,2.1-2.3,2.1a2.2,2.2,0,0,1-1.7-1.8,11.2,11.2,0,0,1,.7-3.5c.6-1.4,1-2.1,1.5-2.1a.8.8,0,0,1,.7.4.9.9,0,0,1,.4.8c0,.1-.2.4-.4,1a9.5,9.5,0,0,0-1.1,3.3.1.1,0,0,0,.1.1l.8-.7a14,14,0,0,0,1.3-2A14.2,14.2,0,0,0,80.1,58.4Z"/><path d="M87.5,61.9a3.9,3.9,0,0,1-2,.6H83.9a1.9,1.9,0,0,0-.2.7.8.8,0,0,0,.2.6h.6a5,5,0,0,0,1.8-.2l.8-.2c.4,0,.6.2.6.4s-.3.7-.9,1.1a4.6,4.6,0,0,1-2.1.5,2.8,2.8,0,0,1-2-.8,2.9,2.9,0,0,1-.7-1.8,4.2,4.2,0,0,1,.6-2.1,5.8,5.8,0,0,1,1.5-1.9A3.4,3.4,0,0,1,86,58a2.1,2.1,0,0,1,1.6.9,2.4,2.4,0,0,1,.8,1.8A1.4,1.4,0,0,1,87.5,61.9Zm-1-1.9-.6-.2-.7.3-.8,1h.4c1.3,0,2-.2,2-.6A.9.9,0,0,0,86.5,60Z"/><path d="M99,58c.4,0,.7.2,1.1.7a1.5,1.5,0,0,1,.5,1.1c0,.3-.1.4-.3.4l-.5-.2h-.6l-1,.2c-.5.2-.7.4-.7.6l.4.4.9.6a6,6,0,0,1,.8.8,1.5,1.5,0,0,1,.4,1.1q0,.6-.9,1.2a3.4,3.4,0,0,1-2,.6,4.2,4.2,0,0,1-2-.5c-.5-.4-.8-.8-.8-1.1s.1-.6.4-.6l.5.2a4.4,4.4,0,0,0,1.8.4c.7,0,1-.1,1-.3s-.1-.4-.4-.7l-.9-.6-.9-.7a1.8,1.8,0,0,1-.4-.9c0-.5.5-1.1,1.4-1.7A5,5,0,0,1,99,58Z"/><path d="M102.2,59.6c.7-1.1,1.4-1.6,2.2-1.6a2.5,2.5,0,0,1,1.8.8,2.4,2.4,0,0,1,.7,1.8,4.4,4.4,0,0,1-.5,2.2,4.2,4.2,0,0,1-1.4,1.8,3.2,3.2,0,0,1-2,.8,2.1,2.1,0,0,1-1.4-.7,3.4,3.4,0,0,1-.5-1.7A5.5,5.5,0,0,1,102.2,59.6Zm2.3,2.9a3.8,3.8,0,0,0,.6-1.9,2.3,2.3,0,0,0-.3-1.3,5.3,5.3,0,0,0-1.8,3.5c0,.6,0,1,.2,1.1A3,3,0,0,0,104.5,62.5Z"/><path d="M112.9,58a1.6,1.6,0,0,1,1.3.7,2,2,0,0,1,.6,1.4,9.8,9.8,0,0,1-1.3,4.6c-.3.4-.6.7-.9.7s-.5-.2-.5-.7a13.3,13.3,0,0,1,.5-2.1,8.2,8.2,0,0,0,.3-1.8c0-.4,0-.6-.1-.6l-.4.2-.3.4c0,.1-.1.2-.2.3l-.3.4-.3.5c-.1.2-.2.3-.2.4l-.3.5c-.9,1.7-1.6,2.5-2.1,2.5s-.4-.2-.7-.5-.5-.6-.5-.8l.2-.7a1.6,1.6,0,0,0,.3-.8c.1-.2.1-.4.2-.6s.1-.4.1-.7a.7.7,0,0,1,.1-.5v-.6c.1-1.3.2-2,.2-2.1l.2-.2a1.8,1.8,0,0,1,1.1.5c.3.3.5.5.5.8a10.8,10.8,0,0,1-.5,2.5,16.8,16.8,0,0,1,1.7-2.6C112.1,58.4,112.6,58,112.9,58Z"/><path d="M126.5,61.9a3.6,3.6,0,0,1-2,.6h-1.6a1.7,1.7,0,0,0-.1.7c0,.3,0,.5.1.6h.7a5,5,0,0,0,1.8-.2l.8-.2c.4,0,.6.2.6.4s-.3.7-1,1.1a4.6,4.6,0,0,1-2.1.5,2.6,2.6,0,0,1-1.9-.8,2.4,2.4,0,0,1-.7-1.8,4.2,4.2,0,0,1,.6-2.1,5.8,5.8,0,0,1,1.5-1.9A2.9,2.9,0,0,1,125,58a2.2,2.2,0,0,1,1.7.9,2.7,2.7,0,0,1,.7,1.8A1.4,1.4,0,0,1,126.5,61.9Zm-1-1.9-.6-.2a1.1,1.1,0,0,0-.6.3,3.9,3.9,0,0,0-.8,1h.3c1.3,0,2-.2,2-.6A.9.9,0,0,0,125.5,60Z"/><path d="M130.9,54.6a2.2,2.2,0,0,1,.6,1.2c0,.4-.1,1.1-.2,2.1a10.7,10.7,0,0,1-.4,2.3c-.8,3.5-1.3,5.2-1.6,5.2a1.5,1.5,0,0,1-.8-.5c-.3-.4-.5-.6-.5-.9a10,10,0,0,0,.4-1.4c.3-1,.5-2.3.8-3.8a22.5,22.5,0,0,0,.4-4.4.4.4,0,0,1,.4-.4A1.2,1.2,0,0,1,130.9,54.6Z"/><path d="M28.4,70.7q.3,0,.9.6a2.1,2.1,0,0,1,.5,1.2,11.3,11.3,0,0,1-.5,2.2q-.4,2-.6,2.4C28,80.4,27.4,82,27.1,82a1.1,1.1,0,0,1-.7-.3c-.3-.3-.4-.5-.4-.7h0A4.4,4.4,0,0,1,24,82a1.7,1.7,0,0,1-1.2-.6,2.2,2.2,0,0,1-.6-1.2,5,5,0,0,1,.2-1.2,5.7,5.7,0,0,1,.4-1.4c.2-.5.5-1,.7-1.4a3.6,3.6,0,0,1,1-1.1,1.9,1.9,0,0,1,1.2-.4,1.8,1.8,0,0,1,1.5.9,30.4,30.4,0,0,0,.8-4.5C28,70.8,28.1,70.7,28.4,70.7Zm-4.2,9.5a3.1,3.1,0,0,0,1.2-.6,3.5,3.5,0,0,0,1.2-1.5v-.5a2.4,2.4,0,0,0-.2-.8l-.5-.3a.9.9,0,0,0-.8.4,4.1,4.1,0,0,0-.7,1.1,6.8,6.8,0,0,0-.4,2v.2Z"/><path d="M35.4,78.6a3.4,3.4,0,0,1-1.9.5H31.8a2.2,2.2,0,0,0-.1.8.7.7,0,0,0,.1.5,1,1,0,0,0,.7.2l1.8-.2.8-.2c.4,0,.6.1.6.4s-.3.7-.9,1a4.2,4.2,0,0,1-2.2.5,2.5,2.5,0,0,1-1.9-.7,2.4,2.4,0,0,1-.7-1.8,4.9,4.9,0,0,1,.6-2.2,7,7,0,0,1,1.5-1.9,2.7,2.7,0,0,1,1.8-.7,2.2,2.2,0,0,1,1.7.9,2.7,2.7,0,0,1,.8,1.7C36.4,77.8,36.1,78.2,35.4,78.6Zm-1-1.9a.9.9,0,0,0-.6-.3l-.6.4a3.9,3.9,0,0,0-.8,1h.4c1.3,0,1.9-.2,1.9-.7Z"/><path d="M41.5,74.7a1.5,1.5,0,0,1,1.1.6,2.4,2.4,0,0,1,.5,1.2.3.3,0,0,1-.3.3H41.6l-1,.2q-.6.2-.6.6l.4.4.8.6a2.8,2.8,0,0,1,.9.7,2.3,2.3,0,0,1,.3,1.1,1.4,1.4,0,0,1-.8,1.2,3.6,3.6,0,0,1-2,.6,3.1,3.1,0,0,1-2-.5c-.6-.3-.9-.7-.9-1.1s.2-.5.5-.5h.4a3.4,3.4,0,0,0,1.8.4c.7,0,1.1-.1,1.1-.3s-.2-.4-.4-.6l-.9-.7-.9-.7a1.2,1.2,0,0,1-.4-.8c0-.5.5-1.1,1.4-1.7A4.6,4.6,0,0,1,41.5,74.7Z"/><path d="M49.7,78a.8.8,0,0,1,.2.4,3.2,3.2,0,0,1-.1.8,9.2,9.2,0,0,0-.3.9.7.7,0,0,1-.1.5v1c0,.1,0,.1-.1.2a.1.1,0,0,1-.1.1h-.2c-.2,0-.3-.1-.5-.4a2.6,2.6,0,0,1-.5-.9A3.5,3.5,0,0,1,45.6,82a2.4,2.4,0,0,1-1.4-.6,2.3,2.3,0,0,1-.7-1.4,4.5,4.5,0,0,1,.6-1.9,13.1,13.1,0,0,1,1.7-2.4,2.9,2.9,0,0,1,2.1-1,2.1,2.1,0,0,1,1.4.7,1.9,1.9,0,0,1,.8,1.2A2.7,2.7,0,0,1,49.7,78Zm-4.2,2.2a2.5,2.5,0,0,0,1.5-.7,3,3,0,0,0,1.2-2c0-.1.1-.2.3-.2s-.2-.8-.3-.8a1.9,1.9,0,0,0-1.3.7,5.7,5.7,0,0,0-1.1,1.6,4.2,4.2,0,0,0-.5,1.2v.2Z"/><path d="M51.7,77.1V75.5c0-.6.1-.8.5-.8s.4,0,.5.2a1,1,0,0,1,.5.7,2.3,2.3,0,0,1,1-.7l1.1-.3c.6,0,1,.2,1,.5s0,.3-.1.4-.1.1-.1.2h-.4l-.5.3a5.2,5.2,0,0,0-1.1,1,3.4,3.4,0,0,0-.6,1.6,21.8,21.8,0,0,1-.8,2.4c-.2.6-.5.8-.8.8a.8.8,0,0,1-.7-.4,3.1,3.1,0,0,1-.2-.8,4.1,4.1,0,0,1,.3-1.2,9.3,9.3,0,0,0,.4-1.3C51.6,78,51.7,77.6,51.7,77.1Z"/><path d="M56.8,77.1V75.5c0-.6.1-.8.4-.8a.7.7,0,0,1,.6.2c.2.1.3.3.4.7a3.4,3.4,0,0,1,1.1-.7l1-.3c.7,0,1.1.2,1.1.5s-.1.3-.1.4l-.2.2h-.3l-.5.3a5.2,5.2,0,0,0-1.1,1,4.8,4.8,0,0,0-.7,1.6,12.1,12.1,0,0,1-.7,2.4c-.3.6-.5.8-.8.8a.7.7,0,0,1-.7-.4,1.3,1.3,0,0,1-.2-.8,9.6,9.6,0,0,1,.2-1.2,3.8,3.8,0,0,0,.4-1.3A4.1,4.1,0,0,0,56.8,77.1Z"/><path d="M62.3,76.3c.7-1.1,1.4-1.6,2.1-1.6A2.4,2.4,0,0,1,67,77.3a5.4,5.4,0,0,1-.5,2.1,4.5,4.5,0,0,1-1.4,1.9,3.2,3.2,0,0,1-2,.7,1.7,1.7,0,0,1-1.4-.7,2.4,2.4,0,0,1-.6-1.7A5.2,5.2,0,0,1,62.3,76.3Zm2.3,2.9a3.9,3.9,0,0,0,.5-2c0-.6,0-1-.2-1.2a3.2,3.2,0,0,0-1.2,1.5,4.1,4.1,0,0,0-.6,2,2.8,2.8,0,0,0,.1,1.1A3.7,3.7,0,0,0,64.6,79.2Z"/><path d="M70.6,71.3a1.7,1.7,0,0,1,.6,1.2c0,.4-.1,1.1-.2,2a11.9,11.9,0,0,1-.4,2.4C69.8,80.3,69.3,82,69,82a1,1,0,0,1-.8-.5,1.5,1.5,0,0,1-.5-.8,9.5,9.5,0,0,0,.4-1.5c.3-1,.5-2.2.8-3.7a23.2,23.2,0,0,0,.4-4.4c0-.3.1-.4.4-.4A1.2,1.2,0,0,1,70.6,71.3Z"/><path d="M74.4,71.3a1.7,1.7,0,0,1,.6,1.2c0,.4-.1,1.1-.2,2a11.9,11.9,0,0,1-.4,2.4c-.8,3.4-1.3,5.1-1.6,5.1a1,1,0,0,1-.8-.5,1.5,1.5,0,0,1-.5-.8,9.5,9.5,0,0,0,.4-1.5c.3-1,.5-2.2.8-3.7a23.2,23.2,0,0,0,.4-4.4c0-.3.1-.4.4-.4A1.2,1.2,0,0,1,74.4,71.3Z"/><path d="M76.4,76.3c.7-1.1,1.4-1.6,2.1-1.6a2.4,2.4,0,0,1,2.6,2.6,5.4,5.4,0,0,1-.5,2.1,4.5,4.5,0,0,1-1.4,1.9,3.2,3.2,0,0,1-2,.7,1.7,1.7,0,0,1-1.4-.7,2.4,2.4,0,0,1-.6-1.7A5.2,5.2,0,0,1,76.4,76.3Zm2.3,2.9a3.9,3.9,0,0,0,.5-2c0-.6,0-1-.2-1.2a3.2,3.2,0,0,0-1.2,1.5,4.1,4.1,0,0,0-.6,2,2.8,2.8,0,0,0,.1,1.1A3.7,3.7,0,0,0,78.7,79.2Z"/><path d="M90.7,77.4c-.2.5-.3,1.1-.6,1.8l-.3,1.1h.3l1.1-.3,1-.3c.3,0,.4.2.4.5s-.3.7-1,1.2a3.6,3.6,0,0,1-2,.6,1.7,1.7,0,0,1-1.1-.5,1.2,1.2,0,0,1-.6-1,16.3,16.3,0,0,1,.4-1.8l.6-1.9-.8.2c-.2,0-.4-.2-.6-.4a1.3,1.3,0,0,1-.3-.8c0-.3.7-.5,2.2-.7a11.1,11.1,0,0,0,.3-2.3c0-.3.1-.5.4-.5a1.6,1.6,0,0,1,.9.5,1.2,1.2,0,0,1,.6.9,3,3,0,0,1-.2,1.2h1.1c.7,0,1,.1,1,.5s-.2.3-.6.5l-1.9.5A6.2,6.2,0,0,0,90.7,77.4Z"/><path d="M99.2,78.6a3.4,3.4,0,0,1-1.9.5H95.6a2.2,2.2,0,0,0-.1.8.7.7,0,0,0,.1.5,1,1,0,0,0,.7.2l1.8-.2.8-.2c.4,0,.6.1.6.4s-.3.7-.9,1a4.2,4.2,0,0,1-2.2.5,2.5,2.5,0,0,1-1.9-.7,2.4,2.4,0,0,1-.7-1.8,4.9,4.9,0,0,1,.6-2.2,7,7,0,0,1,1.5-1.9,2.7,2.7,0,0,1,1.8-.7,2.2,2.2,0,0,1,1.7.9,2.7,2.7,0,0,1,.8,1.7C100.2,77.8,99.8,78.2,99.2,78.6Zm-1-1.9a.9.9,0,0,0-.6-.3l-.6.4a3.9,3.9,0,0,0-.8,1h.3c1.3,0,2-.2,2-.7Z"/><path d="M101.5,77.1V75.5c0-.6.2-.8.5-.8a.7.7,0,0,1,.6.2c.2.1.3.3.4.7a2.6,2.6,0,0,1,1.1-.7l1-.3c.7,0,1,.2,1,.5s0,.3-.1.4-.1.1-.1.2h-.3l-.5.3a5.2,5.2,0,0,0-1.1,1,3.4,3.4,0,0,0-.7,1.6,11,11,0,0,1-.8,2.4c-.2.6-.5.8-.8.8a.5.5,0,0,1-.6-.4,1.6,1.6,0,0,1-.3-.8,4.1,4.1,0,0,1,.3-1.2,9.3,9.3,0,0,0,.4-1.3A4.1,4.1,0,0,0,101.5,77.1Z"/><path d="M106.7,77.1V75.5c0-.6.2-.8.5-.8a.7.7,0,0,1,.6.2,1.4,1.4,0,0,1,.4.7,3,3,0,0,1,1-.7l1.1-.3c.7,0,1,.2,1,.5s0,.3-.1.4-.1.1-.1.2h-.4l-.5.3-1.1,1a3.4,3.4,0,0,0-.6,1.6,11,11,0,0,1-.8,2.4c-.2.6-.5.8-.8.8a.8.8,0,0,1-.7-.4,3.1,3.1,0,0,1-.2-.8,4.1,4.1,0,0,1,.3-1.2,9.3,9.3,0,0,0,.4-1.3C106.6,78,106.7,77.6,106.7,77.1Z"/><path d="M112.7,74.7a1.4,1.4,0,0,1,.9.5,3,3,0,0,1,.4,1.1,17.2,17.2,0,0,1-.5,2c-.4,1.1-.7,2.2-1,3.2a.8.8,0,0,1-.7.5l-.6-.2a1.4,1.4,0,0,1-.2-.6,7.7,7.7,0,0,1,.4-1.9c.2-1,.4-1.9.5-2.6l.4-1.5C112.4,74.8,112.5,74.7,112.7,74.7Zm-.2-1.8a1.3,1.3,0,0,1,.3-.8,1,1,0,0,1,.7-.4c.2,0,.4.3.7.8a3.1,3.1,0,0,1,.5,1.1.7.7,0,0,1-.3.6H114a1.8,1.8,0,0,1-1.5-1.4Z"/><path d="M118.1,77.4c-.1.5-.3,1.1-.5,1.8l-.3,1.1h.2l1.1-.3,1.1-.3c.2,0,.3.2.3.5s-.3.7-.9,1.2a3.9,3.9,0,0,1-2,.6,1.5,1.5,0,0,1-1.1-.5,1.2,1.2,0,0,1-.6-1,6.5,6.5,0,0,1,.4-1.8l.6-1.9-.9.2-.6-.4a1.3,1.3,0,0,1-.3-.8c0-.3.8-.5,2.2-.7a11.1,11.1,0,0,0,.3-2.3.5.5,0,0,1,.4-.5,1.9,1.9,0,0,1,1,.5,1.2,1.2,0,0,1,.6.9,7.4,7.4,0,0,1-.2,1.2h1c.7,0,1.1.1,1.1.5s-.2.3-.6.5l-1.9.5Z"/><path d="M122.2,76.3c.8-1.1,1.5-1.6,2.2-1.6a2.4,2.4,0,0,1,2.6,2.6,5.4,5.4,0,0,1-.5,2.1,4.7,4.7,0,0,1-1.5,1.9,2.8,2.8,0,0,1-1.9.7,1.6,1.6,0,0,1-1.4-.7,2.4,2.4,0,0,1-.6-1.7A5.7,5.7,0,0,1,122.2,76.3Zm2.4,2.9a5.3,5.3,0,0,0,.5-2,2.9,2.9,0,0,0-.2-1.2,3.2,3.2,0,0,0-1.2,1.5,4.1,4.1,0,0,0-.6,2,2.8,2.8,0,0,0,.1,1.1A3.7,3.7,0,0,0,124.6,79.2Z"/><path d="M128.5,77.1V75.5c0-.6.2-.8.5-.8a.7.7,0,0,1,.6.2c.2.1.3.3.4.7a2.6,2.6,0,0,1,1.1-.7l1-.3c.7,0,1,.2,1,.5s0,.3-.1.4-.1.1-.1.2h-.4l-.4.3a3.6,3.6,0,0,0-1.1,1,3.4,3.4,0,0,0-.7,1.6,11,11,0,0,1-.8,2.4c-.2.6-.5.8-.8.8a.5.5,0,0,1-.6-.4,1.6,1.6,0,0,1-.3-.8,4.1,4.1,0,0,1,.3-1.2,9.3,9.3,0,0,0,.4-1.3A4.1,4.1,0,0,0,128.5,77.1Z"/><path d="M134.5,74.7a1.4,1.4,0,0,1,.9.5,1.9,1.9,0,0,1,.4,1.1,17.2,17.2,0,0,1-.5,2c-.3,1.1-.7,2.2-1,3.2a.7.7,0,0,1-.7.5l-.5-.2a.9.9,0,0,1-.3-.6,7.7,7.7,0,0,1,.4-1.9c.2-1,.4-1.9.5-2.6l.4-1.5C134.2,74.8,134.3,74.7,134.5,74.7Zm-.2-1.8a1.3,1.3,0,0,1,.3-.8,1.3,1.3,0,0,1,.7-.4c.2,0,.4.3.7.8a3.1,3.1,0,0,1,.5,1.1,1.1,1.1,0,0,1-.2.6h-.5a1.4,1.4,0,0,1-1-.5A2.1,2.1,0,0,1,134.3,72.9Z"/><path d="M142.7,78a.8.8,0,0,1,.2.4,1.7,1.7,0,0,1-.2.8,6.4,6.4,0,0,1-.2.9.7.7,0,0,1-.1.5v1c0,.1,0,.1-.1.2a.1.1,0,0,1-.1.1h-.3c-.1,0-.2-.1-.4-.4a2.6,2.6,0,0,1-.5-.9,3.5,3.5,0,0,1-2.2,1.3,2.4,2.4,0,0,1-1.4-.6,2.3,2.3,0,0,1-.7-1.4,4.5,4.5,0,0,1,.6-1.9,9.6,9.6,0,0,1,1.7-2.4,2.9,2.9,0,0,1,2.1-1,2.1,2.1,0,0,1,1.4.7,1.9,1.9,0,0,1,.8,1.2A4.3,4.3,0,0,1,142.7,78Zm-4.2,2.2a2.5,2.5,0,0,0,1.5-.7,3,3,0,0,0,1.2-2l.2-.2c0-.5-.1-.8-.2-.8a1.9,1.9,0,0,0-1.3.7,6.1,6.1,0,0,0-1.2,1.6,3.1,3.1,0,0,0-.4,1.2v.2Z"/><path d="M146.8,71.3a2.1,2.1,0,0,1,.5,1.2,8.7,8.7,0,0,1-.2,2q-.2,1.5-.3,2.4c-.8,3.4-1.4,5.1-1.7,5.1s-.4-.1-.7-.5a1,1,0,0,1-.5-.8s.1-.5.4-1.5.5-2.2.8-3.7a34.9,34.9,0,0,0,.3-4.4c0-.3.2-.4.5-.4S146.4,70.9,146.8,71.3Z"/><path d="M150.5,81.9a3.5,3.5,0,0,1-.9,2.3c-.6.8-1.1,1.2-1.6,1.2s-.4-.1-.4-.3a1.5,1.5,0,0,1,.3-.6,3.5,3.5,0,0,0,.9-1.9c0-.2-.1-.3-.3-.5l-.5-.4a.8.8,0,0,1-.2-.4c0-.2.1-.4.4-.7a1.2,1.2,0,0,1,.9-.4,1.4,1.4,0,0,1,.9.5A2.1,2.1,0,0,1,150.5,81.9Z"/><path d="M61.1,95.2a3.3,3.3,0,0,1-1.9.6H57.6a1.9,1.9,0,0,0-.2.7.8.8,0,0,0,.2.6h.6a5,5,0,0,0,1.8-.2l.8-.2c.4,0,.6.2.6.4s-.3.8-.9,1.1a4.6,4.6,0,0,1-2.1.5,2.8,2.8,0,0,1-2-.8,2.4,2.4,0,0,1-.7-1.8,4.2,4.2,0,0,1,.6-2.1,5.8,5.8,0,0,1,1.5-1.9,2.9,2.9,0,0,1,1.8-.8,2.2,2.2,0,0,1,1.7.9,2.9,2.9,0,0,1,.8,1.8C62.1,94.5,61.8,94.9,61.1,95.2Zm-1-1.9-.5-.2c-.2,0-.4.1-.7.4a3.6,3.6,0,0,0-.8.9h.4c1.3,0,1.9-.2,1.9-.6A.9.9,0,0,0,60.1,93.3Z"/><path d="M65.6,88a2.1,2.1,0,0,1,.5,1.2c0,.3-.1,1-.2,2s-.2,1.7-.3,2.3c-.8,3.5-1.4,5.2-1.7,5.2s-.4-.2-.8-.5a1.4,1.4,0,0,1-.4-.9,13.1,13.1,0,0,1,.4-1.4c.2-1,.5-2.3.7-3.8a22.5,22.5,0,0,0,.4-4.4.5.5,0,0,1,.5-.4C64.9,87.3,65.2,87.5,65.6,88Z"/><path d="M77.1,91.3c.4,0,.8.3,1.2,1a3.3,3.3,0,0,1,.6,1.9,3.1,3.1,0,0,1-.5,1.3A7.9,7.9,0,0,1,77.2,97a10.4,10.4,0,0,1-1.7,1.2,4.9,4.9,0,0,1-1.9.5h-.1c-.6,2.5-1.1,3.7-1.3,3.7s-.4-.2-.6-.5a1.2,1.2,0,0,1-.4-.8c0-.2.2-.9.4-2a32.1,32.1,0,0,0,1.3-7.6c0-.3.1-.4.4-.4a1.6,1.6,0,0,1,.9.4,1.7,1.7,0,0,1,.6,1A3.5,3.5,0,0,1,77.1,91.3ZM76,95.7A2.4,2.4,0,0,0,77,94c0-.5-.1-.8-.4-.8a2.4,2.4,0,0,0-1.3.7,3.5,3.5,0,0,0-.6.9,3.9,3.9,0,0,0-.5,1.3l-.3.9A3.9,3.9,0,0,0,76,95.7Z"/><path d="M80.4,93.7V92.1c0-.5.2-.8.5-.8l.6.2a1.6,1.6,0,0,1,.4.7,4.1,4.1,0,0,1,1.1-.7l1-.3c.7,0,1,.2,1,.5v.4l-.2.2-.2.2h-.1l-.5.3a5.2,5.2,0,0,0-1.1,1,4.2,4.2,0,0,0-.7,1.5c-.3,1.1-.5,1.9-.7,2.5s-.6.8-.9.8a.6.6,0,0,1-.6-.5,1.1,1.1,0,0,1-.3-.8,3.6,3.6,0,0,1,.3-1.1,9.3,9.3,0,0,0,.4-1.3A5.3,5.3,0,0,0,80.4,93.7Z"/><path d="M85.8,92.9c.8-1.1,1.5-1.6,2.2-1.6a2.6,2.6,0,0,1,1.9.8,2.9,2.9,0,0,1,.7,1.8,5.9,5.9,0,0,1-.5,2.2A5.5,5.5,0,0,1,88.6,98a3.4,3.4,0,0,1-1.9.7,1.6,1.6,0,0,1-1.4-.7,2.5,2.5,0,0,1-.6-1.7A6.2,6.2,0,0,1,85.8,92.9Zm2.4,2.9a4.5,4.5,0,0,0,.5-1.9,3.9,3.9,0,0,0-.2-1.3,6.9,6.9,0,0,0-1.3,1.5,4.9,4.9,0,0,0-.6,2,2,2,0,0,0,.2,1.1A3.1,3.1,0,0,0,88.2,95.8Z"/><path d="M96.9,94.4a.9.9,0,0,1,.3.6,1.6,1.6,0,0,1-.3.8,9.5,9.5,0,0,0-.7,2.2,8.3,8.3,0,0,1-.5,2l-.6,1.3a1.8,1.8,0,0,1-.8.9,2.1,2.1,0,0,1-1.2.4,2.8,2.8,0,0,1-1.7-.7c-.5-.4-.8-.8-.8-1.1a1.3,1.3,0,0,1,.3-.8.5.5,0,0,1,.4-.3c.2,0,.3,0,.4.2l.4.5.4.5.6.2a.7.7,0,0,0,.6-.4,3.6,3.6,0,0,0,.4-.9c.3-.8.4-1.4.5-1.7a3.5,3.5,0,0,1-1.6.6,1.5,1.5,0,0,1-1.2-.7,1.7,1.7,0,0,1-.6-1.2,3.4,3.4,0,0,1,.4-1.5,14.2,14.2,0,0,1,.8-1.8A4.7,4.7,0,0,1,93.7,92a2.1,2.1,0,0,1,1.5-.7,1.2,1.2,0,0,1,.9.3,1.3,1.3,0,0,1,.6.7A4.7,4.7,0,0,1,97,94,.6.6,0,0,1,96.9,94.4ZM93,96.7c0,.1,0,.2.2.2a3.3,3.3,0,0,0,1.3-.8,4,4,0,0,0,1.2-1.5v-.2a3.1,3.1,0,0,0-.1-1.2h-.3q-.6,0-1.5,1.5A5.1,5.1,0,0,0,93,96.7Z"/><path d="M99,93.7V92.1c0-.5.1-.8.5-.8l.5.2a1.8,1.8,0,0,1,.5.7l1-.7,1-.3c.7,0,1.1.2,1.1.5s0,.3-.1.4v.2l-.2.2h-.2l-.5.3a5.2,5.2,0,0,0-1.1,1,4.2,4.2,0,0,0-.7,1.5,16.4,16.4,0,0,1-.7,2.5c-.2.5-.5.8-.8.8s-.5-.2-.7-.5a1.9,1.9,0,0,1-.2-.8,3.6,3.6,0,0,1,.3-1.1,9.3,9.3,0,0,0,.4-1.3C98.9,94.6,99,94.2,99,93.7Z"/><path d="M108.8,95.2a3.6,3.6,0,0,1-2,.6h-1.6a1.7,1.7,0,0,0-.1.7c0,.3,0,.5.1.6h.6a5.3,5.3,0,0,0,1.9-.2l.8-.2c.4,0,.6.2.6.4s-.4.8-1,1.1a4.6,4.6,0,0,1-2.1.5,2.6,2.6,0,0,1-1.9-.8,2.5,2.5,0,0,1-.8-1.8,4.2,4.2,0,0,1,.6-2.1,7.7,7.7,0,0,1,1.6-1.9,2.9,2.9,0,0,1,1.8-.8,2.2,2.2,0,0,1,1.7.9,2.7,2.7,0,0,1,.7,1.8A1.4,1.4,0,0,1,108.8,95.2Zm-1-1.9-.6-.2c-.2,0-.4.1-.7.4a3.5,3.5,0,0,0-.7.9h.3c1.3,0,2-.2,2-.6A.9.9,0,0,0,107.8,93.3Z"/><path d="M114.9,91.3a1.3,1.3,0,0,1,1,.7,1.7,1.7,0,0,1,.6,1.1c0,.3-.1.4-.3.4l-.5-.2H115l-1,.2q-.6.3-.6.6a.5.5,0,0,0,.3.4l.9.6a3,3,0,0,1,.8.8,1.5,1.5,0,0,1,.4,1.1,1.7,1.7,0,0,1-.8,1.2,3.7,3.7,0,0,1-2.1.6,4.6,4.6,0,0,1-2-.5c-.5-.4-.8-.8-.8-1.1s.2-.6.5-.6l.4.2a4.8,4.8,0,0,0,1.8.4c.7,0,1-.1,1-.3a.7.7,0,0,0-.4-.6,2.7,2.7,0,0,0-.8-.7,2.2,2.2,0,0,1-.9-.7,1.2,1.2,0,0,1-.4-.9c0-.5.4-1.1,1.4-1.7A4.2,4.2,0,0,1,114.9,91.3Z"/><path d="M118,92.9a2.9,2.9,0,0,1,2.2-1.6,2.7,2.7,0,0,1,2.6,2.6,5.9,5.9,0,0,1-.5,2.2,7,7,0,0,1-1.5,1.9,3.7,3.7,0,0,1-2,.7,1.6,1.6,0,0,1-1.3-.7,2.5,2.5,0,0,1-.6-1.7A6.2,6.2,0,0,1,118,92.9Zm2.3,2.9a3.5,3.5,0,0,0,.6-1.9,2.3,2.3,0,0,0-.3-1.3,5.3,5.3,0,0,0-1.8,3.5,2,2,0,0,0,.2,1.1A3,3,0,0,0,120.3,95.8Z"/><path d="M39.5,108a1,1,0,0,1,.8.5,1.9,1.9,0,0,1,.4,1.1,7.3,7.3,0,0,1-.5,2l-.9,3.2a.8.8,0,0,1-.7.5l-.6-.2a1.4,1.4,0,0,1-.2-.6,7.7,7.7,0,0,1,.4-1.9c.2-1,.4-1.9.5-2.6a7.5,7.5,0,0,1,.4-1.5C39.2,108.1,39.3,108,39.5,108Zm-.3-1.8c0-.3.2-.5.4-.8s.4-.4.6-.4.5.3.8.8a2.4,2.4,0,0,1,.4,1.1c0,.3,0,.4-.2.6h-.5a1.2,1.2,0,0,1-.9-.5Q39.2,106.5,39.2,106.2Z"/><path d="M46.8,108a1.8,1.8,0,0,1,1.3.6,2.4,2.4,0,0,1,.6,1.5,11.8,11.8,0,0,1-.4,2.5,7.7,7.7,0,0,1-.9,2c-.3.5-.6.7-.9.7s-.5-.2-.5-.6a9.7,9.7,0,0,1,.5-2.1,10.5,10.5,0,0,0,.3-1.8c0-.4,0-.6-.1-.6l-.4.2-.3.3-.2.4-.3.4c-.1.1-.1.3-.3.4a1.7,1.7,0,0,0-.2.5l-.3.5q-1.4,2.4-2.1,2.4c-.2,0-.4-.1-.7-.5a1.8,1.8,0,0,1-.5-.7l.2-.7a2,2,0,0,0,.3-.8c.1-.2.1-.4.2-.6s.1-.4.1-.7a1.3,1.3,0,0,1,.1-.6v-.6c.1-1.2.2-1.9.2-2l.2-.2a1.7,1.7,0,0,1,1.1.4,1.5,1.5,0,0,1,.5.8,11.4,11.4,0,0,1-.5,2.6,26.2,26.2,0,0,1,1.7-2.7C46,108.3,46.5,108,46.8,108Z"/><path d="M54,108a1.5,1.5,0,0,1,1.1.6,2.4,2.4,0,0,1,.5,1.2.3.3,0,0,1-.3.3H54.2a2,2,0,0,0-1,.2c-.5.1-.7.3-.7.6s.1.2.4.4l.8.6a2.8,2.8,0,0,1,.9.7,3,3,0,0,1,.4,1.1q0,.6-.9,1.2a3.4,3.4,0,0,1-2,.6,3.1,3.1,0,0,1-2-.5,1.2,1.2,0,0,1-.8-1.1c0-.3.1-.5.4-.5h.5a2.9,2.9,0,0,0,1.7.4c.7,0,1.1-.1,1.1-.3a.9.9,0,0,0-.4-.6l-.9-.6-.9-.8a2,2,0,0,1-.4-.8c0-.5.5-1.1,1.4-1.7A4.6,4.6,0,0,1,54,108Z"/><path d="M59.5,110.8c-.2.4-.3,1-.6,1.7l-.3,1.1h.3l1.1-.4,1-.3c.3,0,.4.2.4.5s-.3.7-1,1.2a3.6,3.6,0,0,1-2,.6,1.7,1.7,0,0,1-1.1-.5,1.2,1.2,0,0,1-.6-1,16.3,16.3,0,0,1,.4-1.8l.6-1.9-.8.2a.7.7,0,0,1-.6-.4,1.3,1.3,0,0,1-.3-.8c0-.3.7-.5,2.2-.7a11.1,11.1,0,0,0,.3-2.3c0-.3.1-.5.4-.5a1.6,1.6,0,0,1,.9.5,1.2,1.2,0,0,1,.6.9,3,3,0,0,1-.2,1.2h1.1c.7,0,1.1.1,1.1.5s-.3.3-.7.5l-1.9.5A5.3,5.3,0,0,0,59.5,110.8Z"/><path d="M64.2,108a1.4,1.4,0,0,1,.9.5,3,3,0,0,1,.4,1.1,17.2,17.2,0,0,1-.5,2c-.4,1.1-.7,2.2-1,3.2a.8.8,0,0,1-.7.5l-.6-.2a1.4,1.4,0,0,1-.2-.6,7.7,7.7,0,0,1,.4-1.9c.2-1,.4-1.9.5-2.6l.4-1.5C63.9,108.1,64,108,64.2,108Zm-.2-1.8a1.3,1.3,0,0,1,.3-.8,1,1,0,0,1,.7-.4c.2,0,.4.3.7.8a3.1,3.1,0,0,1,.5,1.1.7.7,0,0,1-.3.6h-.4a1.8,1.8,0,0,1-1.5-1.4Z"/><path d="M69.6,110.8l-.5,1.7-.3,1.1H69l1.1-.4,1.1-.3c.2,0,.3.2.3.5s-.3.7-.9,1.2a3.9,3.9,0,0,1-2,.6,1.5,1.5,0,0,1-1.1-.5,1.2,1.2,0,0,1-.6-1,6.5,6.5,0,0,1,.4-1.8l.6-1.9-.9.2c-.1,0-.3-.1-.6-.4a1.3,1.3,0,0,1-.3-.8c0-.3.8-.5,2.2-.7a11.1,11.1,0,0,0,.3-2.3.5.5,0,0,1,.4-.5,1.9,1.9,0,0,1,1,.5,1.2,1.2,0,0,1,.6.9,7.4,7.4,0,0,1-.2,1.2h1c.7,0,1.1.1,1.1.5s-.2.3-.6.5l-1.9.5Z"/><path d="M77.7,108.3a.5.5,0,0,1,.5-.3c.2,0,.5.2.8.6a1.4,1.4,0,0,1,.4,1q0,.2-.6,2.1c-.5,1.3-.8,2.3-1,3s-.4.6-.7.6-.4,0-.5-.2a.8.8,0,0,1-.2-.6,10.5,10.5,0,0,1,.2-1.3q-1.5,2.1-2.4,2.1c-.3,0-.6-.2-1.1-.6a1.4,1.4,0,0,1-.6-1.1,11.3,11.3,0,0,1,.8-3.5c.5-1.4,1-2.1,1.4-2.1a1.1,1.1,0,0,1,.8.3,1.6,1.6,0,0,1,.3.9,2.5,2.5,0,0,1-.4.9,9.8,9.8,0,0,0-1,3.3h0c.2,0,.4-.2.8-.7a8.4,8.4,0,0,0,1.4-1.9A11.9,11.9,0,0,0,77.7,108.3Z"/><path d="M79.7,113.1a4.9,4.9,0,0,1,.6-2.2,6.5,6.5,0,0,1,1.6-2.1,3.7,3.7,0,0,1,2-.8,1.5,1.5,0,0,1,1.1.6,2.8,2.8,0,0,1,.5,1.2.4.4,0,0,1-.4.4l-.4-.2h-.6a1.4,1.4,0,0,0-.9.5,6.9,6.9,0,0,0-1.1,1.3,2.4,2.4,0,0,0-.4,1.2c0,.2,0,.4.2.5h1.9a1.5,1.5,0,0,0,.8-.2H85c.3,0,.4.1.4.3s-.3.9-1.1,1.3a4.3,4.3,0,0,1-2.2.6,2.7,2.7,0,0,1-1.6-.7A2,2,0,0,1,79.7,113.1Z"/><path d="M88.2,108a1.1,1.1,0,0,1,.9.5,1.9,1.9,0,0,1,.4,1.1,7.3,7.3,0,0,1-.5,2l-.9,3.2c-.2.3-.4.5-.7.5a1.1,1.1,0,0,1-.6-.2,1.4,1.4,0,0,1-.2-.6,12.9,12.9,0,0,1,.3-1.9,18.5,18.5,0,0,0,.6-2.6,3.9,3.9,0,0,1,.4-1.5C88,108.1,88.1,108,88.2,108Zm-.2-1.8a1,1,0,0,1,.4-.8c.2-.2.4-.4.6-.4s.5.3.8.8a2.4,2.4,0,0,1,.4,1.1c0,.3,0,.4-.2.6h-.5a1.2,1.2,0,0,1-.9-.5Q88,106.5,88,106.2Z"/><path d="M91.4,109.6c.7-1.1,1.4-1.6,2.2-1.6a2.4,2.4,0,0,1,1.8.7,2.5,2.5,0,0,1,.7,1.9,4.7,4.7,0,0,1-.5,2.2,4.9,4.9,0,0,1-1.4,1.8,3.1,3.1,0,0,1-2,.7,1.7,1.7,0,0,1-1.4-.7,2.9,2.9,0,0,1-.5-1.7A5.2,5.2,0,0,1,91.4,109.6Zm2.3,2.9a3.9,3.9,0,0,0,.6-2,1.7,1.7,0,0,0-.3-1.2,3.2,3.2,0,0,0-1.2,1.5,4.1,4.1,0,0,0-.6,2c0,.6,0,.9.2,1.1A3,3,0,0,0,93.7,112.5Z"/><path d="M102.1,108a1.8,1.8,0,0,1,1.3.6,2.4,2.4,0,0,1,.6,1.5,11.8,11.8,0,0,1-.4,2.5,7.7,7.7,0,0,1-.9,2c-.3.5-.6.7-.9.7s-.5-.2-.5-.6a9.7,9.7,0,0,1,.5-2.1,10.5,10.5,0,0,0,.3-1.8c0-.4,0-.6-.1-.6l-.4.2-.3.3-.2.4-.3.4-.3.4a1.7,1.7,0,0,0-.2.5l-.3.5q-1.4,2.4-2.1,2.4c-.2,0-.4-.1-.7-.5a1.8,1.8,0,0,1-.5-.7l.2-.7a2,2,0,0,0,.3-.8c.1-.2.1-.4.2-.6s.1-.4.1-.7a1.3,1.3,0,0,1,.1-.6v-.6c.1-1.2.2-1.9.2-2l.2-.2a1.7,1.7,0,0,1,1.1.4,1.5,1.5,0,0,1,.5.8,11.4,11.4,0,0,1-.5,2.6,26.2,26.2,0,0,1,1.7-2.7C101.3,108.3,101.8,108,102.1,108Z"/><path d="M110.8,111.3a.5.5,0,0,1,.3.4l-.2.8a5.1,5.1,0,0,0-.2.9,1.1,1.1,0,0,0-.1.5c0,.1-.1.2-.1.3v.2c0,.1-.1.2-.1.3v.4h-.4c-.1,0-.3-.1-.5-.4a2.5,2.5,0,0,1-.4-.9,3.6,3.6,0,0,1-2.3,1.3,2.2,2.2,0,0,1-1.3-.6,1.9,1.9,0,0,1-.7-1.4,4.9,4.9,0,0,1,.6-1.9A9.6,9.6,0,0,1,107,109a2.9,2.9,0,0,1,2.1-1,2.3,2.3,0,0,1,1.4.7,1.9,1.9,0,0,1,.8,1.3A3.1,3.1,0,0,1,110.8,111.3Zm-4.1,2.2a2.5,2.5,0,0,0,1.5-.7,4.1,4.1,0,0,0,1.2-2l.2-.2c0-.5-.1-.8-.3-.8a1.7,1.7,0,0,0-1.2.7,8.3,8.3,0,0,0-1.2,1.6,3,3,0,0,0-.4,1.3h.2Z"/><path d="M114.9,104.6a1.7,1.7,0,0,1,.6,1.2c0,.4-.1,1.1-.2,2a11.9,11.9,0,0,1-.4,2.4c-.7,3.4-1.3,5.1-1.6,5.1a1,1,0,0,1-.8-.5,1.2,1.2,0,0,1-.4-.8l.3-1.5a23.3,23.3,0,0,0,.8-3.7,23.2,23.2,0,0,0,.4-4.4.4.4,0,0,1,.4-.4A1.2,1.2,0,0,1,114.9,104.6Z"/><path d="M126.7,108.3c0-.2.2-.3.4-.3s.5.1.8.5a1.4,1.4,0,0,1,.4,1.1,8.9,8.9,0,0,1-.2,1.1l-.4,1.1a4.6,4.6,0,0,0-.3.9,10.4,10.4,0,0,1-.4,1c-.1.3-.2.8-.4,1.3a8.8,8.8,0,0,0-.5,1.5,7.5,7.5,0,0,1-1.1,2,2.4,2.4,0,0,1-1.6.7,3.3,3.3,0,0,1-1.9-.6,1.4,1.4,0,0,1-.8-1,1.3,1.3,0,0,1,.3-.8l.5-.4a.7.7,0,0,1,.6.4l.7.6a.7.7,0,0,0,.6.4l.3-.2c.1-.1.2-.2.2-.3s.1-.2.2-.4.1-.3.1-.4l.2-.5c.1-.3.1-.5.2-.6s.3-1,.4-1.4a9.4,9.4,0,0,1-1,1,1.6,1.6,0,0,1-.9.3c-.3,0-.6-.2-1-.6a1.7,1.7,0,0,1-.7-1.4,5.8,5.8,0,0,1,.4-2,10.2,10.2,0,0,1,.8-2.3c.3-.7.6-1,.9-1a.9.9,0,0,1,.8.4.8.8,0,0,1,.4.7,3.6,3.6,0,0,1-.3,1.1,8.7,8.7,0,0,0-.7,1.7,3.4,3.4,0,0,0-.4,1.5h.1c.1,0,.4-.2.8-.7a12.2,12.2,0,0,0,1.3-1.9A15.1,15.1,0,0,0,126.7,108.3Z"/><path d="M137.1,104.6a1.7,1.7,0,0,1,.6,1.2c0,.4-.1,1.1-.2,2s-.2,1.8-.3,2.4c-.8,3.4-1.4,5.1-1.7,5.1a1,1,0,0,1-.8-.5,1.2,1.2,0,0,1-.4-.8l.3-1.5a23.3,23.3,0,0,0,.8-3.7,23.2,23.2,0,0,0,.4-4.4c0-.3.2-.4.5-.4S136.8,104.2,137.1,104.6Z"/><path d="M144.1,111.3a.5.5,0,0,1,.3.4l-.2.8a5.1,5.1,0,0,0-.2.9,1.1,1.1,0,0,0-.1.5.4.4,0,0,0-.1.3v.2c0,.1-.1.2-.1.3v.4h-.4c-.1,0-.3-.1-.5-.4a2.5,2.5,0,0,1-.4-.9,3.6,3.6,0,0,1-2.3,1.3,2.2,2.2,0,0,1-1.3-.6,1.9,1.9,0,0,1-.7-1.4,4.9,4.9,0,0,1,.6-1.9,9.6,9.6,0,0,1,1.7-2.4,2.9,2.9,0,0,1,2.1-1,2.3,2.3,0,0,1,1.4.7,1.7,1.7,0,0,1,.7,1.3A2.7,2.7,0,0,1,144.1,111.3Zm-4.1,2.2a3.1,3.1,0,0,0,1.5-.7,4.1,4.1,0,0,0,1.2-2c0-.1,0-.2.2-.2s-.1-.8-.3-.8a1.9,1.9,0,0,0-1.3.7l-1.1,1.6a3.6,3.6,0,0,0-.5,1.3h.3Z"/><path d="M31.6,124.6a1.2,1.2,0,0,1,.9.6,1.7,1.7,0,0,1,.4,1.1,18.3,18.3,0,0,1-.5,1.9c-.3,1.2-.7,2.2-1,3.2a.7.7,0,0,1-.7.6.5.5,0,0,1-.5-.3.6.6,0,0,1-.3-.6c0-.2.2-.9.4-1.9s.4-1.8.6-2.5a11.6,11.6,0,0,1,.3-1.6C31.3,124.8,31.5,124.6,31.6,124.6Zm-.2-1.8a1.1,1.1,0,0,1,.3-.7c.3-.3.5-.4.7-.4s.5.2.8.8a3.7,3.7,0,0,1,.4,1.1.8.8,0,0,1-.2.5l-.5.2a1.8,1.8,0,0,1-1.5-1.5Z"/><path d="M39.3,127.7a.9.9,0,0,1,.3.6,1.6,1.6,0,0,1-.3.8,9.5,9.5,0,0,0-.7,2.2,8.3,8.3,0,0,1-.5,2l-.6,1.3a1.8,1.8,0,0,1-.8.9,2.5,2.5,0,0,1-1.2.4,2.3,2.3,0,0,1-1.7-.7c-.5-.4-.8-.7-.8-1a1.6,1.6,0,0,1,.3-.9.5.5,0,0,1,.4-.3l.4.2.4.5.4.5.6.2a.7.7,0,0,0,.6-.4,3.6,3.6,0,0,0,.4-.9c.3-.8.4-1.4.5-1.7a3.5,3.5,0,0,1-1.6.6,1.5,1.5,0,0,1-1.2-.7,1.7,1.7,0,0,1-.6-1.2,3.4,3.4,0,0,1,.4-1.5,7.1,7.1,0,0,1,.8-1.8,4.7,4.7,0,0,1,1.3-1.5,2.1,2.1,0,0,1,1.5-.7,1.2,1.2,0,0,1,.9.3,1.3,1.3,0,0,1,.6.7,4.7,4.7,0,0,1,.3,1.7A.6.6,0,0,1,39.3,127.7ZM35.4,130c0,.1,0,.2.1.2a2.9,2.9,0,0,0,1.4-.8,4,4,0,0,0,1.2-1.5v-.2a3.1,3.1,0,0,0-.1-1.2h-.3q-.6,0-1.5,1.5A5.6,5.6,0,0,0,35.4,130Z"/><path d="M45.6,125c.1-.3.2-.4.4-.4s.5.2.8.6a1.9,1.9,0,0,1,.5,1,13.9,13.9,0,0,1-.7,2.1c-.4,1.3-.8,2.3-1,3.1a.7.7,0,0,1-.7.6l-.4-.2a.8.8,0,0,1-.2-.7,5.7,5.7,0,0,1,.1-1.2c-.9,1.4-1.7,2.1-2.3,2.1a2.2,2.2,0,0,1-1.7-1.7,10.3,10.3,0,0,1,.7-3.5c.6-1.5,1-2.2,1.5-2.2a1,1,0,0,1,.7.4,1.2,1.2,0,0,1,.4.8c0,.1-.2.4-.4,1a9.5,9.5,0,0,0-1.1,3.3h.1c.1,0,.4-.2.8-.7l1.3-1.9A15.1,15.1,0,0,0,45.6,125Z"/><path d="M53.6,127.9c.1.2.2.3.2.5a2.6,2.6,0,0,1-.1.7,9.2,9.2,0,0,0-.3.9.7.7,0,0,1-.1.5v.3a.4.4,0,0,1-.1.3v.2a.4.4,0,0,1-.1.3H53c0,.1,0,.1-.1.2h-.2c-.2,0-.3-.1-.5-.4a3.1,3.1,0,0,1-.5-1c-.9.9-1.6,1.4-2.2,1.4a1.7,1.7,0,0,1-1.3-.7,1.9,1.9,0,0,1-.8-1.3,4.3,4.3,0,0,1,.7-2,8.7,8.7,0,0,1,1.6-2.3,3.1,3.1,0,0,1,2.1-1.1,2.6,2.6,0,0,1,1.4.7c.5.5.8.9.8,1.3A2.4,2.4,0,0,1,53.6,127.9Zm-4.2,2.3a2.8,2.8,0,0,0,1.5-.8,2.8,2.8,0,0,0,1.2-1.9c0-.2.1-.2.3-.2s-.2-.9-.3-.9-.8.3-1.3.8a5.7,5.7,0,0,0-1.1,1.6,2.8,2.8,0,0,0-.5,1.2v.2Z"/><path d="M57.7,121.3a2.1,2.1,0,0,1,.5,1.2,19.2,19.2,0,0,1-.1,2c-.2,1-.3,1.7-.4,2.3-.8,3.5-1.3,5.2-1.7,5.2s-.4-.2-.7-.5-.5-.6-.5-.8a8,8,0,0,1,.4-1.5l.8-3.8a34.2,34.2,0,0,0,.4-4.4.4.4,0,0,1,.4-.4C57,120.6,57.3,120.8,57.7,121.3Z"/><path d="M64.7,120.6c.2,0,.5.2.9.7a1.5,1.5,0,0,1,.5,1.1,11.4,11.4,0,0,1-.5,2.3l-.6,2.4c-.7,3.3-1.3,4.9-1.6,4.9a.9.9,0,0,1-.7-.4.8.8,0,0,1-.4-.7h0a4,4,0,0,1-2,1.2,1.5,1.5,0,0,1-1.2-.7,1.7,1.7,0,0,1-.6-1.2,7.4,7.4,0,0,1,.2-1.2,10.3,10.3,0,0,1,.4-1.4c.2-.5.5-.9.7-1.4a5.2,5.2,0,0,1,1-1.1,2.8,2.8,0,0,1,1.2-.4,1.7,1.7,0,0,1,1.5,1,30.4,30.4,0,0,0,.8-4.5C64.3,120.8,64.4,120.6,64.7,120.6Zm-4.2,9.6a3.1,3.1,0,0,0,1.2-.6,3.8,3.8,0,0,0,1.2-1.6v-.5a1.9,1.9,0,0,0-.2-.7l-.5-.4a1,1,0,0,0-.8.5,2.4,2.4,0,0,0-.6,1.1,4.8,4.8,0,0,0-.5,2h.2Z"/><path d="M72.3,127.9c.2.2.3.3.3.5l-.2.7a5.1,5.1,0,0,0-.2.9,4.3,4.3,0,0,1-.1.5v.8a.4.4,0,0,0-.1.3h-.1c0,.1,0,.1-.1.2h-.3c-.1,0-.3-.1-.5-.4a3,3,0,0,1-.4-1c-.9.9-1.6,1.4-2.2,1.4a1.9,1.9,0,0,1-1.4-.7,1.7,1.7,0,0,1-.7-1.3,5.3,5.3,0,0,1,.6-2,9.1,9.1,0,0,1,1.7-2.3,3.1,3.1,0,0,1,2.1-1.1,2.6,2.6,0,0,1,1.4.7c.5.5.8.9.8,1.3A2.7,2.7,0,0,1,72.3,127.9Zm-4.1,2.3a2.8,2.8,0,0,0,1.5-.8,3.9,3.9,0,0,0,1.2-1.9c0-.2.1-.2.2-.2s-.1-.9-.2-.9-.8.3-1.3.8a6.1,6.1,0,0,0-1.2,1.6A2.4,2.4,0,0,0,68,130v.2Z"/><path d="M79.7,120.6c.2,0,.5.2.9.7a2.1,2.1,0,0,1,.5,1.1c0,.2-.2.9-.5,2.3l-.6,2.4c-.8,3.3-1.3,4.9-1.7,4.9a.7.7,0,0,1-.6-.4.8.8,0,0,1-.4-.7h0a4,4,0,0,1-2,1.2,1.5,1.5,0,0,1-1.2-.7,1.7,1.7,0,0,1-.6-1.2,5.7,5.7,0,0,1,.1-1.2,12.1,12.1,0,0,1,.5-1.4l.7-1.4a5.2,5.2,0,0,1,1-1.1,2.8,2.8,0,0,1,1.2-.4,1.7,1.7,0,0,1,1.5,1,18.5,18.5,0,0,0,.7-4.5A.5.5,0,0,1,79.7,120.6Zm-4.3,9.6a2.2,2.2,0,0,0,1.2-.6,4,4,0,0,0,1.3-1.6v-.5a1.1,1.1,0,0,0-.3-.7c-.1-.2-.3-.4-.4-.4a1.4,1.4,0,0,0-.9.5l-.6,1.1a7.1,7.1,0,0,0-.5,2h.2Z"/><path d="M92.1,125a.4.4,0,0,1,.4-.4,1,1,0,0,1,.8.5,1.5,1.5,0,0,1,.4,1.1,2.8,2.8,0,0,1-.2,1.1l-.4,1.1a3.2,3.2,0,0,1-.3.9l-.3,1.1a7.3,7.3,0,0,0-.5,1.2,13.1,13.1,0,0,1-.5,1.5,5.3,5.3,0,0,1-1.1,2,1.9,1.9,0,0,1-1.6.7,3.5,3.5,0,0,1-1.8-.5c-.6-.4-.8-.7-.8-1.1a1.1,1.1,0,0,1,.3-.7.5.5,0,0,1,.5-.4l.5.3.7.7a.9.9,0,0,0,.6.3c.1,0,.2,0,.3-.2l.2-.3.2-.3c0-.2.1-.3.1-.5a.8.8,0,0,0,.2-.5c.1-.2.1-.4.2-.6s.3-.9.4-1.3a2.8,2.8,0,0,1-1,.9,1.2,1.2,0,0,1-.9.4c-.3,0-.6-.2-1-.6a2.3,2.3,0,0,1-.7-1.4,10.7,10.7,0,0,1,.4-2.1,15.5,15.5,0,0,1,.8-2.3c.4-.6.6-1,.9-1a1.2,1.2,0,0,1,.8.4c.3.3.4.5.4.7a4.1,4.1,0,0,1-.3,1.2,7.7,7.7,0,0,0-.7,1.6,3.7,3.7,0,0,0-.4,1.6h.1l.8-.7a14,14,0,0,0,1.3-2A14.2,14.2,0,0,0,92.1,125Z"/><path d="M105.1,128.6a4.5,4.5,0,0,1-1.9.5h-1.7a1.7,1.7,0,0,0-.1.7c0,.3,0,.5.1.6a1,1,0,0,0,.7.2l1.8-.2.8-.2q.6,0,.6.3c0,.4-.3.8-.9,1.1a5.4,5.4,0,0,1-2.2.5,2.6,2.6,0,0,1-1.9-.8,2.4,2.4,0,0,1-.7-1.8,4.5,4.5,0,0,1,.6-2.1,5.8,5.8,0,0,1,1.5-1.9,2.9,2.9,0,0,1,1.8-.8,2.2,2.2,0,0,1,1.7.9,2.9,2.9,0,0,1,.8,1.8C106.1,127.8,105.7,128.2,105.1,128.6Zm-1-1.9a.9.9,0,0,0-.6-.3.9.9,0,0,0-.6.4,2.4,2.4,0,0,0-.8.9h.3c1.4,0,2-.3,2-.7A.5.5,0,0,0,104.1,126.7Z"/><path d="M111.3,133.1l1-.3c.2,0,.4,0,.5.2a.8.8,0,0,1,.2.4l-.2.4-.8.5-1,.7-.8.6a.7.7,0,0,1-.6.2c-.1,0-.3-.1-.5-.4a2.4,2.4,0,0,1-.2-.8,13.8,13.8,0,0,1,1.1-3.1,3,3,0,0,1-1.4.5,1.9,1.9,0,0,1-1.3-.7,2.2,2.2,0,0,1-.6-1.3,3.4,3.4,0,0,1,.4-1.5,7.6,7.6,0,0,1,.9-1.8,6.7,6.7,0,0,1,1.5-1.4,2.3,2.3,0,0,1,1.6-.7,1.9,1.9,0,0,1,1.3.7,1.7,1.7,0,0,1,.7,1.3.4.4,0,0,1-.4.4l-.6-.3a.9.9,0,0,0-.6-.3,2.3,2.3,0,0,0-1.4.7,10.9,10.9,0,0,0-1.3,1.7,3.3,3.3,0,0,0-.5,1.2v.2h.2a3.6,3.6,0,0,0,1.5-.8,4.7,4.7,0,0,0,1.2-2,.3.3,0,0,1,.3-.3,1.6,1.6,0,0,1,.9.4q.6.4.6.6a5.1,5.1,0,0,1-.2.9l-.8,1.9Z"/><path d="M119,125a.5.5,0,0,1,.5-.4c.2,0,.5.2.8.6a1.6,1.6,0,0,1,.4,1l-.6,2.1c-.4,1.3-.8,2.3-1,3.1s-.4.6-.7.6l-.5-.2a1.4,1.4,0,0,1-.2-.7,7.4,7.4,0,0,1,.2-1.2c-1,1.4-1.8,2.1-2.3,2.1a1.7,1.7,0,0,1-1.1-.6,1.6,1.6,0,0,1-.7-1.1,10.7,10.7,0,0,1,.8-3.5c.5-1.5,1-2.2,1.5-2.2a1.3,1.3,0,0,1,.7.4,1.1,1.1,0,0,1,.3.8,6.5,6.5,0,0,1-.3,1,7.7,7.7,0,0,0-1.1,3.3h.1c.1,0,.4-.2.8-.7l1.3-1.9A9.7,9.7,0,0,0,119,125Z"/><path d="M122.6,124.6a1.2,1.2,0,0,1,.9.6,2.5,2.5,0,0,1,.4,1.1,18.3,18.3,0,0,1-.5,1.9c-.3,1.2-.7,2.2-1,3.2a.7.7,0,0,1-.7.6.5.5,0,0,1-.5-.3.6.6,0,0,1-.3-.6,8.8,8.8,0,0,1,.4-1.9c.2-1,.4-1.8.5-2.5s.3-1.3.4-1.6S122.4,124.6,122.6,124.6Zm-.2-1.8a1.1,1.1,0,0,1,.3-.7.9.9,0,0,1,.7-.4c.2,0,.4.2.7.8a2.5,2.5,0,0,1,.5,1.1.5.5,0,0,1-.3.5l-.4.2a1.8,1.8,0,0,1-1.5-1.5Z"/><path d="M130.8,120.6c.2,0,.5.2.9.7a1.5,1.5,0,0,1,.5,1.1,11.4,11.4,0,0,1-.5,2.3q-.4,2-.6,2.4c-.7,3.3-1.3,4.9-1.6,4.9a.9.9,0,0,1-.7-.4,1,1,0,0,1-.4-.7h0a4,4,0,0,1-2,1.2,1.5,1.5,0,0,1-1.2-.7,1.7,1.7,0,0,1-.6-1.2,7.4,7.4,0,0,1,.2-1.2,10.3,10.3,0,0,1,.4-1.4,10,10,0,0,1,.8-1.4,4.8,4.8,0,0,1,.9-1.1,2.8,2.8,0,0,1,1.2-.4,1.7,1.7,0,0,1,1.5,1,30.4,30.4,0,0,0,.8-4.5C130.4,120.8,130.5,120.6,130.8,120.6Zm-4.2,9.6a3.1,3.1,0,0,0,1.2-.6A3.8,3.8,0,0,0,129,128v-.5a1.9,1.9,0,0,0-.2-.7l-.5-.4a1,1,0,0,0-.8.5,2.4,2.4,0,0,0-.6,1.1,4.8,4.8,0,0,0-.5,2h.2Z"/><path d="M138.4,127.9c.2.2.3.3.3.5l-.2.7a5.1,5.1,0,0,0-.2.9,4.3,4.3,0,0,1-.1.5v.8a.4.4,0,0,0-.1.3h-.1c0,.1,0,.1-.1.2h-.3c-.1,0-.3-.1-.5-.4a3,3,0,0,1-.4-1c-.9.9-1.6,1.4-2.2,1.4a1.9,1.9,0,0,1-1.4-.7,1.7,1.7,0,0,1-.7-1.3,5.3,5.3,0,0,1,.6-2,9.1,9.1,0,0,1,1.7-2.3,3.1,3.1,0,0,1,2.1-1.1,2.6,2.6,0,0,1,1.4.7c.5.5.8.9.8,1.3A2.7,2.7,0,0,1,138.4,127.9Zm-4.1,2.3a2.8,2.8,0,0,0,1.5-.8,3.9,3.9,0,0,0,1.2-1.9c0-.2.1-.2.2-.2s-.1-.9-.2-.9-.8.3-1.3.8a6.1,6.1,0,0,0-1.2,1.6,2.4,2.4,0,0,0-.4,1.2v.2Z"/><path d="M145.8,120.6c.2,0,.5.2.9.7a2.1,2.1,0,0,1,.5,1.1c0,.2-.2.9-.5,2.3s-.5,2.1-.6,2.4c-.8,3.3-1.3,4.9-1.7,4.9a.7.7,0,0,1-.6-.4.8.8,0,0,1-.4-.7h0a4,4,0,0,1-2,1.2,1.5,1.5,0,0,1-1.2-.7,1.7,1.7,0,0,1-.6-1.2,5.7,5.7,0,0,1,.1-1.2,12.1,12.1,0,0,1,.5-1.4l.7-1.4a5.2,5.2,0,0,1,1-1.1,2.8,2.8,0,0,1,1.2-.4,1.7,1.7,0,0,1,1.5,1,18.5,18.5,0,0,0,.7-4.5A.5.5,0,0,1,145.8,120.6Zm-4.3,9.6a2.8,2.8,0,0,0,1.3-.6A4.8,4.8,0,0,0,144,128v-.5a1.1,1.1,0,0,0-.3-.7c-.1-.2-.3-.4-.4-.4a1,1,0,0,0-.8.5,4.1,4.1,0,0,0-.7,1.1,7.1,7.1,0,0,0-.5,2h.2Z"/><path d="M64.2,141.3c.3,0,.7.3,1.1.9a3.8,3.8,0,0,1,.6,1.9,3,3,0,0,1-.5,1.4,7.9,7.9,0,0,1-1.2,1.5l-1.7,1.1a3.3,3.3,0,0,1-1.8.5h-.2c-.6,2.5-1,3.8-1.3,3.8s-.4-.2-.6-.5a3.1,3.1,0,0,1-.4-.9,17.2,17.2,0,0,1,.5-2,34.9,34.9,0,0,0,1.2-7.5c0-.3.1-.4.4-.4l.9.3a2.1,2.1,0,0,1,.6,1A3.7,3.7,0,0,1,64.2,141.3ZM63,145.7a2.8,2.8,0,0,0,1-1.8c0-.5-.1-.7-.4-.7a1.9,1.9,0,0,0-1.3.7l-.6.8a5,5,0,0,0-.5,1.3l-.3.9A3.3,3.3,0,0,0,63,145.7Z"/><path d="M72.7,144.6a.5.5,0,0,1,.3.4l-.2.8a5.1,5.1,0,0,0-.2.9,1.1,1.1,0,0,0-.1.5c0,.1-.1.2-.1.3v.2c0,.2-.1.2-.1.3v.4h-.4c-.1,0-.3-.1-.5-.4a1.9,1.9,0,0,1-.4-.9,3.6,3.6,0,0,1-2.3,1.3,2.2,2.2,0,0,1-1.3-.6,1.9,1.9,0,0,1-.7-1.4,4.9,4.9,0,0,1,.6-1.9,7.6,7.6,0,0,1,1.7-2.3,2.7,2.7,0,0,1,2.1-1.1,2.3,2.3,0,0,1,1.4.7,1.7,1.7,0,0,1,.7,1.3A2.7,2.7,0,0,1,72.7,144.6Zm-4.1,2.2a2.7,2.7,0,0,0,1.5-.7,3.7,3.7,0,0,0,1.2-2l.2-.2c0-.5-.1-.8-.3-.8a1.7,1.7,0,0,0-1.2.7,8.3,8.3,0,0,0-1.2,1.6,3,3,0,0,0-.4,1.3h.2Z"/><path d="M74.7,143.7v-1.6c0-.6.2-.8.5-.8l.6.2c.2.1.3.4.4.7a2.6,2.6,0,0,1,1.1-.7l1-.3c.7,0,1,.2,1,.5v.4c-.1.1-.2.1-.2.2h-.2v.2l-.5.2a5.2,5.2,0,0,0-1.1,1,4.8,4.8,0,0,0-.7,1.6c-.3,1.1-.5,1.9-.7,2.4s-.6.8-.9.8a.5.5,0,0,1-.6-.4,1.6,1.6,0,0,1-.3-.8,3,3,0,0,1,.3-1.1c.2-.5.3-1,.4-1.3A5.3,5.3,0,0,0,74.7,143.7Z"/><path d="M85.2,144.6l.2.4a3.2,3.2,0,0,1-.1.8,9.2,9.2,0,0,0-.3.9.7.7,0,0,1-.1.5v1c0,.1,0,.2-.1.2h-.3c-.2,0-.3-.1-.5-.4a1.9,1.9,0,0,1-.5-.9,3.5,3.5,0,0,1-2.2,1.3,2.4,2.4,0,0,1-1.4-.6,2.3,2.3,0,0,1-.7-1.4,4.9,4.9,0,0,1,.6-1.9,9.8,9.8,0,0,1,1.7-2.3,2.7,2.7,0,0,1,2.1-1.1,2.1,2.1,0,0,1,1.4.7,1.9,1.9,0,0,1,.8,1.3A2.7,2.7,0,0,1,85.2,144.6ZM81,146.8a2.5,2.5,0,0,0,1.5-.7,2.8,2.8,0,0,0,1.2-2c0-.1.1-.2.3-.2s-.2-.8-.3-.8a1.9,1.9,0,0,0-1.3.7,8.3,8.3,0,0,0-1.2,1.6,3,3,0,0,0-.4,1.3H81Z"/><path d="M95.2,144.1l-.5,1.7-.3,1.1h.2l1.1-.4,1.1-.3c.2,0,.3.2.3.5s-.3.7-.9,1.2a3.9,3.9,0,0,1-2,.6,1.5,1.5,0,0,1-1.1-.5,1.2,1.2,0,0,1-.6-1,6.5,6.5,0,0,1,.4-1.8l.6-1.9-.9.2c-.1,0-.3-.1-.6-.4a1.3,1.3,0,0,1-.3-.7c0-.4.8-.6,2.2-.8a11.1,11.1,0,0,0,.3-2.3.4.4,0,0,1,.4-.4,1.6,1.6,0,0,1,1,.4,1.2,1.2,0,0,1,.6.9,7.4,7.4,0,0,1-.2,1.2h1c.7,0,1.1.1,1.1.5s-.2.4-.6.5l-1.9.5Z"/><path d="M99.3,142.9c.8-1.1,1.5-1.6,2.2-1.6a2.5,2.5,0,0,1,1.9.7,2.6,2.6,0,0,1,.7,1.9,6.3,6.3,0,0,1-.5,2.2,4.9,4.9,0,0,1-1.4,1.8,3.2,3.2,0,0,1-2,.7,1.6,1.6,0,0,1-1.4-.7,2.4,2.4,0,0,1-.6-1.7A5.9,5.9,0,0,1,99.3,142.9Zm2.4,2.9a4.9,4.9,0,0,0,.5-2c0-.6,0-1-.2-1.2a3.2,3.2,0,0,0-1.2,1.5,4.5,4.5,0,0,0-.6,2,2.8,2.8,0,0,0,.1,1.1A3.1,3.1,0,0,0,101.7,145.8Z"/><path d="M110.9,137.3q.3,0,.9.6a1.7,1.7,0,0,1,.6,1.2l-.5,2.2a12.6,12.6,0,0,0-.6,2.4c-.8,3.3-1.3,4.9-1.7,4.9l-.7-.3a1.1,1.1,0,0,1-.3-.7h0a4.1,4.1,0,0,1-2.1,1.1,1.7,1.7,0,0,1-1.2-.6,1.9,1.9,0,0,1-.5-1.2,4.9,4.9,0,0,1,.1-1.2,7.8,7.8,0,0,1,.5-1.4,6.1,6.1,0,0,1,.7-1.4,3.6,3.6,0,0,1,1-1.1,1.9,1.9,0,0,1,1.2-.4,1.8,1.8,0,0,1,1.5.9,23.4,23.4,0,0,0,.7-4.5C110.5,137.4,110.6,137.3,110.9,137.3Zm-4.2,9.5,1.2-.6a3.7,3.7,0,0,0,1.3-1.5v-.5a1.3,1.3,0,0,0-.3-.8c-.2-.2-.3-.3-.5-.3a1,1,0,0,0-.8.4,6,6,0,0,0-.6,1.1,8,8,0,0,0-.5,2v.2Z"/><path d="M118.6,144.6a.4.4,0,0,1,.2.4,3.2,3.2,0,0,1-.1.8l-.3.9a.7.7,0,0,1-.1.5v1.2h-.4c-.2,0-.3-.1-.5-.4a1.9,1.9,0,0,1-.5-.9,3.5,3.5,0,0,1-2.2,1.3,1.9,1.9,0,0,1-1.3-.6,2.1,2.1,0,0,1-.8-1.4,4,4,0,0,1,.7-1.9,7.3,7.3,0,0,1,1.6-2.3,2.7,2.7,0,0,1,2.1-1.1,2.1,2.1,0,0,1,1.4.7,1.9,1.9,0,0,1,.8,1.3A2.7,2.7,0,0,1,118.6,144.6Zm-4.2,2.2a2.5,2.5,0,0,0,1.5-.7,2.8,2.8,0,0,0,1.2-2c0-.1.1-.2.3-.2s-.2-.8-.3-.8a1.9,1.9,0,0,0-1.3.7,7.6,7.6,0,0,0-1.1,1.6,3.6,3.6,0,0,0-.5,1.3h.2Z"/><path d="M128.2,137.9a2.1,2.1,0,0,1,.5,1.2,17.2,17.2,0,0,1-.1,2c-.2,1-.3,1.8-.4,2.4-.8,3.4-1.3,5.1-1.7,5.1s-.4-.1-.7-.5a1.5,1.5,0,0,1-.5-.8s.1-.5.4-1.5.5-2.2.8-3.7a35.9,35.9,0,0,0,.4-4.4c0-.3.1-.4.4-.4S127.8,137.5,128.2,137.9Z"/><path d="M135.2,144.6a.8.8,0,0,1,.2.4,1.7,1.7,0,0,1-.2.8,5.1,5.1,0,0,0-.2.9,4.3,4.3,0,0,1-.1.5v1c0,.1,0,.2-.1.2h-.4c-.1,0-.3-.1-.5-.4a3.9,3.9,0,0,1-.4-.9,3.5,3.5,0,0,1-2.2,1.3,2.2,2.2,0,0,1-1.4-.6,2.3,2.3,0,0,1-.7-1.4,4.9,4.9,0,0,1,.6-1.9,7.6,7.6,0,0,1,1.7-2.3,2.7,2.7,0,0,1,2.1-1.1,2.1,2.1,0,0,1,1.4.7,1.9,1.9,0,0,1,.8,1.3A4.6,4.6,0,0,1,135.2,144.6Zm-4.2,2.2a2.5,2.5,0,0,0,1.5-.7,3.2,3.2,0,0,0,1.2-2l.2-.2c0-.5-.1-.8-.2-.8a1.9,1.9,0,0,0-1.3.7,8.3,8.3,0,0,0-1.2,1.6,3,3,0,0,0-.4,1.3h.2Z"/><path d="M74.4,157.9c.3,0,.7.4,1.1,1a3.3,3.3,0,0,1,.6,1.9,2.7,2.7,0,0,1-.5,1.3,5.7,5.7,0,0,1-1.2,1.5,6.6,6.6,0,0,1-1.7,1.2,4.9,4.9,0,0,1-1.8.5h-.2c-.6,2.5-1,3.7-1.3,3.7s-.4-.2-.6-.5a2,2,0,0,1-.4-.8,17.2,17.2,0,0,1,.5-2,36.5,36.5,0,0,0,1.2-7.6c0-.3.1-.4.4-.4a1.6,1.6,0,0,1,.9.4,1.7,1.7,0,0,1,.6,1A3.5,3.5,0,0,1,74.4,157.9Zm-1.2,4.4a2.4,2.4,0,0,0,1-1.7c0-.5-.1-.8-.4-.8a2.4,2.4,0,0,0-1.3.7l-.6.9a3.9,3.9,0,0,0-.5,1.3l-.3.9A3.9,3.9,0,0,0,73.2,162.3Z"/><path d="M77.9,159.5a3.1,3.1,0,0,1,2.2-1.6,2.5,2.5,0,0,1,1.8.8,2.4,2.4,0,0,1,.7,1.8,4.4,4.4,0,0,1-.5,2.2,4.5,4.5,0,0,1-1.4,1.9,3.1,3.1,0,0,1-2,.7,1.7,1.7,0,0,1-1.4-.7,3.1,3.1,0,0,1-.5-1.7A5.5,5.5,0,0,1,77.9,159.5Zm2.3,3a4.1,4.1,0,0,0,.6-2,2.3,2.3,0,0,0-.3-1.3,4.9,4.9,0,0,0-1.2,1.5,4.8,4.8,0,0,0-.6,2.1c0,.5,0,.9.2,1A2.7,2.7,0,0,0,80.2,162.5Z"/><path d="M88.9,157.9a1.5,1.5,0,0,1,1.2.8,2.2,2.2,0,0,1,.6,1.4,4.9,4.9,0,0,1-.3,1.5,5.3,5.3,0,0,1-.8,1.7,4.1,4.1,0,0,1-1.2,1.4,2.5,2.5,0,0,1-1.6.6,3.7,3.7,0,0,1-1.9-.8c-.1.5-.3.8-.4.8a1.5,1.5,0,0,1-.8-.5,1.2,1.2,0,0,1-.4-.8,12.3,12.3,0,0,1,.4-2.1,30.2,30.2,0,0,0,1.4-7.5.5.5,0,0,1,.5-.5c.2,0,.5.2.8.7a1.7,1.7,0,0,1,.6,1.1,15.8,15.8,0,0,1-.7,4C87.4,158.5,88.2,157.9,88.9,157.9Zm-2.3,5.7c.5,0,1-.4,1.6-1.2A4.6,4.6,0,0,0,89,160h-.2a2.6,2.6,0,0,0-1.7.9,9.1,9.1,0,0,0-1.6,2.4A1.9,1.9,0,0,0,86.6,163.6Z"/><path d="M94.3,154.6a1.7,1.7,0,0,1,.6,1.2c0,.3-.1,1-.2,2s-.2,1.8-.3,2.3c-.8,3.5-1.4,5.2-1.7,5.2a1.5,1.5,0,0,1-.8-.5,1.2,1.2,0,0,1-.4-.8,8,8,0,0,1,.4-1.5c.2-1,.5-2.2.7-3.8a22.2,22.2,0,0,0,.4-4.3.5.5,0,0,1,.5-.5C93.7,153.9,94,154.1,94.3,154.6Z"/><path d="M101.3,161.2c.2.2.3.3.3.5s-.1.3-.2.7a5.1,5.1,0,0,0-.2.9,1.3,1.3,0,0,0-.1.5.4.4,0,0,1-.1.3v.8h-.1v.2h-.3c-.1,0-.3-.1-.5-.4a3,3,0,0,1-.4-1,3.9,3.9,0,0,1-2.3,1.4,1.9,1.9,0,0,1-1.3-.7,1.7,1.7,0,0,1-.7-1.3,5.3,5.3,0,0,1,.6-2,9.1,9.1,0,0,1,1.7-2.3,3.1,3.1,0,0,1,2.1-1.1,3,3,0,0,1,1.4.7,1.9,1.9,0,0,1,.7,1.3A2.4,2.4,0,0,1,101.3,161.2Zm-4.1,2.3a3.6,3.6,0,0,0,1.5-.8,3.9,3.9,0,0,0,1.2-1.9c0-.2,0-.2.2-.2s-.1-.9-.3-.9a1.7,1.7,0,0,0-1.2.8,6.1,6.1,0,0,0-1.2,1.6,2.8,2.8,0,0,0-.5,1.2v.2Z"/><path d="M102.5,163.1a4,4,0,0,1,.7-2.2,6.5,6.5,0,0,1,1.6-2.1,3.2,3.2,0,0,1,2-.9,1.5,1.5,0,0,1,1,.7,1.7,1.7,0,0,1,.6,1.2c0,.2-.1.3-.4.3h-.4l-.7-.2q-.3,0-.9.6a6.3,6.3,0,0,0-1,1.2,2.4,2.4,0,0,0-.4,1.2c0,.3,0,.5.1.6h2l.8-.2.4-.2c.3,0,.4.1.4.4s-.4.8-1.1,1.2a3.8,3.8,0,0,1-2.2.7,2.7,2.7,0,0,1-1.6-.8A2.1,2.1,0,0,1,102.5,163.1Z"/><path d="M111.1,157.9a1,1,0,0,1,.9.6,1.9,1.9,0,0,1,.4,1.1c0,.2-.2.8-.5,2a28.1,28.1,0,0,1-1,3.1.7.7,0,0,1-.7.6.5.5,0,0,1-.5-.3.6.6,0,0,1-.3-.6c0-.2.2-.8.4-1.8s.4-1.9.6-2.6a15.7,15.7,0,0,1,.3-1.6C110.8,158.1,111,157.9,111.1,157.9Zm-.2-1.8a1.1,1.1,0,0,1,.3-.7c.3-.3.5-.4.7-.4s.5.3.8.8a2.4,2.4,0,0,1,.4,1.1.8.8,0,0,1-.2.5l-.5.2a1.8,1.8,0,0,1-1.5-1.5Z"/><path d="M114.3,159.5c.7-1,1.4-1.6,2.1-1.6a2.6,2.6,0,0,1,1.9.8,2.4,2.4,0,0,1,.7,1.8,5.9,5.9,0,0,1-.5,2.2,4.5,4.5,0,0,1-1.4,1.9,3.2,3.2,0,0,1-2,.7,1.7,1.7,0,0,1-1.4-.7,2.5,2.5,0,0,1-.6-1.7A5.6,5.6,0,0,1,114.3,159.5Zm2.3,3a3.9,3.9,0,0,0,.5-2,2.4,2.4,0,0,0-.2-1.3,4.9,4.9,0,0,0-1.2,1.5,4.8,4.8,0,0,0-.6,2.1,2.2,2.2,0,0,0,.1,1A2.9,2.9,0,0,0,116.6,162.5Zm.7-4.9-.4-.2a.9.9,0,0,1-.1-.5,1.3,1.3,0,0,1,.1-.6l.6-.5.6-.6.4-.3.3-.2.2-.2h.4a.7.7,0,0,1,.6.4,1.1,1.1,0,0,1,.3.7c0,.2,0,.3-.1.4l-.2.3-.3.2-.6.3-.6.3-.5.3Z"/><path d="M124.9,157.9a1.7,1.7,0,0,1,1.3.7,2,2,0,0,1,.6,1.4,8.2,8.2,0,0,1-.4,2.6,7.5,7.5,0,0,1-.9,2c-.3.5-.6.7-.9.7s-.5-.2-.5-.7a10.8,10.8,0,0,1,.5-2,13,13,0,0,0,.4-1.9c0-.4-.1-.5-.2-.5h-.4l-.2.4-.3.3-.3.4c0,.2-.1.3-.2.5l-.3.5-.3.4c-.8,1.7-1.5,2.5-2,2.5a1.5,1.5,0,0,1-.8-.5c-.3-.4-.5-.6-.5-.8l.2-.7a1.6,1.6,0,0,0,.3-.8.8.8,0,0,0,.2-.6c0-.2.1-.4.1-.6a3.5,3.5,0,0,1,.1-.6v-.6c.1-1.3.2-1.9.2-2.1l.3-.2a1.6,1.6,0,0,1,1,.5c.3.3.5.5.5.8a10.8,10.8,0,0,1-.5,2.5l1.7-2.6C124.1,158.3,124.6,157.9,124.9,157.9Z"/><path d="M129.3,165.5a1.2,1.2,0,0,1-1-.5c-.4-.4-.6-.7-.6-1a1.6,1.6,0,0,1,.3-.8,1,1,0,0,1,.8-.4c.2,0,.5.3.8.8a2.4,2.4,0,0,1,.4,1.2.6.6,0,0,1-.2.5A.6.6,0,0,1,129.3,165.5Z"/><g class="cls-3"><path d="M2.3,116a25.7,25.7,0,0,0,4-.6,23.2,23.2,0,0,0,3.7-1.3,13.9,13.9,0,0,0,5.7-4.7,12.3,12.3,0,0,0,1.4-3.1,9.7,9.7,0,0,0,.5-3.4,33.6,33.6,0,0,0-1-7.4c-2.2-10.7-4.2-21.7-4.3-33.1s2-23.5,7.9-34.2a47.3,47.3,0,0,1,12-14.5,45.7,45.7,0,0,1,17-8A99.5,99.5,0,0,1,66.6,3.3L74.9,3c2.8,0,5.8-.1,8.9.2a45.2,45.2,0,0,1,9.3,1.9,39.3,39.3,0,0,1,8.5,4c2.6,1.5,4.9,3.1,7.2,4.7l6.6,4.8,6.7,4.9,3.3,2.5,3.2,2.6a52,52,0,0,1,12,12.7,51.3,51.3,0,0,1,6.5,15.8c.7,2.7,1.2,5.4,1.7,8.1s.8,5.4,1.1,8.2c-1.1-2.6-2-5.1-3.1-7.6s-2-5.1-3.2-7.5a53.1,53.1,0,0,0-8.3-13.1c-3.3-3.8-7.4-6.7-11.8-9.5l-3.4-2.1-3.5-2.1-7-4.1-6.9-4.2L96,19.4a38.3,38.3,0,0,0-6.5-2.6,27,27,0,0,0-6.6-.9,63.1,63.1,0,0,0-7.5.1l-8,.5a77.6,77.6,0,0,0-14.9,2.1,32.2,32.2,0,0,0-12.3,5.6,35.9,35.9,0,0,0-9.1,10.2,49,49,0,0,0-3.2,6.5,40.5,40.5,0,0,0-2.5,6.9,73.5,73.5,0,0,0-2.6,15c-.9,10.3-.3,21,.3,31.9a43.9,43.9,0,0,1-.3,8.8,15.2,15.2,0,0,1-4.3,8.3,17.4,17.4,0,0,1-7.9,4.2A19.4,19.4,0,0,1,2.3,116Z"/></g><path class="cls-4" d="M26.1,202a46.2,46.2,0,0,0-3.3,6.7,29.5,29.5,0,0,0-2.1,6.8,21.7,21.7,0,0,0-.5,6.7,14,14,0,0,0,1.8,6l.8,1.3,1.1,1.2a13.5,13.5,0,0,0,2.7,2,18.7,18.7,0,0,0,6.8,2.1,44.2,44.2,0,0,0,16-1.2l4.1-1.1a28.3,28.3,0,0,0,4.1-1.4,72.2,72.2,0,0,0,8.1-3.3,111.9,111.9,0,0,0,15.5-8.7,123.3,123.3,0,0,0,25.7-22.8c-4.8,3.1-9.5,6.2-14.2,9s-9.4,5.6-14,8c-9.4,4.8-18.8,8.8-27.6,10.9s-17.1,2.3-21.2-1.8a13.2,13.2,0,0,1-2.5-3.8,18.5,18.5,0,0,1-1.2-4.9A50.6,50.6,0,0,1,26.1,202Z"/><path class="cls-1" d="M26.4,206.1a44.8,44.8,0,0,0-5.2,13.3c-.9,4.3-.9,8.8,1,12.4a11.4,11.4,0,0,0,1.8,2.5l.6.6.7.5,1.5.9a16.6,16.6,0,0,0,7.4,1.5,36.1,36.1,0,0,0,8-.7,77.3,77.3,0,0,0,8-1.9,140.8,140.8,0,0,0,30.7-13.9,175.4,175.4,0,0,0,27.6-19.8l-2.1-2.6C97.2,204.7,88,210,78.7,214.8a181.4,181.4,0,0,1-27.8,11.7,59.3,59.3,0,0,1-6.6,1.8,34.6,34.6,0,0,1-6.1.9,14.7,14.7,0,0,1-4.9-.4l-.9-.4-.9-.5-1.7-1.4c-2-2.1-3.1-5.2-3.5-8.8A64.6,64.6,0,0,1,26.4,206.1Z"/><polygon class="cls-1" points="99.4 196.8 112.1 196.5 109.9 207.8 99.4 196.8"/><path class="cls-5" d="M18.7,189.8v18.1H14.3V189.8Z"/><path class="cls-5" d="M36.8,203.5a7.3,7.3,0,0,1-3.3,3.2,10,10,0,0,1-5,1.2H21.7V189.8h6.8a9.7,9.7,0,0,1,5,1.2,7.6,7.6,0,0,1,3.3,3.1,9.3,9.3,0,0,1,1.1,4.7A8.8,8.8,0,0,1,36.8,203.5Zm-4.7-.9a4.7,4.7,0,0,0,1.4-3.8,4.8,4.8,0,0,0-1.4-3.8,5.5,5.5,0,0,0-4-1.3h-2V204h2A5.6,5.6,0,0,0,32.1,202.6Z"/><path class="cls-5" d="M44.8,193.3v3.8h6.1v3.3H44.8v4h6.8v3.5H40.4V189.8H51.6v3.5Z"/><path class="cls-5" d="M65.3,204.6H58.5l-1.1,3.3H52.8L59.4,190h5.1l6.6,17.9H66.4Zm-1.1-3.3-2.3-6.7-2.2,6.7Z"/><path class="cls-5" d="M85.3,195.2q0-2.1-1.8-2.1a1.8,1.8,0,0,0-1.5.7,5.5,5.5,0,0,0-.5,2.2H77.3a6.7,6.7,0,0,1,1.9-4.9,7,7,0,0,1,4.7-1.7,5.9,5.9,0,0,1,4.4,1.5,5.3,5.3,0,0,1,1.5,3.9,8.5,8.5,0,0,1-2,5.1,19.7,19.7,0,0,1-4.8,4.3h7.1v3.5H77.2v-3.3C82.6,200.6,85.3,197.5,85.3,195.2Z"/></g></svg>