<svg xmlns="http://www.w3.org/2000/svg" viewBox="0 0 558 369.4"><defs><style>.cls-1{fill:#72be44;}.cls-2{fill:#ecf8fe;stroke:#52474c;stroke-miterlimit:10;stroke-width:3.42px;}.cls-3{opacity:0.19;}.cls-4{opacity:0.12;}.cls-5{fill:#fff;}</style></defs><title>act1_idea1</title><g id="act1_idea1"><rect class="cls-1" y="36.3" width="151" height="47"/><path class="cls-2" d="M158.5,63.5c-46.9,25.7-90.5,78.8-82,142.4,8.2,61,61.5,111.9,132,124.2a36.2,36.2,0,0,1-10,19.2c-9.5,9.6-21.6,11.5-25,11.9,2.4,1,21.2,8.9,41,0a44.3,44.3,0,0,0,23-23.8,431.3,431.3,0,0,0,105-10c47.4-10.5,167.5-37.1,203-125.1,3.2-7.9,26.9-69.4-8-118.7C497.8,27.4,218.5,30.6,158.5,63.5Z"/><path d="M292.8,78.5c0,.5-.3.7-.8.7a3.7,3.7,0,0,1-2-1.1c-.8-.7-1.3-1.2-1.3-1.6a37.1,37.1,0,0,1,1.2-6.6c.7-3.4,1.4-5.1,2-5.1a1.9,1.9,0,0,1,1.3.7,2.2,2.2,0,0,1,.6,1.4,6.9,6.9,0,0,1-.2,1.6c-.1.9-.3,2.2-.5,4A56,56,0,0,0,292.8,78.5Zm2.5-17a1.8,1.8,0,0,1-.6,1.3,1.3,1.3,0,0,1-1.1.7c-.4,0-.8-.5-1.3-1.4a4,4,0,0,1-.7-1.9,1,1,0,0,1,.4-.8,1.1,1.1,0,0,1,.8-.3,2.6,2.6,0,0,1,1.6.9A2.5,2.5,0,0,1,295.3,61.5Z"/><path d="M307.7,55.4q.8,0,1.5,1.2a4,4,0,0,1,.8,2c0,.5-.1.8-.3.8h-1.5a4.6,4.6,0,0,0-2.8,1.5,13.4,13.4,0,0,0-2.8,3.8,7.9,7.9,0,0,0-1.2,3.7,3.3,3.3,0,0,0,.2,1.2,1.2,1.2,0,0,0,.9.3,10.6,10.6,0,0,0,3.5-.5l2.8-1,1.3-.5c.1,0,.2,0,.3.2a1.4,1.4,0,0,1,.2.7c0,.6-.5,1.2-1.3,2a14.2,14.2,0,0,1-3.2,1.9,7.9,7.9,0,0,1-3.4.8,4.6,4.6,0,0,1-3.2-1.8,5.5,5.5,0,0,1-1.7-3.5,11.9,11.9,0,0,1,1.5-5.3,18.2,18.2,0,0,1,3.9-5.2A6.7,6.7,0,0,1,307.7,55.4Z"/><path d="M317.6,54.9a3.1,3.1,0,0,1,1,2.1,34.5,34.5,0,0,1-.3,3.5c-.2,1.7-.4,3-.6,4-1.4,5.9-2.3,8.9-2.9,8.9a2.1,2.1,0,0,1-1.3-.9,2.9,2.9,0,0,1-.8-1.4c0-.1.2-.9.7-2.6s.8-3.8,1.3-6.4a49.9,49.9,0,0,0,.7-7.5c0-.5.2-.7.7-.7S317,54.2,317.6,54.9Z"/><path d="M329.6,66.4c.3.3.4.5.4.7a5.3,5.3,0,0,1-.3,1.3c-.2.7-.3,1.2-.4,1.6s-.1.7-.1.9a.9.9,0,0,0-.1.5.8.8,0,0,1-.1.4c0,.2-.1.3-.1.4s0,.3-.1.4a.4.4,0,0,1-.1.3l-.2.3a.6.6,0,0,1-.5.2c-.2,0-.5-.3-.8-.7a4.5,4.5,0,0,1-.8-1.7c-1.5,1.6-2.8,2.4-3.8,2.4a4.3,4.3,0,0,1-3.5-3.5,7.9,7.9,0,0,1,1-3.3,14.1,14.1,0,0,1,2.9-4,5,5,0,0,1,3.6-1.9,3.9,3.9,0,0,1,2.4,1.2,3.3,3.3,0,0,1,1.3,2.2A4.6,4.6,0,0,1,329.6,66.4Zm-7.1,3.9a5.1,5.1,0,0,0,2.6-1.4,5.4,5.4,0,0,0,2-3.3c0-.2.2-.3.4-.4s-.2-1.4-.5-1.4a3.5,3.5,0,0,0-2.1,1.3,11.7,11.7,0,0,0-2,2.7,5.9,5.9,0,0,0-.8,2.2c0,.1,0,.2.1.2Z"/><path d="M333,64.9V62.1c0-.9.3-1.4.8-1.4a1.3,1.3,0,0,1,1,.4,1.8,1.8,0,0,1,.7,1.1l1.8-1.1a4.9,4.9,0,0,1,1.8-.5q1.8,0,1.8.9a.8.8,0,0,1-.2.6c-.1.1-.2.2-.2.3l-.3.3-.3.2-.8.5a6.3,6.3,0,0,0-1.9,1.7,6.8,6.8,0,0,0-1.2,2.7,26.8,26.8,0,0,1-1.3,4.2c-.4.9-.9,1.3-1.4,1.3a1.1,1.1,0,0,1-1.1-.7,2.5,2.5,0,0,1-.4-1.4,6.7,6.7,0,0,1,.5-1.9,13.1,13.1,0,0,0,.6-2.3A6.8,6.8,0,0,0,333,64.9Z"/><path d="M342.3,63.4c1.3-1.8,2.5-2.7,3.8-2.7a4,4,0,0,1,3.1,1.3,4.2,4.2,0,0,1,1.3,3.2,8.4,8.4,0,0,1-.9,3.7,8,8,0,0,1-2.5,3.2,5.5,5.5,0,0,1-3.4,1.3,2.9,2.9,0,0,1-2.3-1.2,4.4,4.4,0,0,1-1-3A10.8,10.8,0,0,1,342.3,63.4Zm4,5.1a6.6,6.6,0,0,0,1-3.4,3.6,3.6,0,0,0-.5-2.1,6.1,6.1,0,0,0-2.1,2.5,7.8,7.8,0,0,0-1,3.5,3.8,3.8,0,0,0,.3,1.9A5.4,5.4,0,0,0,346.3,68.5Z"/><path d="M353.7,71.2a1.8,1.8,0,0,1,.6-1.3,1.3,1.3,0,0,1,1.1-.7c.4,0,.8.5,1.3,1.3a4.7,4.7,0,0,1,.7,2,.9.9,0,0,1-.4.7.9.9,0,0,1-.8.4,2.6,2.6,0,0,1-1.6-.9A2.5,2.5,0,0,1,353.7,71.2Zm2.5-17c0-.5.3-.7.8-.7a3.7,3.7,0,0,1,2,1.1c.8.7,1.3,1.2,1.3,1.5a37.7,37.7,0,0,1-1.2,6.7c-.7,3.4-1.4,5.1-2,5.1a2.6,2.6,0,0,1-1.9-2.1,6.9,6.9,0,0,1,.2-1.6c.1-.9.3-2.2.5-4.1A54.1,54.1,0,0,0,356.2,54.2Z"/><path d="M184.4,92.3c.3,0,.8-.7,1.6-2.1s1.5-2.8,2.3-4.2,1.3-2.1,1.7-2.1a1.9,1.9,0,0,1,1.4.8,3.5,3.5,0,0,1,.5,1.8,6.7,6.7,0,0,1-1.3,2.8c-.8,1.4-1.9,3.2-3.2,5.2a54.1,54.1,0,0,0-3,5.3,9.4,9.4,0,0,1-1,1.4,2.1,2.1,0,0,1-1.4.7c-.7,0-1-.5-1-1.6s.6-2,1.9-4.3l.4-.8a5.2,5.2,0,0,1-2-1.4,7.7,7.7,0,0,1-1.4-2.1,12.6,12.6,0,0,1-1-4.9,6.1,6.1,0,0,1,.3-2.2,1.4,1.4,0,0,1,1.3-.7c.4,0,.7.3.8.8a8.1,8.1,0,0,1,.5,2.1,12.6,12.6,0,0,0,.7,2.5,7.5,7.5,0,0,0,1,2C183.9,92,184.2,92.3,184.4,92.3Z"/><path d="M193.2,92c1.2-1.8,2.5-2.7,3.7-2.7a4.2,4.2,0,0,1,3.2,1.3,4.5,4.5,0,0,1,1.2,3.1,10.4,10.4,0,0,1-.8,3.8,9.9,9.9,0,0,1-2.5,3.2,5.6,5.6,0,0,1-3.4,1.2,3.1,3.1,0,0,1-2.4-1.2,4.6,4.6,0,0,1-.9-2.9A9.8,9.8,0,0,1,193.2,92Zm3.9,5.1a6.6,6.6,0,0,0,1-3.4,3.5,3.5,0,0,0-.4-2.1,6.1,6.1,0,0,0-2.1,2.5,7.8,7.8,0,0,0-1.1,3.5,3.1,3.1,0,0,0,.3,1.8A4.7,4.7,0,0,0,197.1,97.1Z"/><path d="M212,98.1a7.4,7.4,0,0,1,1.1-3.8,10.6,10.6,0,0,1,2.8-3.5,5.4,5.4,0,0,1,3.4-1.5,2.6,2.6,0,0,1,1.8,1.1,3.5,3.5,0,0,1,.9,2c0,.5-.2.7-.6.7l-.8-.3a1.9,1.9,0,0,0-1-.3,2.9,2.9,0,0,0-1.6.9,13.7,13.7,0,0,0-1.7,2.3,3.5,3.5,0,0,0-.8,2q0,.8.3.9c.2.2.6.2,1.3.2h2l1.4-.5.7-.2c.5,0,.7.2.7.6s-.6,1.5-1.9,2.2a6.6,6.6,0,0,1-3.7,1.1,4.2,4.2,0,0,1-2.8-1.3A3.6,3.6,0,0,1,212,98.1Z"/><path d="M225.3,93.4V90.7c0-.9.3-1.4.8-1.4a1.4,1.4,0,0,1,1,.4,2.3,2.3,0,0,1,.7,1.1l1.8-1.2a4.5,4.5,0,0,1,1.8-.4c1.2,0,1.8.3,1.8.8a1.4,1.4,0,0,1-.2.7l-.2.3-.3.2-.3.3-.8.5a6,6,0,0,0-1.9,1.6,8.5,8.5,0,0,0-1.2,2.7,21.3,21.3,0,0,1-1.3,4.2c-.4,1-.9,1.4-1.4,1.4a1.1,1.1,0,0,1-1.1-.7,2.7,2.7,0,0,1-.4-1.4,5.1,5.1,0,0,1,.5-2,12.3,12.3,0,0,0,.6-2.2A7.2,7.2,0,0,0,225.3,93.4Z"/><path d="M242.2,96a6.1,6.1,0,0,1-3.4,1,11.4,11.4,0,0,1-2.8-.3,6.8,6.8,0,0,0-.2,1.4,2,2,0,0,0,.2.9,1.4,1.4,0,0,0,1.1.3,10.4,10.4,0,0,0,3.2-.4l1.3-.3c.7,0,1,.2,1,.7s-.5,1.2-1.6,1.8a6.8,6.8,0,0,1-3.6.8,4.2,4.2,0,0,1-3.3-1.3,3.9,3.9,0,0,1-1.3-3,7.5,7.5,0,0,1,1.1-3.7,10.6,10.6,0,0,1,2.6-3.3,4.7,4.7,0,0,1,3.1-1.3,4,4,0,0,1,2.9,1.5,4.7,4.7,0,0,1,1.3,3.1C243.8,94.7,243.3,95.4,242.2,96Zm-1.8-3.2a1.4,1.4,0,0,0-.9-.5,1.9,1.9,0,0,0-1.2.7,7,7,0,0,0-1.3,1.6h.6c2.2,0,3.4-.4,3.4-1.2S240.8,93.1,240.4,92.8Z"/><path d="M246.6,92c1.2-1.8,2.5-2.7,3.7-2.7a4.2,4.2,0,0,1,3.2,1.3,4.5,4.5,0,0,1,1.2,3.1,8.8,8.8,0,0,1-.9,3.8,8.5,8.5,0,0,1-2.4,3.2,5.6,5.6,0,0,1-3.4,1.2,3.1,3.1,0,0,1-2.4-1.2,4.6,4.6,0,0,1-.9-2.9A9.8,9.8,0,0,1,246.6,92Zm3.9,5.1a6.6,6.6,0,0,0,1-3.4,3.5,3.5,0,0,0-.4-2.1,6.1,6.1,0,0,0-2.1,2.5,7.8,7.8,0,0,0-1.1,3.5,3.1,3.1,0,0,0,.3,1.8A4.7,4.7,0,0,0,250.5,97.1Z"/><path d="M273.3,103.8a4.1,4.1,0,0,1,1.8-.5,1.2,1.2,0,0,1,.9.3,1.3,1.3,0,0,1,.3.7.8.8,0,0,1-.4.7l-1.2.9-1.8,1.2-1.4,1.1-.9.3c-.3,0-.6-.2-.9-.7a2.7,2.7,0,0,1-.5-1.3,33.5,33.5,0,0,1,1.9-5.5,4.5,4.5,0,0,1-2.3.9,4.1,4.1,0,0,1-3.3-3.4,7.3,7.3,0,0,1,.6-2.6,15.2,15.2,0,0,1,1.7-3,9.9,9.9,0,0,1,2.5-2.5,4.5,4.5,0,0,1,2.7-1.1,3.3,3.3,0,0,1,2.3,1.1,3.1,3.1,0,0,1,1.1,2.2c0,.5-.2.7-.6.7l-1-.5a1.9,1.9,0,0,0-1-.5,3.6,3.6,0,0,0-2.4,1.3,11.3,11.3,0,0,0-2.2,2.8,5.2,5.2,0,0,0-.9,2.1v.3h.4a4.4,4.4,0,0,0,2.6-1.4,6.1,6.1,0,0,0,2.1-3.4.5.5,0,0,1,.6-.4,3.7,3.7,0,0,1,1.5.6c.7.5,1,.8,1,1.1a4.7,4.7,0,0,1-.4,1.5l-1.4,3.3C274.2,101.6,273.7,102.8,273.3,103.8Z"/><path d="M286.7,89.9a.8.8,0,0,1,.8-.6c.4,0,.8.3,1.3,1a3.6,3.6,0,0,1,.8,1.7c0,.2-.4,1.4-1.1,3.6s-1.4,4-1.8,5.3-.6,1-1.1,1a1.1,1.1,0,0,1-.8-.3,1.4,1.4,0,0,1-.4-1.1,11.2,11.2,0,0,1,.3-2.2c-1.7,2.4-3,3.6-4,3.6a3.2,3.2,0,0,1-1.9-1,2.9,2.9,0,0,1-1.1-2,19.2,19.2,0,0,1,1.4-6c.8-2.4,1.7-3.6,2.5-3.6a1.6,1.6,0,0,1,1.2.6,2.2,2.2,0,0,1,.6,1.4,6.7,6.7,0,0,1-.6,1.7c-1.3,2.7-1.9,4.6-1.9,5.7h.1c.3,0,.7-.4,1.4-1.1a18,18,0,0,0,2.3-3.4A24.8,24.8,0,0,0,286.7,89.9Z"/><path d="M299.3,96a5.8,5.8,0,0,1-3.3,1,10.9,10.9,0,0,1-2.8-.3,3.4,3.4,0,0,0-.2,1.4c0,.4,0,.7.2.9s.5.3,1.1.3a9.3,9.3,0,0,0,3.1-.4l1.4-.3c.7,0,1,.2,1,.7s-.5,1.2-1.6,1.8a7.1,7.1,0,0,1-3.6.8,4.5,4.5,0,0,1-3.4-1.3,4.2,4.2,0,0,1-1.2-3,7.4,7.4,0,0,1,1-3.7,12.3,12.3,0,0,1,2.6-3.3,4.9,4.9,0,0,1,3.2-1.3,3.6,3.6,0,0,1,2.8,1.5,4.8,4.8,0,0,1,1.4,3.1C301,94.7,300.4,95.4,299.3,96Zm-1.7-3.2a1.6,1.6,0,0,0-1-.5c-.3,0-.6.2-1.1.7a11.4,11.4,0,0,0-1.4,1.6h.7q3.3,0,3.3-1.2C298.1,93.3,298,93.1,297.6,92.8Z"/><path d="M319.2,89.3a2.6,2.6,0,0,1,1.8,1.1,3.5,3.5,0,0,1,.9,2c0,.4-.1.6-.5.6l-.8-.2a2.7,2.7,0,0,0-1.2-.3l-1.7.4c-.7.3-1.1.6-1.1,1.1s.2.4.7.7l1.4.9a6.4,6.4,0,0,1,1.5,1.4,3.3,3.3,0,0,1,.6,1.9c0,.6-.5,1.3-1.5,2a5.5,5.5,0,0,1-3.4,1,5.9,5.9,0,0,1-3.4-.9q-1.5-.9-1.5-1.8c0-.7.3-1,.8-1l.8.3a6.6,6.6,0,0,0,3,.7c1.2,0,1.9-.2,1.9-.5a2,2,0,0,0-.7-1.1,9.1,9.1,0,0,0-1.6-1.1l-1.5-1.3a2.6,2.6,0,0,1-.7-1.4c0-.9.8-1.9,2.4-2.9A7.5,7.5,0,0,1,319.2,89.3Z"/><path d="M324.6,92c1.3-1.8,2.5-2.7,3.7-2.7a4.2,4.2,0,0,1,3.2,1.3,4.6,4.6,0,0,1,1.3,3.1,8.8,8.8,0,0,1-.9,3.8,8.7,8.7,0,0,1-2.5,3.2,5.6,5.6,0,0,1-3.4,1.2,2.8,2.8,0,0,1-2.3-1.2,4.1,4.1,0,0,1-1-2.9A9.8,9.8,0,0,1,324.6,92Zm4,5.1a7.5,7.5,0,0,0,.9-3.4,3.5,3.5,0,0,0-.4-2.1,6.1,6.1,0,0,0-2.1,2.5,7.5,7.5,0,0,0-1,3.5,3.1,3.1,0,0,0,.3,1.8A5.6,5.6,0,0,0,328.6,97.1Z"/><path d="M343,89.3a2.9,2.9,0,0,1,2.2,1.1,3.6,3.6,0,0,1,1,2.5,13.3,13.3,0,0,1-.7,4.3,13.3,13.3,0,0,1-1.4,3.5c-.6.8-1.1,1.2-1.7,1.2s-.8-.3-.8-1.1a18.6,18.6,0,0,1,.8-3.6,13.3,13.3,0,0,0,.6-3.1c0-.7,0-1-.2-1a.9.9,0,0,0-.6.3l-.5.6-.5.6-.4.7-.5.8-.4.8a2.8,2.8,0,0,0-.5.8q-2.2,4.2-3.6,4.2c-.3,0-.7-.3-1.3-.9a2.3,2.3,0,0,1-.7-1.3,6.2,6.2,0,0,1,.3-1.1,8.2,8.2,0,0,0,.5-1.4l.3-1c.1-.4.1-.8.2-1.2s.1-.7.1-1a4.6,4.6,0,0,1,.1-1,17.7,17.7,0,0,1,.4-3.6q.2-.3.3-.3a2.9,2.9,0,0,1,1.8.8,2.1,2.1,0,0,1,.9,1.4,19,19,0,0,1-.8,4.3,39.4,39.4,0,0,1,2.9-4.5C341.7,89.9,342.4,89.3,343,89.3Z"/><path d="M366.3,96a6,6,0,0,1-3.3,1,10.4,10.4,0,0,1-2.8-.3,3.5,3.5,0,0,0-.3,1.4,1.2,1.2,0,0,0,.3.9c.1.2.5.3,1.1.3a9.7,9.7,0,0,0,3.1-.4l1.4-.3c.6,0,1,.2,1,.7s-.5,1.2-1.6,1.8a7.5,7.5,0,0,1-3.7.8,4.4,4.4,0,0,1-3.3-1.3,4.2,4.2,0,0,1-1.2-3,7.4,7.4,0,0,1,1-3.7,12.3,12.3,0,0,1,2.6-3.3,4.9,4.9,0,0,1,3.2-1.3,3.8,3.8,0,0,1,2.8,1.5,4.8,4.8,0,0,1,1.4,3.1C368,94.7,367.4,95.4,366.3,96Zm-1.7-3.2a1.6,1.6,0,0,0-1-.5,1.6,1.6,0,0,0-1.1.7,7.3,7.3,0,0,0-1.4,1.6h.7q3.3,0,3.3-1.2C365.1,93.3,364.9,93.1,364.6,92.8Z"/><path d="M373.9,83.5a3.2,3.2,0,0,1,.9,2.1c0,.6-.1,1.8-.3,3.5s-.4,3-.6,4c-1.3,5.9-2.3,8.8-2.8,8.8s-.8-.3-1.3-.8a2.2,2.2,0,0,1-.8-1.5l.6-2.5c.5-1.7.9-3.8,1.4-6.4a51.4,51.4,0,0,0,.6-7.5.7.7,0,0,1,.8-.8C372.8,82.4,373.3,82.8,373.9,83.5Z"/><path d="M393.8,89.3c.6,0,1.2.6,1.9,1.6a6.2,6.2,0,0,1,1.1,3.3,4.5,4.5,0,0,1-.9,2.3,9.6,9.6,0,0,1-2.1,2.5,12.7,12.7,0,0,1-2.9,2.1,7.5,7.5,0,0,1-3.1.8h-.3c-1.1,4.3-1.8,6.4-2.2,6.4s-.7-.3-1.1-.9a2.4,2.4,0,0,1-.6-1.4c0-.3.3-1.5.7-3.4a60.2,60.2,0,0,0,2.1-13,.7.7,0,0,1,.8-.7,2.5,2.5,0,0,1,1.4.7,2.6,2.6,0,0,1,1.2,1.7A6.1,6.1,0,0,1,393.8,89.3Zm-2,7.6a4.7,4.7,0,0,0,1.7-3c0-.9-.2-1.3-.7-1.3a3.1,3.1,0,0,0-2.1,1.2,5.7,5.7,0,0,0-1.1,1.4,23.5,23.5,0,0,0-1,2.2l-.4,1.6A7.4,7.4,0,0,0,391.8,96.9Z"/><path d="M399.8,92c1.3-1.8,2.5-2.7,3.8-2.7a4,4,0,0,1,3.1,1.3,4.2,4.2,0,0,1,1.3,3.1,8.8,8.8,0,0,1-.9,3.8,8.7,8.7,0,0,1-2.5,3.2,5.4,5.4,0,0,1-3.4,1.2,2.9,2.9,0,0,1-2.3-1.2,4.6,4.6,0,0,1-1-2.9A10.5,10.5,0,0,1,399.8,92Zm4,5.1a6.6,6.6,0,0,0,1-3.4,3.4,3.4,0,0,0-.5-2.1,5.3,5.3,0,0,0-2,2.5,7.8,7.8,0,0,0-1.1,3.5,3.1,3.1,0,0,0,.3,1.8A4.7,4.7,0,0,0,403.8,97.1Z"/><path d="M419.7,82.4c.4,0,.9.4,1.5,1.1a2.9,2.9,0,0,1,1,2,33.6,33.6,0,0,1-.9,3.9c-.6,2.2-.9,3.6-1,4.1-1.3,5.6-2.3,8.4-2.9,8.4a1.7,1.7,0,0,1-1.1-.6,1.9,1.9,0,0,1-.7-1.2v-.2c-1.7,1.4-2.8,2-3.6,2a2.6,2.6,0,0,1-2-1.1,3.3,3.3,0,0,1-1-2.1,7.5,7.5,0,0,1,.3-2,9,9,0,0,1,.8-2.5,10.1,10.1,0,0,1,1.2-2.3,6.3,6.3,0,0,1,1.7-1.9,3.1,3.1,0,0,1,2-.7,2.9,2.9,0,0,1,2.6,1.6,43.1,43.1,0,0,0,1.3-7.7C419,82.7,419.2,82.4,419.7,82.4Zm-7.2,16.4a4,4,0,0,0,2-1,6.4,6.4,0,0,0,2.2-2.7v-.9a2.1,2.1,0,0,0-.5-1.2c-.3-.4-.5-.6-.8-.6a2.1,2.1,0,0,0-1.4.8,6.8,6.8,0,0,0-1.1,1.9,12.2,12.2,0,0,0-.8,3.4.4.4,0,0,0,.1.3Z"/><path d="M431.8,96a6.1,6.1,0,0,1-3.4,1,10.9,10.9,0,0,1-2.8-.3,6.8,6.8,0,0,0-.2,1.4,2,2,0,0,0,.2.9,1.4,1.4,0,0,0,1.1.3,10.4,10.4,0,0,0,3.2-.4l1.3-.3c.7,0,1,.2,1,.7s-.5,1.2-1.6,1.8a6.8,6.8,0,0,1-3.6.8,4.2,4.2,0,0,1-3.3-1.3,3.9,3.9,0,0,1-1.3-3,7.5,7.5,0,0,1,1.1-3.7,10.6,10.6,0,0,1,2.6-3.3,4.7,4.7,0,0,1,3.1-1.3,4,4,0,0,1,2.9,1.5,4.7,4.7,0,0,1,1.3,3.1C433.4,94.7,432.9,95.4,431.8,96ZM430,92.8a1.4,1.4,0,0,0-.9-.5,1.9,1.9,0,0,0-1.2.7,7,7,0,0,0-1.3,1.6h.6c2.2,0,3.4-.4,3.4-1.2S430.4,93.1,430,92.8Z"/><path d="M435.7,93.4V90.7c0-.9.3-1.4.8-1.4a1.3,1.3,0,0,1,1,.4,1.8,1.8,0,0,1,.7,1.1,9.4,9.4,0,0,1,1.8-1.2,4.5,4.5,0,0,1,1.8-.4c1.2,0,1.8.3,1.8.8a1.4,1.4,0,0,1-.2.7l-.2.3-.3.2-.3.3-.8.5a6,6,0,0,0-1.9,1.6,8.5,8.5,0,0,0-1.2,2.7,21.3,21.3,0,0,1-1.3,4.2c-.4,1-.9,1.4-1.4,1.4a1.1,1.1,0,0,1-1.1-.7,2.7,2.7,0,0,1-.4-1.4,8,8,0,0,1,.5-2,12.3,12.3,0,0,0,.6-2.2A7.2,7.2,0,0,0,435.7,93.4Z"/><path d="M463.1,82.4c.4,0,.9.4,1.6,1.1a3.2,3.2,0,0,1,.9,2c0,.3-.3,1.6-.8,3.9s-.9,3.6-1.1,4.1c-1.3,5.6-2.2,8.4-2.8,8.4a2.1,2.1,0,0,1-1.8-1.8v-.2c-1.6,1.4-2.8,2-3.5,2a2.7,2.7,0,0,1-2.1-1.1,4,4,0,0,1-1-2.1,7.5,7.5,0,0,1,.3-2,14.4,14.4,0,0,1,.8-2.5l1.2-2.3a7.9,7.9,0,0,1,1.7-1.9,3.5,3.5,0,0,1,2.1-.7,2.8,2.8,0,0,1,2.5,1.6c.9-3.9,1.4-6.5,1.3-7.7A.7.7,0,0,1,463.1,82.4Zm-7.2,16.4a4.5,4.5,0,0,0,2.1-1,6.2,6.2,0,0,0,2.1-2.7v-.9a1.9,1.9,0,0,0-.4-1.2c-.3-.4-.6-.6-.8-.6a1.9,1.9,0,0,0-1.4.8,5,5,0,0,0-1.1,1.9,9.4,9.4,0,0,0-.8,3.4v.3Z"/><path d="M475.2,96a6,6,0,0,1-3.3,1,10.4,10.4,0,0,1-2.8-.3,3.5,3.5,0,0,0-.3,1.4,1.2,1.2,0,0,0,.3.9c.1.2.5.3,1.1.3a9.7,9.7,0,0,0,3.1-.4l1.4-.3c.6,0,1,.2,1,.7s-.6,1.2-1.6,1.8a7.5,7.5,0,0,1-3.7.8,4.4,4.4,0,0,1-3.3-1.3,4.2,4.2,0,0,1-1.2-3,7.4,7.4,0,0,1,1-3.7,12.3,12.3,0,0,1,2.6-3.3,4.9,4.9,0,0,1,3.1-1.3,3.8,3.8,0,0,1,2.9,1.5,4.7,4.7,0,0,1,1.3,3.1C476.8,94.7,476.3,95.4,475.2,96Zm-1.7-3.2a1.9,1.9,0,0,0-1-.5,1.6,1.6,0,0,0-1.1.7,7.3,7.3,0,0,0-1.4,1.6h.6c2.3,0,3.4-.4,3.4-1.2S473.8,93.1,473.5,92.8Z"/><path d="M151.8,112.1a3.2,3.2,0,0,1,.9,2,32.3,32.3,0,0,1-.3,3.5c-.2,1.7-.4,3-.6,4-1.3,6-2.3,8.9-2.8,8.9s-.8-.3-1.4-.9a2.3,2.3,0,0,1-.8-1.4s.3-.9.7-2.5.9-3.8,1.3-6.5a39.5,39.5,0,0,0,.7-7.5.7.7,0,0,1,.8-.7C150.7,111,151.2,111.4,151.8,112.1Z"/><path d="M163.7,123.6a1,1,0,0,1,.5.7,6.6,6.6,0,0,1-.3,1.3l-.4,1.5a6.4,6.4,0,0,1-.2.9v.5a.7.7,0,0,0-.1.5.6.6,0,0,0-.1.4c-.1.1-.1.2-.1.4l-.2.3c0,.1-.1.1-.1.2l-.5.2c-.3,0-.5-.2-.9-.7a3.9,3.9,0,0,1-.7-1.6c-1.6,1.5-2.8,2.3-3.9,2.3a3.5,3.5,0,0,1-2.3-1.2,3.1,3.1,0,0,1-1.2-2.3,8.4,8.4,0,0,1,1.1-3.3,15.2,15.2,0,0,1,2.8-4,5.6,5.6,0,0,1,3.7-1.8,3.9,3.9,0,0,1,2.3,1.2,3.3,3.3,0,0,1,1.4,2.2A5.3,5.3,0,0,1,163.7,123.6Zm-7.1,3.8a4.5,4.5,0,0,0,2.6-1.3,5.2,5.2,0,0,0,2-3.4.5.5,0,0,1,.5-.3c-.1-1-.2-1.4-.5-1.4a3.1,3.1,0,0,0-2.2,1.3,10.5,10.5,0,0,0-2,2.7,5.1,5.1,0,0,0-.8,2.1c0,.1.1.2.1.3Z"/><path d="M176.7,129.5a2.7,2.7,0,0,1-.8-1.5c0-.3.4-2.6,1.2-6.8a67.6,67.6,0,0,0,1.2-7.8c.1-.6.3-.8.8-.8s.9.3,1.6,1.1a4,4,0,0,1,.9,2.2c0,.3-.2,1.4-.6,3.4a36,36,0,0,0-.9,4,17.7,17.7,0,0,0-.4,2c-.2.6-.2,1.1-.3,1.4-.5,2.1-.8,3.3-1.1,3.6l-.3.2C177.7,130.5,177.3,130.1,176.7,129.5Z"/><path d="M192.5,123.2a1.5,1.5,0,0,1,.4,1,3.4,3.4,0,0,1-.5,1.4,20.7,20.7,0,0,0-1.1,3.7,34.6,34.6,0,0,1-.9,3.5,23.5,23.5,0,0,1-1,2.2,5,5,0,0,1-1.4,1.5,3.7,3.7,0,0,1-2.1.6,4.7,4.7,0,0,1-3-1,3.2,3.2,0,0,1-1.3-1.9,2.4,2.4,0,0,1,.5-1.4,1,1,0,0,1,.7-.6.8.8,0,0,1,.7.4l.6.8.8.9a1.8,1.8,0,0,0,1,.4c.4,0,.7-.3,1-.8a4.6,4.6,0,0,0,.7-1.6,14.1,14.1,0,0,0,.8-2.8,5.3,5.3,0,0,1-2.7,1,2.7,2.7,0,0,1-2-1.1,3.3,3.3,0,0,1-1-2.2,9.2,9.2,0,0,1,.5-2.5,17.7,17.7,0,0,1,1.5-3.1,7.8,7.8,0,0,1,2.2-2.6,3.9,3.9,0,0,1,2.7-1.1,2.4,2.4,0,0,1,1.5.4,2.7,2.7,0,0,1,.9,1.2,7.3,7.3,0,0,1,.5,3Zm-6.8,3.9a.3.3,0,0,0,.3.3c.5,0,1.2-.4,2.3-1.3a6.7,6.7,0,0,0,2.1-2.5v-.5c0-1.1-.1-1.7-.3-1.9s-.2-.2-.4-.2-1.6.8-2.6,2.5A8.8,8.8,0,0,0,185.7,127.1Z"/><path d="M199.6,112.1a3.2,3.2,0,0,1,.9,2,32.3,32.3,0,0,1-.3,3.5c-.2,1.7-.4,3-.6,4-1.4,6-2.3,8.9-2.8,8.9s-.8-.3-1.4-.9a2.3,2.3,0,0,1-.8-1.4s.2-.9.7-2.5.9-3.8,1.3-6.5a39.5,39.5,0,0,0,.7-7.5c0-.4.2-.7.8-.7A2.9,2.9,0,0,1,199.6,112.1Z"/><path d="M210.5,124.6a7,7,0,0,1-3.4,1,10.9,10.9,0,0,1-2.8-.3,6.9,6.9,0,0,0-.2,1.3,2.2,2.2,0,0,0,.2,1c.1.2.5.3,1.1.3a9.3,9.3,0,0,0,3.1-.4l1.4-.3c.7,0,1,.2,1,.6s-.5,1.3-1.6,1.9a8,8,0,0,1-3.6.8,4.4,4.4,0,0,1-4.6-4.4,8.2,8.2,0,0,1,1.1-3.7,9,9,0,0,1,2.6-3.2,4.5,4.5,0,0,1,3.1-1.3,4,4,0,0,1,2.9,1.5,5,5,0,0,1,1.3,3.1C212.1,123.3,211.5,124,210.5,124.6Zm-1.8-3.3a1.2,1.2,0,0,0-.9-.4,2.2,2.2,0,0,0-1.2.6,7.6,7.6,0,0,0-1.3,1.7h.6c2.2,0,3.3-.4,3.3-1.1S209.1,121.7,208.7,121.3Z"/><path d="M220.9,117.9a2.6,2.6,0,0,1,1.8,1.1,3.2,3.2,0,0,1,.9,2c0,.4-.1.6-.5.6l-.8-.3-1.2-.2a4.9,4.9,0,0,0-1.7.4c-.7.3-1.1.6-1.1,1s.2.4.7.7l1.4,1a6.4,6.4,0,0,1,1.5,1.4,3,3,0,0,1,.6,1.8q0,1-1.5,2.1a5.5,5.5,0,0,1-3.4,1,6.5,6.5,0,0,1-3.5-.9c-.9-.6-1.4-1.2-1.4-1.9s.3-.9.8-.9l.8.2a5.6,5.6,0,0,0,3,.7c1.2,0,1.8-.1,1.8-.4s-.2-.7-.7-1.1l-1.5-1.2a7.9,7.9,0,0,1-1.5-1.2,2.1,2.1,0,0,1-.7-1.5c0-.9.8-1.8,2.4-2.8A7.5,7.5,0,0,1,220.9,117.9Z"/><path d="M227.3,117.9a1.8,1.8,0,0,1,1.5,1,2.7,2.7,0,0,1,.7,1.8,21,21,0,0,1-.9,3.4c-.5,1.9-1.1,3.7-1.6,5.4a1.2,1.2,0,0,1-1.2,1,1.3,1.3,0,0,1-1-.4,1.4,1.4,0,0,1-.4-1.1,20.8,20.8,0,0,1,.6-3.2c.4-1.7.8-3.2,1-4.4a19.1,19.1,0,0,1,.6-2.7C226.8,118.2,227,117.9,227.3,117.9Zm-.4-3.1a1.9,1.9,0,0,1,.6-1.3c.4-.4.7-.7,1.1-.7s.8.5,1.3,1.3a5.3,5.3,0,0,1,.8,2,1.3,1.3,0,0,1-.4.9,1.3,1.3,0,0,1-.8.3,2.8,2.8,0,0,1-1.7-.9A2.6,2.6,0,0,1,226.9,114.8Z"/><path d="M241.3,123.6a.9.9,0,0,1,.4.7,6.6,6.6,0,0,1-.3,1.3l-.4,1.5c0,.4-.1.7-.1.9a1.1,1.1,0,0,0-.1.5,4.3,4.3,0,0,0-.1.5v.4c0,.1-.1.2-.1.4v.3l-.2.2-.5.2c-.2,0-.5-.2-.8-.7a4,4,0,0,1-.8-1.6c-1.5,1.5-2.8,2.3-3.8,2.3a3.3,3.3,0,0,1-2.3-1.2,3.1,3.1,0,0,1-1.2-2.3,7.9,7.9,0,0,1,1-3.3,15.7,15.7,0,0,1,2.9-4,5.2,5.2,0,0,1,3.6-1.8,3.9,3.9,0,0,1,2.4,1.2,3.1,3.1,0,0,1,1.3,2.2A4.9,4.9,0,0,1,241.3,123.6Zm-7.1,3.8a4.7,4.7,0,0,0,2.6-1.3,6.2,6.2,0,0,0,2-3.4c0-.2.1-.3.4-.3s-.2-1.4-.5-1.4a3.5,3.5,0,0,0-2.2,1.3,10.1,10.1,0,0,0-1.9,2.7,4,4,0,0,0-.8,2.1v.3Z"/><path d="M262.9,112.5q.8,0,1.5,1.2a3.5,3.5,0,0,1,.8,2c0,.5-.1.8-.3.8h-1.4a4.5,4.5,0,0,0-2.9,1.6,15,15,0,0,0-2.8,3.7,8.3,8.3,0,0,0-1.2,3.8,1.6,1.6,0,0,0,.3,1.1c.1.3.4.4.9.4a14,14,0,0,0,3.4-.5l2.9-1.1,1.2-.5c.2,0,.3.1.4.3a1.5,1.5,0,0,1,.1.7,2.8,2.8,0,0,1-1.3,1.9,12.5,12.5,0,0,1-3.2,2,9.3,9.3,0,0,1-3.4.8,4.4,4.4,0,0,1-3.2-1.9,5.2,5.2,0,0,1-1.7-3.5,12.3,12.3,0,0,1,1.5-5.3,17.8,17.8,0,0,1,3.9-5.1A6.8,6.8,0,0,1,262.9,112.5Z"/><path d="M278.3,123.6a1,1,0,0,1,.5.7,6.6,6.6,0,0,1-.3,1.3,8.5,8.5,0,0,0-.4,1.5,6.4,6.4,0,0,1-.2.9,4.3,4.3,0,0,1-.1.5,1.1,1.1,0,0,1-.1.5.6.6,0,0,1-.1.4.8.8,0,0,1-.1.4.4.4,0,0,1-.1.3l-.2.2a.6.6,0,0,1-.5.2c-.2,0-.5-.2-.8-.7a3.9,3.9,0,0,1-.7-1.6c-1.6,1.5-2.9,2.3-3.9,2.3a3.5,3.5,0,0,1-2.3-1.2,3.1,3.1,0,0,1-1.2-2.3,7.9,7.9,0,0,1,1-3.3,15.7,15.7,0,0,1,2.9-4,5.2,5.2,0,0,1,3.6-1.8,3.9,3.9,0,0,1,2.4,1.2,3.1,3.1,0,0,1,1.3,2.2A4.9,4.9,0,0,1,278.3,123.6Zm-7.1,3.8a4.7,4.7,0,0,0,2.6-1.3,5.2,5.2,0,0,0,2-3.4c0-.2.2-.3.4-.3s-.2-1.4-.4-1.4a3.1,3.1,0,0,0-2.2,1.3,10.5,10.5,0,0,0-2,2.7,5.1,5.1,0,0,0-.8,2.1.4.4,0,0,0,.1.3Z"/><path d="M286.2,122.6c-.3.8-.6,1.8-1,3l-.5,1.9h.4l1.9-.5,1.8-.6q.6,0,.6.9c0,.5-.5,1.2-1.6,1.9a5.9,5.9,0,0,1-3.5,1.2,3.4,3.4,0,0,1-1.8-.8,2.6,2.6,0,0,1-1.1-1.8,12.7,12.7,0,0,1,.7-3.1c.5-1.6.9-2.6,1.1-3.2a5,5,0,0,1-1.5.2,1.4,1.4,0,0,1-1-.6,2,2,0,0,1-.5-1.3c0-.5,1.2-1,3.7-1.3a16.1,16.1,0,0,0,.5-4,.6.6,0,0,1,.7-.7,2.6,2.6,0,0,1,1.7.8,2.2,2.2,0,0,1,1,1.5,6.8,6.8,0,0,1-.4,2.1h1.8c1.3,0,1.9.3,1.9.8s-.4.7-1.1,1l-3.3.8Z"/><path d="M293.2,120.6c1.3-1.8,2.5-2.8,3.8-2.8a4.1,4.1,0,0,1,3.1,1.4,4,4,0,0,1,1.3,3.1,8.8,8.8,0,0,1-.9,3.8,7.6,7.6,0,0,1-2.5,3.1,5,5,0,0,1-3.4,1.3,2.9,2.9,0,0,1-2.3-1.2,4.3,4.3,0,0,1-1-2.9A10.5,10.5,0,0,1,293.2,120.6Zm4,5a7.7,7.7,0,0,0,1-3.3,3.7,3.7,0,0,0-.5-2.2,6.5,6.5,0,0,0-2.1,2.6,7.5,7.5,0,0,0-1,3.4,3.6,3.6,0,0,0,.3,1.9A5.4,5.4,0,0,0,297.2,125.6Zm1.3-8.4a.9.9,0,0,1-.7-.3,1.4,1.4,0,0,1-.3-.9,1.6,1.6,0,0,1,.3-.9,3.8,3.8,0,0,1,.9-.9l1.1-.9.7-.6.4-.4.5-.4.6-.2c.4,0,.7.3,1.1.7a2.8,2.8,0,0,1,.5,1.2,5.4,5.4,0,0,1-.1.8l-.4.5-.6.3-1,.5-1,.6-.9.4A1.5,1.5,0,0,1,298.5,117.2Z"/><path d="M307.5,112.1a3.2,3.2,0,0,1,.9,2,32.3,32.3,0,0,1-.3,3.5c-.2,1.7-.4,3-.6,4-1.3,6-2.3,8.9-2.8,8.9s-.8-.3-1.4-.9a2.3,2.3,0,0,1-.8-1.4s.3-.9.7-2.5.9-3.8,1.3-6.5a39.5,39.5,0,0,0,.7-7.5.7.7,0,0,1,.8-.7C306.4,111,306.9,111.4,307.5,112.1Z"/><path d="M311.8,117.9a1.7,1.7,0,0,1,1.5,1,2.7,2.7,0,0,1,.7,1.8,29.5,29.5,0,0,1-.8,3.4c-.6,1.9-1.2,3.7-1.7,5.4a1.2,1.2,0,0,1-1.2,1,1.3,1.3,0,0,1-1-.4,1.8,1.8,0,0,1-.4-1.1,15.3,15.3,0,0,1,.7-3.2c.4-1.7.7-3.2.9-4.4a19.1,19.1,0,0,1,.6-2.7C311.3,118.2,311.5,117.9,311.8,117.9Zm-.4-3.1a1.9,1.9,0,0,1,.6-1.3,2,2,0,0,1,1.1-.7c.4,0,.8.5,1.3,1.3a5.3,5.3,0,0,1,.8,2,1,1,0,0,1-.4.9,1.3,1.3,0,0,1-.8.3,3.8,3.8,0,0,1-2.6-2.5Z"/><path d="M315.4,126.7a8.5,8.5,0,0,1,1.1-3.8,9.7,9.7,0,0,1,2.8-3.5,5.4,5.4,0,0,1,3.4-1.5,2.6,2.6,0,0,1,1.8,1.1,3.5,3.5,0,0,1,.9,2,.5.5,0,0,1-.6.6l-.8-.2a1.9,1.9,0,0,0-1-.3,2.9,2.9,0,0,0-1.6.9,12.8,12.8,0,0,0-1.7,2.2,5.3,5.3,0,0,0-.8,2c0,.5.1.9.3,1s.6.2,1.3.2a6.2,6.2,0,0,0,2-.2,3.9,3.9,0,0,0,1.4-.4l.7-.2c.5,0,.7.2.7.6s-.6,1.5-1.9,2.2a7.5,7.5,0,0,1-3.7,1.1,4.4,4.4,0,0,1-2.8-1.3A3.8,3.8,0,0,1,315.4,126.7Z"/><path d="M337.8,123.6a.9.9,0,0,1,.4.7,6.6,6.6,0,0,1-.3,1.3l-.4,1.5c0,.4-.1.7-.1.9a1.1,1.1,0,0,0-.1.5,4.3,4.3,0,0,0-.1.5v.4c0,.1-.1.2-.1.4v.3l-.2.2-.5.2c-.2,0-.5-.2-.8-.7a4,4,0,0,1-.8-1.6c-1.5,1.5-2.8,2.3-3.8,2.3a4.6,4.6,0,0,1-3.6-3.5,8.4,8.4,0,0,1,1.1-3.3,15.7,15.7,0,0,1,2.9-4,5.2,5.2,0,0,1,3.6-1.8,3.9,3.9,0,0,1,2.4,1.2,3.1,3.1,0,0,1,1.3,2.2A4.9,4.9,0,0,1,337.8,123.6Zm-7.1,3.8a4.7,4.7,0,0,0,2.6-1.3,6.2,6.2,0,0,0,2-3.4c0-.2.1-.3.4-.3s-.2-1.4-.5-1.4a3.3,3.3,0,0,0-2.2,1.3,10.1,10.1,0,0,0-1.9,2.7,4,4,0,0,0-.8,2.1v.3Z"/><path d="M358.2,117.9c.6,0,1.2.5,1.9,1.6a6.2,6.2,0,0,1,1.1,3.2,4.5,4.5,0,0,1-.9,2.4,9.6,9.6,0,0,1-2.1,2.5,10,10,0,0,1-2.9,2,6.4,6.4,0,0,1-3.1.9h-.3c-1,4.2-1.8,6.4-2.2,6.4s-.7-.3-1.1-.9a2.7,2.7,0,0,1-.6-1.4,28.9,28.9,0,0,1,.8-3.5,59.5,59.5,0,0,0,2.1-12.9c0-.5.2-.7.7-.7a2.9,2.9,0,0,1,1.5.6,3.4,3.4,0,0,1,1.1,1.8A6.1,6.1,0,0,1,358.2,117.9Zm-1.9,7.5a4.7,4.7,0,0,0,1.7-3c0-.8-.3-1.2-.7-1.2a2.9,2.9,0,0,0-2.2,1.1,11.8,11.8,0,0,0-1.1,1.5,11.2,11.2,0,0,0-.9,2.2l-.5,1.5A6.7,6.7,0,0,0,356.3,125.4Z"/><path d="M364.2,120.6c1.3-1.8,2.6-2.8,3.8-2.8a4.1,4.1,0,0,1,3.1,1.4,4,4,0,0,1,1.3,3.1,8.8,8.8,0,0,1-.9,3.8,8.3,8.3,0,0,1-2.4,3.1,5.2,5.2,0,0,1-3.4,1.3,3.1,3.1,0,0,1-2.4-1.2,4.8,4.8,0,0,1-1-2.9A10.5,10.5,0,0,1,364.2,120.6Zm4,5a6.5,6.5,0,0,0,1-3.3,3.9,3.9,0,0,0-.4-2.2,6.5,6.5,0,0,0-2.1,2.6,7.8,7.8,0,0,0-1.1,3.4,3.6,3.6,0,0,0,.3,1.9A4.9,4.9,0,0,0,368.2,125.6Z"/><path d="M375,122l-.2-2.8c0-.9.3-1.3.9-1.3l1,.3a3.5,3.5,0,0,1,.7,1.2,5.7,5.7,0,0,1,1.8-1.2,4.9,4.9,0,0,1,1.8-.5c1.2,0,1.7.3,1.7.9a1.5,1.5,0,0,1-.1.7l-.3.3-.3.2-.3.3-.8.5a9.5,9.5,0,0,0-1.9,1.6,6.7,6.7,0,0,0-1.1,2.7,31.3,31.3,0,0,1-1.3,4.2c-.4.9-.9,1.4-1.4,1.4a1.5,1.5,0,0,1-1.2-.7,3.9,3.9,0,0,1-.3-1.4,6.3,6.3,0,0,1,.4-2,7.9,7.9,0,0,0,.7-2.2A13.8,13.8,0,0,0,375,122Z"/><path d="M401.3,124.6a7,7,0,0,1-3.4,1,11.4,11.4,0,0,1-2.8-.3,6.9,6.9,0,0,0-.2,1.3,2.2,2.2,0,0,0,.2,1,1.4,1.4,0,0,0,1.1.3,10.4,10.4,0,0,0,3.2-.4l1.3-.3c.7,0,1,.2,1,.6s-.5,1.3-1.6,1.9a8,8,0,0,1-3.6.8,4.4,4.4,0,0,1-4.6-4.4,8.2,8.2,0,0,1,1.1-3.7,10.2,10.2,0,0,1,2.6-3.2,4.7,4.7,0,0,1,3.1-1.3,4,4,0,0,1,2.9,1.5,4.5,4.5,0,0,1,1.3,3.1C402.9,123.3,402.4,124,401.3,124.6Zm-1.8-3.3a1.2,1.2,0,0,0-.9-.4,2.2,2.2,0,0,0-1.2.6,7.6,7.6,0,0,0-1.3,1.7h.6c2.2,0,3.4-.4,3.4-1.1S399.9,121.7,399.5,121.3Z"/><path d="M412.9,117.9a2.9,2.9,0,0,1,2.2,1.1,3.6,3.6,0,0,1,1,2.4,13.9,13.9,0,0,1-.7,4.4,13.3,13.3,0,0,1-1.4,3.5c-.6.8-1.1,1.2-1.7,1.2s-.8-.4-.8-1.1a18.6,18.6,0,0,1,.8-3.6,13.9,13.9,0,0,0,.6-3.2c0-.6,0-.9-.2-.9a.9.9,0,0,0-.6.3l-.5.6c-.2.1-.3.3-.5.6a4.3,4.3,0,0,1-.4.7l-.5.8a3,3,0,0,0-.4.8l-.5.7c-1.5,2.9-2.7,4.3-3.6,4.3s-.7-.3-1.3-.9a2.3,2.3,0,0,1-.7-1.3,4.9,4.9,0,0,1,.3-1.2,7.9,7.9,0,0,0,.5-1.3l.3-1c.1-.4.1-.8.2-1.2s.1-.7.1-1,.1-.6.1-1.1a16.1,16.1,0,0,1,.4-3.5q.1-.3.3-.3a2.7,2.7,0,0,1,1.8.7c.6.6.9,1,.9,1.5a19,19,0,0,1-.8,4.3,41.7,41.7,0,0,1,2.9-4.6C411.6,118.5,412.3,117.9,412.9,117.9Z"/><path d="M417.5,126.7a8.3,8.3,0,0,1,1-3.8,9.9,9.9,0,0,1,2.9-3.5,5.2,5.2,0,0,1,3.4-1.5,2.6,2.6,0,0,1,1.8,1.1,3.5,3.5,0,0,1,.9,2,.5.5,0,0,1-.6.6,1.3,1.3,0,0,1-.8-.2,2.3,2.3,0,0,0-1.1-.3,3.1,3.1,0,0,0-1.5.9,9.6,9.6,0,0,0-1.8,2.2,4.7,4.7,0,0,0-.7,2c0,.5,0,.9.2,1s.7.2,1.4.2a6.5,6.5,0,0,0,2-.2,3.3,3.3,0,0,0,1.3-.4l.8-.2c.4,0,.7.2.7.6s-.7,1.5-1.9,2.2a7.9,7.9,0,0,1-3.8,1.1,4.2,4.2,0,0,1-2.7-1.3A3.8,3.8,0,0,1,417.5,126.7Z"/><path d="M432.2,117.9a1.7,1.7,0,0,1,1.5,1,2.7,2.7,0,0,1,.7,1.8,29.5,29.5,0,0,1-.8,3.4c-.6,1.9-1.2,3.7-1.7,5.4a1.2,1.2,0,0,1-1.2,1,1.3,1.3,0,0,1-1-.4,1.8,1.8,0,0,1-.4-1.1,15.3,15.3,0,0,1,.7-3.2c.4-1.7.7-3.2.9-4.4a19.1,19.1,0,0,1,.6-2.7C431.7,118.2,431.9,117.9,432.2,117.9Zm-.4-3.1a1.9,1.9,0,0,1,.6-1.3,2,2,0,0,1,1.1-.7c.4,0,.8.5,1.3,1.3a5.3,5.3,0,0,1,.8,2,1,1,0,0,1-.4.9,1.3,1.3,0,0,1-.8.3,3.8,3.8,0,0,1-2.6-2.5Z"/><path d="M452.3,117.9c.6,0,1.1.4,1.6,1.2a6,6,0,0,1,.6,2.4,15.2,15.2,0,0,1-.4,3.1,18.7,18.7,0,0,1-1.3,4c-.5,1.3-1.2,1.9-1.8,1.9s-.8-.4-.8-1.1a18.4,18.4,0,0,1,.6-3.6,19.4,19.4,0,0,0,.6-3.3c0-.5-.1-.8-.2-.8s-.8.4-1.2,1.2a18.7,18.7,0,0,0-1.7,3l-1.3,2.4a3.9,3.9,0,0,1-.4.9l-.3.6q-.9,1.3-2.1,0a1.5,1.5,0,0,1-.7-1.2,16.4,16.4,0,0,1,.4-1.8,17.3,17.3,0,0,0,.4-4.1c0-.6-.1-1-.2-1s-.4.2-.7.6l-1.2,2.2c-.5,1-1,1.8-1.4,2.5-1.4,2.3-2.4,3.5-3.1,3.5s-.8-.3-1.4-.9a2.5,2.5,0,0,1-.7-1.4,8.4,8.4,0,0,1,.5-2.3,15.9,15.9,0,0,0,.7-3.9c.1-1.3.2-2.4.3-3.2s.3-1.1.6-1.1a2.7,2.7,0,0,1,1.8.7c.6.6.9,1,.9,1.5a22.9,22.9,0,0,1-1.1,5,21.6,21.6,0,0,1,2.9-5.5,3.3,3.3,0,0,1,2.4-1.5c.4,0,.9.4,1.6,1.1a4,4,0,0,1,.9,2.2V123a11.2,11.2,0,0,1,2.3-3.5A4.1,4.1,0,0,1,452.3,117.9Z"/><path d="M466.3,123.6a.9.9,0,0,1,.4.7,6.6,6.6,0,0,1-.3,1.3l-.4,1.5c0,.4-.1.7-.1.9a1.1,1.1,0,0,0-.1.5,4.3,4.3,0,0,0-.1.5.6.6,0,0,0-.1.4c0,.1-.1.2-.1.4v.3l-.2.2-.5.2c-.2,0-.5-.2-.8-.7a4,4,0,0,1-.8-1.6c-1.5,1.5-2.8,2.3-3.9,2.3a3.3,3.3,0,0,1-2.2-1.2,2.9,2.9,0,0,1-1.3-2.3,8.4,8.4,0,0,1,1.1-3.3,13.6,13.6,0,0,1,2.9-4,5.2,5.2,0,0,1,3.6-1.8,3.9,3.9,0,0,1,2.4,1.2,3.1,3.1,0,0,1,1.3,2.2A4.9,4.9,0,0,1,466.3,123.6Zm-7.2,3.8a4.2,4.2,0,0,0,2.6-1.3,5.8,5.8,0,0,0,2.1-3.4c0-.2.1-.3.4-.3s-.2-1.4-.5-1.4a3.3,3.3,0,0,0-2.2,1.3,13.5,13.5,0,0,0-2,2.7,4.6,4.6,0,0,0-.7,2.1v.3Z"/><path d="M488.2,111c.4,0,.9.4,1.6,1.1a3.2,3.2,0,0,1,.9,2c0,.3-.3,1.6-.8,3.8s-.9,3.7-1.1,4.2c-1.3,5.6-2.2,8.4-2.8,8.4a1.9,1.9,0,0,1-1.2-.6,1.7,1.7,0,0,1-.6-1.2v-.2c-1.6,1.3-2.8,2-3.5,2a3.1,3.1,0,0,1-2.1-1.1,3.7,3.7,0,0,1-.9-2.1,8.2,8.2,0,0,1,.2-2.1,16.8,16.8,0,0,1,.8-2.4l1.2-2.4a9.8,9.8,0,0,1,1.7-1.8,3.5,3.5,0,0,1,2.1-.7,3,3,0,0,1,2.6,1.6c.8-3.9,1.3-6.5,1.2-7.8A.7.7,0,0,1,488.2,111ZM481,127.4a5.2,5.2,0,0,0,2.1-1.1,5.3,5.3,0,0,0,2.1-2.6v-.9a1.9,1.9,0,0,0-.4-1.2c-.3-.4-.6-.6-.8-.6a1.6,1.6,0,0,0-1.4.8,5.4,5.4,0,0,0-1.1,1.8,9.8,9.8,0,0,0-.8,3.5v.2Z"/><path d="M500.3,124.6a7,7,0,0,1-3.3,1,10.4,10.4,0,0,1-2.8-.3,3.5,3.5,0,0,0-.3,1.3,1.3,1.3,0,0,0,.3,1c.1.2.5.3,1.1.3a9.7,9.7,0,0,0,3.1-.4l1.4-.3c.6,0,1,.2,1,.6s-.6,1.3-1.6,1.9a8.7,8.7,0,0,1-3.7.8,4.3,4.3,0,0,1-4.5-4.4,7.9,7.9,0,0,1,1-3.7,11.8,11.8,0,0,1,2.6-3.2,4.9,4.9,0,0,1,3.2-1.3,3.8,3.8,0,0,1,2.8,1.5,4.6,4.6,0,0,1,1.4,3.1C502,123.3,501.4,124,500.3,124.6Zm-1.7-3.3a1.4,1.4,0,0,0-1-.4,1.7,1.7,0,0,0-1.1.6,7.9,7.9,0,0,0-1.4,1.7h.7c2.2,0,3.3-.4,3.3-1.1S498.9,121.7,498.6,121.3Z"/><path d="M165.4,155.2a8.2,8.2,0,0,1,1.1-3.7,12.5,12.5,0,0,1,2.8-3.6,5.8,5.8,0,0,1,3.5-1.4,2.3,2.3,0,0,1,1.7,1.1,3.2,3.2,0,0,1,.9,2c0,.4-.2.6-.5.6l-.9-.3-1-.2a2.5,2.5,0,0,0-1.5.9,7.9,7.9,0,0,0-1.8,2.2,4.8,4.8,0,0,0-.8,2,1.3,1.3,0,0,0,.3,1l1.4.2,2-.2,1.3-.4.8-.2a.5.5,0,0,1,.6.6c0,.7-.6,1.4-1.8,2.2a8.2,8.2,0,0,1-3.8,1.1,4.4,4.4,0,0,1-2.7-1.4A3.3,3.3,0,0,1,165.4,155.2Z"/><path d="M186,147.1a.8.8,0,0,1,.8-.7c.4,0,.8.4,1.3,1.1a2.4,2.4,0,0,1,.8,1.7c0,.2-.4,1.4-1.1,3.6s-1.3,4-1.8,5.3a1.3,1.3,0,0,1-1.1,1,.9.9,0,0,1-.8-.4,1.6,1.6,0,0,1-.4-1.1,10.4,10.4,0,0,1,.3-2.1c-1.6,2.4-3,3.6-4,3.6a3.9,3.9,0,0,1-1.9-1,3.1,3.1,0,0,1-1.1-2,18.1,18.1,0,0,1,1.4-6c.9-2.4,1.7-3.7,2.5-3.7a1.5,1.5,0,0,1,1.2.7,2,2,0,0,1,.6,1.4,6.7,6.7,0,0,1-.6,1.6c-1.3,2.7-1.9,4.6-1.9,5.7v.2c.3,0,.7-.4,1.4-1.2a20.5,20.5,0,0,0,2.3-3.3A28.6,28.6,0,0,0,186,147.1Z"/><path d="M199.7,152.1c.3.3.5.5.5.7a5.8,5.8,0,0,1-.3,1.4,5.6,5.6,0,0,0-.4,1.5,5.1,5.1,0,0,0-.2.9,4.3,4.3,0,0,1-.1.5.6.6,0,0,1-.1.4.7.7,0,0,1-.1.5.4.4,0,0,1-.1.3c0,.2,0,.3-.1.4l-.2.2a.6.6,0,0,1-.5.2c-.2,0-.5-.2-.8-.7a4.4,4.4,0,0,1-.7-1.7q-2.4,2.4-3.9,2.4a3.5,3.5,0,0,1-2.3-1.2,3.3,3.3,0,0,1-1.2-2.3,7.9,7.9,0,0,1,1-3.3,14.1,14.1,0,0,1,2.9-4,5.4,5.4,0,0,1,3.6-1.9,3.9,3.9,0,0,1,2.4,1.2,3.3,3.3,0,0,1,1.3,2.2A4.3,4.3,0,0,1,199.7,152.1Zm-7.1,3.9a4.7,4.7,0,0,0,2.6-1.3,5.2,5.2,0,0,0,2-3.4c0-.2.2-.3.4-.3s-.2-1.4-.4-1.4a3.3,3.3,0,0,0-2.2,1.2,15.6,15.6,0,0,0-2,2.7,5.9,5.9,0,0,0-.8,2.2c0,.1,0,.2.1.2Z"/><path d="M206.8,140.7a3.2,3.2,0,0,1,.9,2,34.5,34.5,0,0,1-.3,3.5c-.2,1.7-.4,3-.6,4-1.4,5.9-2.3,8.9-2.8,8.9a2.1,2.1,0,0,1-1.4-.9c-.5-.6-.8-1-.8-1.4s.2-.9.7-2.6.9-3.8,1.3-6.4a39.5,39.5,0,0,0,.7-7.5c0-.5.2-.7.7-.7S206.1,139.9,206.8,140.7Z"/><path d="M216.2,160.9a6.2,6.2,0,0,1,1.8-.5,1,1,0,0,1,.9.4,1.3,1.3,0,0,1,.4.7c0,.2-.2.4-.4.7l-1.3.8-1.8,1.3-1.4,1-.9.3c-.3,0-.6-.2-.9-.7a2.4,2.4,0,0,1-.5-1.3,37.7,37.7,0,0,1,2-5.4,4.5,4.5,0,0,1-2.4.9,3.1,3.1,0,0,1-2.2-1.3,3.5,3.5,0,0,1-1.1-2.2,6.9,6.9,0,0,1,.6-2.5,22.8,22.8,0,0,1,1.7-3,10.3,10.3,0,0,1,2.5-2.6,4.7,4.7,0,0,1,2.7-1.1,3.1,3.1,0,0,1,2.4,1.2,3.5,3.5,0,0,1,1.1,2.2c0,.4-.3.6-.7.6a1.4,1.4,0,0,1-.9-.5,2.5,2.5,0,0,0-1.1-.5,4.1,4.1,0,0,0-2.4,1.3,14.2,14.2,0,0,0-2.2,2.8,5,5,0,0,0-.9,2.2c0,.1,0,.2.1.2h.3a4.8,4.8,0,0,0,2.6-1.4,6.4,6.4,0,0,0,2.1-3.5.5.5,0,0,1,.6-.4,2.5,2.5,0,0,1,1.5.7c.7.4,1,.8,1,1a5,5,0,0,1-.4,1.6c-.3.8-.7,1.9-1.3,3.3Z"/><path d="M229.6,147.1a.8.8,0,0,1,.8-.7c.4,0,.8.4,1.4,1.1a2.7,2.7,0,0,1,.7,1.7,21.4,21.4,0,0,1-1.1,3.6l-1.7,5.3c-.3.6-.6,1-1.2,1a.9.9,0,0,1-.8-.4,1.6,1.6,0,0,1-.3-1.1,10.4,10.4,0,0,1,.3-2.1c-1.7,2.4-3.1,3.6-4.1,3.6a3.3,3.3,0,0,1-1.8-1,2.7,2.7,0,0,1-1.1-2,17.6,17.6,0,0,1,1.3-6c.9-2.4,1.7-3.7,2.5-3.7a1.9,1.9,0,0,1,1.3.7,2.4,2.4,0,0,1,.5,1.4,6.7,6.7,0,0,1-.6,1.6c-1.2,2.7-1.9,4.6-1.9,5.7l.2.2c.2,0,.7-.4,1.3-1.2a20.5,20.5,0,0,0,2.3-3.3A21.4,21.4,0,0,0,229.6,147.1Z"/><path d="M235.7,146.4a1.9,1.9,0,0,1,1.5,1,3.2,3.2,0,0,1,.7,1.9c0,.3-.3,1.4-.8,3.4s-1.2,3.7-1.7,5.4a1.3,1.3,0,0,1-1.2,1,1.8,1.8,0,0,1-1-.4,2.1,2.1,0,0,1-.4-1.1,15.3,15.3,0,0,1,.7-3.2c.4-1.8.7-3.2.9-4.4a16.2,16.2,0,0,1,.6-2.7C235.2,146.7,235.4,146.4,235.7,146.4Zm-.4-3a1.9,1.9,0,0,1,.6-1.3,1.6,1.6,0,0,1,1.1-.7c.4,0,.8.4,1.3,1.3a5.1,5.1,0,0,1,.8,1.9,1.2,1.2,0,0,1-.4,1,1.3,1.3,0,0,1-.8.3,2.4,2.4,0,0,1-1.6-.9C235.6,144.3,235.3,143.8,235.3,143.4Z"/><path d="M248.6,153.2a6.8,6.8,0,0,1-3.3.9,11,11,0,0,1-2.8-.2,3,3,0,0,0-.2,1.3c0,.5,0,.8.2,1a2,2,0,0,0,1.1.2,13.5,13.5,0,0,0,3.1-.3l1.4-.3c.7,0,1,.2,1,.6s-.5,1.3-1.6,1.8a7.1,7.1,0,0,1-3.6.9,4.5,4.5,0,0,1-3.4-1.3,4.5,4.5,0,0,1-1.2-3.1,7.6,7.6,0,0,1,1-3.7,10.4,10.4,0,0,1,2.6-3.2,5.1,5.1,0,0,1,3.2-1.4,3.7,3.7,0,0,1,2.8,1.6,4.6,4.6,0,0,1,1.4,3C250.3,151.8,249.7,152.5,248.6,153.2Zm-1.7-3.3a1.4,1.4,0,0,0-1-.4c-.3,0-.6.2-1.1.6a8.5,8.5,0,0,0-1.4,1.7h.7q3.3,0,3.3-1.2A1.1,1.1,0,0,0,246.9,149.9Z"/><path d="M252.6,150.6l-.2-2.8c0-.9.3-1.4.9-1.4a2.1,2.1,0,0,1,1,.4,2.7,2.7,0,0,1,.7,1.2,7.1,7.1,0,0,1,1.8-1.2,4.9,4.9,0,0,1,1.8-.5q1.8,0,1.8.9a.8.8,0,0,1-.2.6l-.2.3-.3.3-.3.2-.9.5a7.3,7.3,0,0,0-1.8,1.7,4.8,4.8,0,0,0-1.2,2.7,31.3,31.3,0,0,1-1.3,4.2c-.4.9-.9,1.4-1.4,1.4a1.4,1.4,0,0,1-1.2-.8,3.5,3.5,0,0,1-.3-1.4,6.3,6.3,0,0,1,.4-1.9,9,9,0,0,0,.7-2.2A15,15,0,0,0,252.6,150.6Z"/><path d="M272.3,146.4a1.9,1.9,0,0,1,1.5,1,3.2,3.2,0,0,1,.7,1.9c0,.3-.3,1.4-.8,3.4s-1.2,3.7-1.7,5.4a1.3,1.3,0,0,1-1.2,1,1.8,1.8,0,0,1-1-.4,2.1,2.1,0,0,1-.4-1.1,28.6,28.6,0,0,1,.7-3.2c.4-1.8.7-3.2.9-4.4a16.2,16.2,0,0,1,.6-2.7C271.8,146.7,272,146.4,272.3,146.4Zm-.4-3a1.9,1.9,0,0,1,.6-1.3,1.6,1.6,0,0,1,1.1-.7c.4,0,.8.4,1.4,1.3a4.4,4.4,0,0,1,.7,1.9,1.2,1.2,0,0,1-.4,1,1.1,1.1,0,0,1-.8.3,2.4,2.4,0,0,1-1.6-.9C272.3,144.3,271.9,143.8,271.9,143.4Z"/><path d="M284.9,146.4a2.9,2.9,0,0,1,2.3,1.2,3.8,3.8,0,0,1,.9,2.4,17.2,17.2,0,0,1-.6,4.4,20.3,20.3,0,0,1-1.5,3.5,2.1,2.1,0,0,1-1.6,1.2q-.9,0-.9-1.2a14.3,14.3,0,0,1,.9-3.5,13.9,13.9,0,0,0,.6-3.2q0-.9-.3-.9l-.6.3-.5.5-.5.7-.4.7-.5.7a2.9,2.9,0,0,1-.4.8l-.5.8c-1.5,2.9-2.7,4.3-3.5,4.3s-.8-.3-1.3-.9-.8-1-.8-1.3a4.9,4.9,0,0,1,.3-1.2,7.3,7.3,0,0,0,.6-1.4,3,3,0,0,0,.2-1,3.6,3.6,0,0,0,.2-1.1,4.6,4.6,0,0,0,.1-1c0-.2.1-.6.1-1.1a29.8,29.8,0,0,1,.4-3.5q.1-.3.3-.3a2.4,2.4,0,0,1,1.8.7,2.1,2.1,0,0,1,.9,1.4,19.7,19.7,0,0,1-.8,4.4,47.9,47.9,0,0,1,2.9-4.6C283.6,147,284.3,146.4,284.9,146.4Z"/><path d="M297.3,146.5a2.3,2.3,0,0,1,1.8,1.1,3.2,3.2,0,0,1,.9,2c0,.3-.1.5-.5.5a1.3,1.3,0,0,1-.8-.2l-1.2-.2a4.9,4.9,0,0,0-1.7.4c-.7.2-1.1.6-1.1,1s.2.4.7.7l1.4,1a5.8,5.8,0,0,1,1.5,1.3,3.3,3.3,0,0,1,.6,1.9q0,1-1.5,2.1a6.2,6.2,0,0,1-3.4,1,5.9,5.9,0,0,1-3.4-.9c-1-.6-1.5-1.2-1.5-1.9s.3-.9.8-.9a1.3,1.3,0,0,1,.8.2,5.6,5.6,0,0,0,3,.7c1.2,0,1.9-.1,1.9-.5a2,2,0,0,0-.7-1.1l-1.6-1.1a7.9,7.9,0,0,1-1.5-1.2,2.6,2.6,0,0,1-.7-1.5c0-.9.8-1.8,2.4-2.9A8.1,8.1,0,0,1,297.3,146.5Z"/><path d="M306.7,151.2a28.2,28.2,0,0,0-.9,3l-.6,1.9h.4l1.9-.6,1.8-.5c.4,0,.6.3.6.8s-.5,1.2-1.6,2a5.9,5.9,0,0,1-3.4,1.2,3,3,0,0,1-1.9-.9,2.2,2.2,0,0,1-1.1-1.7,15.1,15.1,0,0,1,.8-3.1l1-3.3-1.5.3c-.3,0-.6-.2-1-.7a1.6,1.6,0,0,1-.5-1.2c0-.6,1.2-1,3.8-1.4a19.8,19.8,0,0,0,.4-3.9c0-.5.3-.7.8-.7a3,3,0,0,1,1.6.7,1.9,1.9,0,0,1,1,1.5,10.4,10.4,0,0,1-.3,2.1h1.8c1.2,0,1.8.3,1.8.8s-.4.7-1.1.9a19,19,0,0,1-3.2.9A9.3,9.3,0,0,0,306.7,151.2Z"/><path d="M314.7,146.4a2.2,2.2,0,0,1,1.6,1,3.8,3.8,0,0,1,.6,1.9,17.8,17.8,0,0,1-.8,3.4c-.6,1.9-1.1,3.7-1.7,5.4a1.2,1.2,0,0,1-2.1.6,1.5,1.5,0,0,1-.4-1.1,20.8,20.8,0,0,1,.6-3.2c.4-1.8.7-3.2.9-4.4s.5-2.1.7-2.7S314.5,146.4,314.7,146.4Zm-.3-3a2.4,2.4,0,0,1,.5-1.3,1.5,1.5,0,0,1,1.2-.7c.3,0,.8.4,1.3,1.3a4.4,4.4,0,0,1,.7,1.9,1.2,1.2,0,0,1-.4,1,1.1,1.1,0,0,1-.8.3,2.6,2.6,0,0,1-1.6-.9A2.9,2.9,0,0,1,314.4,143.4Z"/><path d="M324.1,151.2a28.2,28.2,0,0,0-.9,3l-.6,1.9h.4l1.9-.6,1.8-.5c.4,0,.6.3.6.8s-.5,1.2-1.6,2a5.6,5.6,0,0,1-3.4,1.2,3,3,0,0,1-1.9-.9,2.2,2.2,0,0,1-1.1-1.7,15.1,15.1,0,0,1,.8-3.1l1-3.3-1.4.3c-.4,0-.7-.2-1.1-.7a2.1,2.1,0,0,1-.5-1.2c0-.6,1.2-1,3.8-1.4a19.8,19.8,0,0,0,.4-3.9c0-.5.3-.7.8-.7a3,3,0,0,1,1.6.7,1.9,1.9,0,0,1,1,1.5,10.4,10.4,0,0,1-.3,2.1h1.8c1.2,0,1.8.3,1.8.8s-.3.7-1.1.9a19,19,0,0,1-3.2.9A9.3,9.3,0,0,0,324.1,151.2Z"/><path d="M338,147.1a.8.8,0,0,1,.8-.7c.3,0,.8.4,1.3,1.1a2.9,2.9,0,0,1,.8,1.7c0,.2-.4,1.4-1.1,3.6s-1.4,4-1.8,5.3a1.3,1.3,0,0,1-1.1,1,1.1,1.1,0,0,1-.9-.4,1.6,1.6,0,0,1-.3-1.1,10.4,10.4,0,0,1,.3-2.1c-1.7,2.4-3,3.6-4,3.6a3.5,3.5,0,0,1-1.9-1,3.1,3.1,0,0,1-1.1-2,20.4,20.4,0,0,1,1.3-6c.9-2.4,1.8-3.7,2.6-3.7a1.9,1.9,0,0,1,1.2.7,2,2,0,0,1,.6,1.4,6.7,6.7,0,0,1-.6,1.6c-1.3,2.7-1.9,4.6-1.9,5.7s0,.2.1.2.7-.4,1.4-1.2a29.8,29.8,0,0,0,2.3-3.3A28.6,28.6,0,0,0,338,147.1Z"/><path d="M341.3,155.2a7.1,7.1,0,0,1,1.1-3.7,10.9,10.9,0,0,1,2.8-3.6,5.8,5.8,0,0,1,3.4-1.4,2.3,2.3,0,0,1,1.8,1.1,3.2,3.2,0,0,1,.9,2,.5.5,0,0,1-.6.6l-.8-.3-1.1-.2a3.1,3.1,0,0,0-1.5.9,9.8,9.8,0,0,0-1.7,2.2,3.7,3.7,0,0,0-.8,2,1.3,1.3,0,0,0,.3,1,2.7,2.7,0,0,0,1.3.2l2-.2,1.3-.4.8-.2c.5,0,.7.2.7.6s-.6,1.4-1.9,2.2a7.6,7.6,0,0,1-3.8,1.1,4.4,4.4,0,0,1-2.7-1.4A3.4,3.4,0,0,1,341.3,155.2Z"/><path d="M356,146.4a2.2,2.2,0,0,1,1.6,1,3.8,3.8,0,0,1,.6,1.9c0,.3-.3,1.4-.8,3.4s-1.1,3.7-1.7,5.4a1.2,1.2,0,0,1-2.1.6,1.5,1.5,0,0,1-.4-1.1,20.8,20.8,0,0,1,.6-3.2c.4-1.8.7-3.2.9-4.4s.5-2.1.6-2.7S355.8,146.4,356,146.4Zm-.3-3a1.8,1.8,0,0,1,.5-1.3,1.5,1.5,0,0,1,1.2-.7c.3,0,.8.4,1.3,1.3a4.4,4.4,0,0,1,.7,1.9,1.2,1.2,0,0,1-.4,1,1.1,1.1,0,0,1-.8.3,2.6,2.6,0,0,1-1.6-.9A2.9,2.9,0,0,1,355.7,143.4Z"/><path d="M361.4,149.2c1.3-1.9,2.5-2.8,3.8-2.8a4.6,4.6,0,0,1,3.1,1.3,4.8,4.8,0,0,1,1.3,3.2,9.2,9.2,0,0,1-.9,3.8,8.4,8.4,0,0,1-2.5,3.1,5.2,5.2,0,0,1-3.4,1.3,2.8,2.8,0,0,1-2.3-1.2,4.3,4.3,0,0,1-1-2.9A9.6,9.6,0,0,1,361.4,149.2Zm4,5a7.7,7.7,0,0,0,1-3.3,3.7,3.7,0,0,0-.5-2.2,6.5,6.5,0,0,0-2.1,2.6,7.2,7.2,0,0,0-1,3.4,3.8,3.8,0,0,0,.3,1.9A5.4,5.4,0,0,0,365.4,154.2Zm1.3-8.4a.9.9,0,0,1-.7-.3,1.5,1.5,0,0,1,0-1.8l.9-1,1.1-.9.6-.6.5-.4.4-.3.7-.2c.4,0,.7.2,1.1.7a2.1,2.1,0,0,1,.4,1.2v.8c-.1.1-.2.3-.4.4l-.6.4-1,.5-1.1.5-.8.5A2.5,2.5,0,0,1,366.7,145.8Z"/><path d="M379.7,146.4a2.6,2.6,0,0,1,2.2,1.2,3.4,3.4,0,0,1,1,2.4,13.9,13.9,0,0,1-.7,4.4,14.9,14.9,0,0,1-1.4,3.5c-.6.8-1.1,1.2-1.6,1.2s-.9-.4-.9-1.2a18.2,18.2,0,0,1,.8-3.5,15.7,15.7,0,0,0,.7-3.2q0-.9-.3-.9l-.6.3-.5.5-.5.7-.4.7-.5.7-.4.8-.5.8c-1.5,2.9-2.7,4.3-3.5,4.3s-.8-.3-1.3-.9-.8-1-.8-1.3a4.9,4.9,0,0,1,.3-1.2,6,6,0,0,0,.5-1.4l.3-1c.1-.3.1-.7.2-1.1s.1-.8.1-1,.1-.6.1-1.1a16.1,16.1,0,0,1,.4-3.5l.3-.3a2.7,2.7,0,0,1,1.8.7,2.1,2.1,0,0,1,.9,1.4,19.7,19.7,0,0,1-.8,4.4,33.9,33.9,0,0,1,2.9-4.6C378.4,147,379.1,146.4,379.7,146.4Z"/><path d="M401.5,146.5a2.3,2.3,0,0,1,1.8,1.1,3.2,3.2,0,0,1,.9,2c0,.3-.1.5-.5.5l-.8-.2-1.2-.2a5.4,5.4,0,0,0-1.7.4c-.7.2-1.1.6-1.1,1s.3.4.7.7l1.4,1a4.5,4.5,0,0,1,1.5,1.3,3.3,3.3,0,0,1,.6,1.9,2.6,2.6,0,0,1-1.4,2.1,6.8,6.8,0,0,1-3.5,1,6.2,6.2,0,0,1-3.4-.9c-1-.6-1.5-1.2-1.5-1.9s.3-.9.8-.9a1.3,1.3,0,0,1,.8.2,5.6,5.6,0,0,0,3,.7c1.3,0,1.9-.1,1.9-.5a2,2,0,0,0-.7-1.1l-1.6-1.1a7.9,7.9,0,0,1-1.5-1.2,2.6,2.6,0,0,1-.7-1.5c0-.9.8-1.8,2.4-2.9A8.1,8.1,0,0,1,401.5,146.5Z"/><path d="M406.9,149.2c1.3-1.9,2.5-2.8,3.8-2.8a4.6,4.6,0,0,1,3.1,1.3,4.8,4.8,0,0,1,1.3,3.2,9.2,9.2,0,0,1-.9,3.8,8.4,8.4,0,0,1-2.5,3.1,5,5,0,0,1-3.4,1.3,2.8,2.8,0,0,1-2.3-1.2,4.3,4.3,0,0,1-1-2.9A9.6,9.6,0,0,1,406.9,149.2Zm4,5a7.7,7.7,0,0,0,1-3.3,3.7,3.7,0,0,0-.5-2.2,6.5,6.5,0,0,0-2.1,2.6,7.2,7.2,0,0,0-1,3.4,3.8,3.8,0,0,0,.3,1.9A5.4,5.4,0,0,0,410.9,154.2Z"/><path d="M416.3,155.2a8.2,8.2,0,0,1,1.1-3.7,10.9,10.9,0,0,1,2.8-3.6,5.8,5.8,0,0,1,3.4-1.4,2.3,2.3,0,0,1,1.8,1.1,3.2,3.2,0,0,1,.9,2,.5.5,0,0,1-.6.6l-.8-.3-1-.2a2.9,2.9,0,0,0-1.6.9,9.8,9.8,0,0,0-1.7,2.2,4.8,4.8,0,0,0-.8,2,1.3,1.3,0,0,0,.3,1,3.3,3.3,0,0,0,1.4.2l1.9-.2,1.4-.4.7-.2c.5,0,.7.2.7.6s-.6,1.4-1.9,2.2a7.5,7.5,0,0,1-3.7,1.1,4.6,4.6,0,0,1-2.8-1.4A3.4,3.4,0,0,1,416.3,155.2Z"/><path d="M431,146.4a2.2,2.2,0,0,1,1.6,1,3.8,3.8,0,0,1,.6,1.9,17.8,17.8,0,0,1-.8,3.4c-.6,1.9-1.1,3.7-1.7,5.4a1.3,1.3,0,0,1-1.2,1,1.4,1.4,0,0,1-1.3-1.5,20.8,20.8,0,0,1,.6-3.2c.4-1.8.7-3.2,1-4.4a16.2,16.2,0,0,1,.6-2.7Q430.7,146.4,431,146.4Zm-.3-3a2.4,2.4,0,0,1,.5-1.3,1.5,1.5,0,0,1,1.2-.7c.3,0,.8.4,1.3,1.3a4.4,4.4,0,0,1,.7,1.9,1.5,1.5,0,0,1-.3,1,1.6,1.6,0,0,1-.9.3,2.6,2.6,0,0,1-1.6-.9A2.9,2.9,0,0,1,430.7,143.4Z"/><path d="M445,152.1c.3.3.5.5.5.7a5.8,5.8,0,0,1-.3,1.4c-.2.6-.3,1.1-.4,1.5a6.4,6.4,0,0,1-.2.9v.5a.6.6,0,0,0-.1.4,1.1,1.1,0,0,0-.1.5c0,.1-.1.2-.1.3l-.2.4v.2l-.5.2c-.2,0-.5-.2-.9-.7a6.7,6.7,0,0,1-.7-1.7q-2.2,2.4-3.9,2.4a3.7,3.7,0,0,1-2.3-1.2,3.3,3.3,0,0,1-1.2-2.3,8.4,8.4,0,0,1,1.1-3.3,13.8,13.8,0,0,1,2.8-4,5.8,5.8,0,0,1,3.7-1.9,3.9,3.9,0,0,1,2.3,1.2,3.5,3.5,0,0,1,1.4,2.2A4.6,4.6,0,0,1,445,152.1Zm-7.1,3.9a4.5,4.5,0,0,0,2.6-1.3,5.8,5.8,0,0,0,2.1-3.4c0-.2.1-.3.4-.3s-.2-1.4-.5-1.4a3.3,3.3,0,0,0-2.2,1.2,15.6,15.6,0,0,0-2,2.7,5.3,5.3,0,0,0-.7,2.2v.2Z"/><path d="M452.1,140.7a3.2,3.2,0,0,1,.9,2,34.5,34.5,0,0,1-.3,3.5c-.2,1.7-.4,3-.6,4-1.3,5.9-2.3,8.9-2.8,8.9s-.8-.3-1.3-.9-.8-1-.8-1.4.2-.9.6-2.6.9-3.8,1.4-6.4a49.3,49.3,0,0,0,.6-7.5c0-.5.3-.7.8-.7S451.5,139.9,452.1,140.7Z"/><path d="M464.9,149.2c1.2-1.9,2.5-2.8,3.7-2.8a4.2,4.2,0,0,1,3.1,1.3,4.4,4.4,0,0,1,1.3,3.2,9.2,9.2,0,0,1-.9,3.8,8.1,8.1,0,0,1-2.4,3.1,5.2,5.2,0,0,1-3.4,1.3,3.1,3.1,0,0,1-2.4-1.2,4.8,4.8,0,0,1-.9-2.9A9.6,9.6,0,0,1,464.9,149.2Zm3.9,5a6.5,6.5,0,0,0,1-3.3,3.9,3.9,0,0,0-.4-2.2,6.5,6.5,0,0,0-2.1,2.6,7.4,7.4,0,0,0-1.1,3.4,3.8,3.8,0,0,0,.3,1.9A4.9,4.9,0,0,0,468.8,154.2Z"/><path d="M163.8,175c.6,0,1.2.6,1.9,1.7a5.6,5.6,0,0,1,1.1,3.2,4.5,4.5,0,0,1-.9,2.3,12.1,12.1,0,0,1-2,2.6,22.3,22.3,0,0,1-3,2,7.5,7.5,0,0,1-3.1.8h-.3c-1,4.3-1.8,6.4-2.2,6.4s-.7-.3-1.1-.8a2.9,2.9,0,0,1-.6-1.5,29.5,29.5,0,0,1,.8-3.4,59.5,59.5,0,0,0,2.1-12.9c0-.5.2-.8.7-.8a3.3,3.3,0,0,1,2.6,2.4A6.1,6.1,0,0,1,163.8,175Zm-1.9,7.6c1.1-1.2,1.7-2.2,1.7-3s-.3-1.3-.7-1.3a3.1,3.1,0,0,0-2.2,1.2,5.6,5.6,0,0,0-1,1.4,8,8,0,0,0-1,2.3l-.4,1.5A8.5,8.5,0,0,0,161.9,182.6Z"/><path d="M169.9,177.7c1.2-1.8,2.5-2.7,3.7-2.7a3.9,3.9,0,0,1,3.1,1.3,4.2,4.2,0,0,1,1.3,3.2,8.4,8.4,0,0,1-.9,3.7,8.7,8.7,0,0,1-2.4,3.2,5.8,5.8,0,0,1-3.4,1.3,3.1,3.1,0,0,1-2.4-1.2,4.9,4.9,0,0,1-.9-3A10,10,0,0,1,169.9,177.7Zm3.9,5.1a6.6,6.6,0,0,0,1-3.4,3.7,3.7,0,0,0-.4-2.1,6.1,6.1,0,0,0-2.1,2.5,8.2,8.2,0,0,0-1.1,3.5,3.8,3.8,0,0,0,.3,1.9A4.9,4.9,0,0,0,173.8,182.8Z"/><path d="M184.2,169.2a3.5,3.5,0,0,1,.9,2.1c0,.7-.1,1.8-.2,3.5a24.7,24.7,0,0,1-.7,4c-1.3,5.9-2.3,8.9-2.8,8.9s-.8-.3-1.3-.9a2.3,2.3,0,0,1-.8-1.4l.6-2.6c.5-1.7.9-3.8,1.4-6.4a49.3,49.3,0,0,0,.6-7.5c0-.5.3-.7.8-.7S183.6,168.5,184.2,169.2Z"/><path d="M189.1,175a1.9,1.9,0,0,1,1.5,1,4,4,0,0,1,.7,1.9,21.3,21.3,0,0,1-.9,3.3c-.5,1.9-1.1,3.8-1.7,5.5a1.2,1.2,0,0,1-1.2.9,1.4,1.4,0,0,1-1.3-1.3,6,6,0,0,1,.2-1.2c.1-.5.2-1.2.4-2s.4-1.5.5-2,.2-1,.3-1.6.2-1.2.3-1.7l.3-1.3Q188.5,175,189.1,175Zm1.2-.6a.8.8,0,0,1-.7-.4,1.1,1.1,0,0,1-.3-.8,1.6,1.6,0,0,1,.3-.9,4.1,4.1,0,0,1,.9-1l1-.9.7-.6.5-.4.4-.3.7-.2c.4,0,.7.2,1,.7a1.6,1.6,0,0,1,.5,1.2,1.9,1.9,0,0,1-.1.8.5.5,0,0,1-.3.4l-.6.4-1,.5-1.1.5-.8.5Z"/><path d="M197.9,179.8a28.2,28.2,0,0,0-.9,3l-.6,1.9h.4l1.9-.6,1.8-.5c.4,0,.6.2.6.8s-.5,1.2-1.6,2a5.6,5.6,0,0,1-3.4,1.2,3,3,0,0,1-1.9-.9,2.6,2.6,0,0,1-1.1-1.7,13.7,13.7,0,0,1,.8-3.1l1-3.3-1.5.3c-.3,0-.6-.2-1-.7a2.4,2.4,0,0,1-.5-1.3c0-.5,1.2-.9,3.8-1.3a19.8,19.8,0,0,0,.4-3.9.7.7,0,0,1,.8-.8,3.3,3.3,0,0,1,1.6.8,1.9,1.9,0,0,1,1,1.5,10.4,10.4,0,0,1-.3,2.1H201c1.2,0,1.8.2,1.8.8s-.4.7-1.1.9a20.9,20.9,0,0,1-3.2.8A14.5,14.5,0,0,0,197.9,179.8Z"/><path d="M205.9,175a1.9,1.9,0,0,1,1.6,1,3.8,3.8,0,0,1,.6,1.9,16.1,16.1,0,0,1-.8,3.3c-.6,1.9-1.1,3.8-1.7,5.5a1.2,1.2,0,0,1-1.2.9,1.1,1.1,0,0,1-.9-.4,1.2,1.2,0,0,1-.4-1,21.2,21.2,0,0,1,.6-3.3l1-4.4a14.6,14.6,0,0,1,.6-2.6Q205.6,175,205.9,175Zm-.3-3a2.7,2.7,0,0,1,.5-1.4,1.7,1.7,0,0,1,1.2-.6c.3,0,.8.4,1.3,1.3a4.4,4.4,0,0,1,.7,1.9,1.2,1.2,0,0,1-1.2,1.3,2.9,2.9,0,0,1-1.6-1A2.5,2.5,0,0,1,205.6,172Z"/><path d="M209.5,183.8a8.9,8.9,0,0,1,1.1-3.8,13.5,13.5,0,0,1,2.8-3.5,5.6,5.6,0,0,1,3.5-1.5c.6,0,1.1.4,1.8,1.2a3.2,3.2,0,0,1,.9,2,.5.5,0,0,1-.6.6l-.8-.3a2.2,2.2,0,0,0-1.1-.2,2.5,2.5,0,0,0-1.5.9,7.9,7.9,0,0,0-1.8,2.2,4.3,4.3,0,0,0-.8,2,1.3,1.3,0,0,0,.3,1l1.4.2,2-.2,1.3-.4a1.2,1.2,0,0,1,.8-.2c.4,0,.7.2.7.6s-.7,1.4-1.9,2.1a7.1,7.1,0,0,1-3.8,1.2,4.4,4.4,0,0,1-2.7-1.4A3.4,3.4,0,0,1,209.5,183.8Z"/><path d="M231.9,180.7c.3.3.5.5.5.7a5.3,5.3,0,0,1-.3,1.3,7.3,7.3,0,0,0-.4,1.6c-.1.4-.1.6-.2.9a.9.9,0,0,1-.1.5v.4a.8.8,0,0,0-.1.4.6.6,0,0,0-.1.4c-.1.2-.1.3-.2.3s-.1.2-.2.3l-.4.2c-.3,0-.6-.3-.9-.7a4.4,4.4,0,0,1-.7-1.7q-2.4,2.4-3.9,2.4a4.3,4.3,0,0,1-3.5-3.5,8.6,8.6,0,0,1,1-3.4,15.2,15.2,0,0,1,2.9-3.9,5,5,0,0,1,3.6-1.9,3.9,3.9,0,0,1,2.4,1.2,3.5,3.5,0,0,1,1.4,2.2A4.9,4.9,0,0,1,231.9,180.7Zm-7.1,3.9a4.8,4.8,0,0,0,2.6-1.4,5.3,5.3,0,0,0,2-3.3c0-.2.2-.3.4-.4s-.2-1.4-.4-1.4a3.5,3.5,0,0,0-2.2,1.3,15.6,15.6,0,0,0-2,2.7,5.9,5.9,0,0,0-.8,2.2v.2Z"/><path d="M238.8,187.5a6.4,6.4,0,0,1-1.5,3.9q-1.5,2.1-2.7,2.1c-.5,0-.7-.2-.7-.6l.5-.9a7.3,7.3,0,0,0,1.5-3.3,1,1,0,0,0-.4-.9l-.9-.7a.9.9,0,0,1-.4-.8c0-.3.2-.6.7-1.1a2.1,2.1,0,0,1,1.5-.7,2.1,2.1,0,0,1,1.6.9A3.1,3.1,0,0,1,238.8,187.5Z"/><path d="M254.8,169.2a3.7,3.7,0,0,1,1,2.1,34.5,34.5,0,0,1-.3,3.5c-.2,1.7-.4,3-.6,4-1.4,5.9-2.4,8.9-2.9,8.9a2.1,2.1,0,0,1-1.3-.9,2.3,2.3,0,0,1-.8-1.4l.6-2.6c.5-1.7.9-3.8,1.4-6.4a49.3,49.3,0,0,0,.6-7.5c0-.5.3-.7.8-.7S254.2,168.5,254.8,169.2Z"/><path d="M266.8,180.7c.3.3.4.5.4.7a5.3,5.3,0,0,1-.3,1.3l-.4,1.6c0,.4-.1.6-.1.9a.9.9,0,0,0-.1.5c0,.1-.1.2-.1.4s-.1.3-.1.4v.4a.4.4,0,0,1-.1.3l-.2.3-.5.2c-.2,0-.5-.3-.8-.7a4.5,4.5,0,0,1-.8-1.7q-2.2,2.4-3.9,2.4a3.3,3.3,0,0,1-2.2-1.2,3.7,3.7,0,0,1-1.3-2.3,9.2,9.2,0,0,1,1.1-3.4,15.2,15.2,0,0,1,2.9-3.9,5,5,0,0,1,3.6-1.9,3.9,3.9,0,0,1,2.4,1.2,3.3,3.3,0,0,1,1.3,2.2A4.6,4.6,0,0,1,266.8,180.7Zm-7.1,3.9a5.1,5.1,0,0,0,2.6-1.4,6.3,6.3,0,0,0,2-3.3c0-.2.1-.3.4-.4s-.2-1.4-.5-1.4a3.7,3.7,0,0,0-2.2,1.3,14.8,14.8,0,0,0-1.9,2.7,4.5,4.5,0,0,0-.8,2.2v.2Z"/><path d="M288.7,168.2a2.4,2.4,0,0,1,1.6,1,3.2,3.2,0,0,1,.9,2,24.1,24.1,0,0,1-.8,3.9c-.6,2.3-.9,3.6-1,4.1-1.3,5.6-2.3,8.5-2.9,8.5a1.9,1.9,0,0,1-1.2-.7,1.7,1.7,0,0,1-.6-1.2v-.2c-1.6,1.4-2.8,2.1-3.5,2.1a2.6,2.6,0,0,1-2-1.2,2.9,2.9,0,0,1-1-2.1,15,15,0,0,1,.2-2,22.5,22.5,0,0,1,.8-2.4,13.6,13.6,0,0,1,1.3-2.4,6,6,0,0,1,1.6-1.9,4.4,4.4,0,0,1,2.1-.7,3.3,3.3,0,0,1,2.6,1.6c.8-3.9,1.3-6.4,1.2-7.7A.6.6,0,0,1,288.7,168.2Zm-7.2,16.3a4.5,4.5,0,0,0,2.1-1,6.4,6.4,0,0,0,2.2-2.7c-.1-.1-.1-.4-.1-.8a2,2,0,0,0-.4-1.3c-.3-.4-.6-.6-.8-.6a1.9,1.9,0,0,0-1.4.8,5.9,5.9,0,0,0-1.1,1.9,12.2,12.2,0,0,0-.8,3.4v.3Z"/><path d="M300.8,181.8a6.8,6.8,0,0,1-3.3.9l-2.8-.2a2.7,2.7,0,0,0-.2,1.3c0,.4,0,.7.2.9s.5.3,1.1.3a13.5,13.5,0,0,0,3.1-.3l1.4-.4c.7,0,1,.2,1,.7s-.5,1.2-1.6,1.8a7.1,7.1,0,0,1-3.6.9,4.9,4.9,0,0,1-3.4-1.3,4.5,4.5,0,0,1-1.2-3.1,7.6,7.6,0,0,1,1-3.7,12.3,12.3,0,0,1,2.6-3.3,5.5,5.5,0,0,1,3.2-1.3,3.5,3.5,0,0,1,2.8,1.6,4.6,4.6,0,0,1,1.4,3C302.5,180.4,301.9,181.1,300.8,181.8Zm-1.7-3.3a1.6,1.6,0,0,0-1-.5c-.3,0-.6.2-1.1.7a8.5,8.5,0,0,0-1.4,1.7h.7q3.3,0,3.3-1.2C299.6,179,299.5,178.8,299.1,178.5Z"/><path d="M312.3,175c.6,0,1.3.6,2,1.7a5.5,5.5,0,0,1,1,3.2,5.3,5.3,0,0,1-.8,2.3,17.1,17.1,0,0,1-2.1,2.6,16.4,16.4,0,0,1-2.9,2,7.9,7.9,0,0,1-3.2.8H306c-1,4.3-1.7,6.4-2.1,6.4s-.7-.3-1.1-.8a2.9,2.9,0,0,1-.6-1.5,21,21,0,0,1,.7-3.4,59.5,59.5,0,0,0,2.1-12.9c0-.5.2-.8.7-.8a3.3,3.3,0,0,1,2.6,2.4A6.3,6.3,0,0,1,312.3,175Zm-1.9,7.6c1.1-1.2,1.7-2.2,1.7-3s-.2-1.3-.7-1.3a3.3,3.3,0,0,0-2.2,1.2,10.4,10.4,0,0,0-1,1.4,12.2,12.2,0,0,0-1,2.3l-.4,1.5A7.4,7.4,0,0,0,310.4,182.6Z"/><path d="M326,181.8a6.9,6.9,0,0,1-3.4.9l-2.8-.2a5.1,5.1,0,0,0-.2,1.3,2,2,0,0,0,.2.9,1.4,1.4,0,0,0,1.1.3,15.1,15.1,0,0,0,3.2-.3l1.3-.4c.7,0,1,.2,1,.7s-.5,1.2-1.6,1.8a6.9,6.9,0,0,1-3.6.9,4.5,4.5,0,0,1-3.3-1.3,4.2,4.2,0,0,1-1.3-3.1,7.8,7.8,0,0,1,1.1-3.7,10.6,10.6,0,0,1,2.6-3.3,5.2,5.2,0,0,1,3.1-1.3,3.8,3.8,0,0,1,2.9,1.6,4.4,4.4,0,0,1,1.3,3C327.6,180.4,327,181.1,326,181.8Zm-1.8-3.3a1.4,1.4,0,0,0-.9-.5,1.9,1.9,0,0,0-1.2.7,5.9,5.9,0,0,0-1.3,1.7h.6c2.2,0,3.4-.4,3.4-1.2S324.6,178.8,324.2,178.5Z"/><path d="M337.6,175a2.8,2.8,0,0,1,2.2,1.2,3.3,3.3,0,0,1,1,2.4,13.3,13.3,0,0,1-.7,4.3,12,12,0,0,1-1.4,3.5c-.6.9-1.1,1.3-1.7,1.3s-.8-.4-.8-1.2a16.7,16.7,0,0,1,.8-3.5,14.8,14.8,0,0,0,.6-3.2c0-.6,0-1-.2-1a.7.7,0,0,0-.6.4l-.5.5-.5.6-.4.7a5.6,5.6,0,0,0-.5.8l-.4.8a5.6,5.6,0,0,0-.5.8c-1.5,2.8-2.7,4.3-3.6,4.3s-.7-.3-1.3-.9a2.7,2.7,0,0,1-.7-1.3,4.9,4.9,0,0,1,.3-1.2l.5-1.4.3-1c.1-.4.1-.7.2-1.2s.1-.7.1-.9a4.9,4.9,0,0,1,.1-1.1c.1-2.1.2-3.3.4-3.5s.2-.4.3-.4a2.9,2.9,0,0,1,1.8.8,2.1,2.1,0,0,1,.9,1.4,19.7,19.7,0,0,1-.8,4.4,33.9,33.9,0,0,1,2.9-4.6C336.2,175.6,337,175,337.6,175Z"/><path d="M352.6,168.2c.4,0,.9.3,1.5,1a2.9,2.9,0,0,1,1,2,33.6,33.6,0,0,1-.9,3.9c-.5,2.3-.9,3.6-1,4.1-1.3,5.6-2.3,8.5-2.9,8.5a1.6,1.6,0,0,1-1.1-.7,1.7,1.7,0,0,1-.6-1.2v-.2c-1.7,1.4-2.8,2.1-3.5,2.1a2.9,2.9,0,0,1-2.1-1.2,2.9,2.9,0,0,1-1-2.1,13.2,13.2,0,0,1,1.1-4.4,9,9,0,0,1,1.2-2.4,6.3,6.3,0,0,1,1.7-1.9,4,4,0,0,1,2-.7,3.1,3.1,0,0,1,2.6,1.6,41.8,41.8,0,0,0,1.3-7.7C351.9,168.4,352.1,168.2,352.6,168.2Zm-7.2,16.3a4,4,0,0,0,2-1,6.4,6.4,0,0,0,2.2-2.7V180a2.1,2.1,0,0,0-.5-1.3.9.9,0,0,0-.8-.6,2.1,2.1,0,0,0-1.4.8,5.7,5.7,0,0,0-1,1.9,10,10,0,0,0-.9,3.4c0,.2.1.2.1.3Z"/><path d="M364.7,181.8a6.9,6.9,0,0,1-3.4.9l-2.8-.2a5.1,5.1,0,0,0-.2,1.3,2,2,0,0,0,.2.9,1.4,1.4,0,0,0,1.1.3,14.5,14.5,0,0,0,3.2-.3l1.3-.4c.7,0,1,.2,1,.7s-.5,1.2-1.5,1.8a7.5,7.5,0,0,1-3.7.9,4.5,4.5,0,0,1-3.3-1.3,4.6,4.6,0,0,1-1.3-3.1,7.8,7.8,0,0,1,1.1-3.7,10.6,10.6,0,0,1,2.6-3.3,5.2,5.2,0,0,1,3.1-1.3,3.6,3.6,0,0,1,2.9,1.6,4.4,4.4,0,0,1,1.3,3C366.3,180.4,365.8,181.1,364.7,181.8Zm-1.7-3.3a1.9,1.9,0,0,0-1-.5,1.9,1.9,0,0,0-1.2.7,8.4,8.4,0,0,0-1.3,1.7h.6c2.3,0,3.4-.4,3.4-1.2S363.3,178.8,363,178.5Z"/><path d="M376.3,175a2.6,2.6,0,0,1,2.2,1.2,3.3,3.3,0,0,1,1,2.4,13.3,13.3,0,0,1-.7,4.3,12,12,0,0,1-1.4,3.5c-.6.9-1.1,1.3-1.6,1.3s-.9-.4-.9-1.2a16.7,16.7,0,0,1,.8-3.5,11.5,11.5,0,0,0,.7-3.2c0-.6-.1-1-.3-1a.7.7,0,0,0-.6.4l-.5.5-.5.6a4.3,4.3,0,0,1-.4.7l-.5.8a5.9,5.9,0,0,0-.4.8l-.5.8c-1.5,2.8-2.7,4.3-3.5,4.3s-.8-.3-1.3-.9a2.4,2.4,0,0,1-.8-1.3,4.9,4.9,0,0,1,.3-1.2,8.2,8.2,0,0,0,.5-1.4l.3-1c.1-.4.1-.7.2-1.2s.1-.7.1-.9.1-.6.1-1.1a16.1,16.1,0,0,1,.4-3.5c.1-.3.2-.4.3-.4a2.9,2.9,0,0,1,1.8.8,2.1,2.1,0,0,1,.9,1.4,19.7,19.7,0,0,1-.8,4.4,33.9,33.9,0,0,1,2.9-4.6C375,175.6,375.7,175,376.3,175Z"/><path d="M380.9,183.8a8.6,8.6,0,0,1,1-3.8,13.9,13.9,0,0,1,2.9-3.5,5.2,5.2,0,0,1,3.4-1.5,2.4,2.4,0,0,1,1.8,1.2,3.2,3.2,0,0,1,.9,2,.5.5,0,0,1-.6.6l-.8-.3a2.2,2.2,0,0,0-1.1-.2,3.1,3.1,0,0,0-1.5.9,10.1,10.1,0,0,0-1.8,2.2,4,4,0,0,0-.7,2,2.2,2.2,0,0,0,.2,1l1.4.2,2-.2,1.3-.4a1.3,1.3,0,0,1,.8-.2c.5,0,.7.2.7.6s-.6,1.4-1.9,2.1a7.1,7.1,0,0,1-3.8,1.2,4.4,4.4,0,0,1-2.7-1.4A3.6,3.6,0,0,1,380.9,183.8Z"/><path d="M395.6,175a1.7,1.7,0,0,1,1.5,1,3.2,3.2,0,0,1,.7,1.9,30.5,30.5,0,0,1-.8,3.3l-1.7,5.5a1.2,1.2,0,0,1-1.2.9,1.3,1.3,0,0,1-1-.4,1.5,1.5,0,0,1-.4-1,15.7,15.7,0,0,1,.7-3.3c.4-1.7.7-3.1.9-4.4a14.6,14.6,0,0,1,.6-2.6C395.1,175.3,395.3,175,395.6,175Zm-.4-3a2.2,2.2,0,0,1,.6-1.4,1.7,1.7,0,0,1,1.1-.6c.4,0,.8.4,1.4,1.3a4.4,4.4,0,0,1,.7,1.9,1,1,0,0,1-.4.9.9.9,0,0,1-.8.4c-.5,0-1-.4-1.6-1S395.2,172.4,395.2,172Z"/><path d="M409.6,180.7c.3.3.5.5.5.7a5.3,5.3,0,0,1-.3,1.3,7.3,7.3,0,0,0-.4,1.6c-.1.4-.1.6-.2.9s-.1.3-.1.5a.8.8,0,0,1-.1.4c0,.2,0,.3-.1.4a.6.6,0,0,1-.1.4c0,.2,0,.3-.1.3s-.1.2-.2.3a.6.6,0,0,1-.5.2c-.2,0-.5-.3-.8-.7a4.4,4.4,0,0,1-.7-1.7q-2.4,2.4-3.9,2.4a4.3,4.3,0,0,1-3.5-3.5,8.6,8.6,0,0,1,1-3.4,15.2,15.2,0,0,1,2.9-3.9,5,5,0,0,1,3.6-1.9,3.9,3.9,0,0,1,2.4,1.2,3.5,3.5,0,0,1,1.4,2.2A4.9,4.9,0,0,1,409.6,180.7Zm-7.1,3.9a5.1,5.1,0,0,0,2.6-1.4,5.3,5.3,0,0,0,2-3.3c0-.2.2-.3.4-.4s-.2-1.4-.4-1.4a3.5,3.5,0,0,0-2.2,1.3,15.6,15.6,0,0,0-2,2.7,5.9,5.9,0,0,0-.8,2.2c0,.1,0,.2.1.2Z"/><path d="M431.6,168.2c.4,0,.9.3,1.5,1a2.9,2.9,0,0,1,1,2,33.6,33.6,0,0,1-.9,3.9c-.5,2.3-.9,3.6-1,4.1-1.3,5.6-2.3,8.5-2.9,8.5a1.6,1.6,0,0,1-1.1-.7,1.9,1.9,0,0,1-.7-1.2v-.2c-1.7,1.4-2.8,2.1-3.5,2.1a2.7,2.7,0,0,1-2.1-1.2,2.9,2.9,0,0,1-1-2.1,13.2,13.2,0,0,1,1.1-4.4,9,9,0,0,1,1.2-2.4,6.3,6.3,0,0,1,1.7-1.9,3.7,3.7,0,0,1,2-.7,3.1,3.1,0,0,1,2.6,1.6,41.8,41.8,0,0,0,1.3-7.7C430.9,168.4,431.1,168.2,431.6,168.2Zm-7.2,16.3a4,4,0,0,0,2-1,6.4,6.4,0,0,0,2.2-2.7V180a2.1,2.1,0,0,0-.5-1.3c-.3-.4-.5-.6-.8-.6a2.1,2.1,0,0,0-1.4.8,5.7,5.7,0,0,0-1,1.9,10,10,0,0,0-.9,3.4c0,.2,0,.2.1.3Z"/><path d="M443.7,181.8a6.9,6.9,0,0,1-3.4.9l-2.8-.2a5.1,5.1,0,0,0-.2,1.3,2,2,0,0,0,.2.9,1.4,1.4,0,0,0,1.1.3,15.1,15.1,0,0,0,3.2-.3l1.3-.4c.7,0,1,.2,1,.7s-.5,1.2-1.6,1.8a6.9,6.9,0,0,1-3.6.9,4.5,4.5,0,0,1-3.3-1.3,4.2,4.2,0,0,1-1.3-3.1,7.8,7.8,0,0,1,1.1-3.7,10.6,10.6,0,0,1,2.6-3.3,5.2,5.2,0,0,1,3.1-1.3,3.8,3.8,0,0,1,2.9,1.6,4.4,4.4,0,0,1,1.3,3C445.3,180.4,444.8,181.1,443.7,181.8Zm-1.8-3.3a1.4,1.4,0,0,0-.9-.5,1.9,1.9,0,0,0-1.2.7,5.9,5.9,0,0,0-1.3,1.7h.6c2.2,0,3.4-.4,3.4-1.2S442.3,178.8,441.9,178.5Z"/><path d="M460.7,169.2a3.5,3.5,0,0,1,.9,2.1,34.5,34.5,0,0,1-.3,3.5c-.2,1.7-.4,3-.6,4-1.3,5.9-2.3,8.9-2.8,8.9s-.8-.3-1.4-.9a2.9,2.9,0,0,1-.8-1.4c0-.1.3-.9.7-2.6s.9-3.8,1.3-6.4a39.5,39.5,0,0,0,.7-7.5c0-.5.3-.7.8-.7S460.1,168.5,460.7,169.2Z"/><path d="M472.6,180.7c.3.3.5.5.5.7a5.3,5.3,0,0,1-.3,1.3l-.4,1.6c-.1.4-.1.6-.2.9a.9.9,0,0,1-.1.5v.4a.8.8,0,0,0-.1.4.6.6,0,0,0-.1.4c-.1.2-.1.3-.2.3s-.1.2-.1.3l-.5.2c-.3,0-.5-.3-.9-.7a4.4,4.4,0,0,1-.7-1.7c-1.6,1.6-2.8,2.4-3.9,2.4a4.3,4.3,0,0,1-3.5-3.5,9.2,9.2,0,0,1,1.1-3.4,14.8,14.8,0,0,1,2.8-3.9,5.3,5.3,0,0,1,3.6-1.9,3.9,3.9,0,0,1,2.4,1.2,3.5,3.5,0,0,1,1.4,2.2A4.9,4.9,0,0,1,472.6,180.7Zm-7.1,3.9a4.8,4.8,0,0,0,2.6-1.4,5.3,5.3,0,0,0,2-3.3.7.7,0,0,1,.5-.4c-.1-.9-.3-1.4-.5-1.4a3.5,3.5,0,0,0-2.2,1.3,15.6,15.6,0,0,0-2,2.7,5.9,5.9,0,0,0-.8,2.2v.2Z"/><path d="M113.4,210.3a5.8,5.8,0,0,1-3.3,1,10.9,10.9,0,0,1-2.8-.3,3.4,3.4,0,0,0-.2,1.4c0,.4,0,.7.2.9s.5.3,1.1.3a9.3,9.3,0,0,0,3.1-.4l1.4-.3c.7,0,1,.2,1,.7s-.5,1.2-1.6,1.8a8.3,8.3,0,0,1-3.6.8,4.5,4.5,0,0,1-3.4-1.3,4.2,4.2,0,0,1-1.2-3,7.4,7.4,0,0,1,1-3.7,12.3,12.3,0,0,1,2.6-3.3,4.9,4.9,0,0,1,3.2-1.3,3.6,3.6,0,0,1,2.8,1.5,4.8,4.8,0,0,1,1.4,3.1C115.1,209,114.5,209.7,113.4,210.3Zm-1.7-3.2a1.6,1.6,0,0,0-1-.5c-.3,0-.6.2-1.1.7a7.6,7.6,0,0,0-1.4,1.6h.7q3.3,0,3.3-1.2C112.2,207.6,112.1,207.4,111.7,207.1Z"/><path d="M116,212.4a8.5,8.5,0,0,1,1.1-3.8,10.9,10.9,0,0,1,2.9-3.5,5.2,5.2,0,0,1,3.4-1.5,2.6,2.6,0,0,1,1.8,1.1,3.5,3.5,0,0,1,.9,2c0,.5-.2.7-.6.7l-.8-.3a2.3,2.3,0,0,0-1.1-.3,2.7,2.7,0,0,0-1.5.9,10.2,10.2,0,0,0-1.8,2.3,4.3,4.3,0,0,0-.8,2q0,.8.3.9c.2.2.7.2,1.4.2h2l1.3-.5.8-.2c.4,0,.7.2.7.6s-.7,1.5-1.9,2.2a6.9,6.9,0,0,1-3.8,1.1,4.2,4.2,0,0,1-2.7-1.3A3.8,3.8,0,0,1,116,212.4Z"/><path d="M129.8,206.3c1.3-1.8,2.5-2.7,3.8-2.7a4.2,4.2,0,0,1,3.1,1.3A4.6,4.6,0,0,1,138,208a8.8,8.8,0,0,1-.9,3.8,8.7,8.7,0,0,1-2.5,3.2,5.4,5.4,0,0,1-3.4,1.2,2.8,2.8,0,0,1-2.3-1.2,4.1,4.1,0,0,1-1-2.9A9.8,9.8,0,0,1,129.8,206.3Zm4,5.1a8.1,8.1,0,0,0,1-3.4,4,4,0,0,0-.5-2.2,7.4,7.4,0,0,0-2.1,2.6,7.5,7.5,0,0,0-1,3.5,3.4,3.4,0,0,0,.3,1.8A5.1,5.1,0,0,0,133.8,211.4Z"/><path d="M148.2,203.6a2.8,2.8,0,0,1,2.2,1.1,3.6,3.6,0,0,1,1,2.5,18.6,18.6,0,0,1-2.1,7.8c-.6.8-1.1,1.2-1.6,1.2s-.9-.4-.9-1.1a18.6,18.6,0,0,1,.8-3.6,15.1,15.1,0,0,0,.7-3.1c0-.7-.1-1-.3-1l-.6.3-.5.6-.5.6a4.3,4.3,0,0,1-.4.7l-.5.8-.4.8-.5.8c-1.5,2.8-2.7,4.2-3.5,4.2s-.8-.3-1.3-.9-.8-1-.8-1.3a4.5,4.5,0,0,1,.3-1.1,8.2,8.2,0,0,0,.5-1.4l.3-1c.1-.4.1-.8.2-1.2s.1-.7.1-1,.1-.5.1-1a17.7,17.7,0,0,1,.4-3.6l.3-.3a2.9,2.9,0,0,1,1.8.8,2.1,2.1,0,0,1,.9,1.4,19,19,0,0,1-.8,4.3,39.4,39.4,0,0,1,2.9-4.5C146.9,204.2,147.6,203.6,148.2,203.6Z"/><path d="M154.5,206.3c1.3-1.8,2.6-2.7,3.8-2.7a4,4,0,0,1,3.1,1.3,4.2,4.2,0,0,1,1.3,3.1,8.8,8.8,0,0,1-.9,3.8,8.7,8.7,0,0,1-2.5,3.2,5.2,5.2,0,0,1-3.4,1.2,2.9,2.9,0,0,1-2.3-1.2,4.6,4.6,0,0,1-1-2.9A10.5,10.5,0,0,1,154.5,206.3Zm4,5.1a6.9,6.9,0,0,0,1-3.4,5.4,5.4,0,0,0-.4-2.2,7.4,7.4,0,0,0-2.1,2.6,7.8,7.8,0,0,0-1.1,3.5,3.4,3.4,0,0,0,.3,1.8A4.7,4.7,0,0,0,158.5,211.4Z"/><path d="M180.4,203.6a1.8,1.8,0,0,1,1.6,1.3,5.3,5.3,0,0,1,.6,2.3,15.2,15.2,0,0,1-.4,3.1,18.5,18.5,0,0,1-1.2,4c-.6,1.3-1.2,1.9-1.9,1.9s-.8-.3-.8-1.1a18.4,18.4,0,0,1,.6-3.6,19.5,19.5,0,0,0,.7-3.3c0-.5-.1-.7-.3-.7s-.7.3-1.2,1.1a18.7,18.7,0,0,0-1.7,3l-1.3,2.4a3.9,3.9,0,0,1-.4.9l-.3.6q-.7,1.4-2.1,0a1.9,1.9,0,0,1-.7-1.2,13.2,13.2,0,0,0,.4-1.8,17,17,0,0,0,.5-4.1q0-.9-.3-.9c-.2,0-.4.2-.7.6l-1.2,2.1a25,25,0,0,1-1.4,2.5c-1.3,2.4-2.4,3.5-3.1,3.5a2.1,2.1,0,0,1-1.3-.9c-.6-.6-.8-1-.8-1.4a20.4,20.4,0,0,1,.5-2.3,15.9,15.9,0,0,0,.7-3.8c.2-1.4.2-2.5.3-3.2s.3-1.2.6-1.2a2.9,2.9,0,0,1,1.8.8,2.1,2.1,0,0,1,.9,1.4,22.9,22.9,0,0,1-1.1,5,28.2,28.2,0,0,1,2.9-5.5,3.6,3.6,0,0,1,2.4-1.5c.4,0,1,.4,1.6,1.2a3.7,3.7,0,0,1,.9,2.2v1.7a12.4,12.4,0,0,1,2.3-3.5A4.3,4.3,0,0,1,180.4,203.6Z"/><path d="M187.3,203.6a1.7,1.7,0,0,1,1.5,1,3,3,0,0,1,.7,1.9,30.5,30.5,0,0,1-.8,3.3c-.6,1.9-1.2,3.7-1.7,5.5a1.3,1.3,0,0,1-2.2.5,1.6,1.6,0,0,1-.3-.9,6.2,6.2,0,0,1,.1-1.3,14.3,14.3,0,0,1,.5-2c.2-.8.3-1.4.4-1.9s.2-1,.3-1.7.2-1.2.3-1.6l.3-1.4C186.7,204.1,187,203.6,187.3,203.6Zm1.2-.6a1,1,0,0,1-.7-.4,1.1,1.1,0,0,1-.3-.8,1.9,1.9,0,0,1,.3-1,3.8,3.8,0,0,1,.9-.9l1.1-.9.7-.6.4-.4.5-.3a.7.7,0,0,1,.6-.2,1.5,1.5,0,0,1,1.1.6,2.7,2.7,0,0,1,.5,1.3,5.6,5.6,0,0,1-.1.7l-.4.5-.6.3-1,.5-1,.6-.9.5A2.1,2.1,0,0,1,188.5,203Z"/><path d="M200.8,209.3a.9.9,0,0,1,.4.7,6.6,6.6,0,0,1-.3,1.3c-.2.7-.3,1.2-.4,1.6s-.1.6-.1.8a1.1,1.1,0,0,0-.1.5c0,.2-.1.3-.1.5a.8.8,0,0,0-.1.4c0,.1-.1.2-.1.4s-.1.2-.1.3-.1.2-.2.2-.3.2-.5.2-.5-.2-.8-.7a4,4,0,0,1-.8-1.6c-1.5,1.5-2.8,2.3-3.9,2.3a3.5,3.5,0,0,1-2.2-1.1,3.2,3.2,0,0,1-1.3-2.4,9.5,9.5,0,0,1,1.1-3.3,15,15,0,0,1,2.9-4,5.2,5.2,0,0,1,3.6-1.8,3.9,3.9,0,0,1,2.4,1.2,3.5,3.5,0,0,1,1.3,2.2A4.9,4.9,0,0,1,200.8,209.3Zm-7.2,3.8a4.2,4.2,0,0,0,2.6-1.3,5.8,5.8,0,0,0,2.1-3.4c0-.2.1-.3.4-.3s-.2-1.4-.5-1.4A3.3,3.3,0,0,0,196,208a13.5,13.5,0,0,0-2,2.7,5.5,5.5,0,0,0-.7,2.1v.3Z"/><path d="M221.6,210.3a6,6,0,0,1-3.3,1,10.4,10.4,0,0,1-2.8-.3,3.5,3.5,0,0,0-.3,1.4,1.2,1.2,0,0,0,.3.9c.1.2.5.3,1.1.3a9.7,9.7,0,0,0,3.1-.4l1.4-.3c.6,0,1,.2,1,.7s-.6,1.2-1.6,1.8a8.7,8.7,0,0,1-3.7.8,4.4,4.4,0,0,1-3.3-1.3,4.2,4.2,0,0,1-1.2-3,7.4,7.4,0,0,1,1-3.7,12.3,12.3,0,0,1,2.6-3.3,4.9,4.9,0,0,1,3.1-1.3,3.8,3.8,0,0,1,2.9,1.5,4.7,4.7,0,0,1,1.3,3.1C223.2,209,222.7,209.7,221.6,210.3Zm-1.7-3.2a1.6,1.6,0,0,0-1-.5,1.6,1.6,0,0,0-1.1.7,5.6,5.6,0,0,0-1.4,1.6h.7q3.3,0,3.3-1.2C220.4,207.6,220.2,207.4,219.9,207.1Z"/><path d="M233.5,215.3c0,.6-.3.9-.8.9s-2-1-3.5-3.2c-1.8,2.2-3.1,3.2-3.7,3.2a1.8,1.8,0,0,1-1.3-.6,1.7,1.7,0,0,1-.6-1.2l.5-.6a36,36,0,0,0,3.4-3.6c-.7-1.3-1.3-2.5-1.8-3.7a11.8,11.8,0,0,1-.7-2.1v-.5a.5.5,0,0,1,.5-.3,5.2,5.2,0,0,1,2.1.4q1.2.5,1.2.9a6.3,6.3,0,0,0,.7,2.5,13.2,13.2,0,0,1,2.5-2.9,2.5,2.5,0,0,1,1.5-.9,1.9,1.9,0,0,1,1.3.7c.5.5.8.9.8,1.3l-.2.5-.7.5a6,6,0,0,0-.8.8c-.3.3-1.2,1.3-2.7,3.2l.7,1.2A11.5,11.5,0,0,1,233.5,215.3Z"/><path d="M241.6,208.4c-.2.8-.6,1.7-.9,2.9l-.6,1.9c0,.1.2.1.4.1a6.6,6.6,0,0,0,2-.5l1.7-.6c.4,0,.7.3.7.9s-.6,1.2-1.7,2a6.2,6.2,0,0,1-3.4,1.1,3.7,3.7,0,0,1-1.9-.8,2.6,2.6,0,0,1-1.1-1.8,15.1,15.1,0,0,1,.8-3.1l1-3.2-1.4.3c-.4,0-.7-.3-1.1-.7a2.7,2.7,0,0,1-.5-1.3c0-.5,1.3-1,3.8-1.3a21.7,21.7,0,0,0,.5-4c0-.5.2-.7.7-.7a3,3,0,0,1,1.6.8,1.9,1.9,0,0,1,1,1.5,10.4,10.4,0,0,1-.3,2.1h1.8q1.8,0,1.8.9c0,.3-.3.6-1,.9l-3.3.8A13,13,0,0,1,241.6,208.4Z"/><path d="M248.2,207.7V205c0-.9.3-1.4.8-1.4a1.3,1.3,0,0,1,1,.4,1.8,1.8,0,0,1,.7,1.1,7.6,7.6,0,0,1,1.9-1.2,3.8,3.8,0,0,1,1.7-.4c1.2,0,1.8.3,1.8.8a1.4,1.4,0,0,1-.2.7c-.1.1-.2.2-.2.3l-.3.2-.3.3-.8.5a6,6,0,0,0-1.9,1.6,8.5,8.5,0,0,0-1.2,2.7,16.1,16.1,0,0,1-1.3,4.2c-.4.9-.8,1.4-1.4,1.4a1.1,1.1,0,0,1-1.1-.7,2.7,2.7,0,0,1-.4-1.4,8,8,0,0,1,.5-2,12.3,12.3,0,0,0,.6-2.2A7.2,7.2,0,0,0,248.2,207.7Z"/><path d="M266.2,209.3a.9.9,0,0,1,.4.7,6.6,6.6,0,0,1-.3,1.3l-.4,1.6a2.5,2.5,0,0,0-.1.8,1.1,1.1,0,0,0-.1.5c0,.2-.1.3-.1.5a.8.8,0,0,0-.1.4c0,.1-.1.2-.1.4a.4.4,0,0,0-.1.3l-.2.2c-.1.2-.3.2-.5.2s-.5-.2-.9-.7a5.9,5.9,0,0,1-.7-1.6c-1.5,1.5-2.8,2.3-3.9,2.3a3.5,3.5,0,0,1-2.2-1.1,3.2,3.2,0,0,1-1.3-2.4,9.5,9.5,0,0,1,1.1-3.3,15,15,0,0,1,2.9-4,5.2,5.2,0,0,1,3.6-1.8,3.7,3.7,0,0,1,2.3,1.2,3.3,3.3,0,0,1,1.4,2.2A6.5,6.5,0,0,1,266.2,209.3Zm-7.2,3.8a4.2,4.2,0,0,0,2.6-1.3,5.8,5.8,0,0,0,2.1-3.4c0-.2.1-.3.4-.3s-.2-1.4-.5-1.4a3.3,3.3,0,0,0-2.2,1.3,13.5,13.5,0,0,0-2,2.7,5.5,5.5,0,0,0-.7,2.1v.3Z"/><path d="M268.2,212.4a8.5,8.5,0,0,1,1.1-3.8,12,12,0,0,1,2.8-3.5,5.6,5.6,0,0,1,3.5-1.5c.6,0,1.1.4,1.8,1.1a3.5,3.5,0,0,1,.9,2c0,.5-.2.7-.6.7l-.8-.3a2.3,2.3,0,0,0-1.1-.3,2.7,2.7,0,0,0-1.5.9,10.2,10.2,0,0,0-1.8,2.3,4.3,4.3,0,0,0-.8,2q0,.8.3.9c.2.2.7.2,1.4.2h2l1.3-.5.8-.2c.4,0,.7.2.7.6s-.7,1.5-1.9,2.2a6.9,6.9,0,0,1-3.8,1.1,4.2,4.2,0,0,1-2.7-1.3A3.8,3.8,0,0,1,268.2,212.4Z"/><path d="M286,208.4a25.7,25.7,0,0,0-.9,2.9l-.6,1.9c0,.1.1.1.4.1a5.7,5.7,0,0,0,1.9-.5l1.8-.6q.6,0,.6.9c0,.5-.5,1.2-1.6,2a6.2,6.2,0,0,1-3.4,1.1,3.4,3.4,0,0,1-1.9-.8,2.6,2.6,0,0,1-1.1-1.8,15.1,15.1,0,0,1,.8-3.1l1-3.2-1.5.3c-.3,0-.6-.3-1-.7a2.7,2.7,0,0,1-.5-1.3c0-.5,1.2-1,3.8-1.3a20.7,20.7,0,0,0,.4-4c0-.5.3-.7.8-.7a3.3,3.3,0,0,1,1.6.8,1.9,1.9,0,0,1,1,1.5,10.4,10.4,0,0,1-.3,2.1h1.8q1.8,0,1.8.9c0,.3-.4.6-1.1.9l-3.2.8A14.5,14.5,0,0,0,286,208.4Z"/><path d="M294,203.6a1.9,1.9,0,0,1,1.6,1,3.5,3.5,0,0,1,.6,1.9,16.1,16.1,0,0,1-.8,3.3c-.6,1.9-1.1,3.7-1.7,5.5a1.2,1.2,0,0,1-1.2.9,1.1,1.1,0,0,1-.9-.4,1.3,1.3,0,0,1-.4-1,19.4,19.4,0,0,1,.6-3.3c.4-1.7.7-3.2.9-4.4s.5-2.1.7-2.7S293.8,203.6,294,203.6Zm-.3-3.1a2.7,2.7,0,0,1,.5-1.3,1.9,1.9,0,0,1,1.2-.7c.3,0,.8.5,1.3,1.4a4.4,4.4,0,0,1,.7,1.9,1,1,0,0,1-.4.9,1.1,1.1,0,0,1-.8.3,2.6,2.6,0,0,1-1.6-.9A2.4,2.4,0,0,1,293.7,200.5Z"/><path d="M306.2,203.6a1.9,1.9,0,0,1,1.2.4,1.4,1.4,0,0,1,.6,1,13.2,13.2,0,0,1-1.4,4.1,55.6,55.6,0,0,1-2.7,5.1c-.8,1.4-1.5,2-1.9,2a2.5,2.5,0,0,1-1.1-.5,1.7,1.7,0,0,1-.9-1,28.9,28.9,0,0,1-1.4-5.2,26.2,26.2,0,0,1-.8-4.9c0-.7.2-1,.6-1a2.7,2.7,0,0,1,1.8.7,4.1,4.1,0,0,1,1.6,3c0,.6.1,1.3.1,2.1s.1,1.6.2,2.3.9-1.9,1.5-3.4a33,33,0,0,1,1.5-3.5C305.5,204,305.9,203.6,306.2,203.6Z"/><path d="M318.4,209.3a.9.9,0,0,1,.4.7,6.6,6.6,0,0,1-.3,1.3c-.2.7-.3,1.2-.4,1.6s-.1.6-.1.8a1.1,1.1,0,0,0-.1.5c0,.2-.1.3-.1.5s-.1.3-.1.4-.1.2-.1.4-.1.2-.1.3l-.2.2c-.1.2-.3.2-.5.2s-.5-.2-.8-.7a4,4,0,0,1-.8-1.6c-1.5,1.5-2.8,2.3-3.9,2.3a3.5,3.5,0,0,1-2.2-1.1,3.6,3.6,0,0,1-1.3-2.4,9.5,9.5,0,0,1,1.1-3.3,17.6,17.6,0,0,1,2.9-4,5.2,5.2,0,0,1,3.6-1.8,3.9,3.9,0,0,1,2.4,1.2,3.1,3.1,0,0,1,1.3,2.2A4.9,4.9,0,0,1,318.4,209.3Zm-7.1,3.8a4.7,4.7,0,0,0,2.6-1.3,6.2,6.2,0,0,0,2-3.4c0-.2.1-.3.4-.3s-.2-1.4-.5-1.4a3.3,3.3,0,0,0-2.2,1.3,10.1,10.1,0,0,0-1.9,2.7,4.6,4.6,0,0,0-.8,2.1v.3Z"/><path d="M325.3,216.1a6.4,6.4,0,0,1-1.5,3.9c-1,1.4-1.9,2-2.7,2s-.8-.1-.8-.5a2.9,2.9,0,0,1,.6-1,6.6,6.6,0,0,0,1.5-3.2,1.3,1.3,0,0,0-.4-.9l-.9-.7a.9.9,0,0,1-.4-.8,1.6,1.6,0,0,1,.7-1.1,1.9,1.9,0,0,1,1.5-.8,2.4,2.4,0,0,1,1.6,1A3.2,3.2,0,0,1,325.3,216.1Z"/><path d="M341.3,197.8a3.2,3.2,0,0,1,.9,2.1c0,.6-.1,1.8-.3,3.5s-.4,3-.6,4c-1.4,5.9-2.3,8.8-2.8,8.8s-.8-.3-1.4-.8a2.8,2.8,0,0,1-.8-1.5s.3-.9.7-2.5.9-3.8,1.3-6.4a41.3,41.3,0,0,0,.7-7.6.7.7,0,0,1,.8-.7C340.2,196.7,340.7,197.1,341.3,197.8Z"/><path d="M353.2,209.3a1,1,0,0,1,.5.7,6.6,6.6,0,0,1-.3,1.3,7.3,7.3,0,0,0-.4,1.6c-.1.3-.1.6-.2.8a.7.7,0,0,1-.1.5v.5a.8.8,0,0,0-.1.4c-.1.1-.1.2-.1.4l-.2.3v.2c-.1.2-.3.2-.5.2s-.5-.2-.9-.7a3.9,3.9,0,0,1-.7-1.6c-1.6,1.5-2.9,2.3-3.9,2.3a3.7,3.7,0,0,1-2.3-1.1,3.5,3.5,0,0,1-1.2-2.4,7.7,7.7,0,0,1,1.1-3.3,17.1,17.1,0,0,1,2.8-4,5.2,5.2,0,0,1,3.6-1.8,3.9,3.9,0,0,1,2.4,1.2A3.3,3.3,0,0,1,354,207,5.3,5.3,0,0,1,353.2,209.3Zm-7.1,3.8a4.5,4.5,0,0,0,2.6-1.3,5.2,5.2,0,0,0,2-3.4c0-.2.2-.3.4-.3s-.2-1.4-.4-1.4a3.1,3.1,0,0,0-2.2,1.3,10.5,10.5,0,0,0-2,2.7,6.3,6.3,0,0,0-.8,2.1c0,.2.1.2.1.3Z"/><path d="M373.6,203.6c.6,0,1.3.6,2,1.6a6,6,0,0,1,1,3.3,5.3,5.3,0,0,1-.8,2.3,16.4,16.4,0,0,1-2.1,2.5,12.7,12.7,0,0,1-2.9,2.1,7.9,7.9,0,0,1-3.2.8h-.3c-1,4.3-1.7,6.4-2.1,6.4s-.7-.3-1.1-.9a2.4,2.4,0,0,1-.6-1.4,19,19,0,0,1,.7-3.4,60.2,60.2,0,0,0,2.1-13c0-.5.2-.7.7-.7a3.3,3.3,0,0,1,2.6,2.4A6.3,6.3,0,0,1,373.6,203.6Zm-1.9,7.6c1.1-1.2,1.7-2.2,1.7-3s-.2-1.3-.7-1.3a3.3,3.3,0,0,0-2.2,1.2,10.4,10.4,0,0,0-1,1.4,11.2,11.2,0,0,0-1,2.2l-.4,1.6A7.4,7.4,0,0,0,371.7,211.2Z"/><path d="M379.3,207.7l-.2-2.7c0-.9.3-1.4.9-1.4a1.2,1.2,0,0,1,.9.4,1.9,1.9,0,0,1,.8,1.1,5.7,5.7,0,0,1,1.8-1.2,4.1,4.1,0,0,1,1.7-.4c1.2,0,1.8.3,1.8.8a1.5,1.5,0,0,1-.1.7l-.3.3-.3.2-.3.3-.8.5a9.5,9.5,0,0,0-1.9,1.6,6.7,6.7,0,0,0-1.1,2.7,31.3,31.3,0,0,1-1.3,4.2c-.4.9-.9,1.4-1.4,1.4a1.3,1.3,0,0,1-1.2-.7,4.3,4.3,0,0,1-.4-1.4,8,8,0,0,1,.5-2,13.6,13.6,0,0,0,.7-2.2A12.7,12.7,0,0,0,379.3,207.7Z"/><path d="M389.6,203.6a1.9,1.9,0,0,1,1.5,1,3.7,3.7,0,0,1,.7,1.9,21.3,21.3,0,0,1-.9,3.3c-.6,1.9-1.1,3.7-1.7,5.5a1.2,1.2,0,0,1-1.2.9,1.2,1.2,0,0,1-.9-.4,1.3,1.3,0,0,1-.4-1,19.4,19.4,0,0,1,.6-3.3c.4-1.7.7-3.2,1-4.4a19.1,19.1,0,0,1,.6-2.7C389.1,203.9,389.3,203.6,389.6,203.6Zm-.4-3.1a2.2,2.2,0,0,1,.6-1.3,1.5,1.5,0,0,1,1.1-.7c.4,0,.8.5,1.3,1.4a5.1,5.1,0,0,1,.8,1.9,1.3,1.3,0,0,1-.4.9l-.8.3a2.6,2.6,0,0,1-1.7-.9A2.4,2.4,0,0,1,389.2,200.5Z"/><path d="M394.9,206.3c1.3-1.8,2.5-2.7,3.8-2.7a4,4,0,0,1,3.1,1.3,4.2,4.2,0,0,1,1.3,3.1,8.8,8.8,0,0,1-.9,3.8,8.7,8.7,0,0,1-2.5,3.2,5.4,5.4,0,0,1-3.4,1.2A2.9,2.9,0,0,1,394,215a4.6,4.6,0,0,1-1-2.9A10.5,10.5,0,0,1,394.9,206.3Zm4,5.1a6.9,6.9,0,0,0,1-3.4,4,4,0,0,0-.5-2.2,6.3,6.3,0,0,0-2,2.6,7.8,7.8,0,0,0-1.1,3.5,3.4,3.4,0,0,0,.3,1.8A4.7,4.7,0,0,0,398.9,211.4Z"/><path d="M405.7,207.7l-.2-2.7c0-.9.3-1.4.9-1.4a1.2,1.2,0,0,1,.9.4,1.9,1.9,0,0,1,.8,1.1,5.7,5.7,0,0,1,1.8-1.2,4.1,4.1,0,0,1,1.7-.4c1.2,0,1.8.3,1.8.8a1.5,1.5,0,0,1-.1.7l-.3.3-.3.2-.3.3-.8.5a9.5,9.5,0,0,0-1.9,1.6,6.7,6.7,0,0,0-1.1,2.7,31.3,31.3,0,0,1-1.3,4.2c-.4.9-.9,1.4-1.4,1.4a1.3,1.3,0,0,1-1.2-.7,4.3,4.3,0,0,1-.4-1.4,8,8,0,0,1,.5-2,13.6,13.6,0,0,0,.7-2.2A12.7,12.7,0,0,0,405.7,207.7Z"/><path d="M416,203.6a1.9,1.9,0,0,1,1.5,1,3.7,3.7,0,0,1,.7,1.9,21.3,21.3,0,0,1-.9,3.3c-.5,1.9-1.1,3.7-1.7,5.5a1.2,1.2,0,0,1-1.2.9,1.2,1.2,0,0,1-.9-.4,1.3,1.3,0,0,1-.4-1,19.4,19.4,0,0,1,.6-3.3c.4-1.7.7-3.2,1-4.4a19.1,19.1,0,0,1,.6-2.7C415.5,203.9,415.7,203.6,416,203.6Zm-.4-3.1a2.2,2.2,0,0,1,.6-1.3,1.5,1.5,0,0,1,1.1-.7c.4,0,.8.5,1.3,1.4a5.1,5.1,0,0,1,.8,1.9,1.3,1.3,0,0,1-.4.9l-.8.3a2.6,2.6,0,0,1-1.7-.9A2.4,2.4,0,0,1,415.6,200.5Z"/><path d="M430,196.7c.4,0,.9.4,1.6,1.1a3.2,3.2,0,0,1,.9,2c0,.3-.3,1.6-.8,3.9s-1,3.6-1.1,4.1c-1.3,5.6-2.2,8.4-2.8,8.4a2.1,2.1,0,0,1-1.8-1.8v-.2c-1.6,1.4-2.8,2-3.5,2a2.7,2.7,0,0,1-2.1-1.1,4,4,0,0,1-1-2.1,7.5,7.5,0,0,1,.3-2,14.4,14.4,0,0,1,.8-2.5,16.7,16.7,0,0,1,1.2-2.3,7.9,7.9,0,0,1,1.7-1.9,3.5,3.5,0,0,1,2.1-.7,2.8,2.8,0,0,1,2.5,1.6,43.1,43.1,0,0,0,1.3-7.7C429.3,197,429.5,196.7,430,196.7Zm-7.2,16.4a4.5,4.5,0,0,0,2.1-1,6.2,6.2,0,0,0,2.1-2.7v-.9a1.9,1.9,0,0,0-.4-1.2c-.3-.4-.6-.6-.8-.6a2.2,2.2,0,0,0-1.5.8,4.9,4.9,0,0,0-1,1.9,10,10,0,0,0-.9,3.4v.3Z"/><path d="M443.2,209.3a.9.9,0,0,1,.4.7,6.6,6.6,0,0,1-.3,1.3l-.4,1.6c0,.3-.1.6-.1.8a1.1,1.1,0,0,0-.1.5c0,.2-.1.3-.1.5a.8.8,0,0,0-.1.4c0,.1-.1.2-.1.4s-.1.2-.1.3l-.2.2c-.1.2-.3.2-.5.2s-.5-.2-.8-.7a4,4,0,0,1-.8-1.6c-1.5,1.5-2.8,2.3-3.9,2.3a3.5,3.5,0,0,1-2.2-1.1,3.2,3.2,0,0,1-1.3-2.4,9.5,9.5,0,0,1,1.1-3.3,15,15,0,0,1,2.9-4,5.2,5.2,0,0,1,3.6-1.8,3.9,3.9,0,0,1,2.4,1.2,3.1,3.1,0,0,1,1.3,2.2A4.9,4.9,0,0,1,443.2,209.3Zm-7.2,3.8a4.2,4.2,0,0,0,2.6-1.3,5.8,5.8,0,0,0,2.1-3.4c0-.2.1-.3.4-.3s-.2-1.4-.5-1.4a3.3,3.3,0,0,0-2.2,1.3,13.5,13.5,0,0,0-2,2.7,5.5,5.5,0,0,0-.7,2.1v.3Z"/><path d="M455.7,196.7c.4,0,.9.4,1.5,1.1a2.9,2.9,0,0,1,1,2,33.6,33.6,0,0,1-.9,3.9c-.5,2.2-.9,3.6-1,4.1-1.3,5.6-2.2,8.4-2.8,8.4a2.1,2.1,0,0,1-1.8-1.8v-.2c-1.6,1.4-2.8,2-3.5,2a2.7,2.7,0,0,1-2.1-1.1,4,4,0,0,1-1-2.1,7.5,7.5,0,0,1,.3-2,14.4,14.4,0,0,1,.8-2.5,10.1,10.1,0,0,1,1.2-2.3,6.3,6.3,0,0,1,1.7-1.9,3.2,3.2,0,0,1,2-.7,2.8,2.8,0,0,1,2.6,1.6,43.1,43.1,0,0,0,1.3-7.7C455,197,455.2,196.7,455.7,196.7Zm-7.2,16.4a4,4,0,0,0,2-1,6.4,6.4,0,0,0,2.2-2.7v-.9a2.8,2.8,0,0,0-.4-1.2,1.2,1.2,0,0,0-.9-.6,2.3,2.3,0,0,0-1.4.8,4.9,4.9,0,0,0-1,1.9,10,10,0,0,0-.9,3.4v.3Z"/><path d="M476.8,203.6c.6,0,1.2.6,1.9,1.6a6.2,6.2,0,0,1,1.1,3.3,4.5,4.5,0,0,1-.9,2.3,9.6,9.6,0,0,1-2.1,2.5,12.7,12.7,0,0,1-2.9,2.1,7.5,7.5,0,0,1-3.1.8h-.3c-1.1,4.3-1.8,6.4-2.2,6.4s-.7-.3-1.1-.9a2.4,2.4,0,0,1-.6-1.4c0-.4.3-1.5.7-3.4a60.2,60.2,0,0,0,2.1-13c0-.5.3-.7.8-.7a2.5,2.5,0,0,1,1.4.7,2.6,2.6,0,0,1,1.2,1.7A6.1,6.1,0,0,1,476.8,203.6Zm-2,7.6a4.7,4.7,0,0,0,1.7-3c0-.9-.2-1.3-.7-1.3a3.1,3.1,0,0,0-2.1,1.2,5.7,5.7,0,0,0-1.1,1.4,23.5,23.5,0,0,0-1,2.2l-.4,1.6A7.4,7.4,0,0,0,474.8,211.2Z"/><path d="M491.5,209.3a.9.9,0,0,1,.4.7,6.6,6.6,0,0,1-.3,1.3c-.2.7-.3,1.2-.4,1.6s-.1.6-.1.8a1.1,1.1,0,0,0-.1.5c0,.2-.1.3-.1.5a.8.8,0,0,0-.1.4c0,.1-.1.2-.1.4s-.1.2-.1.3l-.2.2c-.1.2-.3.2-.5.2s-.5-.2-.8-.7a4,4,0,0,1-.8-1.6c-1.5,1.5-2.8,2.3-3.9,2.3a3.5,3.5,0,0,1-2.2-1.1,3.2,3.2,0,0,1-1.3-2.4,9.5,9.5,0,0,1,1.1-3.3,15,15,0,0,1,2.9-4,5.2,5.2,0,0,1,3.6-1.8,3.9,3.9,0,0,1,2.4,1.2,3.5,3.5,0,0,1,1.3,2.2A4.9,4.9,0,0,1,491.5,209.3Zm-7.2,3.8a4.2,4.2,0,0,0,2.6-1.3,5.8,5.8,0,0,0,2.1-3.4c0-.2.1-.3.4-.3s-.2-1.4-.5-1.4a3.3,3.3,0,0,0-2.2,1.3,13.5,13.5,0,0,0-2,2.7,5.5,5.5,0,0,0-.7,2.1v.3Z"/><path d="M494.9,207.7l-.2-2.7c0-.9.3-1.4.9-1.4a1.4,1.4,0,0,1,1,.4,2.3,2.3,0,0,1,.7,1.1,7.1,7.1,0,0,1,1.8-1.2,4.5,4.5,0,0,1,1.8-.4c1.2,0,1.8.3,1.8.8a1.4,1.4,0,0,1-.2.7c-.1.1-.2.2-.2.3l-.3.2q-.3.1-.3.3l-.9.5a6.9,6.9,0,0,0-1.8,1.6,5.6,5.6,0,0,0-1.2,2.7,31.3,31.3,0,0,1-1.3,4.2c-.4.9-.9,1.4-1.4,1.4a1.1,1.1,0,0,1-1.1-.7,2.7,2.7,0,0,1-.4-1.4,6.8,6.8,0,0,1,.4-2,7.9,7.9,0,0,0,.7-2.2A12.7,12.7,0,0,0,494.9,207.7Z"/><path d="M512.8,209.3a1,1,0,0,1,.5.7,6.6,6.6,0,0,1-.3,1.3,7.3,7.3,0,0,0-.4,1.6c-.1.3-.1.6-.2.8a4.3,4.3,0,0,1-.1.5.9.9,0,0,1-.1.5c0,.2,0,.3-.1.4a.8.8,0,0,1-.1.4.4.4,0,0,1-.1.3.2.2,0,0,1-.2.2c-.1.2-.2.2-.4.2s-.6-.2-.9-.7a3.9,3.9,0,0,1-.7-1.6c-1.6,1.5-2.9,2.3-3.9,2.3a3.7,3.7,0,0,1-2.3-1.1,3.5,3.5,0,0,1-1.2-2.4,8.7,8.7,0,0,1,1-3.3,17.6,17.6,0,0,1,2.9-4,5.2,5.2,0,0,1,3.6-1.8,3.9,3.9,0,0,1,2.4,1.2,3.3,3.3,0,0,1,1.4,2.2A5.3,5.3,0,0,1,512.8,209.3Zm-7.1,3.8a4.7,4.7,0,0,0,2.6-1.3,5.2,5.2,0,0,0,2-3.4c0-.2.2-.3.4-.3s-.2-1.4-.4-1.4a3.1,3.1,0,0,0-2.2,1.3,10.5,10.5,0,0,0-2,2.7,6.3,6.3,0,0,0-.8,2.1c0,.2,0,.2.1.3Z"/><path d="M141.8,238.9a7,7,0,0,1-3.4,1,11.4,11.4,0,0,1-2.8-.3,6.9,6.9,0,0,0-.2,1.3,2.2,2.2,0,0,0,.2,1,1.4,1.4,0,0,0,1.1.3,14.7,14.7,0,0,0,3.2-.4l1.3-.3c.7,0,1,.2,1,.6s-.5,1.3-1.5,1.8a7.5,7.5,0,0,1-3.7.9,4.2,4.2,0,0,1-3.3-1.3,4.6,4.6,0,0,1-1.3-3.1,8.2,8.2,0,0,1,1.1-3.7,10.2,10.2,0,0,1,2.6-3.2,4.7,4.7,0,0,1,3.1-1.3,4,4,0,0,1,2.9,1.5,4.4,4.4,0,0,1,1.3,3A2.6,2.6,0,0,1,141.8,238.9Zm-1.7-3.3a1.6,1.6,0,0,0-1-.4,2.2,2.2,0,0,0-1.2.6,7.6,7.6,0,0,0-1.3,1.7h.6c2.2,0,3.4-.4,3.4-1.1S140.4,236,140.1,235.6Z"/><path d="M149.4,226.4a3.2,3.2,0,0,1,.9,2,32.3,32.3,0,0,1-.3,3.5c-.2,1.7-.4,3-.6,4-1.4,6-2.3,8.9-2.9,8.9a2.1,2.1,0,0,1-1.3-.9,2.3,2.3,0,0,1-.8-1.4s.2-.9.7-2.5.9-3.9,1.3-6.5a39.5,39.5,0,0,0,.7-7.5c0-.5.2-.7.7-.7S148.7,225.7,149.4,226.4Z"/><path d="M165.3,226.4a3.2,3.2,0,0,1,.9,2,32.3,32.3,0,0,1-.3,3.5c-.2,1.7-.4,3-.6,4-1.3,6-2.3,8.9-2.8,8.9s-.8-.3-1.3-.9a1.9,1.9,0,0,1-.8-1.4l.6-2.5c.5-1.7.9-3.9,1.4-6.5a49.3,49.3,0,0,0,.6-7.5c0-.5.3-.7.8-.7S164.7,225.7,165.3,226.4Z"/><path d="M169.6,232.2a1.8,1.8,0,0,1,1.5.9,3.2,3.2,0,0,1,.7,1.9,29.5,29.5,0,0,1-.8,3.4c-.6,1.9-1.2,3.7-1.7,5.4a1.2,1.2,0,0,1-1.2,1,1.3,1.3,0,0,1-.9-.4,1.4,1.4,0,0,1-.5-1.1,28.6,28.6,0,0,1,.7-3.2c.4-1.7.7-3.2.9-4.4s.5-2.1.6-2.7S169.4,232.2,169.6,232.2Zm-.4-3.1a1.9,1.9,0,0,1,.6-1.3,1.6,1.6,0,0,1,1.1-.7c.4,0,.9.5,1.4,1.3a4.7,4.7,0,0,1,.7,2,1,1,0,0,1-.4.9,1.1,1.1,0,0,1-.8.3,2.4,2.4,0,0,1-1.6-.9A2.9,2.9,0,0,1,169.2,229.1Z"/><path d="M182.7,232.2a2.9,2.9,0,0,1,2.2,1.2,4.7,4.7,0,0,1,1,2.4,9.7,9.7,0,0,1-.5,2.7,15.5,15.5,0,0,1-1.4,2.9,10,10,0,0,1-2.2,2.4,3.9,3.9,0,0,1-2.7,1,5.8,5.8,0,0,1-3.2-1.4c-.3.9-.6,1.4-.8,1.4a2.1,2.1,0,0,1-1.3-.9,2.4,2.4,0,0,1-.8-1.3,20.9,20.9,0,0,1,.9-3.6c1.6-5.9,2.4-10.3,2.4-13a.6.6,0,0,1,.7-.7c.4,0,.9.4,1.5,1.1a3.4,3.4,0,0,1,1,2,33,33,0,0,1-1.3,6.8Q181.1,232.2,182.7,232.2Zm-4,9.8c.9,0,1.9-.7,2.8-2.1a7.8,7.8,0,0,0,1.4-4.2v-.2h-.4a4.3,4.3,0,0,0-2.9,1.6,16.2,16.2,0,0,0-2.7,4.1A3.4,3.4,0,0,0,178.7,242Z"/><path d="M188.4,236.3v-2.8c0-.9.3-1.3.9-1.3l.9.3a2.4,2.4,0,0,1,.7,1.2,7.6,7.6,0,0,1,1.9-1.2,4.1,4.1,0,0,1,1.7-.5q1.8,0,1.8.9a1.5,1.5,0,0,1-.1.7c-.2.1-.2.2-.3.3l-.3.2-.3.2-.8.6a7.4,7.4,0,0,0-1.9,1.6,8.5,8.5,0,0,0-1.2,2.7,22.6,22.6,0,0,1-1.2,4.2c-.5.9-.9,1.4-1.4,1.4a1.3,1.3,0,0,1-1.2-.8,3.3,3.3,0,0,1-.4-1.3,7.1,7.1,0,0,1,.5-2c.3-.8.5-1.6.7-2.2A15.5,15.5,0,0,0,188.4,236.3Z"/><path d="M205.3,238.9a7,7,0,0,1-3.3,1,10.4,10.4,0,0,1-2.8-.3,3.5,3.5,0,0,0-.3,1.3,1.3,1.3,0,0,0,.3,1c.1.2.5.3,1.1.3a13.7,13.7,0,0,0,3.1-.4l1.4-.3c.6,0,1,.2,1,.6s-.6,1.3-1.6,1.8a7.5,7.5,0,0,1-3.7.9,4.3,4.3,0,0,1-3.3-1.3,4.5,4.5,0,0,1-1.2-3.1,7.9,7.9,0,0,1,1-3.7,11.8,11.8,0,0,1,2.6-3.2,4.9,4.9,0,0,1,3.1-1.3,3.8,3.8,0,0,1,2.9,1.5,4.4,4.4,0,0,1,1.3,3A2.6,2.6,0,0,1,205.3,238.9Zm-1.7-3.3a1.6,1.6,0,0,0-1-.4,1.7,1.7,0,0,0-1.1.6,7.9,7.9,0,0,0-1.4,1.7h.6c2.3,0,3.4-.4,3.4-1.1S203.9,236,203.6,235.6Z"/><path d="M233.8,232.2a1.8,1.8,0,0,1,1.6,1.2,6.4,6.4,0,0,1,.7,2.4,29.1,29.1,0,0,1-.4,3.1,18.7,18.7,0,0,1-1.3,4c-.6,1.3-1.2,1.9-1.9,1.9s-.8-.4-.8-1.1a18.4,18.4,0,0,1,.6-3.6,14.6,14.6,0,0,0,.7-3.3c0-.5-.1-.8-.3-.8s-.7.4-1.2,1.2a32,32,0,0,0-1.7,3,12.4,12.4,0,0,0-1.2,2.4l-.4.9-.4.6q-.7,1.3-2.1,0a1.7,1.7,0,0,1-.6-1.2s.1-.7.4-1.9a22.5,22.5,0,0,0,.4-4c0-.6-.1-1-.2-1a1,1,0,0,0-.7.6,12.6,12.6,0,0,0-1.2,2.2l-1.4,2.5c-1.4,2.3-2.4,3.5-3.2,3.5a2.1,2.1,0,0,1-1.3-.9,2.9,2.9,0,0,1-.8-1.4,10.7,10.7,0,0,1,.6-2.3,22.6,22.6,0,0,0,.7-3.9c.1-1.3.2-2.4.3-3.2s.2-1.1.5-1.1a2.4,2.4,0,0,1,1.8.7c.6.6.9,1,.9,1.5a20.9,20.9,0,0,1-1,5,26.4,26.4,0,0,1,2.8-5.5,3.6,3.6,0,0,1,2.4-1.5c.5,0,1,.4,1.6,1.1a4.2,4.2,0,0,1,1,2.2,9.7,9.7,0,0,1-.1,1.8,11.2,11.2,0,0,1,2.3-3.5A4.3,4.3,0,0,1,233.8,232.2Z"/><path d="M246.8,238.9a7,7,0,0,1-3.4,1,10.9,10.9,0,0,1-2.8-.3,3.2,3.2,0,0,0-.2,1.3c0,.5,0,.8.2,1s.5.3,1.1.3a13,13,0,0,0,3.1-.4l1.4-.3c.7,0,1,.2,1,.6s-.5,1.3-1.6,1.8a6.9,6.9,0,0,1-3.6.9,4.4,4.4,0,0,1-4.6-4.4,9.3,9.3,0,0,1,1-3.7,10.5,10.5,0,0,1,2.7-3.2,4.5,4.5,0,0,1,3.1-1.3,4,4,0,0,1,2.9,1.5,5,5,0,0,1,1.3,3A2.8,2.8,0,0,1,246.8,238.9Zm-1.8-3.3a1.2,1.2,0,0,0-.9-.4,2.2,2.2,0,0,0-1.2.6,12.7,12.7,0,0,0-1.4,1.7h.7c2.2,0,3.3-.4,3.3-1.1S245.4,236,245,235.6Z"/><path d="M250.7,236.3v-2.8c0-.9.2-1.3.8-1.3a1.9,1.9,0,0,1,1,.3,3.5,3.5,0,0,1,.7,1.2,9.4,9.4,0,0,1,1.8-1.2,4.9,4.9,0,0,1,1.8-.5q1.8,0,1.8.9a1.4,1.4,0,0,1-.2.7l-.2.3-.3.2-.3.2-.8.6a6,6,0,0,0-1.9,1.6,6.7,6.7,0,0,0-1.2,2.7,21.3,21.3,0,0,1-1.3,4.2c-.4.9-.9,1.4-1.4,1.4a1.2,1.2,0,0,1-1.1-.8,2.2,2.2,0,0,1-.4-1.3,4.8,4.8,0,0,1,.5-2,12.3,12.3,0,0,0,.6-2.2A15,15,0,0,0,250.7,236.3Z"/><path d="M258.2,241a8.5,8.5,0,0,1,1.1-3.8,10.8,10.8,0,0,1,2.8-3.5,5.4,5.4,0,0,1,3.5-1.5,2.6,2.6,0,0,1,1.7,1.1,3.5,3.5,0,0,1,.9,2c0,.4-.2.6-.5.6l-.9-.2a1.7,1.7,0,0,0-1-.3,2.5,2.5,0,0,0-1.5.9,9.6,9.6,0,0,0-1.8,2.2,5.3,5.3,0,0,0-.8,2c0,.5.1.9.3,1l1.4.2a6.5,6.5,0,0,0,2-.2,3.3,3.3,0,0,0,1.3-.4l.8-.2a.5.5,0,0,1,.6.6c0,.7-.6,1.4-1.8,2.2a8.2,8.2,0,0,1-3.8,1.1,4.2,4.2,0,0,1-2.7-1.3A3.6,3.6,0,0,1,258.2,241Z"/><path d="M280.6,237.8c.3.3.5.5.5.8a6.6,6.6,0,0,1-.3,1.3,8.5,8.5,0,0,0-.4,1.5,5.1,5.1,0,0,0-.2.9,4.3,4.3,0,0,1-.1.5,1.1,1.1,0,0,1-.1.5.6.6,0,0,1-.1.4.8.8,0,0,1-.1.4.4.4,0,0,1-.1.3l-.2.2a.6.6,0,0,1-.5.2c-.2,0-.5-.2-.8-.7a3.9,3.9,0,0,1-.7-1.6c-1.6,1.5-2.9,2.3-3.9,2.3a3.5,3.5,0,0,1-2.3-1.2,3.1,3.1,0,0,1-1.2-2.3,7.9,7.9,0,0,1,1-3.3,15.7,15.7,0,0,1,2.9-4,5.2,5.2,0,0,1,3.6-1.8,3.9,3.9,0,0,1,2.4,1.2,3.1,3.1,0,0,1,1.3,2.2A4.3,4.3,0,0,1,280.6,237.8Zm-7.1,3.9a4.7,4.7,0,0,0,2.6-1.3,5.2,5.2,0,0,0,2-3.4c0-.2.2-.3.4-.3s-.2-1.4-.4-1.4a3.1,3.1,0,0,0-2.2,1.3,10.5,10.5,0,0,0-2,2.7,5.1,5.1,0,0,0-.8,2.1.4.4,0,0,0,.1.3Z"/><path d="M293.2,225.3a2.9,2.9,0,0,1,1.5,1.1,3.2,3.2,0,0,1,.9,2,22,22,0,0,1-.8,3.8c-.6,2.3-.9,3.7-1,4.2-1.3,5.6-2.3,8.4-2.9,8.4a2.2,2.2,0,0,1-1.2-.6,1.7,1.7,0,0,1-.6-1.2v-.2c-1.6,1.3-2.8,2-3.5,2a2.7,2.7,0,0,1-2-1.1,3.3,3.3,0,0,1-1-2.1,18.3,18.3,0,0,1,.2-2.1c.2-.7.5-1.5.8-2.4s.8-1.6,1.3-2.4a5.8,5.8,0,0,1,1.7-1.8,3,3,0,0,1,4.6.9c.8-3.9,1.3-6.5,1.2-7.8A.7.7,0,0,1,293.2,225.3Zm-7.3,16.4a5.2,5.2,0,0,0,2.1-1.1,6.2,6.2,0,0,0,2.2-2.6,2,2,0,0,1-.1-.9,1.9,1.9,0,0,0-.4-1.2c-.3-.4-.6-.6-.8-.6a1.6,1.6,0,0,0-1.4.8,5.4,5.4,0,0,0-1.1,1.8,12.7,12.7,0,0,0-.8,3.5v.2Z"/><path d="M297.7,234.9c1.2-1.8,2.5-2.8,3.7-2.8a4.4,4.4,0,0,1,4.4,4.5,10.8,10.8,0,0,1-.8,3.8,9.5,9.5,0,0,1-2.5,3.1,5.2,5.2,0,0,1-3.4,1.3,2.8,2.8,0,0,1-2.3-1.2,4.3,4.3,0,0,1-1-2.9A9.8,9.8,0,0,1,297.7,234.9Zm4,5a7.5,7.5,0,0,0,.9-3.3,3.9,3.9,0,0,0-.4-2.2,6.5,6.5,0,0,0-2.1,2.6,7.2,7.2,0,0,0-1,3.4,6.6,6.6,0,0,0,.2,1.9A5.5,5.5,0,0,0,301.7,239.9Z"/><path d="M325.6,232.8a.8.8,0,0,1,.8-.6,1.7,1.7,0,0,1,1.4.8,2.8,2.8,0,0,1,.7,1.9,13,13,0,0,1-.4,1.9,16.7,16.7,0,0,1-.7,1.9c-.1.4-.3.9-.5,1.5a18.9,18.9,0,0,1-.6,1.8l-.8,2.2-.9,2.6a10.8,10.8,0,0,1-1.8,3.4,3.6,3.6,0,0,1-2.8,1.2,5.4,5.4,0,0,1-3.1-.9c-1-.7-1.4-1.3-1.4-1.9a2.1,2.1,0,0,1,.5-1.2c.3-.5.6-.7.8-.7a1.9,1.9,0,0,1,1,.5l1.2,1.2c.4.4.7.6,1,.6a.7.7,0,0,0,.6-.3l.3-.6a1.6,1.6,0,0,0,.3-.6l.3-.7a1.6,1.6,0,0,1,.3-.9,6.2,6.2,0,0,1,.3-1c.2-.9.5-1.7.7-2.4a9.1,9.1,0,0,1-1.7,1.7,2.9,2.9,0,0,1-1.6.6,3,3,0,0,1-1.8-1.1,3.3,3.3,0,0,1-1-2.4,19.3,19.3,0,0,1,.5-3.5,17.6,17.6,0,0,1,1.5-3.9c.5-1.2,1.1-1.7,1.5-1.7a2,2,0,0,1,1.4.6,1.9,1.9,0,0,1,.7,1.3,5.5,5.5,0,0,1-.6,1.9c-.4.9-.8,1.8-1.2,2.9a7.3,7.3,0,0,0-.6,2.6c0,.1,0,.2.1.2s.7-.4,1.3-1.2a23.7,23.7,0,0,0,2.4-3.4A20.2,20.2,0,0,0,325.6,232.8Z"/><path d="M343.6,226.4a3.4,3.4,0,0,1,1,2,32.3,32.3,0,0,1-.3,3.5c-.2,1.7-.4,3-.6,4-1.4,6-2.3,8.9-2.9,8.9a2.1,2.1,0,0,1-1.3-.9,1.9,1.9,0,0,1-.8-1.4l.6-2.5c.5-1.7.9-3.9,1.4-6.5a49.9,49.9,0,0,0,.7-7.5c0-.5.2-.7.7-.7S343,225.7,343.6,226.4Z"/><path d="M346.9,234.9c1.3-1.8,2.6-2.8,3.8-2.8a4.1,4.1,0,0,1,3.1,1.4,4,4,0,0,1,1.3,3.1,9.2,9.2,0,0,1-3.3,6.9,5.2,5.2,0,0,1-3.4,1.3,3.1,3.1,0,0,1-2.4-1.2,4.8,4.8,0,0,1-1-2.9A10.5,10.5,0,0,1,346.9,234.9Zm4,5a6.5,6.5,0,0,0,1-3.3,3.9,3.9,0,0,0-.4-2.2,6.5,6.5,0,0,0-2.1,2.6,7.4,7.4,0,0,0-1.1,3.4,3.8,3.8,0,0,0,.3,1.9A4.9,4.9,0,0,0,350.9,239.9Z"/><path d="M364.2,232.2a2.6,2.6,0,0,1,1.8,1.1,3.2,3.2,0,0,1,.9,2c0,.4-.2.6-.5.6l-.9-.3-1.1-.2a4.5,4.5,0,0,0-1.7.4c-.7.3-1.1.6-1.1,1s.2.4.6.7l1.5,1a5.7,5.7,0,0,1,1.4,1.3,3,3,0,0,1,.7,1.9q0,1.1-1.5,2.1a5.8,5.8,0,0,1-3.5,1,6.4,6.4,0,0,1-3.4-.9c-.9-.6-1.4-1.2-1.4-1.9s.3-.9.8-.9l.7.2a6.2,6.2,0,0,0,3.1.7c1.2,0,1.8-.1,1.8-.5s-.2-.6-.7-1l-1.5-1.2a5.7,5.7,0,0,1-1.5-1.2,2.1,2.1,0,0,1-.7-1.5c0-.9.8-1.8,2.4-2.9A7.8,7.8,0,0,1,364.2,232.2Z"/><path d="M377.2,241a8.5,8.5,0,0,1,1.1-3.8,9.7,9.7,0,0,1,2.8-3.5,5.4,5.4,0,0,1,3.5-1.5,2.6,2.6,0,0,1,1.7,1.1,3.5,3.5,0,0,1,.9,2,.5.5,0,0,1-.6.6l-.8-.2a1.9,1.9,0,0,0-1-.3,2.9,2.9,0,0,0-1.6.9,12.8,12.8,0,0,0-1.7,2.2,5.3,5.3,0,0,0-.8,2c0,.5.1.9.3,1a3.3,3.3,0,0,0,1.4.2,5.5,5.5,0,0,0,1.9-.2,3.9,3.9,0,0,0,1.4-.4l.7-.2c.5,0,.7.2.7.6s-.6,1.4-1.9,2.2a7.5,7.5,0,0,1-3.7,1.1,4.6,4.6,0,0,1-2.8-1.3A3.8,3.8,0,0,1,377.2,241Z"/><path d="M391,234.9c1.2-1.8,2.5-2.8,3.7-2.8a4.4,4.4,0,0,1,4.4,4.5,9.2,9.2,0,0,1-.9,3.8,8.1,8.1,0,0,1-2.4,3.1,5.2,5.2,0,0,1-3.4,1.3,3.1,3.1,0,0,1-2.4-1.2,4.8,4.8,0,0,1-.9-2.9A9.8,9.8,0,0,1,391,234.9Zm3.9,5a6.5,6.5,0,0,0,1-3.3,3.9,3.9,0,0,0-.4-2.2,6.5,6.5,0,0,0-2.1,2.6,7.4,7.4,0,0,0-1.1,3.4,3.8,3.8,0,0,0,.3,1.9A4.9,4.9,0,0,0,394.9,239.9Z"/><path d="M409.4,232.2a2.6,2.6,0,0,1,2.2,1.1,3.6,3.6,0,0,1,1,2.4,17.5,17.5,0,0,1-.7,4.4,10.5,10.5,0,0,1-1.5,3.5c-.5.8-1,1.2-1.6,1.2s-.8-.4-.8-1.1a18.6,18.6,0,0,1,.8-3.6,13.9,13.9,0,0,0,.6-3.2c0-.6-.1-.9-.2-.9a1.1,1.1,0,0,0-.7.3l-.5.6-.4.6-.5.7-.4.8-.5.7a3,3,0,0,1-.4.8c-1.5,2.9-2.7,4.3-3.6,4.3a2.1,2.1,0,0,1-1.3-.9c-.5-.6-.8-1-.8-1.3a3.1,3.1,0,0,1,.4-1.2l.5-1.3.3-1a5,5,0,0,1,.2-1.2,2.8,2.8,0,0,1,.1-1v-1.1a29.8,29.8,0,0,1,.4-3.5.5.5,0,0,1,.4-.3,2.7,2.7,0,0,1,1.8.7c.5.6.8,1,.8,1.5a14.6,14.6,0,0,1-.8,4.3c1.1-1.9,2.1-3.4,2.9-4.6S408.8,232.2,409.4,232.2Z"/><path d="M415.1,236.4a1.6,1.6,0,0,1-1.3-.7,2.1,2.1,0,0,1-.5-1.2c0-.7.8-1,2.5-1.1a32.8,32.8,0,0,0,.3-4,3.7,3.7,0,0,1,1-2.7,2.9,2.9,0,0,1,2.3-1,2.9,2.9,0,0,1,2.1.8,2.3,2.3,0,0,1,.8,1.6,1.1,1.1,0,0,1-.3.8.6.6,0,0,1-.6.3l-.8-.2-.6-.3c-.3,0-.5.2-.6.7a4.4,4.4,0,0,0-.2,1.7c0,.7-.1,1.4-.1,2,2.8-.4,4.2-1.5,4.2-3.1a17,17,0,0,1,.4-2.8c.2-1,.4-1.5.8-1.5a2.3,2.3,0,0,1,1.7.7,2.2,2.2,0,0,1,.7,1.6c0,.7-.2,1.9-.4,3.6s-.6,3.6-1,5.6a48.3,48.3,0,0,1-1.6,5.3c-.6,1.5-1.2,2.3-1.8,2.3a1.4,1.4,0,0,1-1-.6,2.2,2.2,0,0,1-.5-1.4,11.9,11.9,0,0,1,.9-3.1,35.1,35.1,0,0,0,1.3-4.9,8.4,8.4,0,0,1-4.1,1.5,38.8,38.8,0,0,1-1.3,6c-.6,1.6-1.2,2.5-1.8,2.5a1.6,1.6,0,0,1-1.1-.7,2.2,2.2,0,0,1-.5-1.4,12.3,12.3,0,0,1,.4-1.8,44,44,0,0,0,.9-4.5Z"/><path d="M429.3,232.2a1.8,1.8,0,0,1,1.5.9,3.2,3.2,0,0,1,.7,1.9,29.5,29.5,0,0,1-.8,3.4c-.6,1.9-1.2,3.7-1.7,5.4a1.2,1.2,0,0,1-1.2,1,1.8,1.8,0,0,1-1-.4,1.8,1.8,0,0,1-.4-1.1,15.3,15.3,0,0,1,.7-3.2c.4-1.7.7-3.2.9-4.4a19.1,19.1,0,0,1,.6-2.7C428.8,232.4,429,232.2,429.3,232.2Zm-.4-3.1a1.9,1.9,0,0,1,.6-1.3,1.6,1.6,0,0,1,1.1-.7c.4,0,.8.5,1.3,1.3a4,4,0,0,1,.8,2,1,1,0,0,1-.4.9,1.1,1.1,0,0,1-.8.3,3.8,3.8,0,0,1-2.6-2.5Z"/><path d="M432.9,241a8.5,8.5,0,0,1,1.1-3.8,9.7,9.7,0,0,1,2.8-3.5,5.4,5.4,0,0,1,3.4-1.5,2.6,2.6,0,0,1,1.8,1.1,3.5,3.5,0,0,1,.9,2,.5.5,0,0,1-.6.6l-.8-.2a1.9,1.9,0,0,0-1-.3,2.9,2.9,0,0,0-1.6.9,12.8,12.8,0,0,0-1.7,2.2,5.3,5.3,0,0,0-.8,2c0,.5.1.9.3,1a3.3,3.3,0,0,0,1.4.2,5.8,5.8,0,0,0,1.9-.2,3.9,3.9,0,0,0,1.4-.4l.7-.2c.5,0,.7.2.7.6s-.6,1.4-1.9,2.2a7.5,7.5,0,0,1-3.7,1.1,4.6,4.6,0,0,1-2.8-1.3A3.8,3.8,0,0,1,432.9,241Z"/><path d="M450.6,236.9q-.3,1.2-.9,3a9.7,9.7,0,0,0-.5,1.9h.4l1.9-.5,1.8-.6c.4,0,.6.3.6.8s-.6,1.3-1.6,2a5.9,5.9,0,0,1-3.5,1.2,3,3,0,0,1-1.8-.9,2,2,0,0,1-1.1-1.7,12.7,12.7,0,0,1,.7-3.1c.5-1.6.9-2.6,1-3.2l-1.4.2a1.4,1.4,0,0,1-1-.6,2.2,2.2,0,0,1-.6-1.3c0-.5,1.3-1,3.8-1.3a22.8,22.8,0,0,0,.5-4c0-.5.2-.7.7-.7a2.9,2.9,0,0,1,1.7.7c.6.6,1,1.1,1,1.6a12.3,12.3,0,0,1-.4,2.1h1.8c1.2,0,1.9.3,1.9.8s-.4.7-1.1,1l-3.3.8A18.4,18.4,0,0,1,450.6,236.9Z"/><path d="M457.7,234.9c1.3-1.8,2.5-2.8,3.8-2.8a4.3,4.3,0,0,1,3.1,1.4,4.4,4.4,0,0,1,1.3,3.1,9.2,9.2,0,0,1-.9,3.8,8.4,8.4,0,0,1-2.5,3.1,5,5,0,0,1-3.4,1.3,2.8,2.8,0,0,1-2.3-1.2,4.3,4.3,0,0,1-1-2.9A9.8,9.8,0,0,1,457.7,234.9Zm4,5a7.7,7.7,0,0,0,1-3.3,3.7,3.7,0,0,0-.5-2.2,6.5,6.5,0,0,0-2.1,2.6,7.2,7.2,0,0,0-1,3.4,3.8,3.8,0,0,0,.3,1.9A5.4,5.4,0,0,0,461.7,239.9Z"/><path d="M474.9,232.2a2.6,2.6,0,0,1,1.8,1.1,3.2,3.2,0,0,1,.9,2c0,.4-.1.6-.5.6l-.8-.3-1.2-.2a5.4,5.4,0,0,0-1.7.4c-.7.3-1.1.6-1.1,1s.3.4.7.7l1.4,1a6.1,6.1,0,0,1,1.5,1.3,3.5,3.5,0,0,1,.6,1.9,2.6,2.6,0,0,1-1.4,2.1,6,6,0,0,1-3.5,1,6.2,6.2,0,0,1-3.4-.9c-1-.6-1.5-1.2-1.5-1.9s.3-.9.8-.9l.8.2a5.6,5.6,0,0,0,3,.7c1.3,0,1.9-.1,1.9-.5s-.3-.6-.7-1l-1.6-1.2-1.5-1.2a2.6,2.6,0,0,1-.7-1.5c0-.9.8-1.8,2.4-2.9A8.1,8.1,0,0,1,474.9,232.2Z"/><path d="M162.9,265.5q-.3,1.2-.9,3a9.7,9.7,0,0,0-.5,1.9c0,.1.1.1.4.1l1.9-.6,1.8-.5c.4,0,.6.3.6.8s-.6,1.2-1.7,2a5.4,5.4,0,0,1-3.4,1.2,3,3,0,0,1-1.8-.9,2,2,0,0,1-1.1-1.7,12.7,12.7,0,0,1,.7-3.1c.5-1.6.9-2.7,1-3.3l-1.4.3a1.3,1.3,0,0,1-1-.7,1.7,1.7,0,0,1-.6-1.2c0-.6,1.3-1,3.8-1.4a20.8,20.8,0,0,0,.5-3.9c0-.5.2-.7.7-.7a2.9,2.9,0,0,1,1.7.7,2,2,0,0,1,.9,1.5,10.4,10.4,0,0,1-.3,2.1H166c1.2,0,1.9.3,1.9.8s-.4.7-1.1.9a18,18,0,0,1-3.3.9A18.4,18.4,0,0,1,162.9,265.5Z"/><path d="M177.6,267.5a6.9,6.9,0,0,1-3.4.9,11.4,11.4,0,0,1-2.8-.2,5.9,5.9,0,0,0-.2,1.3,2.2,2.2,0,0,0,.2,1,2.3,2.3,0,0,0,1.1.2,15.1,15.1,0,0,0,3.2-.3l1.3-.4c.7,0,1,.3,1,.7s-.5,1.3-1.6,1.8a6.9,6.9,0,0,1-3.6.9,4.5,4.5,0,0,1-3.3-1.3,4.2,4.2,0,0,1-1.3-3.1,7.8,7.8,0,0,1,1.1-3.7,9.2,9.2,0,0,1,2.6-3.2,4.8,4.8,0,0,1,3.1-1.4,4.1,4.1,0,0,1,2.9,1.6,4.4,4.4,0,0,1,1.3,3C179.2,266.1,178.7,266.8,177.6,267.5Zm-1.8-3.3a1.2,1.2,0,0,0-.9-.4,2.2,2.2,0,0,0-1.2.6,5.9,5.9,0,0,0-1.3,1.7h.6c2.2,0,3.4-.4,3.4-1.2A1.5,1.5,0,0,0,175.8,264.2Z"/><path d="M181.5,264.9v-2.8c0-.9.3-1.4.8-1.4a1.8,1.8,0,0,1,1,.4,2,2,0,0,1,.7,1.2,9.4,9.4,0,0,1,1.8-1.2,4.9,4.9,0,0,1,1.8-.5q1.8,0,1.8.9a.8.8,0,0,1-.2.6l-.2.3-.3.3-.3.2-.8.5a6.3,6.3,0,0,0-1.9,1.7,6.8,6.8,0,0,0-1.2,2.7,23.7,23.7,0,0,1-1.3,4.2c-.4.9-.9,1.4-1.4,1.4a1.2,1.2,0,0,1-1.1-.8,2.5,2.5,0,0,1-.4-1.4,7.6,7.6,0,0,1,.5-1.9,13.1,13.1,0,0,0,.6-2.3A6.8,6.8,0,0,0,181.5,264.9Z"/><path d="M190.4,264.9l-.2-2.8c0-.9.3-1.4.9-1.4a2.6,2.6,0,0,1,1,.4,2.7,2.7,0,0,1,.7,1.2,7.1,7.1,0,0,1,1.8-1.2,4.9,4.9,0,0,1,1.8-.5q1.8,0,1.8.9a.8.8,0,0,1-.2.6q-.1.3-.3.3c0,.1-.1.2-.2.3l-.4.2a2.5,2.5,0,0,1-.8.5,7.3,7.3,0,0,0-1.8,1.7,4.8,4.8,0,0,0-1.2,2.7A36.9,36.9,0,0,1,192,272c-.4.9-.9,1.4-1.4,1.4a1.4,1.4,0,0,1-1.2-.8,3.5,3.5,0,0,1-.3-1.4,6.3,6.3,0,0,1,.4-1.9,8.4,8.4,0,0,0,.7-2.3A12.5,12.5,0,0,0,190.4,264.9Z"/><path d="M200.7,260.7a2,2,0,0,1,1.5,1,3.2,3.2,0,0,1,.7,1.9,24.3,24.3,0,0,1-.9,3.4c-.5,1.9-1.1,3.7-1.6,5.4a1.3,1.3,0,0,1-1.2,1,1.8,1.8,0,0,1-1-.4,1.5,1.5,0,0,1-.4-1.1,20.8,20.8,0,0,1,.6-3.2c.4-1.8.8-3.2,1-4.4a16.2,16.2,0,0,1,.6-2.7C200.2,261,200.4,260.7,200.7,260.7Zm-.4-3a1.9,1.9,0,0,1,.6-1.3c.4-.5.7-.7,1.1-.7s.8.4,1.3,1.3a5.1,5.1,0,0,1,.8,1.9,1.8,1.8,0,0,1-.4,1,1.3,1.3,0,0,1-.8.3c-.5,0-1-.3-1.7-1A2.5,2.5,0,0,1,200.3,257.7Z"/><path d="M210,265.5q-.3,1.2-.9,3a9.7,9.7,0,0,0-.5,1.9c0,.1.1.1.4.1l1.9-.6,1.8-.5c.4,0,.6.3.6.8s-.6,1.2-1.7,2a5.4,5.4,0,0,1-3.4,1.2,3,3,0,0,1-1.8-.9,2,2,0,0,1-1.1-1.7,12.7,12.7,0,0,1,.7-3.1c.5-1.6.9-2.7,1-3.3l-1.4.3a1.3,1.3,0,0,1-1-.7,1.7,1.7,0,0,1-.6-1.2c0-.6,1.3-1,3.8-1.4a20.8,20.8,0,0,0,.5-3.9c0-.5.2-.7.7-.7a3.2,3.2,0,0,1,1.7.7,2,2,0,0,1,.9,1.5,10.4,10.4,0,0,1-.3,2.1h1.8c1.2,0,1.9.3,1.9.8s-.4.7-1.1.9a18,18,0,0,1-3.3.9A18.4,18.4,0,0,1,210,265.5Z"/><path d="M217.1,263.5c1.3-1.9,2.5-2.8,3.8-2.8A4.6,4.6,0,0,1,224,262a4.8,4.8,0,0,1,1.3,3.2,8.4,8.4,0,0,1-.9,3.7,8,8,0,0,1-2.5,3.2,5.2,5.2,0,0,1-3.4,1.3,2.8,2.8,0,0,1-2.3-1.2,4.3,4.3,0,0,1-1-2.9A9.6,9.6,0,0,1,217.1,263.5Zm4,5a7.7,7.7,0,0,0,1-3.3,3.7,3.7,0,0,0-.5-2.2,6.5,6.5,0,0,0-2.1,2.6,7.2,7.2,0,0,0-1,3.4,3.8,3.8,0,0,0,.3,1.9A5.4,5.4,0,0,0,221.1,268.5Z"/><path d="M227.8,264.9v-2.8c0-.9.3-1.4.8-1.4a1.8,1.8,0,0,1,1,.4,2,2,0,0,1,.7,1.2,7.6,7.6,0,0,1,1.9-1.2,4.1,4.1,0,0,1,1.7-.5q1.8,0,1.8.9a.8.8,0,0,1-.2.6c-.1.2-.1.3-.2.3l-.3.3-.3.2-.8.5a7.7,7.7,0,0,0-1.9,1.7,6.8,6.8,0,0,0-1.2,2.7,17.5,17.5,0,0,1-1.3,4.2c-.4.9-.8,1.4-1.4,1.4a1.2,1.2,0,0,1-1.1-.8,2.5,2.5,0,0,1-.4-1.4,7.6,7.6,0,0,1,.5-1.9l.7-2.3A13.4,13.4,0,0,0,227.8,264.9Z"/><path d="M238.1,260.7a2.2,2.2,0,0,1,1.6,1,3.8,3.8,0,0,1,.6,1.9c0,.3-.3,1.4-.8,3.4s-1.1,3.7-1.7,5.4a1.2,1.2,0,0,1-2.1.6,1.5,1.5,0,0,1-.4-1.1,20.8,20.8,0,0,1,.6-3.2c.4-1.8.7-3.2.9-4.4s.5-2.1.6-2.7S237.9,260.7,238.1,260.7Zm-.3-3a1.8,1.8,0,0,1,.5-1.3,1.5,1.5,0,0,1,1.2-.7c.3,0,.8.4,1.3,1.3a4.4,4.4,0,0,1,.7,1.9,1.3,1.3,0,0,1-.4,1,1.1,1.1,0,0,1-.8.3,2.4,2.4,0,0,1-1.6-1A2.5,2.5,0,0,1,237.8,257.7Z"/><path d="M252.1,266.4c.3.3.5.5.5.7a7,7,0,0,1-.3,1.4c-.2.6-.3,1.1-.4,1.5a6.4,6.4,0,0,1-.2.9.7.7,0,0,1-.1.5v.4a1.1,1.1,0,0,0-.1.5.4.4,0,0,0-.1.3c-.1.2-.1.3-.2.4v.2l-.5.2c-.3,0-.5-.2-.9-.7a4.4,4.4,0,0,1-.7-1.7q-2.4,2.4-3.9,2.4a3.5,3.5,0,0,1-2.3-1.2,3.3,3.3,0,0,1-1.2-2.3,8.4,8.4,0,0,1,1.1-3.3,13.8,13.8,0,0,1,2.8-4,5.6,5.6,0,0,1,3.6-1.9,3.9,3.9,0,0,1,2.4,1.2,3.5,3.5,0,0,1,1.4,2.2A4.6,4.6,0,0,1,252.1,266.4Zm-7.1,3.9a5.2,5.2,0,0,0,2.6-1.3,5.5,5.5,0,0,0,2-3.4c0-.2.2-.3.4-.4s-.2-1.3-.4-1.3a3.3,3.3,0,0,0-2.2,1.2,15.6,15.6,0,0,0-2,2.7,5.9,5.9,0,0,0-.8,2.2.3.3,0,0,0,.1.2C244.7,270.3,244.8,270.3,245,270.3Z"/><path d="M259.2,255a3.2,3.2,0,0,1,.9,2,34.5,34.5,0,0,1-.3,3.5c-.2,1.7-.4,3-.6,4-1.3,5.9-2.3,8.9-2.8,8.9s-.8-.3-1.4-.9-.8-1-.8-1.4.3-.9.7-2.6.9-3.8,1.3-6.4a39.5,39.5,0,0,0,.7-7.5c0-.5.3-.7.8-.7S258.6,254.2,259.2,255Z"/><path d="M270.1,267.5a6.9,6.9,0,0,1-3.4.9,11.4,11.4,0,0,1-2.8-.2,5.9,5.9,0,0,0-.2,1.3,2.2,2.2,0,0,0,.2,1,2.3,2.3,0,0,0,1.1.2,15.1,15.1,0,0,0,3.2-.3l1.3-.4c.7,0,1,.3,1,.7s-.5,1.3-1.6,1.8a6.9,6.9,0,0,1-3.6.9,4.5,4.5,0,0,1-3.3-1.3,4.2,4.2,0,0,1-1.3-3.1,7.8,7.8,0,0,1,1.1-3.7,9.2,9.2,0,0,1,2.6-3.2,4.8,4.8,0,0,1,3.1-1.4,4.1,4.1,0,0,1,2.9,1.6,4.4,4.4,0,0,1,1.3,3C271.7,266.1,271.2,266.8,270.1,267.5Zm-1.8-3.3a1.2,1.2,0,0,0-.9-.4,2.2,2.2,0,0,0-1.2.6,5.9,5.9,0,0,0-1.3,1.7h.6c2.2,0,3.4-.4,3.4-1.2A1.5,1.5,0,0,0,268.3,264.2Z"/><path d="M280.5,260.8a2.3,2.3,0,0,1,1.8,1.1,3.2,3.2,0,0,1,.9,2c0,.3-.1.5-.5.5a1.3,1.3,0,0,1-.8-.2l-1.2-.2a4.9,4.9,0,0,0-1.7.4c-.7.2-1.1.6-1.1,1s.2.4.7.7l1.4,1a5.8,5.8,0,0,1,1.5,1.3,3.3,3.3,0,0,1,.6,1.9,2.9,2.9,0,0,1-1.4,2.1,6.8,6.8,0,0,1-3.5,1,5.9,5.9,0,0,1-3.4-.9c-1-.6-1.5-1.3-1.5-1.9s.3-.9.8-.9a1.3,1.3,0,0,1,.8.2,5.6,5.6,0,0,0,3,.7c1.2,0,1.9-.2,1.9-.5a2,2,0,0,0-.7-1.1l-1.6-1.1a7.9,7.9,0,0,1-1.5-1.2,2.6,2.6,0,0,1-.7-1.5c0-.9.8-1.8,2.4-2.9A8.1,8.1,0,0,1,280.5,260.8Z"/><path d="M304,266.4c.3.3.4.5.4.7a7,7,0,0,1-.3,1.4c-.2.6-.3,1.1-.4,1.5a3.4,3.4,0,0,0-.1.9,1.1,1.1,0,0,0-.1.5c0,.1-.1.3-.1.4a1.1,1.1,0,0,0-.1.5c0,.1-.1.2-.1.3s-.1.3-.2.4v.2l-.5.2c-.2,0-.5-.2-.9-.7a6.7,6.7,0,0,1-.7-1.7q-2.2,2.4-3.9,2.4a3.7,3.7,0,0,1-2.3-1.2,3.3,3.3,0,0,1-1.2-2.3,8.4,8.4,0,0,1,1.1-3.3,12.4,12.4,0,0,1,2.9-4,5.4,5.4,0,0,1,3.6-1.9,3.7,3.7,0,0,1,2.3,1.2,3.5,3.5,0,0,1,1.4,2.2A5.5,5.5,0,0,1,304,266.4Zm-7.2,3.9a4.8,4.8,0,0,0,2.6-1.3,6.1,6.1,0,0,0,2.1-3.4c0-.2.1-.3.4-.4s-.2-1.3-.5-1.3a3.5,3.5,0,0,0-2.2,1.2,15.6,15.6,0,0,0-2,2.7,5.3,5.3,0,0,0-.7,2.2v.2Z"/><path d="M313.9,260.8a2.3,2.3,0,0,1,1.8,1.1,3.2,3.2,0,0,1,.9,2,.5.5,0,0,1-.5.5,1.8,1.8,0,0,1-.9-.2l-1.1-.2a4.5,4.5,0,0,0-1.7.4c-.7.2-1.1.6-1.1,1s.2.4.6.7l1.5,1a4.3,4.3,0,0,1,1.4,1.3,2.8,2.8,0,0,1,.7,1.9q0,1.1-1.5,2.1a6.5,6.5,0,0,1-3.5,1,6.4,6.4,0,0,1-3.4-.9,2.6,2.6,0,0,1-1.4-1.9c0-.6.3-.9.8-.9a1.1,1.1,0,0,1,.7.2,6.2,6.2,0,0,0,3.1.7c1.2,0,1.8-.2,1.8-.5a1.6,1.6,0,0,0-.7-1.1l-1.5-1.1a4.4,4.4,0,0,1-1.5-1.2,2.1,2.1,0,0,1-.7-1.5c0-.9.8-1.8,2.4-2.9A7.8,7.8,0,0,1,313.9,260.8Z"/><path d="M319.3,263.5c1.2-1.9,2.5-2.8,3.7-2.8a4.2,4.2,0,0,1,3.1,1.3,4.4,4.4,0,0,1,1.3,3.2,8.4,8.4,0,0,1-.9,3.7,7.7,7.7,0,0,1-2.4,3.2,5.2,5.2,0,0,1-3.4,1.3,3.1,3.1,0,0,1-2.4-1.2,4.8,4.8,0,0,1-.9-2.9A9.6,9.6,0,0,1,319.3,263.5Zm3.9,5a6.5,6.5,0,0,0,1-3.3,3.9,3.9,0,0,0-.4-2.2,6.5,6.5,0,0,0-2.1,2.6,7.4,7.4,0,0,0-1.1,3.4,3.8,3.8,0,0,0,.3,1.9A4.9,4.9,0,0,0,323.2,268.5Z"/><path d="M328.6,269.5a8.2,8.2,0,0,1,1.1-3.7,12.5,12.5,0,0,1,2.8-3.6,6,6,0,0,1,3.5-1.4,2.3,2.3,0,0,1,1.8,1.1,3.2,3.2,0,0,1,.9,2,.5.5,0,0,1-.6.6l-.8-.3-1.1-.2a2.7,2.7,0,0,0-1.5.9,7.9,7.9,0,0,0-1.8,2.2,4.8,4.8,0,0,0-.8,2,1.3,1.3,0,0,0,.3,1l1.4.2,2-.2,1.3-.4.8-.2c.4,0,.7.2.7.6s-.7,1.4-1.9,2.2a7.9,7.9,0,0,1-3.8,1.1,4.4,4.4,0,0,1-2.7-1.4A3.6,3.6,0,0,1,328.6,269.5Z"/><path d="M343.4,260.7a1.9,1.9,0,0,1,1.5,1,3.2,3.2,0,0,1,.7,1.9,24.3,24.3,0,0,1-.9,3.4c-.5,1.9-1.1,3.7-1.6,5.4a1.3,1.3,0,0,1-1.2,1,1.8,1.8,0,0,1-1-.4,2.1,2.1,0,0,1-.4-1.1,20.8,20.8,0,0,1,.6-3.2,42.1,42.1,0,0,0,1-4.4,16.2,16.2,0,0,1,.6-2.7C342.9,261,343.1,260.7,343.4,260.7Zm-.4-3a1.9,1.9,0,0,1,.6-1.3,1.6,1.6,0,0,1,1.1-.7c.4,0,.8.4,1.3,1.3a5.1,5.1,0,0,1,.8,1.9,1.3,1.3,0,0,1-.4,1,1.3,1.3,0,0,1-.8.3,2.2,2.2,0,0,1-1.6-1C343.3,258.6,343,258.1,343,257.7Z"/><path d="M357.4,266.4c.3.3.4.5.4.7a7,7,0,0,1-.3,1.4,4.9,4.9,0,0,0-.3,1.5,5.1,5.1,0,0,0-.2.9,4.3,4.3,0,0,1-.1.5.6.6,0,0,1-.1.4,4.3,4.3,0,0,1-.1.5.4.4,0,0,1-.1.3c0,.2-.1.3-.1.4s-.1.1-.2.2a.6.6,0,0,1-.5.2c-.2,0-.5-.2-.8-.7a6.7,6.7,0,0,1-.8-1.7c-1.5,1.6-2.8,2.4-3.8,2.4a3.5,3.5,0,0,1-2.3-1.2,3.3,3.3,0,0,1-1.2-2.3,7.9,7.9,0,0,1,1-3.3,14.1,14.1,0,0,1,2.9-4,5.4,5.4,0,0,1,3.6-1.9,3.9,3.9,0,0,1,2.4,1.2,3.3,3.3,0,0,1,1.3,2.2A4.3,4.3,0,0,1,357.4,266.4Zm-7.1,3.9a5.6,5.6,0,0,0,2.6-1.3,6,6,0,0,0,2-3.4c0-.2.2-.3.4-.4s-.2-1.3-.4-1.3a3.3,3.3,0,0,0-2.2,1.2,11.7,11.7,0,0,0-2,2.7,5.9,5.9,0,0,0-.8,2.2c0,.1,0,.2.1.2S350.1,270.3,350.3,270.3Z"/><path d="M369.9,253.9c.4,0,.9.3,1.6,1a3.5,3.5,0,0,1,.9,2,22.1,22.1,0,0,1-.8,3.9c-.6,2.3-.9,3.7-1.1,4.1-1.3,5.7-2.2,8.5-2.8,8.5a1.9,1.9,0,0,1-1.2-.6,1.7,1.7,0,0,1-.6-1.2v-.2c-1.6,1.3-2.8,2-3.5,2a2.9,2.9,0,0,1-2.1-1.2,3.2,3.2,0,0,1-.9-2,8.2,8.2,0,0,1,.2-2.1,22.5,22.5,0,0,1,.8-2.4,26.8,26.8,0,0,1,1.2-2.4,7.4,7.4,0,0,1,1.7-1.8,3.7,3.7,0,0,1,2.1-.8,3.3,3.3,0,0,1,2.6,1.6c.8-3.8,1.3-6.4,1.2-7.7A.6.6,0,0,1,369.9,253.9Zm-7.2,16.4a5.2,5.2,0,0,0,2.1-1.1,5.6,5.6,0,0,0,2.1-2.7v-.8a2,2,0,0,0-.4-1.3,1,1,0,0,0-.8-.5,1.7,1.7,0,0,0-1.4.7,7.2,7.2,0,0,0-1.1,1.9,9.8,9.8,0,0,0-.8,3.5v.2Z"/><path d="M374.5,263.5c1.2-1.9,2.5-2.8,3.7-2.8a4.6,4.6,0,0,1,3.2,1.3,4.7,4.7,0,0,1,1.2,3.2,8.4,8.4,0,0,1-.9,3.7,7.7,7.7,0,0,1-2.4,3.2,5.2,5.2,0,0,1-3.4,1.3,3.1,3.1,0,0,1-2.4-1.2,4.8,4.8,0,0,1-.9-2.9A9.6,9.6,0,0,1,374.5,263.5Zm3.9,5a6.5,6.5,0,0,0,1-3.3,3.9,3.9,0,0,0-.4-2.2,6.5,6.5,0,0,0-2.1,2.6,7.4,7.4,0,0,0-1.1,3.4,3.8,3.8,0,0,0,.3,1.9A4.9,4.9,0,0,0,378.4,268.5Z"/><path d="M391.7,260.8a2.3,2.3,0,0,1,1.8,1.1,3.2,3.2,0,0,1,.9,2,.5.5,0,0,1-.5.5,1.8,1.8,0,0,1-.9-.2l-1.1-.2a4.5,4.5,0,0,0-1.7.4c-.7.2-1.1.6-1.1,1s.2.4.7.7l1.4,1a4.3,4.3,0,0,1,1.4,1.3,2.8,2.8,0,0,1,.7,1.9q0,1.1-1.5,2.1a6.5,6.5,0,0,1-3.5,1,6.4,6.4,0,0,1-3.4-.9,2.6,2.6,0,0,1-1.4-1.9c0-.6.3-.9.8-.9a1,1,0,0,1,.7.2,6.2,6.2,0,0,0,3.1.7c1.2,0,1.8-.2,1.8-.5a1.6,1.6,0,0,0-.7-1.1,9.7,9.7,0,0,0-1.5-1.1,7.9,7.9,0,0,1-1.5-1.2,2.1,2.1,0,0,1-.7-1.5c0-.9.8-1.8,2.4-2.9A7.8,7.8,0,0,1,391.7,260.8Z"/><path d="M415.1,266.4c.3.3.5.5.5.7a7,7,0,0,1-.3,1.4,5.6,5.6,0,0,0-.4,1.5,6.4,6.4,0,0,1-.2.9.7.7,0,0,1-.1.5.6.6,0,0,1-.1.4v.5a.4.4,0,0,0-.1.3c-.1.2-.1.3-.2.4l-.2.2a.5.5,0,0,1-.4.2c-.3,0-.6-.2-.9-.7a4.4,4.4,0,0,1-.7-1.7q-2.4,2.4-3.9,2.4a3.5,3.5,0,0,1-2.3-1.2,3.3,3.3,0,0,1-1.2-2.3,7.9,7.9,0,0,1,1-3.3,14.1,14.1,0,0,1,2.9-4,5.4,5.4,0,0,1,3.6-1.9,3.9,3.9,0,0,1,2.4,1.2,3.5,3.5,0,0,1,1.4,2.2A4.6,4.6,0,0,1,415.1,266.4Zm-7.1,3.9a5.2,5.2,0,0,0,2.6-1.3,5.5,5.5,0,0,0,2-3.4c0-.2.2-.3.4-.4s-.2-1.3-.4-1.3a3.3,3.3,0,0,0-2.2,1.2,15.6,15.6,0,0,0-2,2.7,5.9,5.9,0,0,0-.8,2.2.3.3,0,0,0,.1.2C407.7,270.3,407.8,270.3,408,270.3Z"/><path d="M431.6,255a3.2,3.2,0,0,1,.9,2,34.5,34.5,0,0,1-.3,3.5c-.2,1.7-.4,3-.6,4-1.3,5.9-2.3,8.9-2.8,8.9s-.8-.3-1.3-.9-.8-1-.8-1.4.2-.9.6-2.6.9-3.8,1.4-6.4a49.3,49.3,0,0,0,.6-7.5c0-.5.3-.7.8-.7S431,254.2,431.6,255Z"/><path d="M443.6,266.4c.3.3.4.5.4.7a7,7,0,0,1-.3,1.4c-.2.6-.3,1.1-.4,1.5s-.1.7-.1.9a1.1,1.1,0,0,0-.1.5c0,.1-.1.3-.1.4a1.1,1.1,0,0,0-.1.5c0,.1-.1.2-.1.3a.8.8,0,0,0-.1.4l-.2.2-.5.2c-.2,0-.5-.2-.9-.7a6.7,6.7,0,0,1-.7-1.7q-2.2,2.4-3.9,2.4a3.3,3.3,0,0,1-2.2-1.2,3.1,3.1,0,0,1-1.3-2.3,8.4,8.4,0,0,1,1.1-3.3,12.4,12.4,0,0,1,2.9-4,5.4,5.4,0,0,1,3.6-1.9,3.7,3.7,0,0,1,2.3,1.2,3.5,3.5,0,0,1,1.4,2.2A4.3,4.3,0,0,1,443.6,266.4Zm-7.2,3.9A4.8,4.8,0,0,0,439,269a6.1,6.1,0,0,0,2.1-3.4c0-.2.1-.3.4-.4s-.2-1.3-.5-1.3a3.5,3.5,0,0,0-2.2,1.2,23.4,23.4,0,0,0-2,2.7,5.3,5.3,0,0,0-.7,2.2v.2Z"/><path d="M187.3,289.3a1.9,1.9,0,0,1,1.6,1,3.5,3.5,0,0,1,.6,1.9,16.1,16.1,0,0,1-.8,3.3c-.6,1.9-1.1,3.8-1.7,5.5a1.2,1.2,0,0,1-1.2.9,1.1,1.1,0,0,1-.9-.4,1.2,1.2,0,0,1-.4-1,21.2,21.2,0,0,1,.6-3.3c.4-1.7.7-3.2.9-4.4s.5-2.1.7-2.6S187.1,289.3,187.3,289.3Zm-.3-3a2.7,2.7,0,0,1,.5-1.4,1.7,1.7,0,0,1,1.2-.6c.3,0,.8.4,1.3,1.3a4.4,4.4,0,0,1,.7,1.9,1,1,0,0,1-.4.9,1.2,1.2,0,0,1-.8.4,2.9,2.9,0,0,1-1.6-1A2.5,2.5,0,0,1,187,286.3Z"/><path d="M199.9,289.3a2.9,2.9,0,0,1,2.3,1.2,3.7,3.7,0,0,1,1,2.4,16.8,16.8,0,0,1-.7,4.3,15.1,15.1,0,0,1-1.5,3.5c-.5.8-1.1,1.3-1.6,1.3s-.8-.4-.8-1.2a11.9,11.9,0,0,1,.8-3.5,14.8,14.8,0,0,0,.6-3.2c0-.6-.1-1-.2-1a.8.8,0,0,0-.7.4c-.2.2-.3.4-.5.5l-.4.6-.5.7-.4.8-.5.8-.4.8c-1.5,2.8-2.7,4.3-3.6,4.3a2.1,2.1,0,0,1-1.3-.9,3.3,3.3,0,0,1-.8-1.3,3.1,3.1,0,0,1,.4-1.2l.5-1.4.3-1c0-.4.1-.7.1-1.2a50.3,50.3,0,0,0,.2-2,29.8,29.8,0,0,1,.4-3.5c.1-.3.2-.4.4-.4a2.9,2.9,0,0,1,1.8.8,2.3,2.3,0,0,1,.8,1.4,15.2,15.2,0,0,1-.8,4.4c1.1-1.9,2.1-3.4,2.9-4.6S199.3,289.3,199.9,289.3Z"/><path d="M213.1,289.3a2.1,2.1,0,0,1,1.2.5,1.2,1.2,0,0,1,.6.9,15.6,15.6,0,0,1-1.4,4.1c-1,2.1-1.9,3.9-2.7,5.2s-1.5,1.9-2,1.9a1.5,1.5,0,0,1-1-.5,1.9,1.9,0,0,1-.9-.9,30.7,30.7,0,0,1-1.4-5.3,28.8,28.8,0,0,1-.9-4.9c0-.6.3-1,.7-1a2.5,2.5,0,0,1,1.7.7,3.9,3.9,0,0,1,1.7,3c0,.6.1,1.3.1,2.2a13.8,13.8,0,0,0,.2,2.2c.4-.8.9-1.9,1.5-3.4a32.7,32.7,0,0,1,1.4-3.4C212.4,289.7,212.7,289.3,213.1,289.3Z"/><path d="M225.2,295c.3.3.5.5.5.7a5.3,5.3,0,0,1-.3,1.3c-.2.7-.3,1.2-.4,1.6s-.1.6-.2.9v.5c-.1.1-.1.2-.1.4a.8.8,0,0,0-.1.4.6.6,0,0,0-.1.4c-.1.1-.1.3-.2.3s-.1.2-.1.3l-.5.2c-.2,0-.5-.3-.9-.7a6.7,6.7,0,0,1-.7-1.7q-2.2,2.4-3.9,2.4a3.7,3.7,0,0,1-2.3-1.2,3.5,3.5,0,0,1-1.2-2.3,9.2,9.2,0,0,1,1.1-3.4,14.8,14.8,0,0,1,2.8-3.9,5.3,5.3,0,0,1,3.7-1.9,3.9,3.9,0,0,1,2.3,1.2,3.3,3.3,0,0,1,1.4,2.2A4.9,4.9,0,0,1,225.2,295Zm-7.1,3.9a4.8,4.8,0,0,0,2.6-1.4,5.9,5.9,0,0,0,2.1-3.3c0-.2.1-.3.4-.4s-.2-1.4-.5-1.4a3.5,3.5,0,0,0-2.2,1.3,15.6,15.6,0,0,0-2,2.7,5.3,5.3,0,0,0-.7,2.2v.2Z"/><path d="M235.1,289.3a2.6,2.6,0,0,1,1.9,1.1,3.5,3.5,0,0,1,.9,2c0,.4-.2.6-.5.6l-.9-.2a2.3,2.3,0,0,0-1.1-.3l-1.7.4c-.8.3-1.1.6-1.1,1.1a1.5,1.5,0,0,0,.6.7l1.5.9a6.2,6.2,0,0,1,1.4,1.4,2.8,2.8,0,0,1,.7,1.9c0,.7-.5,1.3-1.5,2a5.8,5.8,0,0,1-3.5,1.1,5.7,5.7,0,0,1-3.4-1c-.9-.6-1.4-1.2-1.4-1.8s.2-1,.8-1l.7.3a5.9,5.9,0,0,0,3.1.7c1.2,0,1.8-.2,1.8-.5a1.6,1.6,0,0,0-.7-1.1l-1.5-1.1a6.4,6.4,0,0,1-1.5-1.3,2.1,2.1,0,0,1-.7-1.4c0-.9.8-1.9,2.4-2.9S234.2,289.3,235.1,289.3Z"/><path d="M241.5,289.3a1.9,1.9,0,0,1,1.6,1,3.5,3.5,0,0,1,.6,1.9,16.1,16.1,0,0,1-.8,3.3c-.6,1.9-1.1,3.8-1.7,5.5a1.2,1.2,0,0,1-1.2.9,1.1,1.1,0,0,1-.9-.4,1.2,1.2,0,0,1-.4-1,21.2,21.2,0,0,1,.6-3.3c.4-1.7.7-3.2.9-4.4s.5-2.1.7-2.6S241.3,289.3,241.5,289.3Zm-.3-3a2.7,2.7,0,0,1,.5-1.4,1.7,1.7,0,0,1,1.2-.6c.3,0,.8.4,1.3,1.3a4.4,4.4,0,0,1,.7,1.9,1,1,0,0,1-.4.9,1.2,1.2,0,0,1-.8.4,2.9,2.9,0,0,1-1.6-1A2.5,2.5,0,0,1,241.2,286.3Z"/><path d="M246.9,292c1.3-1.8,2.5-2.7,3.8-2.7a4,4,0,0,1,3.1,1.3,4.2,4.2,0,0,1,1.3,3.2,8.7,8.7,0,0,1-.9,3.7,8,8,0,0,1-2.5,3.2,5.5,5.5,0,0,1-3.4,1.3,2.8,2.8,0,0,1-2.3-1.2,4.4,4.4,0,0,1-1-3A10,10,0,0,1,246.9,292Zm4,5.1a7.7,7.7,0,0,0,1-3.4,3.6,3.6,0,0,0-.5-2.1,6.1,6.1,0,0,0-2.1,2.5,7.5,7.5,0,0,0-1,3.5,3.8,3.8,0,0,0,.3,1.9A5.4,5.4,0,0,0,250.9,297.1Zm1.3-8.4a.8.8,0,0,1-.7-.4,1.1,1.1,0,0,1-.3-.8,1.6,1.6,0,0,1,.3-.9,4.1,4.1,0,0,1,.9-1l1.1-.9.6-.6a1,1,0,0,0,.5-.4l.5-.3.6-.2c.4,0,.7.2,1.1.7a2.1,2.1,0,0,1,.5,1.2c0,.3-.1.6-.1.8l-.4.4-.6.4-1,.4-1,.6-.9.5A2.1,2.1,0,0,1,252.2,288.7Z"/><path d="M265.2,289.3a2.9,2.9,0,0,1,2.3,1.2,3.6,3.6,0,0,1,.9,2.4,16.5,16.5,0,0,1-.6,4.3,15.1,15.1,0,0,1-1.5,3.5c-.5.8-1.1,1.3-1.6,1.3s-.9-.4-.9-1.2a13.3,13.3,0,0,1,.9-3.5,14.8,14.8,0,0,0,.6-3.2c0-.6-.1-1-.3-1a.7.7,0,0,0-.6.4l-.5.5-.5.6a4.3,4.3,0,0,1-.4.7l-.5.8a5.9,5.9,0,0,0-.4.8l-.5.8c-1.5,2.8-2.7,4.3-3.5,4.3s-.8-.3-1.3-.9a2.4,2.4,0,0,1-.8-1.3,4.9,4.9,0,0,1,.3-1.2c.3-.6.4-1.1.6-1.4a3,3,0,0,0,.2-1,4.3,4.3,0,0,0,.2-1.2,3.4,3.4,0,0,0,.1-.9c0-.3.1-.6.1-1.1a29.8,29.8,0,0,1,.4-3.5c.1-.3.2-.4.3-.4a2.5,2.5,0,0,1,1.8.8,2.1,2.1,0,0,1,.9,1.4,19.7,19.7,0,0,1-.8,4.4,47.9,47.9,0,0,1,2.9-4.6C263.9,289.9,264.6,289.3,265.2,289.3Z"/><path d="M288.3,289.9a.8.8,0,0,1,.8-.6,2.1,2.1,0,0,1,1.4.8,2.8,2.8,0,0,1,.7,1.9,6.8,6.8,0,0,1-.4,2,16.7,16.7,0,0,1-.7,1.9c-.1.3-.3.8-.5,1.5l-.6,1.8-.8,2.2c-.3.9-.6,1.7-.8,2.5a9.8,9.8,0,0,1-1.9,3.4,3.6,3.6,0,0,1-2.8,1.2,5.4,5.4,0,0,1-3.1-.9c-.9-.6-1.4-1.2-1.4-1.8a2.7,2.7,0,0,1,.5-1.3c.3-.5.6-.7.9-.7s.5.2.9.6l1.2,1.1a1.5,1.5,0,0,0,1.1.6c.2,0,.3-.1.5-.3l.3-.5.3-.6.3-.8a4.6,4.6,0,0,0,.3-.9l.3-1a21.9,21.9,0,0,1,.7-2.3,8.3,8.3,0,0,1-1.7,1.6,3.1,3.1,0,0,1-1.6.7c-.5,0-1-.4-1.8-1.1a3.6,3.6,0,0,1-1-2.4,14.8,14.8,0,0,1,.6-3.6,16.4,16.4,0,0,1,1.4-3.9c.6-1.1,1.1-1.7,1.5-1.7a1.7,1.7,0,0,1,1.4.7,1.5,1.5,0,0,1,.7,1.2,4.9,4.9,0,0,1-.6,1.9l-1.2,2.9a8.3,8.3,0,0,0-.6,2.7c0,.1,0,.1.1.1s.7-.4,1.4-1.1l2.3-3.4A20.9,20.9,0,0,0,288.3,289.9Z"/><path d="M311.8,295c.3.3.4.5.4.7a5.3,5.3,0,0,1-.3,1.3c-.2.7-.3,1.2-.4,1.6s-.1.6-.1.9a.9.9,0,0,0-.1.5c0,.1-.1.2-.1.4s-.1.3-.1.4v.4a1,1,0,0,1-.1.3l-.2.3-.5.2c-.2,0-.5-.3-.8-.7a4.5,4.5,0,0,1-.8-1.7q-2.2,2.4-3.9,2.4a3.3,3.3,0,0,1-2.2-1.2,3.7,3.7,0,0,1-1.3-2.3,9.2,9.2,0,0,1,1.1-3.4,15.2,15.2,0,0,1,2.9-3.9,5,5,0,0,1,3.6-1.9,3.9,3.9,0,0,1,2.4,1.2,3.1,3.1,0,0,1,1.3,2.2A4.6,4.6,0,0,1,311.8,295Zm-7.1,3.9a5.1,5.1,0,0,0,2.6-1.4,6.3,6.3,0,0,0,2-3.3c0-.2.1-.3.4-.4s-.2-1.4-.5-1.4a3.7,3.7,0,0,0-2.2,1.3,14.8,14.8,0,0,0-1.9,2.7,4.5,4.5,0,0,0-.8,2.2v.2Z"/><path d="M318.8,283.5a3.1,3.1,0,0,1,1,2.1c0,.6-.1,1.8-.3,3.5s-.4,3-.6,4c-1.4,5.9-2.3,8.9-2.9,8.9a2.1,2.1,0,0,1-1.3-.9,2.9,2.9,0,0,1-.8-1.4l.6-2.6c.5-1.7.9-3.8,1.4-6.4a49.9,49.9,0,0,0,.7-7.5c0-.5.2-.7.7-.7S318.2,282.8,318.8,283.5Z"/><path d="M337.6,289.3a2.7,2.7,0,0,1,1.9,1.1,3.5,3.5,0,0,1,.9,2,.5.5,0,0,1-.6.6l-.8-.2-1.1-.3-1.7.4c-.8.3-1.2.6-1.2,1.1s.3.4.7.7l1.5.9a6.2,6.2,0,0,1,1.4,1.4,3.4,3.4,0,0,1,.7,1.9c0,.7-.5,1.3-1.5,2a6.1,6.1,0,0,1-3.5,1.1,5.5,5.5,0,0,1-3.4-1c-1-.6-1.4-1.2-1.4-1.8s.2-1,.7-1a1.3,1.3,0,0,1,.8.3,5.7,5.7,0,0,0,3.1.7c1.2,0,1.8-.2,1.8-.5a2,2,0,0,0-.7-1.1l-1.5-1.1-1.6-1.3a2.6,2.6,0,0,1-.7-1.4c0-.9.8-1.9,2.4-2.9A8.5,8.5,0,0,1,337.6,289.3Z"/><path d="M351.7,295c.2.3.4.5.4.7a5.3,5.3,0,0,1-.3,1.3l-.4,1.6c-.1.4-.1.6-.2.9v.5c-.1.1-.1.2-.1.4a.8.8,0,0,0-.1.4v.4c-.1.1-.1.3-.2.3s-.1.2-.1.3l-.5.2c-.2,0-.5-.3-.9-.7a6.7,6.7,0,0,1-.7-1.7q-2.2,2.4-3.9,2.4a3.7,3.7,0,0,1-2.3-1.2,3.5,3.5,0,0,1-1.2-2.3,9.2,9.2,0,0,1,1.1-3.4,13.2,13.2,0,0,1,2.9-3.9,5,5,0,0,1,3.6-1.9,3.9,3.9,0,0,1,2.3,1.2,3.3,3.3,0,0,1,1.4,2.2A5.9,5.9,0,0,1,351.7,295Zm-7.2,3.9a4.8,4.8,0,0,0,2.6-1.4,5.9,5.9,0,0,0,2.1-3.3c0-.2.1-.3.4-.4s-.2-1.4-.5-1.4a3.7,3.7,0,0,0-2.2,1.3,15.6,15.6,0,0,0-2,2.7,5.3,5.3,0,0,0-.7,2.2v.2Z"/><path d="M361.7,303.8a5.1,5.1,0,0,1,1.7-.5,1.7,1.7,0,0,1,1,.3,1.3,1.3,0,0,1,.3.8.7.7,0,0,1-.4.6l-1.3.9-1.7,1.2-1.5,1.1a1.6,1.6,0,0,1-.9.3c-.3,0-.5-.2-.9-.7a2.4,2.4,0,0,1-.4-1.3,33.5,33.5,0,0,1,1.9-5.5,4,4,0,0,1-2.4,1,3.5,3.5,0,0,1-2.2-1.3,3.8,3.8,0,0,1-1.1-2.2,5.6,5.6,0,0,1,.7-2.5,10.8,10.8,0,0,1,1.6-3,10.3,10.3,0,0,1,2.5-2.6,5,5,0,0,1,2.7-1.1,3.1,3.1,0,0,1,2.4,1.2,3.3,3.3,0,0,1,1.1,2.1c0,.5-.2.7-.7.7l-.9-.5a2.3,2.3,0,0,0-1-.5,3.6,3.6,0,0,0-2.5,1.3,14.2,14.2,0,0,0-2.2,2.8,5,5,0,0,0-.9,2.2c0,.1,0,.2.1.2h.4a4.3,4.3,0,0,0,2.5-1.5,6.1,6.1,0,0,0,2.1-3.4.5.5,0,0,1,.6-.4,2.5,2.5,0,0,1,1.5.7c.7.4,1.1.8,1.1,1a5,5,0,0,1-.5,1.5l-1.3,3.4A36.6,36.6,0,0,0,361.7,303.8Z"/><path d="M375,289.9c.2-.4.4-.6.8-.6s.9.4,1.4,1a3.4,3.4,0,0,1,.8,1.8q0,.1-1.2,3.6l-1.7,5.2c-.2.7-.6,1.1-1.2,1.1a1.2,1.2,0,0,1-.8-.4,1.6,1.6,0,0,1-.3-1.1,12.2,12.2,0,0,1,.3-2.2c-1.7,2.4-3,3.7-4,3.7a2.9,2.9,0,0,1-1.9-1.1,2.4,2.4,0,0,1-1.1-1.9,17.6,17.6,0,0,1,1.3-6c.9-2.5,1.7-3.7,2.5-3.7a1.6,1.6,0,0,1,1.3.7,1.7,1.7,0,0,1,.5,1.3,6.7,6.7,0,0,1-.6,1.7q-1.8,4-1.8,5.7c0,.1,0,.1.1.1s.7-.3,1.4-1.1a25.4,25.4,0,0,0,2.2-3.4A15.8,15.8,0,0,0,375,289.9Z"/><path d="M387.7,296.1a6.9,6.9,0,0,1-3.4.9l-2.8-.2a5.1,5.1,0,0,0-.2,1.3,2,2,0,0,0,.2.9,1.4,1.4,0,0,0,1.1.3,14.5,14.5,0,0,0,3.2-.3l1.3-.4c.7,0,1,.2,1,.7s-.5,1.2-1.5,1.8a7.5,7.5,0,0,1-3.7.9,4.5,4.5,0,0,1-3.3-1.3,4.6,4.6,0,0,1-1.3-3.1,7.8,7.8,0,0,1,1.1-3.7,12.3,12.3,0,0,1,2.6-3.3,5.2,5.2,0,0,1,3.1-1.3,3.8,3.8,0,0,1,2.9,1.5,4.9,4.9,0,0,1,1.3,3.1C389.3,294.7,388.8,295.4,387.7,296.1Zm-1.7-3.3a1.9,1.9,0,0,0-1-.5,1.9,1.9,0,0,0-1.2.7,8.4,8.4,0,0,0-1.3,1.7h.6c2.3,0,3.4-.4,3.4-1.2S386.3,293.1,386,292.8Z"/><path d="M392.1,292c1.2-1.8,2.5-2.7,3.7-2.7a4.2,4.2,0,0,1,3.2,1.3,4.5,4.5,0,0,1,1.2,3.2,10.3,10.3,0,0,1-.8,3.7,8.9,8.9,0,0,1-2.5,3.2,5.8,5.8,0,0,1-3.4,1.3,2.8,2.8,0,0,1-2.3-1.2,4.4,4.4,0,0,1-1-3A10,10,0,0,1,392.1,292Zm4,5.1a7.5,7.5,0,0,0,.9-3.4,3.7,3.7,0,0,0-.4-2.1,6.1,6.1,0,0,0-2.1,2.5,7.5,7.5,0,0,0-1,3.5,3.8,3.8,0,0,0,.3,1.9A5.9,5.9,0,0,0,396.1,297.1Z"/><path d="M404.4,302.4a2.8,2.8,0,0,1-1.8-1,2.6,2.6,0,0,1-.9-1.6,2,2,0,0,1,.6-1.4,1.5,1.5,0,0,1,1.2-.7c.4,0,.9.4,1.4,1.3a5.6,5.6,0,0,1,.8,2.1,1,1,0,0,1-.4.8C404.9,302.2,404.7,302.4,404.4,302.4Z"/><g class="cls-3"><path d="M172.9,357.4a24.7,24.7,0,0,0,13.1,4.4,38,38,0,0,0,13.4-2.1,59.7,59.7,0,0,0,12.2-5.9,93.2,93.2,0,0,0,11.1-8.2c3.8-3,7.5-6.1,11.6-9.1a84,84,0,0,1,13.4-8.2,48.2,48.2,0,0,1,7.8-2.9,59.8,59.8,0,0,1,8.2-1.7,139.5,139.5,0,0,1,15.4-.7c18.7,0,37-2.3,55.3-5.9,2.3-.4,4.6-1,6.8-1.5l6.9-1.5,6.7-1.8,3.4-.8,3.4-1,6.8-1.9,6.7-2c4.6-1.3,9-2.8,13.5-4.3l13.5-4.5,13.4-4.9,26.8-9.9,13.5-5.1,13.2-5a123,123,0,0,0,12.2-5.6,62.2,62.2,0,0,0,5.6-3.2l2.7-1.8,2.7-1.9,5.1-4.1c1.6-1.5,3.3-2.9,4.9-4.5l4.5-4.8,4.4-5.2a168.6,168.6,0,0,0,14.8-23.4c4.4-8.3,8.2-17,11.9-25.8s7.2-17.9,10.8-26.9c-1.3,9.6-2.8,19.2-4.9,28.7a220.6,220.6,0,0,1-7.9,28.3A144.1,144.1,0,0,1,523,250l-4.2,6.4-4.7,6.2c-1.7,2-3.5,3.9-5.3,5.8a24.7,24.7,0,0,1-2.8,2.8l-2.9,2.7a36.1,36.1,0,0,1-3,2.5l-3.1,2.4c-2.1,1.7-4.4,3.1-6.6,4.6-4.4,2.7-9,5.1-13.5,7.3s-9.1,4.2-13.5,6.1l-13.3,5.6L436.6,308l-13.5,5.4-13.7,5c-4.6,1.6-9.2,3.3-13.9,4.8-18.6,6.1-37.7,11.4-57.4,14.4l-7.4,1.1c-2.4.4-4.9.6-7.4.9s-4.9.6-7.4.7l-7.5.5-7.5.2c-2.5,0-5,.1-7.5,0l-7.5-.3-7.4-.4a130,130,0,0,0-13.5-.7,38,38,0,0,0-5.9.6,43.9,43.9,0,0,0-6,1.5c-7.9,2.7-15.8,7.7-24.2,12.7a128.9,128.9,0,0,1-13.3,7.1,59.5,59.5,0,0,1-14.8,4.2,41.4,41.4,0,0,1-15.3-.6A24.9,24.9,0,0,1,172.9,357.4Z"/></g><path class="cls-4" d="M55.8,71.3a87.1,87.1,0,0,1-7-10.9,72.2,72.2,0,0,1-4.9-11.1A45.8,45.8,0,0,1,41.8,38a24.5,24.5,0,0,1,1.9-10.7l1.2-2.4,1.6-2.2a19.5,19.5,0,0,1,4.2-3.9,33.6,33.6,0,0,1,11.2-5c8.3-2.1,17.8-2.2,27.4-1,2.4.2,4.9.6,7.3,1l7.3,1.5c4.8,1.2,9.7,2.6,14.4,4.2a192,192,0,0,1,28.1,11.8c18,9.3,34.7,20.8,48.3,33.9-8.8-4.4-17.4-8.8-26-12.7s-17-7.6-25.5-10.8c-16.8-6.5-33.6-11.4-49.1-13.3s-29.5-.5-35.7,7.2a20.2,20.2,0,0,0-3.6,7,38,38,0,0,0-1.2,8.6C53.4,57.4,54.5,64.2,55.8,71.3Z"/><path class="cls-1" d="M55.5,64.1A80.3,80.3,0,0,1,44,42.6c-2.4-7.3-3.2-14.9-.6-21.5A20.9,20.9,0,0,1,46,16.5l.8-1.1,1.1-1.1,2.5-1.8a30.8,30.8,0,0,1,12.3-4,69.4,69.4,0,0,1,13.7-.3,133.7,133.7,0,0,1,14,1.7c18.7,3.4,37.2,9.7,55.1,17.6a308.3,308.3,0,0,1,50.9,28.4l-3.1,4.9c-16.7-8.1-33.5-15.4-50.3-21.7S109.3,27.6,93.3,24.5c-3.9-.7-7.9-1.4-11.6-1.7a63.8,63.8,0,0,0-10.6-.3,26.5,26.5,0,0,0-8.2,1.6l-1.6.8L59.9,26a16,16,0,0,0-2.5,2.7c-3.1,4-4.3,9.6-4.3,15.7S54.1,57.2,55.5,64.1Z"/><polygon class="cls-1" points="181.9 65.7 203.5 63.8 197.6 45 181.9 65.7"/><path class="cls-5" d="M23.9,43.9V74.8H16.5V43.9Z"/><path class="cls-5" d="M55,67.4a13.5,13.5,0,0,1-5.6,5.5,17.9,17.9,0,0,1-8.6,1.9H29.1V43.9H40.8a17.9,17.9,0,0,1,8.6,1.9A13.3,13.3,0,0,1,55,51.2a17.4,17.4,0,0,1,0,16.2Zm-8-1.6a8.5,8.5,0,0,0,2.4-6.5A8.5,8.5,0,0,0,47,52.8a9.4,9.4,0,0,0-6.8-2.4H36.6V68.1h3.6A9.4,9.4,0,0,0,47,65.8Z"/><path class="cls-5" d="M68.7,49.8v6.5H79.2V62H68.7v6.8H80.5v6H61.2V43.9H80.5v5.9Z"/><path class="cls-5" d="M103.9,69.2H92.3l-1.9,5.6H82.5L93.9,44.1h8.6l11.3,30.7h-7.9ZM102,63.5,98.2,52.1,94.3,63.5Z"/><path class="cls-5" d="M123.4,50.9v-7h12.5V74.8H128V50.9Z"/></g></svg>