<svg xmlns="http://www.w3.org/2000/svg" viewBox="0 0 278.7 402.9"><defs><style>.cls-1{fill:#72be44;}.cls-2{fill:#ecf8fe;stroke:#52474c;stroke-miterlimit:10;stroke-width:3.94px;}.cls-3{opacity:0.19;}.cls-4{opacity:0.12;}.cls-5{fill:#fff;}</style></defs><title>act2_idea2</title><g id="act1_iidea2"><rect class="cls-1" x="8.1" y="313" width="162" height="47"/><path class="cls-2" d="M3.1,194c8.4-.5,18.9-2.9,24-12.1s2.3-23.1,1-29.1c-8-39.1,6.2-84,11-94.6,21.3-47,149.4-69.1,206,21.8,44,70.6,35.1,193.5-25,231.7-52.8,33.5-139.9-1.8-176-100.7a29,29,0,0,1-24,0C9.9,206.3,4.7,197.1,3.1,194Z"/><path d="M129.9,40.3q.4,0,1.5-2.1l2.3-4.2c.8-1.4,1.3-2.1,1.7-2.1a1.6,1.6,0,0,1,1.4.7,3.3,3.3,0,0,1,.6,1.9,9.5,9.5,0,0,1-1.3,2.8l-3.2,5.2a41.1,41.1,0,0,0-3.1,5.2,4.1,4.1,0,0,1-1,1.4,2.1,2.1,0,0,1-1.4.8c-.6,0-.9-.6-.9-1.6a13.5,13.5,0,0,1,1.8-4.3l.4-.8a6.2,6.2,0,0,1-1.9-1.4,7.4,7.4,0,0,1-1.4-2.2,12.8,12.8,0,0,1-1.1-4.9,5.1,5.1,0,0,1,.3-2.1,1.4,1.4,0,0,1,1.4-.7c.4,0,.6.2.8.7a14.9,14.9,0,0,1,.5,2.2,8.4,8.4,0,0,0,.6,2.4,20,20,0,0,0,1,2.1C129.3,40,129.6,40.3,129.9,40.3Z"/><path d="M138.6,40c1.3-1.9,2.5-2.8,3.8-2.8a4.4,4.4,0,0,1,4.4,4.5,9.2,9.2,0,0,1-.9,3.8,8.4,8.4,0,0,1-2.5,3.1,5,5,0,0,1-3.4,1.3,2.9,2.9,0,0,1-2.3-1.2,4.3,4.3,0,0,1-1-2.9A10.3,10.3,0,0,1,138.6,40Zm4,5a6.5,6.5,0,0,0,1-3.3,3.7,3.7,0,0,0-.5-2.2,6.5,6.5,0,0,0-2.1,2.6,8.5,8.5,0,0,0-1,3.4,3.8,3.8,0,0,0,.3,1.9A5.4,5.4,0,0,0,142.6,45Z"/><path d="M78.1,65.8c.6,0,1.3.6,2,1.7a5.5,5.5,0,0,1,1,3.2,4.9,4.9,0,0,1-.8,2.3,17.1,17.1,0,0,1-2.1,2.6,14.9,14.9,0,0,1-2.9,2,7.9,7.9,0,0,1-3.2.8h-.3c-1,4.3-1.7,6.4-2.2,6.4a1.4,1.4,0,0,1-1-.8,3,3,0,0,1-.6-1.4,19.3,19.3,0,0,1,.7-3.5,59.5,59.5,0,0,0,2.1-12.9c0-.5.2-.8.7-.8a3.3,3.3,0,0,1,1.5.7,2.5,2.5,0,0,1,1.1,1.7A6.1,6.1,0,0,1,78.1,65.8Zm-1.9,7.6c1.1-1.2,1.7-2.2,1.7-3s-.2-1.3-.7-1.3A3.3,3.3,0,0,0,75,70.3a10.4,10.4,0,0,0-1,1.4A12.2,12.2,0,0,0,73,74l-.4,1.5A6.2,6.2,0,0,0,76.2,73.4Z"/><path d="M84.2,68.5c1.2-1.8,2.5-2.7,3.7-2.7a4.2,4.2,0,0,1,3.2,1.3,4.5,4.5,0,0,1,1.2,3.2,8.3,8.3,0,0,1-.8,3.7A8,8,0,0,1,89,77.2a5.8,5.8,0,0,1-3.4,1.3,2.8,2.8,0,0,1-2.3-1.2,4.4,4.4,0,0,1-1-3A10,10,0,0,1,84.2,68.5Zm4,5.1a7.5,7.5,0,0,0,.9-3.4,3.7,3.7,0,0,0-.4-2.1,6.1,6.1,0,0,0-2.1,2.5,7.8,7.8,0,0,0-1,3.5,3.8,3.8,0,0,0,.3,1.9A5.9,5.9,0,0,0,88.2,73.6Z"/><path d="M94.9,70V67.2c0-.9.3-1.4.8-1.4a1.3,1.3,0,0,1,1,.4,1.8,1.8,0,0,1,.7,1.1l1.8-1.1a4.9,4.9,0,0,1,1.8-.5q1.8,0,1.8.9a.8.8,0,0,1-.2.6l-.2.3-.3.3-.3.2-.8.5A6.3,6.3,0,0,0,99,70.2a6.8,6.8,0,0,0-1.2,2.7,26.8,26.8,0,0,1-1.3,4.2c-.4.9-.9,1.3-1.4,1.3a1.1,1.1,0,0,1-1.1-.7,2.5,2.5,0,0,1-.4-1.4,6.7,6.7,0,0,1,.5-1.9,13.1,13.1,0,0,0,.6-2.3A6.8,6.8,0,0,0,94.9,70Z"/><path d="M113.6,68.5c1.3-1.8,2.6-2.7,3.8-2.7a4,4,0,0,1,3.1,1.3,4.2,4.2,0,0,1,1.3,3.2,8.4,8.4,0,0,1-.9,3.7,8.7,8.7,0,0,1-2.4,3.2,5.8,5.8,0,0,1-3.5,1.3,3.1,3.1,0,0,1-2.3-1.2,4.9,4.9,0,0,1-1-3A10.8,10.8,0,0,1,113.6,68.5Zm4,5.1a6.6,6.6,0,0,0,1-3.4,3.7,3.7,0,0,0-.4-2.1,6.1,6.1,0,0,0-2.1,2.5,8.2,8.2,0,0,0-1.1,3.5,3.8,3.8,0,0,0,.3,1.9A4.9,4.9,0,0,0,117.6,73.6Z"/><path d="M128.8,70.6a28.2,28.2,0,0,0-.9,3l-.6,1.9h.4l1.9-.6,1.8-.5c.4,0,.6.2.6.8s-.5,1.2-1.6,2a5.6,5.6,0,0,1-3.4,1.2,3.2,3.2,0,0,1-1.9-.9c-.7-.6-1.1-1.1-1.1-1.7a13.7,13.7,0,0,1,.8-3.1l1-3.3-1.4.3c-.4,0-.7-.2-1.1-.7a2.4,2.4,0,0,1-.5-1.3c0-.5,1.3-.9,3.8-1.3a20.8,20.8,0,0,0,.5-3.9c0-.5.2-.8.7-.8a3,3,0,0,1,1.6.8,1.9,1.9,0,0,1,1,1.5,10.4,10.4,0,0,1-.3,2.1h1.8c1.2,0,1.8.2,1.8.8s-.3.7-1.1.9a20.9,20.9,0,0,1-3.2.8C129.2,69.2,129.1,69.8,128.8,70.6Z"/><path d="M135.4,70V67.2c0-.9.3-1.4.8-1.4a1.3,1.3,0,0,1,1,.4,1.8,1.8,0,0,1,.7,1.1,11.8,11.8,0,0,1,1.9-1.1,4.1,4.1,0,0,1,1.7-.5q1.8,0,1.8.9a.8.8,0,0,1-.2.6l-.2.3-.3.3-.3.2-.8.5a6.3,6.3,0,0,0-1.9,1.7,6.8,6.8,0,0,0-1.2,2.7,26.8,26.8,0,0,1-1.3,4.2c-.4.9-.9,1.3-1.4,1.3a1.1,1.1,0,0,1-1.1-.7,2.5,2.5,0,0,1-.4-1.4,6.7,6.7,0,0,1,.5-1.9,13.1,13.1,0,0,0,.6-2.3A6.8,6.8,0,0,0,135.4,70Z"/><path d="M144.7,68.5c1.3-1.8,2.5-2.7,3.8-2.7a4,4,0,0,1,3.1,1.3,4.2,4.2,0,0,1,1.3,3.2A8.4,8.4,0,0,1,152,74a8,8,0,0,1-2.5,3.2,5.5,5.5,0,0,1-3.4,1.3,2.9,2.9,0,0,1-2.3-1.2,4.9,4.9,0,0,1-1-3A10.8,10.8,0,0,1,144.7,68.5Zm4,5.1a6.6,6.6,0,0,0,1-3.4,3.6,3.6,0,0,0-.5-2.1,6.1,6.1,0,0,0-2.1,2.5,9.4,9.4,0,0,0-1,3.5,3.8,3.8,0,0,0,.3,1.9A5.4,5.4,0,0,0,148.7,73.6Z"/><path d="M168.5,60a3.5,3.5,0,0,1,.9,2.1c0,.7-.1,1.8-.2,3.5a24.7,24.7,0,0,1-.7,4c-1.3,5.9-2.3,8.9-2.8,8.9s-.8-.3-1.3-.9a2.3,2.3,0,0,1-.8-1.4c0-.1.2-.9.6-2.6s.9-3.8,1.4-6.4a49.3,49.3,0,0,0,.6-7.5c0-.5.3-.7.8-.7S167.9,59.3,168.5,60Z"/><path d="M180.5,71.5c.3.3.4.5.4.7a5.3,5.3,0,0,1-.3,1.3l-.4,1.6c0,.4-.1.7-.1.9a.9.9,0,0,0-.1.5c0,.1-.1.2-.1.4s-.1.3-.1.4-.1.3-.1.4a.4.4,0,0,1-.1.3l-.2.3-.5.2c-.2,0-.5-.3-.8-.7a4.5,4.5,0,0,1-.8-1.7q-2.2,2.4-3.9,2.4a4.7,4.7,0,0,1-3.5-3.5,8.4,8.4,0,0,1,1.1-3.3,14.1,14.1,0,0,1,2.9-4,5,5,0,0,1,3.6-1.9,3.9,3.9,0,0,1,2.4,1.2,3.3,3.3,0,0,1,1.3,2.2A4.6,4.6,0,0,1,180.5,71.5Zm-7.2,3.9a4.5,4.5,0,0,0,2.6-1.4,5.6,5.6,0,0,0,2.1-3.3c0-.2.1-.3.4-.4s-.2-1.4-.5-1.4a3.7,3.7,0,0,0-2.2,1.3,23.4,23.4,0,0,0-2,2.7,5.3,5.3,0,0,0-.7,2.2v.2Z"/><path d="M193,59c.4,0,.9.3,1.6,1a3.2,3.2,0,0,1,.9,2,33.6,33.6,0,0,1-.9,3.9c-.5,2.3-.9,3.6-1,4.1-1.3,5.6-2.2,8.5-2.8,8.5a1.5,1.5,0,0,1-1.2-.7,1.7,1.7,0,0,1-.6-1.2h0c-1.6,1.3-2.8,2-3.5,2a2.9,2.9,0,0,1-2.1-1.2,3.4,3.4,0,0,1-1-2,7.6,7.6,0,0,1,.3-2.1,11.3,11.3,0,0,1,.8-2.4,13.4,13.4,0,0,1,1.2-2.4,6.3,6.3,0,0,1,1.7-1.9,4.4,4.4,0,0,1,2.1-.7,3,3,0,0,1,2.5,1.6,41.8,41.8,0,0,0,1.3-7.7C192.3,59.2,192.5,59,193,59Zm-7.2,16.4a5.2,5.2,0,0,0,2.1-1.1,7.1,7.1,0,0,0,2.1-2.7v-.8a2.8,2.8,0,0,0-.4-1.3,1.2,1.2,0,0,0-.9-.6,2.3,2.3,0,0,0-1.4.8,5.7,5.7,0,0,0-1,1.9,10,10,0,0,0-.9,3.4c0,.2.1.2.1.3Z"/><path d="M197.5,68.5c1.3-1.8,2.5-2.7,3.8-2.7a4,4,0,0,1,3.1,1.3,4.2,4.2,0,0,1,1.3,3.2,8.4,8.4,0,0,1-.9,3.7,8,8,0,0,1-2.5,3.2,5.5,5.5,0,0,1-3.4,1.3,2.9,2.9,0,0,1-2.3-1.2,4.9,4.9,0,0,1-1-3A10.8,10.8,0,0,1,197.5,68.5Zm4,5.1a6.6,6.6,0,0,0,1-3.4,3.6,3.6,0,0,0-.5-2.1,5.3,5.3,0,0,0-2,2.5,8.2,8.2,0,0,0-1.1,3.5,3.8,3.8,0,0,0,.3,1.9A4.9,4.9,0,0,0,201.5,73.6Z"/><path d="M62.7,103.2a8.5,8.5,0,0,1,1.1-3.8,12,12,0,0,1,2.8-3.5,5.4,5.4,0,0,1,3.5-1.5,2.6,2.6,0,0,1,1.7,1.1,3.5,3.5,0,0,1,.9,2c0,.5-.2.7-.6.7l-.8-.3a1.9,1.9,0,0,0-1-.3,2.5,2.5,0,0,0-1.5.9,10.2,10.2,0,0,0-1.8,2.3,4.3,4.3,0,0,0-.8,2q0,.8.3.9c.2.2.6.2,1.4.2h2l1.3-.4a1.3,1.3,0,0,1,.8-.3.5.5,0,0,1,.6.6c0,.7-.6,1.5-1.8,2.2A7.2,7.2,0,0,1,67,107a4.6,4.6,0,0,1-2.8-1.3A3.6,3.6,0,0,1,62.7,103.2Z"/><path d="M76,98.5V95.8c0-.9.3-1.4.9-1.4a1.2,1.2,0,0,1,.9.4,1.8,1.8,0,0,1,.7,1.1,7.6,7.6,0,0,1,1.9-1.2,3.8,3.8,0,0,1,1.7-.4c1.2,0,1.8.3,1.8.8a.8.8,0,0,1-.2.7l-.2.3-.3.2c-.1.2-.2.2-.3.3l-.8.5a7.4,7.4,0,0,0-1.9,1.6,8.5,8.5,0,0,0-1.2,2.7,16.1,16.1,0,0,1-1.3,4.2c-.4,1-.8,1.4-1.3,1.4a1.2,1.2,0,0,1-1.2-.7,2.7,2.7,0,0,1-.4-1.4,8,8,0,0,1,.5-2c.3-.8.5-1.6.7-2.2A14.1,14.1,0,0,0,76,98.5Z"/><path d="M92.9,101.1a6,6,0,0,1-3.3,1,11.7,11.7,0,0,1-2.9-.3,6.8,6.8,0,0,0-.2,1.4,2,2,0,0,0,.2.9,1.6,1.6,0,0,0,1.1.3A10,10,0,0,0,91,104l1.4-.3c.6,0,1,.2,1,.7s-.6,1.2-1.6,1.8a7.5,7.5,0,0,1-3.7.8,4.2,4.2,0,0,1-3.3-1.3,4.2,4.2,0,0,1-1.2-3,7.4,7.4,0,0,1,1-3.7,12.3,12.3,0,0,1,2.6-3.3,4.9,4.9,0,0,1,3.1-1.3,3.8,3.8,0,0,1,2.9,1.5A4.7,4.7,0,0,1,94.5,99C94.5,99.8,94,100.5,92.9,101.1Zm-1.7-3.2a1.9,1.9,0,0,0-1-.5,1.9,1.9,0,0,0-1.2.7,11.2,11.2,0,0,0-1.3,1.6h.6c2.3,0,3.4-.4,3.4-1.2S91.5,98.2,91.2,97.9Z"/><path d="M97.3,97.1c1.3-1.8,2.5-2.7,3.7-2.7a4.2,4.2,0,0,1,3.2,1.3,4.6,4.6,0,0,1,1.3,3.1,8.8,8.8,0,0,1-.9,3.8,8.7,8.7,0,0,1-2.5,3.2,5.6,5.6,0,0,1-3.4,1.2,2.8,2.8,0,0,1-2.3-1.2,4.1,4.1,0,0,1-1-2.9A9.8,9.8,0,0,1,97.3,97.1Zm4,5.1a7.5,7.5,0,0,0,.9-3.4,3.5,3.5,0,0,0-.4-2.1,6.1,6.1,0,0,0-2.1,2.5,7.5,7.5,0,0,0-1,3.5,3.1,3.1,0,0,0,.3,1.8A5.6,5.6,0,0,0,101.3,102.2Z"/><path d="M124,108.9a4.1,4.1,0,0,1,1.8-.5,1.2,1.2,0,0,1,.9.3c.2.3.4.5.4.7a1,1,0,0,1-.4.7l-1.3.9-1.8,1.2-1.4,1.1a1.6,1.6,0,0,1-.9.3c-.3,0-.6-.2-.9-.7a2.7,2.7,0,0,1-.5-1.3,41.4,41.4,0,0,1,2-5.5,4.5,4.5,0,0,1-2.4.9,3.3,3.3,0,0,1-2.2-1.2,3.8,3.8,0,0,1-1.1-2.2,7.3,7.3,0,0,1,.6-2.6,22.8,22.8,0,0,1,1.7-3,9.9,9.9,0,0,1,2.5-2.5,4.7,4.7,0,0,1,2.7-1.1,3.4,3.4,0,0,1,2.4,1.1,3.5,3.5,0,0,1,1.1,2.2.6.6,0,0,1-.7.7,2.1,2.1,0,0,1-.9-.5,2.5,2.5,0,0,0-1.1-.5,3.6,3.6,0,0,0-2.4,1.3,14.2,14.2,0,0,0-2.2,2.8,5.2,5.2,0,0,0-.9,2.1c0,.2,0,.3.1.3h.3a4.2,4.2,0,0,0,2.6-1.4,6.1,6.1,0,0,0,2.1-3.4.5.5,0,0,1,.6-.4,2.9,2.9,0,0,1,1.5.6c.7.5,1,.8,1,1.1a4.7,4.7,0,0,1-.4,1.5c-.3.8-.7,1.9-1.3,3.3Z"/><path d="M137.4,95a.8.8,0,0,1,.8-.6c.4,0,.8.3,1.4,1a3.2,3.2,0,0,1,.7,1.7,21.4,21.4,0,0,1-1.1,3.6c-.7,2.3-1.3,4-1.7,5.3s-.6,1-1.2,1a1.1,1.1,0,0,1-.8-.3,1.8,1.8,0,0,1-.3-1.1,11.2,11.2,0,0,1,.3-2.2c-1.7,2.4-3.1,3.6-4.1,3.6a2.8,2.8,0,0,1-1.8-1,2.6,2.6,0,0,1-1.1-2,18.6,18.6,0,0,1,1.3-6c.9-2.4,1.7-3.6,2.5-3.6a1.8,1.8,0,0,1,1.3.6,2.7,2.7,0,0,1,.5,1.4,6.7,6.7,0,0,1-.6,1.7c-1.2,2.7-1.9,4.6-1.9,5.7s.1.1.2.1.7-.4,1.3-1.1a18,18,0,0,0,2.3-3.4A19.3,19.3,0,0,0,137.4,95Z"/><path d="M150.1,101.1a6.1,6.1,0,0,1-3.4,1,10.9,10.9,0,0,1-2.8-.3,6.8,6.8,0,0,0-.2,1.4,2,2,0,0,0,.2.9,1.4,1.4,0,0,0,1.1.3,10.4,10.4,0,0,0,3.2-.4l1.3-.3c.7,0,1,.2,1,.7s-.5,1.2-1.6,1.8a6.8,6.8,0,0,1-3.6.8,4.2,4.2,0,0,1-3.3-1.3,3.9,3.9,0,0,1-1.3-3,7.5,7.5,0,0,1,1.1-3.7,10.6,10.6,0,0,1,2.6-3.3,4.7,4.7,0,0,1,3.1-1.3,4,4,0,0,1,2.9,1.5,4.7,4.7,0,0,1,1.3,3.1C151.7,99.8,151.2,100.5,150.1,101.1Zm-1.8-3.2a1.4,1.4,0,0,0-.9-.5,1.9,1.9,0,0,0-1.2.7,7,7,0,0,0-1.3,1.6h.6c2.2,0,3.4-.4,3.4-1.2S148.7,98.2,148.3,97.9Z"/><path d="M169.9,94.4a2.7,2.7,0,0,1,1.9,1.1,3.5,3.5,0,0,1,.9,2,.5.5,0,0,1-.6.6l-.8-.2-1.1-.3-1.7.4c-.8.3-1.2.6-1.2,1.1s.3.4.7.7l1.5.9a4.7,4.7,0,0,1,1.4,1.4,3.4,3.4,0,0,1,.7,1.9c0,.6-.5,1.3-1.5,2a6,6,0,0,1-3.5,1,6.2,6.2,0,0,1-3.4-.9c-1-.6-1.4-1.2-1.4-1.8s.2-1,.7-1a1.3,1.3,0,0,1,.8.3,6.8,6.8,0,0,0,3.1.7c1.2,0,1.8-.2,1.8-.5a2,2,0,0,0-.7-1.1l-1.5-1.1-1.6-1.3a2.6,2.6,0,0,1-.7-1.4c0-.9.8-1.9,2.4-2.9A7.5,7.5,0,0,1,169.9,94.4Z"/><path d="M175.3,97.1c1.3-1.8,2.5-2.7,3.8-2.7a4,4,0,0,1,3.1,1.3,4.2,4.2,0,0,1,1.3,3.1,8.8,8.8,0,0,1-.9,3.8,8.7,8.7,0,0,1-2.5,3.2,5.4,5.4,0,0,1-3.4,1.2,2.9,2.9,0,0,1-2.3-1.2,4.1,4.1,0,0,1-1-2.9A10.5,10.5,0,0,1,175.3,97.1Zm4,5.1a6.6,6.6,0,0,0,1-3.4,3.4,3.4,0,0,0-.5-2.1,6.1,6.1,0,0,0-2.1,2.5,8.9,8.9,0,0,0-1,3.5,3.1,3.1,0,0,0,.3,1.8A5.1,5.1,0,0,0,179.3,102.2Z"/><path d="M193.7,94.4a3.1,3.1,0,0,1,2.3,1.1,4,4,0,0,1,.9,2.5,16.5,16.5,0,0,1-.6,4.3,17.3,17.3,0,0,1-1.5,3.5,2.1,2.1,0,0,1-1.6,1.2c-.6,0-.8-.3-.8-1.1a13,13,0,0,1,.8-3.6,13.3,13.3,0,0,0,.6-3.1c0-.7-.1-1-.3-1a.9.9,0,0,0-.6.3l-.5.6-.4.6-.5.7-.5.8a5.9,5.9,0,0,1-.4.8,2.9,2.9,0,0,0-.4.8q-2.4,4.2-3.6,4.2c-.4,0-.8-.3-1.3-.9s-.8-1-.8-1.3a6.2,6.2,0,0,1,.3-1.1l.6-1.4a3.6,3.6,0,0,0,.2-1,5,5,0,0,0,.2-1.2,3.8,3.8,0,0,0,.1-1,2.5,2.5,0,0,0,.1-1,33.5,33.5,0,0,1,.4-3.6q.2-.3.3-.3a2.5,2.5,0,0,1,1.8.8,2.1,2.1,0,0,1,.9,1.4,19,19,0,0,1-.8,4.3c1.1-1.8,2-3.3,2.9-4.5S193.1,94.4,193.7,94.4Z"/><path d="M217.1,101.1a6.1,6.1,0,0,1-3.4,1,10.9,10.9,0,0,1-2.8-.3,3.4,3.4,0,0,0-.2,1.4c0,.4,0,.7.2.9s.5.3,1.1.3a9.3,9.3,0,0,0,3.1-.4l1.4-.3c.7,0,1,.2,1,.7s-.5,1.2-1.6,1.8a6.8,6.8,0,0,1-3.6.8,4.2,4.2,0,0,1-3.3-1.3,3.9,3.9,0,0,1-1.3-3,7.5,7.5,0,0,1,1.1-3.7,9.3,9.3,0,0,1,2.6-3.3,4.5,4.5,0,0,1,3.1-1.3,4,4,0,0,1,2.9,1.5,5.2,5.2,0,0,1,1.3,3.1C218.7,99.8,218.1,100.5,217.1,101.1Zm-1.8-3.2a1.4,1.4,0,0,0-.9-.5,1.9,1.9,0,0,0-1.2.7,7,7,0,0,0-1.3,1.6h.6q3.3,0,3.3-1.2C215.8,98.4,215.7,98.2,215.3,97.9Z"/><path d="M224.6,88.6a2.9,2.9,0,0,1,1,2.1c0,.6-.1,1.8-.3,3.5s-.4,3-.6,4c-1.4,5.9-2.3,8.8-2.9,8.8a2.4,2.4,0,0,1-1.3-.8,2.8,2.8,0,0,1-.8-1.5l.6-2.5c.5-1.7.9-3.8,1.4-6.4a52.3,52.3,0,0,0,.7-7.5c0-.5.2-.8.7-.8S224,87.9,224.6,88.6Z"/><path d="M48.7,116.1c.4,0,.9.4,1.5,1.1a2.9,2.9,0,0,1,1,2,29.8,29.8,0,0,1-.9,3.8c-.5,2.3-.9,3.7-1,4.2-1.3,5.6-2.3,8.4-2.9,8.4a1.7,1.7,0,0,1-1.1-.6,1.9,1.9,0,0,1-.7-1.2c0-.1.1-.1.1-.2-1.7,1.3-2.8,2-3.5,2a2.9,2.9,0,0,1-2.1-1.1,3.3,3.3,0,0,1-1-2.1,8.8,8.8,0,0,1,.3-2.1,9.6,9.6,0,0,1,.8-2.4,13.4,13.4,0,0,1,1.2-2.4,7.3,7.3,0,0,1,1.7-1.8,3.1,3.1,0,0,1,2-.7,2.9,2.9,0,0,1,2.6,1.6,42.4,42.4,0,0,0,1.3-7.8A.6.6,0,0,1,48.7,116.1Zm-7.2,16.4a4.4,4.4,0,0,0,2-1.1,6.2,6.2,0,0,0,2.2-2.6v-.9a2.1,2.1,0,0,0-.5-1.2c-.3-.4-.5-.6-.8-.6a1.7,1.7,0,0,0-1.4.8,5.2,5.2,0,0,0-1,1.8,10.5,10.5,0,0,0-.9,3.5c0,.1,0,.2.1.2Z"/><path d="M60.8,129.7a7,7,0,0,1-3.4,1,10.9,10.9,0,0,1-2.8-.3,6.9,6.9,0,0,0-.2,1.3,2.2,2.2,0,0,0,.2,1,1.4,1.4,0,0,0,1.1.3,10.4,10.4,0,0,0,3.2-.4l1.3-.3c.7,0,1,.2,1,.6s-.5,1.3-1.6,1.9a8,8,0,0,1-3.6.8,4.4,4.4,0,0,1-4.6-4.4,8.2,8.2,0,0,1,1.1-3.7,10.2,10.2,0,0,1,2.6-3.2,4.7,4.7,0,0,1,3.1-1.3,4,4,0,0,1,2.9,1.5,4.5,4.5,0,0,1,1.3,3.1C62.4,128.4,61.9,129.1,60.8,129.7ZM59,126.4a1.2,1.2,0,0,0-.9-.4,2.2,2.2,0,0,0-1.2.6,7.6,7.6,0,0,0-1.3,1.7h.6c2.2,0,3.4-.4,3.4-1.1S59.4,126.8,59,126.4Z"/><path d="M71.2,123a2.6,2.6,0,0,1,1.8,1.1,3.2,3.2,0,0,1,.9,2c0,.4-.1.6-.5.6l-.8-.3-1.2-.2a4.9,4.9,0,0,0-1.7.4c-.7.3-1.1.6-1.1,1s.2.4.7.7l1.4,1a6.1,6.1,0,0,1,1.5,1.3,3.5,3.5,0,0,1,.6,1.9,2.9,2.9,0,0,1-1.4,2.1,6.7,6.7,0,0,1-6.9.1c-1-.6-1.5-1.2-1.5-1.9s.3-.9.8-.9l.8.2a5.6,5.6,0,0,0,3,.7c1.2,0,1.9-.1,1.9-.4s-.3-.7-.7-1.1l-1.6-1.2a7.9,7.9,0,0,1-1.5-1.2,2.6,2.6,0,0,1-.7-1.5c0-.9.8-1.8,2.4-2.8A7.5,7.5,0,0,1,71.2,123Z"/><path d="M85.2,128.7a1,1,0,0,1,.5.7,6.6,6.6,0,0,1-.3,1.3,8.5,8.5,0,0,0-.4,1.5,6.4,6.4,0,0,1-.2.9.7.7,0,0,1-.1.5v.5a.6.6,0,0,0-.1.4c-.1.1-.1.2-.1.4l-.2.3c0,.1-.1.1-.1.2l-.5.2c-.3,0-.5-.2-.9-.7a3.9,3.9,0,0,1-.7-1.6c-1.6,1.5-2.9,2.3-3.9,2.3a3.5,3.5,0,0,1-2.3-1.2,3.1,3.1,0,0,1-1.2-2.3,7,7,0,0,1,1.1-3.3,15.2,15.2,0,0,1,2.8-4,5.2,5.2,0,0,1,3.6-1.8,3.9,3.9,0,0,1,2.4,1.2,3.3,3.3,0,0,1,1.4,2.2A5.3,5.3,0,0,1,85.2,128.7Zm-7.1,3.8a4.5,4.5,0,0,0,2.6-1.3,5.2,5.2,0,0,0,2-3.4c0-.2.2-.3.4-.3s-.2-1.4-.4-1.4a3.1,3.1,0,0,0-2.2,1.3,10.5,10.5,0,0,0-2,2.7,5.1,5.1,0,0,0-.8,2.1c0,.1.1.2.1.3Z"/><path d="M88.7,127.1l-.2-2.8c0-.9.3-1.3.9-1.3a1.6,1.6,0,0,1,.9.3,2.5,2.5,0,0,1,.8,1.2,5.7,5.7,0,0,1,1.8-1.2,4.1,4.1,0,0,1,1.7-.5q1.8,0,1.8.9a1.5,1.5,0,0,1-.1.7l-.3.3-.3.2-.3.3-.8.5a7.4,7.4,0,0,0-1.9,1.6,8.5,8.5,0,0,0-1.2,2.7,22.6,22.6,0,0,1-1.2,4.2c-.5.9-.9,1.4-1.4,1.4a1.5,1.5,0,0,1-1.2-.7,4.3,4.3,0,0,1-.4-1.4,7.1,7.1,0,0,1,.5-2,13.6,13.6,0,0,0,.7-2.2A15,15,0,0,0,88.7,127.1Z"/><path d="M97.5,127.1v-2.8c0-.9.3-1.3.8-1.3a1.7,1.7,0,0,1,1,.3,2.4,2.4,0,0,1,.7,1.2,7.6,7.6,0,0,1,1.9-1.2,4.1,4.1,0,0,1,1.7-.5q1.8,0,1.8.9a1.4,1.4,0,0,1-.2.7c-.1.1-.2.2-.2.3l-.3.2c-.1.1-.3.2-.3.3l-.8.5a6,6,0,0,0-1.9,1.6,8.5,8.5,0,0,0-1.2,2.7,21.3,21.3,0,0,1-1.3,4.2c-.4.9-.9,1.4-1.4,1.4a1.2,1.2,0,0,1-1.1-.7,2.7,2.7,0,0,1-.4-1.4,7.1,7.1,0,0,1,.5-2,12.3,12.3,0,0,0,.6-2.2A7.8,7.8,0,0,0,97.5,127.1Z"/><path d="M106.8,125.7c1.3-1.8,2.5-2.8,3.8-2.8a4.1,4.1,0,0,1,3.1,1.4,4,4,0,0,1,1.3,3.1,9.2,9.2,0,0,1-.9,3.8,7.6,7.6,0,0,1-2.5,3.1,5,5,0,0,1-3.4,1.3,2.9,2.9,0,0,1-2.3-1.2,4.3,4.3,0,0,1-1-2.9A10.5,10.5,0,0,1,106.8,125.7Zm4,5a6.5,6.5,0,0,0,1-3.3,3.7,3.7,0,0,0-.5-2.2,6.5,6.5,0,0,0-2.1,2.6,7.5,7.5,0,0,0-1,3.4,3.6,3.6,0,0,0,.3,1.9A5.4,5.4,0,0,0,110.8,130.7Z"/><path d="M121.2,117.2a3.2,3.2,0,0,1,.9,2,32.3,32.3,0,0,1-.3,3.5c-.2,1.7-.4,3-.6,4-1.3,6-2.3,8.9-2.8,8.9s-.8-.3-1.4-.9a2.3,2.3,0,0,1-.8-1.4s.3-.9.7-2.5.9-3.8,1.3-6.5a39.5,39.5,0,0,0,.7-7.5.7.7,0,0,1,.8-.7C120.1,116.1,120.6,116.5,121.2,117.2Z"/><path d="M127.7,117.2a3.2,3.2,0,0,1,.9,2,32.3,32.3,0,0,1-.3,3.5c-.2,1.7-.4,3-.6,4-1.3,6-2.3,8.9-2.8,8.9s-.8-.3-1.4-.9a2.1,2.1,0,0,1-.7-1.4l.6-2.5a49.3,49.3,0,0,0,1.3-6.5,39.5,39.5,0,0,0,.7-7.5.7.7,0,0,1,.8-.7C126.6,116.1,127.1,116.5,127.7,117.2Z"/><path d="M131,125.7c1.3-1.8,2.5-2.8,3.8-2.8a4.1,4.1,0,0,1,3.1,1.4,4,4,0,0,1,1.3,3.1,9.2,9.2,0,0,1-.9,3.8,7.6,7.6,0,0,1-2.5,3.1,5,5,0,0,1-3.4,1.3,2.9,2.9,0,0,1-2.3-1.2,4.3,4.3,0,0,1-1-2.9A10.5,10.5,0,0,1,131,125.7Zm4,5a7.7,7.7,0,0,0,1-3.3,3.7,3.7,0,0,0-.5-2.2,6.5,6.5,0,0,0-2.1,2.6,7.5,7.5,0,0,0-1,3.4,3.6,3.6,0,0,0,.3,1.9A5.4,5.4,0,0,0,135,130.7Z"/><path d="M155.6,127.7c-.2.8-.6,1.8-.9,3l-.6,1.9h.4l2-.5,1.7-.6c.4,0,.7.3.7.9s-.6,1.2-1.7,1.9a5.6,5.6,0,0,1-3.4,1.2,3.7,3.7,0,0,1-1.9-.8,2.6,2.6,0,0,1-1.1-1.8,15.1,15.1,0,0,1,.8-3.1l1-3.2a4.2,4.2,0,0,1-1.4.2,1.5,1.5,0,0,1-1.1-.6,2.7,2.7,0,0,1-.5-1.3c0-.5,1.3-1,3.8-1.3a22.8,22.8,0,0,0,.5-4c0-.5.2-.7.7-.7a2.4,2.4,0,0,1,1.6.8,1.9,1.9,0,0,1,1,1.5,10.4,10.4,0,0,1-.3,2.1h1.8c1.2,0,1.8.3,1.8.8s-.3.7-1,1l-3.3.8A18.4,18.4,0,0,1,155.6,127.7Z"/><path d="M170.2,129.7a7,7,0,0,1-3.3,1,10.4,10.4,0,0,1-2.8-.3,3.5,3.5,0,0,0-.3,1.3,1.3,1.3,0,0,0,.3,1c.1.2.5.3,1.1.3a9.7,9.7,0,0,0,3.1-.4l1.4-.3c.6,0,1,.2,1,.6s-.5,1.3-1.6,1.9a8.6,8.6,0,0,1-3.6.8,4.5,4.5,0,0,1-3.4-1.3,4.5,4.5,0,0,1-1.2-3.1,7.9,7.9,0,0,1,1-3.7,11.8,11.8,0,0,1,2.6-3.2,4.9,4.9,0,0,1,3.2-1.3,3.6,3.6,0,0,1,2.8,1.5,4.6,4.6,0,0,1,1.4,3.1C171.9,128.4,171.3,129.1,170.2,129.7Zm-1.7-3.3a1.4,1.4,0,0,0-1-.4,1.7,1.7,0,0,0-1.1.6,7.9,7.9,0,0,0-1.4,1.7h.7c2.2,0,3.3-.4,3.3-1.1S168.8,126.8,168.5,126.4Z"/><path d="M174.2,127.1l-.2-2.8c0-.9.3-1.3.9-1.3l1,.3a3.5,3.5,0,0,1,.7,1.2,5.7,5.7,0,0,1,1.8-1.2,4.9,4.9,0,0,1,1.8-.5c1.2,0,1.7.3,1.7.9a1.5,1.5,0,0,1-.1.7l-.3.3-.2.2-.4.3-.8.5a6.9,6.9,0,0,0-1.8,1.6,5.6,5.6,0,0,0-1.2,2.7,31.3,31.3,0,0,1-1.3,4.2c-.4.9-.9,1.4-1.4,1.4a1.5,1.5,0,0,1-1.2-.7,3.9,3.9,0,0,1-.3-1.4,6.3,6.3,0,0,1,.4-2,7.9,7.9,0,0,0,.7-2.2A15,15,0,0,0,174.2,127.1Z"/><path d="M183,127.1v-2.8c0-.9.3-1.3.9-1.3a1.6,1.6,0,0,1,.9.3,3.6,3.6,0,0,1,.8,1.2,5.7,5.7,0,0,1,1.8-1.2,4.1,4.1,0,0,1,1.7-.5q1.8,0,1.8.9a1.5,1.5,0,0,1-.1.7c-.2.1-.2.2-.3.3l-.3.2-.3.3-.8.5a7.4,7.4,0,0,0-1.9,1.6,8.5,8.5,0,0,0-1.2,2.7,22.6,22.6,0,0,1-1.2,4.2c-.5.9-.9,1.4-1.4,1.4a1.4,1.4,0,0,1-1.2-.7,4.3,4.3,0,0,1-.4-1.4,7.1,7.1,0,0,1,.5-2c.3-.8.5-1.6.7-2.2A15.5,15.5,0,0,0,183,127.1Z"/><path d="M193.3,123a1.9,1.9,0,0,1,1.6,1,3.2,3.2,0,0,1,.6,1.8,16.3,16.3,0,0,1-.8,3.4c-.6,1.9-1.1,3.7-1.7,5.4a1.2,1.2,0,0,1-1.2,1,1.1,1.1,0,0,1-.9-.4,1.4,1.4,0,0,1-.4-1.1,20.8,20.8,0,0,1,.6-3.2c.4-1.7.7-3.2,1-4.4a19.1,19.1,0,0,1,.6-2.7C192.9,123.3,193.1,123,193.3,123Zm-.3-3.1a2.4,2.4,0,0,1,.5-1.3,1.9,1.9,0,0,1,1.2-.7c.3,0,.8.5,1.3,1.3a4.7,4.7,0,0,1,.7,2,1,1,0,0,1-.4.9,1.1,1.1,0,0,1-.8.3,3.4,3.4,0,0,1-2.5-2.5Z"/><path d="M202.7,127.7c-.2.8-.6,1.8-.9,3l-.6,1.9h.4l2-.5,1.7-.6c.4,0,.7.3.7.9s-.6,1.2-1.7,1.9a5.6,5.6,0,0,1-3.4,1.2,3.7,3.7,0,0,1-1.9-.8,2.6,2.6,0,0,1-1.1-1.8,15.1,15.1,0,0,1,.8-3.1l1-3.2a4.2,4.2,0,0,1-1.4.2,1.5,1.5,0,0,1-1.1-.6,2.7,2.7,0,0,1-.5-1.3c0-.5,1.3-1,3.8-1.3a22.8,22.8,0,0,0,.5-4c0-.5.2-.7.7-.7a2.4,2.4,0,0,1,1.6.8,1.9,1.9,0,0,1,1,1.5,10.4,10.4,0,0,1-.3,2.1h1.8c1.2,0,1.8.3,1.8.8s-.3.7-1,1l-3.3.8Z"/><path d="M209.8,125.7c1.2-1.8,2.5-2.8,3.7-2.8a4.4,4.4,0,0,1,4.4,4.5,9.2,9.2,0,0,1-.9,3.8,7.4,7.4,0,0,1-2.4,3.1,5.2,5.2,0,0,1-3.4,1.3,3.1,3.1,0,0,1-2.4-1.2,4.8,4.8,0,0,1-.9-2.9A9.8,9.8,0,0,1,209.8,125.7Zm3.9,5a6.5,6.5,0,0,0,1-3.3,3.9,3.9,0,0,0-.4-2.2,6.5,6.5,0,0,0-2.1,2.6,7.8,7.8,0,0,0-1.1,3.4,3.6,3.6,0,0,0,.3,1.9A4.9,4.9,0,0,0,213.7,130.7Z"/><path d="M220.5,127.1v-2.8c0-.9.2-1.3.8-1.3a1.9,1.9,0,0,1,1,.3,3.5,3.5,0,0,1,.7,1.2,9.4,9.4,0,0,1,1.8-1.2,4.9,4.9,0,0,1,1.8-.5q1.8,0,1.8.9a1.4,1.4,0,0,1-.2.7c-.1.1-.2.2-.2.3l-.3.2q-.3.1-.3.3l-.8.5a6,6,0,0,0-1.9,1.6,5.6,5.6,0,0,0-1.2,2.7,31.3,31.3,0,0,1-1.3,4.2c-.4.9-.9,1.4-1.4,1.4a1.2,1.2,0,0,1-1.1-.7,2.7,2.7,0,0,1-.4-1.4,4.8,4.8,0,0,1,.5-2,12.3,12.3,0,0,0,.6-2.2A15,15,0,0,0,220.5,127.1Z"/><path d="M230.8,123a1.7,1.7,0,0,1,1.5,1,2.7,2.7,0,0,1,.7,1.8,21,21,0,0,1-.9,3.4c-.5,1.9-1.1,3.7-1.6,5.4a1.2,1.2,0,0,1-1.2,1,1.3,1.3,0,0,1-1-.4,1.8,1.8,0,0,1-.4-1.1,20.8,20.8,0,0,1,.6-3.2,37.1,37.1,0,0,0,1-4.4,19.1,19.1,0,0,1,.6-2.7C230.3,123.3,230.5,123,230.8,123Zm-.4-3.1a1.9,1.9,0,0,1,.6-1.3,2,2,0,0,1,1.1-.7c.4,0,.8.5,1.3,1.3a5.3,5.3,0,0,1,.8,2,1,1,0,0,1-.4.9,1.3,1.3,0,0,1-.8.3,2.8,2.8,0,0,1-1.7-.9A2.6,2.6,0,0,1,230.4,119.9Z"/><path d="M244.8,128.7a.9.9,0,0,1,.4.7,6.6,6.6,0,0,1-.3,1.3l-.4,1.5c0,.4-.1.7-.1.9a1.1,1.1,0,0,0-.1.5,1.1,1.1,0,0,1-.1.5v.4a.8.8,0,0,1-.1.4v.3l-.2.2a.6.6,0,0,1-.5.2c-.2,0-.5-.2-.8-.7a4,4,0,0,1-.8-1.6c-1.5,1.5-2.8,2.3-3.8,2.3a3.5,3.5,0,0,1-2.3-1.2,3.1,3.1,0,0,1-1.2-2.3,7.9,7.9,0,0,1,1-3.3,15.7,15.7,0,0,1,2.9-4,5.2,5.2,0,0,1,3.6-1.8,3.9,3.9,0,0,1,2.4,1.2,3.1,3.1,0,0,1,1.3,2.2A4.9,4.9,0,0,1,244.8,128.7Zm-7.1,3.8a4.7,4.7,0,0,0,2.6-1.3,5.7,5.7,0,0,0,2-3.4c0-.2.2-.3.4-.3s-.2-1.4-.5-1.4a3.1,3.1,0,0,0-2.1,1.3,8.6,8.6,0,0,0-2,2.7,5.1,5.1,0,0,0-.8,2.1.4.4,0,0,0,.1.3Z"/><path d="M251.8,117.2a2.9,2.9,0,0,1,1,2,32.3,32.3,0,0,1-.3,3.5c-.2,1.7-.4,3-.6,4-1.4,6-2.3,8.9-2.9,8.9a2.1,2.1,0,0,1-1.3-.9,2.3,2.3,0,0,1-.8-1.4s.2-.9.7-2.5.8-3.8,1.3-6.5a49.9,49.9,0,0,0,.7-7.5.6.6,0,0,1,.7-.7C250.7,116.1,251.2,116.5,251.8,117.2Z"/><path d="M258.2,135.4a6.9,6.9,0,0,1-1.5,4c-1,1.3-1.9,2-2.7,2s-.7-.2-.7-.5a1.7,1.7,0,0,1,.5-1,6.5,6.5,0,0,0,1.5-3.3,1.2,1.2,0,0,0-.4-.9l-.9-.7a.8.8,0,0,1-.4-.7,1.9,1.9,0,0,1,.7-1.2,2.6,2.6,0,0,1,1.5-.7,1.9,1.9,0,0,1,1.6,1A3.2,3.2,0,0,1,258.2,135.4Z"/><path d="M104.9,158.3a6.8,6.8,0,0,1-3.3.9,11,11,0,0,1-2.8-.2,3.1,3.1,0,0,0-.3,1.3,1.3,1.3,0,0,0,.3,1,2,2,0,0,0,1.1.2,14.2,14.2,0,0,0,3.1-.3l1.4-.3c.6,0,1,.2,1,.6s-.6,1.3-1.6,1.8a7.5,7.5,0,0,1-3.7.9,4.3,4.3,0,0,1-4.5-4.4,7.6,7.6,0,0,1,1-3.7,10.4,10.4,0,0,1,2.6-3.2,5,5,0,0,1,3.1-1.4,3.9,3.9,0,0,1,2.9,1.6,4.4,4.4,0,0,1,1.3,3C106.5,156.9,106,157.6,104.9,158.3Zm-1.7-3.3a1.6,1.6,0,0,0-1-.4,1.7,1.7,0,0,0-1.1.6,6.1,6.1,0,0,0-1.4,1.7h.6c2.3,0,3.4-.4,3.4-1.2A1.8,1.8,0,0,0,103.2,155Z"/><path d="M112.5,145.8a3.2,3.2,0,0,1,.9,2,34.5,34.5,0,0,1-.3,3.5c-.2,1.7-.4,3-.6,4-1.3,5.9-2.3,8.9-2.8,8.9s-.8-.3-1.4-.9-.8-1-.8-1.4.3-.9.7-2.6.9-3.8,1.3-6.4a39.5,39.5,0,0,0,.7-7.5c0-.5.3-.7.8-.7S111.9,145,112.5,145.8Z"/><path d="M132.4,151.6c.6,0,1.2.5,1.9,1.6a5.7,5.7,0,0,1,1,3.2,4,4,0,0,1-.8,2.3,10,10,0,0,1-2.1,2.6,12.4,12.4,0,0,1-2.9,2,6.2,6.2,0,0,1-3.1.8h-.3c-1.1,4.3-1.8,6.5-2.2,6.5s-.7-.3-1.1-.9a3,3,0,0,1-.6-1.4c0-.4.3-1.6.7-3.5a59.5,59.5,0,0,0,2.1-12.9.6.6,0,0,1,.7-.7,2.9,2.9,0,0,1,1.5.6,3.3,3.3,0,0,1,1.2,1.7A5.9,5.9,0,0,1,132.4,151.6Zm-2,7.5a4.3,4.3,0,0,0,1.7-3c0-.8-.2-1.3-.7-1.3a3.3,3.3,0,0,0-2.2,1.2,10.4,10.4,0,0,0-1,1.4,12.2,12.2,0,0,0-1,2.3l-.4,1.5A6.2,6.2,0,0,0,130.4,159.1Z"/><path d="M138,155.7l-.2-2.8c0-.9.3-1.4.9-1.4a2.6,2.6,0,0,1,1,.4,2.7,2.7,0,0,1,.7,1.2,7.1,7.1,0,0,1,1.8-1.2,4.9,4.9,0,0,1,1.8-.5q1.8,0,1.8.9a.8.8,0,0,1-.2.6l-.2.3-.3.3-.3.2-.9.5a7.3,7.3,0,0,0-1.8,1.7,4.8,4.8,0,0,0-1.2,2.7,31.3,31.3,0,0,1-1.3,4.2c-.4.9-.9,1.4-1.4,1.4a1.4,1.4,0,0,1-1.2-.8,3.5,3.5,0,0,1-.3-1.4,6.3,6.3,0,0,1,.4-1.9,9,9,0,0,0,.7-2.2A15,15,0,0,0,138,155.7Z"/><path d="M147.3,154.3c1.3-1.9,2.5-2.8,3.7-2.8a4.6,4.6,0,0,1,3.2,1.3,4.8,4.8,0,0,1,1.3,3.2,9.2,9.2,0,0,1-.9,3.8,8.4,8.4,0,0,1-2.5,3.1,5.2,5.2,0,0,1-3.4,1.3,2.8,2.8,0,0,1-2.3-1.2,4.3,4.3,0,0,1-1-2.9A9.6,9.6,0,0,1,147.3,154.3Zm4,5a7.5,7.5,0,0,0,.9-3.3,3.9,3.9,0,0,0-.4-2.2,6.5,6.5,0,0,0-2.1,2.6,7.2,7.2,0,0,0-1,3.4,3.8,3.8,0,0,0,.3,1.9A5.9,5.9,0,0,0,151.3,159.3Z"/><path d="M166.4,156.8a1.7,1.7,0,0,1,.3,1,2.6,2.6,0,0,1-.5,1.5,22.8,22.8,0,0,0-1,3.6c-.4,1.5-.7,2.7-1,3.5s-.6,1.6-.9,2.3a5.4,5.4,0,0,1-1.5,1.5,3.7,3.7,0,0,1-2.1.6,4.1,4.1,0,0,1-2.9-1.1c-.9-.7-1.3-1.3-1.3-1.8a2.3,2.3,0,0,1,.4-1.4c.3-.4.6-.6.8-.6a.9.9,0,0,1,.7.4l.6.8.7.9a2,2,0,0,0,1.1.3,1.3,1.3,0,0,0,1-.7,7.7,7.7,0,0,0,.7-1.6c.4-1.3.7-2.3.8-2.8a7,7,0,0,1-2.7,1,2.9,2.9,0,0,1-2.1-1.2,3.2,3.2,0,0,1-.9-2.1,7.3,7.3,0,0,1,.5-2.6,20.2,20.2,0,0,1,1.4-3,11.3,11.3,0,0,1,2.2-2.7,4.5,4.5,0,0,1,2.7-1.1,3,3,0,0,1,1.6.5,2.7,2.7,0,0,1,.9,1.2,9.4,9.4,0,0,1,.5,3Zm-6.8,4c0,.2.1.3.2.3a4.2,4.2,0,0,0,2.3-1.3,7.3,7.3,0,0,0,2.2-2.6v-.4a4,4,0,0,0-.3-2h-.4c-.8,0-1.7.8-2.6,2.4A8.2,8.2,0,0,0,159.6,160.8Z"/><path d="M169.8,155.7v-2.8c0-.9.2-1.4.8-1.4a2.1,2.1,0,0,1,1,.4,2.7,2.7,0,0,1,.7,1.2l1.8-1.2a4.9,4.9,0,0,1,1.8-.5q1.8,0,1.8.9a.8.8,0,0,1-.2.6l-.2.3-.3.3-.3.2-.8.5a6.3,6.3,0,0,0-1.9,1.7,5.7,5.7,0,0,0-1.2,2.7,21.3,21.3,0,0,1-1.3,4.2c-.4.9-.9,1.4-1.4,1.4a1.2,1.2,0,0,1-1.1-.8,2.5,2.5,0,0,1-.4-1.4,4.8,4.8,0,0,1,.5-1.9,12.8,12.8,0,0,0,.8-4.4Z"/><path d="M186.7,158.3a6.9,6.9,0,0,1-3.4.9,11.4,11.4,0,0,1-2.8-.2,5.9,5.9,0,0,0-.2,1.3,2.2,2.2,0,0,0,.2,1,2.3,2.3,0,0,0,1.1.2,15.1,15.1,0,0,0,3.2-.3l1.3-.3c.7,0,1,.2,1,.6s-.5,1.3-1.6,1.8a6.9,6.9,0,0,1-3.6.9,4.4,4.4,0,0,1-4.6-4.4,7.8,7.8,0,0,1,1.1-3.7,9.2,9.2,0,0,1,2.6-3.2,4.8,4.8,0,0,1,3.1-1.4,4.1,4.1,0,0,1,2.9,1.6,4.4,4.4,0,0,1,1.3,3C188.3,156.9,187.8,157.6,186.7,158.3Zm-1.8-3.3a1.2,1.2,0,0,0-.9-.4,2.2,2.2,0,0,0-1.2.6,5.9,5.9,0,0,0-1.3,1.7h.6c2.2,0,3.4-.4,3.4-1.2A1.5,1.5,0,0,0,184.9,155Z"/><path d="M197.1,151.6a2.3,2.3,0,0,1,1.8,1.1,3.2,3.2,0,0,1,.9,2c0,.3-.1.5-.5.5a1.3,1.3,0,0,1-.8-.2l-1.2-.2a4.9,4.9,0,0,0-1.7.4c-.7.2-1.1.6-1.1,1s.2.4.7.7l1.4,1a5.8,5.8,0,0,1,1.5,1.3,3.3,3.3,0,0,1,.6,1.9q0,1.1-1.5,2.1a6.2,6.2,0,0,1-3.4,1,5.9,5.9,0,0,1-3.4-.9c-1-.6-1.5-1.2-1.5-1.9s.3-.9.8-.9a1.3,1.3,0,0,1,.8.2,5.6,5.6,0,0,0,3,.7c1.2,0,1.9-.1,1.9-.5a2,2,0,0,0-.7-1.1l-1.6-1.1a7.9,7.9,0,0,1-1.5-1.2,2.6,2.6,0,0,1-.7-1.5c0-.9.8-1.8,2.4-2.9A8.1,8.1,0,0,1,197.1,151.6Z"/><path d="M202.5,154.3c1.3-1.9,2.5-2.8,3.7-2.8a4.6,4.6,0,0,1,3.2,1.3,4.8,4.8,0,0,1,1.3,3.2,9.2,9.2,0,0,1-.9,3.8,8.4,8.4,0,0,1-2.5,3.1,5.2,5.2,0,0,1-3.4,1.3,2.8,2.8,0,0,1-2.3-1.2,4.3,4.3,0,0,1-1-2.9A9.6,9.6,0,0,1,202.5,154.3Zm4,5a7.5,7.5,0,0,0,.9-3.3,3.9,3.9,0,0,0-.4-2.2,6.5,6.5,0,0,0-2.1,2.6,7.2,7.2,0,0,0-1,3.4,3.8,3.8,0,0,0,.3,1.9A5.9,5.9,0,0,0,206.5,159.3Z"/><path d="M67.7,180.1a1.7,1.7,0,0,1,1.5,1,3.2,3.2,0,0,1,.7,1.9,30.5,30.5,0,0,1-.8,3.3l-1.7,5.5a1.2,1.2,0,0,1-1.2.9,1.3,1.3,0,0,1-1-.4,1.5,1.5,0,0,1-.4-1,15.7,15.7,0,0,1,.7-3.3c.4-1.7.7-3.1.9-4.4A14.6,14.6,0,0,1,67,181C67.2,180.4,67.4,180.1,67.7,180.1Zm-.4-3a2.2,2.2,0,0,1,.6-1.4,1.7,1.7,0,0,1,1.1-.6c.4,0,.8.4,1.3,1.3a3.8,3.8,0,0,1,.8,1.9,1,1,0,0,1-.4.9.9.9,0,0,1-.8.4c-.5,0-1-.4-1.6-1S67.3,177.5,67.3,177.1Z"/><path d="M80.3,180.1a2.9,2.9,0,0,1,2.3,1.2,3.6,3.6,0,0,1,.9,2.4,16.5,16.5,0,0,1-.6,4.3,15.1,15.1,0,0,1-1.5,3.5c-.5.9-1.1,1.3-1.6,1.3s-.9-.4-.9-1.2a13.3,13.3,0,0,1,.9-3.5,14.8,14.8,0,0,0,.6-3.2c0-.6-.1-1-.3-1a.7.7,0,0,0-.6.4l-.5.5-.5.6a4.3,4.3,0,0,1-.4.7l-.5.8-.4.8-.5.8c-1.5,2.8-2.7,4.3-3.5,4.3s-.8-.3-1.3-.9a2.4,2.4,0,0,1-.8-1.3,4.9,4.9,0,0,1,.3-1.2c.3-.6.4-1.1.6-1.4s.1-.6.2-1a4.3,4.3,0,0,0,.2-1.2,3.4,3.4,0,0,0,.1-.9c0-.3.1-.6.1-1.1a16.1,16.1,0,0,1,.4-3.5c.1-.3.2-.4.3-.4a2.5,2.5,0,0,1,1.8.8,2.1,2.1,0,0,1,.9,1.4,19.7,19.7,0,0,1-.8,4.4,47.9,47.9,0,0,1,2.9-4.6C79,180.7,79.7,180.1,80.3,180.1Z"/><path d="M92.7,180.1a2.6,2.6,0,0,1,1.8,1.1,3.5,3.5,0,0,1,.9,2c0,.4-.1.6-.5.6l-.8-.2a2.5,2.5,0,0,0-1.2-.2l-1.7.3c-.7.3-1.1.6-1.1,1.1s.2.4.7.7l1.4.9a9.6,9.6,0,0,1,1.5,1.4,3.3,3.3,0,0,1,.6,1.9c0,.7-.5,1.3-1.5,2a5.5,5.5,0,0,1-3.4,1.1,6.5,6.5,0,0,1-3.5-.9c-.9-.7-1.4-1.3-1.4-1.9s.3-1,.8-1l.8.3a5.6,5.6,0,0,0,3,.7c1.2,0,1.8-.2,1.8-.5a1.6,1.6,0,0,0-.7-1.1,5.8,5.8,0,0,0-1.5-1.1,8.7,8.7,0,0,1-1.5-1.3,1.9,1.9,0,0,1-.7-1.4c0-.9.8-1.9,2.4-2.9A8.5,8.5,0,0,1,92.7,180.1Z"/><path d="M102.1,184.9c-.3.8-.6,1.8-1,3s-.5,1.8-.5,1.9h.4l1.9-.6a6,6,0,0,1,1.8-.5c.4,0,.6.2.6.8s-.5,1.2-1.6,2a5.9,5.9,0,0,1-3.4,1.2,3,3,0,0,1-1.9-.9,2.6,2.6,0,0,1-1.1-1.7,13.7,13.7,0,0,1,.8-3.1l1-3.3-1.5.3c-.3,0-.6-.2-1-.7a1.8,1.8,0,0,1-.5-1.3c0-.5,1.2-.9,3.8-1.3a19.8,19.8,0,0,0,.4-3.9.7.7,0,0,1,.8-.8,3.3,3.3,0,0,1,1.6.8,2.2,2.2,0,0,1,1,1.5,10.4,10.4,0,0,1-.3,2.1h1.8c1.2,0,1.8.2,1.8.8s-.4.7-1.1.9a20.9,20.9,0,0,1-3.2.8A14.5,14.5,0,0,0,102.1,184.9Z"/><path d="M110.1,180.1a1.9,1.9,0,0,1,1.6,1,3.8,3.8,0,0,1,.6,1.9,30.5,30.5,0,0,1-.8,3.3c-.6,1.9-1.1,3.8-1.7,5.5a1.2,1.2,0,0,1-1.2.9,1,1,0,0,1-.9-.4,1.2,1.2,0,0,1-.4-1,21.2,21.2,0,0,1,.6-3.3c.4-1.7.7-3.1.9-4.4l.6-2.6C109.6,180.4,109.9,180.1,110.1,180.1Zm-.3-3a2,2,0,0,1,.5-1.4,1.7,1.7,0,0,1,1.2-.6c.3,0,.8.4,1.3,1.3a4.4,4.4,0,0,1,.7,1.9,1,1,0,0,1-.4.9.9.9,0,0,1-.8.4,2.9,2.9,0,0,1-1.6-1A2.5,2.5,0,0,1,109.8,177.1Z"/><path d="M119.5,184.9a28.2,28.2,0,0,0-.9,3c-.4,1.2-.6,1.8-.6,1.9h.4l1.9-.6a6,6,0,0,1,1.8-.5c.4,0,.6.2.6.8s-.5,1.2-1.6,2a5.6,5.6,0,0,1-3.4,1.2,3,3,0,0,1-1.9-.9,2.6,2.6,0,0,1-1.1-1.7,13.7,13.7,0,0,1,.8-3.1l1-3.3-1.5.3c-.3,0-.6-.2-1-.7a2.4,2.4,0,0,1-.5-1.3c0-.5,1.2-.9,3.8-1.3a19.8,19.8,0,0,0,.4-3.9.7.7,0,0,1,.8-.8,3.3,3.3,0,0,1,1.6.8,1.9,1.9,0,0,1,1,1.5,10.4,10.4,0,0,1-.3,2.1h1.8c1.2,0,1.8.2,1.8.8s-.4.7-1.1.9a20.9,20.9,0,0,1-3.2.8A14.5,14.5,0,0,0,119.5,184.9Z"/><path d="M133.4,180.7a.7.7,0,0,1,.7-.6c.4,0,.9.4,1.4,1a3.4,3.4,0,0,1,.8,1.8l-1.1,3.6c-.8,2.2-1.4,3.9-1.8,5.2s-.6,1.1-1.1,1.1a1.5,1.5,0,0,1-.9-.4,1.6,1.6,0,0,1-.3-1.1,12.2,12.2,0,0,1,.3-2.2c-1.7,2.5-3,3.7-4,3.7a3.2,3.2,0,0,1-1.9-1.1,2.7,2.7,0,0,1-1.1-1.9,17.6,17.6,0,0,1,1.3-6c.9-2.5,1.8-3.7,2.5-3.7a1.6,1.6,0,0,1,1.3.7,1.8,1.8,0,0,1,.6,1.4,6.2,6.2,0,0,1-.7,1.6q-1.8,4-1.8,5.7h.1c.3,0,.7-.3,1.4-1.1a23.5,23.5,0,0,0,4.3-7.8Z"/><path d="M136.7,188.9a7.7,7.7,0,0,1,1.1-3.8,11.7,11.7,0,0,1,2.8-3.5,5.2,5.2,0,0,1,3.4-1.5,2.4,2.4,0,0,1,1.8,1.2,3.2,3.2,0,0,1,.9,2,.5.5,0,0,1-.6.6l-.8-.3a2,2,0,0,0-1.1-.2,3.1,3.1,0,0,0-1.5.9,10.1,10.1,0,0,0-1.8,2.2,4,4,0,0,0-.7,2,1.3,1.3,0,0,0,.3,1,2.7,2.7,0,0,0,1.3.2l2-.2,1.3-.4a1.3,1.3,0,0,1,.8-.2c.5,0,.7.2.7.6s-.6,1.4-1.9,2.1a7.1,7.1,0,0,1-3.8,1.2,4.4,4.4,0,0,1-2.7-1.4A3.6,3.6,0,0,1,136.7,188.9Z"/><path d="M151.4,180.1a1.7,1.7,0,0,1,1.5,1,3.2,3.2,0,0,1,.7,1.9,30.5,30.5,0,0,1-.8,3.3c-.6,1.9-1.1,3.8-1.7,5.5a1.2,1.2,0,0,1-1.2.9,1,1,0,0,1-.9-.4,1.2,1.2,0,0,1-.4-1,21.2,21.2,0,0,1,.6-3.3c.4-1.7.7-3.1.9-4.4s.5-2.1.6-2.6S151.2,180.1,151.4,180.1Zm-.4-3a2.2,2.2,0,0,1,.6-1.4,1.7,1.7,0,0,1,1.2-.6c.3,0,.8.4,1.3,1.3a4.4,4.4,0,0,1,.7,1.9,1,1,0,0,1-.4.9.9.9,0,0,1-.8.4c-.5,0-1-.4-1.6-1S151,177.5,151,177.1Z"/><path d="M156.8,182.8c1.3-1.8,2.5-2.7,3.8-2.7a4.2,4.2,0,0,1,3.1,1.3,4.6,4.6,0,0,1,1.3,3.2,8.4,8.4,0,0,1-.9,3.7,8,8,0,0,1-2.5,3.2,5.8,5.8,0,0,1-3.4,1.3,2.8,2.8,0,0,1-2.3-1.2,4.4,4.4,0,0,1-1-3A10,10,0,0,1,156.8,182.8Zm4,5.1a7.7,7.7,0,0,0,1-3.4,3.6,3.6,0,0,0-.5-2.1,6.1,6.1,0,0,0-2.1,2.5,7.8,7.8,0,0,0-1,3.5,3.8,3.8,0,0,0,.3,1.9A5.4,5.4,0,0,0,160.8,187.9Z"/><path d="M175.2,180.1a2.8,2.8,0,0,1,2.2,1.2,3.3,3.3,0,0,1,1,2.4,13.3,13.3,0,0,1-.7,4.3,12,12,0,0,1-1.4,3.5c-.6.9-1.1,1.3-1.7,1.3s-.8-.4-.8-1.2a16.7,16.7,0,0,1,.8-3.5,14.8,14.8,0,0,0,.6-3.2c0-.6,0-1-.2-1a.7.7,0,0,0-.6.4l-.5.5-.5.6a4.3,4.3,0,0,1-.4.7l-.5.8-.4.8a5.6,5.6,0,0,0-.5.8c-1.5,2.8-2.7,4.3-3.6,4.3s-.7-.3-1.3-.9a2.7,2.7,0,0,1-.7-1.3,4.9,4.9,0,0,1,.3-1.2,8.2,8.2,0,0,0,.5-1.4l.3-1c.1-.4.1-.7.2-1.2s.1-.7.1-.9.1-.6.1-1.1a16.1,16.1,0,0,1,.4-3.5c.1-.3.2-.4.3-.4a2.9,2.9,0,0,1,1.8.8,2.1,2.1,0,0,1,.9,1.4,19.7,19.7,0,0,1-.8,4.4,33.9,33.9,0,0,1,2.9-4.6C173.9,180.7,174.6,180.1,175.2,180.1Z"/><path d="M190.2,185.8c.3.3.4.5.4.7a5.3,5.3,0,0,1-.3,1.3c-.2.7-.3,1.2-.4,1.6s-.1.6-.1.9a.9.9,0,0,0-.1.5c0,.1-.1.2-.1.4a.8.8,0,0,0-.1.4c0,.2-.1.3-.1.4a.5.5,0,0,0-.1.3l-.2.3-.5.2c-.2,0-.5-.3-.8-.7a4.5,4.5,0,0,1-.8-1.7q-2.2,2.4-3.9,2.4a4.7,4.7,0,0,1-3.5-3.5,9.2,9.2,0,0,1,1.1-3.4,13.2,13.2,0,0,1,2.9-3.9,5,5,0,0,1,3.6-1.9,5,5,0,0,1,3.7,3.4A4.6,4.6,0,0,1,190.2,185.8Zm-7.2,3.9a4.5,4.5,0,0,0,2.6-1.4,5.9,5.9,0,0,0,2.1-3.3c0-.2.1-.3.4-.4s-.2-1.4-.5-1.4a3.7,3.7,0,0,0-2.2,1.3,23.4,23.4,0,0,0-2,2.7,5.3,5.3,0,0,0-.7,2.2v.2Z"/><path d="M197.2,174.3a3.5,3.5,0,0,1,.9,2.1c0,.7-.1,1.8-.2,3.5a24.7,24.7,0,0,1-.7,4c-1.3,5.9-2.3,8.9-2.8,8.9s-.8-.3-1.3-.9a2.3,2.3,0,0,1-.8-1.4l.6-2.6c.5-1.7.9-3.8,1.4-6.4a49.3,49.3,0,0,0,.6-7.5c0-.5.3-.7.8-.7S196.6,173.6,197.2,174.3Z"/><path d="M217.3,180.7a.8.8,0,0,1,.8-.6c.5,0,.9.3,1.4.9a2.4,2.4,0,0,1,.7,1.8,8,8,0,0,1-.5,2c-.2.9-.5,1.5-.6,1.9l-.5,1.5L218,190l-.8,2.2-.9,2.5a9.8,9.8,0,0,1-1.8,3.4,3.6,3.6,0,0,1-2.8,1.2,5.4,5.4,0,0,1-3.1-.9c-1-.6-1.4-1.2-1.4-1.8a2.7,2.7,0,0,1,.5-1.3c.3-.5.6-.7.8-.7s.6.2,1,.6l1.2,1.1c.4.4.7.6,1,.6a.7.7,0,0,0,.6-.3l.3-.5.3-.6.3-.8a2.3,2.3,0,0,1,.3-.9,4.4,4.4,0,0,0,.2-1l.8-2.3a8.3,8.3,0,0,1-1.7,1.6,2.5,2.5,0,0,1-1.6.7,3,3,0,0,1-1.8-1.1,3.6,3.6,0,0,1-1-2.4,18.2,18.2,0,0,1,.5-3.5,20.8,20.8,0,0,1,1.5-4c.5-1.1,1-1.7,1.5-1.7a1.7,1.7,0,0,1,1.4.7,1.5,1.5,0,0,1,.7,1.2,4.9,4.9,0,0,1-.6,1.9l-1.2,2.9a8.3,8.3,0,0,0-.6,2.7h.1c.2,0,.7-.3,1.3-1.1a31.3,31.3,0,0,0,2.4-3.4A20.9,20.9,0,0,0,217.3,180.7Z"/><path d="M235.3,174.3a3.7,3.7,0,0,1,1,2.1,34.5,34.5,0,0,1-.3,3.5,24.7,24.7,0,0,1-.7,4c-1.3,5.9-2.3,8.9-2.8,8.9s-.8-.3-1.3-.9a2.3,2.3,0,0,1-.8-1.4l.6-2.6c.5-1.7.9-3.8,1.4-6.4a49.3,49.3,0,0,0,.6-7.5c0-.5.3-.7.8-.7S234.7,173.6,235.3,174.3Z"/><path d="M247.3,185.8c.3.3.4.5.4.7a5.3,5.3,0,0,1-.3,1.3c-.2.7-.3,1.2-.4,1.6s-.1.6-.1.9a.9.9,0,0,0-.1.5c0,.1-.1.2-.1.4s-.1.3-.1.4-.1.3-.1.4v.3l-.2.3-.5.2c-.2,0-.5-.3-.8-.7a4.5,4.5,0,0,1-.8-1.7q-2.2,2.4-3.9,2.4a3.3,3.3,0,0,1-2.2-1.2,3.7,3.7,0,0,1-1.3-2.3,9.2,9.2,0,0,1,1.1-3.4,15.2,15.2,0,0,1,2.9-3.9,5,5,0,0,1,3.6-1.9,3.9,3.9,0,0,1,2.4,1.2,3.3,3.3,0,0,1,1.3,2.2A4.6,4.6,0,0,1,247.3,185.8Zm-7.1,3.9a5.1,5.1,0,0,0,2.6-1.4,6.3,6.3,0,0,0,2-3.3c0-.2.1-.3.4-.4s-.2-1.4-.5-1.4a3.7,3.7,0,0,0-2.2,1.3,14.8,14.8,0,0,0-1.9,2.7,4.5,4.5,0,0,0-.8,2.2v.2Z"/><path d="M54.2,208.7a1.9,1.9,0,0,1,1.6,1,3.5,3.5,0,0,1,.6,1.9,16.1,16.1,0,0,1-.8,3.3c-.6,1.9-1.1,3.7-1.7,5.5a1.2,1.2,0,0,1-1.2.9,1.1,1.1,0,0,1-.9-.4,1.3,1.3,0,0,1-.4-1,19.4,19.4,0,0,1,.6-3.3c.4-1.7.7-3.2.9-4.4s.5-2.1.7-2.7S54,208.7,54.2,208.7Zm-.3-3.1a2.7,2.7,0,0,1,.5-1.3,1.9,1.9,0,0,1,1.2-.7c.3,0,.8.5,1.3,1.4a4.4,4.4,0,0,1,.7,1.9,1,1,0,0,1-.4.9,1.1,1.1,0,0,1-.8.3,2.6,2.6,0,0,1-1.6-.9A2.4,2.4,0,0,1,53.9,205.6Z"/><path d="M67.5,214a1.3,1.3,0,0,1,.4,1,3,3,0,0,1-.5,1.4,20.7,20.7,0,0,0-1.1,3.7,34.6,34.6,0,0,1-.9,3.5,11.2,11.2,0,0,1-1,2.2,5.2,5.2,0,0,1-1.4,1.6,3.7,3.7,0,0,1-2.1.6,4.4,4.4,0,0,1-2.9-1.1c-.9-.7-1.3-1.3-1.3-1.9a2.5,2.5,0,0,1,.4-1.4c.3-.4.5-.6.7-.6a1,1,0,0,1,.7.4,2.4,2.4,0,0,1,.6.9l.8.8a1.3,1.3,0,0,0,1,.4c.4,0,.7-.2,1.1-.7a11.1,11.1,0,0,0,.7-1.6,27.3,27.3,0,0,0,.7-2.9,5.3,5.3,0,0,1-2.7,1,2.4,2.4,0,0,1-2-1.1,3.3,3.3,0,0,1-1-2.2,7.4,7.4,0,0,1,.6-2.5,16.6,16.6,0,0,1,1.4-3.1,9.2,9.2,0,0,1,2.2-2.6,4.5,4.5,0,0,1,2.7-1.1,2.4,2.4,0,0,1,1.5.4,3,3,0,0,1,.9,1.3,6.5,6.5,0,0,1,.6,2.9C67.6,213.5,67.5,213.7,67.5,214Zm-6.8,3.9a.3.3,0,0,0,.3.3c.5,0,1.2-.4,2.3-1.3a5.8,5.8,0,0,0,2.1-2.5v-.5a3.6,3.6,0,0,0-.3-1.9l-.4-.2c-.7,0-1.6.8-2.6,2.5A8.8,8.8,0,0,0,60.7,217.9Z"/><path d="M78.2,209.3a.8.8,0,0,1,.8-.6c.4,0,.8.3,1.4,1a2.9,2.9,0,0,1,.7,1.7A21.4,21.4,0,0,1,80,215c-.7,2.3-1.3,4-1.7,5.3s-.7,1-1.2,1a1.1,1.1,0,0,1-.8-.3,1.8,1.8,0,0,1-.3-1.1,11.2,11.2,0,0,1,.3-2.2c-1.7,2.4-3.1,3.6-4.1,3.6a4.2,4.2,0,0,1-3-3,19.2,19.2,0,0,1,1.4-6c.9-2.4,1.7-3.6,2.5-3.6a1.8,1.8,0,0,1,1.3.6,2.7,2.7,0,0,1,.5,1.4,6.7,6.7,0,0,1-.6,1.7c-1.2,2.7-1.9,4.6-1.9,5.7h.2c.2,0,.7-.4,1.3-1.1a18,18,0,0,0,2.3-3.4A19.3,19.3,0,0,0,78.2,209.3Z"/><path d="M91.9,214.4a1,1,0,0,1,.5.7,6.6,6.6,0,0,1-.3,1.3,7.3,7.3,0,0,0-.4,1.6c-.1.3-.1.6-.2.8a.7.7,0,0,1-.1.5v.5a.8.8,0,0,0-.1.4c-.1.1-.1.2-.1.4l-.2.3v.2c-.1.2-.3.2-.5.2s-.5-.2-.9-.7a3.9,3.9,0,0,1-.7-1.6c-1.6,1.5-2.9,2.3-3.9,2.3a3.7,3.7,0,0,1-2.3-1.1,3.5,3.5,0,0,1-1.2-2.4,7.7,7.7,0,0,1,1.1-3.3,17.1,17.1,0,0,1,2.8-4,5.2,5.2,0,0,1,3.6-1.8,3.9,3.9,0,0,1,2.4,1.2,3.3,3.3,0,0,1,1.4,2.2A5.3,5.3,0,0,1,91.9,214.4Zm-7.1,3.8a4.5,4.5,0,0,0,2.6-1.3,5.2,5.2,0,0,0,2-3.4c0-.2.2-.3.4-.3s-.2-1.4-.4-1.4a3.1,3.1,0,0,0-2.2,1.3,10.5,10.5,0,0,0-2,2.7,6.3,6.3,0,0,0-.8,2.1c0,.2.1.2.1.3Z"/><path d="M99,202.9a3.2,3.2,0,0,1,.9,2.1c0,.6-.1,1.8-.3,3.5s-.4,3-.6,4c-1.3,5.9-2.3,8.8-2.8,8.8s-.8-.3-1.4-.8A2.8,2.8,0,0,1,94,219s.3-.9.7-2.5.9-3.8,1.3-6.4a41.3,41.3,0,0,0,.7-7.6.7.7,0,0,1,.8-.7C97.9,201.8,98.4,202.2,99,202.9Z"/><path d="M111,201.8c.4,0,.9.4,1.5,1.1a2.9,2.9,0,0,1,1,2,33.6,33.6,0,0,1-.9,3.9c-.5,2.2-.9,3.6-1,4.1-1.3,5.6-2.3,8.4-2.9,8.4a1.7,1.7,0,0,1-1.1-.6,1.9,1.9,0,0,1-.7-1.2v-.2c-1.7,1.4-2.8,2-3.5,2a2.6,2.6,0,0,1-2.1-1.1,3.3,3.3,0,0,1-1-2.1,7.5,7.5,0,0,1,.3-2,9,9,0,0,1,.8-2.5,10.1,10.1,0,0,1,1.2-2.3,6.3,6.3,0,0,1,1.7-1.9,3.1,3.1,0,0,1,2-.7,2.9,2.9,0,0,1,2.6,1.6,43.1,43.1,0,0,0,1.3-7.7C110.3,202.1,110.5,201.8,111,201.8Zm-7.2,16.4a4,4,0,0,0,2-1,6.4,6.4,0,0,0,2.2-2.7v-.9a2.1,2.1,0,0,0-.5-1.2c-.3-.4-.5-.6-.8-.6a2.1,2.1,0,0,0-1.4.8,6.8,6.8,0,0,0-1.1,1.9,12.2,12.2,0,0,0-.8,3.4.4.4,0,0,0,.1.3Z"/><path d="M124.1,214.4a1,1,0,0,1,.5.7,6.6,6.6,0,0,1-.3,1.3c-.2.7-.3,1.2-.4,1.6s-.1.6-.2.8a.7.7,0,0,1-.1.5v.5a.8.8,0,0,0-.1.4c-.1.1-.1.2-.1.4l-.2.3v.2c-.1.2-.3.2-.5.2s-.5-.2-.9-.7a3.9,3.9,0,0,1-.7-1.6c-1.6,1.5-2.8,2.3-3.9,2.3a3.7,3.7,0,0,1-2.3-1.1,3.5,3.5,0,0,1-1.2-2.4,9.5,9.5,0,0,1,1.1-3.3,17.1,17.1,0,0,1,2.8-4,5.6,5.6,0,0,1,3.6-1.8,3.9,3.9,0,0,1,2.4,1.2,3.3,3.3,0,0,1,1.4,2.2A5.3,5.3,0,0,1,124.1,214.4Zm-7.1,3.8a4.5,4.5,0,0,0,2.6-1.3,5.2,5.2,0,0,0,2-3.4.5.5,0,0,1,.5-.3c-.1-.9-.3-1.4-.5-1.4a3.1,3.1,0,0,0-2.2,1.3,10.5,10.5,0,0,0-2,2.7,6.3,6.3,0,0,0-.8,2.1c0,.2.1.2.1.3Z"/><path d="M136.7,201.8c.4,0,.9.4,1.5,1.1a2.9,2.9,0,0,1,1,2,33.6,33.6,0,0,1-.9,3.9c-.6,2.2-.9,3.6-1,4.1-1.3,5.6-2.3,8.4-2.9,8.4a1.7,1.7,0,0,1-1.1-.6,1.5,1.5,0,0,1-.7-1.2v-.2c-1.7,1.4-2.8,2-3.6,2a2.4,2.4,0,0,1-2-1.1,3.3,3.3,0,0,1-1-2.1,7.5,7.5,0,0,1,.3-2,13.6,13.6,0,0,1,.7-2.5,17.1,17.1,0,0,1,1.3-2.3,6.3,6.3,0,0,1,1.7-1.9,3.1,3.1,0,0,1,2-.7,2.9,2.9,0,0,1,2.6,1.6,43.1,43.1,0,0,0,1.3-7.7C136,202.1,136.2,201.8,136.7,201.8Zm-7.2,16.4a4.4,4.4,0,0,0,2-1,6.4,6.4,0,0,0,2.2-2.7v-.9a2.1,2.1,0,0,0-.5-1.2c-.3-.4-.5-.6-.8-.6a2.1,2.1,0,0,0-1.4.8,6.8,6.8,0,0,0-1.1,1.9,12.2,12.2,0,0,0-.8,3.4.4.4,0,0,0,.1.3Z"/><path d="M158,209.3a.8.8,0,0,1,.8-.6,2.3,2.3,0,0,1,1.4.8,3.3,3.3,0,0,1,.6,1.9,5.8,5.8,0,0,1-.4,1.9l-.6,1.9-.5,1.6a13.4,13.4,0,0,0-.7,1.8l-.7,2.1c-.3,1-.6,1.8-.9,2.6a9.8,9.8,0,0,1-1.8,3.4,3.8,3.8,0,0,1-2.9,1.2,5.6,5.6,0,0,1-3.1-.9,2.6,2.6,0,0,1-1.4-1.9,2.4,2.4,0,0,1,.5-1.2c.4-.5.7-.7.9-.7a1.4,1.4,0,0,1,.9.6l1.2,1.1a1.7,1.7,0,0,0,1.1.6.5.5,0,0,0,.5-.3l.4-.5.3-.7a1.9,1.9,0,0,1,.2-.7l.3-.9.3-1c.3-.9.5-1.7.7-2.4a8.8,8.8,0,0,1-1.6,1.7,2.9,2.9,0,0,1-1.6.6,2.6,2.6,0,0,1-1.8-1.1,3.4,3.4,0,0,1-1.1-2.4,14.9,14.9,0,0,1,.6-3.5,35.4,35.4,0,0,1,1.4-3.9c.6-1.1,1.1-1.7,1.5-1.7a2.2,2.2,0,0,1,1.5.6,2.4,2.4,0,0,1,.7,1.3,5.5,5.5,0,0,1-.6,1.9c-.4.9-.9,1.9-1.3,2.9a7.8,7.8,0,0,0-.6,2.7h.2c.2,0,.6-.4,1.3-1.2a20.5,20.5,0,0,0,2.3-3.3A24.1,24.1,0,0,0,158,209.3Z"/><path d="M180.4,215.4a6.1,6.1,0,0,1-3.4,1,10.9,10.9,0,0,1-2.8-.3,6.8,6.8,0,0,0-.2,1.4,2,2,0,0,0,.2.9c.1.2.5.3,1.1.3a9.3,9.3,0,0,0,3.1-.4l1.4-.3c.7,0,1,.2,1,.7s-.5,1.2-1.6,1.8a8,8,0,0,1-3.6.8,4.2,4.2,0,0,1-3.3-1.3,3.9,3.9,0,0,1-1.3-3,7.5,7.5,0,0,1,1.1-3.7,9.3,9.3,0,0,1,2.6-3.3,4.5,4.5,0,0,1,3.1-1.3,4,4,0,0,1,2.9,1.5,5.2,5.2,0,0,1,1.3,3.1C182,214.1,181.4,214.8,180.4,215.4Zm-1.8-3.2a1.4,1.4,0,0,0-.9-.5,1.9,1.9,0,0,0-1.2.7,5.3,5.3,0,0,0-1.3,1.6h.6q3.3,0,3.3-1.2C179.1,212.7,179,212.5,178.6,212.2Z"/><path d="M190.9,223.2a4.1,4.1,0,0,1,1.8-.5,1.2,1.2,0,0,1,.9.3,1.3,1.3,0,0,1,.3.7.8.8,0,0,1-.4.7l-1.2.9-1.8,1.2-1.4,1.1-1,.3c-.2,0-.5-.2-.8-.7a2,2,0,0,1-.5-1.3,33.5,33.5,0,0,1,1.9-5.5,4.5,4.5,0,0,1-2.4.9,3.1,3.1,0,0,1-2.1-1.2,3.5,3.5,0,0,1-1.2-2.2,7.8,7.8,0,0,1,.7-2.6,15.2,15.2,0,0,1,1.7-3,11.4,11.4,0,0,1,2.4-2.5,5,5,0,0,1,2.8-1.1,3.3,3.3,0,0,1,2.3,1.1A3.1,3.1,0,0,1,194,212c0,.5-.2.7-.6.7a2.9,2.9,0,0,1-1-.5l-1-.5A3.6,3.6,0,0,0,189,213a14.9,14.9,0,0,0-2.3,2.8,4.6,4.6,0,0,0-.8,2.1v.3h.4a4.4,4.4,0,0,0,2.6-1.4,6.1,6.1,0,0,0,2.1-3.4c0-.3.2-.4.6-.4a3.7,3.7,0,0,1,1.5.6c.7.5,1,.8,1,1.1a6.1,6.1,0,0,1-.5,1.5,27,27,0,0,1-1.3,3.3C191.8,221,191.3,222.2,190.9,223.2Z"/><path d="M204.3,209.3a.8.8,0,0,1,.8-.6c.3,0,.8.3,1.3,1a3.2,3.2,0,0,1,.8,1.7c0,.2-.4,1.4-1.1,3.6s-1.4,4-1.8,5.3-.6,1-1.1,1a1,1,0,0,1-.8-.3,1.4,1.4,0,0,1-.4-1.1,11.2,11.2,0,0,1,.3-2.2c-1.7,2.4-3,3.6-4,3.6a3.9,3.9,0,0,1-3-3,21.7,21.7,0,0,1,1.3-6c.9-2.4,1.8-3.6,2.6-3.6a1.7,1.7,0,0,1,1.2.6,2.2,2.2,0,0,1,.6,1.4,6.7,6.7,0,0,1-.6,1.7c-1.3,2.7-1.9,4.6-1.9,5.7h.1c.3,0,.7-.4,1.4-1.1a24.4,24.4,0,0,0,2.3-3.4A24.8,24.8,0,0,0,204.3,209.3Z"/><path d="M210.3,208.7a1.9,1.9,0,0,1,1.6,1,3.7,3.7,0,0,1,.7,1.9,21.3,21.3,0,0,1-.9,3.3c-.6,1.9-1.1,3.7-1.7,5.5a1.2,1.2,0,0,1-1.2.9,1.2,1.2,0,0,1-.9-.4,1.3,1.3,0,0,1-.4-1,19.4,19.4,0,0,1,.6-3.3c.4-1.7.7-3.2,1-4.4a19.1,19.1,0,0,1,.6-2.7C209.9,209,210.1,208.7,210.3,208.7Zm-.3-3.1a2.2,2.2,0,0,1,.6-1.3,1.5,1.5,0,0,1,1.1-.7c.3,0,.8.5,1.3,1.4a5.1,5.1,0,0,1,.8,1.9,1.3,1.3,0,0,1-.4.9l-.8.3a2.6,2.6,0,0,1-1.7-.9A2.4,2.4,0,0,1,210,205.6Z"/><path d="M224.4,201.8c.4,0,.9.4,1.5,1.1a2.9,2.9,0,0,1,1,2,33.6,33.6,0,0,1-.9,3.9c-.5,2.2-.9,3.6-1,4.1-1.3,5.6-2.2,8.4-2.8,8.4a2.1,2.1,0,0,1-1.8-1.8v-.2c-1.6,1.4-2.8,2-3.5,2a2.7,2.7,0,0,1-2.1-1.1,4,4,0,0,1-1-2.1,7.5,7.5,0,0,1,.3-2,14.4,14.4,0,0,1,.8-2.5,16.7,16.7,0,0,1,1.2-2.3,6.3,6.3,0,0,1,1.7-1.9,3.3,3.3,0,0,1,2.1-.7,2.8,2.8,0,0,1,2.5,1.6,43.1,43.1,0,0,0,1.3-7.7C223.7,202.1,223.9,201.8,224.4,201.8Zm-7.2,16.4a4.5,4.5,0,0,0,2.1-1,7.1,7.1,0,0,0,2.1-2.7v-.9a2.8,2.8,0,0,0-.4-1.2,1.2,1.2,0,0,0-.9-.6,2.3,2.3,0,0,0-1.4.8,4.9,4.9,0,0,0-1,1.9,10,10,0,0,0-.9,3.4v.3Z"/><path d="M237.6,214.4a.9.9,0,0,1,.4.7,6.6,6.6,0,0,1-.3,1.3l-.4,1.6a2.5,2.5,0,0,0-.1.8,1.1,1.1,0,0,0-.1.5c0,.2-.1.3-.1.5a.8.8,0,0,0-.1.4c0,.1-.1.2-.1.4a.4.4,0,0,0-.1.3l-.2.2c-.1.2-.3.2-.5.2s-.5-.2-.9-.7a5.9,5.9,0,0,1-.7-1.6c-1.5,1.5-2.8,2.3-3.9,2.3a3.5,3.5,0,0,1-2.2-1.1,3.2,3.2,0,0,1-1.3-2.4,9.5,9.5,0,0,1,1.1-3.3,15,15,0,0,1,2.9-4,5.2,5.2,0,0,1,3.6-1.8,3.7,3.7,0,0,1,2.3,1.2,3.3,3.3,0,0,1,1.4,2.2A6.5,6.5,0,0,1,237.6,214.4Zm-7.2,3.8a4.2,4.2,0,0,0,2.6-1.3,5.8,5.8,0,0,0,2.1-3.4c0-.2.1-.3.4-.3s-.2-1.4-.5-1.4a3.3,3.3,0,0,0-2.2,1.3,10.5,10.5,0,0,0-2,2.7,5.5,5.5,0,0,0-.7,2.1v.3Z"/><path d="M250.1,201.8c.4,0,.9.4,1.5,1.1a2.9,2.9,0,0,1,1,2,33.6,33.6,0,0,1-.9,3.9c-.5,2.2-.9,3.6-1,4.1-1.3,5.6-2.3,8.4-2.9,8.4a2.2,2.2,0,0,1-1.7-1.8v-.2c-1.7,1.4-2.8,2-3.5,2a2.7,2.7,0,0,1-2.1-1.1,3.3,3.3,0,0,1-1-2.1,7.5,7.5,0,0,1,.3-2,9,9,0,0,1,.8-2.5,10.1,10.1,0,0,1,1.2-2.3,6.3,6.3,0,0,1,1.7-1.9,3.2,3.2,0,0,1,2-.7,2.9,2.9,0,0,1,2.6,1.6,43.1,43.1,0,0,0,1.3-7.7C249.4,202.1,249.6,201.8,250.1,201.8Zm-7.2,16.4a4,4,0,0,0,2-1,6.4,6.4,0,0,0,2.2-2.7v-.9a2.1,2.1,0,0,0-.5-1.2.9.9,0,0,0-.8-.6,2.1,2.1,0,0,0-1.4.8,4.9,4.9,0,0,0-1,1.9,10,10,0,0,0-.9,3.4v.3Z"/><path d="M110.1,237.3c.6,0,1.2.5,1.9,1.6a6.2,6.2,0,0,1,1.1,3.2,4.5,4.5,0,0,1-.9,2.4,9.6,9.6,0,0,1-2.1,2.5,10,10,0,0,1-2.9,2,6.4,6.4,0,0,1-3.1.9h-.3c-1,4.2-1.8,6.4-2.2,6.4s-.7-.3-1.1-.9a2.7,2.7,0,0,1-.6-1.4,28.9,28.9,0,0,1,.8-3.5,59.5,59.5,0,0,0,2.1-12.9c0-.5.2-.7.7-.7a2.9,2.9,0,0,1,1.5.6,3.4,3.4,0,0,1,1.1,1.8A5.7,5.7,0,0,1,110.1,237.3Zm-1.9,7.5a4.7,4.7,0,0,0,1.7-3c0-.8-.3-1.2-.7-1.2a2.9,2.9,0,0,0-2.2,1.1,11.8,11.8,0,0,0-1.1,1.5,11.2,11.2,0,0,0-.9,2.2l-.5,1.5A6.7,6.7,0,0,0,108.2,244.8Z"/><path d="M124.8,243a.8.8,0,0,1,.4.7,6.6,6.6,0,0,1-.3,1.3l-.4,1.5c0,.4-.1.7-.1.9a1.1,1.1,0,0,0-.1.5,4.3,4.3,0,0,0-.1.5c0,.1-.1.3-.1.4s-.1.2-.1.4-.1.2-.1.3l-.2.2-.5.2c-.2,0-.5-.2-.8-.7a4,4,0,0,1-.8-1.6c-1.5,1.5-2.8,2.3-3.9,2.3a4.7,4.7,0,0,1-3.5-3.5,8.4,8.4,0,0,1,1.1-3.3,15.7,15.7,0,0,1,2.9-4,5.2,5.2,0,0,1,3.6-1.8,3.9,3.9,0,0,1,2.4,1.2,3.1,3.1,0,0,1,1.3,2.2A4.9,4.9,0,0,1,124.8,243Zm-7.1,3.8a4.7,4.7,0,0,0,2.6-1.3,6.2,6.2,0,0,0,2-3.4c0-.2.1-.3.4-.3s-.2-1.4-.5-1.4a3.3,3.3,0,0,0-2.2,1.3,10.1,10.1,0,0,0-1.9,2.7,4,4,0,0,0-.8,2.1v.3Z"/><path d="M128.2,241.4v-2.8c0-.9.2-1.3.8-1.3a1.9,1.9,0,0,1,1,.3,3.5,3.5,0,0,1,.7,1.2l1.8-1.2a4.9,4.9,0,0,1,1.8-.5q1.8,0,1.8.9a1.4,1.4,0,0,1-.2.7l-.2.3-.3.2-.3.2-.8.6a6,6,0,0,0-1.9,1.6,8.5,8.5,0,0,0-1.2,2.7,21.3,21.3,0,0,1-1.3,4.2c-.4.9-.9,1.4-1.4,1.4a1.2,1.2,0,0,1-1.1-.8,2.2,2.2,0,0,1-.4-1.3,4.8,4.8,0,0,1,.5-2,12.3,12.3,0,0,0,.6-2.2A15,15,0,0,0,128.2,241.4Z"/><path d="M146.1,243c.3.2.5.4.5.7a6.6,6.6,0,0,1-.3,1.3l-.4,1.5a6.4,6.4,0,0,1-.2.9.7.7,0,0,1-.1.5v.5a.6.6,0,0,0-.1.4c-.1.1-.1.2-.1.4l-.2.3v.2l-.5.2c-.3,0-.5-.2-.9-.7a3.9,3.9,0,0,1-.7-1.6c-1.6,1.5-2.8,2.3-3.9,2.3a3.5,3.5,0,0,1-2.3-1.2,3.1,3.1,0,0,1-1.2-2.3,8.4,8.4,0,0,1,1.1-3.3,15.2,15.2,0,0,1,2.8-4,5.6,5.6,0,0,1,3.6-1.8,3.9,3.9,0,0,1,2.4,1.2,3.3,3.3,0,0,1,1.4,2.2A5.3,5.3,0,0,1,146.1,243Zm-7.1,3.8a4.5,4.5,0,0,0,2.6-1.3,5.2,5.2,0,0,0,2-3.4.5.5,0,0,1,.5-.3c-.1-1-.3-1.4-.5-1.4a3.1,3.1,0,0,0-2.2,1.3,10.5,10.5,0,0,0-2,2.7,5.1,5.1,0,0,0-.8,2.1c0,.1.1.2.1.3Z"/><path d="M163.4,242q-.3,1.2-.9,3l-.6,1.9h.4l2-.5,1.7-.6c.5,0,.7.3.7.8s-.6,1.3-1.7,2a5.6,5.6,0,0,1-3.4,1.2,3.2,3.2,0,0,1-1.9-.9,2.1,2.1,0,0,1-1-1.7,12.7,12.7,0,0,1,.7-3.1l1-3.2-1.4.2a1.5,1.5,0,0,1-1.1-.6,2.7,2.7,0,0,1-.5-1.3c0-.5,1.3-1,3.8-1.3a22.8,22.8,0,0,0,.5-4c0-.5.2-.7.7-.7a2.7,2.7,0,0,1,1.6.7,2.2,2.2,0,0,1,1,1.6,10.4,10.4,0,0,1-.3,2.1h1.8c1.2,0,1.8.3,1.8.8s-.3.7-1,1l-3.3.8A18.4,18.4,0,0,1,163.4,242Z"/><path d="M170.5,240c1.2-1.8,2.5-2.8,3.7-2.8a4.4,4.4,0,0,1,4.4,4.5,10.8,10.8,0,0,1-.8,3.8,9.5,9.5,0,0,1-2.5,3.1,5.2,5.2,0,0,1-3.4,1.3,2.8,2.8,0,0,1-2.3-1.2,4.3,4.3,0,0,1-1-2.9A9.8,9.8,0,0,1,170.5,240Zm3.9,5a6.5,6.5,0,0,0,1-3.3,3.9,3.9,0,0,0-.4-2.2,6.5,6.5,0,0,0-2.1,2.6,7.2,7.2,0,0,0-1,3.4,6.6,6.6,0,0,0,.2,1.9A4.9,4.9,0,0,0,174.4,245Z"/><path d="M190.3,230.4c.4,0,.9.4,1.6,1.1a3.2,3.2,0,0,1,.9,2c0,.3-.3,1.6-.8,3.8s-1,3.7-1.1,4.2c-1.3,5.6-2.2,8.4-2.8,8.4a2.1,2.1,0,0,1-1.8-1.8v-.2c-1.6,1.3-2.8,2-3.5,2a3.1,3.1,0,0,1-2.1-1.1,4,4,0,0,1-1-2.1,8.8,8.8,0,0,1,.3-2.1,16.8,16.8,0,0,1,.8-2.4l1.2-2.4a9.8,9.8,0,0,1,1.7-1.8,3.5,3.5,0,0,1,2.1-.7,2.8,2.8,0,0,1,2.5,1.6,42.4,42.4,0,0,0,1.3-7.8A.6.6,0,0,1,190.3,230.4Zm-7.2,16.4a5.2,5.2,0,0,0,2.1-1.1,5.9,5.9,0,0,0,2.1-2.6v-.9a1.9,1.9,0,0,0-.4-1.2c-.3-.4-.6-.6-.8-.6a1.9,1.9,0,0,0-1.5.8,5.2,5.2,0,0,0-1,1.8,9.8,9.8,0,0,0-.8,3.5v.2Z"/><path d="M203.5,243a.8.8,0,0,1,.4.7,6.6,6.6,0,0,1-.3,1.3l-.4,1.5c0,.4-.1.7-.1.9a1.1,1.1,0,0,0-.1.5,4.3,4.3,0,0,0-.1.5c0,.1-.1.3-.1.4s-.1.2-.1.4-.1.2-.1.3l-.2.2-.5.2c-.2,0-.5-.2-.8-.7a4,4,0,0,1-.8-1.6c-1.5,1.5-2.8,2.3-3.9,2.3a3.3,3.3,0,0,1-2.2-1.2,2.9,2.9,0,0,1-1.3-2.3,8.4,8.4,0,0,1,1.1-3.3,15.7,15.7,0,0,1,2.9-4,5.2,5.2,0,0,1,3.6-1.8,3.9,3.9,0,0,1,2.4,1.2,3.1,3.1,0,0,1,1.3,2.2A4.9,4.9,0,0,1,203.5,243Zm-7.2,3.8a4.7,4.7,0,0,0,2.7-1.3,6.2,6.2,0,0,0,2-3.4c0-.2.1-.3.4-.3s-.2-1.4-.5-1.4a3.3,3.3,0,0,0-2.2,1.3,13.5,13.5,0,0,0-2,2.7,4.6,4.6,0,0,0-.7,2.1v.3Z"/><path d="M220,231.5a3.2,3.2,0,0,1,.9,2,32.3,32.3,0,0,1-.3,3.5c-.2,1.7-.4,3-.6,4-1.4,6-2.3,8.9-2.9,8.9a2.1,2.1,0,0,1-1.3-.9,2.3,2.3,0,0,1-.8-1.4s.2-.9.7-2.5.9-3.9,1.3-6.5a39.5,39.5,0,0,0,.7-7.5c0-.5.2-.7.7-.7S219.3,230.8,220,231.5Z"/><path d="M231.9,243a.8.8,0,0,1,.4.7,4.3,4.3,0,0,1-.2,1.3,8.5,8.5,0,0,0-.4,1.5,5.1,5.1,0,0,0-.2.9,4.3,4.3,0,0,1-.1.5,1.1,1.1,0,0,1-.1.5.6.6,0,0,1-.1.4.8.8,0,0,1-.1.4c0,.1-.1.2-.1.3l-.2.2a.6.6,0,0,1-.5.2c-.2,0-.5-.2-.8-.7a6,6,0,0,1-.8-1.6c-1.5,1.5-2.8,2.3-3.8,2.3a3.5,3.5,0,0,1-2.3-1.2,3.1,3.1,0,0,1-1.2-2.3,7.9,7.9,0,0,1,1-3.3,15.7,15.7,0,0,1,2.9-4,5.2,5.2,0,0,1,3.6-1.8,3.9,3.9,0,0,1,2.4,1.2,3.1,3.1,0,0,1,1.3,2.2A4.9,4.9,0,0,1,231.9,243Zm-7.1,3.8a4.7,4.7,0,0,0,2.6-1.3,5.7,5.7,0,0,0,2-3.4c0-.2.2-.3.4-.3s-.2-1.4-.4-1.4a3.1,3.1,0,0,0-2.2,1.3,10.5,10.5,0,0,0-2,2.7,5.1,5.1,0,0,0-.8,2.1.4.4,0,0,0,.1.3Z"/><path d="M127.6,265.9c.6,0,1.2.5,1.9,1.6a5.9,5.9,0,0,1,1.1,3.2,4.2,4.2,0,0,1-.9,2.3,10,10,0,0,1-2.1,2.6,12.4,12.4,0,0,1-2.9,2,6.2,6.2,0,0,1-3.1.8h-.3c-1,4.3-1.8,6.4-2.2,6.4s-.7-.2-1.1-.8a3,3,0,0,1-.6-1.4c0-.4.3-1.6.7-3.5a55.1,55.1,0,0,0,2.2-12.9c0-.5.2-.7.7-.7a2.9,2.9,0,0,1,1.5.6,3.2,3.2,0,0,1,1.1,1.7A5.9,5.9,0,0,1,127.6,265.9Zm-1.9,7.5a4.9,4.9,0,0,0,1.7-3c0-.9-.3-1.3-.8-1.3a3.1,3.1,0,0,0-2.1,1.2l-1.1,1.4a12.3,12.3,0,0,0-.9,2.3l-.5,1.5A6.7,6.7,0,0,0,125.7,273.4Z"/><path d="M133.6,268.6c1.3-1.9,2.6-2.8,3.8-2.8a4.4,4.4,0,0,1,4.4,4.5,8.4,8.4,0,0,1-.9,3.7,8.7,8.7,0,0,1-2.4,3.2,5.3,5.3,0,0,1-3.5,1.3,2.9,2.9,0,0,1-2.3-1.2,4.8,4.8,0,0,1-1-2.9A10.3,10.3,0,0,1,133.6,268.6Zm4,5a6.5,6.5,0,0,0,1-3.3,3.9,3.9,0,0,0-.4-2.2,6.5,6.5,0,0,0-2.1,2.6,7.4,7.4,0,0,0-1.1,3.4,3.8,3.8,0,0,0,.3,1.9A4.9,4.9,0,0,0,137.6,273.6Z"/><path d="M152.5,265.9a2.9,2.9,0,0,1,2.2,1.2,3.6,3.6,0,0,1,1,2.4,9.8,9.8,0,0,1-.5,2.6,20.2,20.2,0,0,1-1.4,3,12.1,12.1,0,0,1-2.1,2.4,5,5,0,0,1-2.8,1,5.3,5.3,0,0,1-3.1-1.4c-.4.9-.6,1.4-.9,1.4s-.7-.3-1.3-.9a2.1,2.1,0,0,1-.7-1.4,18,18,0,0,1,.8-3.5c1.6-6,2.4-10.3,2.4-13,0-.5.2-.7.7-.7s.9.3,1.5,1.1a2.7,2.7,0,0,1,1,1.9,25.8,25.8,0,0,1-1.3,6.8C149.9,266.9,151.4,265.9,152.5,265.9Zm-3.9,9.7q1.3,0,2.7-2.1a7,7,0,0,0,1.4-4.1v-.2h-.4a3.9,3.9,0,0,0-2.8,1.6,12.8,12.8,0,0,0-2.7,4A2.4,2.4,0,0,0,148.6,275.6Z"/><path d="M161.9,260.1a3.2,3.2,0,0,1,.9,2,34.5,34.5,0,0,1-.3,3.5c-.2,1.7-.4,3-.6,4-1.3,5.9-2.3,8.9-2.8,8.9s-.8-.3-1.4-.9-.8-1-.8-1.4.3-.9.7-2.6.9-3.8,1.3-6.4a39.5,39.5,0,0,0,.7-7.5c0-.5.3-.7.8-.7S161.3,259.3,161.9,260.1Z"/><path d="M173.8,271.5c.3.3.5.5.5.7a7,7,0,0,1-.3,1.4c-.2.6-.3,1.1-.4,1.5a6.4,6.4,0,0,1-.2.9v.5a.6.6,0,0,0-.1.4,1.1,1.1,0,0,0-.1.5.4.4,0,0,0-.1.3c-.1.2-.1.3-.2.4a.3.3,0,0,0-.1.2l-.5.2c-.3,0-.5-.2-.9-.7a4.4,4.4,0,0,1-.7-1.7c-1.6,1.6-2.8,2.4-3.9,2.4a3.7,3.7,0,0,1-2.3-1.2,3.3,3.3,0,0,1-1.2-2.3,8.4,8.4,0,0,1,1.1-3.3,13.8,13.8,0,0,1,2.8-4,5.8,5.8,0,0,1,3.7-1.9,3.9,3.9,0,0,1,2.3,1.2,3.5,3.5,0,0,1,1.4,2.2A4.6,4.6,0,0,1,173.8,271.5Zm-7.1,3.9a4.5,4.5,0,0,0,2.6-1.3,5.5,5.5,0,0,0,2-3.4.5.5,0,0,1,.5-.3c-.1-1-.2-1.4-.5-1.4a3.3,3.3,0,0,0-2.2,1.2,15.6,15.6,0,0,0-2,2.7,5.9,5.9,0,0,0-.8,2.2v.2Z"/><path d="M175.9,274.6a8.2,8.2,0,0,1,1.1-3.7,12.5,12.5,0,0,1,2.8-3.6,5.8,5.8,0,0,1,3.5-1.4A2.3,2.3,0,0,1,185,267a3.2,3.2,0,0,1,.9,2c0,.4-.2.6-.5.6l-.9-.3-1-.2a2.5,2.5,0,0,0-1.5.9,7.9,7.9,0,0,0-1.8,2.2,4.8,4.8,0,0,0-.8,2,1.3,1.3,0,0,0,.3,1l1.4.2,2-.2,1.3-.4.8-.2a.5.5,0,0,1,.6.6c0,.7-.6,1.4-1.8,2.2a8.2,8.2,0,0,1-3.8,1.1,4.4,4.4,0,0,1-2.7-1.4A3.3,3.3,0,0,1,175.9,274.6Z"/><path d="M190.7,265.8a2.2,2.2,0,0,1,1.5,1,4,4,0,0,1,.7,1.9,24.3,24.3,0,0,1-.9,3.4c-.5,1.9-1.1,3.7-1.7,5.4a1.1,1.1,0,0,1-1.2,1,1.8,1.8,0,0,1-.9-.4,1.5,1.5,0,0,1-.4-1.1,20.8,20.8,0,0,1,.6-3.2c.4-1.8.8-3.2,1-4.4a16.2,16.2,0,0,1,.6-2.7C190.2,266.1,190.4,265.8,190.7,265.8Zm-.4-3a1.9,1.9,0,0,1,.6-1.3c.4-.5.7-.7,1.1-.7s.8.4,1.3,1.3a5.1,5.1,0,0,1,.8,1.9,1.8,1.8,0,0,1-.4,1l-.8.3c-.5,0-1-.3-1.7-1A2.5,2.5,0,0,1,190.3,262.8Z"/><path d="M196,268.6c1.3-1.9,2.6-2.8,3.8-2.8a4.4,4.4,0,0,1,4.4,4.5,8.4,8.4,0,0,1-.9,3.7,8.7,8.7,0,0,1-2.4,3.2,5.2,5.2,0,0,1-3.4,1.3,3.1,3.1,0,0,1-2.4-1.2,4.8,4.8,0,0,1-1-2.9A10.3,10.3,0,0,1,196,268.6Zm4,5a6.5,6.5,0,0,0,1-3.3,3.9,3.9,0,0,0-.4-2.2,6.5,6.5,0,0,0-2.1,2.6,7.4,7.4,0,0,0-1.1,3.4,3.8,3.8,0,0,0,.3,1.9A4.9,4.9,0,0,0,200,273.6Zm1.3-8.4a1.1,1.1,0,0,1-.7-.3,2.9,2.9,0,0,1-.2-.9,1.6,1.6,0,0,1,.3-.9l.9-1,1-.9.7-.6.5-.4.4-.3.6-.2a1.3,1.3,0,0,1,1.1.7,2.1,2.1,0,0,1,.5,1.2,1.7,1.7,0,0,1-.1.8l-.4.4-.6.4-.9.5-1.1.5-.8.5A2.8,2.8,0,0,1,201.3,265.2Z"/><path d="M214.4,265.8a2.9,2.9,0,0,1,2.2,1.2,3.9,3.9,0,0,1,1,2.4,17.5,17.5,0,0,1-.7,4.4,20.3,20.3,0,0,1-1.5,3.5,2.1,2.1,0,0,1-1.6,1.2c-.5,0-.8-.4-.8-1.2a18.2,18.2,0,0,1,.8-3.5,13.9,13.9,0,0,0,.6-3.2c0-.6-.1-.9-.2-.9a.9.9,0,0,0-.7.3l-.5.5a4.3,4.3,0,0,0-.4.7l-.5.7-.4.7-.5.8a5.9,5.9,0,0,1-.4.8c-1.5,2.9-2.7,4.3-3.6,4.3a2.1,2.1,0,0,1-1.3-.9c-.5-.6-.8-1-.8-1.3a3.1,3.1,0,0,1,.4-1.2c.2-.6.4-1,.5-1.4l.3-1c0-.3.1-.7.1-1.1a5.6,5.6,0,0,1,.2-1v-1.1a29.8,29.8,0,0,1,.4-3.5c.1-.2.2-.4.4-.4a2.9,2.9,0,0,1,1.8.8,2.3,2.3,0,0,1,.8,1.4,15.2,15.2,0,0,1-.8,4.4c1.1-1.9,2.1-3.4,2.9-4.6S213.7,265.8,214.4,265.8Z"/><path d="M221.8,278.9a2.4,2.4,0,0,1-1.7-1,2.2,2.2,0,0,1-1-1.6,2.2,2.2,0,0,1,.6-1.4,1.6,1.6,0,0,1,1.3-.7c.4,0,.8.5,1.4,1.4a4.7,4.7,0,0,1,.7,2,1.4,1.4,0,0,1-1.3,1.3Z"/><g class="cls-3"><path d="M3.9,193.9a38.2,38.2,0,0,0,6.9-1,34.8,34.8,0,0,0,6.4-2.3,24.4,24.4,0,0,0,5.5-3.5,19.9,19.9,0,0,0,4.2-4.5,19.7,19.7,0,0,0,2.5-5.3,18.9,18.9,0,0,0,.8-5.8,59.3,59.3,0,0,0-1.7-12.8c-3.8-18.3-7.2-37.1-7.4-56.8s3.4-40.3,13.6-58.7A79.3,79.3,0,0,1,55.2,18.4,73.2,73.2,0,0,1,69.4,9.9,84.7,84.7,0,0,1,84.5,4.6C94.7,2,104.7,1.1,114.3.6l7.1-.3,7.1-.2a130.2,130.2,0,0,1,15.2.3,72.9,72.9,0,0,1,16.1,3.2,75.5,75.5,0,0,1,14.6,6.8c4.4,2.6,8.4,5.4,12.2,8l11.6,8.3c3.8,2.7,7.6,5.6,11.3,8.4s7.5,5.7,11.2,8.8a127.7,127.7,0,0,1,11,9.9,73,73,0,0,1,9.5,11.9,88.4,88.4,0,0,1,11.2,27.1,207.2,207.2,0,0,1,4.7,28c-3.5-8.8-6.8-17.6-10.7-25.9s-8.5-16.1-14.2-22.5a64.7,64.7,0,0,0-9.4-8.7,124,124,0,0,0-10.9-7.6l-11.8-7.3-11.9-7.1-11.9-7.1c-4-2.3-7.9-4.6-11.7-6.5a58.7,58.7,0,0,0-11-4.4,45.5,45.5,0,0,0-11.4-1.6,111,111,0,0,0-12.8.2l-6.9.4-6.8.5c-9,.6-17.7,1.5-25.6,3.6A56.5,56.5,0,0,0,69,36.3a57.7,57.7,0,0,0-8.5,7.9A79.2,79.2,0,0,0,53.4,54c-1.1,1.7-2,3.5-3,5.3s-1.8,3.8-2.6,5.7a120.2,120.2,0,0,0-4.3,11.9c-1.1,4.2-2.1,8.3-2.8,12.6s-1.3,8.6-1.7,13.1c-1.5,17.6-.4,36,.6,54.7.2,4.8.5,9.9-.5,15.2a28,28,0,0,1-2.6,7.7,16.2,16.2,0,0,1-1,1.8l-1.1,1.7a26.1,26.1,0,0,1-2.7,3,23.6,23.6,0,0,1-6.4,4.6,34.6,34.6,0,0,1-7,2.6,36.3,36.3,0,0,1-7.3.8A33.6,33.6,0,0,1,3.9,193.9Z"/></g><path class="cls-4" d="M44.8,341.4A88.6,88.6,0,0,0,39,352.9a74.2,74.2,0,0,0-3.5,11.7,44.6,44.6,0,0,0-.9,11.4,24.7,24.7,0,0,0,3.1,10.4l1.5,2.3,1.9,2a25.3,25.3,0,0,0,4.5,3.4,32.6,32.6,0,0,0,11.7,3.6c8.6,1.2,18,.2,27.4-2,2.4-.5,4.8-1.2,7.1-1.9l7.1-2.3c4.7-1.7,9.3-3.7,13.9-5.8a202.3,202.3,0,0,0,26.5-14.9c16.9-11.3,32.1-24.6,44.1-39.2-8.3,5.4-16.3,10.6-24.3,15.5S143,356.6,135,360.8c-16,8.3-32.2,15.1-47.3,18.8s-29.3,3.8-36.3-3.1a21,21,0,0,1-4.3-6.5,32.1,32.1,0,0,1-2.2-8.5C44,355.4,44.3,348.5,44.8,341.4Z"/><path class="cls-1" d="M45.3,348.5a79.6,79.6,0,0,0-9,22.7c-1.5,7.6-1.5,15.2,1.8,21.5a21.2,21.2,0,0,0,3.2,4.2l.9,1,1.2.9a22.6,22.6,0,0,0,2.6,1.6,29.7,29.7,0,0,0,12.7,2.5,71.2,71.2,0,0,0,13.7-1.2,109.2,109.2,0,0,0,13.7-3.3c18.2-5.5,35.9-13.9,52.7-23.8a309.4,309.4,0,0,0,47.4-34l-3.6-4.5c-15.8,10-31.6,19.1-47.6,27.3s-32.1,15.3-47.6,20.2c-3.9,1.1-7.7,2.2-11.4,3a70.4,70.4,0,0,1-10.4,1.5,24.8,24.8,0,0,1-8.5-.7l-1.6-.6-1.5-.9a16.1,16.1,0,0,1-2.8-2.4c-3.5-3.6-5.3-9-6.1-15.1A102.4,102.4,0,0,1,45.3,348.5Z"/><polygon class="cls-1" points="170.6 332.6 192.3 331.9 188.6 351.3 170.6 332.6"/><path class="cls-5" d="M32.1,320.6v31H24.6v-31Z"/><path class="cls-5" d="M63.1,344.1a13.5,13.5,0,0,1-5.6,5.5,17.9,17.9,0,0,1-8.6,2H37.2v-31H48.9a18.3,18.3,0,0,1,8.7,1.9,13.6,13.6,0,0,1,5.5,5.4,17.4,17.4,0,0,1,0,16.2Zm-8-1.6a10,10,0,0,0,0-13c-1.6-1.6-3.9-2.3-6.8-2.3H44.7v17.7h3.6A9.2,9.2,0,0,0,55.1,342.5Z"/><path class="cls-5" d="M76.8,326.5V333H87.3v5.7H76.8v6.9H88.6v6H69.3v-31H88.6v5.9Z"/><path class="cls-5" d="M112.1,345.9H100.5l-2,5.7H90.6L102,320.8h8.6L122,351.6h-8Zm-2-5.7-3.8-11.4-3.9,11.4Z"/><path class="cls-5" d="M146.4,329.8c0-2.4-1-3.6-3.1-3.6a2.8,2.8,0,0,0-2.5,1.2,6.4,6.4,0,0,0-.9,3.8h-7.3c.1-3.7,1.3-6.6,3.4-8.5a11.3,11.3,0,0,1,8-2.8c3.3,0,5.8.8,7.6,2.5a8.9,8.9,0,0,1,2.5,6.6,14,14,0,0,1-3.4,8.9,36.3,36.3,0,0,1-8.3,7.3h12.2v6H132.5v-5.6C141.8,339,146.4,333.7,146.4,329.8Z"/></g></svg>