<svg xmlns="http://www.w3.org/2000/svg" viewBox="0 0 325.2 214.5"><defs><style>.cls-1{fill:#72be44;}.cls-2{fill:#ecf8fe;stroke:#52474c;stroke-miterlimit:10;stroke-width:1.99px;}.cls-3{opacity:0.19;}.cls-4{opacity:0.12;}.cls-5{fill:#fff;}</style></defs><title>act1_idea1_mobile</title><g id="act1_idea1_mobile"><rect class="cls-1" y="19.5" width="88" height="27.39"/><path class="cls-2" d="M92.4,35.3c-27.4,15-52.8,46-47.8,83.1,4.7,35.5,35.8,65.1,76.9,72.3a21,21,0,0,1-5.8,11.2,25,25,0,0,1-14.6,6.9c1.4.6,12.4,5.2,23.9,0A25.5,25.5,0,0,0,138.4,195a251.6,251.6,0,0,0,61.2-5.9c27.7-6.1,97.6-21.6,118.3-72.9,1.9-4.6,15.7-40.4-4.6-69.2C290.1,14.3,127.3,16.1,92.4,35.3Z"/><path d="M170.6,44.1c0,.3-.1.4-.4.4a2.2,2.2,0,0,1-1.2-.6c-.5-.5-.7-.8-.7-1a23.9,23.9,0,0,1,.6-3.8q.8-3,1.2-3a.9.9,0,0,1,.7.4,1.2,1.2,0,0,1,.4.8c.1.1,0,.4-.1,1s-.2,1.3-.3,2.3S170.6,42.8,170.6,44.1Zm1.5-9.9a1.1,1.1,0,0,1-.3.7.9.9,0,0,1-.7.4c-.2,0-.5-.2-.7-.7a3.3,3.3,0,0,1-.5-1.2.5.5,0,0,1,.3-.4.4.4,0,0,1,.4-.2,1.4,1.4,0,0,1,1,.5A1.4,1.4,0,0,1,172.1,34.2Z"/><path d="M179.3,30.6c.3,0,.6.2.9.7a2.8,2.8,0,0,1,.5,1.2c0,.3-.1.4-.2.4h-.9a2.6,2.6,0,0,0-1.6.9,9.2,9.2,0,0,0-1.7,2.2,5.6,5.6,0,0,0-.6,2.2,1.5,1.5,0,0,0,.1.7l.5.2a6.9,6.9,0,0,0,2-.3l1.7-.6.7-.3c.1,0,.2,0,.2.1a.6.6,0,0,1,.1.4c0,.3-.2.7-.8,1.2a7.8,7.8,0,0,1-1.8,1.1,5.3,5.3,0,0,1-2,.5,2.9,2.9,0,0,1-1.9-1.1,3.2,3.2,0,0,1-.9-2,7.9,7.9,0,0,1,.8-3.1,10,10,0,0,1,2.3-3A3.8,3.8,0,0,1,179.3,30.6Z"/><path d="M185.1,30.4a1.7,1.7,0,0,1,.6,1.2c0,.3-.1,1-.2,2a10.7,10.7,0,0,1-.4,2.3c-.8,3.5-1.3,5.2-1.6,5.2a1.5,1.5,0,0,1-.8-.5c-.3-.4-.5-.6-.5-.8s.2-.6.4-1.5.5-2.3.8-3.8a22.5,22.5,0,0,0,.4-4.4.4.4,0,0,1,.4-.4C184.5,29.7,184.8,29.9,185.1,30.4Z"/><path d="M192.1,37a.6.6,0,0,1,.2.5,2.6,2.6,0,0,1-.1.7,4.6,4.6,0,0,1-.3.9v.5a.8.8,0,0,0-.1.3v.3a.3.3,0,0,0-.1.2.4.4,0,0,1-.1.3h0c-.1.1-.1.1-.1.2h-.3c-.2,0-.3-.1-.5-.4a3.1,3.1,0,0,1-.5-1,3.5,3.5,0,0,1-2.2,1.4,1.7,1.7,0,0,1-1.3-.7,1.9,1.9,0,0,1-.8-1.3,5.9,5.9,0,0,1,.7-2,8.7,8.7,0,0,1,1.6-2.3,3.3,3.3,0,0,1,2.1-1.1,2.6,2.6,0,0,1,1.4.7,1.7,1.7,0,0,1,.8,1.3A2.4,2.4,0,0,1,192.1,37Zm-4.2,2.3a3.3,3.3,0,0,0,1.6-.8,3.1,3.1,0,0,0,1.1-1.9c0-.2.1-.2.3-.2s-.1-.9-.3-.9-.8.3-1.3.8a9.1,9.1,0,0,0-1.1,1.6,2.8,2.8,0,0,0-.5,1.2c0,.1,0,.1.1.2Z"/><path d="M194.1,36.1V34.5c0-.5.2-.8.5-.8l.6.2a4.3,4.3,0,0,1,.4.7l1-.7a2.3,2.3,0,0,1,1.1-.2c.7,0,1,.1,1,.5s0,.3-.1.3a.3.3,0,0,1-.1.2l-.2.2H198l-.4.3a3.6,3.6,0,0,0-1.1,1,3,3,0,0,0-.7,1.5,14.8,14.8,0,0,1-.8,2.5c-.2.5-.5.8-.8.8s-.5-.2-.7-.5a1.9,1.9,0,0,1-.2-.8,3.6,3.6,0,0,1,.3-1.1,9.3,9.3,0,0,0,.4-1.3A5.3,5.3,0,0,0,194.1,36.1Z"/><path d="M199.5,35.3a2.9,2.9,0,0,1,2.2-1.6,2.7,2.7,0,0,1,2.6,2.6,4.6,4.6,0,0,1-.6,2.2,4.5,4.5,0,0,1-1.4,1.9,3.7,3.7,0,0,1-2,.7,1.5,1.5,0,0,1-1.3-.7,2.5,2.5,0,0,1-.6-1.7A6.2,6.2,0,0,1,199.5,35.3Zm2.3,3a4.1,4.1,0,0,0,.6-2,2.3,2.3,0,0,0-.3-1.3,5.3,5.3,0,0,0-1.8,3.5,2,2,0,0,0,.2,1.1A3.2,3.2,0,0,0,201.8,38.3Z"/><path d="M206.1,39.8a.9.9,0,0,1,.4-.7.7.7,0,0,1,.6-.4c.2,0,.5.2.8.8a2.1,2.1,0,0,1,.4,1.1.8.8,0,0,1-.2.4.6.6,0,0,1-.5.2,1.1,1.1,0,0,1-.9-.5A1.2,1.2,0,0,1,206.1,39.8Zm1.5-9.9a.4.4,0,0,1,.4-.4,2.2,2.2,0,0,1,1.2.6c.5.5.8.8.8,1a29.4,29.4,0,0,1-.7,3.8q-.6,3-1.2,3a.9.9,0,0,1-.7-.4,1,1,0,0,1-.4-.8,5.8,5.8,0,0,1,.1-1,22.3,22.3,0,0,0,.3-2.3C207.5,32.3,207.6,31.2,207.6,29.9Z"/><path d="M107.5,52.1q.3,0,.9-1.2l1.3-2.4c.5-.8.8-1.2,1-1.2a.9.9,0,0,1,.8.4,1.8,1.8,0,0,1,.3,1.1,4.2,4.2,0,0,1-.7,1.6l-1.9,3a34.8,34.8,0,0,0-1.7,3.1l-.6.8a1.2,1.2,0,0,1-.8.4q-.6,0-.6-.9a9.4,9.4,0,0,1,1.1-2.5,1.7,1.7,0,0,0,.2-.5,2.1,2.1,0,0,1-1.1-.8,4.2,4.2,0,0,1-.8-1.2,6.5,6.5,0,0,1-.7-2.9,2.9,2.9,0,0,1,.2-1.2.8.8,0,0,1,.8-.4.5.5,0,0,1,.5.4,10.4,10.4,0,0,1,.3,1.2q.1.9.3,1.5l.6,1.2C107.2,52,107.3,52.1,107.5,52.1Z"/><path d="M112.6,52c.7-1.1,1.4-1.6,2.2-1.6a2.4,2.4,0,0,1,1.8.7,2.6,2.6,0,0,1,.7,1.9,4.7,4.7,0,0,1-.5,2.2,4.9,4.9,0,0,1-1.4,1.8,3.1,3.1,0,0,1-2,.7A1.7,1.7,0,0,1,112,57a2.9,2.9,0,0,1-.5-1.7A5.2,5.2,0,0,1,112.6,52Zm2.3,2.9a3.9,3.9,0,0,0,.6-2,1.7,1.7,0,0,0-.3-1.2,3.2,3.2,0,0,0-1.2,1.5,4.5,4.5,0,0,0-.6,2c0,.6,0,.9.2,1.1A3,3,0,0,0,114.9,54.9Z"/><path d="M123.5,55.5a5.1,5.1,0,0,1,.7-2.2,5.3,5.3,0,0,1,1.6-2,3.2,3.2,0,0,1,2-.9,1.5,1.5,0,0,1,1.1.6,2.8,2.8,0,0,1,.5,1.2c0,.3-.1.4-.4.4l-.4-.2H128a1.1,1.1,0,0,0-.9.5,6.9,6.9,0,0,0-1.1,1.3,2.4,2.4,0,0,0-.4,1.2c0,.2,0,.4.2.5h1.9l.8-.2h.4c.3,0,.4.1.4.3s-.3.9-1.1,1.3a4.3,4.3,0,0,1-2.2.6,2.7,2.7,0,0,1-1.6-.7C123.8,56.4,123.5,56,123.5,55.5Z"/><path d="M131.3,52.8V51.2c0-.6.2-.8.5-.8l.6.2c.2.1.3.4.4.7a2.6,2.6,0,0,1,1.1-.7l1-.3c.7,0,1,.2,1,.5s0,.3-.1.4-.1.1-.1.2h-.3l-.5.3a5.2,5.2,0,0,0-1.1,1,3.4,3.4,0,0,0-.7,1.6,11,11,0,0,1-.8,2.4c-.2.6-.5.8-.8.8a.5.5,0,0,1-.6-.4,1.6,1.6,0,0,1-.3-.8,3,3,0,0,1,.3-1.1c.2-.5.3-1,.4-1.3A5.3,5.3,0,0,0,131.3,52.8Z"/><path d="M141.1,54.3a3.3,3.3,0,0,1-1.9.6l-1.7-.2c0,.3-.1.5-.1.8a4.3,4.3,0,0,0,.1.5,1,1,0,0,0,.7.2L140,56l.8-.2c.4,0,.6.1.6.4s-.3.7-.9,1a3.6,3.6,0,0,1-2.1.5,2.7,2.7,0,0,1-2-.7,2.4,2.4,0,0,1-.7-1.8,4.9,4.9,0,0,1,.6-2.2,9,9,0,0,1,1.5-1.9,2.7,2.7,0,0,1,1.8-.7,2.2,2.2,0,0,1,1.7.9,2.9,2.9,0,0,1,.8,1.7C142.1,53.5,141.8,53.9,141.1,54.3Zm-1-1.9-.5-.3c-.2,0-.4.2-.7.4l-.8,1h.4c1.3,0,1.9-.2,1.9-.7Z"/><path d="M143.7,52a2.9,2.9,0,0,1,2.2-1.6,2.4,2.4,0,0,1,1.8.7,2.7,2.7,0,0,1,.8,1.9,5.8,5.8,0,0,1-2,4,3.1,3.1,0,0,1-2,.7,1.5,1.5,0,0,1-1.3-.7,2.4,2.4,0,0,1-.6-1.7A5.9,5.9,0,0,1,143.7,52Zm2.3,2.9a3.9,3.9,0,0,0,.6-2,1.7,1.7,0,0,0-.3-1.2,3.2,3.2,0,0,0-1.2,1.5,4.5,4.5,0,0,0-.6,2,2.3,2.3,0,0,0,.2,1.1A3,3,0,0,0,146,54.9Z"/><path d="M159.3,58.8l1-.3.6.2a.8.8,0,0,1,.1.4c0,.2,0,.3-.2.4s-.4.3-.7.5l-1,.8-.9.6-.5.2c-.2,0-.3-.2-.5-.4a1.6,1.6,0,0,1-.3-.8,29.2,29.2,0,0,1,1.1-3.2,2.2,2.2,0,0,1-1.4.5,1.5,1.5,0,0,1-1.2-.7,1.9,1.9,0,0,1-.7-1.3,3.4,3.4,0,0,1,.4-1.5,10.6,10.6,0,0,1,1-1.7,5,5,0,0,1,1.4-1.5,2.9,2.9,0,0,1,1.6-.6,2,2,0,0,1,1.4.6,2.2,2.2,0,0,1,.6,1.3c0,.3-.1.4-.4.4l-.5-.3-.6-.3a2.3,2.3,0,0,0-1.4.8,4.8,4.8,0,0,0-1.3,1.6,2.8,2.8,0,0,0-.6,1.3h.3a2.2,2.2,0,0,0,1.5-.8,3.7,3.7,0,0,0,1.2-2c.1-.2.2-.2.4-.2a1.6,1.6,0,0,1,.9.4c.3.2.5.4.5.6a2.3,2.3,0,0,1-.2.9c-.2.4-.4,1.1-.8,1.9Z"/><path d="M167.1,50.7c.1-.2.2-.3.4-.3s.5.2.8.6a1.9,1.9,0,0,1,.5,1,13.9,13.9,0,0,1-.7,2.1l-1,3a.7.7,0,0,1-.7.6c-.2,0-.3,0-.4-.2s-.2-.3-.2-.6a7.2,7.2,0,0,1,.1-1.3c-.9,1.4-1.7,2.1-2.3,2.1a2.1,2.1,0,0,1-1.1-.5,1.7,1.7,0,0,1-.6-1.2,10.7,10.7,0,0,1,.7-3.5c.6-1.4,1-2.1,1.5-2.1a.8.8,0,0,1,.7.4,1.2,1.2,0,0,1,.4.8c0,.1-.2.4-.4.9a10.9,10.9,0,0,0-1.1,3.3c0,.1,0,.1.1.1l.8-.6a14,14,0,0,0,1.3-2A12.3,12.3,0,0,0,167.1,50.7Z"/><path d="M174.5,54.3a3.9,3.9,0,0,1-2,.6l-1.6-.2a2.4,2.4,0,0,0-.2.8.8.8,0,0,0,.2.5c0,.1.3.2.6.2l1.8-.2.8-.2c.4,0,.6.1.6.4s-.3.7-.9,1a3.6,3.6,0,0,1-2.1.5,2.7,2.7,0,0,1-2-.7,2.9,2.9,0,0,1-.7-1.8,4.9,4.9,0,0,1,.6-2.2,9,9,0,0,1,1.5-1.9,3,3,0,0,1,1.9-.7,2.1,2.1,0,0,1,1.6.9,2.9,2.9,0,0,1,.8,1.7C175.4,53.5,175.1,53.9,174.5,54.3Zm-1.1-1.9c-.2-.2-.3-.3-.5-.3s-.4.2-.7.4l-.8,1h.4c1.3,0,1.9-.2,1.9-.7Z"/><path d="M186,50.4a1.5,1.5,0,0,1,1.1.6,2.4,2.4,0,0,1,.5,1.2.3.3,0,0,1-.3.3h-1.1a2,2,0,0,0-1,.2c-.5.1-.7.3-.7.6s.2.2.4.4l.9.6a3,3,0,0,1,.8.8A1.5,1.5,0,0,1,187,56c0,.3-.3.7-.9,1.1a3.4,3.4,0,0,1-2,.6,3.1,3.1,0,0,1-2-.5,1.2,1.2,0,0,1-.8-1.1c0-.3.1-.5.4-.5h.5a2.9,2.9,0,0,0,1.7.4c.8,0,1.1-.1,1.1-.3a.9.9,0,0,0-.4-.6l-.9-.6-.9-.8c-.2-.3-.4-.5-.4-.8s.5-1.1,1.4-1.7A5,5,0,0,1,186,50.4Z"/><path d="M189.2,52c.7-1.1,1.4-1.6,2.2-1.6a2.4,2.4,0,0,1,1.8.7,2.6,2.6,0,0,1,.7,1.9,4.7,4.7,0,0,1-.5,2.2A4.9,4.9,0,0,1,192,57a3.1,3.1,0,0,1-2,.7,1.7,1.7,0,0,1-1.4-.7,2.9,2.9,0,0,1-.5-1.7A5.2,5.2,0,0,1,189.2,52Zm2.3,2.9a3.9,3.9,0,0,0,.6-2,1.7,1.7,0,0,0-.3-1.2,3.2,3.2,0,0,0-1.2,1.5,4.5,4.5,0,0,0-.6,2,2.8,2.8,0,0,0,.1,1.1A2.7,2.7,0,0,0,191.5,54.9Z"/><path d="M199.9,50.4a1.8,1.8,0,0,1,1.3.6,2.4,2.4,0,0,1,.6,1.5,11.8,11.8,0,0,1-.4,2.5,7.7,7.7,0,0,1-.9,2c-.3.5-.6.7-.9.7s-.5-.2-.5-.6a9.7,9.7,0,0,1,.5-2.1,10.5,10.5,0,0,0,.3-1.8c0-.4,0-.6-.1-.6l-.4.2-.3.3-.2.4-.3.4-.3.4-.2.5-.3.5q-1.4,2.4-2.1,2.4c-.2,0-.4-.1-.7-.5a1.8,1.8,0,0,1-.5-.7,4.1,4.1,0,0,1,.2-.7,2,2,0,0,0,.3-.8c.1-.2.1-.4.2-.6s.1-.4.1-.7a1.3,1.3,0,0,1,.1-.6v-.6c.1-1.2.2-1.9.2-2s.2-.2.2-.2a1.7,1.7,0,0,1,1.1.4,1.5,1.5,0,0,1,.5.8,11.4,11.4,0,0,1-.5,2.6,26.2,26.2,0,0,1,1.7-2.7C199.1,50.7,199.5,50.4,199.9,50.4Z"/><path d="M213.5,54.3a3.6,3.6,0,0,1-2,.6l-1.6-.2a2.2,2.2,0,0,0-.1.8.7.7,0,0,0,.1.5.8.8,0,0,0,.6.2l1.9-.2.8-.2c.4,0,.6.1.6.4s-.4.7-1,1a3.6,3.6,0,0,1-2.1.5,2.6,2.6,0,0,1-2.7-2.5,4,4,0,0,1,.7-2.2,9,9,0,0,1,1.5-1.9,2.7,2.7,0,0,1,1.8-.7,2.2,2.2,0,0,1,1.7.9,2.7,2.7,0,0,1,.7,1.7C214.4,53.5,214.1,53.9,213.5,54.3Zm-1-1.9a.9.9,0,0,0-.6-.3c-.2,0-.4.2-.7.4a8.6,8.6,0,0,0-.7,1h.3c1.3,0,2-.2,2-.7Z"/><path d="M217.9,47a1.7,1.7,0,0,1,.6,1.2c0,.4-.1,1.1-.2,2s-.3,1.8-.4,2.4c-.8,3.4-1.3,5.1-1.6,5.1a1,1,0,0,1-.8-.5,1.5,1.5,0,0,1-.5-.8,9.5,9.5,0,0,0,.4-1.5c.3-1,.5-2.2.8-3.7a23.2,23.2,0,0,0,.4-4.4c0-.3.1-.4.4-.4S217.5,46.6,217.9,47Z"/><path d="M229.5,50.4c.3,0,.7.3,1.1.9a3.8,3.8,0,0,1,.6,1.9,2.2,2.2,0,0,1-.5,1.4,7.9,7.9,0,0,1-1.2,1.5,7.1,7.1,0,0,1-1.7,1.1,3.1,3.1,0,0,1-1.8.5h-.2c-.6,2.5-1,3.8-1.3,3.8s-.4-.2-.6-.5a2.3,2.3,0,0,1-.3-.9,10.4,10.4,0,0,1,.4-2,34.9,34.9,0,0,0,1.2-7.5.4.4,0,0,1,.4-.4,1.6,1.6,0,0,1,.9.3,1.7,1.7,0,0,1,.7,1A3.5,3.5,0,0,1,229.5,50.4Zm-1.1,4.4a3.3,3.3,0,0,0,1-1.8c0-.5-.2-.7-.5-.7a1.5,1.5,0,0,0-1.2.7,2.8,2.8,0,0,0-.6.8l-.6,1.3-.2.9A3.8,3.8,0,0,0,228.4,54.8Z"/><path d="M233,52c.8-1.1,1.5-1.6,2.2-1.6a2.4,2.4,0,0,1,1.8.7,2.7,2.7,0,0,1,.8,1.9,6.3,6.3,0,0,1-.5,2.2,6.5,6.5,0,0,1-1.5,1.8,3.1,3.1,0,0,1-2,.7,1.6,1.6,0,0,1-1.3-.7,2.4,2.4,0,0,1-.6-1.7A5.9,5.9,0,0,1,233,52Zm2.3,2.9a3.9,3.9,0,0,0,.6-2,2.9,2.9,0,0,0-.2-1.2,2.8,2.8,0,0,0-1.3,1.5,4.5,4.5,0,0,0-.6,2,2.3,2.3,0,0,0,.2,1.1A2.6,2.6,0,0,0,235.3,54.9Z"/><path d="M244.6,46.4q.3,0,.9.6a1.6,1.6,0,0,1,.5,1.2,11.3,11.3,0,0,1-.5,2.2l-.6,2.4c-.7,3.3-1.3,4.9-1.6,4.9l-.7-.3a1.3,1.3,0,0,1-.4-.7h0a3.6,3.6,0,0,1-2,1.1,1.7,1.7,0,0,1-1.2-.6,2.2,2.2,0,0,1-.6-1.2,5,5,0,0,1,.2-1.2,7.4,7.4,0,0,1,.4-1.4,6.4,6.4,0,0,1,.8-1.4,3.3,3.3,0,0,1,.9-1.1,1.9,1.9,0,0,1,1.2-.4,1.8,1.8,0,0,1,1.5.9,26.6,26.6,0,0,0,.8-4.5C244.2,46.5,244.3,46.4,244.6,46.4Zm-4.2,9.5a3.1,3.1,0,0,0,1.2-.6,3.5,3.5,0,0,0,1.2-1.5v-.5a2.4,2.4,0,0,0-.2-.8l-.5-.3a.9.9,0,0,0-.8.4,3,3,0,0,0-.6,1.1,5.1,5.1,0,0,0-.5,2v.2Z"/><path d="M251.6,54.3a3.5,3.5,0,0,1-1.9.6l-1.7-.2c0,.3-.1.5-.1.8a4.3,4.3,0,0,0,.1.5,1,1,0,0,0,.7.2l1.8-.2.8-.2c.4,0,.6.1.6.4s-.3.7-.9,1a3.8,3.8,0,0,1-2.2.5,2.5,2.5,0,0,1-1.9-.7,2.4,2.4,0,0,1-.7-1.8,4.9,4.9,0,0,1,.6-2.2,9,9,0,0,1,1.5-1.9,2.7,2.7,0,0,1,1.8-.7,2.2,2.2,0,0,1,1.7.9,2.9,2.9,0,0,1,.8,1.7C252.6,53.5,252.3,53.9,251.6,54.3Zm-1-1.9-.5-.3c-.2,0-.4.2-.7.4a3.9,3.9,0,0,0-.8,1h.4c1.3,0,1.9-.2,1.9-.7Z"/><path d="M253.9,52.8V51.2c0-.6.1-.8.5-.8l.5.2c.2.1.3.4.4.7a3.4,3.4,0,0,1,1.1-.7l1-.3c.7,0,1.1.2,1.1.5s-.1.3-.1.4l-.2.2h-.3l-.5.3a5.2,5.2,0,0,0-1.1,1,4.8,4.8,0,0,0-.7,1.6,12.1,12.1,0,0,1-.7,2.4c-.3.6-.5.8-.8.8a.7.7,0,0,1-.7-.4,1.3,1.3,0,0,1-.2-.8,6.5,6.5,0,0,1,.2-1.1,4.6,4.6,0,0,0,.4-1.3A5.3,5.3,0,0,0,253.9,52.8Z"/><path d="M269.9,46.4q.3,0,.9.6a1.7,1.7,0,0,1,.6,1.2l-.5,2.2a12.6,12.6,0,0,0-.6,2.4c-.8,3.3-1.4,4.9-1.7,4.9l-.7-.3a1.1,1.1,0,0,1-.3-.7h0a4.1,4.1,0,0,1-2.1,1.1,1.7,1.7,0,0,1-1.2-.6,2.2,2.2,0,0,1-.6-1.2,5,5,0,0,1,.2-1.2,3.9,3.9,0,0,1,.5-1.4,6.1,6.1,0,0,1,.7-1.4,2.7,2.7,0,0,1,1-1.1,1.6,1.6,0,0,1,1.2-.4,1.8,1.8,0,0,1,1.5.9,23.4,23.4,0,0,0,.7-4.5C269.5,46.5,269.6,46.4,269.9,46.4Zm-4.2,9.5a3.1,3.1,0,0,0,1.2-.6,3.7,3.7,0,0,0,1.3-1.5v-.5a1.3,1.3,0,0,0-.3-.8c-.2-.2-.3-.3-.5-.3a1,1,0,0,0-.8.4,3,3,0,0,0-.6,1.1,8,8,0,0,0-.5,2v.2Z"/><path d="M277,54.3a3.9,3.9,0,0,1-2,.6l-1.6-.2a2.4,2.4,0,0,0-.2.8.8.8,0,0,0,.2.5c0,.1.3.2.6.2l1.8-.2.8-.2c.4,0,.6.1.6.4s-.3.7-.9,1a3.6,3.6,0,0,1-2.1.5,2.7,2.7,0,0,1-2-.7,2.4,2.4,0,0,1-.7-1.8,4.9,4.9,0,0,1,.6-2.2,9,9,0,0,1,1.5-1.9,2.8,2.8,0,0,1,1.9-.7,2.1,2.1,0,0,1,1.6.9,2.9,2.9,0,0,1,.8,1.7C277.9,53.5,277.6,53.9,277,54.3Zm-1.1-1.9c-.2-.2-.3-.3-.5-.3s-.4.2-.7.4l-.8,1h.4c1.3,0,1.9-.2,1.9-.7Z"/><path d="M88.5,63.7a2.1,2.1,0,0,1,.5,1.2c0,.3-.1,1-.2,2s-.2,1.8-.3,2.3c-.8,3.5-1.4,5.2-1.7,5.2s-.4-.2-.8-.5a1.2,1.2,0,0,1-.4-.8,8,8,0,0,1,.4-1.5c.2-1,.5-2.2.7-3.8a22.2,22.2,0,0,0,.4-4.3.5.5,0,0,1,.5-.5C87.8,63,88.1,63.2,88.5,63.7Z"/><path d="M95.4,70.3c.2.2.3.3.3.5s-.1.3-.2.7a5.1,5.1,0,0,0-.2.9,1.1,1.1,0,0,0-.1.5c0,.2,0,.3-.1.3V74h-.1c0,.1-.1.1-.1.2h-.3c-.1,0-.3-.1-.5-.4a3,3,0,0,1-.4-1,3.9,3.9,0,0,1-2.3,1.4,1.9,1.9,0,0,1-1.3-.7,1.7,1.7,0,0,1-.7-1.3,5.3,5.3,0,0,1,.6-2,9.1,9.1,0,0,1,1.7-2.3A3.1,3.1,0,0,1,93.7,67a3,3,0,0,1,1.4.7c.5.5.8.9.8,1.3A2.7,2.7,0,0,1,95.4,70.3Zm-4.1,2.3a2.8,2.8,0,0,0,1.5-.8A3.9,3.9,0,0,0,94,69.9c0-.2.1-.2.2-.2s-.1-.9-.3-.9a1.9,1.9,0,0,0-1.2.8,6.1,6.1,0,0,0-1.2,1.6,2.4,2.4,0,0,0-.4,1.2v.2Z"/><path d="M103,73.8a2.1,2.1,0,0,1-.5-.9c0-.2.2-1.5.7-3.9a31.2,31.2,0,0,0,.7-4.6c.1-.3.2-.5.5-.5s.5.3.9.7a2.2,2.2,0,0,1,.6,1.3c0,.2-.2.8-.4,1.9s-.5,1.9-.6,2.4a5,5,0,0,1-.2,1.2c-.1.3-.1.6-.2.8a5.2,5.2,0,0,1-.6,2.1c0,.1-.1.1-.2.1A1.5,1.5,0,0,1,103,73.8Z"/><path d="M112.2,70.1a1.4,1.4,0,0,1,.2.6,1.6,1.6,0,0,1-.3.8,21.8,21.8,0,0,0-.6,2.2,16.7,16.7,0,0,1-.6,2,5,5,0,0,1-.5,1.3,2,2,0,0,1-.9.9,2.1,2.1,0,0,1-1.2.4,2.3,2.3,0,0,1-1.7-.7c-.5-.4-.7-.7-.7-1a1.5,1.5,0,0,1,.2-.9c.2-.2.3-.3.5-.3l.4.2.3.5.4.5.6.2a.5.5,0,0,0,.6-.4,4.1,4.1,0,0,0,.5-.9c.2-.8.3-1.4.4-1.7a3.2,3.2,0,0,1-1.6.6,1.5,1.5,0,0,1-1.2-.7,2.1,2.1,0,0,1-.5-1.2,4.9,4.9,0,0,1,.3-1.5,14.2,14.2,0,0,1,.8-1.8,6.4,6.4,0,0,1,1.3-1.5,2.1,2.1,0,0,1,1.6-.7l.9.3a1.8,1.8,0,0,1,.5.7,4.7,4.7,0,0,1,.3,1.7Zm-4,2.3.2.2c.3,0,.7-.3,1.3-.8a4.4,4.4,0,0,0,1.3-1.5v-.2a2.9,2.9,0,0,0-.2-1.2h-.2q-.7,0-1.5,1.5A4.7,4.7,0,0,0,108.2,72.4Z"/><path d="M116.3,63.7a1.7,1.7,0,0,1,.6,1.2c0,.3-.1,1-.2,2a20.7,20.7,0,0,1-.4,2.3c-.8,3.5-1.3,5.2-1.6,5.2a2.1,2.1,0,0,1-1.3-1.3c0-.1.2-.6.4-1.5s.5-2.2.8-3.8a22.2,22.2,0,0,0,.4-4.3c0-.3.1-.5.4-.5S115.9,63.2,116.3,63.7Z"/><path d="M122.7,71a4.9,4.9,0,0,1-2,.5h-1.6a1.9,1.9,0,0,0-.2.7.8.8,0,0,0,.2.6l.6.2,1.8-.2.8-.2q.6,0,.6.3c0,.4-.3.8-.9,1.1a4.6,4.6,0,0,1-2.1.5,2.8,2.8,0,0,1-2-.8,2.8,2.8,0,0,1-.7-1.7,4.6,4.6,0,0,1,.6-2.2,5.8,5.8,0,0,1,1.5-1.9,3.1,3.1,0,0,1,1.9-.8,2.1,2.1,0,0,1,1.6.9,2.9,2.9,0,0,1,.8,1.8C123.6,70.2,123.3,70.6,122.7,71Zm-1.1-1.9c-.2-.2-.3-.3-.5-.3s-.4.1-.7.4a3.6,3.6,0,0,0-.8.9h.4c1.3,0,1.9-.3,1.9-.7A.5.5,0,0,0,121.6,69.1Z"/><path d="M128.7,67c.4,0,.7.3,1.1.7a1.5,1.5,0,0,1,.5,1.1c0,.3-.1.4-.3.4h-.5l-.6-.2-1,.2c-.5.2-.7.4-.7.6l.4.5.9.5a6,6,0,0,1,.8.8,1.5,1.5,0,0,1,.4,1.1q0,.6-.9,1.2a3.4,3.4,0,0,1-2,.6,4.2,4.2,0,0,1-2-.5c-.6-.4-.8-.7-.8-1.1s.1-.6.4-.6l.5.2a4,4,0,0,0,1.8.4c.7,0,1-.1,1-.3a.7.7,0,0,0-.4-.6l-.9-.7-.9-.7a1.8,1.8,0,0,1-.4-.9c0-.5.5-1,1.4-1.6A4.4,4.4,0,0,1,128.7,67Z"/><path d="M132.5,67a.9.9,0,0,1,.8.6,1.9,1.9,0,0,1,.4,1.1,8.3,8.3,0,0,1-.5,2l-.9,3.1a.7.7,0,0,1-.7.6.9.9,0,0,1-.6-.3.8.8,0,0,1-.2-.6,15,15,0,0,1,.3-1.8,22.3,22.3,0,0,0,.6-2.6,12.3,12.3,0,0,1,.4-1.6C132.2,67.2,132.3,67,132.5,67Zm-.3-1.8a1.3,1.3,0,0,1,.4-.7.7.7,0,0,1,.6-.4c.2,0,.5.2.8.8a2.4,2.4,0,0,1,.4,1.1c0,.2,0,.4-.2.5l-.5.2a1.6,1.6,0,0,1-.9-.5C132.4,65.8,132.2,65.5,132.2,65.2Z"/><path d="M140.6,70.3c.2.2.3.3.3.5s-.1.3-.2.7a5.1,5.1,0,0,0-.2.9,1.1,1.1,0,0,0-.1.5.4.4,0,0,1-.1.3V74h-.1c0,.1-.1.1-.1.2h-.3c-.1,0-.3-.1-.5-.4a3,3,0,0,1-.4-1,3.9,3.9,0,0,1-2.3,1.4,1.9,1.9,0,0,1-1.3-.7,1.7,1.7,0,0,1-.7-1.3,5.3,5.3,0,0,1,.6-2,9.1,9.1,0,0,1,1.7-2.3,3.1,3.1,0,0,1,2.1-1.1,3,3,0,0,1,1.4.7A1.9,1.9,0,0,1,141,69,2.4,2.4,0,0,1,140.6,70.3Zm-4.1,2.3a3.1,3.1,0,0,0,1.5-.8,3.9,3.9,0,0,0,1.2-1.9c0-.2.1-.2.2-.2s-.1-.9-.3-.9a1.9,1.9,0,0,0-1.2.8,6.1,6.1,0,0,0-1.2,1.6,2.8,2.8,0,0,0-.5,1.2v.2Z"/><path d="M153.2,63.9c.3,0,.6.2.9.7a2.8,2.8,0,0,1,.5,1.2c0,.3-.1.4-.2.4h-.9a2.6,2.6,0,0,0-1.6.9,9.2,9.2,0,0,0-1.7,2.2,5.6,5.6,0,0,0-.6,2.2,1.5,1.5,0,0,0,.1.7l.5.2a6.9,6.9,0,0,0,2-.3l1.7-.6.7-.3c.1,0,.2,0,.2.1a.6.6,0,0,1,.1.4c0,.4-.2.7-.8,1.2a7.8,7.8,0,0,1-1.8,1.1,5.3,5.3,0,0,1-2,.5,2.9,2.9,0,0,1-1.9-1.1,3.2,3.2,0,0,1-.9-2,7.9,7.9,0,0,1,.8-3.1,10,10,0,0,1,2.3-3A3.8,3.8,0,0,1,153.2,63.9Z"/><path d="M162.2,70.3c.2.2.3.3.3.5s-.1.3-.2.7a5.1,5.1,0,0,0-.2.9,1.1,1.1,0,0,0-.1.5.8.8,0,0,0-.1.3v.3a.3.3,0,0,0-.1.2.4.4,0,0,1-.1.3h0v.2h-.3c-.1,0-.3-.1-.5-.4a3,3,0,0,1-.4-1,3.9,3.9,0,0,1-2.3,1.4,2.6,2.6,0,0,1-2-2,5.3,5.3,0,0,1,.6-2,7.2,7.2,0,0,1,1.7-2.3,3.1,3.1,0,0,1,2.1-1.1,2.4,2.4,0,0,1,1.3.7,1.7,1.7,0,0,1,.8,1.3A2.4,2.4,0,0,1,162.2,70.3ZM158,72.6a3.3,3.3,0,0,0,1.6-.8,3.1,3.1,0,0,0,1.1-1.9c.1-.2.1-.2.3-.2s-.1-.9-.3-.9-.8.3-1.3.8a9.1,9.1,0,0,0-1.1,1.6,2.8,2.8,0,0,0-.5,1.2v.2Z"/><path d="M166.8,69.8a16.2,16.2,0,0,0-.6,1.7l-.3,1.1c0,.1.1.1.2.1l1.2-.3,1-.3c.2,0,.4.1.4.5s-.4.7-1,1.1a3.1,3.1,0,0,1-2,.7,2.1,2.1,0,0,1-1.1-.5,1.4,1.4,0,0,1-.6-1,6.5,6.5,0,0,1,.4-1.8l.6-1.9h-.8l-.6-.3a1.6,1.6,0,0,1-.3-.8c0-.3.7-.6,2.2-.8a10.4,10.4,0,0,0,.3-2.3c0-.3.1-.4.4-.4a2.1,2.1,0,0,1,.9.5c.4.3.6.6.6.8a10.5,10.5,0,0,1-.2,1.3h1.1c.7,0,1,.2,1,.5s-.2.4-.6.6l-1.9.4A8.1,8.1,0,0,0,166.8,69.8Z"/><path d="M170.9,68.6a3.1,3.1,0,0,1,2.2-1.6,2.5,2.5,0,0,1,1.8.8,2.4,2.4,0,0,1,.7,1.8,4.4,4.4,0,0,1-.5,2.2,4.5,4.5,0,0,1-1.4,1.9,3.1,3.1,0,0,1-2,.7,1.7,1.7,0,0,1-1.4-.7,3.1,3.1,0,0,1-.5-1.7A5.5,5.5,0,0,1,170.9,68.6Zm2.3,3a4.1,4.1,0,0,0,.6-2,2.3,2.3,0,0,0-.3-1.3,4.9,4.9,0,0,0-1.2,1.5,4.8,4.8,0,0,0-.6,2.1c0,.5,0,.9.2,1A2.7,2.7,0,0,0,173.2,71.6Zm.8-4.9-.4-.2c-.1-.2-.2-.3-.2-.5a1.4,1.4,0,0,1,.2-.6l.5-.5.6-.6.4-.3.3-.2.2-.2h.4a.7.7,0,0,1,.6.4,1.1,1.1,0,0,1,.3.7V65c-.1.1-.1.2-.3.3l-.3.2-.6.3-.6.3-.5.3Z"/><path d="M179.2,63.7a1.6,1.6,0,0,1,.5,1.2,19.2,19.2,0,0,1-.1,2,20.7,20.7,0,0,1-.4,2.3c-.8,3.5-1.3,5.2-1.6,5.2s-.5-.2-.8-.5a1.5,1.5,0,0,1-.5-.8,8,8,0,0,1,.4-1.5c.3-1,.5-2.2.8-3.8a34.4,34.4,0,0,0,.4-4.3c0-.3.1-.5.4-.5S178.8,63.2,179.2,63.7Z"/><path d="M181.7,67a1.2,1.2,0,0,1,.9.6,1.9,1.9,0,0,1,.4,1.1c0,.2-.2.8-.5,2s-.7,2.1-1,3.1a.7.7,0,0,1-.7.6.5.5,0,0,1-.5-.3.6.6,0,0,1-.3-.6c0-.2.2-.8.4-1.8a26.1,26.1,0,0,1,.6-2.6,15.7,15.7,0,0,1,.3-1.6C181.4,67.2,181.6,67,181.7,67Zm-.2-1.8a1.1,1.1,0,0,1,.3-.7c.3-.3.5-.4.7-.4s.5.2.8.8a5.1,5.1,0,0,1,.4,1.1.8.8,0,0,1-.2.5l-.5.2a1.8,1.8,0,0,1-1.5-1.5Z"/><path d="M183.8,72.2a4.9,4.9,0,0,1,.6-2.2,8.7,8.7,0,0,1,1.7-2.1,3,3,0,0,1,2-.9,1.5,1.5,0,0,1,1,.7,1.6,1.6,0,0,1,.5,1.2.3.3,0,0,1-.3.3h-.5l-.6-.2q-.3,0-.9.6a4,4,0,0,0-1,1.2,2.4,2.4,0,0,0-.4,1.2c0,.3,0,.5.1.6h2l.7-.2.5-.2c.3,0,.4.1.4.4s-.4.8-1.1,1.2a3.8,3.8,0,0,1-2.2.7,2.7,2.7,0,0,1-1.6-.8A2.1,2.1,0,0,1,183.8,72.2Z"/><path d="M196.9,70.3c.1.2.2.3.2.5a1.4,1.4,0,0,1-.2.7,5.1,5.1,0,0,0-.2.9,4.3,4.3,0,0,1-.1.5v.8a.4.4,0,0,0-.1.3h-.1c0,.1,0,.1-.1.2s-.1.1-.3.1-.3-.1-.5-.4a10.4,10.4,0,0,1-.4-1c-.9.9-1.6,1.4-2.2,1.4a1.9,1.9,0,0,1-1.4-.7,2.1,2.1,0,0,1-.7-1.3,5.3,5.3,0,0,1,.6-2,9.1,9.1,0,0,1,1.7-2.3,3.1,3.1,0,0,1,2.1-1.1,2.6,2.6,0,0,1,1.4.7c.5.5.8.9.8,1.3A3.8,3.8,0,0,1,196.9,70.3Zm-4.2,2.3a2.8,2.8,0,0,0,1.5-.8,3.3,3.3,0,0,0,1.2-1.9c0-.2.1-.2.2-.2s-.1-.9-.2-.9-.8.3-1.3.8a6.1,6.1,0,0,0-1.2,1.6,2.4,2.4,0,0,0-.4,1.2v.2Z"/><path d="M208.7,67c.4,0,.8.4,1.2,1a3.3,3.3,0,0,1,.6,1.9,2.7,2.7,0,0,1-.5,1.3,5.7,5.7,0,0,1-1.2,1.5,6.6,6.6,0,0,1-1.7,1.2,4.9,4.9,0,0,1-1.9.5h-.1c-.6,2.5-1,3.7-1.3,3.7s-.4-.2-.6-.5a1.2,1.2,0,0,1-.4-.8c0-.2.2-.9.4-2a32.1,32.1,0,0,0,1.3-7.6c0-.3.1-.4.4-.4a1.6,1.6,0,0,1,.9.4,1.7,1.7,0,0,1,.6,1A3.5,3.5,0,0,1,208.7,67Zm-1.1,4.4a2.4,2.4,0,0,0,1-1.7c0-.5-.1-.8-.4-.8a2.4,2.4,0,0,0-1.3.7l-.6.9a3.9,3.9,0,0,0-.5,1.3l-.3.9A3.9,3.9,0,0,0,207.6,71.4Z"/><path d="M212.3,68.6c.7-1,1.4-1.6,2.2-1.6a2.5,2.5,0,0,1,1.8.8,2.4,2.4,0,0,1,.7,1.8,4.4,4.4,0,0,1-.5,2.2,4.5,4.5,0,0,1-1.4,1.9,3.1,3.1,0,0,1-2,.7,1.7,1.7,0,0,1-1.4-.7,3.1,3.1,0,0,1-.5-1.7A5.5,5.5,0,0,1,212.3,68.6Zm2.3,3a4.1,4.1,0,0,0,.6-2,2.3,2.3,0,0,0-.3-1.3,4.9,4.9,0,0,0-1.2,1.5,4.8,4.8,0,0,0-.6,2.1c0,.5,0,.9.2,1A2.7,2.7,0,0,0,214.6,71.6Z"/><path d="M218.5,69.4V67.8c0-.5.1-.8.4-.8l.6.2a1.6,1.6,0,0,1,.4.7l1.1-.7a2,2,0,0,1,1-.2c.7,0,1.1.1,1.1.5v.3l-.2.2c0,.1-.1.1-.1.2h-.2l-.5.3a5.2,5.2,0,0,0-1.1,1,4.2,4.2,0,0,0-.7,1.5,16.4,16.4,0,0,1-.7,2.5c-.3.5-.5.8-.8.8a.8.8,0,0,1-.7-.4,1.5,1.5,0,0,1-.2-.9A8.9,8.9,0,0,1,218,72a3.8,3.8,0,0,0,.4-1.3A5.3,5.3,0,0,0,218.5,69.4Z"/><path d="M233.9,71a4.9,4.9,0,0,1-2,.5h-1.6a1.9,1.9,0,0,0-.2.7.7.7,0,0,0,.8.8l1.8-.2.8-.2q.6,0,.6.3c0,.4-.3.8-.9,1.1a4.6,4.6,0,0,1-2.1.5,2.8,2.8,0,0,1-2-.8,2.8,2.8,0,0,1-.7-1.7,4.6,4.6,0,0,1,.6-2.2,5.8,5.8,0,0,1,1.5-1.9,3.1,3.1,0,0,1,1.9-.8,2.1,2.1,0,0,1,1.6.9,2.4,2.4,0,0,1,.8,1.8C234.8,70.2,234.5,70.6,233.9,71Zm-1-1.9-.6-.3c-.2,0-.4.1-.7.4a3.6,3.6,0,0,0-.8.9h.4c1.3,0,2-.3,2-.7A.5.5,0,0,0,232.9,69.1Z"/><path d="M240.6,67a1.7,1.7,0,0,1,1.3.7,2,2,0,0,1,.6,1.4,8.2,8.2,0,0,1-.4,2.6,13.8,13.8,0,0,1-.8,2c-.4.5-.7.7-1,.7s-.5-.2-.5-.7a10.8,10.8,0,0,1,.5-2,13,13,0,0,0,.4-1.9c0-.4-.1-.5-.2-.5h-.3l-.3.4-.3.3-.3.4c0,.2-.1.3-.2.5l-.3.5-.3.4c-.8,1.7-1.5,2.5-2,2.5a1.5,1.5,0,0,1-.8-.5c-.3-.4-.4-.6-.4-.8a1.4,1.4,0,0,1,.2-.7l.3-.8a3.5,3.5,0,0,0,.1-.6,1.3,1.3,0,0,0,.1-.6,3.5,3.5,0,0,1,.1-.6v-.6a8.3,8.3,0,0,1,.3-2.1l.2-.2a1.6,1.6,0,0,1,1,.5c.3.3.5.5.5.8a7.2,7.2,0,0,1-.5,2.5l1.7-2.6C239.8,67.4,240.3,67,240.6,67Z"/><path d="M243.3,72.2a4.9,4.9,0,0,1,.6-2.2,6.8,6.8,0,0,1,1.7-2.1,2.8,2.8,0,0,1,2-.9c.3,0,.6.3,1,.7a2.1,2.1,0,0,1,.5,1.2.3.3,0,0,1-.3.3h-.5l-.6-.2q-.3,0-.9.6a4,4,0,0,0-1,1.2,2.8,2.8,0,0,0-.5,1.2.8.8,0,0,0,.2.6h1.9l.8-.2.5-.2a.4.4,0,0,1,.4.4c0,.4-.4.8-1.1,1.2a4,4,0,0,1-2.2.7,2.7,2.7,0,0,1-1.6-.8A2.1,2.1,0,0,1,243.3,72.2Z"/><path d="M251.9,67a1.2,1.2,0,0,1,.9.6,3,3,0,0,1,.4,1.1c0,.2-.2.8-.5,2s-.7,2.1-1,3.1a.7.7,0,0,1-.7.6.9.9,0,0,1-.6-.3.8.8,0,0,1-.2-.6,8.4,8.4,0,0,1,.4-1.8c.2-1.1.4-1.9.5-2.6s.3-1.2.4-1.6S251.7,67,251.9,67Zm-.2-1.8a1.1,1.1,0,0,1,.3-.7.8.8,0,0,1,.7-.4c.2,0,.4.2.7.8a3.1,3.1,0,0,1,.5,1.1.5.5,0,0,1-.3.5l-.4.2a1.9,1.9,0,0,1-1-.5A1.4,1.4,0,0,1,251.7,65.2Z"/><path d="M263.6,67c.4,0,.7.3.9.8a2.4,2.4,0,0,1,.4,1.3,9.9,9.9,0,0,1-.3,1.9,10.1,10.1,0,0,1-.7,2.3c-.3.7-.7,1.1-1.1,1.1s-.5-.2-.5-.6a12.3,12.3,0,0,1,.4-2.1,8.2,8.2,0,0,0,.4-2c0-.3-.1-.4-.2-.4s-.4.2-.7.6a18,18,0,0,1-1,1.8l-.7,1.4-.2.5a.8.8,0,0,0-.2.4q-.5.8-1.2,0c-.3-.3-.4-.5-.4-.7s.1-.4.2-1.1a9,9,0,0,0,.2-2.4c0-.3,0-.5-.1-.5l-.4.3c-.1.3-.4.7-.7,1.3l-.8,1.5c-.8,1.3-1.4,2-1.8,2a1.5,1.5,0,0,1-.8-.5,2.8,2.8,0,0,1-.5-.8,4.3,4.3,0,0,1,.4-1.4,14.3,14.3,0,0,0,.4-2.2c0-.8.1-1.5.1-1.9s.2-.7.4-.7a1.6,1.6,0,0,1,1,.5c.4.3.5.5.5.8a12.2,12.2,0,0,1-.6,2.9,14.4,14.4,0,0,1,1.7-3.2,2.1,2.1,0,0,1,1.4-.9,1.7,1.7,0,0,1,.9.7,2.2,2.2,0,0,1,.6,1.3v1a6.3,6.3,0,0,1,1.3-2A2.4,2.4,0,0,1,263.6,67Z"/><path d="M271.7,70.3c.2.2.3.3.3.5s-.1.3-.2.7a5.1,5.1,0,0,0-.2.9,4.3,4.3,0,0,1-.1.5c0,.2,0,.3-.1.3v.3c0,.1,0,.2-.1.2V74h-.1c0,.1-.1.1-.1.2h-.3c-.1,0-.3-.1-.5-.4a3,3,0,0,1-.4-1,3.9,3.9,0,0,1-2.3,1.4,1.9,1.9,0,0,1-1.3-.7,1.7,1.7,0,0,1-.7-1.3,5.3,5.3,0,0,1,.6-2,9.1,9.1,0,0,1,1.7-2.3A3.1,3.1,0,0,1,270,67a2.6,2.6,0,0,1,1.4.7c.5.5.8.9.8,1.3A2.7,2.7,0,0,1,271.7,70.3Zm-4.1,2.3a2.8,2.8,0,0,0,1.5-.8,3.9,3.9,0,0,0,1.2-1.9c0-.2.1-.2.2-.2s-.1-.9-.3-.9a1.9,1.9,0,0,0-1.2.8,6.1,6.1,0,0,0-1.2,1.6,2.4,2.4,0,0,0-.4,1.2v.2Z"/><path d="M284.5,63c.3,0,.6.2.9.7a1.7,1.7,0,0,1,.6,1.1c0,.2-.2,1-.5,2.3s-.5,2.1-.6,2.4c-.8,3.3-1.3,4.9-1.7,4.9a.7.7,0,0,1-.6-.4.8.8,0,0,1-.4-.7h0c-1,.8-1.6,1.2-2.1,1.2a1.5,1.5,0,0,1-1.2-.7,2.1,2.1,0,0,1-.5-1.2,5.7,5.7,0,0,1,.1-1.2,12.1,12.1,0,0,1,.5-1.4,9.1,9.1,0,0,1,.7-1.4,3.2,3.2,0,0,1,1-1,2.1,2.1,0,0,1,1.2-.5,1.7,1.7,0,0,1,1.5,1,25.8,25.8,0,0,0,.7-4.5A.5.5,0,0,1,284.5,63Zm-4.2,9.6a2.2,2.2,0,0,0,1.2-.6,4,4,0,0,0,1.3-1.6v-.5a1.1,1.1,0,0,0-.3-.7l-.4-.4a1.4,1.4,0,0,0-.9.5l-.6,1.1a7.1,7.1,0,0,0-.5,2h.2Z"/><path d="M291.6,71a4.9,4.9,0,0,1-2,.5H288a1.7,1.7,0,0,0-.1.7c0,.3,0,.5.1.6l.6.2,1.9-.2.8-.2c.3,0,.5.1.5.3s-.3.8-.9,1.1a4.6,4.6,0,0,1-2.1.5,2.4,2.4,0,0,1-1.9-.8,2.5,2.5,0,0,1-.8-1.7,4.6,4.6,0,0,1,.6-2.2,6,6,0,0,1,1.6-1.9,2.9,2.9,0,0,1,1.8-.8,2.4,2.4,0,0,1,1.7.9,2.7,2.7,0,0,1,.7,1.8C292.5,70.2,292.2,70.6,291.6,71Zm-1-1.9-.6-.3c-.2,0-.4.1-.7.4l-.8.9h.4c1.3,0,2-.3,2-.7A.5.5,0,0,0,290.6,69.1Z"/><path d="M96.4,88.8a4.9,4.9,0,0,1,.6-2.2,6.7,6.7,0,0,1,1.7-2,3,3,0,0,1,2-.9,1.4,1.4,0,0,1,1,.6,1.9,1.9,0,0,1,.5,1.2c0,.3-.1.4-.3.4l-.5-.2h-.6a1.4,1.4,0,0,0-.9.5,6.4,6.4,0,0,0-1,1.3,2.4,2.4,0,0,0-.4,1.2c0,.3,0,.4.1.5a1.3,1.3,0,0,0,.8.2l1.2-.2.7-.2h.5c.3,0,.4.1.4.3s-.4.9-1.1,1.3a4.7,4.7,0,0,1-2.2.7,2.7,2.7,0,0,1-1.6-.8A2,2,0,0,1,96.4,88.8Z"/><path d="M108.4,84a.5.5,0,0,1,.5-.3c.2,0,.4.2.7.6a1.9,1.9,0,0,1,.5,1,13.9,13.9,0,0,1-.7,2.1c-.4,1.3-.7,2.3-1,3.1s-.3.6-.6.6a.5.5,0,0,1-.5-.3.8.8,0,0,1-.2-.6,3.7,3.7,0,0,1,.2-1.3c-1,1.4-1.8,2.2-2.4,2.2a2.2,2.2,0,0,1-1.7-1.8,9,9,0,0,1,.8-3.5c.5-1.4,1-2.1,1.4-2.1a1,1,0,0,1,.8.4,1.1,1.1,0,0,1,.3.8,2.5,2.5,0,0,1-.4.9,10.5,10.5,0,0,0-1.1,3.4h.1l.8-.6a14,14,0,0,0,1.3-2A12.3,12.3,0,0,0,108.4,84Z"/><path d="M116.4,87a.5.5,0,0,1,.3.4l-.2.8a4.6,4.6,0,0,1-.3.9v.5a.4.4,0,0,0-.1.3v.3c-.1.1-.1.1-.1.2v.4a.1.1,0,0,0-.1.1l-.3.2c-.2,0-.3-.2-.5-.4a1.8,1.8,0,0,1-.4-1,3.9,3.9,0,0,1-2.3,1.4,2.1,2.1,0,0,1-1.3-.7,1.9,1.9,0,0,1-.7-1.4,4.9,4.9,0,0,1,.6-1.9,7.3,7.3,0,0,1,1.6-2.3,3.1,3.1,0,0,1,2.2-1.1,1.9,1.9,0,0,1,1.3.7,1.7,1.7,0,0,1,.8,1.3A2.7,2.7,0,0,1,116.4,87Zm-4.2,2.3a3.3,3.3,0,0,0,1.6-.8,3.1,3.1,0,0,0,1.1-2c0-.1.1-.2.3-.2s-.1-.8-.3-.8a1.9,1.9,0,0,0-1.3.7l-1.1,1.6a3.6,3.6,0,0,0-.5,1.3.1.1,0,0,0,.1.1Z"/><path d="M120.5,80.3a1.6,1.6,0,0,1,.5,1.2,17.2,17.2,0,0,1-.1,2c-.1,1-.3,1.8-.4,2.4-.8,3.4-1.3,5.2-1.6,5.2s-.5-.2-.8-.6a1.5,1.5,0,0,1-.5-.8s.1-.5.4-1.5a37.2,37.2,0,0,0,.8-3.7,34.2,34.2,0,0,0,.4-4.4c0-.3.1-.4.4-.4S120.1,79.9,120.5,80.3Z"/><path d="M126,92.1l1-.3a.8.8,0,0,1,.6.2c.1.2.2.3.2.4a.5.5,0,0,1-.2.4l-.8.6-1,.7-.8.6-.6.2-.5-.4a1.6,1.6,0,0,1-.3-.8,21.3,21.3,0,0,1,1.2-3.2,2.7,2.7,0,0,1-1.4.6c-.4,0-.8-.3-1.3-.8a2.4,2.4,0,0,1-.7-1.3,4.3,4.3,0,0,1,.4-1.4,16.2,16.2,0,0,1,1-1.8,6.7,6.7,0,0,1,1.4-1.5,2.9,2.9,0,0,1,1.6-.6,1.7,1.7,0,0,1,1.4.7,1.7,1.7,0,0,1,.6,1.2c0,.3-.1.4-.3.4l-.6-.3a.9.9,0,0,0-.6-.3,2.3,2.3,0,0,0-1.4.8,6.5,6.5,0,0,0-1.3,1.6,3.6,3.6,0,0,0-.5,1.3h.2a3.1,3.1,0,0,0,1.5-.9,3.4,3.4,0,0,0,1.3-2c0-.1.1-.2.3-.2a1.6,1.6,0,0,1,.9.4q.6.3.6.6l-.3.9c-.1.4-.4,1.1-.7,1.9A16.5,16.5,0,0,0,126,92.1Z"/><path d="M133.8,84a.5.5,0,0,1,.5-.3c.2,0,.5.2.8.6a1.6,1.6,0,0,1,.4,1q0,.2-.6,2.1c-.5,1.3-.8,2.3-1.1,3.1s-.3.6-.6.6a.5.5,0,0,1-.5-.3.8.8,0,0,1-.2-.6,10.5,10.5,0,0,1,.2-1.3c-1,1.4-1.8,2.2-2.4,2.2s-.6-.2-1.1-.6a1.7,1.7,0,0,1-.6-1.2,11.3,11.3,0,0,1,.8-3.5c.5-1.4,1-2.1,1.4-2.1a.9.9,0,0,1,.8.4,1.1,1.1,0,0,1,.3.8,2.5,2.5,0,0,1-.4.9,9.6,9.6,0,0,0-1,3.4h0c.2,0,.4-.2.8-.6a13.3,13.3,0,0,0,1.4-2A20.3,20.3,0,0,0,133.8,84Z"/><path d="M137.4,83.7a1.2,1.2,0,0,1,.9.6,2,2,0,0,1,.3,1.1,12.1,12.1,0,0,1-.4,1.9c-.4,1.1-.7,2.2-1,3.2a.6.6,0,0,1-.7.5.7.7,0,0,1-.6-.2,1.4,1.4,0,0,1-.2-.6,7.7,7.7,0,0,1,.4-1.9c.2-1,.4-1.9.5-2.6a7.5,7.5,0,0,1,.4-1.5C137.1,83.8,137.2,83.7,137.4,83.7Zm-.3-1.8a2,2,0,0,1,.4-.8c.2-.2.4-.4.6-.4s.5.3.8.8a2.4,2.4,0,0,1,.4,1.1c0,.3,0,.4-.2.6l-.5.2q-.3,0-.9-.6A1.4,1.4,0,0,1,137.1,81.9Z"/><path d="M144.9,87.6a3.5,3.5,0,0,1-1.9.6l-1.7-.2a2.2,2.2,0,0,0-.1.8c0,.3,0,.4.1.5s.3.2.7.2l1.8-.2.8-.2c.4,0,.6.1.6.4s-.3.7-1,1.1a4.6,4.6,0,0,1-2.1.5,2.6,2.6,0,0,1-1.9-.8,2.4,2.4,0,0,1-.7-1.8,4.9,4.9,0,0,1,.6-2.2,9,9,0,0,1,1.5-1.9,2.7,2.7,0,0,1,1.8-.7,2.2,2.2,0,0,1,1.7.9,2.9,2.9,0,0,1,.8,1.8C145.9,86.8,145.5,87.2,144.9,87.6Zm-1-1.9-.6-.3-.6.4a3.9,3.9,0,0,0-.8,1h.3c1.3,0,2-.2,2-.7Z"/><path d="M147.2,86.1V84.5c0-.5.2-.8.5-.8l.6.2c.2.1.3.4.4.7a4.1,4.1,0,0,1,1.1-.7l1-.3c.7,0,1,.2,1,.5s0,.3-.1.4-.1.1-.1.2h-.2V85l-.5.3a3.1,3.1,0,0,0-1.1.9,3.4,3.4,0,0,0-.7,1.6,11,11,0,0,1-.8,2.4c-.2.6-.5.8-.8.8a.5.5,0,0,1-.6-.4,1.3,1.3,0,0,1-.3-.8,3,3,0,0,1,.3-1.1c.2-.5.3-1,.4-1.3A5.3,5.3,0,0,0,147.2,86.1Z"/><path d="M158.7,83.7a1.2,1.2,0,0,1,.9.6,1.5,1.5,0,0,1,.4,1.1l-.5,1.9c-.3,1.1-.7,2.2-1,3.2s-.3.5-.7.5-.4,0-.5-.2a.9.9,0,0,1-.3-.6c0-.3.2-.9.4-1.9s.4-1.9.6-2.6a9.6,9.6,0,0,1,.3-1.5C158.4,83.8,158.5,83.7,158.7,83.7Zm-.2-1.8a1.6,1.6,0,0,1,.3-.8,1.3,1.3,0,0,1,.7-.4c.2,0,.4.3.7.8a3.1,3.1,0,0,1,.5,1.1,1.1,1.1,0,0,1-.2.6l-.5.2c-.3,0-.6-.2-1-.6A1.6,1.6,0,0,1,158.5,81.9Z"/><path d="M166.1,83.7a1.9,1.9,0,0,1,1.3.6,3,3,0,0,1,.5,1.5,7.7,7.7,0,0,1-.4,2.5,5.5,5.5,0,0,1-.8,2,1.4,1.4,0,0,1-1,.8c-.3,0-.4-.3-.4-.7a8,8,0,0,1,.4-2.1,5.9,5.9,0,0,0,.4-1.8c0-.4-.1-.6-.2-.6l-.3.2-.3.3-.3.4a.8.8,0,0,0-.2.4l-.3.4-.3.5a1.7,1.7,0,0,1-.2.5c-.9,1.6-1.6,2.5-2.1,2.5s-.5-.2-.8-.6a1.3,1.3,0,0,1-.4-.7,1.2,1.2,0,0,1,.2-.7,3.4,3.4,0,0,1,.3-.8c0-.2.1-.4.1-.6a1.5,1.5,0,0,0,.1-.7,1.1,1.1,0,0,0,.1-.5,2,2,0,0,1,.1-.7,5.4,5.4,0,0,1,.2-2c0-.2.1-.2.2-.2a1.4,1.4,0,0,1,1,.4,1,1,0,0,1,.5.8,10.3,10.3,0,0,1-.4,2.6,15.9,15.9,0,0,1,1.7-2.7C165.3,84,165.7,83.7,166.1,83.7Z"/><path d="M173.3,83.7a1.4,1.4,0,0,1,1,.6,2.2,2.2,0,0,1,.6,1.2.3.3,0,0,1-.3.3h-1.2a2.2,2.2,0,0,0-1,.2c-.4.2-.6.3-.6.6l.3.4.9.6a2,2,0,0,1,.8.8,1.5,1.5,0,0,1,.4,1.1,1.7,1.7,0,0,1-.8,1.2,3.7,3.7,0,0,1-2.1.6,3.4,3.4,0,0,1-2-.6,1.4,1.4,0,0,1-.8-1.1.5.5,0,0,1,.5-.5h.4a3.4,3.4,0,0,0,1.8.4c.7,0,1-.1,1-.2s-.1-.4-.4-.7l-.8-.6a2.4,2.4,0,0,1-.9-.8,1,1,0,0,1-.4-.8c0-.5.4-1.1,1.4-1.7A4.2,4.2,0,0,1,173.3,83.7Z"/><path d="M178.7,86.5l-.5,1.7-.3,1.1s0,.1.2.1l1.1-.4,1.1-.3c.2,0,.3.2.3.5s-.3.7-.9,1.2a4,4,0,0,1-2,.7,2.1,2.1,0,0,1-1.1-.5,1.5,1.5,0,0,1-.6-1.1,8.4,8.4,0,0,1,.4-1.8l.6-1.9-.9.2-.6-.4a1.3,1.3,0,0,1-.3-.7c0-.3.8-.6,2.2-.8a11.1,11.1,0,0,0,.3-2.3.4.4,0,0,1,.4-.4,1.6,1.6,0,0,1,1,.4,1.2,1.2,0,0,1,.6.9,7.4,7.4,0,0,1-.2,1.2h1c.7,0,1.1.1,1.1.5s-.2.4-.6.5l-1.9.5Z"/><path d="M183.4,83.7a1,1,0,0,1,.9.6,1.5,1.5,0,0,1,.4,1.1l-.5,1.9a29.9,29.9,0,0,1-1,3.2c-.1.4-.3.5-.7.5s-.4,0-.5-.2a.7.7,0,0,1-.2-.6,12.9,12.9,0,0,1,.3-1.9c.3-1,.4-1.9.6-2.6a9.6,9.6,0,0,1,.3-1.5C183.1,83.8,183.3,83.7,183.4,83.7Zm-.2-1.8a1.6,1.6,0,0,1,.3-.8c.3-.2.5-.4.7-.4s.5.3.8.8a2.4,2.4,0,0,1,.4,1.1,1.1,1.1,0,0,1-.2.6l-.5.2c-.3,0-.6-.2-1-.6A1.6,1.6,0,0,1,183.2,81.9Z"/><path d="M188.9,86.5c-.2.4-.3,1-.6,1.7l-.3,1.1h.3l1.1-.4,1-.3c.3,0,.4.2.4.5s-.3.7-1,1.2a3.7,3.7,0,0,1-2,.7,2.5,2.5,0,0,1-1.1-.5,1.5,1.5,0,0,1-.6-1.1,8.4,8.4,0,0,1,.4-1.8l.6-1.9-.8.2a.7.7,0,0,1-.6-.4,1.3,1.3,0,0,1-.3-.7c0-.3.7-.6,2.2-.8a11.1,11.1,0,0,0,.3-2.3c0-.3.1-.4.4-.4a1.4,1.4,0,0,1,.9.4,1.2,1.2,0,0,1,.6.9,3,3,0,0,1-.2,1.2h1.1c.7,0,1,.1,1,.5s-.2.4-.6.5l-1.9.5A5.3,5.3,0,0,0,188.9,86.5Z"/><path d="M197,84c0-.2.2-.3.4-.3s.5.2.8.6a1.9,1.9,0,0,1,.5,1c0,.1-.3.8-.7,2.1s-.8,2.3-1,3.1a.7.7,0,0,1-.7.6c-.2,0-.3-.1-.5-.3s-.1-.3-.1-.6a7.2,7.2,0,0,1,.1-1.3c-1,1.4-1.7,2.2-2.3,2.2a1.7,1.7,0,0,1-1.1-.6,1.9,1.9,0,0,1-.7-1.2,11.3,11.3,0,0,1,.8-3.5q.8-2.1,1.5-2.1a.8.8,0,0,1,.7.4,1.1,1.1,0,0,1,.3.8,4.2,4.2,0,0,1-.3.9,10.5,10.5,0,0,0-1.1,3.4h.1l.8-.6a14,14,0,0,0,1.3-2A12.3,12.3,0,0,0,197,84Z"/><path d="M198.9,88.8a4.9,4.9,0,0,1,.6-2.2,5.5,5.5,0,0,1,1.7-2,3,3,0,0,1,2-.9,1.4,1.4,0,0,1,1,.6,1.9,1.9,0,0,1,.5,1.2c0,.3-.1.4-.3.4l-.5-.2h-.6a1.4,1.4,0,0,0-.9.5,6.4,6.4,0,0,0-1,1.3,2.8,2.8,0,0,0-.5,1.2.6.6,0,0,0,.2.5,1.3,1.3,0,0,0,.8.2l1.2-.2.7-.2h.5c.2,0,.4.1.4.3s-.4.9-1.1,1.3a5.1,5.1,0,0,1-2.2.7,2.7,2.7,0,0,1-1.6-.8A2,2,0,0,1,198.9,88.8Z"/><path d="M207.5,83.7a1.2,1.2,0,0,1,.9.6,2.1,2.1,0,0,1,.4,1.1l-.5,1.9c-.3,1.1-.7,2.2-1,3.2s-.3.5-.7.5-.4,0-.5-.2a.9.9,0,0,1-.3-.6,7.7,7.7,0,0,1,.4-1.9c.2-1,.4-1.9.5-2.6l.4-1.5C207.2,83.8,207.3,83.7,207.5,83.7Zm-.2-1.8a1.6,1.6,0,0,1,.3-.8,1.3,1.3,0,0,1,.7-.4c.2,0,.4.3.7.8a3.1,3.1,0,0,1,.5,1.1.7.7,0,0,1-.3.6l-.4.2c-.3,0-.6-.2-1-.6A1.6,1.6,0,0,1,207.3,81.9Z"/><path d="M210.6,85.3c.8-1.1,1.5-1.6,2.2-1.6a2.4,2.4,0,0,1,1.8.7,2.7,2.7,0,0,1,.8,1.9,6.3,6.3,0,0,1-.5,2.2,6.5,6.5,0,0,1-1.5,1.8,3.2,3.2,0,0,1-2,.8,1.9,1.9,0,0,1-1.3-.7,2.7,2.7,0,0,1-.6-1.7A6,6,0,0,1,210.6,85.3Zm2.3,2.9a3.8,3.8,0,0,0,.6-1.9,3.1,3.1,0,0,0-.2-1.3,2.8,2.8,0,0,0-1.3,1.5,4.5,4.5,0,0,0-.6,2,2.3,2.3,0,0,0,.2,1.1A2.6,2.6,0,0,0,212.9,88.2Zm.8-4.9a.5.5,0,0,1-.4-.2.8.8,0,0,1-.2-.5c0-.2.1-.3.2-.5l.5-.6c.3-.2.5-.3.6-.5l.4-.3.3-.3.3-.2h.3a.8.8,0,0,1,.7.4,1.3,1.3,0,0,1,.3.7,4.3,4.3,0,0,1-.1.5l-.2.2-.4.2-.5.3-.7.3-.4.3Z"/><path d="M221.3,83.7a1.8,1.8,0,0,1,1.3.6,2.4,2.4,0,0,1,.6,1.5,11.8,11.8,0,0,1-.4,2.5,7.7,7.7,0,0,1-.9,2c-.3.5-.6.8-.9.8s-.5-.3-.5-.7a5.9,5.9,0,0,1,.5-2.1,9.2,9.2,0,0,0,.3-1.8c0-.4,0-.6-.1-.6l-.4.2-.3.3-.2.4-.3.4-.3.4-.2.5-.3.5c-.9,1.6-1.6,2.5-2.1,2.5s-.4-.2-.7-.6a1.8,1.8,0,0,1-.5-.7l.2-.7a2,2,0,0,0,.3-.8l.2-.6c0-.2.1-.4.1-.7v-.5a1.5,1.5,0,0,0,.1-.7c.1-1.2.2-1.9.2-2l.2-.2a1.7,1.7,0,0,1,1.1.4,1.5,1.5,0,0,1,.5.8,11.4,11.4,0,0,1-.5,2.6,26.2,26.2,0,0,1,1.7-2.7C220.5,84,220.9,83.7,221.3,83.7Z"/><path d="M234,83.7a1.5,1.5,0,0,1,1.1.6,2.8,2.8,0,0,1,.5,1.2.3.3,0,0,1-.3.3h-1.2l-1,.2c-.4.2-.6.3-.6.6l.4.4.8.6a3.2,3.2,0,0,1,.9.8,2,2,0,0,1,.3,1.1,1.4,1.4,0,0,1-.8,1.2,3.6,3.6,0,0,1-2,.6,3.2,3.2,0,0,1-2-.6c-.6-.3-.9-.7-.9-1.1a.5.5,0,0,1,.5-.5h.4a3.4,3.4,0,0,0,1.8.4c.7,0,1.1-.1,1.1-.2s-.2-.4-.4-.7l-.9-.6-.9-.8a1,1,0,0,1-.4-.8c0-.5.5-1.1,1.4-1.7A4.6,4.6,0,0,1,234,83.7Z"/><path d="M237.1,85.3c.8-1.1,1.5-1.6,2.2-1.6a2.5,2.5,0,0,1,1.9.7,2.6,2.6,0,0,1,.7,1.9,6.3,6.3,0,0,1-.5,2.2,5.2,5.2,0,0,1-1.5,1.8,2.9,2.9,0,0,1-1.9.8,1.9,1.9,0,0,1-1.4-.7,2.7,2.7,0,0,1-.6-1.7A6,6,0,0,1,237.1,85.3Zm2.4,2.9a4.9,4.9,0,0,0,.5-1.9,3.1,3.1,0,0,0-.2-1.3,3.2,3.2,0,0,0-1.2,1.5,3.7,3.7,0,0,0-.7,2,2.3,2.3,0,0,0,.2,1.1A3.1,3.1,0,0,0,239.5,88.2Z"/><path d="M242.6,88.8a4.9,4.9,0,0,1,.6-2.2,6.7,6.7,0,0,1,1.7-2,3,3,0,0,1,2-.9,1.4,1.4,0,0,1,1,.6,2.2,2.2,0,0,1,.6,1.2.4.4,0,0,1-.4.4l-.5-.2H247a1.4,1.4,0,0,0-.9.5,6.4,6.4,0,0,0-1,1.3,2.4,2.4,0,0,0-.4,1.2c0,.3,0,.4.1.5a1.3,1.3,0,0,0,.8.2l1.2-.2.7-.2h.5c.3,0,.4.1.4.3s-.4.9-1.1,1.3a4.7,4.7,0,0,1-2.2.7,2.7,2.7,0,0,1-1.6-.8A2,2,0,0,1,242.6,88.8Z"/><path d="M251.2,83.7a1.2,1.2,0,0,1,.9.6,1.5,1.5,0,0,1,.4,1.1l-.5,1.9c-.3,1.1-.7,2.2-1,3.2s-.3.5-.7.5-.4,0-.5-.2a.9.9,0,0,1-.3-.6c0-.3.2-.9.4-1.9s.4-1.9.6-2.6a9.6,9.6,0,0,1,.3-1.5C250.9,83.8,251.1,83.7,251.2,83.7Zm-.2-1.8a1.6,1.6,0,0,1,.3-.8c.3-.2.5-.4.7-.4s.5.3.7.8a3.1,3.1,0,0,1,.5,1.1,1.1,1.1,0,0,1-.2.6l-.5.2c-.3,0-.6-.2-1-.6A1.6,1.6,0,0,1,251,81.9Z"/><path d="M259.4,87a.8.8,0,0,1,.2.4,3.2,3.2,0,0,1-.1.8,9.2,9.2,0,0,0-.3.9.7.7,0,0,1-.1.5v1c0,.1,0,.2-.1.2a.1.1,0,0,1-.1.1.2.2,0,0,1-.2.2c-.2,0-.3-.2-.5-.4a3.1,3.1,0,0,1-.5-1c-.9.9-1.6,1.4-2.2,1.4a2.6,2.6,0,0,1-1.4-.7,2.3,2.3,0,0,1-.7-1.4,4.9,4.9,0,0,1,.6-1.9,9.8,9.8,0,0,1,1.7-2.3,2.7,2.7,0,0,1,2.1-1.1,2.1,2.1,0,0,1,1.4.7c.5.5.8.9.8,1.3A2.7,2.7,0,0,1,259.4,87Zm-4.2,2.3a2.8,2.8,0,0,0,1.5-.8,2.8,2.8,0,0,0,1.2-2c0-.1.1-.2.3-.2s-.2-.8-.3-.8a1.9,1.9,0,0,0-1.3.7,7.6,7.6,0,0,0-1.1,1.6,3.6,3.6,0,0,0-.5,1.3h.2Z"/><path d="M263.5,80.3a2.1,2.1,0,0,1,.5,1.2,17.2,17.2,0,0,1-.1,2c-.2,1-.3,1.8-.4,2.4-.8,3.4-1.3,5.2-1.7,5.2s-.4-.2-.7-.6a1.5,1.5,0,0,1-.5-.8s.1-.5.4-1.5.5-2.2.8-3.7a34.2,34.2,0,0,0,.4-4.4c0-.3.1-.4.4-.4S263.1,79.9,263.5,80.3Z"/><path d="M270.9,85.3a2.9,2.9,0,0,1,2.2-1.6,2.4,2.4,0,0,1,1.8.7,2.7,2.7,0,0,1,.8,1.9,6.3,6.3,0,0,1-.5,2.2,6.5,6.5,0,0,1-1.5,1.8,3.2,3.2,0,0,1-2,.8,1.9,1.9,0,0,1-1.3-.7,2.7,2.7,0,0,1-.6-1.7A6,6,0,0,1,270.9,85.3Zm2.3,2.9a3.8,3.8,0,0,0,.6-1.9,1.9,1.9,0,0,0-.3-1.3,3.2,3.2,0,0,0-1.2,1.5,4.5,4.5,0,0,0-.6,2,2.3,2.3,0,0,0,.2,1.1A3,3,0,0,0,273.2,88.2Z"/><path d="M95.5,100.4c.3,0,.7.3,1.1.9a3.5,3.5,0,0,1,.6,1.9,2.7,2.7,0,0,1-.5,1.3,4.4,4.4,0,0,1-1.2,1.5,6.6,6.6,0,0,1-1.7,1.2,4.5,4.5,0,0,1-1.8.5h-.2c-.6,2.5-1,3.7-1.3,3.7s-.4-.2-.6-.5a2,2,0,0,1-.4-.8,17.2,17.2,0,0,1,.5-2,36.5,36.5,0,0,0,1.2-7.6.4.4,0,0,1,.4-.4,1.6,1.6,0,0,1,.9.4,2.1,2.1,0,0,1,.6,1A3.3,3.3,0,0,1,95.5,100.4Zm-1.2,4.3a2.4,2.4,0,0,0,1-1.7c0-.5-.1-.7-.4-.7a2.2,2.2,0,0,0-1.3.6l-.6.9a3.9,3.9,0,0,0-.5,1.3l-.3.9A3.9,3.9,0,0,0,94.3,104.7Z"/><path d="M99,101.9a3.1,3.1,0,0,1,2.2-1.6,2.5,2.5,0,0,1,1.8.8,2.4,2.4,0,0,1,.7,1.8,4.4,4.4,0,0,1-.5,2.2,4.5,4.5,0,0,1-1.4,1.9,3.1,3.1,0,0,1-2,.7,1.5,1.5,0,0,1-1.3-.7,2.5,2.5,0,0,1-.6-1.7A6.2,6.2,0,0,1,99,101.9Zm2.3,3a4.1,4.1,0,0,0,.6-2,1.7,1.7,0,0,0-.3-1.2,3.2,3.2,0,0,0-1.2,1.5,4.1,4.1,0,0,0-.6,2,1.9,1.9,0,0,0,.2,1A2.7,2.7,0,0,0,101.3,104.9Z"/><path d="M107.4,97a2.1,2.1,0,0,1,.5,1.2c0,.3-.1,1-.2,2s-.2,1.8-.3,2.3c-.8,3.5-1.4,5.2-1.7,5.2s-.4-.2-.8-.5a1.2,1.2,0,0,1-.4-.8,8,8,0,0,1,.4-1.5c.2-1,.5-2.2.7-3.8a22.2,22.2,0,0,0,.4-4.3.5.5,0,0,1,.5-.5C106.7,96.3,107,96.6,107.4,97Z"/><path d="M110.2,100.3a1.2,1.2,0,0,1,.9.6,3,3,0,0,1,.4,1.1c0,.2-.2.8-.5,2s-.7,2.1-1,3.1a.7.7,0,0,1-.7.6l-.6-.2a1.4,1.4,0,0,1-.2-.6c0-.2.1-.4.1-.7a10.4,10.4,0,0,0,.3-1.2,6.5,6.5,0,0,0,.2-1.1,3,3,0,0,0,.2-1,5.1,5.1,0,0,0,.2-.9,2.4,2.4,0,0,1,.2-.8C109.8,100.6,110,100.3,110.2,100.3Zm.7-.3-.4-.2c-.1-.2-.2-.3-.2-.5a1.4,1.4,0,0,1,.2-.6l.5-.5a1.7,1.7,0,0,0,.6-.6l.4-.3.3-.2.3-.2h.3a.8.8,0,0,1,.7.4,1.9,1.9,0,0,1,.2.7v.4c0,.1-.1.2-.2.3l-.4.2-.5.3-.7.3-.4.3Z"/><path d="M115.3,103.1a15.4,15.4,0,0,1-.5,1.7,9,9,0,0,0-.3,1.2h.2l1.1-.3,1.1-.3c.2,0,.3.1.3.5s-.3.7-.9,1.1a3.2,3.2,0,0,1-2,.7,2.1,2.1,0,0,1-1.1-.5,1.4,1.4,0,0,1-.6-1,6.5,6.5,0,0,1,.4-1.8l.6-1.9-.9.2-.6-.4a1.6,1.6,0,0,1-.3-.8c0-.3.8-.6,2.2-.8a9.7,9.7,0,0,0,.3-2.3.4.4,0,0,1,.4-.4,1.9,1.9,0,0,1,1,.5c.4.3.6.6.6.8a10.5,10.5,0,0,1-.2,1.3h1c.7,0,1.1.2,1.1.5s-.2.4-.6.6l-1.9.4A7.6,7.6,0,0,1,115.3,103.1Z"/><path d="M120,100.3a1,1,0,0,1,.9.6,1.9,1.9,0,0,1,.4,1.1c0,.2-.2.8-.5,2a28.1,28.1,0,0,1-1,3.1.7.7,0,0,1-.7.6l-.5-.2a.8.8,0,0,1-.2-.7,15,15,0,0,1,.3-1.8c.3-1,.4-1.9.6-2.6a15.7,15.7,0,0,1,.3-1.6C119.7,100.5,119.9,100.3,120,100.3Zm-.2-1.7a1.3,1.3,0,0,1,.3-.8c.3-.3.5-.4.7-.4s.5.3.8.8a2.4,2.4,0,0,1,.4,1.1.8.8,0,0,1-.2.5l-.5.2a1.9,1.9,0,0,1-1-.5A2.1,2.1,0,0,1,119.8,98.6Z"/><path d="M122.1,105.5a4.9,4.9,0,0,1,.6-2.2,8.7,8.7,0,0,1,1.7-2.1,2.9,2.9,0,0,1,2-.8,1.4,1.4,0,0,1,1,.6,1.7,1.7,0,0,1,.6,1.2c0,.2-.2.3-.4.3h-.5l-.6-.2q-.3,0-.9.6a6.3,6.3,0,0,0-1,1.2,2.4,2.4,0,0,0-.4,1.2c0,.3,0,.5.1.6h2l.8-.2.4-.2c.3,0,.4.1.4.4s-.4.8-1.1,1.3a4.6,4.6,0,0,1-2.2.6,2.7,2.7,0,0,1-1.6-.8A2.1,2.1,0,0,1,122.1,105.5Z"/><path d="M135.2,103.6c.1.2.2.3.2.5a2.6,2.6,0,0,1-.1.7,9.2,9.2,0,0,0-.3.9c0,.3,0,.4-.1.5v.3a.4.4,0,0,1-.1.3v.5a.3.3,0,0,1-.1.2h-.1c0,.1-.1.1-.2.1s-.3-.1-.5-.4a3.1,3.1,0,0,1-.5-1c-.9.9-1.6,1.4-2.2,1.4a2.1,2.1,0,0,1-1.4-.7,2.1,2.1,0,0,1-.7-1.3,5.3,5.3,0,0,1,.6-2,12.4,12.4,0,0,1,1.7-2.3,3.1,3.1,0,0,1,2.1-1.1,2.6,2.6,0,0,1,1.4.7c.5.5.8.9.8,1.3A2.4,2.4,0,0,1,135.2,103.6Zm-4.2,2.3a2.8,2.8,0,0,0,1.5-.8,2.6,2.6,0,0,0,1.2-1.9c0-.1.1-.2.3-.2s-.2-.8-.3-.8a1.9,1.9,0,0,0-1.3.7,6.1,6.1,0,0,0-1.2,1.6,2.7,2.7,0,0,0-.4,1.2v.2Z"/><path d="M139.2,107.6a3.7,3.7,0,0,1-.9,2.3c-.6.8-1.1,1.2-1.6,1.2s-.4-.1-.4-.3l.3-.6a3.9,3.9,0,0,0,.9-1.9.5.5,0,0,0-.3-.5,1,1,0,0,0-.5-.4c-.1-.2-.2-.3-.2-.5a.9.9,0,0,1,.4-.6,1.4,1.4,0,0,1,.9-.5,1.2,1.2,0,0,1,.9.6A2.1,2.1,0,0,1,139.2,107.6Z"/><path d="M148.5,97a1.7,1.7,0,0,1,.6,1.2c0,.3-.1,1-.2,2a20.7,20.7,0,0,1-.4,2.3c-.8,3.5-1.3,5.2-1.6,5.2a2.1,2.1,0,0,1-1.3-1.3c0-.1.2-.6.4-1.5s.5-2.2.8-3.8a22.2,22.2,0,0,0,.4-4.3c0-.3.1-.5.4-.5S148.1,96.6,148.5,97Z"/><path d="M155.5,103.6c.1.2.2.3.2.5a2.6,2.6,0,0,1-.1.7,9.2,9.2,0,0,0-.3.9c0,.3,0,.4-.1.5v.3a.4.4,0,0,1-.1.3v.5a.3.3,0,0,1-.1.2h-.1c0,.1-.1.1-.2.1s-.3-.1-.5-.4a3.1,3.1,0,0,1-.5-1c-.9.9-1.6,1.4-2.2,1.4a1.7,1.7,0,0,1-1.3-.7,1.9,1.9,0,0,1-.8-1.3,4.3,4.3,0,0,1,.7-2,8.7,8.7,0,0,1,1.6-2.3,3.1,3.1,0,0,1,2.1-1.1,2.6,2.6,0,0,1,1.4.7c.5.5.8.9.8,1.3A2.4,2.4,0,0,1,155.5,103.6Zm-4.2,2.3a2.8,2.8,0,0,0,1.5-.8,2.6,2.6,0,0,0,1.2-1.9c0-.1.1-.2.3-.2s-.2-.8-.3-.8a1.9,1.9,0,0,0-1.3.7,5.7,5.7,0,0,0-1.1,1.6,3.3,3.3,0,0,0-.5,1.2v.2Z"/><path d="M168.3,96.3c.2,0,.5.2.9.7a2.1,2.1,0,0,1,.5,1.1,10.2,10.2,0,0,1-.5,2.3q-.4,1.9-.6,2.4c-.7,3.3-1.3,4.9-1.6,4.9a.9.9,0,0,1-.7-.4.8.8,0,0,1-.4-.7h0a4,4,0,0,1-2,1.2,1.5,1.5,0,0,1-1.2-.7,1.7,1.7,0,0,1-.6-1.2,7.4,7.4,0,0,1,.2-1.2,10.3,10.3,0,0,1,.4-1.4l.7-1.4a3.2,3.2,0,0,1,1-1,2.1,2.1,0,0,1,1.2-.5,1.7,1.7,0,0,1,1.5,1,30.4,30.4,0,0,0,.8-4.5C167.9,96.5,168,96.3,168.3,96.3Zm-4.2,9.6a3.1,3.1,0,0,0,1.2-.6,3.8,3.8,0,0,0,1.2-1.6v-.5a1.9,1.9,0,0,0-.2-.7l-.5-.3a.9.9,0,0,0-.8.4,2.4,2.4,0,0,0-.6,1.1,4.8,4.8,0,0,0-.5,2v.2Z"/><path d="M175.3,104.3a4.5,4.5,0,0,1-1.9.5h-1.7a1.7,1.7,0,0,0-.1.7c0,.3,0,.5.1.6a1,1,0,0,0,.7.2l1.8-.2.8-.2q.6,0,.6.3c0,.4-.3.8-.9,1.1a5.1,5.1,0,0,1-2.2.5,2.2,2.2,0,0,1-1.9-.8,2.3,2.3,0,0,1-.7-1.7,4.6,4.6,0,0,1,.6-2.2,5.8,5.8,0,0,1,1.5-1.9,2.9,2.9,0,0,1,1.8-.8,2.2,2.2,0,0,1,1.7.9,2.9,2.9,0,0,1,.8,1.8C176.3,103.5,176,103.9,175.3,104.3Zm-1-1.9-.5-.3c-.2,0-.4.1-.7.4a2.7,2.7,0,0,0-.8,1h.4c1.3,0,1.9-.3,1.9-.7A.5.5,0,0,0,174.3,102.4Z"/><path d="M182,100.4q.6,0,1.2.9a3.5,3.5,0,0,1,.6,1.9,2.7,2.7,0,0,1-.5,1.3,4.4,4.4,0,0,1-1.2,1.5,6.6,6.6,0,0,1-1.7,1.2,4.9,4.9,0,0,1-1.9.5h-.1c-.6,2.5-1.1,3.7-1.3,3.7s-.4-.2-.7-.5a1.6,1.6,0,0,1-.3-.8c0-.2.2-.9.4-2a38.4,38.4,0,0,0,1.3-7.6.4.4,0,0,1,.4-.4,1.2,1.2,0,0,1,.8.4,1.7,1.7,0,0,1,.7,1A3.3,3.3,0,0,1,182,100.4Zm-1.1,4.3a2.4,2.4,0,0,0,1-1.7c0-.5-.1-.7-.4-.7a2.2,2.2,0,0,0-1.3.6l-.6.9a8.1,8.1,0,0,0-.6,1.3l-.2.9A4.8,4.8,0,0,0,180.9,104.7Z"/><path d="M190,104.3a4.9,4.9,0,0,1-2,.5h-1.6a1.9,1.9,0,0,0-.2.7.7.7,0,0,0,.8.8l1.9-.2.7-.2q.6,0,.6.3c0,.4-.3.8-.9,1.1a4.6,4.6,0,0,1-2.1.5,2.1,2.1,0,0,1-1.9-.8,2.5,2.5,0,0,1-.8-1.7,4.6,4.6,0,0,1,.6-2.2,5.8,5.8,0,0,1,1.5-1.9,3.4,3.4,0,0,1,1.9-.8,2.1,2.1,0,0,1,1.6.9,2.4,2.4,0,0,1,.8,1.8C190.9,103.5,190.6,103.9,190,104.3Zm-1-1.9a.9.9,0,0,0-.6-.3c-.2,0-.4.1-.7.4a4.4,4.4,0,0,0-.8,1h.4c1.3,0,2-.3,2-.7A.5.5,0,0,0,189,102.4Z"/><path d="M196.7,100.3a1.7,1.7,0,0,1,1.3.7,2,2,0,0,1,.6,1.4,8.2,8.2,0,0,1-.4,2.6,7.6,7.6,0,0,1-.8,2,1.3,1.3,0,0,1-1,.7c-.3,0-.5-.2-.5-.7a10.8,10.8,0,0,1,.5-2,6.3,6.3,0,0,0,.4-1.9c0-.3-.1-.5-.2-.5s-.2,0-.3.2l-.3.3-.3.3-.3.4c0,.2-.1.3-.2.5l-.3.5-.2.4c-.9,1.7-1.6,2.5-2.1,2.5a1.5,1.5,0,0,1-.8-.5c-.3-.4-.4-.6-.4-.8a1.4,1.4,0,0,1,.2-.7l.3-.8a3.5,3.5,0,0,0,.1-.6,1.3,1.3,0,0,0,.1-.6,1.8,1.8,0,0,0,.1-.6v-.6a8.3,8.3,0,0,1,.3-2.1.2.2,0,0,1,.2-.2,1.6,1.6,0,0,1,1,.5c.3.3.5.5.5.8a9.6,9.6,0,0,1-.4,2.5c.6-1,1.1-1.9,1.6-2.6S196.4,100.3,196.7,100.3Z"/><path d="M205.5,96.3c.2,0,.5.2.9.7a1.5,1.5,0,0,1,.5,1.1,10.2,10.2,0,0,1-.5,2.3l-.6,2.4c-.7,3.3-1.3,4.9-1.6,4.9s-.4-.1-.7-.4a1,1,0,0,1-.4-.7h.1a4.6,4.6,0,0,1-2.1,1.2,1.5,1.5,0,0,1-1.2-.7,1.7,1.7,0,0,1-.6-1.2,7.4,7.4,0,0,1,.2-1.2,10.3,10.3,0,0,1,.4-1.4,10,10,0,0,1,.8-1.4,2.9,2.9,0,0,1,.9-1,2.1,2.1,0,0,1,1.2-.5,1.7,1.7,0,0,1,1.5,1,30.4,30.4,0,0,0,.8-4.5C205.1,96.5,205.2,96.3,205.5,96.3Zm-4.2,9.6a3.6,3.6,0,0,0,2.4-2.2v-.5a1.9,1.9,0,0,0-.2-.7c-.2-.2-.3-.3-.5-.3a.9.9,0,0,0-.8.4,2.4,2.4,0,0,0-.6,1.1,4.8,4.8,0,0,0-.5,2v.2Z"/><path d="M212.5,104.3a4.1,4.1,0,0,1-1.9.5h-1.7c0,.2-.1.5-.1.7a3.5,3.5,0,0,0,.1.6,1,1,0,0,0,.7.2l1.8-.2.8-.2q.6,0,.6.3c0,.4-.3.8-.9,1.1a4.6,4.6,0,0,1-2.1.5,2.6,2.6,0,0,1-2.7-2.5,4.6,4.6,0,0,1,.6-2.2,5.8,5.8,0,0,1,1.5-1.9,2.9,2.9,0,0,1,1.8-.8,2.2,2.2,0,0,1,1.7.9,2.9,2.9,0,0,1,.8,1.8C213.5,103.5,213.2,103.9,212.5,104.3Zm-1-1.9-.5-.3c-.2,0-.4.1-.7.4a2.7,2.7,0,0,0-.8,1h.4c1.3,0,1.9-.3,1.9-.7A.5.5,0,0,0,211.5,102.4Z"/><path d="M219.3,100.3a1.9,1.9,0,0,1,1.3.7,2,2,0,0,1,.6,1.4,12.7,12.7,0,0,1-.4,2.6,12.9,12.9,0,0,1-.9,2c-.3.5-.6.7-.9.7s-.5-.2-.5-.7a10.8,10.8,0,0,1,.5-2,9.9,9.9,0,0,0,.3-1.9c0-.3,0-.5-.1-.5a.4.4,0,0,0-.4.2l-.3.3c0,.1-.1.2-.2.3l-.3.4a1.3,1.3,0,0,1-.3.5c-.1.2-.2.3-.2.5l-.3.4c-.9,1.7-1.6,2.5-2.1,2.5s-.4-.2-.7-.5-.5-.6-.5-.8.1-.3.2-.7a1.6,1.6,0,0,0,.3-.8c.1-.1.1-.3.2-.6s.1-.4.1-.6,0-.5.1-.6v-.6c.1-1.3.2-1.9.2-2.1l.2-.2a1.8,1.8,0,0,1,1.1.5c.3.3.5.5.5.8a10.8,10.8,0,0,1-.5,2.5l1.7-2.6C218.5,100.7,219,100.3,219.3,100.3Z"/><path d="M222,105.5a4.9,4.9,0,0,1,.6-2.2,8.3,8.3,0,0,1,1.6-2.1,3,3,0,0,1,2-.8,1.5,1.5,0,0,1,1.1.6,2.1,2.1,0,0,1,.5,1.2.3.3,0,0,1-.3.3H227l-.6-.2q-.3,0-.9.6a4,4,0,0,0-1,1.2,2.8,2.8,0,0,0-.5,1.2.8.8,0,0,0,.2.6h1.9l.8-.2.4-.2c.3,0,.4.1.4.4s-.3.8-1.1,1.3a4.3,4.3,0,0,1-2.2.6,2.5,2.5,0,0,1-1.5-.8A2.1,2.1,0,0,1,222,105.5Z"/><path d="M230.6,100.3a.9.9,0,0,1,.8.6,1.9,1.9,0,0,1,.4,1.1,8.3,8.3,0,0,1-.5,2l-.9,3.1a.7.7,0,0,1-.7.6l-.6-.2a1.4,1.4,0,0,1-.2-.7,15,15,0,0,1,.3-1.8,18.5,18.5,0,0,0,.6-2.6,12.3,12.3,0,0,1,.4-1.6C230.3,100.5,230.4,100.3,230.6,100.3Zm-.3-1.7c0-.3.2-.5.4-.8a.7.7,0,0,1,.6-.4c.2,0,.5.3.8.8a2.4,2.4,0,0,1,.4,1.1c0,.2,0,.4-.2.5l-.5.2a1.6,1.6,0,0,1-.9-.5Q230.3,98.9,230.3,98.6Z"/><path d="M238.7,103.6c.2.2.3.3.3.5s-.1.3-.2.7a5.1,5.1,0,0,0-.2.9,1.3,1.3,0,0,0-.1.5.4.4,0,0,1-.1.3v.3c0,.1-.1.2-.1.3v.2c-.1,0-.1.1-.1.2h-.4c-.1,0-.3-.1-.5-.4a3,3,0,0,1-.4-1,3.9,3.9,0,0,1-2.3,1.4,1.9,1.9,0,0,1-1.3-.7,1.7,1.7,0,0,1-.7-1.3,5.3,5.3,0,0,1,.6-2,9.1,9.1,0,0,1,1.7-2.3,3.1,3.1,0,0,1,2.1-1.1,3,3,0,0,1,1.4.7,1.9,1.9,0,0,1,.7,1.3A2.4,2.4,0,0,1,238.7,103.6Zm-4.1,2.3a3.1,3.1,0,0,0,1.5-.8,3.5,3.5,0,0,0,1.2-1.9.2.2,0,0,1,.2-.2c0-.6-.1-.8-.3-.8a1.7,1.7,0,0,0-1.2.7,6.1,6.1,0,0,0-1.2,1.6,2.7,2.7,0,0,0-.4,1.2v.2Z"/><path d="M251.5,96.3c.3,0,.6.2.9.7a1.7,1.7,0,0,1,.6,1.1c0,.2-.2,1-.5,2.3a12.6,12.6,0,0,0-.6,2.4c-.8,3.3-1.3,4.9-1.7,4.9s-.4-.1-.7-.4a.9.9,0,0,1-.3-.7h0a4.6,4.6,0,0,1-2.1,1.2,1.5,1.5,0,0,1-1.2-.7,1.6,1.6,0,0,1-.5-1.2,5.7,5.7,0,0,1,.1-1.2,12.1,12.1,0,0,1,.5-1.4,9.1,9.1,0,0,1,.7-1.4,3.2,3.2,0,0,1,1-1,2.1,2.1,0,0,1,1.2-.5,1.7,1.7,0,0,1,1.5,1,25.8,25.8,0,0,0,.7-4.5C251.1,96.5,251.2,96.3,251.5,96.3Zm-4.2,9.6a2.6,2.6,0,0,0,1.2-.6,4,4,0,0,0,1.3-1.6v-.5a1.1,1.1,0,0,0-.3-.7c-.2-.2-.3-.3-.5-.3a1.2,1.2,0,0,0-.8.4,3.9,3.9,0,0,0-.6,1.1,7.1,7.1,0,0,0-.5,2v.2Z"/><path d="M258.6,104.3a4.9,4.9,0,0,1-2,.5H255a1.9,1.9,0,0,0-.2.7.8.8,0,0,0,.2.6l.6.2,1.9-.2.7-.2q.6,0,.6.3c0,.4-.3.8-.9,1.1a4.6,4.6,0,0,1-2.1.5,2.4,2.4,0,0,1-2-.8,2.8,2.8,0,0,1-.7-1.7,4.6,4.6,0,0,1,.6-2.2,5.8,5.8,0,0,1,1.5-1.9,3.4,3.4,0,0,1,1.9-.8,2.1,2.1,0,0,1,1.6.9,2.4,2.4,0,0,1,.8,1.8C259.5,103.5,259.2,103.9,258.6,104.3Zm-1-1.9-.6-.3c-.2,0-.4.1-.7.4a4.4,4.4,0,0,0-.8,1h.4c1.3,0,2-.3,2-.7A.5.5,0,0,0,257.6,102.4Z"/><path d="M268.5,97a2.1,2.1,0,0,1,.5,1.2,19.2,19.2,0,0,1-.1,2c-.2,1-.3,1.8-.4,2.3-.8,3.5-1.3,5.2-1.7,5.2s-.4-.2-.7-.5a1,1,0,0,1-.5-.8,8,8,0,0,1,.4-1.5c.2-1,.5-2.2.8-3.8a34.4,34.4,0,0,0,.4-4.3c0-.3.1-.5.4-.5S268.1,96.6,268.5,97Z"/><path d="M275.4,103.6c.2.2.3.3.3.5s-.1.3-.2.7a5.1,5.1,0,0,0-.2.9,2,2,0,0,1-.1.5v.3a.4.4,0,0,0-.1.3v.3c-.1,0-.1.1-.1.2v.2h-.1c0,.1-.1.1-.3.1s-.3-.1-.5-.4a3,3,0,0,1-.4-1c-.9.9-1.6,1.4-2.3,1.4a1.9,1.9,0,0,1-1.3-.7,1.7,1.7,0,0,1-.7-1.3,5.3,5.3,0,0,1,.6-2,9.1,9.1,0,0,1,1.7-2.3,3.1,3.1,0,0,1,2.1-1.1,2.6,2.6,0,0,1,1.4.7c.5.5.8.9.8,1.3A2.7,2.7,0,0,1,275.4,103.6Zm-4.1,2.3a2.8,2.8,0,0,0,1.5-.8,3.5,3.5,0,0,0,1.2-1.9.2.2,0,0,1,.2-.2c0-.6-.1-.8-.2-.8a1.9,1.9,0,0,0-1.3.7,6.1,6.1,0,0,0-1.2,1.6,2.7,2.7,0,0,0-.4,1.2v.2Z"/><path d="M66.1,120.9a3.5,3.5,0,0,1-1.9.6l-1.7-.2a2.2,2.2,0,0,0-.1.8,1.1,1.1,0,0,0,.1.6h.7l1.8-.2.8-.2c.4,0,.6.1.6.4s-.3.7-.9,1.1a5.4,5.4,0,0,1-2.2.5,2.6,2.6,0,0,1-1.9-.8,2.4,2.4,0,0,1-.7-1.8,4.9,4.9,0,0,1,.6-2.2,6.5,6.5,0,0,1,1.5-1.8,2.4,2.4,0,0,1,1.8-.8,2.2,2.2,0,0,1,1.7.9,2.9,2.9,0,0,1,.8,1.8C67.1,120.1,66.7,120.5,66.1,120.9Zm-1-1.9a.9.9,0,0,0-.6-.3l-.6.4a3.9,3.9,0,0,0-.8,1h.4c1.3,0,1.9-.2,1.9-.7S65.3,119.2,65.1,119Z"/><path d="M67.6,122.1a4.3,4.3,0,0,1,.7-2.2,5.3,5.3,0,0,1,1.6-2,3.2,3.2,0,0,1,2-.9,1.3,1.3,0,0,1,1,.7,1.7,1.7,0,0,1,.6,1.1c0,.3-.1.4-.4.4l-.4-.2H72a1.5,1.5,0,0,0-.8.5,6.9,6.9,0,0,0-1.1,1.3,2.4,2.4,0,0,0-.4,1.2c0,.3,0,.4.1.5l.8.2,1.2-.2.8-.2H73c.3,0,.4.1.4.3s-.4.9-1.1,1.3a4.7,4.7,0,0,1-2.2.7,3,3,0,0,1-1.6-.8A2,2,0,0,1,67.6,122.1Z"/><path d="M75.6,118.6c.8-1.1,1.5-1.6,2.2-1.6a2.5,2.5,0,0,1,1.9.7,2.8,2.8,0,0,1,.7,1.9,6.3,6.3,0,0,1-.5,2.2,4.9,4.9,0,0,1-1.4,1.8,3.4,3.4,0,0,1-2,.8,1.9,1.9,0,0,1-1.4-.7,2.7,2.7,0,0,1-.6-1.7A6,6,0,0,1,75.6,118.6Zm2.4,2.9a4.9,4.9,0,0,0,.5-1.9c0-.6,0-1.1-.2-1.3a3.2,3.2,0,0,0-1.2,1.5,4.5,4.5,0,0,0-.6,2,2.8,2.8,0,0,0,.1,1.1A3.1,3.1,0,0,0,78,121.5Z"/><path d="M86.4,117a1.6,1.6,0,0,1,1.3.7,1.9,1.9,0,0,1,.5,1.4,11.3,11.3,0,0,1-.3,2.5,7.7,7.7,0,0,1-.9,2c-.3.5-.6.8-.9.8s-.5-.3-.5-.7a8.7,8.7,0,0,1,.4-2.1,5.9,5.9,0,0,0,.4-1.8c0-.4,0-.6-.1-.6a.5.5,0,0,0-.4.2l-.3.3-.3.4c-.1.1-.1.3-.2.4l-.3.5-.3.4-.2.5c-.9,1.6-1.6,2.5-2.1,2.5s-.4-.2-.8-.6a1.3,1.3,0,0,1-.4-.7l.2-.7a3.4,3.4,0,0,1,.3-.8c.1-.2.1-.4.2-.6a2,2,0,0,1,.1-.7v-.5c0-.2.1-.4.1-.7a10.3,10.3,0,0,1,.2-2l.2-.2a1.3,1.3,0,0,1,1,.4,1,1,0,0,1,.5.8,10.3,10.3,0,0,1-.4,2.6,26.2,26.2,0,0,1,1.7-2.7C85.6,117.3,86,117,86.4,117Z"/><path d="M90.1,118.6c.7-1.1,1.4-1.6,2.2-1.6a2.4,2.4,0,0,1,1.8.7,2.8,2.8,0,0,1,.7,1.9,4.7,4.7,0,0,1-.5,2.2,4.9,4.9,0,0,1-1.4,1.8,3.4,3.4,0,0,1-2,.8,2.1,2.1,0,0,1-1.4-.7A2.6,2.6,0,0,1,89,122,5.3,5.3,0,0,1,90.1,118.6Zm2.3,2.9a3.8,3.8,0,0,0,.6-1.9,2.1,2.1,0,0,0-.3-1.3,3.2,3.2,0,0,0-1.2,1.5,4.5,4.5,0,0,0-.6,2,2.8,2.8,0,0,0,.1,1.1A2.7,2.7,0,0,0,92.4,121.5Z"/><path d="M105.1,117c.4,0,.7.2,1,.7a3.9,3.9,0,0,1,.3,1.4,6.9,6.9,0,0,1-.2,1.8,8.8,8.8,0,0,1-.7,2.3c-.4.8-.7,1.2-1.1,1.2s-.5-.3-.5-.7a8,8,0,0,1,.4-2.1,12.9,12.9,0,0,0,.3-1.9c0-.3,0-.5-.1-.5s-.4.3-.7.7a13,13,0,0,0-1,1.8l-.7,1.4-.3.5c0,.1-.1.2-.2.4s-.7.5-1.2,0-.4-.5-.4-.7l.3-1.1a16.6,16.6,0,0,0,.2-2.4c0-.4,0-.6-.1-.6s-.3.2-.4.4a5.4,5.4,0,0,0-.7,1.2l-.8,1.5c-.8,1.4-1.4,2.1-1.9,2.1s-.4-.2-.7-.6a1,1,0,0,1-.5-.8,6.6,6.6,0,0,1,.3-1.3,8.5,8.5,0,0,0,.4-2.3c.1-.8.1-1.4.2-1.9s.2-.6.3-.6a1.7,1.7,0,0,1,1.1.4,1.5,1.5,0,0,1,.5.8,12.7,12.7,0,0,1-.6,3,9.9,9.9,0,0,1,1.7-3.2,1.7,1.7,0,0,1,1.4-.9c.2,0,.5.2.9.7a2.4,2.4,0,0,1,.5,1.3v1a7,7,0,0,1,1.4-2.1A2.4,2.4,0,0,1,105.1,117Z"/><path d="M109.2,117a.9.9,0,0,1,.8.6,1.5,1.5,0,0,1,.4,1.1,8.1,8.1,0,0,1-.5,1.9l-.9,3.2c-.1.4-.4.5-.8.5a.6.6,0,0,1-.5-.2.8.8,0,0,1-.2-.5,2.5,2.5,0,0,1,.1-.8,6.5,6.5,0,0,1,.2-1.1,3.5,3.5,0,0,0,.3-1.2,6.4,6.4,0,0,0,.2-.9c.1-.4.1-.7.2-1s.1-.5.1-.8S109,117,109.2,117Zm.7-.4c-.2,0-.3,0-.4-.2a.8.8,0,0,1-.2-.5c0-.2.1-.3.2-.5l.5-.6.6-.5.4-.3.3-.3.2-.2h.4c.2,0,.4.2.6.4a1.3,1.3,0,0,1,.3.7v.5l-.3.2-.3.3-.6.2a.9.9,0,0,1-.6.3l-.5.3Z"/><path d="M117,120.3c.2.2.3.3.3.4l-.2.8a5.1,5.1,0,0,0-.2.9,1.1,1.1,0,0,0-.1.5.4.4,0,0,0-.1.3v.3c-.1.1-.1.1-.1.2v.4h-.1l-.3.2-.5-.4a3,3,0,0,1-.4-1,3.9,3.9,0,0,1-2.3,1.4,2.4,2.4,0,0,1-1.3-.7,1.9,1.9,0,0,1-.7-1.4,4.9,4.9,0,0,1,.6-1.9,7.2,7.2,0,0,1,1.7-2.3,2.7,2.7,0,0,1,2.1-1.1,1.9,1.9,0,0,1,1.3.7,1.7,1.7,0,0,1,.8,1.3A2.4,2.4,0,0,1,117,120.3Zm-4.1,2.3a3.6,3.6,0,0,0,1.5-.8,3.1,3.1,0,0,0,1.1-2c.1-.1.1-.2.3-.2s-.1-.8-.3-.8a2.4,2.4,0,0,0-1.3.7l-1.1,1.6a3.6,3.6,0,0,0-.5,1.3h.3Z"/><path d="M129.2,120.9a3.9,3.9,0,0,1-2,.6l-1.6-.2a2.4,2.4,0,0,0-.2.8,1.1,1.1,0,0,0,.2.6h.6l1.8-.2.8-.2c.4,0,.6.1.6.4s-.3.7-.9,1.1a4.6,4.6,0,0,1-2.1.5,2.8,2.8,0,0,1-2-.8,2.9,2.9,0,0,1-.7-1.8,4.9,4.9,0,0,1,.6-2.2,6.5,6.5,0,0,1,1.5-1.8,2.6,2.6,0,0,1,1.9-.8,2.1,2.1,0,0,1,1.6.9,2.4,2.4,0,0,1,.8,1.8Q130.1,120.3,129.2,120.9Zm-1-1.9a.9.9,0,0,0-.6-.3c-.2,0-.4.2-.7.4l-.8,1h.4c1.3,0,2-.2,2-.7S128.4,119.2,128.2,119Z"/><path d="M136.1,123.8c0,.4-.2.6-.5.6s-1.2-.7-2-1.9c-1.1,1.2-1.8,1.9-2.2,1.9a1.3,1.3,0,0,1-.7-.4c-.3-.3-.4-.5-.4-.7a.7.7,0,0,1,.3-.3,19,19,0,0,0,2-2.2,10,10,0,0,1-1-2.1l-.5-1.2c0-.2,0-.3.1-.3a.2.2,0,0,1,.2-.2l1.3.2q.6.3.6.6a3.9,3.9,0,0,0,.5,1.4,6.6,6.6,0,0,1,1.4-1.7,1.1,1.1,0,0,1,.9-.5,1.2,1.2,0,0,1,.8.4c.3.3.4.5.4.7a.4.4,0,0,1-.1.3l-.4.4-.5.4-1.6,1.9.4.7A6.5,6.5,0,0,1,136.1,123.8Z"/><path d="M140.8,119.8l-.5,1.7a8.2,8.2,0,0,0-.4,1.1c0,.1.1.1.3.1l1.1-.3,1-.4c.3,0,.4.2.4.5s-.3.7-1,1.2a3.7,3.7,0,0,1-2,.7,1.9,1.9,0,0,1-1-.5c-.5-.4-.7-.7-.7-1.1a13.7,13.7,0,0,1,.5-1.8l.6-1.9a1.8,1.8,0,0,1-.9.2.7.7,0,0,1-.6-.4,1.3,1.3,0,0,1-.3-.7c0-.3.7-.6,2.2-.8a11.1,11.1,0,0,0,.3-2.3c0-.3.1-.4.4-.4a1.6,1.6,0,0,1,1,.4,1.4,1.4,0,0,1,.5.9,5.7,5.7,0,0,1-.1,1.2h1c.7,0,1.1.2,1.1.5s-.2.4-.7.5l-1.9.5A3.6,3.6,0,0,1,140.8,119.8Z"/><path d="M144.7,119.4v-1.6c0-.5.1-.8.5-.8l.5.2a1.3,1.3,0,0,1,.5.7l1-.7,1.1-.3c.6,0,1,.2,1,.5s0,.3-.1.4v.2h-.2l-.2.2-.5.3a3.1,3.1,0,0,0-1.1.9,3.4,3.4,0,0,0-.6,1.6,21.8,21.8,0,0,1-.8,2.4c-.2.6-.5.8-.8.8a.8.8,0,0,1-.7-.4,2.4,2.4,0,0,1-.2-.8,3.6,3.6,0,0,1,.3-1.1c.2-.5.3-1,.4-1.3S144.7,119.9,144.7,119.4Z"/><path d="M155.1,120.3c.2.2.3.3.3.4l-.2.8a5.1,5.1,0,0,0-.2.9,1.1,1.1,0,0,0-.1.5c0,.1-.1.2-.1.3v.3c0,.1-.1.1-.1.2v.4a.1.1,0,0,1-.1.1l-.3.2-.5-.4a3,3,0,0,1-.4-1,3.9,3.9,0,0,1-2.3,1.4,2.4,2.4,0,0,1-1.3-.7,1.9,1.9,0,0,1-.7-1.4,4.9,4.9,0,0,1,.6-1.9,9.1,9.1,0,0,1,1.7-2.3,2.7,2.7,0,0,1,2.1-1.1,2.3,2.3,0,0,1,1.4.7,1.9,1.9,0,0,1,.7,1.3A2.4,2.4,0,0,1,155.1,120.3Zm-4.1,2.3a3.6,3.6,0,0,0,1.5-.8,3.7,3.7,0,0,0,1.2-2c0-.1,0-.2.2-.2s-.1-.8-.3-.8a1.9,1.9,0,0,0-1.2.7,8.3,8.3,0,0,0-1.2,1.6,3.6,3.6,0,0,0-.5,1.3h.3Z"/><path d="M156.3,122.1a4.3,4.3,0,0,1,.7-2.2,5.3,5.3,0,0,1,1.6-2,3.2,3.2,0,0,1,2-.9,1.3,1.3,0,0,1,1,.7,1.7,1.7,0,0,1,.6,1.1c0,.3-.1.4-.4.4l-.4-.2h-.7a2.1,2.1,0,0,0-.9.5,14.7,14.7,0,0,0-1,1.3,2.4,2.4,0,0,0-.4,1.2c0,.3,0,.4.1.5l.8.2,1.2-.2.8-.2h.4c.3,0,.4.1.4.3s-.4.9-1.1,1.3a4.7,4.7,0,0,1-2.2.7,2.7,2.7,0,0,1-1.6-.8A2,2,0,0,1,156.3,122.1Z"/><path d="M166.7,119.8a10.7,10.7,0,0,0-.6,1.7l-.3,1.1c0,.1.1.1.2.1l1.2-.3,1-.4a.5.5,0,0,1,.4.5c0,.3-.4.7-1,1.2a3.7,3.7,0,0,1-2,.7,2.1,2.1,0,0,1-1.1-.5,1.5,1.5,0,0,1-.6-1.1,8.4,8.4,0,0,1,.4-1.8l.6-1.9a1.5,1.5,0,0,1-.8.2.7.7,0,0,1-.6-.4,1.3,1.3,0,0,1-.3-.7c0-.3.7-.6,2.2-.8a10.2,10.2,0,0,0,.2-2.3c0-.3.2-.4.5-.4a1.6,1.6,0,0,1,.9.4,1.2,1.2,0,0,1,.6.9,7.4,7.4,0,0,1-.2,1.2h1.1c.7,0,1,.2,1,.5s-.2.4-.6.5l-1.9.5A5.3,5.3,0,0,0,166.7,119.8Z"/><path d="M171.4,117a1.2,1.2,0,0,1,.9.6,2,2,0,0,1,.3,1.1,12.1,12.1,0,0,1-.4,1.9c-.4,1.1-.7,2.2-1,3.2a.6.6,0,0,1-.7.5.7.7,0,0,1-.6-.2,1.1,1.1,0,0,1-.2-.6,7.7,7.7,0,0,1,.4-1.9c.2-1,.4-1.9.5-2.6a7.5,7.5,0,0,1,.4-1.5C171.1,117.2,171.2,117,171.4,117Zm-.3-1.8a2,2,0,0,1,.4-.8.9.9,0,0,1,.6-.3c.3,0,.5.2.8.7a2.4,2.4,0,0,1,.4,1.1c0,.3,0,.5-.2.6l-.5.2a1.4,1.4,0,0,1-.9-.6A1.2,1.2,0,0,1,171.1,115.2Z"/><path d="M178.5,117l.7.3a.5.5,0,0,1,.3.5,12.1,12.1,0,0,1-.8,2.4c-.6,1.2-1.1,2.2-1.6,3s-.9,1.1-1.1,1.1l-.6-.2a1.7,1.7,0,0,1-.6-.6,25.5,25.5,0,0,1-.8-3.1,24.1,24.1,0,0,1-.5-2.8c0-.4.2-.6.4-.6a1.3,1.3,0,0,1,1,.4,2.3,2.3,0,0,1,1,1.7,6.2,6.2,0,0,0,.1,1.3,5.3,5.3,0,0,0,.1,1.3,16.2,16.2,0,0,0,.8-2c.4-.8.6-1.5.9-2S178.3,117,178.5,117Z"/><path d="M185.5,120.3c.2.2.3.3.3.4l-.2.8a5.1,5.1,0,0,0-.2.9,4.3,4.3,0,0,1-.1.5v.8c-.1.1-.1.1-.1.2v.2c0,.1,0,.1-.1.1s-.1.2-.3.2l-.5-.4a3,3,0,0,1-.4-1c-.9.9-1.6,1.4-2.3,1.4a2.4,2.4,0,0,1-1.3-.7,1.9,1.9,0,0,1-.7-1.4,4.9,4.9,0,0,1,.6-1.9,9.1,9.1,0,0,1,1.7-2.3,2.7,2.7,0,0,1,2.1-1.1,2.1,2.1,0,0,1,1.4.7c.5.5.8.9.8,1.3A2.7,2.7,0,0,1,185.5,120.3Zm-4.1,2.3a2.8,2.8,0,0,0,1.5-.8,3.7,3.7,0,0,0,1.2-2,.2.2,0,0,1,.2-.2c0-.5-.1-.8-.2-.8a2.4,2.4,0,0,0-1.3.7,8.3,8.3,0,0,0-1.2,1.6,3,3,0,0,0-.4,1.3h.2Z"/><path d="M189.6,124.3a4,4,0,0,1-.9,2.3c-.6.7-1.1,1.1-1.6,1.1s-.4-.1-.4-.3.1-.2.3-.5a4.3,4.3,0,0,0,.9-1.9.9.9,0,0,0-.3-.6l-.5-.4a.5.5,0,0,1-.2-.4c0-.2.1-.4.4-.7a1.1,1.1,0,0,1,.9-.4,1.2,1.2,0,0,1,.9.6A1.7,1.7,0,0,1,189.6,124.3Z"/><path d="M198.9,113.6a1.6,1.6,0,0,1,.5,1.2,19.7,19.7,0,0,1-.1,2.1c-.2.9-.3,1.7-.4,2.3-.8,3.4-1.3,5.2-1.7,5.2s-.4-.2-.7-.5a2.1,2.1,0,0,1-.5-.9s.1-.5.4-1.5a37.2,37.2,0,0,0,.8-3.7,34.2,34.2,0,0,0,.4-4.4c0-.3.1-.4.4-.4S198.5,113.2,198.9,113.6Z"/><path d="M205.9,120.3c.1.2.2.3.2.4a1.7,1.7,0,0,1-.2.8,6.4,6.4,0,0,1-.2.9,4.3,4.3,0,0,1-.1.5v.8c-.1.1-.1.1-.1.2s0,.2-.1.2,0,.1-.1.1-.1.2-.3.2-.3-.2-.4-.4a3.1,3.1,0,0,1-.5-1c-.9.9-1.6,1.4-2.2,1.4a2.6,2.6,0,0,1-1.4-.7,2.3,2.3,0,0,1-.7-1.4,4.9,4.9,0,0,1,.6-1.9,9.1,9.1,0,0,1,1.7-2.3,2.7,2.7,0,0,1,2.1-1.1,2.1,2.1,0,0,1,1.4.7c.5.5.8.9.8,1.3A3.8,3.8,0,0,1,205.9,120.3Zm-4.2,2.3a2.8,2.8,0,0,0,1.5-.8,3.2,3.2,0,0,0,1.2-2l.2-.2c0-.5-.1-.8-.2-.8a2.4,2.4,0,0,0-1.3.7,8.3,8.3,0,0,0-1.2,1.6,3,3,0,0,0-.4,1.3h.2Z"/><path d="M217.7,117q.6,0,1.2.9a3.8,3.8,0,0,1,.6,1.9,3,3,0,0,1-.5,1.4,7.9,7.9,0,0,1-1.2,1.5l-1.7,1.1a3.6,3.6,0,0,1-1.9.5h-.1c-.6,2.5-1,3.8-1.3,3.8s-.4-.2-.6-.5a1.4,1.4,0,0,1-.4-.9c0-.2.2-.8.5-2a34.9,34.9,0,0,0,1.2-7.5c0-.3.1-.4.4-.4l.9.3a2.1,2.1,0,0,1,.6,1A3.7,3.7,0,0,1,217.7,117Zm-1.1,4.4a2.8,2.8,0,0,0,1-1.8c0-.4-.1-.7-.4-.7a1.9,1.9,0,0,0-1.3.7l-.6.8a5,5,0,0,0-.5,1.3l-.3.9A3.3,3.3,0,0,0,216.6,121.4Z"/><path d="M221,119.4v-1.6c0-.5.2-.8.5-.8l.6.2c.2.1.3.4.4.7l1.1-.7,1-.3c.7,0,1.1.2,1.1.5s-.1.3-.1.4l-.2.2h-.2c0,.1-.1.1-.1.2l-.5.3a3.1,3.1,0,0,0-1.1.9,4.8,4.8,0,0,0-.7,1.6,12.1,12.1,0,0,1-.7,2.4c-.3.6-.5.8-.8.8a.7.7,0,0,1-.7-.4,1.2,1.2,0,0,1-.2-.8,8.9,8.9,0,0,1,.2-1.1,4.6,4.6,0,0,0,.4-1.3A5.3,5.3,0,0,0,221,119.4Z"/><path d="M227,117a1,1,0,0,1,.9.6,1.5,1.5,0,0,1,.4,1.1l-.5,1.9a29.9,29.9,0,0,1-1,3.2c-.1.4-.3.5-.7.5s-.4,0-.5-.2-.2-.4-.2-.6a12.9,12.9,0,0,1,.3-1.9c.3-1,.4-1.9.6-2.6a9.6,9.6,0,0,1,.3-1.5C226.7,117.2,226.9,117,227,117Zm-.2-1.8a1.6,1.6,0,0,1,.3-.8l.7-.3c.2,0,.5.2.8.7a2.4,2.4,0,0,1,.4,1.1.8.8,0,0,1-.2.6l-.5.2a2.8,2.8,0,0,1-1.5-1.5Z"/><path d="M230.2,118.6c.7-1.1,1.4-1.6,2.1-1.6a2.5,2.5,0,0,1,1.9.7,2.8,2.8,0,0,1,.7,1.9,6.3,6.3,0,0,1-.5,2.2,4.9,4.9,0,0,1-1.4,1.8,3.4,3.4,0,0,1-2,.8,2.1,2.1,0,0,1-1.4-.7,2.6,2.6,0,0,1-.5-1.7A5.3,5.3,0,0,1,230.2,118.6Zm2.3,2.9a3.6,3.6,0,0,0,.5-1.9c0-.6,0-1.1-.2-1.3a3.2,3.2,0,0,0-1.2,1.5,4.5,4.5,0,0,0-.6,2,2.8,2.8,0,0,0,.1,1.1A3.1,3.1,0,0,0,232.5,121.5Z"/><path d="M236.4,119.4v-1.6c0-.5.2-.8.5-.8l.6.2c.2.1.3.4.4.7a4.1,4.1,0,0,1,1.1-.7l1-.3c.7,0,1,.2,1,.5s0,.3-.1.4-.1.1-.1.2h-.2c0,.1-.1.1-.1.2l-.5.3a3.1,3.1,0,0,0-1.1.9,4.8,4.8,0,0,0-.7,1.6c-.3,1.1-.5,1.9-.7,2.4s-.6.8-.9.8a.5.5,0,0,1-.6-.4,1.3,1.3,0,0,1-.3-.8,3.6,3.6,0,0,1,.3-1.1c.2-.5.3-1,.4-1.3A5.3,5.3,0,0,0,236.4,119.4Z"/><path d="M242.4,117a1.2,1.2,0,0,1,.9.6,1.5,1.5,0,0,1,.4,1.1l-.5,1.9c-.3,1.1-.7,2.2-1,3.2s-.3.5-.7.5-.4,0-.5-.2a.7.7,0,0,1-.3-.6c0-.3.2-.9.4-1.9s.4-1.9.6-2.6a9.6,9.6,0,0,1,.3-1.5C242.1,117.2,242.3,117,242.4,117Zm-.2-1.8a1.6,1.6,0,0,1,.3-.8l.7-.3c.2,0,.5.2.8.7a5.1,5.1,0,0,1,.4,1.1.8.8,0,0,1-.2.6l-.5.2c-.3,0-.6-.2-1-.6A1.4,1.4,0,0,1,242.2,115.2Z"/><path d="M250.6,113q.3,0,.9.6a1.7,1.7,0,0,1,.6,1.2c0,.2-.2.9-.5,2.2a18,18,0,0,0-.6,2.4c-.8,3.3-1.4,5-1.7,5s-.4-.2-.7-.4a1.3,1.3,0,0,1-.4-.7h.1a4.6,4.6,0,0,1-2.1,1.2,1.9,1.9,0,0,1-1.2-.7,1.9,1.9,0,0,1-.6-1.2,5,5,0,0,1,.2-1.2,3.9,3.9,0,0,1,.5-1.4,6.1,6.1,0,0,1,.7-1.4,3.5,3.5,0,0,1,1-1.1,1.5,1.5,0,0,1,1.1-.4,1.6,1.6,0,0,1,1.5.9,19,19,0,0,0,.8-4.5C250.2,113.1,250.3,113,250.6,113Zm-4.2,9.5,1.2-.6a3.7,3.7,0,0,0,1.3-1.5,4.3,4.3,0,0,1-.1-.5,1.2,1.2,0,0,0-.2-.8c-.2-.2-.3-.3-.5-.3s-.5.2-.8.5a2.1,2.1,0,0,0-.6,1,7.6,7.6,0,0,0-.5,2.1h.2Z"/><path d="M258.3,120.3c.1.2.2.3.2.4a3.2,3.2,0,0,1-.1.8,9.2,9.2,0,0,0-.3.9.7.7,0,0,1-.1.5v.3a.4.4,0,0,1-.1.3v.2c0,.1-.1.1-.1.2s0,.2-.1.2,0,.1-.1.1l-.2.2c-.2,0-.3-.2-.5-.4a3.1,3.1,0,0,1-.5-1c-.9.9-1.6,1.4-2.2,1.4a2.6,2.6,0,0,1-1.4-.7,2.3,2.3,0,0,1-.7-1.4,4.9,4.9,0,0,1,.6-1.9,12.4,12.4,0,0,1,1.7-2.3,2.7,2.7,0,0,1,2.1-1.1,2.1,2.1,0,0,1,1.4.7c.5.5.8.9.8,1.3A2.4,2.4,0,0,1,258.3,120.3Zm-4.2,2.3a2.8,2.8,0,0,0,1.5-.8,2.8,2.8,0,0,0,1.2-2c0-.1.1-.2.3-.2s-.2-.8-.3-.8a2.4,2.4,0,0,0-1.3.7,7.6,7.6,0,0,0-1.1,1.6,3.6,3.6,0,0,0-.5,1.3h.2Z"/><path d="M265.6,113q.3,0,.9.6a2.1,2.1,0,0,1,.5,1.2,9.9,9.9,0,0,1-.5,2.2,18.2,18.2,0,0,1-.6,2.4c-.7,3.3-1.3,5-1.6,5a1.3,1.3,0,0,1-.7-.4.9.9,0,0,1-.4-.7h0a4,4,0,0,1-2,1.2,1.9,1.9,0,0,1-1.2-.7,1.9,1.9,0,0,1-.6-1.2,5,5,0,0,1,.2-1.2,7.4,7.4,0,0,1,.4-1.4c.2-.5.5-1,.7-1.4a5.2,5.2,0,0,1,1-1.1,1.9,1.9,0,0,1,1.2-.4,1.8,1.8,0,0,1,1.5.9,26.6,26.6,0,0,0,.8-4.5C265.2,113.1,265.3,113,265.6,113Zm-4.2,9.5a3.1,3.1,0,0,0,1.2-.6,3.5,3.5,0,0,0,1.2-1.5v-.5a2.4,2.4,0,0,0-.2-.8l-.5-.3a1,1,0,0,0-.8.5,2.1,2.1,0,0,0-.6,1,5.2,5.2,0,0,0-.5,2.1h.2Z"/><path d="M277.9,117c.3,0,.7.3,1.1.9a3.8,3.8,0,0,1,.6,1.9,3,3,0,0,1-.5,1.4,7.9,7.9,0,0,1-1.2,1.5l-1.7,1.1a3.5,3.5,0,0,1-1.8.5h-.2c-.6,2.5-1,3.8-1.3,3.8s-.4-.2-.6-.5-.4-.6-.4-.9.2-.8.5-2a34.9,34.9,0,0,0,1.2-7.5c0-.3.1-.4.4-.4l.9.3a2.1,2.1,0,0,1,.6,1A3.7,3.7,0,0,1,277.9,117Zm-1.2,4.4a2.8,2.8,0,0,0,1-1.8c0-.4-.1-.7-.4-.7a1.9,1.9,0,0,0-1.3.7l-.6.8a5,5,0,0,0-.5,1.3l-.3.9A3.3,3.3,0,0,0,276.7,121.4Z"/><path d="M286.4,120.3c.2.2.3.3.3.4l-.2.8a5.1,5.1,0,0,0-.2.9,1.1,1.1,0,0,0-.1.5c0,.1-.1.2-.1.3v.3c0,.1-.1.1-.1.2v.4a.1.1,0,0,1-.1.1l-.3.2-.5-.4a3,3,0,0,1-.4-1,3.9,3.9,0,0,1-2.3,1.4,2.4,2.4,0,0,1-1.3-.7,1.9,1.9,0,0,1-.7-1.4,4.9,4.9,0,0,1,.6-1.9,9.1,9.1,0,0,1,1.7-2.3,2.7,2.7,0,0,1,2.1-1.1,2.3,2.3,0,0,1,1.4.7,1.9,1.9,0,0,1,.7,1.3A2.4,2.4,0,0,1,286.4,120.3Zm-4.1,2.3a3.1,3.1,0,0,0,1.5-.8,3.7,3.7,0,0,0,1.2-2l.2-.2c0-.5-.1-.8-.3-.8a2.2,2.2,0,0,0-1.2.7,8.3,8.3,0,0,0-1.2,1.6,3.6,3.6,0,0,0-.5,1.3h.3Z"/><path d="M288.4,119.4v-1.6c0-.5.2-.8.5-.8l.6.2c.2.1.3.4.4.7a4.1,4.1,0,0,1,1.1-.7l1-.3c.7,0,1,.2,1,.5s0,.3-.1.4-.1.1-.1.2h-.2c0,.1-.1.1-.1.2l-.5.3a3.1,3.1,0,0,0-1.1.9,4.8,4.8,0,0,0-.7,1.6,11,11,0,0,1-.8,2.4c-.2.6-.5.8-.8.8a.5.5,0,0,1-.6-.4,1.3,1.3,0,0,1-.3-.8,3.6,3.6,0,0,1,.3-1.1c.2-.5.3-1,.4-1.3A5.3,5.3,0,0,0,288.4,119.4Z"/><path d="M298.9,120.3c.1.2.2.3.2.4a1.7,1.7,0,0,1-.2.8,6.4,6.4,0,0,1-.2.9.7.7,0,0,1-.1.5v.3a.4.4,0,0,1-.1.3v.2c0,.1-.1.1-.1.2s0,.2-.1.2,0,.1-.1.1-.1.2-.3.2l-.4-.4a3.1,3.1,0,0,1-.5-1c-.9.9-1.6,1.4-2.2,1.4a2.6,2.6,0,0,1-1.4-.7,2.3,2.3,0,0,1-.7-1.4,4.9,4.9,0,0,1,.6-1.9,9.1,9.1,0,0,1,1.7-2.3,2.7,2.7,0,0,1,2.1-1.1,2.1,2.1,0,0,1,1.4.7c.5.5.8.9.8,1.3A3.8,3.8,0,0,1,298.9,120.3Zm-4.2,2.3a2.8,2.8,0,0,0,1.5-.8,2.8,2.8,0,0,0,1.2-2l.2-.2c0-.5-.1-.8-.2-.8a2.4,2.4,0,0,0-1.3.7,8.3,8.3,0,0,0-1.2,1.6,3,3,0,0,0-.4,1.3h.2Z"/><path d="M82.6,137.6a4.5,4.5,0,0,1-1.9.5H79c0,.2-.1.5-.1.8a4.3,4.3,0,0,0,.1.5,1,1,0,0,0,.7.2l1.8-.2.8-.2c.4,0,.6.1.6.4s-.3.7-.9,1a5.1,5.1,0,0,1-2.2.5,2.5,2.5,0,0,1-1.9-.7,2.6,2.6,0,0,1-.7-1.8,4.9,4.9,0,0,1,.6-2.2,5.8,5.8,0,0,1,1.5-1.9,2.9,2.9,0,0,1,1.8-.8,2.2,2.2,0,0,1,1.7.9,2.9,2.9,0,0,1,.8,1.8C83.6,136.8,83.3,137.2,82.6,137.6Zm-1-1.9-.5-.3c-.2,0-.4.1-.7.4a2.7,2.7,0,0,0-.8,1H80c1.3,0,1.9-.3,1.9-.7Z"/><path d="M87,130.3a1.7,1.7,0,0,1,.6,1.2c0,.4-.1,1-.2,2s-.2,1.8-.3,2.3c-.8,3.5-1.4,5.2-1.7,5.2a1.5,1.5,0,0,1-.8-.5,1.2,1.2,0,0,1-.4-.8l.3-1.5a22.5,22.5,0,0,0,.8-3.8,21.5,21.5,0,0,0,.4-4.3.5.5,0,0,1,.5-.5C86.4,129.6,86.7,129.9,87,130.3Z"/><path d="M96.3,130.3a1.7,1.7,0,0,1,.6,1.2c0,.4-.1,1-.2,2s-.2,1.8-.3,2.3c-.8,3.5-1.4,5.2-1.7,5.2a1.5,1.5,0,0,1-.8-.5,1.2,1.2,0,0,1-.4-.8l.3-1.5a22.5,22.5,0,0,0,.8-3.8,21.5,21.5,0,0,0,.4-4.3.5.5,0,0,1,.5-.5C95.7,129.6,96,129.9,96.3,130.3Z"/><path d="M98.9,133.6a.9.9,0,0,1,.8.6,1.9,1.9,0,0,1,.4,1.1,8.3,8.3,0,0,1-.5,2l-.9,3.1a.7.7,0,0,1-.7.6l-.6-.2a1.4,1.4,0,0,1-.2-.7,15,15,0,0,1,.3-1.8,18.5,18.5,0,0,0,.6-2.6,5.3,5.3,0,0,1,.4-1.6C98.6,133.8,98.7,133.6,98.9,133.6Zm-.3-1.7a1,1,0,0,1,.4-.8.7.7,0,0,1,.6-.4c.2,0,.5.3.8.8a2.4,2.4,0,0,1,.4,1.1c0,.2,0,.4-.2.5s-.3.2-.5.2a1.6,1.6,0,0,1-.9-.5Q98.6,132.2,98.6,131.9Z"/><path d="M106.5,133.7a1.5,1.5,0,0,1,1.2.7,2.2,2.2,0,0,1,.6,1.4,4.9,4.9,0,0,1-.3,1.5,5.3,5.3,0,0,1-.8,1.7,4.1,4.1,0,0,1-1.2,1.4,2.7,2.7,0,0,1-1.6.6,3.4,3.4,0,0,1-1.9-.8c-.2.5-.3.8-.4.8a2.1,2.1,0,0,1-1.3-1.3c0-.2.2-.9.5-2.1a29.5,29.5,0,0,0,1.4-7.5.5.5,0,0,1,.4-.5c.3,0,.6.3.9.7a1.7,1.7,0,0,1,.6,1.1,22.3,22.3,0,0,1-.7,4A3.8,3.8,0,0,1,106.5,133.7Zm-2.3,5.7c.5,0,1-.5,1.6-1.3a4.6,4.6,0,0,0,.8-2.4h-.2a2.4,2.4,0,0,0-1.7.9,11.1,11.1,0,0,0-1.6,2.4A2.1,2.1,0,0,0,104.2,139.4Z"/><path d="M109.8,136.1v-1.7c0-.5.2-.8.5-.8a.9.9,0,0,1,.6.3.9.9,0,0,1,.4.6,4.1,4.1,0,0,1,1.1-.7l1-.2c.7,0,1.1.1,1.1.5v.4h-.2l-.2.2h-.1l-.5.3a4,4,0,0,0-1.8,2.5,13.5,13.5,0,0,1-.7,2.5c-.3.5-.6.8-.9.8a.5.5,0,0,1-.6-.4,1.3,1.3,0,0,1-.2-.8,3,3,0,0,1,.2-1.2,9.3,9.3,0,0,0,.4-1.3A4.5,4.5,0,0,0,109.8,136.1Z"/><path d="M119.7,137.6a4.9,4.9,0,0,1-2,.5h-1.6a1.9,1.9,0,0,0-.2.8.8.8,0,0,0,.2.5l.6.2,1.8-.2.8-.2c.4,0,.6.1.6.4s-.3.7-.9,1a4.6,4.6,0,0,1-2.1.5,2.7,2.7,0,0,1-2-.7,3.1,3.1,0,0,1-.7-1.8,4.9,4.9,0,0,1,.6-2.2,5.8,5.8,0,0,1,1.5-1.9,3.1,3.1,0,0,1,1.9-.8,2.1,2.1,0,0,1,1.6.9,2.9,2.9,0,0,1,.8,1.8C120.6,136.8,120.3,137.2,119.7,137.6Zm-1.1-1.9c-.2-.2-.3-.3-.5-.3s-.4.1-.7.4a4.4,4.4,0,0,0-.8,1h.4c1.3,0,1.9-.3,1.9-.7Z"/><path d="M136.3,133.6a1.2,1.2,0,0,1,.9.8,2.4,2.4,0,0,1,.4,1.3,8.1,8.1,0,0,1-.3,1.9,10.1,10.1,0,0,1-.7,2.3c-.3.7-.7,1.1-1.1,1.1s-.5-.2-.5-.6a12.3,12.3,0,0,1,.4-2.1,7.7,7.7,0,0,0,.4-1.9c0-.3-.1-.5-.2-.5s-.4.2-.7.7a19.4,19.4,0,0,0-1,1.7l-.7,1.4-.2.5-.2.4q-.5.8-1.2,0a.9.9,0,0,1-.4-.7,4.5,4.5,0,0,1,.2-1.1,8.6,8.6,0,0,0,.2-2.3c0-.4,0-.6-.1-.6l-.4.3c-.1.3-.4.7-.7,1.3l-.8,1.5c-.8,1.3-1.4,2-1.8,2a1.5,1.5,0,0,1-.8-.5c-.3-.4-.5-.6-.5-.8a7,7,0,0,1,.3-1.4,7.9,7.9,0,0,0,.5-2.2c0-.8.1-1.5.1-1.9s.2-.7.4-.7a1.6,1.6,0,0,1,1,.5,1,1,0,0,1,.5.8,12.2,12.2,0,0,1-.6,2.9,17.3,17.3,0,0,1,1.7-3.2c.5-.6.9-.9,1.4-.9s.5.3.9.7a2.2,2.2,0,0,1,.6,1.3,3.1,3.1,0,0,1-.1,1,6.6,6.6,0,0,1,1.4-2A2.8,2.8,0,0,1,136.3,133.6Z"/><path d="M143.8,137.6a4.5,4.5,0,0,1-1.9.5h-1.7a1.9,1.9,0,0,0-.1.8.7.7,0,0,0,.1.5,1,1,0,0,0,.7.2l1.8-.2.8-.2c.4,0,.6.1.6.4s-.3.7-1,1a4.6,4.6,0,0,1-2.1.5,2.5,2.5,0,0,1-1.9-.7,2.6,2.6,0,0,1-.7-1.8,4.9,4.9,0,0,1,.6-2.2,5.8,5.8,0,0,1,1.5-1.9,2.9,2.9,0,0,1,1.8-.8,2.2,2.2,0,0,1,1.7.9,2.9,2.9,0,0,1,.8,1.8C144.8,136.8,144.4,137.2,143.8,137.6Zm-1-1.9-.6-.3a.9.9,0,0,0-.6.4,2.7,2.7,0,0,0-.8,1h.3c1.3,0,2-.3,2-.7Z"/><path d="M146.1,136.1v-1.7c0-.5.2-.8.5-.8a.9.9,0,0,1,.6.3.9.9,0,0,1,.4.6,4.1,4.1,0,0,1,1.1-.7l1-.2c.7,0,1,.1,1,.5a.6.6,0,0,1-.1.4h-.1l-.2.2h-.1l-.5.3a5.2,5.2,0,0,0-1.1,1,3.5,3.5,0,0,0-.7,1.5,12.3,12.3,0,0,1-.8,2.5c-.2.5-.5.8-.8.8a.5.5,0,0,1-.6-.4,1.6,1.6,0,0,1-.3-.8,3.5,3.5,0,0,1,.3-1.2,9.3,9.3,0,0,0,.4-1.3A4.5,4.5,0,0,0,146.1,136.1Z"/><path d="M150.5,138.8a4.9,4.9,0,0,1,.6-2.2,6.8,6.8,0,0,1,1.7-2.1,2.7,2.7,0,0,1,2-.8c.3,0,.6.2,1,.6a1.6,1.6,0,0,1,.5,1.2.3.3,0,0,1-.3.3h-.5l-.6-.2q-.3,0-.9.6a4,4,0,0,0-1,1.2,2.8,2.8,0,0,0-.5,1.2.8.8,0,0,0,.2.6h2l.7-.2.5-.2a.4.4,0,0,1,.4.4c0,.4-.4.8-1.1,1.3a4.9,4.9,0,0,1-2.2.6,2.2,2.2,0,0,1-1.6-.8A2.1,2.1,0,0,1,150.5,138.8Z"/><path d="M163.5,137c.2.1.3.2.3.4l-.2.7a5.1,5.1,0,0,0-.2.9c0,.3-.1.4-.1.6v.2a.4.4,0,0,0-.1.3.4.4,0,0,1-.1.3v.2c0,.1-.1.1-.1.2h-.4c-.1,0-.3-.1-.5-.4a3,3,0,0,1-.4-1c-.9,1-1.6,1.4-2.3,1.4a1.9,1.9,0,0,1-1.3-.7,1.7,1.7,0,0,1-.7-1.3,5.3,5.3,0,0,1,.6-2,9.1,9.1,0,0,1,1.7-2.3,3.1,3.1,0,0,1,2.1-1.1,2.6,2.6,0,0,1,1.4.7c.5.5.8.9.8,1.3A3,3,0,0,1,163.5,137Zm-4.1,2.2a2.2,2.2,0,0,0,1.5-.8,3.5,3.5,0,0,0,1.2-1.9.2.2,0,0,1,.2-.2c0-.6-.1-.8-.2-.8a1.7,1.7,0,0,0-1.3.7,6.1,6.1,0,0,0-1.2,1.6,2.7,2.7,0,0,0-.4,1.2v.2Z"/><path d="M170.8,129.6c.3,0,.6.3.9.7a1.7,1.7,0,0,1,.6,1.1c0,.2-.2,1-.5,2.3s-.5,2.1-.6,2.4c-.8,3.3-1.3,4.9-1.7,4.9a.9.9,0,0,1-.6-.3c-.3-.3-.4-.5-.4-.7v-.2a4,4,0,0,1-2,1.2,1.3,1.3,0,0,1-1.2-.7,1.7,1.7,0,0,1-.6-1.2,5.7,5.7,0,0,1,.1-1.2,12.1,12.1,0,0,1,.5-1.4,9.1,9.1,0,0,1,.7-1.4,3.2,3.2,0,0,1,1-1,2.1,2.1,0,0,1,1.2-.5,1.9,1.9,0,0,1,1.5,1,18.5,18.5,0,0,0,.7-4.5A.5.5,0,0,1,170.8,129.6Zm-4.2,9.6a2.2,2.2,0,0,0,1.2-.6,3.4,3.4,0,0,0,1.3-1.6v-.5a1.1,1.1,0,0,0-.3-.7.5.5,0,0,0-.4-.3,1.2,1.2,0,0,0-.9.4l-.6,1.1a8,8,0,0,0-.5,2v.2Z"/><path d="M173.5,135.2c.7-1,1.4-1.6,2.2-1.6a2.5,2.5,0,0,1,1.8.8,2.4,2.4,0,0,1,.7,1.8,4.2,4.2,0,0,1-.5,2.2,4.5,4.5,0,0,1-1.4,1.9,3.1,3.1,0,0,1-2,.7,1.7,1.7,0,0,1-1.4-.7,3.1,3.1,0,0,1-.5-1.7A5.5,5.5,0,0,1,173.5,135.2Zm2.3,3a4.1,4.1,0,0,0,.6-2,1.7,1.7,0,0,0-.3-1.2,3.2,3.2,0,0,0-1.2,1.5,4.1,4.1,0,0,0-.6,2c0,.5,0,.9.2,1.1A3.6,3.6,0,0,0,175.8,138.2Z"/><path d="M189.8,134a.4.4,0,0,1,.4-.4,1,1,0,0,1,.8.5,1.7,1.7,0,0,1,.4,1.1,3.2,3.2,0,0,1-.2,1.2l-.4,1.1a4.1,4.1,0,0,1-.3.8l-.3,1.1a5.9,5.9,0,0,0-.5,1.3c-.2.5-.3,1-.5,1.5a5.6,5.6,0,0,1-1.1,1.9,1.9,1.9,0,0,1-1.6.7,2.7,2.7,0,0,1-1.8-.5c-.6-.4-.8-.7-.8-1.1a1.3,1.3,0,0,1,.3-.7c.2-.3.3-.4.5-.4l.5.3.7.7a.9.9,0,0,0,.6.3h.3l.2-.3c.1-.1.1-.3.2-.4s.1-.3.1-.4a1.4,1.4,0,0,0,.2-.6c.1-.2.1-.4.2-.6a9.3,9.3,0,0,0,.4-1.3,2.8,2.8,0,0,1-1,.9,1.2,1.2,0,0,1-.9.4c-.3,0-.6-.2-1-.6a2.1,2.1,0,0,1-.7-1.4,12.3,12.3,0,0,1,.4-2.1,15.5,15.5,0,0,1,.8-2.3c.4-.6.6-1,.9-1a1.2,1.2,0,0,1,.8.4,1,1,0,0,1,.4.8,3.6,3.6,0,0,1-.3,1.1,6.7,6.7,0,0,0-.7,1.7,3.4,3.4,0,0,0-.4,1.5h.1c.1,0,.4-.2.8-.7a14,14,0,0,0,1.3-2A14.2,14.2,0,0,0,189.8,134Z"/><path d="M200.3,130.3a2.1,2.1,0,0,1,.5,1.2c0,.4-.1,1-.2,2s-.2,1.8-.3,2.3c-.8,3.5-1.4,5.2-1.7,5.2s-.4-.2-.8-.5a1.2,1.2,0,0,1-.4-.8,11,11,0,0,1,.4-1.5c.2-1,.5-2.2.7-3.8a21.5,21.5,0,0,0,.4-4.3.5.5,0,0,1,.5-.5C199.6,129.6,199.9,129.9,200.3,130.3Z"/><path d="M202.2,135.2a3.1,3.1,0,0,1,2.2-1.6,2.7,2.7,0,0,1,2.6,2.6,4.3,4.3,0,0,1-.6,2.2,4.5,4.5,0,0,1-1.4,1.9,3.1,3.1,0,0,1-2,.7,1.5,1.5,0,0,1-1.3-.7,2.5,2.5,0,0,1-.6-1.7A6.2,6.2,0,0,1,202.2,135.2Zm2.3,3a4.1,4.1,0,0,0,.6-2,1.7,1.7,0,0,0-.3-1.2,3.2,3.2,0,0,0-1.2,1.5,4.1,4.1,0,0,0-.6,2,2.7,2.7,0,0,0,.2,1.1A3.6,3.6,0,0,0,204.5,138.2Z"/><path d="M212.2,133.7a1.5,1.5,0,0,1,1.1.6,2.1,2.1,0,0,1,.5,1.2.3.3,0,0,1-.3.3H213l-.6-.2-1,.3c-.5.1-.7.3-.7.6l.4.4.9.5a6,6,0,0,1,.8.8,1.7,1.7,0,0,1,.4,1.1q0,.6-.9,1.2a3.4,3.4,0,0,1-2,.6,4.2,4.2,0,0,1-2-.5c-.6-.4-.8-.7-.8-1.1s.1-.6.4-.6l.5.2a2.9,2.9,0,0,0,1.7.4c.8,0,1.1-.1,1.1-.3a.7.7,0,0,0-.4-.6l-.9-.7-.9-.7a1.8,1.8,0,0,1-.4-.9c0-.5.5-1,1.4-1.6A5,5,0,0,1,212.2,133.7Z"/><path d="M219.8,138.8a4,4,0,0,1,.7-2.2,6.5,6.5,0,0,1,1.6-2.1,3,3,0,0,1,2-.8,1.4,1.4,0,0,1,1,.6,1.7,1.7,0,0,1,.6,1.2c0,.2-.1.3-.4.3h-.4l-.7-.2c-.2,0-.5.2-.8.6a4.3,4.3,0,0,0-1.1,1.2,2.4,2.4,0,0,0-.4,1.2c0,.3,0,.5.1.6h2l.8-.2.4-.2a.4.4,0,0,1,.4.4c0,.4-.4.8-1.1,1.3a4.6,4.6,0,0,1-2.2.6,2.2,2.2,0,0,1-1.6-.8A2.1,2.1,0,0,1,219.8,138.8Z"/><path d="M227.8,135.2c.8-1,1.5-1.6,2.2-1.6a2.6,2.6,0,0,1,1.9.8,2.4,2.4,0,0,1,.7,1.8,5.4,5.4,0,0,1-.5,2.2,4.5,4.5,0,0,1-1.4,1.9,3.2,3.2,0,0,1-2,.7,1.6,1.6,0,0,1-1.4-.7,2.5,2.5,0,0,1-.6-1.7A6.2,6.2,0,0,1,227.8,135.2Zm2.4,3a5.3,5.3,0,0,0,.5-2c0-.6,0-1-.2-1.2a3.2,3.2,0,0,0-1.2,1.5,4.1,4.1,0,0,0-.6,2,3.1,3.1,0,0,0,.1,1.1A3.7,3.7,0,0,0,230.2,138.2Z"/><path d="M238.6,133.6a1.9,1.9,0,0,1,1.3.7,2,2,0,0,1,.5,1.4,12.2,12.2,0,0,1-.3,2.6,12.9,12.9,0,0,1-.9,2c-.3.5-.6.7-.9.7s-.5-.2-.5-.7a8.2,8.2,0,0,1,.4-2,6.3,6.3,0,0,0,.4-1.9c0-.3,0-.5-.1-.5s-.3,0-.4.2l-.3.3-.3.3c-.1.2-.1.3-.2.4l-.3.5-.3.5-.2.4c-.9,1.7-1.6,2.5-2.1,2.5s-.4-.2-.8-.5-.4-.6-.4-.8l.2-.7.3-.8c.1-.1.1-.3.2-.5a1.5,1.5,0,0,1,.1-.7v-.6a3.5,3.5,0,0,0,.1-.6,12.1,12.1,0,0,1,.2-2.1l.2-.2a1.4,1.4,0,0,1,1,.5,1,1,0,0,1,.5.8,9.6,9.6,0,0,1-.4,2.5l1.7-2.6C237.8,134,238.2,133.6,238.6,133.6Z"/><path d="M241.9,136.1a.8.8,0,0,1-.7-.4,1.1,1.1,0,0,1-.3-.7c0-.4.4-.6,1.4-.7a19.5,19.5,0,0,0,.2-2.3,1.9,1.9,0,0,1,1.9-2.1,1.7,1.7,0,0,1,1.3.4,1.3,1.3,0,0,1,.4,1v.4a.4.4,0,0,1-.4.2h-.5l-.3-.2c-.2,0-.3.2-.4.4a3.1,3.1,0,0,0-.1,1,4.9,4.9,0,0,1-.1,1.2c1.7-.3,2.5-.9,2.5-1.8a10,10,0,0,1,.2-1.6c.1-.6.3-.9.5-.9a1.3,1.3,0,0,1,1,.4,1.3,1.3,0,0,1,.4.9,12.6,12.6,0,0,1-.3,2.1c-.1,1-.3,2.1-.5,3.3s-.6,2.2-.9,3.1-.7,1.3-1.1,1.3a.9.9,0,0,1-.6-.3,1.3,1.3,0,0,1-.3-.8,8.5,8.5,0,0,1,.5-1.8,15.7,15.7,0,0,0,.8-2.9,5.2,5.2,0,0,1-2.4.8,14,14,0,0,1-.8,3.5c-.3,1-.6,1.5-1,1.5a.7.7,0,0,1-.6-.4,1.1,1.1,0,0,1-.3-.8,3.9,3.9,0,0,1,.2-1.1,20.7,20.7,0,0,0,.6-2.6Z"/><path d="M250.2,133.6a1.2,1.2,0,0,1,.9.6,3,3,0,0,1,.4,1.1c0,.2-.2.8-.5,2s-.7,2.1-1,3.1a.7.7,0,0,1-.7.6l-.5-.2a.9.9,0,0,1-.3-.7,8.4,8.4,0,0,1,.4-1.8c.2-1,.4-1.9.5-2.6l.4-1.6C249.9,133.8,250,133.6,250.2,133.6Zm-.2-1.7a1.3,1.3,0,0,1,.3-.8.9.9,0,0,1,.7-.4c.2,0,.4.3.7.8a3.1,3.1,0,0,1,.5,1.1.5.5,0,0,1-.3.5.4.4,0,0,1-.4.2,1.9,1.9,0,0,1-1-.5A2.1,2.1,0,0,1,250,131.9Z"/><path d="M252.3,138.8a4.9,4.9,0,0,1,.6-2.2,6.8,6.8,0,0,1,1.7-2.1,2.7,2.7,0,0,1,2-.8c.3,0,.6.2,1,.6a1.6,1.6,0,0,1,.5,1.2.3.3,0,0,1-.3.3h-.5l-.6-.2q-.3,0-.9.6a4,4,0,0,0-1,1.2,2.8,2.8,0,0,0-.5,1.2.8.8,0,0,0,.2.6h2l.7-.2.5-.2a.4.4,0,0,1,.4.4c0,.4-.4.8-1.1,1.3a4.9,4.9,0,0,1-2.2.6,2.2,2.2,0,0,1-1.6-.8A2.1,2.1,0,0,1,252.3,138.8Z"/><path d="M262.6,136.4c-.1.5-.3,1.1-.5,1.8a6.2,6.2,0,0,0-.3,1.1h.2l1.1-.3,1.1-.3c.2,0,.3.1.3.5s-.3.7-.9,1.1a3.2,3.2,0,0,1-2,.7,2.1,2.1,0,0,1-1.1-.5,1.4,1.4,0,0,1-.6-1,6.5,6.5,0,0,1,.4-1.8l.6-1.9-.9.2-.6-.4a1.3,1.3,0,0,1-.3-.8c0-.3.8-.5,2.2-.8a9.7,9.7,0,0,0,.3-2.3.4.4,0,0,1,.4-.4,1.9,1.9,0,0,1,1,.5,1.2,1.2,0,0,1,.6.9c0,.2-.1.6-.2,1.2h1c.7,0,1.1.2,1.1.5s-.2.4-.6.6l-1.9.4A7.6,7.6,0,0,1,262.6,136.4Z"/><path d="M266.7,135.2c.8-1,1.5-1.6,2.2-1.6a2.6,2.6,0,0,1,1.9.8,2.4,2.4,0,0,1,.7,1.8,5.4,5.4,0,0,1-.5,2.2,4.7,4.7,0,0,1-1.5,1.9,2.8,2.8,0,0,1-1.9.7,1.6,1.6,0,0,1-1.4-.7,2.5,2.5,0,0,1-.6-1.7A6.2,6.2,0,0,1,266.7,135.2Zm2.4,3a5.3,5.3,0,0,0,.5-2,2.9,2.9,0,0,0-.2-1.2,3.2,3.2,0,0,0-1.2,1.5,4.4,4.4,0,0,0-.7,2,2.7,2.7,0,0,0,.2,1.1A3.7,3.7,0,0,0,269.1,138.2Z"/><path d="M276.8,133.7a1.4,1.4,0,0,1,1,.6,1.7,1.7,0,0,1,.6,1.2.3.3,0,0,1-.3.3h-.5l-.7-.2-1,.3q-.6.1-.6.6c0,.1.1.2.4.4l.8.5a3,3,0,0,1,.8.8,1.7,1.7,0,0,1,.4,1.1,1.7,1.7,0,0,1-.8,1.2,3.7,3.7,0,0,1-2.1.6,4.6,4.6,0,0,1-2-.5c-.5-.4-.8-.7-.8-1.1s.2-.6.5-.6l.4.2a3.4,3.4,0,0,0,1.8.4c.7,0,1.1-.1,1.1-.3s-.2-.4-.5-.6a2.7,2.7,0,0,0-.8-.7,3.1,3.1,0,0,1-.9-.7,1.2,1.2,0,0,1-.4-.9c0-.5.4-1,1.4-1.6A4.2,4.2,0,0,1,276.8,133.7Z"/><path d="M95,153.1a10.7,10.7,0,0,0-.6,1.7l-.3,1.1h.2l1.2-.3,1-.4a.5.5,0,0,1,.4.5c0,.3-.4.7-1,1.2a3.7,3.7,0,0,1-2,.7,2.1,2.1,0,0,1-1.1-.5,1.5,1.5,0,0,1-.6-1.1,8.4,8.4,0,0,1,.4-1.8l.6-1.8h-.8a.7.7,0,0,1-.6-.4,1.1,1.1,0,0,1-.3-.7c0-.3.7-.6,2.2-.8a10.2,10.2,0,0,0,.2-2.3c0-.3.2-.4.5-.4a1.6,1.6,0,0,1,.9.4,1.2,1.2,0,0,1,.6.9,7.4,7.4,0,0,1-.2,1.2h1.1c.7,0,1,.2,1,.5s-.2.4-.6.5l-1.9.5A8.1,8.1,0,0,0,95,153.1Z"/><path d="M103.5,154.2a3.6,3.6,0,0,1-2,.6l-1.6-.2a2.5,2.5,0,0,0-.1.8,1.1,1.1,0,0,0,.1.6h.6a5.3,5.3,0,0,0,1.9-.2l.8-.2c.4,0,.5.1.5.4s-.3.7-.9,1.1a4.6,4.6,0,0,1-2.1.5,2.6,2.6,0,0,1-1.9-.8,2.5,2.5,0,0,1-.8-1.8,4.2,4.2,0,0,1,.6-2.1,7.7,7.7,0,0,1,1.6-1.9,2.9,2.9,0,0,1,1.8-.8,2.4,2.4,0,0,1,1.7.9,2.7,2.7,0,0,1,.7,1.8A1.5,1.5,0,0,1,103.5,154.2Zm-1-1.9a.7.7,0,0,0-.6-.2l-.7.3a8.6,8.6,0,0,0-.7,1h.3c1.3,0,2-.2,2-.7Z"/><path d="M105.8,152.7v-1.6c0-.5.2-.8.5-.8l.6.2a1.6,1.6,0,0,1,.4.7,4.1,4.1,0,0,1,1.1-.7,1.9,1.9,0,0,1,1-.3c.7,0,1,.2,1,.5s0,.3-.1.4-.1.1-.1.2h-.2l-.2.2-.4.3a3.3,3.3,0,0,0-1.1.9,3.4,3.4,0,0,0-.7,1.6,11,11,0,0,1-.8,2.4c-.2.6-.5.8-.8.8a.8.8,0,0,1-.7-.4,2.4,2.4,0,0,1-.2-.8,3.6,3.6,0,0,1,.3-1.1c.2-.5.3-1,.4-1.3A5.3,5.3,0,0,0,105.8,152.7Z"/><path d="M111,152.7v-1.6c0-.5.1-.8.5-.8l.5.2a1.8,1.8,0,0,1,.5.7l1-.7,1-.3c.7,0,1.1.2,1.1.5s0,.3-.1.4l-.2.2h-.1l-.2.2-.5.3a3.4,3.4,0,0,0-1.8,2.5,12.1,12.1,0,0,1-.7,2.4c-.3.6-.5.8-.8.8a.8.8,0,0,1-.7-.4,2.4,2.4,0,0,1-.2-.8,3.6,3.6,0,0,1,.3-1.1c.2-.5.3-1,.4-1.3S111,153.2,111,152.7Z"/><path d="M117,150.3a.9.9,0,0,1,.8.6,1.5,1.5,0,0,1,.4,1.1,8.1,8.1,0,0,1-.5,1.9l-.9,3.2a.6.6,0,0,1-.7.5.7.7,0,0,1-.6-.2.8.8,0,0,1-.2-.6,12.9,12.9,0,0,1,.3-1.9,15.8,15.8,0,0,0,.6-2.6,3.9,3.9,0,0,1,.4-1.5C116.7,150.5,116.8,150.3,117,150.3Zm-.3-1.8a1.2,1.2,0,0,1,.4-.8l.6-.3c.2,0,.5.2.8.7a2.4,2.4,0,0,1,.4,1.1c0,.3,0,.5-.2.6l-.5.2a1.4,1.4,0,0,1-.9-.6A1.2,1.2,0,0,1,116.7,148.5Z"/><path d="M122.4,153.1l-.5,1.7a7,7,0,0,1-.4,1.1h.3l1.1-.3,1-.4c.3,0,.4.2.4.5s-.3.7-1,1.2a3.7,3.7,0,0,1-2,.7,1.9,1.9,0,0,1-1-.5c-.5-.4-.7-.7-.7-1.1a13.7,13.7,0,0,1,.5-1.8l.6-1.8h-.9a.7.7,0,0,1-.6-.4,1.1,1.1,0,0,1-.3-.7c0-.3.7-.6,2.2-.8a11.1,11.1,0,0,0,.3-2.3c0-.3.1-.4.4-.4a1.6,1.6,0,0,1,1,.4,1.1,1.1,0,0,1,.5.9,5.7,5.7,0,0,1-.1,1.2h1c.7,0,1.1.2,1.1.5s-.2.4-.6.5l-2,.5A3,3,0,0,1,122.4,153.1Z"/><path d="M126.5,151.9c.8-1.1,1.5-1.6,2.2-1.6a2.4,2.4,0,0,1,1.8.7,2.9,2.9,0,0,1,.8,1.9,6.3,6.3,0,0,1-.5,2.2,6.5,6.5,0,0,1-1.5,1.8,3.2,3.2,0,0,1-2,.8,1.9,1.9,0,0,1-1.3-.7,2.7,2.7,0,0,1-.6-1.7A6,6,0,0,1,126.5,151.9Zm2.3,2.9a3.8,3.8,0,0,0,.6-1.9,3.5,3.5,0,0,0-.2-1.3,2.8,2.8,0,0,0-1.3,1.5,4.5,4.5,0,0,0-.6,2,2,2,0,0,0,.2,1.1A2.6,2.6,0,0,0,128.8,154.8Z"/><path d="M132.8,152.7v-1.6c0-.5.2-.8.5-.8l.6.2a4.3,4.3,0,0,1,.4.7l1-.7,1.1-.3c.7,0,1,.2,1,.5s0,.3-.1.4-.1.1-.1.2h-.2l-.2.2-.5.3a4.3,4.3,0,0,0-1,.9,2.6,2.6,0,0,0-.7,1.6,11,11,0,0,1-.8,2.4c-.2.6-.5.8-.8.8a.8.8,0,0,1-.7-.4,2.4,2.4,0,0,1-.2-.8,3.6,3.6,0,0,1,.3-1.1c.2-.5.3-1,.4-1.3S132.8,153.2,132.8,152.7Z"/><path d="M138.8,150.3a1.2,1.2,0,0,1,.9.6,2.1,2.1,0,0,1,.4,1.1l-.5,1.9c-.4,1.1-.7,2.2-1,3.2a.6.6,0,0,1-.7.5.7.7,0,0,1-.6-.2.8.8,0,0,1-.2-.6,7.7,7.7,0,0,1,.4-1.9c.2-1,.4-1.8.5-2.6l.4-1.5C138.5,150.5,138.6,150.3,138.8,150.3Zm-.2-1.8a1.6,1.6,0,0,1,.3-.8.9.9,0,0,1,.7-.3c.2,0,.4.2.7.7a3.1,3.1,0,0,1,.5,1.1.6.6,0,0,1-.3.6l-.4.2c-.3,0-.6-.2-1-.6A1.1,1.1,0,0,1,138.6,148.5Z"/><path d="M146.9,153.6l.3.4-.2.8a5.1,5.1,0,0,0-.2.9,4.3,4.3,0,0,1-.1.5v.3a.4.4,0,0,0-.1.3c0,.1,0,.2-.1.2v.2a.3.3,0,0,1-.1.2h-.1c0,.1-.1.2-.3.2l-.5-.4a3,3,0,0,1-.4-1c-.9.9-1.6,1.4-2.3,1.4a2.4,2.4,0,0,1-1.3-.7,1.9,1.9,0,0,1-.7-1.4,4.9,4.9,0,0,1,.6-1.9,9.1,9.1,0,0,1,1.7-2.3,3.1,3.1,0,0,1,2.1-1.1,2.1,2.1,0,0,1,1.4.7c.5.5.8.9.8,1.3A2.7,2.7,0,0,1,146.9,153.6Zm-4.1,2.3a2.8,2.8,0,0,0,1.5-.8,3.7,3.7,0,0,0,1.2-2l.2-.2c0-.5-.1-.8-.2-.8s-.8.3-1.3.8a5.7,5.7,0,0,0-1.2,1.5,3,3,0,0,0-.4,1.3h.2Z"/><path d="M151.1,146.9a2.1,2.1,0,0,1,.5,1.2c0,.4-.1,1.1-.2,2.1s-.2,1.7-.3,2.3c-.8,3.4-1.4,5.2-1.7,5.2a1.5,1.5,0,0,1-.8-.5,1.6,1.6,0,0,1-.4-.9s.1-.5.4-1.5.5-2.2.7-3.7a22.5,22.5,0,0,0,.4-4.4c0-.3.2-.4.5-.4S150.7,146.5,151.1,146.9Z"/><path d="M157.4,154.2a3.6,3.6,0,0,1-2,.6l-1.6-.2a2.5,2.5,0,0,0-.1.8,1.1,1.1,0,0,0,.1.6h.6a5.3,5.3,0,0,0,1.9-.2l.8-.2c.4,0,.6.1.6.4s-.3.7-1,1.1a4.6,4.6,0,0,1-2.1.5,2.6,2.6,0,0,1-1.9-.8,2.5,2.5,0,0,1-.8-1.8,4.4,4.4,0,0,1,.7-2.1,5.8,5.8,0,0,1,1.5-1.9,2.9,2.9,0,0,1,1.8-.8,2.2,2.2,0,0,1,1.7.9,2.7,2.7,0,0,1,.7,1.8A1.5,1.5,0,0,1,157.4,154.2Zm-1-1.9a.7.7,0,0,0-.6-.2l-.7.3a8.6,8.6,0,0,0-.7,1h.3c1.3,0,2-.2,2-.7Z"/><path d="M163.5,150.3a1.3,1.3,0,0,1,1,.7,1.7,1.7,0,0,1,.6,1.1c0,.2-.1.4-.3.4l-.5-.2h-.7l-1,.2q-.6.3-.6.6l.4.4.8.6a2,2,0,0,1,.8.8,1.5,1.5,0,0,1,.4,1.1,1.7,1.7,0,0,1-.8,1.2,3.7,3.7,0,0,1-2.1.6,3.6,3.6,0,0,1-2-.6,1.4,1.4,0,0,1-.8-1.1.5.5,0,0,1,.5-.5h.4a3.4,3.4,0,0,0,1.8.4c.7,0,1.1,0,1.1-.2s-.2-.4-.5-.7l-.8-.6a3.4,3.4,0,0,1-.9-.8.9.9,0,0,1-.4-.8c0-.5.4-1.1,1.4-1.7A4.2,4.2,0,0,1,163.5,150.3Z"/><path d="M177.1,153.6l.3.4-.2.8a5.1,5.1,0,0,0-.2.9,4.3,4.3,0,0,1-.1.5v.3a.4.4,0,0,0-.1.3v.4a.3.3,0,0,1-.1.2h-.1c0,.1-.1.2-.3.2l-.5-.4a3,3,0,0,1-.4-1c-.9.9-1.6,1.4-2.3,1.4a2.4,2.4,0,0,1-1.3-.7,1.9,1.9,0,0,1-.7-1.4,4.9,4.9,0,0,1,.6-1.9,9.1,9.1,0,0,1,1.7-2.3,3.1,3.1,0,0,1,2.1-1.1,2.1,2.1,0,0,1,1.4.7c.5.5.8.9.8,1.3A2.7,2.7,0,0,1,177.1,153.6Zm-4.1,2.3a2.8,2.8,0,0,0,1.5-.8,3.7,3.7,0,0,0,1.2-2l.2-.2c0-.5-.1-.8-.2-.8s-.8.3-1.3.8a5.7,5.7,0,0,0-1.2,1.5,3,3,0,0,0-.4,1.3h.2Z"/><path d="M182.9,150.3c.4,0,.7.2,1.1.7a2.1,2.1,0,0,1,.5,1.1c0,.2-.1.4-.3.4l-.5-.2H183l-.9.2c-.5.2-.7.4-.7.6l.4.4.8.6a3.2,3.2,0,0,1,.9.8,2.1,2.1,0,0,1,.4,1.1q0,.6-.9,1.2a3.4,3.4,0,0,1-2,.6,3.2,3.2,0,0,1-2-.6,1.2,1.2,0,0,1-.8-1.1c0-.3.1-.5.4-.5h.5a2.9,2.9,0,0,0,1.7.4c.7,0,1.1,0,1.1-.2s-.1-.4-.4-.7l-.9-.6-.9-.8a.9.9,0,0,1-.4-.8c0-.5.5-1.1,1.4-1.7A4.6,4.6,0,0,1,182.9,150.3Z"/><path d="M186.1,151.9c.7-1.1,1.4-1.6,2.1-1.6a2.5,2.5,0,0,1,1.9.7,2.8,2.8,0,0,1,.7,1.9,6.3,6.3,0,0,1-.5,2.2,4.9,4.9,0,0,1-1.4,1.8,3.4,3.4,0,0,1-2,.8,2.1,2.1,0,0,1-1.4-.7,2.6,2.6,0,0,1-.5-1.7A5.3,5.3,0,0,1,186.1,151.9Zm2.3,2.9a3.6,3.6,0,0,0,.5-1.9c0-.6,0-1.1-.2-1.3a3.2,3.2,0,0,0-1.2,1.5,4.5,4.5,0,0,0-.6,2,2.5,2.5,0,0,0,.1,1.1A3.1,3.1,0,0,0,188.4,154.8Z"/><path d="M191.5,155.4a4.3,4.3,0,0,1,.7-2.2,5.3,5.3,0,0,1,1.6-2,3.2,3.2,0,0,1,2-.9,1.3,1.3,0,0,1,1,.7,1.7,1.7,0,0,1,.6,1.1c0,.3-.1.4-.4.4l-.4-.2h-.7a2.1,2.1,0,0,0-.9.5,14.7,14.7,0,0,0-1,1.3,2.4,2.4,0,0,0-.4,1.2c0,.3,0,.5.1.5l.8.2h1.2l.8-.3h.4c.3,0,.4.1.4.3s-.4.9-1.1,1.3a4.7,4.7,0,0,1-2.2.7,2.7,2.7,0,0,1-1.6-.8A2,2,0,0,1,191.5,155.4Z"/><path d="M200.1,150.3a1,1,0,0,1,.9.6,1.5,1.5,0,0,1,.4,1.1l-.5,1.9a29.9,29.9,0,0,1-1,3.2c-.1.4-.3.5-.7.5s-.4,0-.5-.2-.2-.3-.2-.6a12.9,12.9,0,0,1,.3-1.9c.3-1,.4-1.8.6-2.6a9.6,9.6,0,0,1,.3-1.5C199.8,150.5,200,150.3,200.1,150.3Zm-.2-1.8a1.6,1.6,0,0,1,.3-.8l.7-.3c.2,0,.5.2.8.7a2.4,2.4,0,0,1,.4,1.1.8.8,0,0,1-.2.6l-.5.2a2.8,2.8,0,0,1-1.5-1.5Z"/><path d="M208.3,153.6c.2.2.2.3.2.4a3.2,3.2,0,0,1-.1.8,4.6,4.6,0,0,1-.3.9v.5a.4.4,0,0,0-.1.3v.9h-.1l-.3.2c-.2,0-.3-.2-.5-.4a3.1,3.1,0,0,1-.5-1,3.5,3.5,0,0,1-2.2,1.4,2.1,2.1,0,0,1-1.3-.7,1.9,1.9,0,0,1-.7-1.4,4.9,4.9,0,0,1,.6-1.9,8.7,8.7,0,0,1,1.6-2.3,3.6,3.6,0,0,1,2.1-1.1,2.1,2.1,0,0,1,1.4.7,1.7,1.7,0,0,1,.8,1.3A2.4,2.4,0,0,1,208.3,153.6Zm-4.2,2.3a3.3,3.3,0,0,0,1.6-.8,3.1,3.1,0,0,0,1.1-2c0-.1.1-.2.3-.2s-.1-.8-.3-.8-.8.3-1.3.8a8.3,8.3,0,0,0-1.1,1.5,3.6,3.6,0,0,0-.5,1.3c0,.1,0,.1.1.1Z"/><path d="M215.6,146.3q.3,0,.9.6a1.7,1.7,0,0,1,.6,1.2c0,.2-.2.9-.5,2.2a18,18,0,0,0-.6,2.4c-.8,3.3-1.4,5-1.7,5s-.4-.2-.7-.4a1.3,1.3,0,0,1-.4-.7h.1a4.6,4.6,0,0,1-2.1,1.2,1.9,1.9,0,0,1-1.2-.7,1.7,1.7,0,0,1-.6-1.2,5,5,0,0,1,.2-1.2,7.4,7.4,0,0,1,.4-1.4c.3-.5.5-1,.8-1.4a4.8,4.8,0,0,1,.9-1.1,1.9,1.9,0,0,1,1.2-.4,1.6,1.6,0,0,1,1.5.9,19,19,0,0,0,.8-4.5C215.2,146.4,215.3,146.3,215.6,146.3Zm-4.2,9.5,1.2-.6a3.7,3.7,0,0,0,1.3-1.5.7.7,0,0,1-.1-.5.8.8,0,0,0-.2-.7c-.2-.3-.3-.4-.5-.4s-.5.2-.8.5a2,2,0,0,0-.6,1.1,4.5,4.5,0,0,0-.5,2h.2Z"/><path d="M218.2,151.9c.8-1.1,1.5-1.6,2.2-1.6a2.3,2.3,0,0,1,1.8.7,2.9,2.9,0,0,1,.8,1.9,6.3,6.3,0,0,1-.5,2.2,5.2,5.2,0,0,1-1.5,1.8,2.9,2.9,0,0,1-1.9.8,1.9,1.9,0,0,1-1.4-.7,2.7,2.7,0,0,1-.6-1.7A6,6,0,0,1,218.2,151.9Zm2.3,2.9a3.8,3.8,0,0,0,.6-1.9,3.5,3.5,0,0,0-.2-1.3,3.3,3.3,0,0,0-1.3,1.5,4.5,4.5,0,0,0-.6,2,2,2,0,0,0,.2,1.1A2.6,2.6,0,0,0,220.5,154.8Z"/><path d="M228.3,150.3a1.3,1.3,0,0,1,1,.7,1.7,1.7,0,0,1,.6,1.1c0,.2-.1.4-.3.4l-.5-.2h-.7l-1,.2q-.6.3-.6.6l.3.4.9.6a2,2,0,0,1,.8.8,1.5,1.5,0,0,1,.4,1.1q0,.6-.9,1.2a3.2,3.2,0,0,1-2,.6,3.4,3.4,0,0,1-2-.6,1.4,1.4,0,0,1-.8-1.1.5.5,0,0,1,.5-.5h.4a3.4,3.4,0,0,0,1.8.4c.7,0,1,0,1-.2s-.1-.4-.4-.7l-.8-.6a2.4,2.4,0,0,1-.9-.8.9.9,0,0,1-.4-.8c0-.5.4-1.1,1.4-1.7A4.2,4.2,0,0,1,228.3,150.3Z"/><path d="M241.9,153.6l.3.4-.2.8a5.1,5.1,0,0,0-.2.9,1.1,1.1,0,0,0-.1.5.4.4,0,0,1-.1.3v.3c0,.1,0,.2-.1.2v.2a.3.3,0,0,1-.1.2h-.1c-.1.1-.1.2-.3.2l-.5-.4a3,3,0,0,1-.4-1,3.9,3.9,0,0,1-2.3,1.4,2.4,2.4,0,0,1-1.3-.7,1.9,1.9,0,0,1-.7-1.4,4.9,4.9,0,0,1,.6-1.9,9.1,9.1,0,0,1,1.7-2.3,3.1,3.1,0,0,1,2.1-1.1,2.1,2.1,0,0,1,1.4.7c.5.5.8.9.8,1.3A2.7,2.7,0,0,1,241.9,153.6Zm-4.1,2.3a2.8,2.8,0,0,0,1.5-.8,3.7,3.7,0,0,0,1.2-2l.2-.2c0-.5-.1-.8-.3-.8a1.9,1.9,0,0,0-1.2.8,5.7,5.7,0,0,0-1.2,1.5,3,3,0,0,0-.4,1.3h.2Z"/><path d="M251.5,146.9a1.7,1.7,0,0,1,.6,1.2c0,.4-.1,1.1-.2,2.1s-.2,1.7-.3,2.3c-.8,3.4-1.4,5.2-1.7,5.2a1.5,1.5,0,0,1-.8-.5,1.6,1.6,0,0,1-.4-.9l.3-1.5a21,21,0,0,0,.8-3.7,22.5,22.5,0,0,0,.4-4.4c0-.3.2-.4.5-.4S251.2,146.5,251.5,146.9Z"/><path d="M258.5,153.6l.3.4-.2.8a5.1,5.1,0,0,0-.2.9,1.1,1.1,0,0,0-.1.5.4.4,0,0,0-.1.3v.9h-.1l-.3.2-.5-.4a3,3,0,0,1-.4-1,3.9,3.9,0,0,1-2.3,1.4,2.4,2.4,0,0,1-1.3-.7,1.9,1.9,0,0,1-.7-1.4,4.9,4.9,0,0,1,.6-1.9,7.2,7.2,0,0,1,1.7-2.3,3.1,3.1,0,0,1,2.1-1.1,1.9,1.9,0,0,1,1.3.7,1.7,1.7,0,0,1,.8,1.3A2.4,2.4,0,0,1,258.5,153.6Zm-4.2,2.3a3.3,3.3,0,0,0,1.6-.8,3.1,3.1,0,0,0,1.1-2c.1-.1.1-.2.3-.2s-.1-.8-.3-.8-.8.3-1.3.8a8.3,8.3,0,0,0-1.1,1.5,3.6,3.6,0,0,0-.5,1.3c0,.1,0,.1.1.1Z"/><path d="M109.2,167a1.1,1.1,0,0,1,.9.5,3,3,0,0,1,.4,1.1,17.2,17.2,0,0,1-.5,2c-.4,1.1-.7,2.1-1,3.1a.7.7,0,0,1-.7.6l-.6-.2a1.4,1.4,0,0,1-.2-.6,7.7,7.7,0,0,1,.4-1.9c.2-1,.4-1.9.5-2.6l.4-1.6C108.9,167.1,109,167,109.2,167Zm-.2-1.8a1.3,1.3,0,0,1,.3-.8.8.8,0,0,1,.7-.4c.2,0,.4.3.7.8a3.1,3.1,0,0,1,.5,1.1.5.5,0,0,1-.3.5.4.4,0,0,1-.4.2,1.9,1.9,0,0,1-1-.5A1.4,1.4,0,0,1,109,165.2Z"/><path d="M116.5,167a1.6,1.6,0,0,1,1.3.6,2.2,2.2,0,0,1,.6,1.4,8.2,8.2,0,0,1-.4,2.6,13.8,13.8,0,0,1-.8,2c-.4.5-.7.7-1,.7s-.5-.2-.5-.7a10.8,10.8,0,0,1,.5-2,13,13,0,0,0,.4-1.9c0-.3-.1-.5-.2-.5s-.2,0-.3.2l-.3.3-.3.4-.3.4-.2.4-.3.5-.3.4c-.8,1.7-1.5,2.5-2,2.5a1.5,1.5,0,0,1-.8-.5c-.3-.4-.5-.6-.5-.8l.3-.6a2.2,2.2,0,0,1,.3-.8c0-.2.1-.4.1-.6a1.7,1.7,0,0,0,.1-.7c0-.3.1-.4.1-.6v-.6a9.3,9.3,0,0,1,.3-2.1l.2-.2a1.6,1.6,0,0,1,1,.5,1.5,1.5,0,0,1,.5.8,7.2,7.2,0,0,1-.5,2.5l1.7-2.6C115.7,167.3,116.2,167,116.5,167Z"/><path d="M124.2,167a1,1,0,0,1,.7.2.9.9,0,0,1,.3.6,6.6,6.6,0,0,1-.8,2.3,28.6,28.6,0,0,1-1.6,3.1c-.4.7-.8,1.1-1.1,1.1l-.6-.3c-.3-.2-.5-.4-.5-.6a16.2,16.2,0,0,1-.9-3,16.6,16.6,0,0,1-.4-2.9c0-.3.1-.5.4-.5l1,.3a3.1,3.1,0,0,1,.9,1.8c0,.3.1.8.1,1.3a4.1,4.1,0,0,0,.1,1.2l.9-1.9c.3-.9.6-1.5.8-2S124,167,124.2,167Z"/><path d="M131.3,170.3l.2.4a2.3,2.3,0,0,1-.1.7,5.4,5.4,0,0,0-.3,1,.9.9,0,0,1-.1.5v.3a.3.3,0,0,1-.1.2v.7h-.1c0,.1-.1.1-.2.1s-.3-.1-.5-.4a2.3,2.3,0,0,1-.5-1c-.9,1-1.6,1.4-2.2,1.4a2.1,2.1,0,0,1-1.4-.7,2.1,2.1,0,0,1-.7-1.3,5.3,5.3,0,0,1,.6-2,12.4,12.4,0,0,1,1.7-2.3,2.9,2.9,0,0,1,2.1-1,2.1,2.1,0,0,1,1.4.7,1.7,1.7,0,0,1,.8,1.2A2.7,2.7,0,0,1,131.3,170.3Zm-4.2,2.2a2.2,2.2,0,0,0,1.5-.8,2.6,2.6,0,0,0,1.2-1.9c0-.1.1-.2.3-.2s-.2-.8-.3-.8a1.9,1.9,0,0,0-1.3.7,5.7,5.7,0,0,0-1.1,1.6,4.2,4.2,0,0,0-.5,1.2v.2Z"/><path d="M137,167a1.4,1.4,0,0,1,1.1.6,1.6,1.6,0,0,1,.5,1.2.3.3,0,0,1-.3.3h-.5l-.6-.2-1,.3c-.4.1-.7.3-.7.6s.2.2.4.4l.9.5a3,3,0,0,1,.8.8,1.7,1.7,0,0,1,.4,1.1q0,.6-.9,1.2a3.2,3.2,0,0,1-2,.6,4.2,4.2,0,0,1-2-.5c-.5-.4-.8-.7-.8-1.1s.1-.6.4-.6l.5.2a3.4,3.4,0,0,0,1.8.4c.7,0,1-.1,1-.3a.7.7,0,0,0-.4-.6,3.1,3.1,0,0,0-.9-.7l-.9-.7a1.8,1.8,0,0,1-.4-.9c0-.5.5-1,1.4-1.6A5,5,0,0,1,137,167Z"/><path d="M140.8,167a1.1,1.1,0,0,1,.9.5,3,3,0,0,1,.4,1.1,17.2,17.2,0,0,1-.5,2c-.4,1.1-.7,2.1-1,3.1a.7.7,0,0,1-.7.6l-.6-.2a1.4,1.4,0,0,1-.2-.6,7.7,7.7,0,0,1,.4-1.9c.2-1,.4-1.9.5-2.6a12.3,12.3,0,0,1,.4-1.6C140.5,167.1,140.6,167,140.8,167Zm-.2-1.8a1.3,1.3,0,0,1,.3-.8.7.7,0,0,1,.6-.4c.3,0,.5.3.8.8a2.4,2.4,0,0,1,.4,1.1c0,.2,0,.4-.2.5a.4.4,0,0,1-.4.2,1.9,1.9,0,0,1-1-.5A1.4,1.4,0,0,1,140.6,165.2Z"/><path d="M143.9,168.5a3.1,3.1,0,0,1,2.2-1.6,2.7,2.7,0,0,1,2.6,2.6,4.3,4.3,0,0,1-.6,2.2,4.5,4.5,0,0,1-1.4,1.9,3.1,3.1,0,0,1-2,.7,1.5,1.5,0,0,1-1.3-.7,2.4,2.4,0,0,1-.6-1.7A6.2,6.2,0,0,1,143.9,168.5Zm2.3,3a4.1,4.1,0,0,0,.6-2,1.7,1.7,0,0,0-.3-1.2,3.2,3.2,0,0,0-1.2,1.5,4.1,4.1,0,0,0-.6,2,2.7,2.7,0,0,0,.2,1.1A3.6,3.6,0,0,0,146.2,171.5Zm.8-4.9-.4-.2c-.1-.2-.2-.3-.2-.5a1.4,1.4,0,0,1,.2-.6l.5-.5.6-.5.4-.4.3-.2.2-.2h.4a.6.6,0,0,1,.6.4,1.1,1.1,0,0,1,.3.7v.4l-.2.3-.4.2-.5.3-.7.3-.5.3Z"/><path d="M154.6,167a1.8,1.8,0,0,1,1.3.6,2,2,0,0,1,.5,1.4,8.2,8.2,0,0,1-.4,2.6,7.6,7.6,0,0,1-.8,2c-.3.5-.6.7-1,.7s-.4-.2-.4-.7a8.2,8.2,0,0,1,.4-2,6.3,6.3,0,0,0,.4-1.9,1.2,1.2,0,0,0-.1-.5c-.2,0-.3,0-.4.2l-.3.3-.3.4a.5.5,0,0,0-.2.4l-.3.4-.3.5-.2.4c-.9,1.7-1.6,2.5-2.1,2.5a1.5,1.5,0,0,1-.8-.5c-.3-.4-.4-.6-.4-.8l.2-.6a2.2,2.2,0,0,1,.3-.8c.1-.2.1-.4.2-.6a1.7,1.7,0,0,1,.1-.7v-.6a3.5,3.5,0,0,0,.1-.6,13.7,13.7,0,0,1,.2-2.1l.2-.2a1.4,1.4,0,0,1,1,.5,1,1,0,0,1,.5.8,9.6,9.6,0,0,1-.4,2.5l1.7-2.6C153.8,167.3,154.2,167,154.6,167Z"/><path d="M168,167.3a.5.5,0,0,1,.5-.3,1,1,0,0,1,.8.4,1.7,1.7,0,0,1,.4,1.1,9.6,9.6,0,0,1-.2,1.2l-.4,1.1-.3.9-.4,1L168,174a8.8,8.8,0,0,0-.5,1.5,5.6,5.6,0,0,1-1.1,1.9,2.1,2.1,0,0,1-1.7.7,3.1,3.1,0,0,1-1.8-.5c-.5-.4-.8-.7-.8-1.1a1.3,1.3,0,0,1,.3-.7c.2-.3.4-.4.5-.4l.6.3a2.3,2.3,0,0,0,.7.7l.6.3h.3l.2-.3c0-.1.1-.2.2-.4s.1-.3.1-.4.1-.4.2-.6.1-.4.2-.6.3-.9.4-1.3l-1,1-.9.3c-.3,0-.6-.2-1.1-.6a2,2,0,0,1-.6-1.4,6.8,6.8,0,0,1,.4-2.1,11.3,11.3,0,0,1,.8-2.2c.3-.7.6-1,.9-1a1.3,1.3,0,0,1,.8.3,1,1,0,0,1,.4.8,3.6,3.6,0,0,1-.3,1.1c-.3.5-.5,1.1-.8,1.7a4.9,4.9,0,0,0-.3,1.5h.1l.7-.7a13.3,13.3,0,0,0,1.4-2A9.1,9.1,0,0,0,168,167.3Z"/><path d="M181.7,170.3a.5.5,0,0,1,.3.4,4.1,4.1,0,0,1-.2.7,4.4,4.4,0,0,0-.2,1,.9.9,0,0,0-.1.5.4.4,0,0,0-.1.3v.2a.4.4,0,0,0-.1.3v.4h-.4c-.1,0-.3-.1-.5-.4a2.3,2.3,0,0,1-.4-1,3.4,3.4,0,0,1-2.3,1.4,1.9,1.9,0,0,1-1.3-.7,1.7,1.7,0,0,1-.7-1.3,5.3,5.3,0,0,1,.6-2,7.2,7.2,0,0,1,1.7-2.3,2.9,2.9,0,0,1,2.1-1,1.9,1.9,0,0,1,1.3.7,1.4,1.4,0,0,1,.8,1.2A2.7,2.7,0,0,1,181.7,170.3Zm-4.2,2.2a2.6,2.6,0,0,0,1.6-.8,2.9,2.9,0,0,0,1.1-1.9c.1-.1.1-.2.3-.2s-.1-.8-.3-.8a1.9,1.9,0,0,0-1.3.7,9.1,9.1,0,0,0-1.1,1.6,4.2,4.2,0,0,0-.5,1.2c0,.1,0,.2.1.2Z"/><path d="M185.8,163.6a1.7,1.7,0,0,1,.6,1.2c0,.4-.1,1-.2,2a20.7,20.7,0,0,1-.4,2.3c-.8,3.5-1.3,5.2-1.6,5.2a2.1,2.1,0,0,1-1.3-1.3,9.5,9.5,0,0,0,.4-1.5c.3-1,.5-2.2.8-3.8a21.5,21.5,0,0,0,.4-4.3c0-.3.1-.4.4-.4S185.4,163.2,185.8,163.6Z"/><path d="M196.8,167a1.4,1.4,0,0,1,1,.6,1.7,1.7,0,0,1,.6,1.2.3.3,0,0,1-.3.3h-.5l-.7-.2-1,.3q-.6.2-.6.6c0,.1.1.2.3.4l.9.5.8.8a1.7,1.7,0,0,1,.4,1.1,1.7,1.7,0,0,1-.8,1.2,3.7,3.7,0,0,1-2.1.6,4.2,4.2,0,0,1-2-.5c-.5-.4-.8-.7-.8-1.1s.2-.6.5-.6l.4.2a3.4,3.4,0,0,0,1.8.4c.7,0,1-.1,1-.3a.7.7,0,0,0-.4-.6,2.7,2.7,0,0,0-.8-.7,2.2,2.2,0,0,1-.9-.7,1.2,1.2,0,0,1-.4-.9c0-.5.4-1,1.4-1.6A4.2,4.2,0,0,1,196.8,167Z"/><path d="M204.9,170.3a.5.5,0,0,1,.3.4,4.1,4.1,0,0,1-.2.7,4.4,4.4,0,0,0-.2,1c0,.2-.1.3-.1.5v.3c-.1,0-.1.1-.1.2a.4.4,0,0,1-.1.3v.4h-.1c0,.1-.1.1-.3.1s-.3-.1-.5-.4a2.3,2.3,0,0,1-.4-1c-.9,1-1.6,1.4-2.3,1.4a1.9,1.9,0,0,1-1.3-.7,1.7,1.7,0,0,1-.7-1.3,5.3,5.3,0,0,1,.6-2,9.1,9.1,0,0,1,1.7-2.3,2.9,2.9,0,0,1,2.1-1,2.1,2.1,0,0,1,1.4.7,1.7,1.7,0,0,1,.8,1.2A3,3,0,0,1,204.9,170.3Zm-4.1,2.2a2.2,2.2,0,0,0,1.5-.8,3.5,3.5,0,0,0,1.2-1.9.2.2,0,0,1,.2-.2c0-.6-.1-.8-.2-.8a1.7,1.7,0,0,0-1.3.7,6.1,6.1,0,0,0-1.2,1.6,3.1,3.1,0,0,0-.4,1.2v.2Z"/><path d="M210.8,175.4l1-.3.5.2a.5.5,0,0,1,0,.8l-.7.5-1.1.7-.8.6a.6.6,0,0,1-.5.2.5.5,0,0,1-.5-.4,1.1,1.1,0,0,1-.3-.7,22.9,22.9,0,0,1,1.1-3.2,3,3,0,0,1-1.4.5,1.5,1.5,0,0,1-1.2-.7,1.9,1.9,0,0,1-.7-1.3,3.4,3.4,0,0,1,.4-1.5,5.9,5.9,0,0,1,1-1.7,4,4,0,0,1,1.4-1.5,2.9,2.9,0,0,1,1.6-.6,2.1,2.1,0,0,1,2,1.9.4.4,0,0,1-.4.4l-.5-.3-.6-.3a2,2,0,0,0-1.5.8,10.1,10.1,0,0,0-1.3,1.6,4.2,4.2,0,0,0-.5,1.2v.2h.2a2.8,2.8,0,0,0,1.5-.8,4.1,4.1,0,0,0,1.2-2c.1-.2.2-.3.4-.3l.8.4q.6.4.6.6a5.1,5.1,0,0,1-.2.9c-.2.5-.5,1.1-.8,2Z"/><path d="M218.6,167.3c0-.2.2-.3.4-.3s.5.1.8.5a2.3,2.3,0,0,1,.5,1c0,.2-.3.9-.7,2.1l-1,3.1a.7.7,0,0,1-.7.6l-.5-.2c-.1-.1-.1-.3-.1-.6a6.6,6.6,0,0,1,.1-1.3c-1,1.4-1.7,2.1-2.3,2.1a1.7,1.7,0,0,1-1.1-.6,2,2,0,0,1-.7-1.1,11.3,11.3,0,0,1,.8-3.5q.8-2.1,1.5-2.1a.9.9,0,0,1,.7.3,1.3,1.3,0,0,1,.3.8,3.3,3.3,0,0,1-.3,1,10.9,10.9,0,0,0-1.1,3.3h.1c.1,0,.4-.2.8-.7a12.2,12.2,0,0,0,1.3-1.9A15.1,15.1,0,0,0,218.6,167.3Z"/><path d="M225.9,170.9a4.1,4.1,0,0,1-1.9.5h-1.6a1.9,1.9,0,0,0-.2.8.8.8,0,0,0,.2.5c0,.1.3.2.6.2l1.8-.2.8-.2c.4,0,.6.1.6.4s-.3.7-.9,1a4.6,4.6,0,0,1-2.1.5,2.7,2.7,0,0,1-2-.7,2.4,2.4,0,0,1-.7-1.8,4.9,4.9,0,0,1,.6-2.2,7,7,0,0,1,1.5-1.9,2.7,2.7,0,0,1,1.8-.7,2.1,2.1,0,0,1,1.7.8,2.9,2.9,0,0,1,.8,1.8C226.9,170.1,226.6,170.5,225.9,170.9Zm-1-1.9-.5-.3c-.2,0-.4.1-.7.4a4.4,4.4,0,0,0-.8,1h.4c1.3,0,1.9-.3,1.9-.7Z"/><path d="M228.5,168.5a3.1,3.1,0,0,1,2.2-1.6,2.7,2.7,0,0,1,2.6,2.6,4.3,4.3,0,0,1-.6,2.2,4.5,4.5,0,0,1-1.4,1.9,3.1,3.1,0,0,1-2,.7,1.5,1.5,0,0,1-1.3-.7,2.4,2.4,0,0,1-.6-1.7A6.2,6.2,0,0,1,228.5,168.5Zm2.3,3a4.1,4.1,0,0,0,.6-2,1.7,1.7,0,0,0-.3-1.2,3.2,3.2,0,0,0-1.2,1.5,4.1,4.1,0,0,0-.6,2,2.7,2.7,0,0,0,.2,1.1A3.6,3.6,0,0,0,230.8,171.5Z"/><path d="M235.7,174.6a1.4,1.4,0,0,1-1-.6c-.4-.4-.6-.7-.6-1a1.6,1.6,0,0,1,.3-.8c.3-.2.5-.4.8-.4s.5.3.8.8a3.1,3.1,0,0,1,.4,1.2.6.6,0,0,1-.2.5Z"/><g class="cls-3"><path d="M100.8,206.6a13.6,13.6,0,0,0,7.6,2.6,22.7,22.7,0,0,0,7.8-1.2,35.7,35.7,0,0,0,7.1-3.4,58.2,58.2,0,0,0,6.5-4.9c4.3-3.4,8.8-7.3,14.6-10a29.4,29.4,0,0,1,9.3-2.7,70.8,70.8,0,0,1,9-.4c21.7,0,42.9-5.2,63.8-12.1l7.8-2.6,7.8-2.8,15.7-5.8,15.5-5.9a66.4,66.4,0,0,0,7.1-3.3,38.2,38.2,0,0,0,6.4-4,54.1,54.1,0,0,0,11-10.9,85.3,85.3,0,0,0,8.7-13.6c2.5-4.8,4.8-9.9,7-15,1.1-2.6,2.1-5.2,3.1-7.8s2.1-5.3,3.1-7.9c-.3,2.8-.8,5.6-1.2,8.4s-1,5.6-1.6,8.3a141.2,141.2,0,0,1-4.6,16.6,87.7,87.7,0,0,1-7.5,15.8,56.9,56.9,0,0,1-11.6,13.9,57.5,57.5,0,0,1-7.4,5.6,86.7,86.7,0,0,1-7.9,4.3c-5.3,2.5-10.4,4.6-15.6,6.8L246.6,181l-8,2.9-8.1,2.8a223.6,223.6,0,0,1-33.4,8.4l-8.7,1.2-4.3.4-4.4.2-4.3.2H171l-4.4-.2-4.3-.2a72.8,72.8,0,0,0-7.8-.4,21.5,21.5,0,0,0-7,1.2c-4.6,1.6-9.2,4.5-14.1,7.4a81.8,81.8,0,0,1-7.8,4.1,31.4,31.4,0,0,1-8.6,2.4,24.2,24.2,0,0,1-8.9-.3A14.2,14.2,0,0,1,100.8,206.6Z"/></g><path class="cls-4" d="M32.5,39.9a55,55,0,0,1-4-6.3A37.9,37.9,0,0,1,25.6,27a20.7,20.7,0,0,1-1.2-6.5,14.2,14.2,0,0,1,1-6.2c.3-.5.5-1,.8-1.4l.9-1.4a17,17,0,0,1,2.4-2.2,19.8,19.8,0,0,1,6.6-2.9,44.6,44.6,0,0,1,16-.6l4.2.6c1.4.3,2.8.5,4.2.9A82.4,82.4,0,0,1,69,9.7a117.2,117.2,0,0,1,16.3,6.9,120.4,120.4,0,0,1,28.2,19.7c-5.2-2.6-10.2-5.1-15.2-7.4s-9.9-4.4-14.8-6.3c-9.8-3.7-19.7-6.6-28.7-7.7S37.6,14.6,34,19.1a11.6,11.6,0,0,0-2,4,17,17,0,0,0-.7,5.1C31.1,31.8,31.8,35.8,32.5,39.9Z"/><path class="cls-1" d="M32.4,35.7a44,44,0,0,1-6.7-12.6c-1.4-4.2-1.9-8.6-.4-12.5a18.2,18.2,0,0,1,1.5-2.7l.5-.6.6-.6,1.4-1.1a17.4,17.4,0,0,1,7.2-2.3,42.6,42.6,0,0,1,8-.2,76.4,76.4,0,0,1,8.2,1A144.6,144.6,0,0,1,84.8,14.4a178.8,178.8,0,0,1,29.7,16.5l-1.8,2.9c-9.8-4.8-19.6-9-29.4-12.7a187.6,187.6,0,0,0-28.9-8.5c-2.3-.4-4.6-.8-6.8-1a42.8,42.8,0,0,0-6.1-.2,16.3,16.3,0,0,0-4.9,1l-.8.5-.9.6-1.5,1.6c-1.7,2.3-2.4,5.5-2.5,9.1A60.5,60.5,0,0,0,32.4,35.7Z"/><polygon class="cls-1" points="106 36.6 118.6 35.5 115.2 24.5 106 36.6"/><path class="cls-5" d="M14,23.9V42H9.6V23.9Z"/><path class="cls-5" d="M32.1,37.6a8.5,8.5,0,0,1-3.3,3.2,10,10,0,0,1-5,1.2H17V23.9h6.8a11.2,11.2,0,0,1,5,1.1,8.5,8.5,0,0,1,3.3,3.2,10.6,10.6,0,0,1,0,9.4Zm-4.7-.9a5.2,5.2,0,0,0,1.4-3.8,5.2,5.2,0,0,0-1.4-3.8,5.7,5.7,0,0,0-4-1.4H21.3V38.1h2.1A5.7,5.7,0,0,0,27.4,36.7Z"/><path class="cls-5" d="M40,27.4v3.8h6.2v3.3H40v4h6.9V42H35.7V23.9H46.9v3.5Z"/><path class="cls-5" d="M60.6,38.7H53.8L52.7,42H48.1l6.6-18h5l6.6,18H61.7Zm-1.1-3.4-2.3-6.6-2.3,6.6Z"/><path class="cls-5" d="M71.9,28V23.9h7.3V42H74.6V28Z"/></g></svg>