<svg xmlns="http://www.w3.org/2000/svg" xmlns:xlink="http://www.w3.org/1999/xlink" viewBox="0 0 544 565"><defs><style>.cls-1,.cls-37,.cls-38{fill:none;}.cls-2{isolation:isolate;}.cls-3{clip-path:url(#clip-path);}.cls-4{opacity:0.22;}.cls-5{fill:url(#Degradado_sin_nombre_132);}.cls-6{fill:#241c18;}.cls-7{fill:#322721;}.cls-8{fill:#3e3029;}.cls-9{fill:#47372f;}.cls-10{fill:#8c6239;}.cls-11,.cls-34{opacity:0.5;}.cls-11,.cls-15{mix-blend-mode:multiply;}.cls-12{fill:#050505;}.cls-13{fill:url(#Degradado_sin_nombre_175);}.cls-14{fill:url(#Degradado_sin_nombre_174);}.cls-16{fill:#939393;}.cls-17{fill:url(#Degradado_sin_nombre_185);}.cls-18{fill:#94ca6e;opacity:0.42;}.cls-19{fill:#ecf8fe;stroke:#52474c;stroke-width:4.48px;}.cls-19,.cls-24{stroke-miterlimit:10;}.cls-20{opacity:0.19;}.Graphic-Style-2{fill:#1a1a1a;}.cls-21{fill:#e5d4c1;}.cls-22{fill:#c4a290;}.cls-23{fill:#4d4d4d;}.cls-24,.cls-27{fill:#9b8579;}.cls-24{stroke:#4c3e34;stroke-width:1.63px;}.cls-25{fill:#4c3e34;}.cls-26{fill:#999;}.cls-27,.cls-30{stroke:#ba8320;stroke-width:0.15px;}.cls-28{opacity:0.15;}.cls-29{fill:#fff;}.cls-30{fill:#c49a6c;}.cls-31{opacity:0.63;}.cls-32{fill:#ccbaa8;}.cls-33{fill:#754c24;}.cls-35{fill:#a3724a;}.cls-36,.cls-38{stroke:#c4a290;}.cls-36,.cls-37,.cls-38{stroke-linecap:round;stroke-linejoin:round;stroke-width:3.82px;}.cls-37{stroke:#fff;}.cls-39{fill:#545c8d;}</style><clipPath id="clip-path"><circle class="cls-1" cx="272.5" cy="280.5" r="248.5"/></clipPath><linearGradient id="Degradado_sin_nombre_132" x1="-76.7" y1="363.51" x2="-76.7" y2="344.04" gradientUnits="userSpaceOnUse"><stop offset="0" stop-color="#a67c52"/><stop offset="0.5" stop-color="#a2784e"/><stop offset="0.5" stop-color="#673f1a"/><stop offset="1" stop-color="#603813"/></linearGradient><linearGradient id="Degradado_sin_nombre_175" x1="-26.3" y1="340.15" x2="119.18" y2="340.15" gradientUnits="userSpaceOnUse"><stop offset="0" stop-color="#4d4d4d"/><stop offset="0.5" stop-color="#282828"/><stop offset="0.5" stop-color="#030303"/><stop offset="1"/></linearGradient><linearGradient id="Degradado_sin_nombre_174" x1="-22.86" y1="265.25" x2="115.73" y2="265.25" gradientUnits="userSpaceOnUse"><stop offset="0"/><stop offset="0.5" stop-color="#030303"/><stop offset="0.5" stop-color="#282828"/><stop offset="1" stop-color="#4d4d4d"/></linearGradient><linearGradient id="Degradado_sin_nombre_185" x1="31.94" y1="1714.86" x2="61.62" y2="1714.86" gradientTransform="matrix(1, 0, 0, -1, 0, 2019.78)" gradientUnits="userSpaceOnUse"><stop offset="0" stop-color="#9b9b98"/><stop offset="0.5" stop-color="#9a9b98"/><stop offset="0.5" stop-color="#8d959a"/><stop offset="1" stop-color="#8b949a"/></linearGradient></defs><title>act2</title><g class="cls-2"><g id="Layer_13" data-name="Layer 13"><g class="cls-3"><g class="cls-4"><rect class="cls-5" x="-337.8" y="344" width="522.1" height="19.47"/><g class="cls-2"><polygon class="cls-6" points="169.5 511.6 163.6 508.4 163.9 368.8 169.7 372 169.5 511.6"/><polygon class="cls-7" points="169.7 372 163.9 368.8 176.7 367 182.5 370.2 169.7 372"/><polygon class="cls-8" points="182.5 370.2 182.3 509.8 169.5 511.6 169.7 372 182.5 370.2"/></g><rect class="cls-9" x="-337.8" y="363.5" width="522.1" height="6.26"/><polyline class="cls-10" points="-337.8 344.9 -247.8 340 113.8 340 184.4 345.2"/><g class="cls-11"><rect class="cls-12" x="-28.8" y="331.6" width="145.5" height="12.16" rx="6.1"/></g><rect class="cls-13" x="-26.3" y="334.1" width="145.5" height="12.16" rx="6.1"/><g class="cls-11"><rect class="cls-12" x="-25.3" y="212.7" width="138.6" height="100.3" rx="13.8"/></g><rect class="cls-14" x="-22.9" y="215.1" width="138.6" height="100.3" rx="13.8"/><g class="cls-15"><polygon class="cls-16" points="30.2 339.2 59.8 339.2 52 267.1 39.2 267.1 30.2 339.2"/></g><polygon class="cls-17" points="31.9 340.9 61.6 340.9 53.8 268.9 41 268.9 31.9 340.9"/></g><path class="cls-18" d="M-97.1,37c-21.4-11.9-43.4-24.1-67-26.6s-49.3,6.7-63,30c-17.6,29.9-10.8,73.1-27.1,104.1s-46.8,39.1-74.4,49.8c-88.5,34.4-168.8,109.7-205,213.3-2.5,7-4.7,15.3-1.5,21.8,2,4.2,5.7,6.7,9.4,8.5,48.1,23.2,96.3-34.1,147.6-42.5,53.7-8.7,103.9,37.4,158.1,39.3,55.9,2,106.1-42.9,161.7-50.3s108,22.5,158.3,50.3c23,12.7,47,25.5,72.4,24.9,29.8-.6,57.4-19.9,79.9-43.7,26.9-28.5,49.6-73.4,35.6-113.2-20.2-56.9-92.9-50.5-126.6-97.1-3.8-5.2-7.2-11.7-6.6-18.6s3.6-10.6,6.8-14.8c31-41.4,83.6-56.5,106.3-105.2,2.9-6.3,5.3-13.6,4.3-20.8-1.6-11.8-11.4-19.1-20.6-23.8C128.3-40.4-16.1,87.9-143.4,38"/><path class="cls-19" d="M206.6,297.8c9.2-2.5,20.3-7.7,23.8-19.2s-3-26.2-5.8-32.6c-18.3-41.5-13.2-94.8-10.4-107.8,12.4-57.3,149.6-112.5,234.3-25,65.7,68,85.2,206.8,27.5,263.6-50.7,49.9-156,31.4-219.7-69.9a33.4,33.4,0,0,1-26.7,5.8C217.1,309.9,209.1,300.8,206.6,297.8Z"/><path d="M314.2,110.6l1.6.2a.9.9,0,0,1,.5.8q0,.8-2.4,1.5v4.1a10.7,10.7,0,0,1-.3,2.9q-.3.9-.9.9a1.2,1.2,0,0,1-1.1-.7,10.6,10.6,0,0,1-.6-2.2c-.2-1-.3-2.4-.5-4.1l-4.1,1c-1.4,4-2.4,6-2.9,6a2.2,2.2,0,0,1-1.5-.8,1.9,1.9,0,0,1-1-1.6,14.5,14.5,0,0,1,1.1-2.9,2.4,2.4,0,0,1-.8-.9,1.7,1.7,0,0,1-.4-1.1c0-.6.9-1.2,2.8-1.8a8.3,8.3,0,0,0,.4-1.2l1.2-3.3c.7-1.8,1.2-3.3,1.6-4.4s.7-1.1,1.7-1.6a5.6,5.6,0,0,1,2.3-.7q1.1,0,1.8,2.7a37.7,37.7,0,0,1,1,7.2Zm-6.4.5,2.4-.3c-.1-.5-.1-1.5-.3-2.8s-.2-2.2-.2-2.8C309.4,106.3,308.7,108.2,307.8,111.1Z"/><path d="M321.8,100.1q0-1.2.9-1.2c.5,0,1.1.4,1.7,1.3a3.3,3.3,0,0,1,1,2.1,9.6,9.6,0,0,1-.4,2.5c-.2,1.1-.5,2.1-.7,3s-.6,2.1-1.1,3.8l-1.1,3.4a28.3,28.3,0,0,1,3.9-6c1.3-1.5,2.4-2.3,3.3-2.3s1.3.5,2,1.5a4.6,4.6,0,0,1,1.1,2.8,19.4,19.4,0,0,1-.4,3.5,14.6,14.6,0,0,1-1.6,4.4c-.7,1.5-1.5,2.2-2.3,2.2s-.9-.5-.9-1.3a12.4,12.4,0,0,1,.6-3.1,36.2,36.2,0,0,0,.8-3.9c0-.5-.1-.7-.2-.7s-2.7,1.8-4.8,5.4l-1.7,2.7a2.1,2.1,0,0,1-1.4.9c-.4,0-.9-.4-1.5-1a3.3,3.3,0,0,1-.9-1.6,5.9,5.9,0,0,1,.2-1.7c.2-.8.4-1.8.7-3.2s.9-3.9,1.6-7.5S321.8,100.5,321.8,100.1Z"/><path d="M336,109.8c1.4-2.1,2.8-3.1,4.3-3.1a4.5,4.5,0,0,1,3.5,1.5,4.9,4.9,0,0,1,1.5,3.6,10.7,10.7,0,0,1-1,4.2,9.2,9.2,0,0,1-2.8,3.6,6.2,6.2,0,0,1-3.9,1.5,3.6,3.6,0,0,1-2.7-1.4,5.2,5.2,0,0,1-1.1-3.3A11.1,11.1,0,0,1,336,109.8Zm4.5,5.7a8.2,8.2,0,0,0,1.1-3.8c0-1.2-.1-2-.5-2.4a6.7,6.7,0,0,0-2.4,2.9,8.3,8.3,0,0,0-1.1,3.9,4.5,4.5,0,0,0,.3,2.1A5.3,5.3,0,0,0,340.5,115.5Z"/><path d="M348.2,111.4l-.2-3.1c0-1.1.4-1.6,1-1.6a2.5,2.5,0,0,1,1.1.4,2.4,2.4,0,0,1,.8,1.3,9.2,9.2,0,0,1,2.1-1.3,4.2,4.2,0,0,1,2-.5c1.3,0,2,.3,2,.9s0,.6-.2.8l-.2.3-.4.3-.3.3-.9.6a6.7,6.7,0,0,0-2.2,1.9,7,7,0,0,0-1.3,3,27.7,27.7,0,0,1-1.5,4.8c-.5,1-1,1.6-1.6,1.6a1.4,1.4,0,0,1-1.3-.9,3.2,3.2,0,0,1-.4-1.6,10.2,10.2,0,0,1,.5-2.2,23,23,0,0,0,.8-2.5A18.1,18.1,0,0,0,348.2,111.4Z"/><path d="M368.6,113.2c.3.3.5.5.5.8a9,9,0,0,1-.3,1.5,8.3,8.3,0,0,0-.5,1.8,6.4,6.4,0,0,1-.2.9,3.5,3.5,0,0,1-.1.6.9.9,0,0,1-.1.5,4.3,4.3,0,0,1-.1.5.6.6,0,0,1-.1.4c0,.2-.1.3-.1.4s-.2.2-.2.3a1.1,1.1,0,0,1-.6.2c-.3,0-.6-.3-1-.8a6.8,6.8,0,0,1-.8-1.9c-1.8,1.8-3.2,2.7-4.4,2.7a4.3,4.3,0,0,1-2.6-1.3,4,4,0,0,1-1.4-2.7,9.9,9.9,0,0,1,1.2-3.8,17.3,17.3,0,0,1,3.3-4.5,5.9,5.9,0,0,1,4.1-2.1,4.4,4.4,0,0,1,2.7,1.4,3.6,3.6,0,0,1,1.5,2.5A6.3,6.3,0,0,1,368.6,113.2Zm-8.1,4.4a5.3,5.3,0,0,0,2.9-1.5,6.3,6.3,0,0,0,2.3-3.9.7.7,0,0,1,.5-.4c0-1-.2-1.6-.5-1.6a3.6,3.6,0,0,0-2.5,1.5,16.6,16.6,0,0,0-2.3,3.1,7.2,7.2,0,0,0-.8,2.4v.3Z"/><path d="M261,132.6q0-1.2.9-1.2c.5,0,1,.4,1.7,1.3a3.3,3.3,0,0,1,1,2.1,9.6,9.6,0,0,1-.4,2.5c-.2,1.1-.5,2.1-.7,3s-.7,2.1-1.2,3.8-.8,2.8-1,3.4a32.8,32.8,0,0,1,3.8-6c1.4-1.5,2.5-2.3,3.4-2.3s1.3.5,2,1.5a4.4,4.4,0,0,1,1.1,2.8,19.4,19.4,0,0,1-.4,3.5,14.6,14.6,0,0,1-1.6,4.4c-.7,1.5-1.5,2.2-2.3,2.2s-.9-.5-.9-1.3a12.4,12.4,0,0,1,.6-3.1,36.2,36.2,0,0,0,.8-3.9c0-.5-.1-.7-.2-.7s-2.7,1.8-4.8,5.4l-1.7,2.7a2.1,2.1,0,0,1-1.4.9c-.4,0-.9-.4-1.5-1.1a2.9,2.9,0,0,1-1-1.6,6.9,6.9,0,0,1,.3-1.6c.1-.8.4-1.8.7-3.2s.9-3.9,1.6-7.5S261,133,261,132.6Z"/><path d="M285,145.7c.3.3.5.5.5.8a9,9,0,0,1-.3,1.5,8.3,8.3,0,0,0-.5,1.8,6.4,6.4,0,0,1-.2.9c0,.3,0,.5-.1.6a.9.9,0,0,1-.1.5.7.7,0,0,1-.1.5.6.6,0,0,1-.1.4c0,.2-.1.3-.1.4l-.2.3-.6.2c-.3,0-.6-.3-1-.8a8.4,8.4,0,0,1-.8-1.9c-1.7,1.8-3.2,2.7-4.4,2.7a4.3,4.3,0,0,1-2.6-1.3,4,4,0,0,1-1.4-2.7,9.9,9.9,0,0,1,1.2-3.8,17.3,17.3,0,0,1,3.3-4.5,5.9,5.9,0,0,1,4.1-2.1,4.4,4.4,0,0,1,2.7,1.4,3.6,3.6,0,0,1,1.5,2.5A6.3,6.3,0,0,1,285,145.7Zm-8.1,4.4a5.8,5.8,0,0,0,3-1.5,6.8,6.8,0,0,0,2.3-3.9c0-.2.1-.3.4-.4s-.2-1.6-.5-1.6a3.8,3.8,0,0,0-2.5,1.5,16.6,16.6,0,0,0-2.3,3.1,7.2,7.2,0,0,0-.8,2.4v.3Z"/><path d="M298.2,139.2a3.3,3.3,0,0,1,2.4,1.5,4.1,4.1,0,0,1,1.2,2.7,9.9,9.9,0,0,1-.6,3,16.6,16.6,0,0,1-1.6,3.3,9,9,0,0,1-2.4,2.7,4.8,4.8,0,0,1-3.1,1.2,6.3,6.3,0,0,1-3.6-1.6c-.4,1.1-.7,1.6-1,1.6s-.8-.3-1.4-1a2.6,2.6,0,0,1-.9-1.6,28.9,28.9,0,0,1,.9-4c1.8-6.8,2.7-11.7,2.7-14.8a.7.7,0,0,1,.8-.8q.8,0,1.8,1.2a3.7,3.7,0,0,1,1.1,2.3,32,32,0,0,1-1.5,7.7C295.2,140.4,296.9,139.2,298.2,139.2Zm-4.5,11.1c1,0,2-.7,3.1-2.3a8.4,8.4,0,0,0,1.6-4.8V143h-.4a4.6,4.6,0,0,0-3.2,1.8,19.5,19.5,0,0,0-3.1,4.6A3.7,3.7,0,0,0,293.7,150.3Z"/><path d="M308.8,132.6a4,4,0,0,1,1.1,2.4,27.5,27.5,0,0,1-.4,3.9,32.4,32.4,0,0,1-.7,4.6c-1.5,6.7-2.6,10.1-3.2,10.1s-.9-.3-1.5-1a2.9,2.9,0,0,1-.9-1.6c0-.1.2-1,.7-2.9s1-4.4,1.6-7.3a52.4,52.4,0,0,0,.7-8.6c0-.5.3-.8.9-.8S308.1,131.8,308.8,132.6Z"/><path d="M321.2,146.9a7.6,7.6,0,0,1-3.8,1.1,13.9,13.9,0,0,1-3.2-.3,4,4,0,0,0-.3,1.5,1.8,1.8,0,0,0,.3,1.1c.1.2.6.3,1.2.3a17.9,17.9,0,0,0,3.6-.4l1.6-.4c.7,0,1.1.2,1.1.7s-.6,1.5-1.8,2.1a8,8,0,0,1-4.1,1,4.9,4.9,0,0,1-3.8-1.5,4.6,4.6,0,0,1-1.4-3.5,10.1,10.1,0,0,1,1.1-4.2,12.2,12.2,0,0,1,3-3.7,5.6,5.6,0,0,1,3.6-1.5,4.5,4.5,0,0,1,3.2,1.7,5.6,5.6,0,0,1,1.5,3.5C323,145.3,322.4,146.1,321.2,146.9Zm-2-3.7a1.5,1.5,0,0,0-1.1-.6,2.4,2.4,0,0,0-1.3.8,10.5,10.5,0,0,0-1.5,1.9h.7c2.5,0,3.8-.4,3.8-1.3S319.6,143.5,319.2,143.2Z"/><path d="M342.9,139.2q1.1,0,1.8,1.5a5.4,5.4,0,0,1,.7,2.6,20.3,20.3,0,0,1-.4,3.6,19.8,19.8,0,0,1-1.5,4.5c-.6,1.5-1.3,2.2-2.1,2.2s-.9-.4-.9-1.3a18,18,0,0,1,.7-4.1,17.6,17.6,0,0,0,.7-3.7q0-.9-.3-.9c-.3,0-.8.4-1.3,1.3a38.8,38.8,0,0,0-2,3.4l-1.4,2.8-.4.9-.5.8c-.5,1-1.3,1-2.3,0a2.3,2.3,0,0,1-.8-1.4s.2-.7.5-2.1a21.3,21.3,0,0,0,.4-4.6c0-.7,0-1.1-.2-1.1s-.5.2-.8.7a20.1,20.1,0,0,0-1.3,2.4l-1.6,2.9c-1.6,2.7-2.8,4-3.6,4s-.9-.4-1.5-1.1a2.7,2.7,0,0,1-.9-1.5,11.8,11.8,0,0,1,.6-2.6,21.1,21.1,0,0,0,.8-4.5q.1-2.2.3-3.6c.1-.9.4-1.3.7-1.3a2.8,2.8,0,0,1,2,.9,2.1,2.1,0,0,1,1,1.6,23.8,23.8,0,0,1-1.2,5.7,28.3,28.3,0,0,1,3.3-6.3,4.1,4.1,0,0,1,2.8-1.7c.4,0,1,.5,1.8,1.3a4.2,4.2,0,0,1,1,2.5v2.1a12.9,12.9,0,0,1,2.6-4.1A5,5,0,0,1,342.9,139.2Z"/><path d="M349,142.3c1.4-2.1,2.9-3.1,4.3-3.1a4.5,4.5,0,0,1,3.5,1.5,4.9,4.9,0,0,1,1.5,3.6,10.7,10.7,0,0,1-1,4.2,9.2,9.2,0,0,1-2.8,3.6,6,6,0,0,1-3.9,1.5,3.6,3.6,0,0,1-2.7-1.4,5.2,5.2,0,0,1-1.1-3.3A11.1,11.1,0,0,1,349,142.3Zm4.5,5.7a7.2,7.2,0,0,0,1.1-3.8c0-1.2-.1-2-.5-2.4a6.7,6.7,0,0,0-2.4,2.9,9.7,9.7,0,0,0-1.1,3.9,4.5,4.5,0,0,0,.3,2.1A5.3,5.3,0,0,0,353.5,148Z"/><path d="M368.6,139.2a2.7,2.7,0,0,1,2,1.3,3.8,3.8,0,0,1,1.1,2.2c0,.5-.2.7-.6.7l-1-.3-1.3-.2a5.8,5.8,0,0,0-1.9.4c-.8.3-1.3.7-1.3,1.2s.3.5.8.8l1.6,1.1a8,8,0,0,1,1.7,1.5,3.6,3.6,0,0,1,.7,2.2c0,.8-.5,1.5-1.7,2.3a6.5,6.5,0,0,1-3.9,1.2,7.1,7.1,0,0,1-3.9-1.1c-1.1-.6-1.6-1.3-1.6-2.1s.3-1.1.9-1.1l.8.3a6.5,6.5,0,0,0,3.5.8c1.4,0,2.1-.2,2.1-.5s-.3-.8-.8-1.3l-1.7-1.2a8.4,8.4,0,0,1-1.8-1.5,2.4,2.4,0,0,1-.8-1.6c0-1,.9-2.1,2.8-3.3A8.5,8.5,0,0,1,368.6,139.2Z"/><path d="M395.3,131.4c.4,0,1,.4,1.7,1.2a3.3,3.3,0,0,1,1.1,2.3,44.7,44.7,0,0,1-.9,4.4c-.7,2.6-1.1,4.1-1.2,4.7q-2.2,9.6-3.3,9.6a2.4,2.4,0,0,1-1.3-.7,1.9,1.9,0,0,1-.7-1.4v-.2c-1.8,1.5-3.2,2.3-4,2.3a3.2,3.2,0,0,1-2.3-1.3,3.7,3.7,0,0,1-1.1-2.4,9.7,9.7,0,0,1,.3-2.3,8.3,8.3,0,0,1,.9-2.8,17.4,17.4,0,0,1,1.4-2.7,7.6,7.6,0,0,1,1.9-2.1,4,4,0,0,1,2.3-.8A3.3,3.3,0,0,1,393,141a49.9,49.9,0,0,0,1.5-8.8A.7.7,0,0,1,395.3,131.4ZM387.1,150a5.4,5.4,0,0,0,2.3-1.2,7.2,7.2,0,0,0,2.5-3v-1a2.7,2.7,0,0,0-.5-1.4c-.4-.4-.7-.7-1-.7a2.4,2.4,0,0,0-1.6.9,6.6,6.6,0,0,0-1.2,2.2,12.9,12.9,0,0,0-.9,3.9.4.4,0,0,0,.1.3Z"/><path d="M409,146.9a7.6,7.6,0,0,1-3.8,1.1,14.5,14.5,0,0,1-3.2-.3,7.7,7.7,0,0,0-.2,1.5,3.1,3.1,0,0,0,.2,1.1,1.9,1.9,0,0,0,1.3.3,17.9,17.9,0,0,0,3.6-.4l1.5-.4c.8,0,1.2.2,1.2.7s-.6,1.5-1.8,2.1a8.2,8.2,0,0,1-4.2,1,5,5,0,0,1-5.2-5,9,9,0,0,1,1.2-4.2,12.2,12.2,0,0,1,3-3.7,5.4,5.4,0,0,1,3.5-1.5,4.5,4.5,0,0,1,3.3,1.7,5.6,5.6,0,0,1,1.5,3.5C410.9,145.3,410.3,146.1,409,146.9Zm-1.9-3.7a1.7,1.7,0,0,0-1.1-.6c-.4,0-.8.3-1.3.8a7.7,7.7,0,0,0-1.6,1.9h.7c2.6,0,3.9-.4,3.9-1.3S407.5,143.5,407.1,143.2Z"/><path d="M417.7,132.6a3.8,3.8,0,0,1,1,2.4q0,1-.3,3.9c-.2,1.9-.5,3.5-.7,4.6-1.6,6.7-2.6,10.1-3.2,10.1a2.2,2.2,0,0,1-1.6-1,2.9,2.9,0,0,1-.9-1.6l.8-2.9c.5-1.9,1-4.4,1.5-7.3a52.9,52.9,0,0,0,.8-8.6.7.7,0,0,1,.8-.8Q416.7,131.4,417.7,132.6Z"/><path d="M242.8,179.4a7.6,7.6,0,0,1-3.8,1.1,14.5,14.5,0,0,1-3.2-.3,7.7,7.7,0,0,0-.2,1.5,3.1,3.1,0,0,0,.2,1.1,1.9,1.9,0,0,0,1.3.3,17.9,17.9,0,0,0,3.6-.4l1.5-.4c.8,0,1.2.2,1.2.7s-.6,1.5-1.8,2.1a8.2,8.2,0,0,1-4.2,1,5,5,0,0,1-5.2-5,9,9,0,0,1,1.2-4.2,12.2,12.2,0,0,1,3-3.7,5.2,5.2,0,0,1,3.5-1.5,4.5,4.5,0,0,1,3.3,1.7,5.6,5.6,0,0,1,1.5,3.5C244.7,177.8,244.1,178.6,242.8,179.4Zm-1.9-3.7a1.7,1.7,0,0,0-1.1-.6c-.4,0-.8.3-1.4.8a10.5,10.5,0,0,0-1.5,1.9h.7c2.6,0,3.9-.4,3.9-1.3S241.3,176,240.9,175.7Z"/><path d="M256.4,185c0,.7-.3,1.1-1,1.1s-2.3-1.2-3.9-3.7c-2.1,2.5-3.6,3.7-4.3,3.7a2.8,2.8,0,0,1-2.1-2.1l.6-.7a48.3,48.3,0,0,0,3.9-4.1,41.1,41.1,0,0,1-2.1-4.2,12.1,12.1,0,0,1-.8-2.4v-.5c.1-.3.2-.4.5-.4a7.9,7.9,0,0,1,2.5.5c.9.3,1.3.6,1.3,1a9.1,9.1,0,0,0,.8,2.9,25.1,25.1,0,0,1,2.8-3.4,2.8,2.8,0,0,1,1.7-1,2.2,2.2,0,0,1,1.6.8,2.3,2.3,0,0,1,.8,1.4,1.4,1.4,0,0,1-.2.6l-.8.7-.9.8-3.1,3.7.8,1.4A16.5,16.5,0,0,1,256.4,185Z"/><path d="M265.6,177.1l-1.1,3.4-.6,2.2c0,.1.1.1.4.1l2.2-.6a8.9,8.9,0,0,1,2.1-.7c.4,0,.7.4.7,1s-.7,1.4-1.9,2.3a7.5,7.5,0,0,1-3.9,1.3,3.3,3.3,0,0,1-2.1-1,2.7,2.7,0,0,1-1.3-2,15.5,15.5,0,0,1,.9-3.5c.6-1.8.9-3,1.2-3.7l-1.7.3a1.5,1.5,0,0,1-1.2-.7,2.6,2.6,0,0,1-.6-1.5c0-.6,1.5-1.1,4.3-1.5a19.9,19.9,0,0,0,.6-4.5c0-.6.3-.8.8-.8a4.1,4.1,0,0,1,1.9.8,2.6,2.6,0,0,1,1.1,1.8,9.7,9.7,0,0,1-.4,2.4h2.1q2.1,0,2.1.9c0,.5-.5.8-1.3,1.1a22.1,22.1,0,0,1-3.7.9A18.9,18.9,0,0,1,265.6,177.1Z"/><path d="M273.1,176.4l-.2-3.1c0-1.1.4-1.6,1-1.6a1.7,1.7,0,0,1,1.1.4,2.4,2.4,0,0,1,.8,1.3,12,12,0,0,1,2.1-1.3,4.2,4.2,0,0,1,2-.5c1.4,0,2,.3,2,.9s0,.6-.2.8l-.2.3-.4.3-.3.3-.9.6a6.7,6.7,0,0,0-2.2,1.9,7,7,0,0,0-1.3,3,27.7,27.7,0,0,1-1.5,4.8c-.4,1-1,1.6-1.6,1.6a1.5,1.5,0,0,1-1.3-.9,3.2,3.2,0,0,1-.4-1.6,9.1,9.1,0,0,1,.5-2.2,11.7,11.7,0,0,0,.8-2.5A18.1,18.1,0,0,0,273.1,176.4Z"/><path d="M293.5,178.2c.3.3.5.5.5.8a9,9,0,0,1-.3,1.5,9.6,9.6,0,0,0-.5,1.7,5.6,5.6,0,0,1-.2,1c0,.3,0,.5-.1.6a1.1,1.1,0,0,1-.1.5.7.7,0,0,1-.1.5.6.6,0,0,1-.1.4c0,.2-.1.3-.1.4l-.2.3-.6.2c-.3,0-.6-.3-1-.8a8.4,8.4,0,0,1-.8-1.9c-1.7,1.8-3.2,2.7-4.4,2.7a4.3,4.3,0,0,1-2.6-1.3,4,4,0,0,1-1.4-2.7,9.9,9.9,0,0,1,1.2-3.8,17.3,17.3,0,0,1,3.3-4.5,5.9,5.9,0,0,1,4.1-2.1,4.4,4.4,0,0,1,2.7,1.4,3.6,3.6,0,0,1,1.5,2.5A6.3,6.3,0,0,1,293.5,178.2Zm-8.1,4.4a5.8,5.8,0,0,0,3-1.5,6.2,6.2,0,0,0,2.2-3.9.7.7,0,0,1,.5-.4c0-1-.2-1.6-.5-1.6a3.6,3.6,0,0,0-2.5,1.5,16.6,16.6,0,0,0-2.3,3.1,7.2,7.2,0,0,0-.8,2.4v.3Z"/><path d="M295.9,181.7a9.7,9.7,0,0,1,1.2-4.3,13.8,13.8,0,0,1,3.2-4,6.1,6.1,0,0,1,3.9-1.7c.7,0,1.3.5,2,1.3a3.7,3.7,0,0,1,1.1,2.3.6.6,0,0,1-.7.7l-.9-.3-1.2-.3a3.3,3.3,0,0,0-1.8,1,16.9,16.9,0,0,0-2,2.5,5.2,5.2,0,0,0-.9,2.3c0,.6.1,1,.4,1.1a2.4,2.4,0,0,0,1.5.3,8.5,8.5,0,0,0,2.3-.3l1.5-.4a1.5,1.5,0,0,1,.9-.2c.5,0,.7.2.7.6s-.7,1.7-2.1,2.5a8,8,0,0,1-4.3,1.3,5.2,5.2,0,0,1-3.1-1.5C296.4,183.5,295.9,182.6,295.9,181.7Z"/><path d="M316,177.1c-.2.9-.6,2.1-1,3.4l-.6,2.2c0,.1.1.1.4.1l2.2-.6,2-.7c.5,0,.7.4.7,1s-.6,1.4-1.8,2.3a7.5,7.5,0,0,1-3.9,1.3,3.8,3.8,0,0,1-2.2-1,2.6,2.6,0,0,1-1.2-2,15.5,15.5,0,0,1,.9-3.5c.5-1.8.9-3,1.1-3.7l-1.6.3a1.5,1.5,0,0,1-1.2-.7,2.6,2.6,0,0,1-.6-1.5c0-.6,1.4-1.1,4.3-1.5a19.3,19.3,0,0,0,.5-4.5c0-.6.3-.8.9-.8a3.4,3.4,0,0,1,1.8.8,2.4,2.4,0,0,1,1.2,1.8,19.3,19.3,0,0,1-.4,2.4h2q2.1,0,2.1.9c0,.5-.4.8-1.2,1.1a22.1,22.1,0,0,1-3.7.9Z"/><path d="M325.2,171.7a2.2,2.2,0,0,1,1.7,1.1,4.2,4.2,0,0,1,.8,2.2,22.7,22.7,0,0,1-1,3.8c-.6,2.1-1.2,4.2-1.9,6.2a1.4,1.4,0,0,1-1.3,1.1,1.6,1.6,0,0,1-1.1-.5,1.7,1.7,0,0,1-.5-1.2,37.5,37.5,0,0,1,.7-3.7,46.8,46.8,0,0,0,1.1-5c.3-1.4.5-2.4.7-3S324.9,171.7,325.2,171.7Zm-.4-3.5a2.4,2.4,0,0,1,.6-1.5,1.9,1.9,0,0,1,1.3-.7q.6,0,1.5,1.5a5,5,0,0,1,.9,2.2,1.2,1.2,0,0,1-.5,1,1.8,1.8,0,0,1-.9.4,3.2,3.2,0,0,1-1.9-1.1A2.8,2.8,0,0,1,324.8,168.2Z"/><path d="M339,171.7a2.4,2.4,0,0,1,1.4.5c.5.4.7.7.7,1.1a15.1,15.1,0,0,1-1.6,4.6,50.8,50.8,0,0,1-3.1,5.9c-.9,1.5-1.7,2.3-2.2,2.3a2.2,2.2,0,0,1-1.2-.6c-.5-.4-.9-.7-1-1.1a33.5,33.5,0,0,1-1.6-6,30.5,30.5,0,0,1-1-5.5c0-.8.3-1.2.8-1.2a3.7,3.7,0,0,1,2,.8,4.5,4.5,0,0,1,1.8,3.4c.1.7.1,1.5.2,2.4a18.4,18.4,0,0,0,.2,2.6c.5-.9,1-2.2,1.7-3.8s1.2-3,1.6-4S338.6,171.7,339,171.7Z"/><path d="M344.2,171.7a2.2,2.2,0,0,1,1.7,1.1,4.2,4.2,0,0,1,.8,2.2,22.7,22.7,0,0,1-1,3.8c-.6,2.1-1.2,4.2-1.9,6.2a1.4,1.4,0,0,1-1.3,1.1,1.4,1.4,0,0,1-1.1-.5,1.7,1.7,0,0,1-.5-1.2,37.5,37.5,0,0,1,.7-3.7,46.8,46.8,0,0,0,1.1-5c.3-1.4.5-2.4.7-3S343.9,171.7,344.2,171.7Zm-.4-3.5a2.4,2.4,0,0,1,.6-1.5,1.9,1.9,0,0,1,1.3-.7q.6,0,1.5,1.5a5,5,0,0,1,.9,2.2,1.2,1.2,0,0,1-.5,1,1.8,1.8,0,0,1-.9.4,3.2,3.2,0,0,1-1.9-1.1A2.8,2.8,0,0,1,343.8,168.2Z"/><path d="M357.2,171.7a3.1,3.1,0,0,1,2.1,1.3,4.2,4.2,0,0,1,1,2.2c0,.5-.2.7-.6.7l-1-.3-1.3-.2a6.3,6.3,0,0,0-1.9.4c-.8.3-1.3.7-1.3,1.2s.3.5.8.8l1.6,1.1a8,8,0,0,1,1.7,1.5,3.6,3.6,0,0,1,.7,2.2c0,.8-.5,1.5-1.7,2.3a6.5,6.5,0,0,1-3.9,1.2,7.1,7.1,0,0,1-3.9-1.1c-1.1-.6-1.6-1.3-1.6-2.1s.3-1.1.9-1.1l.8.3a6.5,6.5,0,0,0,3.5.8c1.4,0,2.1-.2,2.1-.5s-.3-.8-.8-1.3l-1.7-1.2a8.4,8.4,0,0,1-1.8-1.5,2.4,2.4,0,0,1-.8-1.6c0-1,1-2.1,2.8-3.3A8.5,8.5,0,0,1,357.2,171.7Z"/><path d="M380,171.7q1.2,0,1.8,1.5a5.6,5.6,0,0,1,.8,2.6,22.9,22.9,0,0,1-.5,3.6,25.9,25.9,0,0,1-1.4,4.5c-.7,1.5-1.4,2.2-2.2,2.2s-.9-.4-.9-1.3a26.4,26.4,0,0,1,.7-4.1,20.7,20.7,0,0,0,.8-3.7q0-.9-.3-.9c-.4,0-.9.4-1.4,1.3a24.4,24.4,0,0,0-1.9,3.4l-1.5,2.8a3.9,3.9,0,0,1-.4.9l-.4.8q-.9,1.5-2.4,0a2.1,2.1,0,0,1-.7-1.4s.1-.8.4-2.1a20.9,20.9,0,0,0,.5-4.6c0-.7-.1-1.1-.3-1.1s-.5.2-.7.7a17,17,0,0,0-1.4,2.4c-.6,1.2-1.2,2.1-1.6,2.9-1.6,2.7-2.7,4-3.6,4s-.9-.4-1.5-1.1a2.7,2.7,0,0,1-.9-1.5,11.8,11.8,0,0,1,.6-2.6,16.3,16.3,0,0,0,.8-4.5c.2-1.5.3-2.7.4-3.6s.3-1.3.6-1.3a3.2,3.2,0,0,1,2.1.9,2.4,2.4,0,0,1,1,1.6,23.8,23.8,0,0,1-1.2,5.7,28.3,28.3,0,0,1,3.3-6.3,3.8,3.8,0,0,1,2.7-1.7c.5,0,1.1.5,1.8,1.3a4.5,4.5,0,0,1,1.1,2.5c0,.8-.1,1.5-.1,2.1a14.9,14.9,0,0,1,2.6-4.1A5,5,0,0,1,380,171.7Z"/><path d="M386.1,174.8c1.5-2.1,2.9-3.1,4.3-3.1a4.9,4.9,0,0,1,3.6,1.5,5.2,5.2,0,0,1,1.4,3.6,10.5,10.5,0,0,1-3.8,7.8,6,6,0,0,1-3.9,1.5,3.3,3.3,0,0,1-2.6-1.4,4.7,4.7,0,0,1-1.1-3.3A11.7,11.7,0,0,1,386.1,174.8Zm4.5,5.7a7.3,7.3,0,0,0,1.2-3.8,4.3,4.3,0,0,0-.5-2.4,6.7,6.7,0,0,0-2.4,2.9,8.6,8.6,0,0,0-1.2,3.9,4.5,4.5,0,0,0,.3,2.1A5.3,5.3,0,0,0,390.6,180.5Z"/><path d="M402.3,185.9a7.7,7.7,0,0,1-1.7,4.5c-1.2,1.5-2.2,2.3-3.1,2.3s-.8-.2-.8-.6a3.1,3.1,0,0,1,.5-1.1c1.2-1.7,1.8-2.9,1.8-3.8a1.6,1.6,0,0,0-.5-1l-1-.8a1,1,0,0,1-.5-.8c0-.4.3-.8.8-1.3a2.2,2.2,0,0,1,1.8-.8,2.4,2.4,0,0,1,1.8,1A3.8,3.8,0,0,1,402.3,185.9Z"/><path d="M424.6,172.4a.8.8,0,0,1,.9-.7,2.3,2.3,0,0,1,1.5,1.1,3.7,3.7,0,0,1,.9,2,30.9,30.9,0,0,1-1.3,4.1c-.8,2.5-1.5,4.5-1.9,6s-.7,1.2-1.4,1.2a1.8,1.8,0,0,1-.9-.4,2.2,2.2,0,0,1-.4-1.3,8.5,8.5,0,0,1,.4-2.4c-1.9,2.7-3.5,4.1-4.6,4.1a3.3,3.3,0,0,1-2.1-1.2,2.9,2.9,0,0,1-1.3-2.2,20.5,20.5,0,0,1,1.5-6.8c1-2.8,2-4.2,2.9-4.2a1.7,1.7,0,0,1,1.4.7,2.5,2.5,0,0,1,.6,1.6,6.3,6.3,0,0,1-.7,1.9c-1.4,3-2.1,5.2-2.1,6.5h.2c.2,0,.8-.4,1.5-1.3a18.9,18.9,0,0,0,2.6-3.8A25,25,0,0,0,424.6,172.4Z"/><path d="M438.6,171.7a3.3,3.3,0,0,1,2.6,1.3,4.5,4.5,0,0,1,1.1,2.8,17.3,17.3,0,0,1-.8,4.9,15.4,15.4,0,0,1-1.7,4c-.6.9-1.2,1.4-1.8,1.4s-.9-.5-.9-1.3a19.1,19.1,0,0,1,.9-4.1,18.2,18.2,0,0,0,.7-3.6c0-.7-.1-1-.3-1a.9.9,0,0,0-.7.3l-.6.7-.5.7-.5.7a4.1,4.1,0,0,1-.5.9l-.6.9a4.1,4.1,0,0,1-.5.9c-1.7,3.3-3,4.9-4,4.9s-.9-.4-1.5-1a3.1,3.1,0,0,1-.9-1.5,4.3,4.3,0,0,1,.4-1.4,7.7,7.7,0,0,0,.6-1.5l.3-1.2a5.1,5.1,0,0,0,.2-1.3,4.9,4.9,0,0,0,.1-1.1,4.1,4.1,0,0,0,.1-1.2c.2-2.4.3-3.8.5-4s.2-.4.4-.4a2.8,2.8,0,0,1,2,.9,2.1,2.1,0,0,1,1,1.6,19.7,19.7,0,0,1-.9,4.9,60.9,60.9,0,0,1,3.3-5.2C437.1,172.4,437.9,171.7,438.6,171.7Z"/><path d="M455.6,178.2c.4.3.5.5.5.8a9,9,0,0,1-.3,1.5,7.9,7.9,0,0,0-.4,1.7,8.4,8.4,0,0,0-.2,1,1.8,1.8,0,0,0-.1.6,4.3,4.3,0,0,0-.1.5,1.1,1.1,0,0,0-.1.5.6.6,0,0,0-.1.4l-.2.4-.2.3-.6.2c-.2,0-.5-.3-.9-.8a5.6,5.6,0,0,1-.9-1.9c-1.7,1.8-3.2,2.7-4.4,2.7a4.5,4.5,0,0,1-2.6-1.3,3.8,3.8,0,0,1-1.3-2.7,9.9,9.9,0,0,1,1.2-3.8,14.9,14.9,0,0,1,3.2-4.5,6,6,0,0,1,4.1-2.1,4.4,4.4,0,0,1,2.7,1.4,3.4,3.4,0,0,1,1.6,2.5A5.4,5.4,0,0,1,455.6,178.2Zm-8.1,4.4a5.2,5.2,0,0,0,3-1.5,6.8,6.8,0,0,0,2.3-3.9c0-.2.2-.3.5-.4s-.3-1.6-.6-1.6a4,4,0,0,0-2.5,1.5,16,16,0,0,0-2.2,3.1,6,6,0,0,0-.9,2.4c0,.2,0,.3.1.3Z"/><path d="M259.4,204.2c.7,0,1.4.6,2.2,1.9a6.5,6.5,0,0,1,1.2,3.6,5.4,5.4,0,0,1-.9,2.7,16.1,16.1,0,0,1-2.4,2.9,19.4,19.4,0,0,1-3.3,2.3,8.7,8.7,0,0,1-3.6.9h-.3c-1.2,4.9-2,7.3-2.5,7.3s-.8-.3-1.3-1a2.9,2.9,0,0,1-.6-1.6,36.2,36.2,0,0,1,.8-3.9q2.4-9.7,2.4-14.7c0-.6.3-.8.8-.8a3.2,3.2,0,0,1,1.7.7,3.4,3.4,0,0,1,1.3,2C256.5,205,258,204.2,259.4,204.2Zm-2.2,8.6c1.3-1.3,2-2.5,2-3.4s-.3-1.5-.8-1.5a3.8,3.8,0,0,0-2.5,1.4,5.5,5.5,0,0,0-1.2,1.6,12.7,12.7,0,0,0-1.1,2.6l-.5,1.7A8,8,0,0,0,257.2,212.8Z"/><path d="M265.8,208.9v-3.1c0-1.1.3-1.6.9-1.6a1.5,1.5,0,0,1,1.1.4,2.5,2.5,0,0,1,.9,1.3,8.6,8.6,0,0,1,2-1.3,4.5,4.5,0,0,1,2-.5q2.1,0,2.1.9a1.5,1.5,0,0,1-.2.8c-.1.1-.2.3-.3.3l-.3.3-.4.3-.9.6a7.4,7.4,0,0,0-2.1,1.8,8.1,8.1,0,0,0-1.4,3.1,44.3,44.3,0,0,1-1.4,4.8c-.5,1-1,1.5-1.6,1.5a1.2,1.2,0,0,1-1.3-.8,3.3,3.3,0,0,1-.5-1.6,6.6,6.6,0,0,1,.6-2.2,19.9,19.9,0,0,0,.7-2.5A9.7,9.7,0,0,0,265.8,208.9Z"/><path d="M283.1,204.2a4.4,4.4,0,0,1,2.7,1.4,3.6,3.6,0,0,1,1.5,2.5,6.3,6.3,0,0,1-.8,2.6c.3.3.5.5.5.8a5.4,5.4,0,0,1-.4,1.5c-.2.7-.3,1.3-.4,1.7a5.6,5.6,0,0,1-.2,1,3.5,3.5,0,0,1-.1.6,1.1,1.1,0,0,1-.1.5,4.3,4.3,0,0,1-.1.5v.4c-.1.2-.1.3-.2.4v.3l-.6.2c-.3,0-.6-.3-1-.8a5.4,5.4,0,0,1-.8-1.9c-1.8,1.8-3.2,2.7-4.4,2.7a4.3,4.3,0,0,1-2.6-1.3,4,4,0,0,1-1.4-2.7,9.9,9.9,0,0,1,1.2-3.8,17.3,17.3,0,0,1,3.3-4.5A5.7,5.7,0,0,1,283.1,204.2Zm-4.7,10.9a5,5,0,0,0,2.9-1.6,5.9,5.9,0,0,0,2.3-3.8c0-.2.2-.3.5-.4s-.2-1.6-.5-1.6a3.6,3.6,0,0,0-2.5,1.5,16.6,16.6,0,0,0-2.3,3.1,6,6,0,0,0-.9,2.4.4.4,0,0,0,.1.3Zm10.7-17.9a1.7,1.7,0,0,1,1.2.8,2.2,2.2,0,0,1,.5,1.4,2.2,2.2,0,0,1-.1.9l-.4.5-.7.4-1.1.5-1.2.7-.9.5a2.8,2.8,0,0,1-1.3.6,1.2,1.2,0,0,1-.8-.4,1.7,1.7,0,0,1-.3-1,1.9,1.9,0,0,1,.3-1,5,5,0,0,1,1-1.1l1.2-1,.8-.7.6-.5.4-.3Z"/><path d="M288.8,214.2a9.7,9.7,0,0,1,1.2-4.3,14.1,14.1,0,0,1,3.3-4,6.1,6.1,0,0,1,3.9-1.7,3.1,3.1,0,0,1,2,1.3,3.6,3.6,0,0,1,1,2.3c0,.5-.2.7-.7.7l-.9-.3-1.2-.3a2.8,2.8,0,0,0-1.7,1,12.2,12.2,0,0,0-2,2.5,5.2,5.2,0,0,0-.9,2.3,1.4,1.4,0,0,0,.3,1.1c.2.2.7.3,1.6.3a7.3,7.3,0,0,0,2.2-.3l1.5-.4.9-.3a.7.7,0,0,1,.8.7c0,.8-.7,1.7-2.2,2.5a7.6,7.6,0,0,1-4.2,1.3,4.7,4.7,0,0,1-3.1-1.5C289.4,216,288.8,215.1,288.8,214.2Z"/><path d="M309,209.6c-.3.9-.6,2-1.1,3.4l-.6,2.2h.5l2.2-.6a7.5,7.5,0,0,1,2-.7c.5,0,.7.4.7,1s-.6,1.4-1.9,2.3a7,7,0,0,1-3.9,1.3,3.3,3.3,0,0,1-2.1-1,2.6,2.6,0,0,1-1.2-2,20,20,0,0,1,.8-3.5l1.2-3.7-1.7.3c-.3,0-.7-.2-1.1-.8a2.2,2.2,0,0,1-.6-1.4c0-.6,1.4-1.1,4.3-1.5a26.8,26.8,0,0,0,.5-4.5c0-.6.3-.8.8-.8a4.1,4.1,0,0,1,1.9.8,2.6,2.6,0,0,1,1.1,1.8,13.1,13.1,0,0,1-.3,2.3h2q2.1,0,2.1.9c0,.4-.4.8-1.2,1.1a23.9,23.9,0,0,1-3.8.9A18.9,18.9,0,0,1,309,209.6Z"/><path d="M318.1,204.2a2.2,2.2,0,0,1,1.8,1.1,4,4,0,0,1,.7,2.2,29.8,29.8,0,0,1-.9,3.8c-.7,2.1-1.3,4.2-1.9,6.2a1.3,1.3,0,0,1-1.4,1,1.5,1.5,0,0,1-1.1-.4,1.6,1.6,0,0,1-.4-1.2,20.1,20.1,0,0,1,.7-3.7c.5-1.9.8-3.6,1.1-5a16.8,16.8,0,0,1,.7-3C317.6,204.5,317.8,204.2,318.1,204.2Zm-.4-3.5a2.1,2.1,0,0,1,.7-1.5,1.6,1.6,0,0,1,1.3-.7q.6,0,1.5,1.5a5.9,5.9,0,0,1,.8,2.2,1.2,1.2,0,0,1-.4,1,1.8,1.8,0,0,1-1,.4,4.5,4.5,0,0,1-2.9-2.9Z"/><path d="M322.2,214.2a8.8,8.8,0,0,1,1.3-4.3,13.8,13.8,0,0,1,3.2-4,6.1,6.1,0,0,1,3.9-1.7,3.1,3.1,0,0,1,2,1.3,3.6,3.6,0,0,1,1,2.3c0,.5-.2.7-.6.7l-1-.3a2.1,2.1,0,0,0-1.2-.3c-.4,0-.9.3-1.7,1a16.9,16.9,0,0,0-2,2.5,5.2,5.2,0,0,0-.9,2.3,1.4,1.4,0,0,0,.3,1.1,3,3,0,0,0,1.6.3,8.5,8.5,0,0,0,2.3-.3l1.5-.4.8-.3c.6,0,.8.3.8.7s-.7,1.7-2.1,2.5a8.2,8.2,0,0,1-4.3,1.3,4.9,4.9,0,0,1-3.1-1.5C322.8,216,322.2,215.1,322.2,214.2Z"/><path d="M347.7,210.7c.3.3.5.5.5.8a9,9,0,0,1-.3,1.5,9.6,9.6,0,0,0-.5,1.7,5.6,5.6,0,0,1-.2,1c0,.3,0,.5-.1.6a1.1,1.1,0,0,1-.1.5.7.7,0,0,1-.1.5.6.6,0,0,1-.1.4c0,.2-.1.3-.1.4l-.2.3-.6.2c-.2,0-.6-.3-.9-.8a5.6,5.6,0,0,1-.9-1.9c-1.7,1.8-3.2,2.7-4.4,2.7a4.3,4.3,0,0,1-2.6-1.3,4,4,0,0,1-1.4-2.7,9.9,9.9,0,0,1,1.2-3.8,17.3,17.3,0,0,1,3.3-4.5,5.9,5.9,0,0,1,4.1-2.1,4.4,4.4,0,0,1,2.7,1.4,3.6,3.6,0,0,1,1.5,2.5A5.1,5.1,0,0,1,347.7,210.7Zm-8.1,4.4a5.4,5.4,0,0,0,3-1.6,6.3,6.3,0,0,0,2.3-3.8c0-.2.1-.3.4-.4s-.2-1.6-.5-1.6a3.8,3.8,0,0,0-2.5,1.5,16.6,16.6,0,0,0-2.3,3.1,7.2,7.2,0,0,0-.8,2.4v.3Z"/><path d="M363.9,204.2a2.2,2.2,0,0,1,1.8,1.1,4,4,0,0,1,.7,2.2,29.8,29.8,0,0,1-.9,3.8c-.7,2.1-1.3,4.2-1.9,6.2a1.4,1.4,0,0,1-1.4,1,1.5,1.5,0,0,1-1.1-.4,1.6,1.6,0,0,1-.4-1.2,20.1,20.1,0,0,1,.7-3.7c.5-1.9.8-3.6,1.1-5a16.8,16.8,0,0,1,.7-3C363.4,204.5,363.6,204.2,363.9,204.2Zm-.4-3.5a2.1,2.1,0,0,1,.7-1.5,1.6,1.6,0,0,1,1.3-.7c.4,0,.9.5,1.4,1.5a5,5,0,0,1,.9,2.2,1.2,1.2,0,0,1-.4,1,1.8,1.8,0,0,1-1,.4,4.5,4.5,0,0,1-2.9-2.9Z"/><path d="M378.3,204.2a3.1,3.1,0,0,1,2.5,1.3,4,4,0,0,1,1.1,2.8,17.6,17.6,0,0,1-.7,4.9,15.4,15.4,0,0,1-1.7,4c-.6.9-1.2,1.4-1.8,1.4s-1-.5-1-1.3a19.1,19.1,0,0,1,.9-4.1,12.9,12.9,0,0,0,.7-3.6c0-.7-.1-1.1-.2-1.1s-.5.2-.8.4l-.5.7c-.2.1-.3.4-.5.7l-.5.7-.6.9-.5.9a4.1,4.1,0,0,1-.5.9c-1.7,3.3-3.1,4.9-4.1,4.9s-.8-.4-1.4-1a3.1,3.1,0,0,1-.9-1.5,4.3,4.3,0,0,1,.4-1.4c.3-.6.4-1.2.6-1.5l.3-1.2c.1-.4.1-.8.2-1.3s.1-.8.1-1.1.1-.7.1-1.2a37.6,37.6,0,0,1,.4-4c.2-.3.3-.4.4-.4a3.2,3.2,0,0,1,2.1.9,2.2,2.2,0,0,1,.9,1.6,18.6,18.6,0,0,1-.8,4.9,60.9,60.9,0,0,1,3.3-5.2C376.8,204.9,377.6,204.2,378.3,204.2Z"/><path d="M393.2,204.2a2.4,2.4,0,0,1,1.4.5c.5.4.7.7.7,1.1s-.6,2.2-1.7,4.6a52.5,52.5,0,0,1-3,5.9c-1,1.5-1.7,2.2-2.2,2.2a1.9,1.9,0,0,1-1.2-.5,3.2,3.2,0,0,1-1-1.1,41.5,41.5,0,0,1-1.7-6,37.5,37.5,0,0,1-.9-5.5c0-.8.3-1.2.8-1.2a3.1,3.1,0,0,1,1.9.8,4.6,4.6,0,0,1,1.9,3.4,17,17,0,0,1,.1,2.4c.1,1,.2,1.9.3,2.6.4-.9,1-2.2,1.6-3.8s1.2-3,1.7-4S392.8,204.2,393.2,204.2Z"/><path d="M407.1,210.7c.3.3.5.5.5.8s-.2.7-.4,1.5a7.9,7.9,0,0,0-.4,1.7,8.4,8.4,0,0,0-.2,1,1.8,1.8,0,0,0-.1.6,4.3,4.3,0,0,0-.1.5,4.3,4.3,0,0,1-.1.5v.4c-.1.2-.1.3-.2.4l-.2.3-.5.2c-.3,0-.6-.3-1-.8a4.1,4.1,0,0,1-.8-1.9c-1.8,1.8-3.3,2.7-4.4,2.7a4.3,4.3,0,0,1-2.6-1.3,3.6,3.6,0,0,1-1.4-2.7,9.9,9.9,0,0,1,1.2-3.8,19.5,19.5,0,0,1,3.2-4.5,6.1,6.1,0,0,1,4.2-2.1,5,5,0,0,1,2.7,1.4,3.6,3.6,0,0,1,1.5,2.5A6.3,6.3,0,0,1,407.1,210.7Zm-8.2,4.4a4.9,4.9,0,0,0,3-1.6,6.3,6.3,0,0,0,2.3-3.8c0-.2.2-.3.5-.4s-.2-1.6-.5-1.6a3.6,3.6,0,0,0-2.5,1.5,13.1,13.1,0,0,0-2.3,3.1,6,6,0,0,0-.9,2.4.4.4,0,0,0,.1.3Z"/><path d="M418.3,204.2a2.8,2.8,0,0,1,2.1,1.3,3.5,3.5,0,0,1,1,2.2c0,.5-.2.7-.6.7l-.9-.3-1.3-.2a5.4,5.4,0,0,0-1.9.4c-.9.3-1.3.7-1.3,1.2s.2.5.7.8l1.7,1.1a7.5,7.5,0,0,1,1.6,1.5,3.7,3.7,0,0,1,.8,2.2c0,.8-.6,1.5-1.7,2.3a6.8,6.8,0,0,1-4,1.2,7.1,7.1,0,0,1-3.9-1.1c-1-.6-1.6-1.3-1.6-2.1s.3-1.1.9-1.1l.9.3a6.3,6.3,0,0,0,3.5.8c1.3,0,2-.2,2-.5a1.7,1.7,0,0,0-.8-1.3l-1.7-1.2a8,8,0,0,1-1.7-1.5,2.4,2.4,0,0,1-.8-1.6q0-1.5,2.7-3.3A8.9,8.9,0,0,1,418.3,204.2Z"/><path d="M425.6,204.2a2.2,2.2,0,0,1,1.7,1.1,4.2,4.2,0,0,1,.8,2.2,22.7,22.7,0,0,1-1,3.8c-.6,2.1-1.3,4.2-1.9,6.2a1.3,1.3,0,0,1-1.3,1,1.4,1.4,0,0,1-1.1-.4,1.7,1.7,0,0,1-.5-1.2,37.5,37.5,0,0,1,.7-3.7,46.8,46.8,0,0,0,1.1-5c.3-1.4.5-2.4.7-3S425.3,204.2,425.6,204.2Zm-.4-3.5a2.4,2.4,0,0,1,.6-1.5,1.9,1.9,0,0,1,1.3-.7q.6,0,1.5,1.5a4.5,4.5,0,0,1,.8,2.2,1.2,1.2,0,0,1-.4,1,1.8,1.8,0,0,1-.9.4,2.9,2.9,0,0,1-1.9-1.1A2.8,2.8,0,0,1,425.2,200.7Z"/><path d="M439.4,204.2a2.4,2.4,0,0,1,1.4.5c.5.4.7.7.7,1.1a15.1,15.1,0,0,1-1.6,4.6c-1.2,2.5-2.2,4.4-3.1,5.9s-1.7,2.2-2.2,2.2a1.9,1.9,0,0,1-1.2-.5,3.2,3.2,0,0,1-1-1.1,33.5,33.5,0,0,1-1.6-6,30.5,30.5,0,0,1-1-5.5c0-.8.3-1.2.8-1.2a3.1,3.1,0,0,1,1.9.8,4.3,4.3,0,0,1,1.9,3.4,17,17,0,0,1,.1,2.4c.1,1,.2,1.9.3,2.6.4-.9,1-2.2,1.6-3.8l1.7-4C438.6,204.7,439,204.2,439.4,204.2Z"/><path d="M453.3,210.7c.3.3.5.5.5.8a5.4,5.4,0,0,1-.4,1.5c-.2.7-.3,1.3-.4,1.7a5.6,5.6,0,0,1-.2,1,3.5,3.5,0,0,1-.1.6,1.1,1.1,0,0,1-.1.5,4.3,4.3,0,0,1-.1.5v.4c-.1.2-.1.3-.2.4l-.2.3-.5.2c-.3,0-.6-.3-1-.8a5.4,5.4,0,0,1-.8-1.9c-1.8,1.8-3.2,2.7-4.4,2.7a4.3,4.3,0,0,1-2.6-1.3,4,4,0,0,1-1.4-2.7,9.9,9.9,0,0,1,1.2-3.8,17.3,17.3,0,0,1,3.3-4.5,5.7,5.7,0,0,1,4.1-2.1,5,5,0,0,1,2.7,1.4,3.6,3.6,0,0,1,1.5,2.5A6.3,6.3,0,0,1,453.3,210.7Zm-8.1,4.4a5,5,0,0,0,2.9-1.6,5.9,5.9,0,0,0,2.3-3.8c0-.2.2-.3.5-.4s-.2-1.6-.5-1.6a3.6,3.6,0,0,0-2.5,1.5,16.6,16.6,0,0,0-2.3,3.1,6,6,0,0,0-.9,2.4.4.4,0,0,0,.1.3Z"/><path d="M301.9,228.9c.4,0,1,.4,1.7,1.2a3.7,3.7,0,0,1,1.1,2.3,33.1,33.1,0,0,1-1,4.4c-.6,2.6-1,4.1-1.1,4.7q-2.2,9.6-3.3,9.6a2.4,2.4,0,0,1-1.3-.7,1.9,1.9,0,0,1-.7-1.4v-.2c-1.9,1.5-3.2,2.3-4,2.3a3.2,3.2,0,0,1-2.3-1.3,3.9,3.9,0,0,1-1.2-2.4,9.7,9.7,0,0,1,.3-2.3,18,18,0,0,1,.9-2.8c.4-.9.9-1.8,1.4-2.7a10,10,0,0,1,2-2.1,4,4,0,0,1,2.3-.8,3.3,3.3,0,0,1,2.9,1.8,49.9,49.9,0,0,0,1.5-8.8C301.1,229.2,301.3,228.9,301.9,228.9Zm-8.2,18.6a5.4,5.4,0,0,0,2.3-1.2,8.1,8.1,0,0,0,2.5-3,7.7,7.7,0,0,1-.1-1,2,2,0,0,0-.5-1.4c-.3-.4-.6-.7-.9-.7a2.2,2.2,0,0,0-1.6.9,7.2,7.2,0,0,0-1.2,2.1,14,14,0,0,0-.9,4v.3Z"/><path d="M315.6,244.4a7.5,7.5,0,0,1-3.8,1,14.7,14.7,0,0,1-3.2-.2,3.9,3.9,0,0,0-.2,1.5c0,.5,0,.8.2,1s.6.4,1.3.4a16.9,16.9,0,0,0,3.5-.4l1.6-.4c.7,0,1.1.2,1.1.7s-.6,1.4-1.8,2.1a8.9,8.9,0,0,1-4.1,1,5,5,0,0,1-3.8-1.5,5.2,5.2,0,0,1-1.4-3.5,8.7,8.7,0,0,1,1.2-4.2,13.6,13.6,0,0,1,2.9-3.7,5.6,5.6,0,0,1,3.6-1.5,4.5,4.5,0,0,1,3.3,1.7,5.6,5.6,0,0,1,1.5,3.5C317.5,242.8,316.8,243.6,315.6,244.4Zm-1.9-3.7a1.7,1.7,0,0,0-1.1-.6c-.4,0-.8.3-1.4.8a10.5,10.5,0,0,0-1.5,1.9h.7c2.6,0,3.8-.4,3.8-1.3A1.5,1.5,0,0,0,313.7,240.7Z"/><path d="M329.3,246.7a9.7,9.7,0,0,1,1.2-4.3,13.8,13.8,0,0,1,3.2-4,6.6,6.6,0,0,1,4-1.7,3.1,3.1,0,0,1,2,1.3,3.6,3.6,0,0,1,1,2.3.6.6,0,0,1-.7.7l-.9-.3-1.2-.3a2.8,2.8,0,0,0-1.7,1,12.2,12.2,0,0,0-2,2.5,5.2,5.2,0,0,0-.9,2.3,1.4,1.4,0,0,0,.3,1.1c.2.2.7.3,1.6.3a7.8,7.8,0,0,0,2.2-.3l1.5-.4.9-.3a.7.7,0,0,1,.8.7c0,.8-.7,1.7-2.2,2.5a7.6,7.6,0,0,1-4.2,1.3,5.1,5.1,0,0,1-3.2-1.5C329.9,248.5,329.3,247.6,329.3,246.7Z"/><path d="M354.8,243.2c.3.3.5.5.5.8a5.4,5.4,0,0,1-.4,1.5c-.2.7-.3,1.3-.4,1.7a5.6,5.6,0,0,1-.2,1,3.5,3.5,0,0,1-.1.6,1.1,1.1,0,0,1-.1.5,4.3,4.3,0,0,1-.1.5v.4c-.1.2-.1.3-.2.4l-.2.3-.5.2c-.3,0-.6-.3-1-.8a5.4,5.4,0,0,1-.8-1.9c-1.8,1.8-3.2,2.7-4.4,2.7a4.3,4.3,0,0,1-2.6-1.3,4,4,0,0,1-1.4-2.7,9.9,9.9,0,0,1,1.2-3.8,17.3,17.3,0,0,1,3.3-4.5,5.7,5.7,0,0,1,4.1-2.1,5,5,0,0,1,2.7,1.4,3.6,3.6,0,0,1,1.5,2.5A6.3,6.3,0,0,1,354.8,243.2Zm-8.1,4.4a5,5,0,0,0,2.9-1.6,5.9,5.9,0,0,0,2.3-3.8c0-.2.2-.3.5-.4s-.2-1.6-.5-1.6a3.6,3.6,0,0,0-2.5,1.5,16.6,16.6,0,0,0-2.3,3.1,6,6,0,0,0-.9,2.4c0,.1.1.2.1.3Z"/><path d="M358.7,241.4l-.2-3.1c0-1.1.3-1.6,1-1.6a1.9,1.9,0,0,1,1.1.4,3.2,3.2,0,0,1,.8,1.3,7.4,7.4,0,0,1,2.1-1.3,3.9,3.9,0,0,1,2-.5c1.3,0,2,.3,2,.9a1.5,1.5,0,0,1-.2.8l-.3.3-.3.3-.3.3-1,.6a9.1,9.1,0,0,0-2.1,1.8,6.8,6.8,0,0,0-1.3,3.1,40.7,40.7,0,0,1-1.5,4.8c-.5,1-1,1.5-1.6,1.5a1.3,1.3,0,0,1-1.3-.8,3.2,3.2,0,0,1-.4-1.6,5.9,5.9,0,0,1,.5-2.2,23,23,0,0,0,.8-2.5A18.1,18.1,0,0,0,358.7,241.4Z"/><path d="M375.9,236.7a4.4,4.4,0,0,1,2.7,1.4,3.6,3.6,0,0,1,1.5,2.5,5.1,5.1,0,0,1-.8,2.6c.3.3.5.5.5.8a9,9,0,0,1-.3,1.5,9.6,9.6,0,0,0-.5,1.7,2.2,2.2,0,0,1-.2,1c0,.3,0,.5-.1.6a1.1,1.1,0,0,1-.1.5.7.7,0,0,1-.1.5.6.6,0,0,1-.1.4c0,.2-.1.3-.1.4l-.2.3-.6.2c-.2,0-.6-.3-.9-.8a5.6,5.6,0,0,1-.9-1.9c-1.7,1.8-3.2,2.7-4.4,2.7a4.3,4.3,0,0,1-2.6-1.3,4,4,0,0,1-1.4-2.7,9.9,9.9,0,0,1,1.2-3.8,17.3,17.3,0,0,1,3.3-4.5A5.9,5.9,0,0,1,375.9,236.7Zm-4.7,10.9a5.4,5.4,0,0,0,3-1.6,6.3,6.3,0,0,0,2.3-3.8c0-.2.1-.3.4-.4s-.2-1.6-.5-1.6a3.8,3.8,0,0,0-2.5,1.5,12.6,12.6,0,0,0-2.2,3.1,6,6,0,0,0-.9,2.4v.3Zm10.7-17.9a1.7,1.7,0,0,1,1.2.8,2.4,2.4,0,0,1,.6,1.4c0,.4-.1.7-.1.9l-.5.5-.6.4-1.1.5-1.2.7-1,.5a2.4,2.4,0,0,1-1.3.6c-.3,0-.5-.2-.8-.4a1.7,1.7,0,0,1-.3-1,1.4,1.4,0,0,1,.4-1,3.3,3.3,0,0,1,1-1.1l1.2-1.1.7-.6.6-.5.5-.3A1.1,1.1,0,0,1,381.9,229.7Z"/><path d="M381.6,246.7a10,10,0,0,1,1.3-4.3,13.8,13.8,0,0,1,3.2-4,6.1,6.1,0,0,1,3.9-1.7,3.1,3.1,0,0,1,2,1.3,3.6,3.6,0,0,1,1,2.3c0,.4-.2.7-.6.7l-1-.3a2,2,0,0,0-1.1-.3c-.5,0-1,.3-1.8,1a16.9,16.9,0,0,0-2,2.5,5.2,5.2,0,0,0-.9,2.3,1.4,1.4,0,0,0,.3,1.1,3,3,0,0,0,1.6.3,8.5,8.5,0,0,0,2.3-.3l1.5-.4.8-.3c.6,0,.8.3.8.7s-.7,1.7-2.1,2.5a8.2,8.2,0,0,1-4.3,1.3,4.9,4.9,0,0,1-3.1-1.5C382.2,248.5,381.6,247.6,381.6,246.7Z"/><path d="M401.8,242.1c-.3.9-.6,2-1,3.4a17.2,17.2,0,0,0-.7,2.2h.5l2.2-.6a7.5,7.5,0,0,1,2-.7c.5,0,.7.3.7,1s-.6,1.4-1.9,2.3a7,7,0,0,1-3.9,1.3,4.3,4.3,0,0,1-2.1-1,2.7,2.7,0,0,1-1.2-2,15.5,15.5,0,0,1,.9-3.5c.5-1.8.9-3,1.1-3.7l-1.6.3a1.4,1.4,0,0,1-1.2-.8,2.4,2.4,0,0,1-.6-1.4c0-.6,1.4-1.1,4.3-1.5a19.3,19.3,0,0,0,.5-4.5c0-.6.3-.8.9-.8a3.4,3.4,0,0,1,1.8.8,2.3,2.3,0,0,1,1.1,1.8,13.1,13.1,0,0,1-.3,2.3h2q2.1,0,2.1.9c0,.4-.4.8-1.2,1.1a22.1,22.1,0,0,1-3.7.9Z"/><path d="M418.5,244.4a7.7,7.7,0,0,1-3.8,1,16.2,16.2,0,0,1-3.3-.2,7.7,7.7,0,0,0-.2,1.5,2.2,2.2,0,0,0,.2,1c.2.3.6.4,1.3.4a17.9,17.9,0,0,0,3.6-.4l1.5-.4c.8,0,1.2.2,1.2.7s-.6,1.4-1.8,2.1a9.3,9.3,0,0,1-4.2,1,5,5,0,0,1-5.2-5,8.7,8.7,0,0,1,1.2-4.2,12.2,12.2,0,0,1,3-3.7,5.4,5.4,0,0,1,3.5-1.5,4.5,4.5,0,0,1,3.3,1.7,5.6,5.6,0,0,1,1.5,3.5C420.3,242.8,419.7,243.6,418.5,244.4Zm-2-3.7a1.7,1.7,0,0,0-1.1-.6c-.4,0-.8.3-1.3.8a7.7,7.7,0,0,0-1.6,1.9h.8c2.5,0,3.8-.4,3.8-1.3S416.9,241,416.5,240.7Z"/><path d="M423,241.4l-.2-3.1c0-1.1.3-1.6,1-1.6a1.9,1.9,0,0,1,1.1.4,3.2,3.2,0,0,1,.8,1.3,7.4,7.4,0,0,1,2.1-1.3,3.8,3.8,0,0,1,1.9-.5q2.1,0,2.1.9a1.5,1.5,0,0,1-.2.8l-.3.3-.3.3-.4.3-.9.6a9.1,9.1,0,0,0-2.1,1.8,8.1,8.1,0,0,0-1.4,3.1,29.2,29.2,0,0,1-1.4,4.8c-.5,1-1,1.5-1.6,1.5a1.3,1.3,0,0,1-1.3-.8,3.3,3.3,0,0,1-.5-1.6,6.6,6.6,0,0,1,.6-2.2,10.7,10.7,0,0,0,.7-2.5A9.5,9.5,0,0,0,423,241.4Z"/><path d="M312.4,276.9a7.5,7.5,0,0,1-3.8,1,14.7,14.7,0,0,1-3.2-.2,3.9,3.9,0,0,0-.2,1.5c0,.5,0,.8.2,1s.6.4,1.3.4a16.9,16.9,0,0,0,3.5-.4l1.6-.4c.7,0,1.1.2,1.1.7s-.6,1.4-1.8,2.1a9.2,9.2,0,0,1-4.1,1,5,5,0,0,1-3.8-1.5,5.2,5.2,0,0,1-1.4-3.5,8.7,8.7,0,0,1,1.2-4.2,11.9,11.9,0,0,1,2.9-3.7,5.6,5.6,0,0,1,3.6-1.5,4.5,4.5,0,0,1,3.3,1.7,5.6,5.6,0,0,1,1.5,3.5C314.3,275.3,313.6,276.1,312.4,276.9Zm-2-3.7a1.4,1.4,0,0,0-1.1-.6c-.3,0-.7.3-1.3.8a10.5,10.5,0,0,0-1.5,1.9h.7c2.6,0,3.8-.4,3.8-1.3S310.8,273.5,310.4,273.2Z"/><path d="M315.4,279.2a9.7,9.7,0,0,1,1.2-4.3,12.6,12.6,0,0,1,3.2-4,6.4,6.4,0,0,1,3.9-1.7,2.5,2.5,0,0,1,2,1.3,3.7,3.7,0,0,1,1.1,2.3.7.7,0,0,1-.7.7l-.9-.3a2.7,2.7,0,0,0-1.2-.3,3.3,3.3,0,0,0-1.8,1,16.9,16.9,0,0,0-2,2.5,6.2,6.2,0,0,0-.8,2.3,1.4,1.4,0,0,0,.3,1.1,2.4,2.4,0,0,0,1.5.3,8,8,0,0,0,2.3-.3l1.5-.4a1.6,1.6,0,0,1,.9-.3.7.7,0,0,1,.8.7c0,.8-.8,1.7-2.2,2.5a8.6,8.6,0,0,1-4.3,1.3,5.2,5.2,0,0,1-3.1-1.5C316,281,315.4,280.1,315.4,279.2Z"/><path d="M331,272.3c1.5-2.1,2.9-3.1,4.3-3.1a4.9,4.9,0,0,1,3.6,1.5,5.2,5.2,0,0,1,1.4,3.6,10.5,10.5,0,0,1-3.8,7.8,6,6,0,0,1-3.9,1.5,3.3,3.3,0,0,1-2.6-1.4,4.7,4.7,0,0,1-1.1-3.3A11.7,11.7,0,0,1,331,272.3Zm4.5,5.7a7.3,7.3,0,0,0,1.2-3.8,4.3,4.3,0,0,0-.5-2.4,6.7,6.7,0,0,0-2.4,2.9,8.6,8.6,0,0,0-1.2,3.9,4.5,4.5,0,0,0,.3,2.1A5.3,5.3,0,0,0,335.5,278Z"/><path d="M352,269.2a3.1,3.1,0,0,1,2.5,1.3,4.5,4.5,0,0,1,1.1,2.8,17.9,17.9,0,0,1-.8,4.9,15.7,15.7,0,0,1-1.6,4,2.6,2.6,0,0,1-1.9,1.4c-.6,0-.9-.5-.9-1.3a18,18,0,0,1,.9-4.1,12.9,12.9,0,0,0,.7-3.6c0-.7-.1-1.1-.3-1.1s-.4.2-.7.4-.4.5-.6.6l-.5.8-.5.7a4.1,4.1,0,0,1-.5.9l-.5.9a4.1,4.1,0,0,1-.5.9c-1.7,3.3-3.1,4.9-4.1,4.9s-.9-.4-1.5-1a2.7,2.7,0,0,1-.8-1.5,4.3,4.3,0,0,1,.4-1.4l.5-1.5a2.7,2.7,0,0,0,.3-1.2l.3-1.3c0-.5.1-.8.1-1.1a5.7,5.7,0,0,1,.1-1.2,20.6,20.6,0,0,1,.4-4c.1-.3.3-.4.4-.4a2.8,2.8,0,0,1,2,.9,2.1,2.1,0,0,1,1,1.6,19.7,19.7,0,0,1-.9,4.9,60.9,60.9,0,0,1,3.3-5.2C350.4,269.9,351.3,269.2,352,269.2Z"/><path d="M359.2,272.3c1.4-2.1,2.8-3.1,4.2-3.1a4.9,4.9,0,0,1,3.6,1.5,4.8,4.8,0,0,1,1.4,3.6,9.2,9.2,0,0,1-1,4.2,8.4,8.4,0,0,1-2.8,3.6,5.9,5.9,0,0,1-3.8,1.5,3.5,3.5,0,0,1-2.7-1.4,5.2,5.2,0,0,1-1.1-3.3A11.1,11.1,0,0,1,359.2,272.3Zm4.5,5.7a8.2,8.2,0,0,0,1.1-3.8,4.3,4.3,0,0,0-.5-2.4,6.7,6.7,0,0,0-2.4,2.9,8.6,8.6,0,0,0-1.2,3.9c0,1.1.1,1.8.4,2.1A5.7,5.7,0,0,0,363.7,278Zm1.5-9.5a1.2,1.2,0,0,1-.8-.4,1.7,1.7,0,0,1-.3-1,1.9,1.9,0,0,1,.3-1,5,5,0,0,1,1-1.1,6.5,6.5,0,0,0,1.2-1.1l.8-.6.5-.5.5-.3.7-.3a1.7,1.7,0,0,1,1.3.8,3,3,0,0,1,.5,1.4,2.2,2.2,0,0,1-.1.9l-.4.5-.7.4-1.1.5-1.2.7-.9.5A2.8,2.8,0,0,1,365.2,268.5Z"/><path d="M388.5,269.2c.7,0,1.3.5,1.8,1.4a6,6,0,0,1,.7,2.7,13.7,13.7,0,0,1-.5,3.5,18.8,18.8,0,0,1-1.4,4.6c-.7,1.4-1.4,2.2-2.1,2.2s-1-.4-1-1.3a19.9,19.9,0,0,1,.8-4.1,17.6,17.6,0,0,0,.7-3.7q0-.9-.3-.9c-.4,0-.8.4-1.4,1.3s-1.2,2-1.9,3.4-1.2,2.4-1.4,2.8l-.5.9a3,3,0,0,1-.4.8q-.9,1.5-2.4,0a2.1,2.1,0,0,1-.7-1.4l.5-2.1a21.9,21.9,0,0,0,.4-4.6c0-.7-.1-1.1-.2-1.1s-.5.2-.8.7a17,17,0,0,0-1.4,2.4c-.6,1.2-1.1,2.1-1.6,2.9-1.5,2.6-2.7,4-3.5,4s-.9-.4-1.6-1.1a2.7,2.7,0,0,1-.9-1.5,17.5,17.5,0,0,1,.7-2.7,19.1,19.1,0,0,0,.8-4.4q.2-2.2.3-3.6c.1-.9.3-1.3.7-1.3a2.8,2.8,0,0,1,2,.9,2.1,2.1,0,0,1,1,1.6,24.8,24.8,0,0,1-1.2,5.7,28.3,28.3,0,0,1,3.3-6.3,3.8,3.8,0,0,1,2.7-1.7c.5,0,1.1.4,1.8,1.3a4.5,4.5,0,0,1,1.1,2.5v2a11.9,11.9,0,0,1,2.6-4C386.4,269.8,387.4,269.2,388.5,269.2Z"/><path d="M395.7,269.2a2.2,2.2,0,0,1,1.7,1.1,4.2,4.2,0,0,1,.8,2.2,22.7,22.7,0,0,1-1,3.8c-.6,2.1-1.2,4.2-1.9,6.2a1.3,1.3,0,0,1-1.3,1,1.4,1.4,0,0,1-1.1-.4,1.7,1.7,0,0,1-.5-1.2,37.5,37.5,0,0,1,.7-3.7,46.8,46.8,0,0,0,1.1-5c.3-1.4.5-2.4.7-3S395.4,269.2,395.7,269.2Zm-.4-3.5a2.4,2.4,0,0,1,.6-1.5,1.9,1.9,0,0,1,1.3-.7q.6,0,1.5,1.5a5,5,0,0,1,.9,2.2,1.2,1.2,0,0,1-.5,1,1.8,1.8,0,0,1-.9.4,3.2,3.2,0,0,1-1.9-1.1A2.8,2.8,0,0,1,395.3,265.7Z"/><path d="M399.8,279.2a9.7,9.7,0,0,1,1.2-4.3,12.6,12.6,0,0,1,3.2-4,6.4,6.4,0,0,1,3.9-1.7,2.5,2.5,0,0,1,2,1.3,3.7,3.7,0,0,1,1.1,2.3.7.7,0,0,1-.7.7l-.9-.3a2.7,2.7,0,0,0-1.2-.3,3.3,3.3,0,0,0-1.8,1,16.9,16.9,0,0,0-2,2.5,6.2,6.2,0,0,0-.8,2.3,1.4,1.4,0,0,0,.3,1.1,2.4,2.4,0,0,0,1.5.3,8,8,0,0,0,2.3-.3l1.5-.4a1.6,1.6,0,0,1,.9-.3.7.7,0,0,1,.8.7c0,.8-.8,1.7-2.2,2.5a8.6,8.6,0,0,1-4.3,1.3,5.2,5.2,0,0,1-3.1-1.5C400.4,281,399.8,280.1,399.8,279.2Z"/><path d="M415.4,272.3c1.5-2.1,2.9-3.1,4.3-3.1a4.9,4.9,0,0,1,3.6,1.5,5.2,5.2,0,0,1,1.4,3.6,10.5,10.5,0,0,1-3.8,7.8,6,6,0,0,1-3.9,1.5,3.3,3.3,0,0,1-2.6-1.4,4.7,4.7,0,0,1-1.1-3.3A11.7,11.7,0,0,1,415.4,272.3Zm4.5,5.7a7.3,7.3,0,0,0,1.2-3.8,4.3,4.3,0,0,0-.5-2.4,6.7,6.7,0,0,0-2.4,2.9,8.6,8.6,0,0,0-1.2,3.9,4.5,4.5,0,0,0,.3,2.1A5.3,5.3,0,0,0,419.9,278Z"/><path d="M293.2,311.7a9.7,9.7,0,0,1,1.2-4.3,12.6,12.6,0,0,1,3.2-4,6.1,6.1,0,0,1,3.9-1.7c.7,0,1.3.4,2,1.3a3.7,3.7,0,0,1,1.1,2.3.7.7,0,0,1-.7.7l-.9-.3a2.7,2.7,0,0,0-1.2-.3,3.3,3.3,0,0,0-1.8,1,12.9,12.9,0,0,0-2,2.5,4.8,4.8,0,0,0-.8,2.3,1.4,1.4,0,0,0,.3,1.1,2.4,2.4,0,0,0,1.5.3,8,8,0,0,0,2.3-.3l1.5-.4a1.6,1.6,0,0,1,.9-.3.7.7,0,0,1,.8.7c0,.8-.8,1.7-2.2,2.5a8.9,8.9,0,0,1-4.3,1.3,4.9,4.9,0,0,1-3.1-1.6A4.1,4.1,0,0,1,293.2,311.7Z"/><path d="M318.6,308.2c.4.3.5.5.5.8a9,9,0,0,1-.3,1.5,7.9,7.9,0,0,0-.4,1.7,8.4,8.4,0,0,0-.2,1,1.8,1.8,0,0,0-.1.6,4.3,4.3,0,0,0-.1.5,1.1,1.1,0,0,0-.1.5.6.6,0,0,0-.1.4l-.2.4-.2.2a.6.6,0,0,1-.6.3c-.2,0-.5-.3-.9-.8a5.6,5.6,0,0,1-.9-1.9c-1.7,1.8-3.2,2.7-4.4,2.7a4.2,4.2,0,0,1-2.6-1.4,3.5,3.5,0,0,1-1.3-2.6,9.9,9.9,0,0,1,1.2-3.8,14.9,14.9,0,0,1,3.2-4.5,6,6,0,0,1,4.1-2.1,4.4,4.4,0,0,1,2.7,1.4,3.4,3.4,0,0,1,1.6,2.5A5.4,5.4,0,0,1,318.6,308.2Zm-8.1,4.4a4.9,4.9,0,0,0,3-1.6,6.3,6.3,0,0,0,2.3-3.8c0-.2.2-.3.5-.4s-.3-1.6-.6-1.6a4,4,0,0,0-2.5,1.5,13.4,13.4,0,0,0-2.2,3.1,6,6,0,0,0-.9,2.4.4.4,0,0,0,.1.3Z"/><path d="M322.5,306.4v-3.1c0-1.1.3-1.6.9-1.6a1.5,1.5,0,0,1,1.1.4,2.5,2.5,0,0,1,.9,1.3,8.6,8.6,0,0,1,2-1.3,4.5,4.5,0,0,1,2-.5q2.1,0,2.1.9a1.5,1.5,0,0,1-.2.8l-.3.3-.3.3-.4.3-.9.6a7.4,7.4,0,0,0-2.1,1.8,8.1,8.1,0,0,0-1.4,3.1,44.3,44.3,0,0,1-1.4,4.8c-.5,1-1,1.5-1.6,1.5a1.2,1.2,0,0,1-1.3-.8,3.7,3.7,0,0,1-.5-1.6,6.6,6.6,0,0,1,.6-2.2,19.9,19.9,0,0,0,.7-2.5A9.7,9.7,0,0,0,322.5,306.4Z"/><path d="M342.9,308.2c.4.3.5.5.5.8a9,9,0,0,1-.3,1.5l-.5,1.7c0,.5-.1.8-.1,1a1.8,1.8,0,0,0-.1.6.7.7,0,0,0-.1.5,1.1,1.1,0,0,0-.1.5c-.1.1-.1.3-.2.4s-.1.3-.1.4-.1.2-.2.2a.6.6,0,0,1-.6.3c-.2,0-.5-.3-.9-.8a5.6,5.6,0,0,1-.9-1.9c-1.7,1.8-3.2,2.7-4.4,2.7a4.2,4.2,0,0,1-2.6-1.4,3.6,3.6,0,0,1-1.4-2.6,9.9,9.9,0,0,1,1.2-3.8,17.3,17.3,0,0,1,3.3-4.5,6,6,0,0,1,4.1-2.1,4.4,4.4,0,0,1,2.7,1.4,3.8,3.8,0,0,1,1.6,2.5A5.4,5.4,0,0,1,342.9,308.2Zm-8.1,4.4c.8,0,1.7-.5,3-1.6a6.3,6.3,0,0,0,2.3-3.8c0-.2.2-.3.5-.4s-.3-1.6-.6-1.6a4,4,0,0,0-2.5,1.5,13.4,13.4,0,0,0-2.2,3.1,6,6,0,0,0-.9,2.4.4.4,0,0,0,.1.3Z"/><path d="M345.3,311.7a9.7,9.7,0,0,1,1.2-4.3,12.6,12.6,0,0,1,3.2-4,6.6,6.6,0,0,1,3.9-1.7,2.8,2.8,0,0,1,2.1,1.3,4.2,4.2,0,0,1,1,2.3.6.6,0,0,1-.7.7l-.9-.3a2.7,2.7,0,0,0-1.2-.3,2.8,2.8,0,0,0-1.7,1,10.3,10.3,0,0,0-2.1,2.5,6.2,6.2,0,0,0-.8,2.3,1.4,1.4,0,0,0,.3,1.1c.2.2.7.3,1.6.3a7.8,7.8,0,0,0,2.2-.3l1.5-.4a1.6,1.6,0,0,1,.9-.3.7.7,0,0,1,.8.7c0,.8-.7,1.7-2.2,2.5a8.6,8.6,0,0,1-4.3,1.3,4.9,4.9,0,0,1-3.1-1.6A4.1,4.1,0,0,1,345.3,311.7Z"/><path d="M365.5,307.1c-.3.9-.7,2-1.1,3.4l-.6,2.2h.4a9.1,9.1,0,0,0,2.2-.6,8.9,8.9,0,0,1,2.1-.7c.4,0,.7.3.7,1s-.7,1.4-1.9,2.2a6.9,6.9,0,0,1-3.9,1.4,4,4,0,0,1-2.1-1,2.7,2.7,0,0,1-1.2-2,13.4,13.4,0,0,1,.8-3.5l1.2-3.7-1.7.3c-.4,0-.7-.2-1.2-.8a2.4,2.4,0,0,1-.6-1.4c0-.6,1.5-1.1,4.3-1.5a20.7,20.7,0,0,0,.6-4.5c0-.6.3-.8.8-.8a3.2,3.2,0,0,1,1.9.8,2.6,2.6,0,0,1,1.1,1.8,8.4,8.4,0,0,1-.4,2.3H369q2.1,0,2.1.9c0,.4-.4.8-1.3,1.1a22.1,22.1,0,0,1-3.7.9A18.9,18.9,0,0,1,365.5,307.1Z"/><path d="M382.1,309.4a7.5,7.5,0,0,1-3.8,1l-3.2-.2a4,4,0,0,0-.3,1.5,1.3,1.3,0,0,0,.3,1c.2.3.6.4,1.2.4a17.9,17.9,0,0,0,3.6-.4l1.6-.4c.7,0,1.1.2,1.1.7s-.6,1.4-1.8,2.1a9.2,9.2,0,0,1-4.1,1,4.9,4.9,0,0,1-3.8-1.5,4.7,4.7,0,0,1-1.4-3.5,8.7,8.7,0,0,1,1.2-4.2,10.6,10.6,0,0,1,2.9-3.7,5.6,5.6,0,0,1,3.6-1.5,4.3,4.3,0,0,1,3.2,1.7,5.8,5.8,0,0,1,1.6,3.5C384,307.8,383.3,308.6,382.1,309.4Zm-2-3.7a1.5,1.5,0,0,0-1.1-.6c-.3,0-.7.3-1.3.8a10.5,10.5,0,0,0-1.5,1.9h.7c2.5,0,3.8-.5,3.8-1.3S380.5,306,380.1,305.7Z"/><path d="M386.6,306.4l-.2-3.1c0-1.1.4-1.6,1-1.6a1.7,1.7,0,0,1,1.1.4,2.4,2.4,0,0,1,.8,1.3,9.2,9.2,0,0,1,2.1-1.3,4.2,4.2,0,0,1,2-.5c1.3,0,2,.3,2,.9s0,.6-.2.8-.2.2-.2.3l-.4.3-.3.3-.9.6a7.9,7.9,0,0,0-2.2,1.8,8.1,8.1,0,0,0-1.3,3.1,27.7,27.7,0,0,1-1.5,4.8c-.5,1-1,1.5-1.6,1.5a1.3,1.3,0,0,1-1.3-.8,3.4,3.4,0,0,1-.4-1.6,9.1,9.1,0,0,1,.5-2.2,23,23,0,0,0,.8-2.5A18.1,18.1,0,0,0,386.6,306.4Z"/><path d="M398.3,301.7a2.2,2.2,0,0,1,1.7,1.1,4.2,4.2,0,0,1,.8,2.2,22.7,22.7,0,0,1-1,3.8c-.6,2.1-1.2,4.2-1.9,6.2a1.2,1.2,0,0,1-1.3,1,1.5,1.5,0,0,1-1.1-.4,1.7,1.7,0,0,1-.5-1.2,37.5,37.5,0,0,1,.7-3.7c.5-2,.9-3.6,1.1-5s.5-2.4.7-3S398,301.7,398.3,301.7Zm-.4-3.5a2.4,2.4,0,0,1,.6-1.5,1.9,1.9,0,0,1,1.3-.7q.6,0,1.5,1.5a5.2,5.2,0,0,1,.9,2.1,1.3,1.3,0,0,1-.5,1.1,1.8,1.8,0,0,1-.9.4,3.2,3.2,0,0,1-1.9-1.1A2.8,2.8,0,0,1,397.9,298.2Z"/><path d="M406.5,312.5l6.1-.2a1.7,1.7,0,0,1,1,.3.8.8,0,0,1,.5.8c0,.8-.9,1.5-2.5,2a22.1,22.1,0,0,1-6.2.7,3.5,3.5,0,0,1-2.5-1.2,3.4,3.4,0,0,1-1.2-2c0-.5.5-1.1,1.4-1.9l3.1-2.2,3.1-1.9c1-.6,1.4-1,1.4-1.2s-.5-.3-1.5-.3l-2.4.2-1.5.2c-.4,0-.9-.4-1.4-1a2.5,2.5,0,0,1-.7-1.5c0-.5.4-.9,1.4-1.2a10.1,10.1,0,0,1,3.1-.4,18.1,18.1,0,0,1,3.8.5,2.8,2.8,0,0,1,1.7,1.4,3.6,3.6,0,0,1,.9,1.8,3.9,3.9,0,0,1-1.2,2.5,13.9,13.9,0,0,1-2.7,2.1l-2.6,1.6-1.3.8C406.3,312.5,406.4,312.5,406.5,312.5Z"/><path d="M427.6,308.2c.3.3.5.5.5.8a9,9,0,0,1-.3,1.5,9.6,9.6,0,0,0-.5,1.7,5.6,5.6,0,0,1-.2,1c0,.3,0,.5-.1.6a1.1,1.1,0,0,1-.1.5.7.7,0,0,1-.1.5.6.6,0,0,1-.1.4c0,.2-.1.3-.1.4l-.2.2a.6.6,0,0,1-.6.3c-.2,0-.6-.3-.9-.8a5.6,5.6,0,0,1-.9-1.9c-1.7,1.8-3.2,2.7-4.4,2.7a4,4,0,0,1-2.6-1.4,3.6,3.6,0,0,1-1.4-2.6,9.9,9.9,0,0,1,1.2-3.8,17.3,17.3,0,0,1,3.3-4.5,5.9,5.9,0,0,1,4.1-2.1,4.4,4.4,0,0,1,2.7,1.4,3.6,3.6,0,0,1,1.5,2.5A5.1,5.1,0,0,1,427.6,308.2Zm-8.1,4.4a5.4,5.4,0,0,0,3-1.6,6.3,6.3,0,0,0,2.3-3.8c0-.2.1-.3.4-.4s-.2-1.6-.5-1.6a3.8,3.8,0,0,0-2.5,1.5,11,11,0,0,0-2.2,3.1,6,6,0,0,0-.9,2.4v.3Z"/><path d="M441.9,293.9c.4,0,1,.4,1.7,1.2a3.7,3.7,0,0,1,1.1,2.3,33.1,33.1,0,0,1-1,4.4c-.6,2.6-1,4.1-1.1,4.7q-2.2,9.6-3.3,9.6a2.4,2.4,0,0,1-1.3-.7,1.9,1.9,0,0,1-.7-1.4v-.2c-1.9,1.5-3.2,2.3-4,2.3a3.2,3.2,0,0,1-2.3-1.3,3.9,3.9,0,0,1-1.2-2.4,9.7,9.7,0,0,1,.3-2.3,18,18,0,0,1,.9-2.8c.4-.9.9-1.8,1.4-2.7a10,10,0,0,1,2-2.1,4,4,0,0,1,2.3-.8,3.4,3.4,0,0,1,2.9,1.8,49.9,49.9,0,0,0,1.5-8.8C441.1,294.2,441.3,293.9,441.9,293.9Zm-8.3,18.6a5.1,5.1,0,0,0,2.4-1.2,8.1,8.1,0,0,0,2.5-3,2.5,2.5,0,0,1-.1-1,1.9,1.9,0,0,0-.5-1.4c-.3-.4-.6-.7-.9-.7a2.2,2.2,0,0,0-1.6.9,7.2,7.2,0,0,0-1.2,2.1,14,14,0,0,0-.9,4v.3Z"/><path d="M456.8,308.2c.4.3.5.5.5.8a9,9,0,0,1-.3,1.5l-.5,1.7c0,.5-.1.8-.1,1a1.8,1.8,0,0,0-.1.6.7.7,0,0,0-.1.5,1.1,1.1,0,0,0-.1.5c-.1.1-.1.3-.2.4s-.1.3-.1.4l-.2.2a.6.6,0,0,1-.6.3c-.2,0-.5-.3-.9-.8a5.6,5.6,0,0,1-.9-1.9c-1.7,1.8-3.2,2.7-4.4,2.7a4.2,4.2,0,0,1-2.6-1.4,3.6,3.6,0,0,1-1.4-2.6,9.9,9.9,0,0,1,1.2-3.8,17.3,17.3,0,0,1,3.3-4.5,6,6,0,0,1,4.1-2.1,4.4,4.4,0,0,1,2.7,1.4,3.8,3.8,0,0,1,1.6,2.5A5.4,5.4,0,0,1,456.8,308.2Zm-8.1,4.4c.8,0,1.7-.5,3-1.6a6.3,6.3,0,0,0,2.3-3.8c0-.2.2-.3.5-.4s-.3-1.6-.6-1.6a3.8,3.8,0,0,0-2.5,1.5,13.4,13.4,0,0,0-2.2,3.1,6,6,0,0,0-.9,2.4.4.4,0,0,0,.1.3Z"/><path d="M363.2,334.2c.7,0,1.4.6,2.2,1.9a6.5,6.5,0,0,1,1.2,3.6,5.4,5.4,0,0,1-.9,2.7,21.7,21.7,0,0,1-2.4,2.9,19.4,19.4,0,0,1-3.3,2.3,8.7,8.7,0,0,1-3.6.9h-.3c-1.2,4.9-2,7.3-2.5,7.3s-.8-.3-1.3-1a3.2,3.2,0,0,1-.6-1.6,36.2,36.2,0,0,1,.8-3.9q2.4-9.7,2.4-14.7c0-.6.3-.9.8-.9a3.6,3.6,0,0,1,1.7.8,3.5,3.5,0,0,1,1.3,1.9C360.3,335,361.8,334.2,363.2,334.2Zm-2.2,8.6c1.3-1.3,2-2.5,2-3.4s-.3-1.5-.8-1.5a3.6,3.6,0,0,0-2.5,1.4,5.5,5.5,0,0,0-1.2,1.6,14.5,14.5,0,0,0-1.1,2.5l-.5,1.8A8,8,0,0,0,361,342.8Z"/><path d="M370.1,337.3c1.4-2.1,2.9-3.1,4.3-3.1a5.1,5.1,0,0,1,5,5,9.4,9.4,0,0,1-1,4.3,9.2,9.2,0,0,1-2.8,3.6,6,6,0,0,1-3.9,1.5,3.3,3.3,0,0,1-2.6-1.4,4.8,4.8,0,0,1-1.2-3.3A11.8,11.8,0,0,1,370.1,337.3Zm4.5,5.7a7.2,7.2,0,0,0,1.1-3.8c0-1.2-.1-2-.5-2.4a6.6,6.6,0,0,0-2.3,2.9,8.6,8.6,0,0,0-1.2,3.9,4.5,4.5,0,0,0,.3,2.1A5.3,5.3,0,0,0,374.6,343Z"/><path d="M382.3,338.9v-3.1c0-1.1.3-1.6.9-1.6a1.5,1.5,0,0,1,1.1.4,2,2,0,0,1,.8,1.3,12,12,0,0,1,2.1-1.3,4.2,4.2,0,0,1,2-.5q2.1,0,2.1.9a1.5,1.5,0,0,1-.2.8c-.2.1-.2.2-.3.3l-.3.3-.4.3-.9.6a9.6,9.6,0,0,0-2.2,1.8,8.1,8.1,0,0,0-1.3,3.1,27.7,27.7,0,0,1-1.5,4.8c-.4,1-1,1.5-1.5,1.5a1.4,1.4,0,0,1-1.4-.8,5.3,5.3,0,0,1-.4-1.6,6.6,6.6,0,0,1,.6-2.2,19.9,19.9,0,0,0,.7-2.5A9.7,9.7,0,0,0,382.3,338.9Z"/><path d="M394.2,349a2.9,2.9,0,0,1-2-1,3.5,3.5,0,0,1-1.1-1.9,2.1,2.1,0,0,1,.7-1.6,2.1,2.1,0,0,1,1.4-.8c.5,0,1,.5,1.6,1.6a5.2,5.2,0,0,1,.9,2.3,1.4,1.4,0,0,1-.5.9A1.4,1.4,0,0,1,394.2,349Zm8.3,0a2.9,2.9,0,0,1-2-1,3.5,3.5,0,0,1-1.1-1.9,2.1,2.1,0,0,1,.7-1.6,1.9,1.9,0,0,1,1.4-.8c.4,0,1,.5,1.6,1.6a5.2,5.2,0,0,1,.9,2.3,1.4,1.4,0,0,1-.5.9A1.4,1.4,0,0,1,402.5,349Zm8.3,0a2.7,2.7,0,0,1-1.9-1,2.9,2.9,0,0,1-1.1-1.9,2.5,2.5,0,0,1,.6-1.6,2.2,2.2,0,0,1,1.5-.8c.4,0,1,.5,1.6,1.6a6.2,6.2,0,0,1,.8,2.3,1.1,1.1,0,0,1-.5.9A1.1,1.1,0,0,1,410.8,349Z"/><g class="cls-20"><path d="M207.5,297.5a41,41,0,0,0,13.9-6.8,29,29,0,0,0,5.3-5.2,13.4,13.4,0,0,0,1.1-1.4l1-1.5c.5-1.1,1.1-2.1,1.5-3.2a17.3,17.3,0,0,0,1.1-3.2l.3-1.6a9.7,9.7,0,0,0,.1-1.7,21.1,21.1,0,0,0-.5-6.6c-.9-4.5-2.8-9-4.9-13.8-8.6-19.4-16.9-39.6-21.8-61.4s-5.8-45.6,1-68.5a91.8,91.8,0,0,1,17-32.4,76,76,0,0,1,13.7-12.9,96.9,96.9,0,0,1,15.5-9.6c10.7-5.2,21.7-8.6,32.2-11.5l7.9-2,7.8-2a142.4,142.4,0,0,1,17-3.2,73.6,73.6,0,0,1,36.5,3.8c5.5,1.8,10.6,3.9,15.5,5.9l14.8,6.4,14.6,6.7c4.9,2.3,9.7,4.6,14.6,7.1a144.1,144.1,0,0,1,14.6,8.4,92.6,92.6,0,0,1,13.4,10.9c8.1,8.2,14.1,17.7,18.9,27.5a225.5,225.5,0,0,1,11.9,30c-6-8.9-11.7-17.9-18.1-26.2s-13.2-15.9-21.1-21.6a69.8,69.8,0,0,0-12.6-7.5,123,123,0,0,0-13.9-5.8L391,89.3l-14.9-5.1-15-5c-5-1.6-9.9-3.3-14.5-4.5a67,67,0,0,0-13.3-2.2,59,59,0,0,0-13.1.9A137.2,137.2,0,0,0,306,76.7l-7.6,2.1L291,80.9c-9.9,2.9-19.3,6-27.6,10.2a60.6,60.6,0,0,0-28.8,26.5,83,83,0,0,0-5.5,12.5c-.8,2.2-1.4,4.4-2.1,6.7s-1.1,4.6-1.5,6.9a114.2,114.2,0,0,0-1.9,14.3,141.8,141.8,0,0,0-.2,14.6c.2,5,.7,9.9,1.3,14.9,2.5,20.1,8.2,40.2,13.7,60.8,1.4,5.2,2.9,10.9,3,17a32.5,32.5,0,0,1-1,9.2,18.7,18.7,0,0,1-.7,2.2l-.8,2.2a26,26,0,0,1-2.3,4,26.6,26.6,0,0,1-5.9,6.6,32.7,32.7,0,0,1-7.3,4.5,38,38,0,0,1-7.8,2.7A44.5,44.5,0,0,1,207.5,297.5Z"/></g><path class="Graphic-Style-2" d="M-121,297.6c3.3-4,4.6-8.9,6-13.8.6,3.6,4.6,5.9,8.2,5.2a11.7,11.7,0,0,0,8.2-6.5A29.5,29.5,0,0,0-96,271.9c1.3,3.3,5.9,4,8.9,2s4.6-4.9,5.9-8.2,2.6-6.6,5.3-8.9c2.3,4.6,1.3,10.5,4.2,14.8a9.6,9.6,0,0,0,9.9,3.3,9.2,9.2,0,0,0,5.9-8.5c-.6,4.2,2,8.8,5.9,10.8s9.2.3,11.9-3.3c1,12.2,1.9,24.3,2.9,36.5a85,85,0,0,1,9.9-1.6c0-4.6-.3-9.3-.3-13.9-.4,6.3-.4,12.5,1.6,18.5s6.9,11.1,13.2,11.8a7.4,7.4,0,0,0,4.6-1c2.9-2,2.9-6.2,2.3-9.5a30.5,30.5,0,0,0-9.6-15.5c5,0,10.5,2,14.8-.6s4.3-6.6,3-10.6A18.8,18.8,0,0,0-3,279.2a32.8,32.8,0,0,0-13.4-5.9c4.9.3,9.8-2.7,11.1-7.3,2-6.5-4.2-13.5-11.1-15.1s-14.2-.7-21.1-1.6a19.9,19.9,0,0,0,7.6-10.9c.6-2.9.6-6.6-1-9.2a16.2,16.2,0,0,0-5.3-3.9c-11.1-5-25.9,0-31.8,10.5.9-5.9-2-12.2-7.3-14.8s-12.1-2-16.4,2.3c-2,1.6-3.3,3.9-4.6,6.2a109,109,0,0,0-7.9,20.1,26.1,26.1,0,0,0-20.4-13.5,5.2,5.2,0,0,0-3.3.7,10.5,10.5,0,0,0-1.3,2.3,23.1,23.1,0,0,0-1.3,9.5c-2.3-3.3-6.9-3.9-11.2-4.3s-8.8.4-10.8,4,.3,7.9,3.3,10.2,6.6,3.9,9.8,6.2c-2.9.3-6.2.3-8.8,1.7-6.3,2.6-6.6,9.2-2,13.4s5.6,4.3,6.6,9.9C-141,300.9-130.2,309.4-121,297.6Z"/><path d="M-121,297.6c3.3-4,4.6-8.9,6-13.8h0c.3,2.6,2.9,4.6,5.5,5.2s5.6-.6,7.6-2.3,3.3-4.2,4.3-6.9a30.8,30.8,0,0,0,1.6-7.9v-.6l.4.6c.9,2.3,3.9,3.3,6.2,2.7a8.5,8.5,0,0,0,5.9-4.6,72.1,72.1,0,0,0,3.3-6.9c1-2.3,2.3-5,4.3-6.6l.3-.3.3.3c1.3,3,1.7,6.2,2.3,9.2s2,5.9,4.6,7.6a8.3,8.3,0,0,0,8.6,0c2.6-1.7,4.3-4.3,3.9-7.3h1.3c-.6,4,2,8.6,5.6,9.9a9.4,9.4,0,0,0,10.9-3l1.3-1.9.3,2.6,3.6,36.5-1.6-1.3,9.8-2-1.3,1.3-.3-13.8H-23c0,5.9-.3,11.8,1.6,17.1s5.6,9.8,10.6,10.8a5.5,5.5,0,0,0,3.6,0,3.6,3.6,0,0,0,2.3-1.6c1-1.7,1-4.6,0-6.9a28.2,28.2,0,0,0-8.6-13.8l-4.6-4h5.9c5,0,9.2,1.3,12.5.4s4.3-5.3,3-8.6-4.3-6.2-7.6-8.5a28.2,28.2,0,0,0-11.5-4.6l.7-5c3.6.4,7.5-1.9,8.5-5.2s-.6-7.3-3.9-9.6a13.1,13.1,0,0,0-5.3-2.6,23.4,23.4,0,0,0-6.6-1c-4.6-.3-9.2,0-14.1-.6l-5.9-1,4.9-3.3a17.1,17.1,0,0,0,7.3-12.2,6.5,6.5,0,0,0-2-5.9,15.9,15.9,0,0,0-6.3-3.3c-9.5-2.6-21.3,1.7-26.3,10.6l-3.2-1.4c.9-4.6-1.4-9.5-5.3-12.4a12.5,12.5,0,0,0-13.5-.4c-4.2,2.3-6.2,7.6-8.8,12.2a84.6,84.6,0,0,0-5.3,14.8l-.7,2.9-1.3-2.6A23.5,23.5,0,0,0-118,236.4l-4.9-.9c-1.7,0-2.7.3-3.3,1.9a25.5,25.5,0,0,0-1.7,9.9v2.6l-1.3-2c-1.9-2.9-6.2-3.9-10.2-3.9a39.5,39.5,0,0,0-5.9.3,7.2,7.2,0,0,0-4.6,2.7,5.7,5.7,0,0,0-.6,5.2,8.8,8.8,0,0,0,3.2,4.6c3,2.7,7,4,9.9,6.6l.7.3h-.7a26.5,26.5,0,0,0-8.5,1.3c-2.7,1-5,3.3-5.3,6s1.3,5.5,3.3,7.5,4.6,3.6,5.6,6.6c.6,1.3.6,2.9,1,4.3a14.9,14.9,0,0,0,1.3,3.9,17.8,17.8,0,0,0,5.2,6.6,9.3,9.3,0,0,0,8.3,1.3C-124.9,301.9-122.9,299.9-121,297.6Zm0,0a13.1,13.1,0,0,1-6.9,5.2,9,9,0,0,1-8.2-1.3,15.5,15.5,0,0,1-5.2-6.9,13.6,13.6,0,0,1-1.3-4.3c-.4-1.3-.7-2.9-1-4.2-1-3-3.3-4.6-5.6-6.3s-4-4.6-3.6-7.9,2.9-5.2,5.5-6.5a39.7,39.7,0,0,1,8.6-1.7l-.3.7c-3-2.6-6.9-4-9.9-6.6a14.8,14.8,0,0,1-3.6-4.9,6.2,6.2,0,0,1,.6-5.9,7.7,7.7,0,0,1,5.3-3.3,17,17,0,0,1,5.9-.4,19.7,19.7,0,0,1,5.9,1,10.1,10.1,0,0,1,5.3,3.6l-1.3.4a23.2,23.2,0,0,1,1.6-10.5,3.6,3.6,0,0,1,2-2.3,4.8,4.8,0,0,1,3-.7,21.1,21.1,0,0,1,5.2.7,28.1,28.1,0,0,1,16.8,12.8l-2,.3a82.4,82.4,0,0,1,5.3-15.4,49.6,49.6,0,0,1,3.6-7.3,15.3,15.3,0,0,1,5.9-6.2,16,16,0,0,1,17.1.3,16.2,16.2,0,0,1,6.9,15.8l-3.3-1.3c5.9-10.5,19.1-16.1,30.6-12.8a20.7,20.7,0,0,1,8.2,4.2,11.4,11.4,0,0,1,3.3,9.2,21.6,21.6,0,0,1-9.2,15.5l-1-4.3c4.3.7,8.9.3,13.8.7a34,34,0,0,1,7.5.9,17.5,17.5,0,0,1,7,3.7,20,20,0,0,1,5.2,6.2,11.2,11.2,0,0,1,.7,8.6,11.3,11.3,0,0,1-5.6,6.5,14.3,14.3,0,0,1-8.2,2l.6-4.9a41,41,0,0,1,13.2,5.6c3.9,2.6,7.9,5.9,9.5,11.1a15.1,15.1,0,0,1,0,7.9,10.2,10.2,0,0,1-5.6,5.9,15.1,15.1,0,0,1-7.5.7,50.5,50.5,0,0,0-6.3-.7l1.3-3.9a35.7,35.7,0,0,1,9.9,15.8c.6,2.9,1.3,6.5-.7,10.2a7.3,7.3,0,0,1-4.9,3.2,8.6,8.6,0,0,1-5.3-.3c-6.9-1.6-11.1-7.5-13.1-13.5s-1.7-12.1-1.3-18h3.3l.3,13.8v1.3l-1.3.3-9.9,1.7-1.6.3v-1.3l-2.7-36.8,1.7.6a10.7,10.7,0,0,1-12.8,3.3c-4.3-2-7.3-6.9-6.3-11.5h1.3a9.5,9.5,0,0,1-4.9,8.2,9.7,9.7,0,0,1-9.5-.3c-3-1.7-4.3-4.9-5-8.2s-.6-6.3-1.9-8.9h.6c-1.9,1.6-2.9,3.9-3.9,6.2a44.1,44.1,0,0,1-3.3,6.9,8.8,8.8,0,0,1-6.2,4.6c-2.7.4-5.6-.3-6.9-2.9h.3a32.9,32.9,0,0,1-1.7,7.9,18.9,18.9,0,0,1-4.2,6.9c-2,1.6-5,2.9-7.6,2.3s-5.3-2.7-5.6-5.3h0C-116.4,288.7-117.7,293.6-121,297.6Z"/><path class="cls-21" d="M229.1,354.7c.2-4.2,5.2-4,7.7-4.9l4.2-7,3.4,2.1a25.3,25.3,0,0,1-.7,9.1c-1,4.1-6.7,7.3-9.7,8.3s-.9-.1,0,0C238.5,362.7,228.9,359.7,229.1,354.7Z"/><path class="cls-22" d="M229.1,354.7c.1-1,.2-1.9.9-2.3a5.6,5.6,0,0,1,2-1.7c1.3-.6,3.3-.8,4.6-1.5l-.2.4c1.1-2.7,2.4-4.7,3.5-7.4l.6-1,1.4.8,3.5,2.1.7.4v.9a27.7,27.7,0,0,1-.7,10c-1.4,3.9-4.5,5.8-7.1,7a13.6,13.6,0,0,1-4.7,1.5h-.6s-.2.4-.7-.4,0-1.4-.2-1.1l.2-.3.5-.2c.6-.1.8-.5,1.1-.3h.6a.5.5,0,0,0,.6-.1l.5-.2h0s-.3-.2-.4.7h0C232.3,360.4,229,357.9,229.1,354.7Zm0,0a7.6,7.6,0,0,0,2.2,4.1c1.2,1.2,2.5,1.5,4.2,2.5s.6-.1.8,1-.6,1-.6,1l-.5.2h-.6l-1.1.3h0l.2-.3s.6-.2-.3-1.2-.9,0-.7-.4h.6c1.7-.4,2.6-1.3,4-1.9s5-3.6,5.5-6.1a23.1,23.1,0,0,0,.9-8.5l.8,1-3.5-2.1,1.7-.4a61.4,61.4,0,0,1-4.9,6.5l-.2.4h0c-1.7.4-3.5.2-4.8.9a3.3,3.3,0,0,0-2.1,1.1A1.9,1.9,0,0,0,229.1,354.7Z"/><path class="cls-23" d="M119.6,422c2.2,1.3,5.1,4.1,6.6,11.4l8.1-11.4a137.6,137.6,0,0,0,21.2-6.5c37.9-14.9,61.2-42.5,73.5-60.4l4.9,6.5a127.3,127.3,0,0,1-19.6,35.9c-23.7,30.4-54.9,41.7-68.6,45.7-.1,8.9-1.6,19.6-3.2,29.4-4.3,25.9,1.6,32.6,3.2,65.3-5,5.1,6.5,10.2-4.9,14.7-28.3,11.1-54.5-.5-60.3-3.3a247.3,247.3,0,0,1,8.1-57.1,190.1,190.1,0,0,1,13.1-35.9C87,477.5,88.1,466.6,80.5,474.2l14.6,29.4c-.1,18.7-3.4,20.9-4.9,21.2s-5.5-4.9-16.3-19.6c-12.2-16.5-15.3-18.1-16.3-24.5-1.5-9.6,4-17.8,9.8-26.1C81.1,435,107.2,414.6,119.6,422Z"/><path class="cls-24" d="M146,557.1a94.4,94.4,0,0,1-1.3,15.8c-.8,5.2-2,10.1-2.8,15.4-1.2,9.7-.4,19.8.8,30,.8,7.3,1.6,14.6,2.5,21.5,1.2,9.7,2,19.4,5.2,28.7a13.7,13.7,0,0,1-6.9,2.9,74.6,74.6,0,0,1-23.1-.4c-3.2-7.3,0-15.4,1.2-23.5.8-6.1.4-12.2.8-18.3,1.7-17,10.2-32.4,14.6-49a83.1,83.1,0,0,0,0-42.6,74.5,74.5,0,0,0,9.4.8c1.6,0,0,8.1,0,9.7A70.8,70.8,0,0,0,146,557.1Z"/><path class="cls-24" d="M144.7,550.2c0-2.1.9-4.5.9-6.9v-3.7c0-.4,0-.8-.9-.8h-1.6a47.2,47.2,0,0,1-6.9-.8l.4-.4a104.7,104.7,0,0,1,2.1,34c-1.3,11.4-5.3,22.3-9,32.9s-6.4,21.5-6,32.8a59.8,59.8,0,0,1-.4,8.5c-.4,2.9-1.3,5.7-1.7,8.6-1.2,5.2-2,10.9,0,15.4l-1.6-1.3a85.3,85.3,0,0,0,15,1.3,44.7,44.7,0,0,0,7.3-.4,10.2,10.2,0,0,0,6.1-2.1L148,669c-2.8-9.4-3.7-18.7-4.5-28l-2.4-28c-.4-9.3-.8-18.6.8-28a82.4,82.4,0,0,0,2.8-13.8,74.7,74.7,0,0,0,1.3-14.1Zm.9,21c-.4,4.5-1.7,9.4-2.5,13.8-2,9.4-1.2,18.7,0,28l3.7,28c1.2,9.3,2.8,18.6,5.6,27.1l.5,1.3-.9.8c-2.4,2.4-5.6,2.8-8.1,3.2a49,49,0,0,1-7.7.8,70.1,70.1,0,0,1-15.8-.8h-.8l-.4-.8a24,24,0,0,1-1.6-9.3,31.4,31.4,0,0,1,1.2-8.9,57.9,57.9,0,0,0,2-16.7,80.3,80.3,0,0,1,2.1-17.4,126.8,126.8,0,0,1,5.2-16.2c4.1-11,8.5-21.1,10.2-32.5s1.6-22.7-1.3-33.6v-.4h.4a37.3,37.3,0,0,0,6.9.8H146c0,.4.4,0,.8.4s.4.4.4.8,0,2.4,0,3.7a35.4,35.4,0,0,0-.8,6.9l-.4,6.9C146,561.9,145.6,566.4,145.6,571.2Z"/><path class="cls-24" d="M86,536c-4.9,10.9-9.4,23.1-4.9,34.4,2.8,7.3,8.9,13,12.2,20.3,2.4,5.7,2.4,11.8,2.4,17.8.8,23.6,1.2,47.5-5.3,70.6,8.9,5.7,21.1,4.4,31.2.8-2-2.4-2-5.7-2-8.5.4-20.7.8-41.4,7.3-61.2,5.3-16.3,15-32.1,15-49.1a43.4,43.4,0,0,0-4.9-20.3.9.9,0,0,0-.8-.8,2.4,2.4,0,0,0-1.6-.4,115.7,115.7,0,0,1-45-10.5,61.9,61.9,0,0,0-6.1,20.7"/><path class="cls-24" d="M86,536c-2.5,5.6-4.9,11.3-6.1,17.4s-1.2,12.6,1.2,18.2,6.9,10.6,9.7,15.9,3.7,11.3,4.1,17.8c.4,12.2.8,24.7,0,36.9a160.8,160.8,0,0,1-5.3,36.5v.4l.4.4a24.9,24.9,0,0,0,15.8,4,44.5,44.5,0,0,0,16.2-3.2l1.3-.4-.9-1.2c-2-2.9-1.6-7.3-1.6-11l.4-12.1a214.2,214.2,0,0,1,2.1-23.9,138,138,0,0,1,5.2-23.2c2.5-7.7,5.7-15,8.5-22.3s5.3-15.4,5.3-23.5a62.1,62.1,0,0,0-1.2-12.1c-.4-2.1-1.2-4.1-1.6-5.7s-.8-2-1.2-2.9-.4-2-1.7-2.8-2.4-.4-3.2-.4h-2.8c-2.1,0-4.1-.4-6.1-.4a103.6,103.6,0,0,1-11.8-2A116.8,116.8,0,0,1,90,528.7h0a61.3,61.3,0,0,0-6.1,20.6A61.3,61.3,0,0,1,90,528.7h-.4a96.3,96.3,0,0,0,22.7,8.1c4.1.8,8.1,1.6,11.8,2a30.8,30.8,0,0,0,6.1.4H133c.8,0,2,0,2.4.4a13.3,13.3,0,0,1,1.2,2.4,25.5,25.5,0,0,0,1.3,2.9,28.4,28.4,0,0,1,1.6,5.7,58.1,58.1,0,0,1,1.2,11.7c-.4,8.1-2.8,15.8-5.7,23.1s-6.1,14.6-8.9,22.3a118.5,118.5,0,0,0-5.7,23.5c-1.2,8.2-1.6,16.3-2,24,0,4-.4,8.1-.4,12.1v6.1c0,2,.4,4.5,2,6.1l.4-1.6a40.4,40.4,0,0,1-15.4,3.2c-5.3,0-10.5-.8-15-3.6l.4.8a159.6,159.6,0,0,0,5.3-36.9c.4-12.6,0-24.8-.4-37.3-.4-6.1-1.2-12.6-4.5-18.3s-7.3-10.1-10.1-15.4a29.5,29.5,0,0,1-1.6-17.8C81.1,547.7,83.5,541.6,86,536Z"/><path class="cls-25" d="M91.6,566.8a39.4,39.4,0,0,1-2,6.1c-.4.8-.8,2-1.2,2.8a2.1,2.1,0,0,1-.8,1.6,3.4,3.4,0,0,1-2,1.2c-2.1,0-2.5-1.6-3.3-2.4a10,10,0,0,1-1.6-2.8l-1.6-2.9c-.4-1.2-.8-2-1.3-3.2-1.2-4.5,0-8.9.9-13v-.8h.8a59.4,59.4,0,0,0,14.6.4A28.7,28.7,0,0,1,91.6,566.8ZM79.5,554.2l.8-.4c-.8,4.5-1.6,8.5-.4,12.6.4,2,2,3.6,2.8,5.7a22.9,22.9,0,0,1,1.6,2.8,2.1,2.1,0,0,0,1.7,1.6c.4,0,1.2-.8,1.6-1.6s.8-2,1.2-2.8,1.6-3.7,2.4-5.7c1.2-4.1,2.5-8.1,2.9-12.6A30.1,30.1,0,0,1,79.5,554.2Z"/><path class="cls-25" d="M142.3,561.9a18.8,18.8,0,0,0-6.9-1.2l.8.8a104.7,104.7,0,0,0,1.7-10.5c0-1.7.4-3.7,0-5.3a12.9,12.9,0,0,0-1.3-5.3l-.4-.8v.8c0,.4.4.8.8,1.2a1.2,1.2,0,0,1-.4-.8h-.4a22.4,22.4,0,0,1,.4,5.3,29.7,29.7,0,0,1-.8,5.3c-.4,3.2-.8,6.9-1.2,10.1v.8h.8A42.9,42.9,0,0,1,142.3,561.9Z"/><path class="cls-25" d="M114.3,542.9a43.2,43.2,0,0,1-6,11.3c-2.5,3.7-5.7,6.5-8.2,10.6,4.1-2.1,8.2-4.9,11-9S115.6,547.7,114.3,542.9Z"/><path class="cls-21" d="M95.3,546.9c-2,3.7,2.4,6.1,4,8.1v8.1h4.1a25.6,25.6,0,0,0,4-8.1c1.3-4-2-9.7-4-12.1s-.8-.4,0,0C107.4,544.9,97.7,542.5,95.3,546.9Z"/><path class="cls-22" d="M104.2,543.7h0c-.4.8,0,.8,0,.8h0l-.4-.4a.4.4,0,0,0-.4-.4l-.4-.4c-.4,0-.4-.4-.8-.8l-.4-.5v-.4c0,.4,0-.4.8-.8s.8,0,.8,0h0l.4.4a14.2,14.2,0,0,1,3.2,3.7,12.3,12.3,0,0,1,2.5,9.7,25.8,25.8,0,0,1-4.5,8.9l-.4.8H98.1v-1.2c.4-2.8.4-5.2.8-8.1v.4c-.8-1.2-2.4-2.4-3.2-3.6a5.7,5.7,0,0,1-.8-2.5,2.6,2.6,0,0,1,.4-2.4C96.9,544.1,101,543.7,104.2,543.7Zm-8.5,5.6a3.4,3.4,0,0,0,1.2,2.1c.8,1.2,2.4,2,3.7,3.2h0v.4a56.9,56.9,0,0,1,.8,8.1l-1.3-1.2h4.1l-1.2.4a21.9,21.9,0,0,0,3.6-7.7c.8-2.4-.4-5.7-1.6-8.1a18.8,18.8,0,0,0-2.4-3.6l-.4-.4h0c0-.5,0,0,.8,0s.8-.9.8-.9v-.4h0l.8.8h0l.4.5.4.4s.4.4,0,1.2-.8.4-1.2.4c-2,0-3.2-.4-4.9,0a6.8,6.8,0,0,0-4,2.4A1.9,1.9,0,0,0,95.7,549.3Z"/><path class="cls-26" d="M98.5,546.5c0-.4,0-.4-.4-.8a52.1,52.1,0,0,1-32-6.5,209.2,209.2,0,0,0,3.2-69.7"/><rect class="cls-27" x="81.9" y="487.7" width="29.2" height="10.54" transform="translate(-100 30.7) rotate(-12)"/><g class="cls-28"><rect class="cls-12" x="52.2" y="491.8" width="68.9" height="46.22" transform="translate(-104.8 29.1) rotate(-12)"/></g><rect class="cls-29" x="52.5" y="493.6" width="68.9" height="46.22" transform="translate(-105.1 29.2) rotate(-12)"/><rect class="cls-30" x="50.7" y="496.6" width="73" height="46.22" transform="translate(-105.7 29.3) rotate(-12)"/><path class="cls-23" d="M92.8,520.6c1.3,4,3.3,3.6,4.5,8.1s6.5,10.1,8.5,14.6a4.3,4.3,0,0,1,.4,2c0,.8-.4,1.2-1.2,1.6-2.4,1.6-8.5,6.9-11.3,7.3-5.7-11.7-9.8-25.5-15.9-36.9C73,508,66.1,501.5,60.8,493c-1.2-1.6-3.6-13.5-3.2-15.5s3.2,7,3.6,5.8c-.3-18.9,18.5-32.3,22.5-22.1.7,1.8-.2,6.1,0,8.1,1.4,10.9,2.4,24.8,5.5,34.6C90.8,510.4,90.8,514.5,92.8,520.6Z"/><path class="Graphic-Style-2" d="M110.7,447.2a33.8,33.8,0,0,0-7.3,6.1,87.2,87.2,0,0,0-6.5,7.3,52.3,52.3,0,0,1-6.5,6.8c-2.4,2.1-4.8,4.1-7.3,4.9l-1.2.4v1.2a43.9,43.9,0,0,0,.8,10.2,75.4,75.4,0,0,1,1.6,9.3A103.4,103.4,0,0,0,90,512.5a149.7,149.7,0,0,0,8.1,17.8,143.9,143.9,0,0,0,9.8,17l.4-.4c-3.3-5.7-5.7-11.7-8.2-17.4s-4.8-12.2-6.8-18.3-4.1-12.1-4.9-18.2c-.2-1.3-.3-2.7-.5-4.1s-.7-4-1.1-5.6-.8-6.1-1.2-9.4l-1.3,1.7c3.7-1.3,6.1-3.7,8.6-6.1a39.1,39.1,0,0,0,6-7.7C102.2,456.9,105.4,451.2,110.7,447.2Z"/><path d="M145.5,538.2c-1.6-6.5-1.2-13.4-.8-19.9l.4-20.3c.4-13.3.9-26.7,1.7-40.1h-2.5a17.7,17.7,0,0,1,0,6.5l1.2-.4a26.8,26.8,0,0,1-4.8-6.9,20.3,20.3,0,0,0,4,7.7l.8,1.2.5-1.2a15.3,15.3,0,0,0,.8-7.3l-1.3-7.3-1.2,7.3a231.1,231.1,0,0,0-3.2,40.5c0,6.9.4,13.4.8,20.3S142.3,532.1,145.5,538.2Z"/><path class="cls-21" d="M63.7,312.2c.8-.4,1.6,0,2.4,0a103.4,103.4,0,0,1,.8-33.3c10.9-4.8,42.6-17.4,81.1-8.1a124.6,124.6,0,0,1,48.6,24.3c.4,3.3.4,10.6-.4,19.5,2.5-2,4.9-2.8,6.9-2,3.7,1.6,4.5,8.9,1.2,16.2s-8.9,12.2-12.5,10.5a.4.4,0,0,1-.4-.4,100.2,100.2,0,0,1-18.7,33.3,98.6,98.6,0,0,1-32.4,24.3c-.8.8-8.1,6.5-8.1,16.2a21,21,0,0,0,4,12.2c-2.8,4-5.2,8.1-8.1,12.1L116,424.9a19.4,19.4,0,0,0,4-4.1c6.9-9.3,4.9-21.1,4.1-24.3a109.2,109.2,0,0,1-44.6-44.6,84.5,84.5,0,0,1-6.1-13,3,3,0,0,1-1.6.8c-4.1,1.3-9-4.4-11-12.1S60,313.4,63.7,312.2Z"/><path class="cls-22" d="M60,315a8.2,8.2,0,0,0-1.2,4.5,34.8,34.8,0,0,0,1.2,9.3,29.4,29.4,0,0,0,4.5,8.1,6.4,6.4,0,0,0,3.6,2.8,4,4,0,0,0,4.1-.8h0l4,8.9c.8,1.7,1.2,2.9,2.1,4.5l2.4,4.1a152.5,152.5,0,0,0,11.7,15.4,110.6,110.6,0,0,0,30.5,23.9h.4v.4a35.2,35.2,0,0,1,.4,15.8,23.1,23.1,0,0,1-8.6,13.4v-1.2l12.2,12.1h-1.6l8.1-12.1v1.2a22.2,22.2,0,0,1-4.1-15.8,24.7,24.7,0,0,1,8.6-14.2h0c11.7-5.7,22.7-13.4,31.2-23.1a93.6,93.6,0,0,0,19.4-33.7l.8-2,1.7,1.2a3,3,0,0,0,3.6,0,26.4,26.4,0,0,0,3.7-3.2,19.7,19.7,0,0,0,4.8-9c.8-3.2,1.3-6.8,0-9.7a3,3,0,0,0-2.8-2,6.8,6.8,0,0,0-4.1,2l-2.4,2,.4-3.2a158.7,158.7,0,0,0,.4-19.5l.4.8a113,113,0,0,0-28.8-17.8,113.9,113.9,0,0,0-32.8-9.3,121.8,121.8,0,0,0-34.1.4,119,119,0,0,0-32.8,9.7h0a116.2,116.2,0,0,0-.8,33.3h0c-.8,0-1.6-.4-2.4,0S61.2,314.2,60,315Zm6.1-3.2h0a116.1,116.1,0,0,1,.4-33.3h0a135.4,135.4,0,0,1,32.8-10.1,121.1,121.1,0,0,1,34.5-1.2,130.4,130.4,0,0,1,33.2,8.9,118.9,118.9,0,0,1,29.6,17.8l.4.4v.4c.9,6.9.5,13.4,0,19.9l-2-1.2a14,14,0,0,1,5.7-2.9c.8,0,2.4,0,3.2.9a5.4,5.4,0,0,1,2.1,2.4c1.6,4,.8,8.1,0,11.7a31,31,0,0,1-5.3,10.2c-1.2,1.6-2.4,3.2-4.5,4s-4.4,1.7-6.5,0l2.1-.8a95.4,95.4,0,0,1-19.9,34.5,103.6,103.6,0,0,1-32,23.5h.4a21.7,21.7,0,0,0-7.3,12.6,15.2,15.2,0,0,0,.4,7.3,22.8,22.8,0,0,0,3.2,6.9l.4.8-.4.8-8.1,12.1-.8,1.3-.8-.8-12.2-12.2-.8-.8.8-.4a24,24,0,0,0,8.2-12.6,31.7,31.7,0,0,0,0-15l.4.4a112.9,112.9,0,0,1-30.4-24.7,111.3,111.3,0,0,1-11.4-15.8l-2.4-4.1L77,348.3l-4-9h0a3.7,3.7,0,0,1-4.5.8c-1.6-.4-2.4-1.6-3.6-2.8a21.7,21.7,0,0,1-4.5-8.1c-.8-3.2-1.6-6.1-1.2-9.3a17.6,17.6,0,0,1,1.2-4.5c.8-1.6,1.6-2.8,3.3-3.2S65.7,312.2,66.1,311.8Z"/><g class="cls-31"><path class="cls-32" d="M188.5,340.1c-6.5,11-13.3,21.5-21.5,30.9a237.8,237.8,0,0,1-27.1,25.9c11.7-5.3,21.9-13.8,30-23.5A89.2,89.2,0,0,0,188.5,340.1Z"/></g><path class="cls-33" d="M195.4,313.4c-3.2,6.5-6.1,13.4-9.3,19.8-.8,1.7-2,3.7-3.6,4.5a181.5,181.5,0,0,1,4-36.1c.8-4.4-1.6-9.3-5.7-12.1s-8.5-4.1-12.9-4.9a310.2,310.2,0,0,0-86.4-6.5A185.5,185.5,0,0,0,75,318.2a16.4,16.4,0,0,1-4.4-.4c-2.9-13.7-5.7-27.9-4.1-41.7s7.7-28,19.9-35.7,27.5-6.9,41.3-4,27.2,8.9,41,10.9c9.3,1.6,19,1.2,27.5-2,6.1-2.5,13.8-5.3,13.8-5.3a15.6,15.6,0,0,1,3.3,8.9C214.9,271.2,204.8,293.5,195.4,313.4Z"/><path class="cls-25" d="M209.2,277.3a115.7,115.7,0,0,0,3.3-19.1c.4-6.4.8-13.3-3.3-18.2h.8l-12.1,4.9a37.7,37.7,0,0,1-13,3.6c-8.9,1.2-18.3,0-26.8-2-17.4-4.1-34-11.4-51.1-10.1-8.1.4-16.6,3.2-22.7,8.5s-10.5,12.5-12.9,20.6a64.9,64.9,0,0,0-2.1,25.2c.8,8.5,2.5,17.4,4.1,25.9l-2.8-2.4,4.4.4-2.8,2.8c.8-13.7,2.8-27.5,6.9-40.5l.4-1.6h1.6a319.8,319.8,0,0,1,75.8,5.6c3.3.9,6.1,1.3,9.3,2.1a36,36,0,0,1,9.4,2.4c2.8,1.2,6,2.8,8.1,5.3s3.6,5.7,3.2,8.9c-2.4,12.6-4.4,25.1-4.4,37.7h0c2-.8,3.2-3.2,4-5.3l2.8-6,6.1-12.6C200.7,301.6,206,289.9,209.2,277.3Zm-20.3,47-2.8,6.5c-.8,2-1.6,4.5-4.1,5.3h0a196.7,196.7,0,0,1,3.7-37.7c.4-2.9-1.2-6.1-3.2-8.1a15.5,15.5,0,0,0-7.8-4.9c-5.6-2-12.1-2.8-18.2-4a308.4,308.4,0,0,0-75-2.9l2-1.6a197,197,0,0,0-5.7,39.7v2.9H68.1l-.4-2.5a189.9,189.9,0,0,1-4.4-26.3c-.9-8.9-.5-18.3,2.4-27.2s7.7-17.4,15-23.5,17-8.5,26.3-8.9,18.3,1.6,26.8,4,16.6,5.7,25.1,8.1,17.1,4.1,25.6,3.3a40.7,40.7,0,0,0,12.5-2.9l12.6-4.4h.4l.4.4a15.8,15.8,0,0,1,3.3,9.3,39.4,39.4,0,0,1,0,9.7c-.4,6.5-2.1,13-3.7,19.1-3.6,12.2-9.3,23.9-14.6,35.7Z"/><g class="cls-34"><path class="cls-35" d="M206.8,251.4c-2,8.5-3.7,17-6.1,25.1s-4.9,16.6-7.3,25.1a66.4,66.4,0,0,0,10.9-23.9A57.2,57.2,0,0,0,206.8,251.4Z"/></g><g class="cls-34"><path class="cls-35" d="M177.6,257.4c-9.3-1.2-17.4-6-26.8-8.9s-18.2-5.3-27.9-5.7-19.9.8-28.8,4.9S77,258.2,73,266.8a54.4,54.4,0,0,1,22.7-14.6c8.5-2.9,17.4-3.7,26.7-3.3a149,149,0,0,1,27.2,4.1l13.8,3.2A33.8,33.8,0,0,0,177.6,257.4Z"/></g><circle cx="154.5" cy="321.5" r="4.1"/><circle cx="107" cy="321.5" r="4.1"/><path class="cls-22" d="M134.6,319.1c-.4,3.6.4,7.3,1.2,10.9s1.6,6.9,1.6,10.1v2.1h0c0-.4.9-1.2.9-.8h-1.7a19.5,19.5,0,0,1-4.8.4,40.3,40.3,0,0,1-10.2-1.7v.4h.8a1.5,1.5,0,0,0-1.2-.4h-.4c2.9,2.5,6.5,3.7,10.2,4.5a26.4,26.4,0,0,0,5.6.4h2.5a1.5,1.5,0,0,0,1.2-.4c.4-.4.8-.8.8-1.2s0-1.2,0-1.2v-2.5a45.1,45.1,0,0,0-2.8-10.5C137,326,135.8,322.7,134.6,319.1Z"/><path class="cls-36" d="M133,366.1a29.3,29.3,0,0,1-22-11.8c1,9,6.4,17.1,14,20.3a20.1,20.1,0,0,0,22.4-4.5,31.4,31.4,0,0,0,7.2-12.9C147,361.6,141.6,366.1,133,366.1Z"/><path class="cls-37" d="M150.8,361.7a27.3,27.3,0,0,1-16.2,6.7c-11.3.7-18.9-6.2-20.3-7.4"/><path class="cls-38" d="M133,366.1a29.3,29.3,0,0,1-22-11.8c1,9,6.4,17.1,14,20.3a20.1,20.1,0,0,0,22.4-4.5,31.4,31.4,0,0,0,7.2-12.9C147,361.6,141.6,366.1,133,366.1Z"/></g><path class="cls-39" d="M521,280.5a254.9,254.9,0,0,1-41,138.6,262.4,262.4,0,0,1-30.5,38.4,258.6,258.6,0,0,1-80.4,56.2A250.1,250.1,0,0,1,322,529.3,254.3,254.3,0,0,1,31.3,380.4a252,252,0,0,1-15.2-48.9,252.7,252.7,0,0,1,0-102,251.7,251.7,0,0,1,15.1-48.9A255.6,255.6,0,0,1,88.8,96.8a252.6,252.6,0,0,1,85.1-54.4,256.5,256.5,0,0,1,98.6-17A264.9,264.9,0,0,1,322,31.6,255.7,255.7,0,0,1,502.5,185.2,251.6,251.6,0,0,1,521,280.5Zm0,0a254.9,254.9,0,0,0-4.9-48.5A241.5,241.5,0,0,0,180.9,59.4a244,244,0,0,0-76.1,53.4,247.1,247.1,0,0,0-28.9,36.4,241.5,241.5,0,0,0-21.3,41,242.7,242.7,0,0,0-.1,180.6A242.1,242.1,0,0,0,447,455a242.2,242.2,0,0,0,69.1-126A254.9,254.9,0,0,0,521,280.5Z"/></g></g></svg>