<svg xmlns="http://www.w3.org/2000/svg" viewBox="0 0 278.7 402.9"><defs><style>.cls-1{fill:#ecf8fe;stroke:#52474c;stroke-miterlimit:10;stroke-width:3.42px;}.cls-2{opacity:0.19;}</style></defs><title>act2_idea2</title><g id="act1_idea1"><path class="cls-1" d="M-186.9-248.3c-46.9,25.7-90.5,78.8-82,142.5,8.2,60.9,61.5,111.8,132,124.2a35.6,35.6,0,0,1-10,19.1c-9.5,9.6-21.6,11.5-25,11.9,2.4,1,21.3,8.9,41,0a44.5,44.5,0,0,0,23-23.7A437.3,437.3,0,0,0-2.9,15.6c47.5-10.5,167.5-37.1,203-125.1,3.2-7.9,26.9-69.4-8-118.7C152.4-284.4-126.9-281.2-186.9-248.3Z"/><g class="cls-2"><path d="M-172.5,45.6A24,24,0,0,0-159.3,50,37.8,37.8,0,0,0-146,47.9,55,55,0,0,0-133.8,42a103,103,0,0,0,11.2-8.2c3.7-3,7.4-6.1,11.5-9.1a80.9,80.9,0,0,1,13.4-8.1,43.3,43.3,0,0,1,7.8-3,58.2,58.2,0,0,1,8.3-1.7,138.4,138.4,0,0,1,15.4-.7A284.3,284.3,0,0,0-11,5.3c2.3-.4,4.6-1,6.9-1.5L2.7,2.3,9.5.6l3.4-.9,3.3-1L23-3.2l6.8-2c4.5-1.3,9-2.8,13.4-4.3L56.7-14l13.4-4.8C79-22,88-25.4,96.9-28.8l13.5-5,13.2-5.1a123,123,0,0,0,12.2-5.6,62.2,62.2,0,0,0,5.6-3.2l2.7-1.8a26.1,26.1,0,0,0,2.7-1.9c1.7-1.4,3.4-2.6,5.1-4.1l4.9-4.4,4.6-4.9c1.4-1.8,2.8-3.5,4.3-5.2a168.6,168.6,0,0,0,14.8-23.4c4.4-8.3,8.3-17,12-25.8s7.1-17.9,10.7-26.9c-1.2,9.6-2.8,19.2-4.9,28.7A222,222,0,0,1,190.4-89a140.1,140.1,0,0,1-12.8,27.2l-4.2,6.4-4.7,6.2c-1.7,2-3.5,3.9-5.2,5.8s-1.9,1.9-2.8,2.8l-2.9,2.7-3.1,2.5-3.1,2.5c-2.1,1.6-4.3,3.1-6.5,4.5a150.3,150.3,0,0,1-13.6,7.3c-4.6,2.2-9.1,4.2-13.5,6.1L104.7-9.3,91.3-3.8,77.7,1.6,64,6.7,50.1,11.5c-18.6,6-37.7,11.3-57.4,14.3l-7.3,1.1c-2.5.4-5,.6-7.5.9s-4.9.6-7.4.7L-37,29c-2.5.2-5,.2-7.5.2H-52l-7.5-.4-7.4-.4c-4.8-.3-9.3-.8-13.4-.7a38.1,38.1,0,0,0-6,.6c-2,.4-3.9.9-5.9,1.5-8,2.7-15.9,7.7-24.3,12.8a138.2,138.2,0,0,1-13.3,7,59.5,59.5,0,0,1-14.8,4.2,41.4,41.4,0,0,1-15.3-.6A24.6,24.6,0,0,1-172.5,45.6Z"/></g></g></svg>