<?xml version="1.0" encoding="utf-8"?>
<!-- Generator: Adobe Illustrator 23.0.2, SVG Export Plug-In . SVG Version: 6.00 Build 0)  -->
<svg version="1.1" id="Layer_1" xmlns="http://www.w3.org/2000/svg" xmlns:xlink="http://www.w3.org/1999/xlink" x="0px" y="0px"
	 viewBox="0 0 945 690" style="enable-background:new 0 0 945 690;" xml:space="preserve">
<style type="text/css">
	.Graphic_x0020_Style_x0020_9{fill:#ECF8FE;stroke:#52474C;stroke-width:3.153;stroke-miterlimit:10;}
	.st0{opacity:0.42;fill:#FBB03B;}
	.st1{opacity:0.35;fill:#808080;}
	.st2{fill:#333333;}
	.st3{fill:#050505;}
	.st4{fill:#00A99D;}
	.st5{fill:#E8C8C1;stroke:#C4A290;stroke-width:1.9242;}
	.st6{fill:#047267;}
	.st7{fill:#E8C8C1;}
	.st8{fill:#C4A290;}
	.st9{opacity:0.25;}
	.st10{fill:#B2806B;}
	.st11{fill:#EFD6CE;}
	.st12{fill:#A67C52;}
	.st13{fill:#754C24;}
	.st14{opacity:0.5;}
	.st15{fill:#DDAF73;}
	.st16{fill:url(#SVGID_1_);stroke:#B2806B;stroke-width:1.5626;stroke-miterlimit:10;}
	.st17{fill:none;stroke:#999999;stroke-width:0.4254;stroke-miterlimit:10;}
	.st18{opacity:0.88;fill:#FFFFFF;enable-background:new    ;}
	.st19{fill:url(#SVGID_2_);}
	.st20{fill:none;stroke:#CCCCCC;stroke-width:0.4254;stroke-linecap:round;stroke-miterlimit:10;}
	.st21{fill:#522E90;}
	.st22{fill:none;stroke:#FFFFFF;stroke-width:0.2127;stroke-linecap:round;}
	.st23{fill:url(#SVGID_4_);stroke:#333333;stroke-width:0.1063;stroke-miterlimit:10;}
	
		.st24{opacity:0.82;fill:#FFFFFF;stroke:url(#SVGID_5_);stroke-width:2.126549e-02;stroke-miterlimit:10;enable-background:new    ;}
	.st25{opacity:0.15;}
	.st26{opacity:0.15;fill:#FFFFFF;enable-background:new    ;}
	.st27{clip-path:url(#SVGID_7_);fill:#FFFFFF;}
	.st28{opacity:0.11;}
	.st29{clip-path:url(#SVGID_9_);fill:#FFFFFF;stroke:url(#SVGID_10_);stroke-width:2.126549e-02;stroke-miterlimit:10;}
	.st30{opacity:0.21;fill:url(#SVGID_11_);enable-background:new    ;}
</style>
<path class="st0" d="M744.3,101.6c75.4,11,78.2,182.6,51.2,225.3c-9.5,15.1-22.2,28.5-24.6,48.9c-1.1,10,0.5,20.2,2.5,29.8
	c9.5,45.7,28.7,87.4,31.6,135.1c0.7,11.8,0.3,24.3-3.6,34.6c-3.8,10.1-10.6,17.1-17.8,21.8c-23.6,15.8-51.2,10.7-75.6-1.8
	c-24.4-12.5-47.1-31.8-71.3-45c-49.9-27.1-104.4-26.9-157.6-24.8c-82.7,3.3-165.3,10.3-247.5,22.9c-27.4,4.2-55,9.1-82.3,5.1
	c-27.4-4-55-17.6-75-45.9c-18.5-26.1-28.9-62.3-37.5-98.1C21,343.6,11,265,37.6,207.1C45.2,190.5,56,174,54.5,154
	c-2-26.7-25.6-44.5-22.5-70.9c2.2-18.6,16.6-27.6,29.2-29.4c40.6-5.6,78.5,29.2,118.6,40c47.4,12.8,241.6-47.7,284-13.5
	c17.8,14.3,124.7,15,145.8,10.7C655.6,81.5,668.9,90.6,744.3,101.6z"/>
<path class="Graphic_x0020_Style_x0020_9" d="M87.6,429.6c-3.2-0.3-15.8-1.8-25.5-12.5c-13.1-14.4-9.4-33.1-9-35
	c-9.6-4-21.9-11.2-30-24c-22-34.9,3-86.1,20-109c53.3-72.1,194.6-91.4,235-34c24.6,35,12.2,99.1-27,137
	c-41.3,39.9-140.5,35.5-164,27C70.6,389.6,87.4,412.8,87.6,429.6z"/>
<g>
	<path d="M99.8,225c0.8-0.1,1.9-0.2,3.5-0.2c1.6,0,2.7,0.1,3.6,0.4c0.8,0.3,1.2,0.6,1.2,1.1c0,0.2-0.1,0.4-0.2,0.5
		c-0.2,0.1-0.3,0.2-0.4,0.2c-0.1,0.1-0.3,0.1-0.5,0.1s-0.4,0.1-0.6,0.1c-0.2,0-0.4,0.1-0.7,0.1c-0.3,0-0.5,0.1-0.7,0.1
		c-0.2,0-0.5,0.1-0.8,0.1s-0.6,0.1-0.9,0.1c-0.3,0-1,0.1-2.2,0.3v0c0,0.5-0.2,1.9-0.7,4.1c0.2,0,0.5,0,1,0s1.2,0,2-0.1
		c0.8-0.1,1.3-0.1,1.6-0.1s0.5,0.1,0.6,0.2c0.2,0.1,0.3,0.3,0.3,0.4c0,0.4-0.2,0.7-0.7,1c-0.5,0.3-1,0.5-1.7,0.7
		c-1.4,0.3-2.6,0.5-3.7,0.6c-0.4,1.8-0.7,3-0.8,3.4c-0.1,0.4-0.2,0.8-0.3,1.2c-0.2,0.7-0.4,1.1-0.5,1.1c-0.3,0-0.7-0.3-1.2-1
		c-0.5-0.7-0.8-1.2-0.8-1.5c0-0.6,0.4-2.4,1.1-5.5c0.7-3.1,1.1-5,1.1-5.8v-0.2c0-0.2,0-0.3,0.1-0.5C98.6,225.4,99.1,225.1,99.8,225z
		"/>
	<path d="M110,229.2c0.5,0,1,0.3,1.4,0.9c0.4,0.6,0.6,1.1,0.6,1.7c0,0.3-0.3,1.3-0.7,3s-1,3.3-1.5,4.8c-0.2,0.6-0.5,0.8-1.1,0.8
		c-0.3,0-0.6-0.1-0.8-0.4s-0.4-0.5-0.4-0.9s0.2-1.3,0.6-2.9c0.4-1.5,0.7-2.8,0.8-3.9c0.2-1.1,0.4-1.9,0.5-2.4
		C109.6,229.5,109.8,229.2,110,229.2z M109.7,226.5c0-0.4,0.2-0.8,0.5-1.2c0.3-0.4,0.7-0.6,1-0.6s0.7,0.4,1.2,1.2
		c0.4,0.8,0.7,1.3,0.7,1.7c0,0.4-0.1,0.6-0.3,0.8c-0.2,0.2-0.5,0.3-0.7,0.3c-0.4,0-0.9-0.3-1.5-0.8
		C110,227.4,109.7,226.9,109.7,226.5z"/>
	<path d="M121.2,229.2c0.8,0,1.4,0.3,2,1c0.6,0.7,0.9,1.4,0.9,2.2c0,1.2-0.2,2.5-0.6,3.9c-0.4,1.3-0.8,2.4-1.3,3.1
		c-0.5,0.7-0.9,1.1-1.4,1.1c-0.5,0-0.7-0.3-0.7-1c0-0.5,0.2-1.6,0.7-3.1c0.4-1.3,0.5-2.2,0.5-2.8c0-0.6-0.1-0.8-0.2-0.8
		c-0.2,0-0.4,0.1-0.6,0.3c-0.2,0.2-0.3,0.4-0.4,0.5c-0.1,0.1-0.3,0.3-0.4,0.6s-0.3,0.4-0.4,0.6c-0.1,0.2-0.2,0.4-0.4,0.7
		s-0.3,0.5-0.4,0.7s-0.2,0.4-0.4,0.7c-1.3,2.5-2.4,3.8-3.2,3.8c-0.3,0-0.7-0.3-1.2-0.8c-0.5-0.5-0.7-0.9-0.7-1.2
		c0-0.2,0.1-0.5,0.3-1c0.2-0.5,0.4-0.9,0.5-1.2c0.1-0.3,0.2-0.6,0.2-0.9c0.1-0.3,0.1-0.7,0.2-1s0.1-0.7,0.1-0.9c0-0.2,0-0.5,0.1-1
		c0.1-1.9,0.2-2.9,0.3-3.1c0.1-0.2,0.2-0.3,0.3-0.3c0.5,0,1.1,0.2,1.6,0.7s0.8,0.9,0.8,1.2c0,0.9-0.2,2.2-0.7,3.9
		c0.9-1.7,1.8-3,2.6-4.1C120,229.8,120.7,229.2,121.2,229.2z"/>
	<path d="M134.5,234.3c0.3,0.2,0.4,0.4,0.4,0.6c0,0.2-0.1,0.6-0.3,1.2c-0.2,0.6-0.3,1.1-0.3,1.4c-0.1,0.3-0.1,0.6-0.1,0.8
		c0,0.2-0.1,0.3-0.1,0.4c0,0.1,0,0.2-0.1,0.4s-0.1,0.3-0.1,0.4c0,0.1-0.1,0.2-0.1,0.3c0,0.1-0.1,0.2-0.1,0.3s-0.1,0.1-0.2,0.2
		c-0.1,0.1-0.2,0.2-0.4,0.2c-0.2,0-0.5-0.2-0.7-0.6c-0.3-0.4-0.5-0.9-0.7-1.5c-1.4,1.4-2.5,2.1-3.4,2.1c-0.6,0-1.3-0.3-2-1
		s-1.1-1.4-1.1-2.1s0.3-1.7,0.9-2.9s1.5-2.5,2.6-3.5s2.1-1.6,3.2-1.6c0.6,0,1.3,0.4,2.1,1.1c0.8,0.7,1.2,1.4,1.2,1.9
		C135.1,232.8,134.9,233.5,134.5,234.3z M128.2,237.7c0.6,0,1.3-0.4,2.3-1.2c1-0.8,1.6-1.8,1.8-3c0-0.2,0.1-0.3,0.4-0.3
		c0-0.8-0.2-1.2-0.4-1.2c-0.6,0-1.2,0.4-1.9,1.1c-0.7,0.8-1.3,1.6-1.8,2.4c-0.5,0.9-0.7,1.5-0.7,1.9c0,0.1,0,0.2,0.1,0.2
		C127.9,237.7,128,237.7,128.2,237.7z"/>
	<path d="M140.7,224.1c0.5,0.6,0.8,1.2,0.8,1.8s-0.1,1.6-0.3,3.1s-0.4,2.7-0.5,3.6c-1.2,5.2-2,7.9-2.5,7.9c-0.3,0-0.7-0.3-1.2-0.8
		c-0.5-0.5-0.7-0.9-0.7-1.3c0,0,0.2-0.8,0.6-2.3c0.4-1.5,0.8-3.4,1.2-5.7c0.4-2.3,0.6-4.5,0.6-6.7c0-0.4,0.2-0.6,0.7-0.6
		C139.7,223.2,140.2,223.5,140.7,224.1z"/>
	<path d="M144.6,229.2c0.5,0,1,0.3,1.4,0.9c0.4,0.6,0.6,1.1,0.6,1.7c0,0.3-0.3,1.3-0.7,3s-1,3.3-1.5,4.8c-0.2,0.6-0.5,0.8-1.1,0.8
		c-0.3,0-0.6-0.1-0.8-0.4s-0.4-0.5-0.4-0.9s0.2-1.3,0.6-2.9c0.4-1.5,0.7-2.8,0.8-3.9c0.2-1.1,0.4-1.9,0.5-2.4
		C144.1,229.5,144.3,229.2,144.6,229.2z M144.2,226.5c0-0.4,0.2-0.8,0.5-1.2c0.3-0.4,0.7-0.6,1-0.6s0.7,0.4,1.2,1.2
		c0.4,0.8,0.7,1.3,0.7,1.7c0,0.4-0.1,0.6-0.3,0.8c-0.2,0.2-0.5,0.3-0.7,0.3c-0.4,0-0.9-0.3-1.5-0.8
		C144.5,227.4,144.2,226.9,144.2,226.5z"/>
	<path d="M147.8,237c0-1,0.3-2.1,1-3.3c0.6-1.2,1.5-2.3,2.5-3.1c1-0.9,2.1-1.3,3.1-1.3c0.5,0,1,0.3,1.6,1c0.5,0.7,0.8,1.2,0.8,1.8
		c0,0.4-0.2,0.6-0.5,0.6c-0.2,0-0.4-0.1-0.7-0.2c-0.3-0.2-0.6-0.2-0.9-0.2s-0.8,0.3-1.4,0.8c-0.6,0.5-1.1,1.2-1.6,2
		s-0.7,1.4-0.7,1.8c0,0.4,0.1,0.7,0.3,0.8c0.2,0.1,0.6,0.2,1.2,0.2s1.2-0.1,1.8-0.2c0.5-0.1,0.9-0.2,1.2-0.4
		c0.3-0.1,0.5-0.2,0.7-0.2c0.4,0,0.6,0.2,0.6,0.5c0,0.6-0.6,1.3-1.7,1.9c-1.1,0.7-2.2,1-3.3,1c-0.7,0-1.5-0.4-2.4-1.2
		C148.2,238.5,147.8,237.7,147.8,237z"/>
	<path d="M166.7,235.2c-1,0.6-2,0.8-3,0.8c-1,0-1.8-0.1-2.5-0.2c-0.1,0.4-0.2,0.8-0.2,1.2c0,0.4,0.1,0.7,0.2,0.8
		c0.1,0.2,0.5,0.2,1,0.2c1.1,0,2-0.1,2.8-0.3c0.8-0.2,1.2-0.3,1.2-0.3c0.6,0,0.9,0.2,0.9,0.6c0,0.6-0.5,1.1-1.4,1.6
		c-0.9,0.5-2,0.8-3.2,0.8c-1.2,0-2.2-0.4-2.9-1.2c-0.7-0.8-1.1-1.7-1.1-2.7s0.3-2.1,0.9-3.3c0.6-1.1,1.4-2.1,2.3-2.9
		c0.9-0.8,1.8-1.2,2.8-1.2c0.9,0,1.8,0.5,2.6,1.4c0.8,0.9,1.2,1.8,1.2,2.7C168.1,234,167.6,234.7,166.7,235.2z M165.1,232.3
		c-0.3-0.3-0.6-0.4-0.9-0.4s-0.6,0.2-1,0.6c-0.4,0.4-0.8,0.9-1.2,1.5c0.1,0,0.3,0,0.6,0c2,0,3-0.3,3-1
		C165.6,232.8,165.4,232.6,165.1,232.3z"/>
	<path d="M183.6,229.2c0.6,0,1,0.4,1.4,1.1c0.4,0.8,0.6,1.4,0.6,2.1c0,0.6-0.1,1.5-0.4,2.8c-0.2,1.2-0.6,2.4-1.1,3.5
		c-0.5,1.1-1.1,1.7-1.7,1.7c-0.5,0-0.7-0.3-0.7-1c0-0.7,0.2-1.7,0.6-3.2c0.4-1.5,0.6-2.4,0.6-2.9c0-0.5-0.1-0.7-0.2-0.7
		c-0.3,0-0.7,0.3-1.1,1c-0.4,0.7-0.9,1.6-1.5,2.7c-0.6,1.1-1,1.8-1.1,2.2s-0.3,0.6-0.4,0.8c-0.1,0.2-0.2,0.4-0.3,0.6
		c-0.5,0.8-1.1,0.8-1.8,0c-0.4-0.4-0.6-0.7-0.6-1.1c0-0.1,0.1-0.6,0.4-1.7s0.4-2.2,0.4-3.6c0-0.6-0.1-0.8-0.2-0.8
		c-0.2,0-0.4,0.2-0.6,0.5c-0.2,0.3-0.6,1-1.1,1.9c-0.5,0.9-0.9,1.7-1.2,2.3c-1.2,2.1-2.1,3.1-2.8,3.1c-0.3,0-0.7-0.3-1.2-0.8
		c-0.5-0.5-0.7-0.9-0.7-1.2s0.2-1,0.5-2c0.3-1.1,0.5-2.2,0.6-3.4c0.1-1.2,0.2-2.2,0.3-2.8c0.1-0.7,0.3-1,0.5-1
		c0.5,0,1.1,0.2,1.6,0.7c0.5,0.5,0.8,0.9,0.8,1.2c0,0.9-0.3,2.3-0.9,4.5c1-2.4,1.9-4.1,2.6-4.9c0.7-0.9,1.4-1.3,2.1-1.3
		c0.4,0,0.8,0.3,1.4,1c0.6,0.7,0.8,1.3,0.8,1.9s0,1.1,0,1.6c0.4-1.1,1.1-2.2,2-3.1C181.9,229.7,182.8,229.2,183.6,229.2z"/>
	<path d="M188.3,231.7c1.1-1.6,2.2-2.4,3.3-2.4c1.1,0,2,0.4,2.8,1.2c0.8,0.8,1.1,1.7,1.1,2.8c0,1.1-0.3,2.2-0.8,3.3
		c-0.5,1.1-1.3,2.1-2.2,2.8c-0.9,0.7-1.9,1.1-3,1.1c-0.8,0-1.5-0.4-2.1-1.1c-0.6-0.7-0.9-1.6-0.9-2.6
		C186.7,235,187.2,233.3,188.3,231.7z M191.9,236.1c0.6-1.1,0.9-2,0.9-3s-0.1-1.6-0.4-1.9c-0.6,0.4-1.2,1.1-1.9,2.3
		c-0.6,1.2-0.9,2.2-0.9,3.1s0.1,1.4,0.3,1.7C190.6,237.9,191.3,237.2,191.9,236.1z"/>
	<path d="M203.6,229.3c0.6,0,1.1,0.3,1.6,1c0.5,0.7,0.8,1.2,0.8,1.8c0,0.3-0.2,0.5-0.5,0.5c-0.2,0-0.4-0.1-0.8-0.2
		c-0.3-0.1-0.7-0.2-1-0.2c-0.3,0-0.8,0.1-1.5,0.3c-0.7,0.2-1,0.5-1,0.9c0,0.1,0.2,0.4,0.6,0.6c0.4,0.3,0.8,0.6,1.3,0.8
		c0.5,0.3,0.9,0.7,1.3,1.2c0.4,0.5,0.6,1.1,0.6,1.7c0,0.6-0.4,1.2-1.3,1.8s-1.9,0.9-3.1,0.9s-2.2-0.3-3-0.8
		c-0.8-0.5-1.3-1.1-1.3-1.7s0.2-0.8,0.7-0.8c0.2,0,0.4,0.1,0.7,0.2c0.7,0.4,1.6,0.6,2.7,0.6c1.1,0,1.6-0.1,1.6-0.4
		c0-0.3-0.2-0.6-0.6-1s-0.9-0.7-1.3-1c-0.5-0.3-0.9-0.7-1.3-1.1c-0.4-0.4-0.6-0.9-0.6-1.3c0-0.8,0.7-1.6,2.1-2.6
		C201.7,229.7,202.8,229.3,203.6,229.3z"/>
	<path d="M223.5,235.2c-1,0.6-2,0.8-3,0.8s-1.8-0.1-2.5-0.2c-0.1,0.4-0.2,0.8-0.2,1.2c0,0.4,0.1,0.7,0.2,0.8c0.1,0.2,0.5,0.2,1,0.2
		c1.1,0,2-0.1,2.8-0.3c0.8-0.2,1.2-0.3,1.2-0.3c0.6,0,0.9,0.2,0.9,0.6c0,0.6-0.5,1.1-1.4,1.6s-2,0.8-3.2,0.8s-2.2-0.4-2.9-1.2
		c-0.7-0.8-1.1-1.7-1.1-2.7s0.3-2.1,0.9-3.3c0.6-1.1,1.4-2.1,2.3-2.9c0.9-0.8,1.8-1.2,2.8-1.2c0.9,0,1.8,0.5,2.6,1.4
		c0.8,0.9,1.2,1.8,1.2,2.7C224.9,234,224.4,234.7,223.5,235.2z M221.9,232.3c-0.3-0.3-0.6-0.4-0.9-0.4c-0.3,0-0.6,0.2-1,0.6
		s-0.8,0.9-1.2,1.5c0.1,0,0.3,0,0.6,0c2,0,3-0.3,3-1C222.4,232.8,222.2,232.6,221.9,232.3z"/>
	<path d="M232.7,229.3c0.5,0,1.1,0.3,1.6,1c0.5,0.7,0.8,1.2,0.8,1.8c0,0.3-0.2,0.5-0.5,0.5c-0.2,0-0.4-0.1-0.8-0.2s-0.7-0.2-1-0.2
		s-0.8,0.1-1.5,0.3c-0.7,0.2-1,0.5-1,0.9c0,0.1,0.2,0.4,0.6,0.6c0.4,0.3,0.8,0.6,1.3,0.8c0.5,0.3,0.9,0.7,1.3,1.2
		c0.4,0.5,0.6,1.1,0.6,1.7c0,0.6-0.4,1.2-1.3,1.8c-0.9,0.6-1.9,0.9-3.1,0.9c-1.2,0-2.2-0.3-3-0.8c-0.8-0.5-1.3-1.1-1.3-1.7
		s0.2-0.8,0.7-0.8c0.2,0,0.4,0.1,0.7,0.2c0.7,0.4,1.6,0.6,2.7,0.6c1.1,0,1.6-0.1,1.6-0.4c0-0.3-0.2-0.6-0.6-1
		c-0.4-0.4-0.9-0.7-1.3-1c-0.5-0.3-0.9-0.7-1.3-1.1c-0.4-0.4-0.6-0.9-0.6-1.3c0-0.8,0.7-1.6,2.1-2.6
		C230.8,229.7,231.9,229.3,232.7,229.3z"/>
	<path d="M241,233.5c-0.2,0.7-0.5,1.6-0.8,2.6c-0.3,1.1-0.5,1.6-0.5,1.7s0.1,0.1,0.4,0.1c0.2,0,0.8-0.2,1.7-0.5
		c0.9-0.3,1.4-0.5,1.6-0.5c0.4,0,0.5,0.2,0.5,0.7c0,0.5-0.5,1.1-1.5,1.8c-1,0.7-2,1-3,1c-0.5,0-1-0.3-1.7-0.8s-1-1-1-1.5
		c0-0.4,0.2-1.3,0.7-2.7s0.7-2.4,0.9-2.9c-0.6,0.2-1,0.2-1.3,0.2c-0.3,0-0.6-0.2-0.9-0.6c-0.3-0.4-0.5-0.8-0.5-1.1
		c0-0.5,1.1-0.9,3.4-1.2c0.3-1.3,0.4-2.5,0.4-3.5c0-0.4,0.2-0.7,0.7-0.7c0.4,0,0.9,0.2,1.4,0.7c0.6,0.5,0.9,0.9,0.9,1.3
		c0,0.4-0.1,1.1-0.3,1.9c0.7,0,1.2,0,1.6,0c1.1,0,1.6,0.2,1.6,0.7c0,0.3-0.3,0.6-0.9,0.8c-0.6,0.2-1.6,0.5-2.9,0.7
		C241.4,232.2,241.2,232.8,241,233.5z"/>
	<path d="M254.9,234.3c0.3,0.2,0.4,0.4,0.4,0.6c0,0.2-0.1,0.6-0.3,1.2s-0.3,1.1-0.3,1.4c-0.1,0.3-0.1,0.6-0.1,0.8s-0.1,0.3-0.1,0.4
		c0,0.1,0,0.2-0.1,0.4s-0.1,0.3-0.1,0.4c0,0.1-0.1,0.2-0.1,0.3s-0.1,0.2-0.1,0.3c0,0.1-0.1,0.1-0.2,0.2c-0.1,0.1-0.2,0.2-0.4,0.2
		c-0.2,0-0.5-0.2-0.7-0.6c-0.3-0.4-0.5-0.9-0.7-1.5c-1.4,1.4-2.5,2.1-3.4,2.1c-0.6,0-1.3-0.3-2-1c-0.7-0.7-1.1-1.4-1.1-2.1
		s0.3-1.7,0.9-2.9c0.6-1.3,1.5-2.5,2.6-3.5c1.1-1.1,2.1-1.6,3.2-1.6c0.6,0,1.3,0.4,2.1,1.1c0.8,0.7,1.2,1.4,1.2,1.9
		C255.6,232.8,255.4,233.5,254.9,234.3z M248.6,237.7c0.6,0,1.3-0.4,2.3-1.2s1.6-1.8,1.8-3c0-0.2,0.1-0.3,0.4-0.3
		c0-0.8-0.2-1.2-0.4-1.2c-0.6,0-1.2,0.4-1.9,1.1s-1.3,1.6-1.8,2.4c-0.5,0.9-0.7,1.5-0.7,1.9c0,0.1,0,0.2,0.1,0.2
		C248.4,237.7,248.5,237.7,248.6,237.7z"/>
	<path d="M59.5,249.8c0.4,0,0.8,0.3,1.4,0.8c0.6,0.5,0.8,1,0.8,1.5c0,0.5-0.3,1.8-0.8,3.9c-0.5,2.1-0.8,3.5-0.8,4.3s0.1,1.4,0.3,1.8
		s0.5,0.6,0.8,0.6c0.4,0,0.8-0.3,1.2-0.8c0.5-0.5,0.9-1.2,1.4-2c0.4-0.8,0.8-1.8,1.1-2.9c0.3-1.1,0.4-2.2,0.4-3.2c0-1,0-1.8-0.1-2.4
		c-0.1-0.6-0.1-0.9-0.1-1.1c0-0.4,0.2-0.7,0.6-0.7c0.5,0,1.1,0.4,1.8,1.2c0.7,0.8,1.1,1.7,1.1,2.8c0,1.1-0.2,2.3-0.6,3.7
		s-0.9,2.7-1.5,4c-0.6,1.2-1.4,2.3-2.4,3.1c-1,0.8-2,1.2-3,1.2c-1,0-1.9-0.5-2.8-1.6c-0.8-1.1-1.2-2.2-1.2-3.3
		c0-1.1,0.1-2.4,0.4-3.9s0.6-2.8,0.9-4c0.3-1.2,0.4-2,0.4-2.5S59.1,249.8,59.5,249.8z"/>
	<path d="M77.3,254.6c0.8,0,1.4,0.3,2,1c0.6,0.7,0.9,1.4,0.9,2.2c0,1.2-0.2,2.5-0.6,3.9c-0.4,1.3-0.8,2.4-1.3,3.1
		c-0.5,0.7-0.9,1.1-1.4,1.1c-0.5,0-0.7-0.3-0.7-1c0-0.5,0.2-1.6,0.7-3.1c0.4-1.3,0.5-2.2,0.5-2.8c0-0.6-0.1-0.8-0.2-0.8
		c-0.2,0-0.4,0.1-0.6,0.3c-0.2,0.2-0.3,0.4-0.4,0.5c-0.1,0.1-0.3,0.3-0.4,0.6s-0.3,0.4-0.4,0.6c-0.1,0.2-0.2,0.4-0.4,0.7
		s-0.3,0.5-0.4,0.7s-0.2,0.4-0.4,0.7c-1.3,2.5-2.4,3.8-3.2,3.8c-0.3,0-0.7-0.3-1.2-0.8c-0.5-0.5-0.7-0.9-0.7-1.2
		c0-0.2,0.1-0.5,0.3-1c0.2-0.5,0.4-0.9,0.5-1.2c0.1-0.3,0.2-0.6,0.2-0.9c0.1-0.3,0.1-0.7,0.2-1s0.1-0.7,0.1-0.9c0-0.2,0-0.5,0.1-1
		c0.1-1.9,0.2-2.9,0.3-3.1c0.1-0.2,0.2-0.3,0.3-0.3c0.5,0,1.1,0.2,1.6,0.7s0.8,0.9,0.8,1.2c0,0.9-0.2,2.2-0.7,3.9
		c0.9-1.7,1.8-3,2.6-4.1C76.1,255.1,76.7,254.6,77.3,254.6z"/>
	<path d="M83.8,254.6c0.5,0,1,0.3,1.4,0.9c0.4,0.6,0.6,1.1,0.6,1.7c0,0.3-0.3,1.3-0.7,3s-1,3.3-1.5,4.8c-0.2,0.6-0.5,0.8-1.1,0.8
		c-0.3,0-0.6-0.1-0.8-0.4s-0.4-0.5-0.4-0.9s0.2-1.3,0.6-2.9c0.4-1.5,0.7-2.8,0.8-3.9c0.2-1.1,0.4-1.9,0.5-2.4
		C83.3,254.8,83.5,254.6,83.8,254.6z M83.4,251.9c0-0.4,0.2-0.8,0.5-1.2c0.3-0.4,0.7-0.6,1-0.6s0.7,0.4,1.2,1.2
		c0.4,0.8,0.7,1.3,0.7,1.7c0,0.4-0.1,0.6-0.3,0.8c-0.2,0.2-0.5,0.3-0.7,0.3c-0.4,0-0.9-0.3-1.5-0.8
		C83.7,252.7,83.4,252.2,83.4,251.9z"/>
	<path d="M96.2,248.5c0.3,0,0.8,0.3,1.4,0.9c0.6,0.6,0.8,1.2,0.8,1.8c0,0.3-0.3,1.4-0.8,3.4c-0.5,2-0.8,3.2-0.9,3.6
		c-1.2,5-2,7.5-2.5,7.5c-0.3,0-0.6-0.2-1-0.5c-0.4-0.4-0.6-0.7-0.6-1.1c0-0.1,0-0.1,0-0.2c-1.4,1.2-2.5,1.8-3.1,1.8s-1.2-0.3-1.8-1
		s-0.9-1.3-0.9-1.8c0-0.5,0.1-1.2,0.2-1.8c0.2-0.7,0.4-1.4,0.7-2.1c0.3-0.8,0.7-1.5,1.1-2.1c0.4-0.7,0.9-1.2,1.5-1.6
		c0.6-0.4,1.2-0.6,1.8-0.6c0.9,0,1.7,0.5,2.3,1.4c0.8-3.4,1.2-5.7,1.1-6.8C95.6,248.7,95.8,248.5,96.2,248.5z M89.8,263
		c0.4,0,1-0.3,1.8-0.9c0.9-0.6,1.5-1.4,1.9-2.4c0-0.1,0-0.4,0-0.8c0-0.4-0.1-0.8-0.4-1.1c-0.3-0.3-0.5-0.5-0.7-0.5
		c-0.4,0-0.9,0.2-1.2,0.7c-0.4,0.5-0.7,1-0.9,1.7c-0.5,1.3-0.7,2.4-0.7,3.1c0,0.1,0,0.2,0.1,0.2S89.7,263,89.8,263z"/>
	<path d="M107.9,259.6c0.3,0.2,0.4,0.4,0.4,0.6c0,0.2-0.1,0.6-0.3,1.2c-0.2,0.6-0.3,1.1-0.3,1.4c-0.1,0.3-0.1,0.6-0.1,0.8
		c0,0.2-0.1,0.3-0.1,0.4c0,0.1,0,0.2-0.1,0.4s-0.1,0.3-0.1,0.4c0,0.1-0.1,0.2-0.1,0.3c0,0.1-0.1,0.2-0.1,0.3s-0.1,0.1-0.2,0.2
		c-0.1,0.1-0.2,0.2-0.4,0.2c-0.2,0-0.5-0.2-0.7-0.6c-0.3-0.4-0.5-0.9-0.7-1.5c-1.4,1.4-2.5,2.1-3.4,2.1c-0.6,0-1.3-0.3-2-1
		s-1.1-1.4-1.1-2.1s0.3-1.7,0.9-2.9s1.5-2.5,2.6-3.5s2.1-1.6,3.2-1.6c0.6,0,1.3,0.4,2.1,1.1c0.8,0.7,1.2,1.4,1.2,1.9
		C108.5,258.2,108.3,258.9,107.9,259.6z M101.6,263.1c0.6,0,1.3-0.4,2.3-1.2c1-0.8,1.6-1.8,1.8-3c0-0.2,0.1-0.3,0.4-0.3
		c0-0.8-0.2-1.2-0.4-1.2c-0.6,0-1.2,0.4-1.9,1.1c-0.7,0.8-1.3,1.6-1.8,2.4c-0.5,0.9-0.7,1.5-0.7,1.9c0,0.1,0,0.2,0.1,0.2
		C101.3,263,101.4,263.1,101.6,263.1z"/>
	<path d="M119,248.5c0.3,0,0.8,0.3,1.4,0.9c0.6,0.6,0.8,1.2,0.8,1.8c0,0.3-0.3,1.4-0.8,3.4c-0.5,2-0.8,3.2-0.9,3.6
		c-1.2,5-2,7.5-2.5,7.5c-0.3,0-0.6-0.2-1-0.5c-0.4-0.4-0.6-0.7-0.6-1.1c0-0.1,0-0.1,0-0.2c-1.4,1.2-2.5,1.8-3.1,1.8s-1.2-0.3-1.8-1
		s-0.9-1.3-0.9-1.8c0-0.5,0.1-1.2,0.2-1.8c0.2-0.7,0.4-1.4,0.7-2.1c0.3-0.8,0.7-1.5,1.1-2.1c0.4-0.7,0.9-1.2,1.5-1.6
		c0.6-0.4,1.2-0.6,1.8-0.6c0.9,0,1.7,0.5,2.3,1.4c0.8-3.4,1.2-5.7,1.1-6.8C118.4,248.7,118.6,248.5,119,248.5z M112.6,263
		c0.4,0,1-0.3,1.8-0.9c0.9-0.6,1.5-1.4,1.9-2.4c0-0.1,0-0.4,0-0.8c0-0.4-0.1-0.8-0.4-1.1c-0.3-0.3-0.5-0.5-0.7-0.5
		c-0.4,0-0.9,0.2-1.2,0.7c-0.4,0.5-0.7,1-0.9,1.7c-0.5,1.3-0.7,2.4-0.7,3.1c0,0.1,0,0.2,0.1,0.2S112.5,263,112.6,263z"/>
	<path d="M129.8,262.4c0-1,0.3-2.1,1-3.3c0.6-1.2,1.5-2.3,2.5-3.1c1-0.9,2.1-1.3,3.1-1.3c0.5,0,1,0.3,1.6,1c0.5,0.7,0.8,1.2,0.8,1.8
		c0,0.4-0.2,0.6-0.5,0.6c-0.2,0-0.4-0.1-0.7-0.2c-0.3-0.2-0.6-0.2-0.9-0.2s-0.8,0.3-1.4,0.8c-0.6,0.5-1.1,1.2-1.6,2
		s-0.7,1.4-0.7,1.8c0,0.4,0.1,0.7,0.3,0.8c0.2,0.1,0.6,0.2,1.2,0.2s1.2-0.1,1.8-0.2c0.5-0.1,0.9-0.2,1.2-0.4
		c0.3-0.1,0.5-0.2,0.7-0.2c0.4,0,0.6,0.2,0.6,0.5c0,0.6-0.6,1.3-1.7,1.9c-1.1,0.7-2.2,1-3.3,1c-0.7,0-1.5-0.4-2.4-1.2
		C130.2,263.8,129.8,263.1,129.8,262.4z"/>
	<path d="M142,257c1.1-1.6,2.2-2.4,3.3-2.4c1.1,0,2,0.4,2.8,1.2c0.8,0.8,1.1,1.7,1.1,2.8c0,1.1-0.3,2.2-0.8,3.3
		c-0.5,1.1-1.3,2.1-2.2,2.8c-0.9,0.7-1.9,1.1-3,1.1c-0.8,0-1.5-0.4-2.1-1.1c-0.6-0.7-0.9-1.6-0.9-2.6
		C140.3,260.3,140.9,258.6,142,257z M145.5,261.5c0.6-1.1,0.9-2,0.9-3s-0.1-1.6-0.4-1.9c-0.6,0.4-1.2,1.1-1.9,2.3
		c-0.6,1.2-0.9,2.2-0.9,3.1s0.1,1.4,0.3,1.7C144.3,263.2,144.9,262.5,145.5,261.5z"/>
	<path d="M158.3,254.6c0.8,0,1.4,0.3,2,1c0.6,0.7,0.9,1.4,0.9,2.2c0,1.2-0.2,2.5-0.6,3.9c-0.4,1.3-0.8,2.4-1.3,3.1
		c-0.5,0.7-0.9,1.1-1.4,1.1c-0.5,0-0.7-0.3-0.7-1c0-0.5,0.2-1.6,0.7-3.1c0.4-1.3,0.5-2.2,0.5-2.8c0-0.6-0.1-0.8-0.2-0.8
		c-0.2,0-0.4,0.1-0.6,0.3c-0.2,0.2-0.3,0.4-0.4,0.5c-0.1,0.1-0.3,0.3-0.4,0.6s-0.3,0.4-0.4,0.6c-0.1,0.2-0.2,0.4-0.4,0.7
		s-0.3,0.5-0.4,0.7s-0.2,0.4-0.4,0.7c-1.3,2.5-2.4,3.8-3.2,3.8c-0.3,0-0.7-0.3-1.2-0.8c-0.5-0.5-0.7-0.9-0.7-1.2
		c0-0.2,0.1-0.5,0.3-1c0.2-0.5,0.4-0.9,0.5-1.2c0.1-0.3,0.2-0.6,0.2-0.9c0.1-0.3,0.1-0.7,0.2-1s0.1-0.7,0.1-0.9c0-0.2,0-0.5,0.1-1
		c0.1-1.9,0.2-2.9,0.3-3.1c0.1-0.2,0.2-0.3,0.3-0.3c0.5,0,1.1,0.2,1.6,0.7s0.8,0.9,0.8,1.2c0,0.9-0.2,2.2-0.7,3.9
		c0.9-1.7,1.8-3,2.6-4.1C157.1,255.1,157.8,254.6,158.3,254.6z"/>
	<path d="M178.3,255.1c0.1-0.4,0.3-0.5,0.7-0.5c0.3,0,0.7,0.3,1.2,0.9s0.7,1.1,0.7,1.5c0,0.2-0.3,1.2-1,3.2s-1.2,3.5-1.5,4.7
		c-0.2,0.6-0.5,0.9-1,0.9c-0.3,0-0.5-0.1-0.7-0.3s-0.3-0.5-0.3-1s0.1-1.1,0.3-1.9c-1.5,2.1-2.7,3.2-3.6,3.2c-0.5,0-1-0.3-1.7-0.9
		c-0.7-0.6-1-1.2-1-1.7c0-1.4,0.4-3.2,1.2-5.3c0.8-2.2,1.5-3.2,2.2-3.2c0.4,0,0.8,0.2,1.1,0.6c0.3,0.4,0.5,0.8,0.5,1.2
		c0,0.2-0.2,0.7-0.5,1.5c-1.1,2.4-1.7,4.1-1.7,5.1c0,0.1,0,0.1,0.1,0.1c0.2,0,0.6-0.3,1.2-1c0.6-0.7,1.3-1.7,2-3
		S177.9,256.5,178.3,255.1z"/>
	<path d="M189.3,254.6c0.8,0,1.4,0.3,2,1c0.6,0.7,0.9,1.4,0.9,2.2c0,1.2-0.2,2.5-0.6,3.9c-0.4,1.3-0.8,2.4-1.3,3.1
		c-0.5,0.7-0.9,1.1-1.4,1.1c-0.5,0-0.7-0.3-0.7-1c0-0.5,0.2-1.6,0.7-3.1c0.4-1.3,0.5-2.2,0.5-2.8c0-0.6-0.1-0.8-0.2-0.8
		c-0.2,0-0.4,0.1-0.6,0.3c-0.2,0.2-0.3,0.4-0.4,0.5c-0.1,0.1-0.3,0.3-0.4,0.6s-0.3,0.4-0.4,0.6c-0.1,0.2-0.2,0.4-0.4,0.7
		s-0.3,0.5-0.4,0.7s-0.2,0.4-0.4,0.7c-1.3,2.5-2.4,3.8-3.2,3.8c-0.3,0-0.7-0.3-1.2-0.8c-0.5-0.5-0.7-0.9-0.7-1.2
		c0-0.2,0.1-0.5,0.3-1c0.2-0.5,0.4-0.9,0.5-1.2c0.1-0.3,0.2-0.6,0.2-0.9c0.1-0.3,0.1-0.7,0.2-1s0.1-0.7,0.1-0.9c0-0.2,0-0.5,0.1-1
		c0.1-1.9,0.2-2.9,0.3-3.1c0.1-0.2,0.2-0.3,0.3-0.3c0.5,0,1.1,0.2,1.6,0.7s0.8,0.9,0.8,1.2c0,0.9-0.2,2.2-0.7,3.9
		c0.9-1.7,1.8-3,2.6-4.1C188.1,255.1,188.7,254.6,189.3,254.6z"/>
	<path d="M209.9,260.6c-1,0.6-2,0.8-3,0.8c-1,0-1.8-0.1-2.5-0.2c-0.1,0.4-0.2,0.8-0.2,1.2c0,0.4,0.1,0.7,0.2,0.8
		c0.1,0.2,0.5,0.2,1,0.2c1.1,0,2-0.1,2.8-0.3c0.8-0.2,1.2-0.3,1.2-0.3c0.6,0,0.9,0.2,0.9,0.6c0,0.6-0.5,1.1-1.4,1.6
		c-0.9,0.5-2,0.8-3.2,0.8c-1.2,0-2.2-0.4-2.9-1.2c-0.7-0.8-1.1-1.7-1.1-2.7s0.3-2.1,0.9-3.3c0.6-1.1,1.4-2.1,2.3-2.9
		c0.9-0.8,1.8-1.2,2.8-1.2c0.9,0,1.8,0.5,2.6,1.4c0.8,0.9,1.2,1.8,1.2,2.7C211.4,259.4,210.9,260,209.9,260.6z M208.4,257.7
		c-0.3-0.3-0.6-0.4-0.9-0.4s-0.6,0.2-1,0.6c-0.4,0.4-0.8,0.9-1.2,1.5c0.1,0,0.3,0,0.6,0c2,0,3-0.3,3-1
		C208.9,258.2,208.7,257.9,208.4,257.7z"/>
	<path d="M209.7,269.3c0.5,0,1-0.8,1.5-2.4c0.5-1.6,1.1-3.6,1.6-6c0.6-2.4,1-4,1.2-4.7c0.2-0.7,0.4-1.1,0.5-1.3
		c0.1-0.2,0.3-0.3,0.5-0.3c0.4,0,0.9,0.3,1.3,0.8c0.4,0.6,0.6,1.2,0.6,1.8c0,0.3-1,3.7-2.9,10.4c-0.4,1.4-1,2.4-1.8,3.1
		c-0.8,0.6-1.8,1-2.8,1c-0.8,0-1.5-0.3-2.2-0.9c-0.7-0.6-1.1-1.2-1.1-1.7c0-0.3,0.1-0.7,0.4-1.1c0.2-0.4,0.5-0.6,0.7-0.6
		c0.2,0,0.6,0.3,1.1,0.9c0.1,0.2,0.2,0.3,0.2,0.3C209,269,209.4,269.3,209.7,269.3z M215.5,250.7c0.3-0.4,0.7-0.6,1-0.6
		c0.3,0,0.7,0.4,1.2,1.2c0.4,0.8,0.7,1.4,0.7,1.9c0,0.2-0.1,0.4-0.3,0.6c-0.2,0.2-0.5,0.3-0.7,0.3c-0.4,0-0.9-0.3-1.5-0.8
		c-0.6-0.6-0.8-1-0.8-1.4C215,251.5,215.2,251.1,215.5,250.7z"/>
	<path d="M226.2,260.6c-1,0.6-2,0.8-3,0.8s-1.8-0.1-2.5-0.2c-0.1,0.4-0.2,0.8-0.2,1.2c0,0.4,0.1,0.7,0.2,0.8c0.1,0.2,0.5,0.2,1,0.2
		c1.1,0,2-0.1,2.8-0.3c0.8-0.2,1.2-0.3,1.2-0.3c0.6,0,0.9,0.2,0.9,0.6c0,0.6-0.5,1.1-1.4,1.6s-2,0.8-3.2,0.8s-2.2-0.4-2.9-1.2
		c-0.7-0.8-1.1-1.7-1.1-2.7s0.3-2.1,0.9-3.3c0.6-1.1,1.4-2.1,2.3-2.9c0.9-0.8,1.8-1.2,2.8-1.2c0.9,0,1.8,0.5,2.6,1.4
		c0.8,0.9,1.2,1.8,1.2,2.7C227.6,259.4,227.1,260,226.2,260.6z M224.7,257.7c-0.3-0.3-0.6-0.4-0.9-0.4c-0.3,0-0.6,0.2-1,0.6
		s-0.8,0.9-1.2,1.5c0.1,0,0.3,0,0.6,0c2,0,3-0.3,3-1C225.1,258.2,225,257.9,224.7,257.7z"/>
	<path d="M229.7,258.3l-0.1-2.5c0-0.8,0.3-1.2,0.8-1.2c0.3,0,0.6,0.1,0.9,0.3c0.3,0.2,0.5,0.6,0.6,1c0.5-0.4,1-0.8,1.6-1.1
		c0.6-0.3,1.1-0.4,1.6-0.4c1.1,0,1.6,0.3,1.6,0.8c0,0.3,0,0.5-0.1,0.6s-0.2,0.2-0.2,0.3c-0.1,0.1-0.1,0.1-0.3,0.2
		c-0.1,0.1-0.2,0.2-0.3,0.2c-0.3,0.2-0.6,0.4-0.7,0.5c-0.7,0.4-1.2,0.9-1.7,1.5c-0.5,0.6-0.8,1.4-1,2.4c-0.4,1.7-0.8,2.9-1.1,3.7
		c-0.4,0.8-0.8,1.2-1.2,1.2s-0.8-0.2-1-0.7s-0.3-0.8-0.3-1.2c0-0.4,0.1-1,0.4-1.7c0.3-0.8,0.5-1.4,0.6-2
		C229.6,259.6,229.7,259,229.7,258.3z"/>
	<path d="M236.4,262.4c0-1,0.3-2.1,1-3.3c0.6-1.2,1.5-2.3,2.5-3.1c1-0.9,2.1-1.3,3.1-1.3c0.5,0,1,0.3,1.6,1c0.5,0.7,0.8,1.2,0.8,1.8
		c0,0.4-0.2,0.6-0.5,0.6c-0.2,0-0.4-0.1-0.7-0.2c-0.3-0.2-0.6-0.2-0.9-0.2c-0.3,0-0.8,0.3-1.4,0.8c-0.6,0.5-1.1,1.2-1.6,2
		s-0.7,1.4-0.7,1.8c0,0.4,0.1,0.7,0.3,0.8c0.2,0.1,0.6,0.2,1.2,0.2s1.2-0.1,1.8-0.2c0.5-0.1,0.9-0.2,1.2-0.4
		c0.3-0.1,0.5-0.2,0.7-0.2c0.4,0,0.6,0.2,0.6,0.5c0,0.6-0.6,1.3-1.7,1.9c-1.1,0.7-2.2,1-3.3,1c-0.7,0-1.5-0.4-2.4-1.2
		C236.8,263.8,236.4,263.1,236.4,262.4z"/>
	<path d="M249.4,254.6c0.5,0,1,0.3,1.4,0.9c0.4,0.6,0.6,1.1,0.6,1.7c0,0.3-0.2,1.3-0.7,3c-0.5,1.7-1,3.3-1.5,4.8
		c-0.2,0.6-0.5,0.8-1.1,0.8c-0.3,0-0.6-0.1-0.8-0.4s-0.4-0.5-0.4-0.9s0.2-1.3,0.6-2.9c0.4-1.5,0.7-2.8,0.8-3.9
		c0.2-1.1,0.4-1.9,0.5-2.4C249,254.8,249.2,254.6,249.4,254.6z M249.1,251.9c0-0.4,0.2-0.8,0.5-1.2c0.3-0.4,0.7-0.6,1-0.6
		c0.3,0,0.7,0.4,1.2,1.2c0.4,0.8,0.7,1.3,0.7,1.7c0,0.4-0.1,0.6-0.3,0.8c-0.2,0.2-0.5,0.3-0.7,0.3c-0.4,0-0.9-0.3-1.5-0.8
		C249.4,252.7,249.1,252.2,249.1,251.9z"/>
	<path d="M252.6,262.4c0-1,0.3-2.1,1-3.3c0.6-1.2,1.5-2.3,2.5-3.1c1-0.9,2.1-1.3,3.1-1.3c0.5,0,1,0.3,1.6,1c0.5,0.7,0.8,1.2,0.8,1.8
		c0,0.4-0.2,0.6-0.5,0.6c-0.2,0-0.4-0.1-0.7-0.2c-0.3-0.2-0.6-0.2-0.9-0.2c-0.3,0-0.8,0.3-1.4,0.8c-0.6,0.5-1.1,1.2-1.6,2
		s-0.7,1.4-0.7,1.8c0,0.4,0.1,0.7,0.3,0.8c0.2,0.1,0.6,0.2,1.2,0.2s1.2-0.1,1.8-0.2c0.5-0.1,0.9-0.2,1.2-0.4
		c0.3-0.1,0.5-0.2,0.7-0.2c0.4,0,0.6,0.2,0.6,0.5c0,0.6-0.6,1.3-1.7,1.9c-1.1,0.7-2.2,1-3.3,1c-0.7,0-1.5-0.4-2.4-1.2
		C253.1,263.8,252.6,263.1,252.6,262.4z"/>
	<path d="M265.7,254.6c0.5,0,1,0.3,1.4,0.9c0.4,0.6,0.6,1.1,0.6,1.7c0,0.3-0.2,1.3-0.7,3c-0.5,1.7-1,3.3-1.5,4.8
		c-0.2,0.6-0.5,0.8-1.1,0.8c-0.3,0-0.6-0.1-0.8-0.4s-0.4-0.5-0.4-0.9s0.2-1.3,0.6-2.9c0.4-1.5,0.7-2.8,0.8-3.9
		c0.2-1.1,0.4-1.9,0.5-2.4C265.3,254.8,265.5,254.6,265.7,254.6z M265.4,251.9c0-0.4,0.2-0.8,0.5-1.2c0.3-0.4,0.7-0.6,1-0.6
		c0.3,0,0.7,0.4,1.2,1.2c0.4,0.8,0.7,1.3,0.7,1.7c0,0.4-0.1,0.6-0.3,0.8c-0.2,0.2-0.5,0.3-0.7,0.3c-0.4,0-0.9-0.3-1.5-0.8
		C265.6,252.7,265.4,252.2,265.4,251.9z"/>
	<path d="M270.5,257c1.1-1.6,2.2-2.4,3.3-2.4c1.1,0,2,0.4,2.8,1.2s1.1,1.7,1.1,2.8c0,1.1-0.3,2.2-0.8,3.3s-1.3,2.1-2.2,2.8
		s-1.9,1.1-3,1.1c-0.8,0-1.5-0.4-2.1-1.1c-0.6-0.7-0.9-1.6-0.9-2.6C268.8,260.3,269.3,258.6,270.5,257z M274,261.5
		c0.6-1.1,0.9-2,0.9-3s-0.1-1.6-0.4-1.9c-0.6,0.4-1.2,1.1-1.9,2.3s-0.9,2.2-0.9,3.1s0.1,1.4,0.3,1.7
		C272.7,263.2,273.4,262.5,274,261.5z"/>
	<path d="M74.2,273.8c0.3,0,0.8,0.3,1.4,0.9c0.6,0.6,0.8,1.2,0.8,1.8c0,0.3-0.3,1.4-0.8,3.4c-0.5,2-0.8,3.2-0.9,3.6
		c-1.2,5-2,7.5-2.5,7.5c-0.3,0-0.6-0.2-1-0.5c-0.4-0.4-0.6-0.7-0.6-1.1c0-0.1,0-0.1,0-0.2c-1.4,1.2-2.5,1.8-3.1,1.8s-1.2-0.3-1.8-1
		s-0.9-1.3-0.9-1.8c0-0.5,0.1-1.2,0.2-1.8c0.2-0.7,0.4-1.4,0.7-2.1c0.3-0.8,0.7-1.5,1.1-2.1c0.4-0.7,0.9-1.2,1.5-1.6
		c0.6-0.4,1.2-0.6,1.8-0.6c0.9,0,1.7,0.5,2.3,1.4c0.8-3.4,1.2-5.7,1.1-6.8C73.5,274.1,73.7,273.8,74.2,273.8z M67.8,288.4
		c0.4,0,1-0.3,1.8-0.9c0.9-0.6,1.5-1.4,1.9-2.4c0-0.1,0-0.4,0-0.8c0-0.4-0.1-0.8-0.4-1.1c-0.3-0.3-0.5-0.5-0.7-0.5
		c-0.4,0-0.9,0.2-1.2,0.7c-0.4,0.5-0.7,1-0.9,1.7c-0.5,1.3-0.7,2.4-0.7,3.1c0,0.1,0,0.2,0.1,0.2S67.6,288.4,67.8,288.4z"/>
	<path d="M84.9,285.9c-1,0.6-2,0.8-3,0.8c-1,0-1.8-0.1-2.5-0.2c-0.1,0.4-0.2,0.8-0.2,1.2c0,0.4,0.1,0.7,0.2,0.8
		c0.1,0.2,0.5,0.2,1,0.2c1.1,0,2-0.1,2.8-0.3c0.8-0.2,1.2-0.3,1.2-0.3c0.6,0,0.9,0.2,0.9,0.6c0,0.6-0.5,1.1-1.4,1.6
		c-0.9,0.5-2,0.8-3.2,0.8c-1.2,0-2.2-0.4-2.9-1.2c-0.7-0.8-1.1-1.7-1.1-2.7s0.3-2.1,0.9-3.3c0.6-1.1,1.4-2.1,2.3-2.9
		c0.9-0.8,1.8-1.2,2.8-1.2c0.9,0,1.8,0.5,2.6,1.4c0.8,0.9,1.2,1.8,1.2,2.7C86.3,284.7,85.8,285.3,84.9,285.9z M83.4,283
		c-0.3-0.3-0.6-0.4-0.9-0.4s-0.6,0.2-1,0.6c-0.4,0.4-0.8,0.9-1.2,1.5c0.1,0,0.3,0,0.6,0c2,0,3-0.3,3-1
		C83.8,283.5,83.7,283.3,83.4,283z"/>
	<path d="M104.8,285c0.3,0.2,0.4,0.4,0.4,0.6c0,0.2-0.1,0.6-0.3,1.2c-0.2,0.6-0.3,1.1-0.3,1.4c-0.1,0.3-0.1,0.6-0.1,0.8
		c0,0.2-0.1,0.3-0.1,0.4c0,0.1,0,0.2-0.1,0.4s-0.1,0.3-0.1,0.4c0,0.1-0.1,0.2-0.1,0.3c0,0.1-0.1,0.2-0.1,0.3s-0.1,0.1-0.2,0.2
		c-0.1,0.1-0.2,0.2-0.4,0.2c-0.2,0-0.5-0.2-0.7-0.6c-0.3-0.4-0.5-0.9-0.7-1.5c-1.4,1.4-2.5,2.1-3.4,2.1c-0.6,0-1.3-0.3-2-1
		s-1.1-1.4-1.1-2.1s0.3-1.7,0.9-2.9s1.5-2.5,2.6-3.5s2.1-1.6,3.2-1.6c0.6,0,1.3,0.4,2.1,1.1c0.8,0.7,1.2,1.4,1.2,1.9
		C105.4,283.5,105.2,284.2,104.8,285z M98.5,288.4c0.6,0,1.3-0.4,2.3-1.2c1-0.8,1.6-1.8,1.8-3c0-0.2,0.1-0.3,0.4-0.3
		c0-0.8-0.2-1.2-0.4-1.2c-0.6,0-1.2,0.4-1.9,1.1c-0.7,0.8-1.3,1.6-1.8,2.4c-0.5,0.9-0.7,1.5-0.7,1.9c0,0.1,0,0.2,0.1,0.2
		C98.2,288.4,98.3,288.4,98.5,288.4z"/>
	<path d="M113.6,279.9c0.6,0,1.1,0.3,1.6,1c0.5,0.7,0.8,1.2,0.8,1.8c0,0.3-0.2,0.5-0.5,0.5c-0.2,0-0.4-0.1-0.8-0.2
		c-0.3-0.1-0.7-0.2-1-0.2c-0.3,0-0.8,0.1-1.5,0.3c-0.7,0.2-1,0.5-1,0.9c0,0.1,0.2,0.4,0.6,0.6c0.4,0.3,0.8,0.6,1.3,0.8
		c0.5,0.3,0.9,0.7,1.3,1.2c0.4,0.5,0.6,1.1,0.6,1.7c0,0.6-0.4,1.2-1.3,1.8s-1.9,0.9-3.1,0.9s-2.2-0.3-3-0.8
		c-0.8-0.5-1.3-1.1-1.3-1.7s0.2-0.8,0.7-0.8c0.2,0,0.4,0.1,0.7,0.2c0.7,0.4,1.6,0.6,2.7,0.6c1.1,0,1.6-0.1,1.6-0.4
		c0-0.3-0.2-0.6-0.6-1s-0.9-0.7-1.3-1c-0.5-0.3-0.9-0.7-1.3-1.1c-0.4-0.4-0.6-0.9-0.6-1.3c0-0.8,0.7-1.6,2.1-2.6
		C111.6,280.4,112.7,279.9,113.6,279.9z"/>
	<path d="M118.3,282.3c1.1-1.6,2.2-2.4,3.3-2.4c1.1,0,2,0.4,2.8,1.2c0.8,0.8,1.1,1.7,1.1,2.8c0,1.1-0.3,2.2-0.8,3.3
		c-0.5,1.1-1.3,2.1-2.2,2.8c-0.9,0.7-1.9,1.1-3,1.1c-0.8,0-1.5-0.4-2.1-1.1c-0.6-0.7-0.9-1.6-0.9-2.6
		C116.7,285.7,117.2,284,118.3,282.3z M121.9,286.8c0.6-1.1,0.9-2,0.9-3s-0.1-1.6-0.4-1.9c-0.6,0.4-1.2,1.1-1.9,2.3
		c-0.6,1.2-0.9,2.2-0.9,3.1s0.1,1.4,0.3,1.7C120.6,288.6,121.3,287.9,121.9,286.8z"/>
	<path d="M126.7,287.7c0-1,0.3-2.1,1-3.3c0.6-1.2,1.5-2.3,2.5-3.1c1-0.9,2.1-1.3,3.1-1.3c0.5,0,1,0.3,1.6,1c0.5,0.7,0.8,1.2,0.8,1.8
		c0,0.4-0.2,0.6-0.5,0.6c-0.2,0-0.4-0.1-0.7-0.2c-0.3-0.2-0.6-0.2-0.9-0.2s-0.8,0.3-1.4,0.8c-0.6,0.5-1.1,1.2-1.6,2
		s-0.7,1.4-0.7,1.8c0,0.4,0.1,0.7,0.3,0.8c0.2,0.1,0.6,0.2,1.2,0.2s1.2-0.1,1.8-0.2c0.5-0.1,0.9-0.2,1.2-0.4
		c0.3-0.1,0.5-0.2,0.7-0.2c0.4,0,0.6,0.2,0.6,0.5c0,0.6-0.6,1.3-1.7,1.9c-1.1,0.7-2.2,1-3.3,1c-0.7,0-1.5-0.4-2.4-1.2
		C127.1,289.2,126.7,288.4,126.7,287.7z"/>
	<path d="M139.7,279.9c0.5,0,1,0.3,1.4,0.9c0.4,0.6,0.6,1.1,0.6,1.7c0,0.3-0.3,1.3-0.7,3s-1,3.3-1.5,4.8c-0.2,0.6-0.5,0.8-1.1,0.8
		c-0.3,0-0.6-0.1-0.8-0.4s-0.4-0.5-0.4-0.9s0.2-1.3,0.6-2.9c0.4-1.5,0.7-2.8,0.8-3.9c0.2-1.1,0.4-1.9,0.5-2.4
		C139.3,280.2,139.5,279.9,139.7,279.9z M139.4,277.2c0-0.4,0.2-0.8,0.5-1.2c0.3-0.4,0.7-0.6,1-0.6s0.7,0.4,1.2,1.2
		c0.4,0.8,0.7,1.3,0.7,1.7c0,0.4-0.1,0.6-0.3,0.8c-0.2,0.2-0.5,0.3-0.7,0.3c-0.4,0-0.9-0.3-1.5-0.8
		C139.7,278,139.4,277.6,139.4,277.2z"/>
	<path d="M152.2,285c0.3,0.2,0.4,0.4,0.4,0.6c0,0.2-0.1,0.6-0.3,1.2c-0.2,0.6-0.3,1.1-0.3,1.4c-0.1,0.3-0.1,0.6-0.1,0.8
		c0,0.2-0.1,0.3-0.1,0.4c0,0.1,0,0.2-0.1,0.4s-0.1,0.3-0.1,0.4c0,0.1-0.1,0.2-0.1,0.3c0,0.1-0.1,0.2-0.1,0.3s-0.1,0.1-0.2,0.2
		c-0.1,0.1-0.2,0.2-0.4,0.2c-0.2,0-0.5-0.2-0.7-0.6c-0.3-0.4-0.5-0.9-0.7-1.5c-1.4,1.4-2.5,2.1-3.4,2.1c-0.6,0-1.3-0.3-2-1
		s-1.1-1.4-1.1-2.1s0.3-1.7,0.9-2.9s1.5-2.5,2.6-3.5s2.1-1.6,3.2-1.6c0.6,0,1.3,0.4,2.1,1.1c0.8,0.7,1.2,1.4,1.2,1.9
		C152.8,283.5,152.6,284.2,152.2,285z M145.9,288.4c0.6,0,1.3-0.4,2.3-1.2c1-0.8,1.6-1.8,1.8-3c0-0.2,0.1-0.3,0.4-0.3
		c0-0.8-0.2-1.2-0.4-1.2c-0.6,0-1.2,0.4-1.9,1.1c-0.7,0.8-1.3,1.6-1.8,2.4c-0.5,0.9-0.7,1.5-0.7,1.9c0,0.1,0,0.2,0.1,0.2
		C145.6,288.4,145.7,288.4,145.9,288.4z"/>
	<path d="M154,287.7c0-1,0.3-2.1,1-3.3c0.6-1.2,1.5-2.3,2.5-3.1c1-0.9,2.1-1.3,3.1-1.3c0.5,0,1,0.3,1.6,1c0.5,0.7,0.8,1.2,0.8,1.8
		c0,0.4-0.2,0.6-0.5,0.6c-0.2,0-0.4-0.1-0.7-0.2c-0.3-0.2-0.6-0.2-0.9-0.2s-0.8,0.3-1.4,0.8c-0.6,0.5-1.1,1.2-1.6,2
		s-0.7,1.4-0.7,1.8c0,0.4,0.1,0.7,0.3,0.8c0.2,0.1,0.6,0.2,1.2,0.2s1.2-0.1,1.8-0.2c0.5-0.1,0.9-0.2,1.2-0.4
		c0.3-0.1,0.5-0.2,0.7-0.2c0.4,0,0.6,0.2,0.6,0.5c0,0.6-0.6,1.3-1.7,1.9c-1.1,0.7-2.2,1-3.3,1c-0.7,0-1.5-0.4-2.4-1.2
		C154.5,289.2,154,288.4,154,287.7z"/>
	<path d="M167.1,279.9c0.5,0,1,0.3,1.4,0.9c0.4,0.6,0.6,1.1,0.6,1.7c0,0.3-0.3,1.3-0.7,3s-1,3.3-1.5,4.8c-0.2,0.6-0.5,0.8-1.1,0.8
		c-0.3,0-0.6-0.1-0.8-0.4s-0.4-0.5-0.4-0.9s0.2-1.3,0.6-2.9c0.4-1.5,0.7-2.8,0.8-3.9c0.2-1.1,0.4-1.9,0.5-2.4
		C166.7,280.2,166.9,279.9,167.1,279.9z M166.8,277.2c0-0.4,0.2-0.8,0.5-1.2c0.3-0.4,0.7-0.6,1-0.6s0.7,0.4,1.2,1.2
		c0.4,0.8,0.7,1.3,0.7,1.7c0,0.4-0.1,0.6-0.3,0.8c-0.2,0.2-0.5,0.3-0.7,0.3c-0.4,0-0.9-0.3-1.5-0.8C167,278,166.8,277.6,166.8,277.2
		z"/>
	<path d="M171.9,282.3c1.1-1.6,2.2-2.4,3.3-2.4c1.1,0,2,0.4,2.8,1.2c0.8,0.8,1.1,1.7,1.1,2.8c0,1.1-0.3,2.2-0.8,3.3
		c-0.5,1.1-1.3,2.1-2.2,2.8c-0.9,0.7-1.9,1.1-3,1.1c-0.8,0-1.5-0.4-2.1-1.1c-0.6-0.7-0.9-1.6-0.9-2.6
		C170.2,285.7,170.7,284,171.9,282.3z M175.4,286.8c0.6-1.1,0.9-2,0.9-3s-0.1-1.6-0.4-1.9c-0.6,0.4-1.2,1.1-1.9,2.3
		c-0.6,1.2-0.9,2.2-0.9,3.1s0.1,1.4,0.3,1.7C174.1,288.6,174.8,287.9,175.4,286.8z M176.5,279.4c-0.2,0-0.4-0.1-0.6-0.3
		c-0.2-0.2-0.2-0.5-0.2-0.7s0.1-0.6,0.3-0.8c0.2-0.3,0.4-0.5,0.8-0.8c0.4-0.3,0.7-0.6,0.9-0.8c0.3-0.2,0.5-0.4,0.6-0.5
		c0.1-0.1,0.3-0.2,0.4-0.4c0.2-0.1,0.3-0.2,0.4-0.3c0.2-0.1,0.4-0.2,0.6-0.2c0.3,0,0.7,0.2,1,0.6s0.4,0.8,0.4,1.1s0,0.5-0.1,0.7
		c-0.1,0.1-0.2,0.3-0.3,0.4c-0.2,0.1-0.4,0.2-0.5,0.3s-0.4,0.2-0.8,0.4c-0.4,0.2-0.7,0.4-1,0.5c-0.2,0.1-0.5,0.3-0.7,0.4
		C177.1,279.2,176.8,279.4,176.5,279.4z"/>
	<path d="M188.1,279.9c0.8,0,1.4,0.3,2,1c0.6,0.7,0.9,1.4,0.9,2.2c0,1.2-0.2,2.5-0.6,3.9c-0.4,1.3-0.8,2.4-1.3,3.1
		c-0.5,0.7-0.9,1.1-1.4,1.1c-0.5,0-0.7-0.3-0.7-1c0-0.5,0.2-1.6,0.7-3.1c0.4-1.3,0.5-2.2,0.5-2.8c0-0.6-0.1-0.8-0.2-0.8
		c-0.2,0-0.4,0.1-0.6,0.3c-0.2,0.2-0.3,0.4-0.4,0.5c-0.1,0.1-0.3,0.3-0.4,0.6s-0.3,0.4-0.4,0.6c-0.1,0.2-0.2,0.4-0.4,0.7
		s-0.3,0.5-0.4,0.7s-0.2,0.4-0.4,0.7c-1.3,2.5-2.4,3.8-3.2,3.8c-0.3,0-0.7-0.3-1.2-0.8c-0.5-0.5-0.7-0.9-0.7-1.2
		c0-0.2,0.1-0.5,0.3-1c0.2-0.5,0.4-0.9,0.5-1.2c0.1-0.3,0.2-0.6,0.2-0.9c0.1-0.3,0.1-0.7,0.2-1s0.1-0.7,0.1-0.9c0-0.2,0-0.5,0.1-1
		c0.1-1.9,0.2-2.9,0.3-3.1c0.1-0.2,0.2-0.3,0.3-0.3c0.5,0,1.1,0.2,1.6,0.7s0.8,0.9,0.8,1.2c0,0.9-0.2,2.2-0.7,3.9
		c0.9-1.7,1.8-3,2.6-4.1C186.9,280.4,187.6,279.9,188.1,279.9z"/>
	<path d="M208.8,285.9c-1,0.6-2,0.8-3,0.8c-1,0-1.8-0.1-2.5-0.2c-0.1,0.4-0.2,0.8-0.2,1.2c0,0.4,0.1,0.7,0.2,0.8
		c0.1,0.2,0.5,0.2,1,0.2c1.1,0,2-0.1,2.8-0.3c0.8-0.2,1.2-0.3,1.2-0.3c0.6,0,0.9,0.2,0.9,0.6c0,0.6-0.5,1.1-1.4,1.6
		c-0.9,0.5-2,0.8-3.2,0.8c-1.2,0-2.2-0.4-2.9-1.2c-0.7-0.8-1.1-1.7-1.1-2.7s0.3-2.1,0.9-3.3c0.6-1.1,1.4-2.1,2.3-2.9
		c0.9-0.8,1.8-1.2,2.8-1.2c0.9,0,1.8,0.5,2.6,1.4c0.8,0.9,1.2,1.8,1.2,2.7C210.2,284.7,209.7,285.3,208.8,285.9z M207.2,283
		c-0.3-0.3-0.6-0.4-0.9-0.4s-0.6,0.2-1,0.6c-0.4,0.4-0.8,0.9-1.2,1.5c0.1,0,0.3,0,0.6,0c2,0,3-0.3,3-1
		C207.7,283.5,207.5,283.3,207.2,283z"/>
	<path d="M219.1,279.9c0.8,0,1.4,0.3,2,1c0.6,0.7,0.9,1.4,0.9,2.2c0,1.2-0.2,2.5-0.6,3.9c-0.4,1.3-0.8,2.4-1.3,3.1
		c-0.5,0.7-0.9,1.1-1.4,1.1c-0.5,0-0.7-0.3-0.7-1c0-0.5,0.2-1.6,0.7-3.1c0.4-1.3,0.5-2.2,0.5-2.8c0-0.6-0.1-0.8-0.2-0.8
		c-0.2,0-0.4,0.1-0.6,0.3c-0.2,0.2-0.3,0.4-0.4,0.5s-0.3,0.3-0.4,0.6c-0.2,0.2-0.3,0.4-0.4,0.6c-0.1,0.2-0.2,0.4-0.4,0.7
		s-0.3,0.5-0.4,0.7s-0.2,0.4-0.4,0.7c-1.3,2.5-2.4,3.8-3.2,3.8c-0.3,0-0.7-0.3-1.2-0.8c-0.5-0.5-0.7-0.9-0.7-1.2
		c0-0.2,0.1-0.5,0.3-1c0.2-0.5,0.4-0.9,0.5-1.2c0.1-0.3,0.2-0.6,0.2-0.9c0.1-0.3,0.1-0.7,0.2-1s0.1-0.7,0.1-0.9c0-0.2,0-0.5,0.1-1
		c0.1-1.9,0.2-2.9,0.3-3.1c0.1-0.2,0.2-0.3,0.3-0.3c0.5,0,1.1,0.2,1.6,0.7c0.5,0.5,0.8,0.9,0.8,1.2c0,0.9-0.2,2.2-0.7,3.9
		c0.9-1.7,1.8-3,2.6-4.1C217.9,280.4,218.5,279.9,219.1,279.9z"/>
	<path d="M228.2,284.1c-0.2,0.7-0.5,1.6-0.8,2.6c-0.3,1.1-0.5,1.6-0.5,1.7s0.1,0.1,0.4,0.1c0.2,0,0.8-0.2,1.7-0.5
		c0.9-0.3,1.4-0.5,1.6-0.5c0.4,0,0.5,0.2,0.5,0.7c0,0.5-0.5,1.1-1.5,1.8c-1,0.7-2,1-3,1c-0.5,0-1-0.3-1.7-0.8s-1-1-1-1.5
		c0-0.4,0.2-1.3,0.7-2.7s0.7-2.4,0.9-2.9c-0.6,0.2-1,0.2-1.3,0.2c-0.3,0-0.6-0.2-0.9-0.6c-0.3-0.4-0.5-0.8-0.5-1.1
		c0-0.5,1.1-0.9,3.4-1.2c0.3-1.3,0.4-2.5,0.4-3.5c0-0.4,0.2-0.7,0.7-0.7c0.4,0,0.9,0.2,1.4,0.7c0.6,0.5,0.9,0.9,0.9,1.3
		c0,0.4-0.1,1.1-0.3,1.9c0.7,0,1.2,0,1.6,0c1.1,0,1.6,0.2,1.6,0.7c0,0.3-0.3,0.6-0.9,0.8c-0.6,0.2-1.6,0.5-2.9,0.7
		C228.6,282.9,228.5,283.4,228.2,284.1z"/>
	<path d="M234.1,283.6l-0.1-2.5c0-0.8,0.3-1.2,0.8-1.2c0.3,0,0.6,0.1,0.9,0.3c0.3,0.2,0.5,0.6,0.6,1c0.5-0.4,1-0.8,1.6-1.1
		c0.6-0.3,1.1-0.4,1.6-0.4c1.1,0,1.6,0.3,1.6,0.8c0,0.3,0,0.5-0.1,0.6s-0.2,0.2-0.2,0.3c-0.1,0.1-0.1,0.1-0.3,0.2
		c-0.1,0.1-0.2,0.2-0.3,0.2c-0.3,0.2-0.6,0.4-0.7,0.5c-0.7,0.4-1.2,0.9-1.7,1.5c-0.5,0.6-0.8,1.4-1,2.4c-0.4,1.7-0.8,2.9-1.1,3.7
		c-0.4,0.8-0.8,1.2-1.2,1.2s-0.8-0.2-1-0.7s-0.3-0.8-0.3-1.2c0-0.4,0.1-1,0.4-1.7c0.3-0.8,0.5-1.4,0.6-2
		C234.1,285,234.1,284.3,234.1,283.6z"/>
	<path d="M249.1,285.9c-1,0.6-2,0.8-3,0.8s-1.8-0.1-2.5-0.2c-0.1,0.4-0.2,0.8-0.2,1.2c0,0.4,0.1,0.7,0.2,0.8c0.1,0.2,0.5,0.2,1,0.2
		c1.1,0,2-0.1,2.8-0.3c0.8-0.2,1.2-0.3,1.2-0.3c0.6,0,0.9,0.2,0.9,0.6c0,0.6-0.5,1.1-1.4,1.6s-2,0.8-3.2,0.8s-2.2-0.4-2.9-1.2
		c-0.7-0.8-1.1-1.7-1.1-2.7s0.3-2.1,0.9-3.3c0.6-1.1,1.4-2.1,2.3-2.9c0.9-0.8,1.8-1.2,2.8-1.2c0.9,0,1.8,0.5,2.6,1.4
		c0.8,0.9,1.2,1.8,1.2,2.7C250.5,284.7,250,285.3,249.1,285.9z M247.5,283c-0.3-0.3-0.6-0.4-0.9-0.4c-0.3,0-0.6,0.2-1,0.6
		s-0.8,0.9-1.2,1.5c0.1,0,0.3,0,0.6,0c2,0,3-0.3,3-1C248,283.5,247.8,283.3,247.5,283z"/>
	<path d="M68.9,300.1c0.5,0.6,0.8,1.2,0.8,1.8s-0.1,1.6-0.3,3.1s-0.4,2.7-0.5,3.6c-1.2,5.2-2,7.9-2.5,7.9c-0.3,0-0.7-0.3-1.2-0.8
		c-0.5-0.5-0.7-0.9-0.7-1.3c0,0,0.2-0.8,0.6-2.3c0.4-1.5,0.8-3.4,1.2-5.7c0.4-2.3,0.6-4.5,0.6-6.7c0-0.4,0.2-0.6,0.7-0.6
		C67.9,299.2,68.4,299.5,68.9,300.1z"/>
	<path d="M71.9,307.7c1.1-1.6,2.2-2.4,3.3-2.4c1.1,0,2,0.4,2.8,1.2c0.8,0.8,1.1,1.7,1.1,2.8c0,1.1-0.3,2.2-0.8,3.3
		c-0.5,1.1-1.3,2.1-2.2,2.8c-0.9,0.7-1.9,1.1-3,1.1c-0.8,0-1.5-0.4-2.1-1.1c-0.6-0.7-0.9-1.6-0.9-2.6
		C70.2,311,70.8,309.3,71.9,307.7z M75.4,312.1c0.6-1.1,0.9-2,0.9-3s-0.1-1.6-0.4-1.9c-0.6,0.4-1.2,1.1-1.9,2.3
		c-0.6,1.2-0.9,2.2-0.9,3.1s0.1,1.4,0.3,1.7C74.1,313.9,74.8,313.2,75.4,312.1z"/>
	<path d="M87.1,305.3c0.6,0,1.1,0.3,1.6,1c0.5,0.7,0.8,1.2,0.8,1.8c0,0.3-0.2,0.5-0.5,0.5c-0.2,0-0.4-0.1-0.8-0.2
		c-0.3-0.1-0.7-0.2-1-0.2c-0.3,0-0.8,0.1-1.5,0.3c-0.7,0.2-1,0.5-1,0.9c0,0.1,0.2,0.4,0.6,0.6c0.4,0.3,0.8,0.6,1.3,0.8
		c0.5,0.3,0.9,0.7,1.3,1.2c0.4,0.5,0.6,1.1,0.6,1.7c0,0.6-0.4,1.2-1.3,1.8s-1.9,0.9-3.1,0.9s-2.2-0.3-3-0.8
		c-0.8-0.5-1.3-1.1-1.3-1.7s0.2-0.8,0.7-0.8c0.2,0,0.4,0.1,0.7,0.2c0.7,0.4,1.6,0.6,2.7,0.6c1.1,0,1.6-0.1,1.6-0.4
		c0-0.3-0.2-0.6-0.6-1s-0.9-0.7-1.3-1c-0.5-0.3-0.9-0.7-1.3-1.1c-0.4-0.4-0.6-0.9-0.6-1.3c0-0.8,0.7-1.6,2.1-2.6
		C85.2,305.7,86.3,305.3,87.1,305.3z"/>
	<path d="M103,316.4c-1.1,0-2-0.5-2.9-1.6c-0.8-1-1.3-2.1-1.3-3.1c0-1.3,0.3-2.7,0.8-4.1c0.5-1.4,1.1-2.6,1.9-3.6
		c0.8-1,1.6-1.9,2.5-2.5s1.8-1,2.5-1c1.4,0,2.6,0.6,3.5,1.8c0.9,1.2,1.3,2.5,1.3,4s-0.4,3-1.1,4.5c-0.8,1.5-1.8,2.8-3.1,3.9
		S104.4,316.4,103,316.4z M105.1,312.7c0.8-0.7,1.6-1.7,2.2-2.8s0.9-2.2,0.9-3.3c0-1-0.1-1.8-0.4-2.4c-0.3-0.6-0.6-0.8-1.1-0.8
		s-1.1,0.4-1.8,1.2c-0.7,0.8-1.4,1.9-2,3.3c-0.6,1.3-0.9,2.6-0.9,3.9c0,0.6,0.1,1.1,0.3,1.5s0.4,0.6,0.7,0.6
		C103.6,313.8,104.3,313.4,105.1,312.7z M108.6,299.6c-0.2,0-0.4-0.1-0.6-0.3c-0.2-0.2-0.3-0.5-0.3-0.7s0.1-0.6,0.3-0.8
		c0.2-0.3,0.4-0.5,0.8-0.8c0.4-0.3,0.7-0.6,0.9-0.8c0.3-0.2,0.5-0.4,0.6-0.5s0.3-0.2,0.4-0.4c0.2-0.1,0.3-0.2,0.4-0.3
		c0.2-0.1,0.4-0.2,0.6-0.2c0.3,0,0.7,0.2,1,0.6s0.4,0.8,0.4,1.1s0,0.5-0.1,0.7s-0.2,0.3-0.3,0.4c-0.2,0.1-0.4,0.2-0.5,0.3
		c-0.2,0.1-0.4,0.2-0.8,0.4c-0.4,0.2-0.7,0.4-1,0.5c-0.2,0.1-0.5,0.3-0.7,0.4C109.2,299.4,108.8,299.6,108.6,299.6z"/>
	<path d="M113.3,308.9l-0.1-2.5c0-0.8,0.3-1.2,0.8-1.2c0.3,0,0.6,0.1,0.9,0.3c0.3,0.2,0.5,0.6,0.6,1c0.5-0.4,1-0.8,1.6-1.1
		c0.6-0.3,1.1-0.4,1.6-0.4c1.1,0,1.6,0.3,1.6,0.8c0,0.3,0,0.5-0.1,0.6s-0.2,0.2-0.2,0.3c-0.1,0.1-0.1,0.1-0.3,0.2
		c-0.1,0.1-0.2,0.2-0.3,0.2c-0.3,0.2-0.6,0.4-0.7,0.5c-0.7,0.4-1.2,0.9-1.7,1.5c-0.5,0.6-0.8,1.4-1,2.4c-0.4,1.7-0.8,2.9-1.1,3.7
		c-0.4,0.8-0.8,1.2-1.2,1.2s-0.8-0.2-1-0.7c-0.2-0.4-0.3-0.8-0.3-1.2c0-0.4,0.1-1,0.4-1.7c0.3-0.8,0.5-1.4,0.6-2
		C113.3,310.3,113.3,309.7,113.3,308.9z"/>
	<path d="M128.6,309.9c0.2,0.2,0.3,0.5,0.3,0.9c0,0.3-0.1,0.8-0.4,1.3c-0.4,0.9-0.7,1.9-1,3.2c-0.3,1.3-0.5,2.3-0.8,3.1
		c-0.3,0.8-0.6,1.4-0.9,2c-0.3,0.5-0.7,1-1.3,1.4c-0.5,0.4-1.2,0.5-1.8,0.5c-1,0-1.8-0.3-2.6-1c-0.8-0.6-1.2-1.2-1.2-1.6
		s0.1-0.9,0.4-1.2s0.5-0.6,0.7-0.6s0.4,0.1,0.6,0.3c0.2,0.2,0.4,0.5,0.5,0.8c0.2,0.3,0.4,0.5,0.7,0.7c0.3,0.2,0.6,0.3,0.9,0.3
		s0.6-0.2,0.9-0.7c0.3-0.4,0.5-0.9,0.6-1.4c0.4-1.2,0.6-2,0.7-2.5c-1,0.6-1.8,0.9-2.4,0.9c-0.6,0-1.2-0.3-1.8-1
		c-0.6-0.7-0.9-1.3-0.9-1.9s0.2-1.4,0.5-2.3c0.3-0.9,0.7-1.8,1.3-2.7c0.5-0.9,1.2-1.7,2-2.3c0.8-0.7,1.6-1,2.4-1
		c0.5,0,1,0.1,1.4,0.4c0.4,0.3,0.7,0.6,0.8,1.1c0.3,0.8,0.5,1.7,0.5,2.6C128.6,309.5,128.6,309.7,128.6,309.9z M122.6,313.4
		c0,0.2,0.1,0.3,0.2,0.3c0.4,0,1.1-0.4,2-1.2c0.9-0.8,1.6-1.5,1.9-2.3v-0.4c0-0.9-0.1-1.5-0.3-1.7c-0.1-0.1-0.2-0.2-0.3-0.2
		c-0.7,0-1.5,0.7-2.3,2.2C123,311.7,122.6,312.7,122.6,313.4z"/>
	<path d="M139.7,310.3c0.3,0.2,0.4,0.4,0.4,0.6c0,0.2-0.1,0.6-0.3,1.2c-0.2,0.6-0.3,1.1-0.3,1.4c-0.1,0.3-0.1,0.6-0.1,0.8
		c0,0.2-0.1,0.3-0.1,0.4c0,0.1,0,0.2-0.1,0.4s-0.1,0.3-0.1,0.4c0,0.1-0.1,0.2-0.1,0.3c0,0.1-0.1,0.2-0.1,0.3s-0.1,0.1-0.2,0.2
		c-0.1,0.1-0.2,0.2-0.4,0.2c-0.2,0-0.5-0.2-0.7-0.6c-0.3-0.4-0.5-0.9-0.7-1.5c-1.4,1.4-2.5,2.1-3.4,2.1c-0.6,0-1.3-0.3-2-1
		s-1.1-1.4-1.1-2.1s0.3-1.7,0.9-2.9s1.5-2.5,2.6-3.5s2.1-1.6,3.2-1.6c0.6,0,1.3,0.4,2.1,1.1c0.8,0.7,1.2,1.4,1.2,1.9
		C140.3,308.9,140.1,309.5,139.7,310.3z M133.4,313.7c0.6,0,1.3-0.4,2.3-1.2c1-0.8,1.6-1.8,1.8-3c0-0.2,0.1-0.3,0.4-0.3
		c0-0.8-0.2-1.2-0.4-1.2c-0.6,0-1.2,0.4-1.9,1.1c-0.7,0.8-1.3,1.6-1.8,2.4c-0.5,0.9-0.7,1.5-0.7,1.9c0,0.1,0,0.2,0.1,0.2
		C133.1,313.7,133.2,313.7,133.4,313.7z"/>
	<path d="M149.5,305.3c0.8,0,1.4,0.3,2,1c0.6,0.7,0.9,1.4,0.9,2.2c0,1.2-0.2,2.5-0.6,3.9c-0.4,1.3-0.8,2.4-1.3,3.1
		c-0.5,0.7-0.9,1.1-1.4,1.1c-0.5,0-0.7-0.3-0.7-1c0-0.5,0.2-1.6,0.7-3.1c0.4-1.3,0.5-2.2,0.5-2.8c0-0.6-0.1-0.8-0.2-0.8
		c-0.2,0-0.4,0.1-0.6,0.3c-0.2,0.2-0.3,0.4-0.4,0.5c-0.1,0.1-0.3,0.3-0.4,0.6s-0.3,0.4-0.4,0.6c-0.1,0.2-0.2,0.4-0.4,0.7
		s-0.3,0.5-0.4,0.7s-0.2,0.4-0.4,0.7c-1.3,2.5-2.4,3.8-3.2,3.8c-0.3,0-0.7-0.3-1.2-0.8c-0.5-0.5-0.7-0.9-0.7-1.2
		c0-0.2,0.1-0.5,0.3-1c0.2-0.5,0.4-0.9,0.5-1.2c0.1-0.3,0.2-0.6,0.2-0.9c0.1-0.3,0.1-0.7,0.2-1s0.1-0.7,0.1-0.9c0-0.2,0-0.5,0.1-1
		c0.1-1.9,0.2-2.9,0.3-3.1c0.1-0.2,0.2-0.3,0.3-0.3c0.5,0,1.1,0.2,1.6,0.7s0.8,0.9,0.8,1.2c0,0.9-0.2,2.2-0.7,3.9
		c0.9-1.7,1.8-3,2.6-4.1C148.3,305.8,149,305.3,149.5,305.3z"/>
	<path d="M155.1,307.7c1.1-1.6,2.2-2.4,3.3-2.4c1.1,0,2,0.4,2.8,1.2c0.8,0.8,1.1,1.7,1.1,2.8c0,1.1-0.3,2.2-0.8,3.3
		c-0.5,1.1-1.3,2.1-2.2,2.8c-0.9,0.7-1.9,1.1-3,1.1c-0.8,0-1.5-0.4-2.1-1.1c-0.6-0.7-0.9-1.6-0.9-2.6
		C153.5,311,154,309.3,155.1,307.7z M158.7,312.1c0.6-1.1,0.9-2,0.9-3s-0.1-1.6-0.4-1.9c-0.6,0.4-1.2,1.1-1.9,2.3
		c-0.6,1.2-0.9,2.2-0.9,3.1s0.1,1.4,0.3,1.7C157.4,313.9,158.1,313.2,158.7,312.1z"/>
	<path d="M170.4,305.3c0.6,0,1.1,0.3,1.6,1c0.5,0.7,0.8,1.2,0.8,1.8c0,0.3-0.2,0.5-0.5,0.5c-0.2,0-0.4-0.1-0.8-0.2
		c-0.3-0.1-0.7-0.2-1-0.2c-0.3,0-0.8,0.1-1.5,0.3c-0.7,0.2-1,0.5-1,0.9c0,0.1,0.2,0.4,0.6,0.6c0.4,0.3,0.8,0.6,1.3,0.8
		c0.5,0.3,0.9,0.7,1.3,1.2c0.4,0.5,0.6,1.1,0.6,1.7c0,0.6-0.4,1.2-1.3,1.8s-1.9,0.9-3.1,0.9s-2.2-0.3-3-0.8
		c-0.8-0.5-1.3-1.1-1.3-1.7s0.2-0.8,0.7-0.8c0.2,0,0.4,0.1,0.7,0.2c0.7,0.4,1.6,0.6,2.7,0.6c1.1,0,1.6-0.1,1.6-0.4
		c0-0.3-0.2-0.6-0.6-1s-0.9-0.7-1.3-1c-0.5-0.3-0.9-0.7-1.3-1.1c-0.4-0.4-0.6-0.9-0.6-1.3c0-0.8,0.7-1.6,2.1-2.6
		C168.5,305.7,169.6,305.3,170.4,305.3z"/>
	<path d="M190.1,305.8c0.1-0.4,0.3-0.5,0.7-0.5c0.4,0,0.8,0.2,1.2,0.7s0.6,1,0.6,1.7c0,0.4-0.1,0.9-0.4,1.7
		c-0.3,0.8-0.4,1.3-0.6,1.7c-0.1,0.3-0.3,0.8-0.5,1.4c-0.2,0.6-0.4,1.1-0.6,1.6c-0.2,0.5-0.4,1.1-0.7,1.9c-0.3,0.8-0.5,1.6-0.8,2.3
		c-0.4,1.3-1,2.3-1.6,3c-0.6,0.7-1.5,1.1-2.5,1.1c-1,0-1.9-0.3-2.8-0.8c-0.8-0.5-1.2-1.1-1.2-1.6c0-0.3,0.1-0.7,0.4-1.1
		c0.3-0.4,0.6-0.6,0.8-0.6c0.2,0,0.5,0.2,0.8,0.5c0.3,0.3,0.7,0.7,1.1,1s0.7,0.5,1,0.5c0.2,0,0.3-0.1,0.5-0.3s0.2-0.3,0.3-0.5
		c0.1-0.1,0.2-0.3,0.2-0.6c0.1-0.2,0.2-0.5,0.2-0.7c0.1-0.2,0.2-0.5,0.3-0.8c0.1-0.3,0.2-0.6,0.3-0.9c0.2-0.8,0.5-1.5,0.6-2.1
		c-0.5,0.6-1,1.1-1.5,1.5c-0.5,0.4-1,0.6-1.4,0.6c-0.4,0-1-0.3-1.6-1c-0.6-0.6-0.9-1.4-0.9-2.1s0.2-1.8,0.5-3.1s0.8-2.5,1.3-3.5
		s1-1.5,1.3-1.5c0.4,0,0.9,0.2,1.3,0.6c0.4,0.4,0.6,0.8,0.6,1.1c0,0.4-0.2,0.9-0.5,1.7c-0.4,0.8-0.7,1.6-1.1,2.6
		c-0.4,0.9-0.5,1.7-0.5,2.4c0,0.1,0,0.1,0.1,0.1c0.2,0,0.6-0.4,1.2-1.1c0.6-0.7,1.3-1.7,2.1-3C189.1,308.4,189.7,307.1,190.1,305.8z
		"/>
	<path d="M208.5,305.3c0.6,0,1.1,0.3,1.6,1c0.5,0.7,0.8,1.2,0.8,1.8c0,0.3-0.2,0.5-0.5,0.5c-0.2,0-0.4-0.1-0.8-0.2
		c-0.3-0.1-0.7-0.2-1-0.2c-0.3,0-0.8,0.1-1.5,0.3c-0.7,0.2-1,0.5-1,0.9c0,0.1,0.2,0.4,0.6,0.6c0.4,0.3,0.8,0.6,1.3,0.8
		c0.5,0.3,0.9,0.7,1.3,1.2c0.4,0.5,0.6,1.1,0.6,1.7c0,0.6-0.4,1.2-1.3,1.8s-1.9,0.9-3.1,0.9s-2.2-0.3-3-0.8
		c-0.8-0.5-1.3-1.1-1.3-1.7s0.2-0.8,0.7-0.8c0.2,0,0.4,0.1,0.7,0.2c0.7,0.4,1.6,0.6,2.7,0.6c1.1,0,1.6-0.1,1.6-0.4
		c0-0.3-0.2-0.6-0.6-1s-0.9-0.7-1.3-1c-0.5-0.3-0.9-0.7-1.3-1.1c-0.4-0.4-0.6-0.9-0.6-1.3c0-0.8,0.7-1.6,2.1-2.6
		C206.6,305.7,207.7,305.3,208.5,305.3z"/>
	<path d="M219.4,305.8c0.1-0.4,0.3-0.5,0.7-0.5s0.8,0.3,1.2,0.9s0.7,1.1,0.7,1.5c0,0.2-0.3,1.2-1,3.2s-1.2,3.5-1.5,4.7
		c-0.2,0.6-0.5,0.9-1,0.9c-0.3,0-0.5-0.1-0.7-0.3s-0.3-0.5-0.3-1s0.1-1.1,0.3-1.9c-1.5,2.1-2.7,3.2-3.6,3.2c-0.5,0-1-0.3-1.7-0.9
		c-0.7-0.6-1-1.2-1-1.7c0-1.4,0.4-3.2,1.2-5.3s1.5-3.2,2.2-3.2c0.4,0,0.8,0.2,1.1,0.6c0.3,0.4,0.5,0.8,0.5,1.2
		c0,0.2-0.2,0.7-0.5,1.5c-1.1,2.4-1.7,4.1-1.7,5.1c0,0.1,0,0.1,0.1,0.1c0.2,0,0.6-0.3,1.2-1s1.3-1.7,2-3S219,307.1,219.4,305.8z"/>
	<path d="M229.2,305.3c0.5,0,1.1,0.3,1.6,1c0.5,0.7,0.8,1.2,0.8,1.8c0,0.3-0.2,0.5-0.5,0.5c-0.2,0-0.4-0.1-0.8-0.2s-0.7-0.2-1-0.2
		s-0.8,0.1-1.5,0.3c-0.7,0.2-1,0.5-1,0.9c0,0.1,0.2,0.4,0.6,0.6c0.4,0.3,0.8,0.6,1.3,0.8c0.5,0.3,0.9,0.7,1.3,1.2
		c0.4,0.5,0.6,1.1,0.6,1.7c0,0.6-0.4,1.2-1.3,1.8c-0.9,0.6-1.9,0.9-3.1,0.9c-1.2,0-2.2-0.3-3-0.8c-0.8-0.5-1.3-1.1-1.3-1.7
		s0.2-0.8,0.7-0.8c0.2,0,0.4,0.1,0.7,0.2c0.7,0.4,1.6,0.6,2.7,0.6c1.1,0,1.6-0.1,1.6-0.4c0-0.3-0.2-0.6-0.6-1
		c-0.4-0.4-0.9-0.7-1.3-1c-0.5-0.3-0.9-0.7-1.3-1.1c-0.4-0.4-0.6-0.9-0.6-1.3c0-0.8,0.7-1.6,2.1-2.6
		C227.3,305.7,228.4,305.3,229.2,305.3z"/>
	<path d="M100.6,328.8c-0.1-0.3-0.2-0.6-0.3-0.9c-0.1-0.3-0.3-0.4-0.5-0.4c-0.2,0-0.4,0.1-0.5,0.4s-0.4,0.7-0.5,1.3
		c-0.3,0.9-0.6,2-0.8,3.2c1.1-0.1,1.9-0.1,2.5-0.1c0.6,0,1,0.1,1.2,0.3c0.3,0.2,0.4,0.4,0.4,0.6c0,0.4-0.4,0.8-1.2,1
		c-0.8,0.2-2,0.5-3.5,0.7c-0.7,3-1.2,4.9-1.5,5.7c-0.3,0.8-0.6,1.1-1,1.1c-0.3,0-0.6-0.2-1-0.7s-0.6-0.8-0.6-1s0.1-0.5,0.2-0.8
		c0.4-1.3,0.8-2.5,1-3.6c-0.4,0.1-0.8,0.2-1.2,0.2c-0.3,0-0.7-0.2-1-0.5c-0.3-0.3-0.5-0.7-0.5-1.1c0-0.5,1-1,3.1-1.3
		c0.4-2.8,1-4.8,1.8-6c0.8-1.3,1.8-1.9,3.3-1.9c0.7,0,1.3,0.3,1.9,1c0.6,0.7,0.8,1.5,0.8,2.4c0,0.6-0.1,1.1-0.3,1.4
		c-0.2,0.3-0.4,0.5-0.7,0.5c-0.3,0-0.5-0.1-0.7-0.4C100.8,329.5,100.6,329.2,100.6,328.8z"/>
	<path d="M109.2,331.1c0.1-0.4,0.3-0.5,0.7-0.5c0.3,0,0.7,0.3,1.2,0.9s0.7,1.1,0.7,1.5c0,0.2-0.3,1.2-1,3.2s-1.2,3.5-1.5,4.7
		c-0.2,0.6-0.5,0.9-1,0.9c-0.3,0-0.5-0.1-0.7-0.3s-0.3-0.5-0.3-1s0.1-1.1,0.3-1.9c-1.5,2.1-2.7,3.2-3.6,3.2c-0.5,0-1-0.3-1.7-0.9
		c-0.7-0.6-1-1.2-1-1.7c0-1.4,0.4-3.2,1.2-5.3c0.8-2.2,1.5-3.2,2.2-3.2c0.4,0,0.8,0.2,1.1,0.6c0.3,0.4,0.5,0.8,0.5,1.2
		c0,0.2-0.2,0.7-0.5,1.5c-1.1,2.4-1.7,4.1-1.7,5.1c0,0.1,0,0.1,0.1,0.1c0.2,0,0.6-0.3,1.2-1c0.6-0.7,1.3-1.7,2-3
		S108.8,332.5,109.2,331.1z"/>
	<path d="M120.2,330.6c0.8,0,1.4,0.3,2,1c0.6,0.7,0.9,1.4,0.9,2.2c0,1.2-0.2,2.5-0.6,3.9c-0.4,1.3-0.8,2.4-1.3,3.1
		c-0.5,0.7-0.9,1.1-1.4,1.1c-0.5,0-0.7-0.3-0.7-1c0-0.5,0.2-1.6,0.7-3.1c0.4-1.3,0.5-2.2,0.5-2.8c0-0.6-0.1-0.8-0.2-0.8
		c-0.2,0-0.4,0.1-0.6,0.3c-0.2,0.2-0.3,0.4-0.4,0.5c-0.1,0.1-0.3,0.3-0.4,0.6s-0.3,0.4-0.4,0.6c-0.1,0.2-0.2,0.4-0.4,0.7
		s-0.3,0.5-0.4,0.7s-0.2,0.4-0.4,0.7c-1.3,2.5-2.4,3.8-3.2,3.8c-0.3,0-0.7-0.3-1.2-0.8c-0.5-0.5-0.7-0.9-0.7-1.2
		c0-0.2,0.1-0.5,0.3-1c0.2-0.5,0.4-0.9,0.5-1.2c0.1-0.3,0.2-0.6,0.2-0.9c0.1-0.3,0.1-0.7,0.2-1s0.1-0.7,0.1-0.9c0-0.2,0-0.5,0.1-1
		c0.1-1.9,0.2-2.9,0.3-3.1c0.1-0.2,0.2-0.3,0.3-0.3c0.5,0,1.1,0.2,1.6,0.7s0.8,0.9,0.8,1.2c0,0.9-0.2,2.2-0.7,3.9
		c0.9-1.7,1.8-3,2.6-4.1C119,331.1,119.6,330.6,120.2,330.6z"/>
	<path d="M124.2,338.4c0-1,0.3-2.1,1-3.3c0.6-1.2,1.5-2.3,2.5-3.1c1-0.9,2.1-1.3,3.1-1.3c0.5,0,1,0.3,1.6,1c0.5,0.7,0.8,1.2,0.8,1.8
		c0,0.4-0.2,0.6-0.5,0.6c-0.2,0-0.4-0.1-0.7-0.2c-0.3-0.2-0.6-0.2-0.9-0.2s-0.8,0.3-1.4,0.8c-0.6,0.5-1.1,1.2-1.6,2
		s-0.7,1.4-0.7,1.8c0,0.4,0.1,0.7,0.3,0.8c0.2,0.1,0.6,0.2,1.2,0.2s1.2-0.1,1.8-0.2c0.5-0.1,0.9-0.2,1.2-0.4
		c0.3-0.1,0.5-0.2,0.7-0.2c0.4,0,0.6,0.2,0.6,0.5c0,0.6-0.6,1.3-1.7,1.9c-1.1,0.7-2.2,1-3.3,1c-0.7,0-1.5-0.4-2.4-1.2
		C124.7,339.8,124.2,339.1,124.2,338.4z"/>
	<path d="M137.3,330.6c0.5,0,1,0.3,1.4,0.9c0.4,0.6,0.6,1.1,0.6,1.7c0,0.3-0.3,1.3-0.7,3s-1,3.3-1.5,4.8c-0.2,0.6-0.5,0.8-1.1,0.8
		c-0.3,0-0.6-0.1-0.8-0.4s-0.4-0.5-0.4-0.9s0.2-1.3,0.6-2.9c0.4-1.5,0.7-2.8,0.8-3.9c0.2-1.1,0.4-1.9,0.5-2.4
		C136.8,330.8,137,330.6,137.3,330.6z M136.9,327.9c0-0.4,0.2-0.8,0.5-1.2c0.3-0.4,0.7-0.6,1-0.6s0.7,0.4,1.2,1.2
		c0.4,0.8,0.7,1.3,0.7,1.7c0,0.4-0.1,0.6-0.3,0.8c-0.2,0.2-0.5,0.3-0.7,0.3c-0.4,0-0.9-0.3-1.5-0.8
		C137.2,328.7,136.9,328.3,136.9,327.9z"/>
	<path d="M142,333c1.1-1.6,2.2-2.4,3.3-2.4c1.1,0,2,0.4,2.8,1.2c0.8,0.8,1.1,1.7,1.1,2.8c0,1.1-0.3,2.2-0.8,3.3
		c-0.5,1.1-1.3,2.1-2.2,2.8c-0.9,0.7-1.9,1.1-3,1.1c-0.8,0-1.5-0.4-2.1-1.1c-0.6-0.7-0.9-1.6-0.9-2.6
		C140.4,336.3,140.9,334.6,142,333z M145.6,337.5c0.6-1.1,0.9-2,0.9-3s-0.1-1.6-0.4-1.9c-0.6,0.4-1.2,1.1-1.9,2.3
		c-0.6,1.2-0.9,2.2-0.9,3.1s0.1,1.4,0.3,1.7C144.3,339.2,145,338.5,145.6,337.5z"/>
	<path d="M158.4,330.6c0.8,0,1.4,0.3,2,1c0.6,0.7,0.9,1.4,0.9,2.2c0,1.2-0.2,2.5-0.6,3.9c-0.4,1.3-0.8,2.4-1.3,3.1
		c-0.5,0.7-0.9,1.1-1.4,1.1c-0.5,0-0.7-0.3-0.7-1c0-0.5,0.2-1.6,0.7-3.1c0.4-1.3,0.5-2.2,0.5-2.8c0-0.6-0.1-0.8-0.2-0.8
		c-0.2,0-0.4,0.1-0.6,0.3c-0.2,0.2-0.3,0.4-0.4,0.5c-0.1,0.1-0.3,0.3-0.4,0.6s-0.3,0.4-0.4,0.6c-0.1,0.2-0.2,0.4-0.4,0.7
		s-0.3,0.5-0.4,0.7s-0.2,0.4-0.4,0.7c-1.3,2.5-2.4,3.8-3.2,3.8c-0.3,0-0.7-0.3-1.2-0.8c-0.5-0.5-0.7-0.9-0.7-1.2
		c0-0.2,0.1-0.5,0.3-1c0.2-0.5,0.4-0.9,0.5-1.2c0.1-0.3,0.2-0.6,0.2-0.9c0.1-0.3,0.1-0.7,0.2-1s0.1-0.7,0.1-0.9c0-0.2,0-0.5,0.1-1
		c0.1-1.9,0.2-2.9,0.3-3.1c0.1-0.2,0.2-0.3,0.3-0.3c0.5,0,1.1,0.2,1.6,0.7s0.8,0.9,0.8,1.2c0,0.9-0.2,2.2-0.7,3.9
		c0.9-1.7,1.8-3,2.6-4.1C157.2,331.1,157.8,330.6,158.4,330.6z"/>
	<path d="M170.7,336.6c-1,0.6-2,0.8-3,0.8c-1,0-1.8-0.1-2.5-0.2c-0.1,0.4-0.2,0.8-0.2,1.2c0,0.4,0.1,0.7,0.2,0.8
		c0.1,0.2,0.5,0.2,1,0.2c1.1,0,2-0.1,2.8-0.3c0.8-0.2,1.2-0.3,1.2-0.3c0.6,0,0.9,0.2,0.9,0.6c0,0.6-0.5,1.1-1.4,1.6
		c-0.9,0.5-2,0.8-3.2,0.8c-1.2,0-2.2-0.4-2.9-1.2c-0.7-0.8-1.1-1.7-1.1-2.7s0.3-2.1,0.9-3.3c0.6-1.1,1.4-2.1,2.3-2.9
		c0.9-0.8,1.8-1.2,2.8-1.2c0.9,0,1.8,0.5,2.6,1.4c0.8,0.9,1.2,1.8,1.2,2.7C172.1,335.4,171.6,336,170.7,336.6z M169.2,333.7
		c-0.3-0.3-0.6-0.4-0.9-0.4s-0.6,0.2-1,0.6c-0.4,0.4-0.8,0.9-1.2,1.5c0.1,0,0.3,0,0.6,0c2,0,3-0.3,3-1
		C169.6,334.2,169.5,334,169.2,333.7z"/>
	<path d="M179.9,330.6c0.6,0,1.1,0.3,1.6,1c0.5,0.7,0.8,1.2,0.8,1.8c0,0.3-0.2,0.5-0.5,0.5c-0.2,0-0.4-0.1-0.8-0.2
		c-0.3-0.1-0.7-0.2-1-0.2c-0.3,0-0.8,0.1-1.5,0.3c-0.7,0.2-1,0.5-1,0.9c0,0.1,0.2,0.4,0.6,0.6c0.4,0.3,0.8,0.6,1.3,0.8
		c0.5,0.3,0.9,0.7,1.3,1.2c0.4,0.5,0.6,1.1,0.6,1.7c0,0.6-0.4,1.2-1.3,1.8s-1.9,0.9-3.1,0.9s-2.2-0.3-3-0.8
		c-0.8-0.5-1.3-1.1-1.3-1.7s0.2-0.8,0.7-0.8c0.2,0,0.4,0.1,0.7,0.2c0.7,0.4,1.6,0.6,2.7,0.6c1.1,0,1.6-0.1,1.6-0.4
		c0-0.3-0.2-0.6-0.6-1s-0.9-0.7-1.3-1c-0.5-0.3-0.9-0.7-1.3-1.1c-0.4-0.4-0.6-0.9-0.6-1.3c0-0.8,0.7-1.6,2.1-2.6
		C178,331.1,179.1,330.6,179.9,330.6z"/>
	<path d="M186.6,341.9c-0.2,0.2-0.5,0.4-0.8,0.4s-0.8-0.4-1.3-1.3c-0.6-0.9-0.8-1.5-0.8-2c0-0.5,0.1-0.9,0.4-1.4
		c0.3-0.5,0.5-0.7,0.7-0.7c0.6,0,1,0.5,1.5,1.6c0.4,1.1,0.7,1.9,0.7,2.6C186.9,341.4,186.8,341.7,186.6,341.9z M187.8,334.4
		c0,0.5-0.1,0.9-0.3,1.1c-0.2,0.2-0.4,0.4-0.8,0.4c-0.3,0-0.8-0.4-1.3-1.3c-0.6-0.9-0.8-1.5-0.8-2s0.1-0.9,0.4-1.4
		c0.3-0.5,0.5-0.7,0.7-0.7c0.5,0,1,0.5,1.5,1.6C187.6,333.1,187.8,333.9,187.8,334.4z"/>
</g>
<g>
	<g>
		<ellipse class="st1" cx="146.1" cy="614.4" rx="34.5" ry="9.6"/>
		<g>
			<path d="M122.1,615.3c0,0.8,0,1.8,0.5,2.3c0.8,1,2.1,1,3.3,0.8c2.3-0.3,4.6-1.3,6.4-2.8c1.8-1.5,3.1-3.8,3.3-6.2
				c-1.8-0.5-3.6-0.8-5.4-1.3c-1.3-0.3-4.1-1.5-5.4-1.3C122.6,607.3,122.3,613,122.1,615.3z"/>
			<path d="M163.9,618.4c1.3,0.3,2.6,0.5,3.6,0c1.5-0.8,2.6-2.6,2.3-4.4c0-1.8-1-3.3-1.8-5.1c-0.3-0.8-0.8-1.5-1-2.1l-0.3-0.3
				c-0.3,0-0.3,0-0.5,0c-2.6,0.5-4.9,1-7.2,1.5c-2.3,0.5-4.4,0.3-3.1,3.1C157.2,614.5,160.3,617.1,163.9,618.4z"/>
			<path class="st2" d="M119.8,604c0,0.5-0.3,0.8,0,1.3c0.3,0.5,0.8,1,1.3,1.3c4.6,2.3,9.5,3.1,14.6,3.6c14.9,1.5,30-0.3,44.1-4.9
				c-5.6-12.1-8-25.4-10.3-38.5c-1.8-10.3-3.6-20.5-5.4-30.8c0.5,3.6-34.6,3.1-36.7,5.4c-3.3,3.3-1.5,12.3-1.8,16.7
				c-0.3,7.4-1,14.6-1.8,22.1C122.8,588.1,121.6,596.1,119.8,604z"/>
			<g>
				<path class="st3" d="M143.9,610.9c-1.8-8.7-2.6-17.4-2.8-26.4c0-8.7,0.3-17.7,2.1-26.4c0.5,8.7,0.5,17.7,0.5,26.4
					C143.9,593.2,144.1,602.2,143.9,610.9z"/>
			</g>
			<g>
				<path class="st3" d="M134.4,552.9c3.3,1.3,6.4,2.1,9.5,2.3c3.1,0.3,6.4,0.3,9.7,0c-2.8,2.1-6.7,2.8-10,2.3
					C140.3,557.1,136.7,555.5,134.4,552.9z"/>
			</g>
			<path class="st4" d="M148.2,493.4c1-0.8,2.1-1.5,3.3-1.5c0.8,0,1.3,0.3,2.1,0.5c4.9,2.1,9.5,4.4,14.4,6.4
				c1.5,0.8,3.1,1.5,4.1,2.8c1,1.3,1.5,3.3,1.8,5.1c0.8,5.1,1.8,10.5,1.3,15.7s-2.3,10.5-6.4,13.9c-3.3,2.8-7.7,4.4-11.8,6.4
				c-2.1,1-4.1,2.6-6.4,2.6c-2.3,0.3-4.9-1.3-5.1-3.6c-8.5,5.4-20.5,2.3-27.2-5.4c-1.3-1.5-2.3-3.1-3.1-4.9c-1-2.8-0.5-5.6-0.3-8.7
				c0.8-5.4,1.5-10.8,2.3-15.9c0.3-1.8,0.5-3.6,1.3-4.9c1-1.8,2.6-3.1,4.1-4.4c2.1-1.5,4.9-4.1,7.2-4.6c2.8-0.8,3.1,0.3,5.6,1.3
				C140,496.2,144.6,496,148.2,493.4z"/>
			<path class="st5" d="M132.8,541.4c0,1.8,2.1,2.8,3.6,3.1c2.1,0.5,4.9,0.5,6.2-1.3c0.3-0.3,0.3-0.5,0.5-0.5c0.5-0.3,1.3,0,1.8,0.5
				c1.3,0.8,2.6,1.5,3.8,1.8c1.5,0.3,3.1-0.5,3.8-1.8"/>
			<g>
				<path class="st6" d="M127.2,509.3c0.8,3.6,0.3,7.2-0.8,10.8c-0.5,1.8-1,3.3-1.5,5.1l-0.8,2.6c-0.3,0.8-0.8,2.1-0.5,1.8
					c0,0,0.3,0.3,0.5,0.8c0.3,0.3,0.5,0.8,0.8,1c0.5,0.8,1,1.3,1.8,1.8c1.3,1.3,2.6,2.3,3.8,3.3c2.8,2.1,5.6,3.8,9,5.1
					c-3.6-0.5-6.9-1.8-10-3.6c-1.5-1-3.1-2.1-4.4-3.3c-0.8-0.5-1.3-1.3-1.8-2.1c-0.3-0.3-0.5-0.8-0.8-1c-0.3-0.3-0.5-0.8-1-1.5
					c-0.3-1,0-1.8,0.3-2.1l0.5-1.3l1-2.6l2.1-4.9C125.9,516.3,126.9,512.9,127.2,509.3z"/>
			</g>
			<g>
				<path class="st6" d="M146.4,538.3c1.8,0.3,3.3-0.3,4.6-1c1.5-0.8,2.8-1.8,4.4-2.8c1.5-1,2.8-1.8,4.4-2.6l2.3-1.3
					c0.8-0.5,0.5-0.3,0.5-0.8s-0.5-1.3-0.8-2.1c-0.3-0.8-0.5-1.5-0.8-2.6c-0.5-1.8-1-3.3-1.3-5.1c-0.8-3.3-1-6.9-0.8-10.3
					c0.8,3.3,1.8,6.7,2.8,9.7c0.5,1.5,1,3.3,1.5,4.9l0.8,2.3c0.3,0.8,0.8,1.5,1,2.6c0,0.5,0,1.3-0.3,2.1c-0.5,0.8-1,1-1.5,1.3
					l-2.3,1.3c-1.5,0.8-3.1,1.5-4.6,2.3c-1.5,0.8-3.1,1.5-4.9,2.1C149.8,538.8,148,539.1,146.4,538.3z"/>
			</g>
			<g>
				<path class="st6" d="M127.7,514.2c-0.3,2.1-0.8,4.1-0.5,5.9c0.3,1.8,1,3.6,2.1,4.9c2.3,2.8,6.2,3.8,10.3,2.8
					c-1.5,1.5-3.8,2.3-6.2,2.1c-2.3-0.3-4.6-1.3-6.2-3.1c-1.5-1.8-2.3-4.1-2.3-6.4C125.4,517.8,126.4,515.7,127.7,514.2z"/>
			</g>
			<g>
				<path class="st6" d="M148.5,526.3c2.1-0.3,4.1-0.3,5.9-1c1.5-0.8,2.3-2.1,2.8-3.8c1-3.6,1-7.7,0-11.8c2.8,3.3,3.6,8.2,2.6,12.3
					c-0.3,1-0.8,2.3-1.5,3.1c-0.8,1-2.1,1.8-3.1,2.1C152.3,527.6,150.3,527,148.5,526.3z"/>
			</g>
			<g>
				<path class="st7" d="M154.9,386.4c-3.8,4.9-9,10.3-15.4,15.4c-12.3,10-24.6,15.1-33.4,18c-1.3,7.7-0.8,13.9,0,18
					c2.8,17.4,14.1,32.8,28.2,41.1c2.1,1.3,3.8,2.1,5.1,2.6c0.3,0.5,1.5,3.8,0,7.7c-1.5,3.6-4.4,4.9-5.1,5.1
					c0.5,0.5,3.3,3.1,7.7,2.6c5.1-0.5,7.4-4.6,7.7-5.1c0-1.8,0-3.3,0-5.1c0-2.6,0-5.1,0-7.7c2.6-1,6.4-2.6,10.3-5.1
					c10.8-7.2,15.4-17.4,18-23.1c5.6-12.6,5.6-24.4,5.1-30.8c-4.1-3.6-8.5-8-12.8-12.8C163.9,399.8,158.8,392.9,154.9,386.4z"/>
				<path class="st8" d="M154.9,386.4c-6.2,8-13.6,14.9-21.8,20.5c-8.2,5.9-17.2,10.3-26.9,13.3l0.5-0.5c-1,6.2-0.8,12.3,0.3,18.5
					c1,6.2,3.3,12.1,6.2,17.4c3.1,5.4,6.7,10.3,11.3,14.6c2.3,2.1,4.6,4.1,7.2,5.6c2.6,1.8,5.4,3.1,8.2,4.4l0.3,0.3v0.3
					c1,2.6,1.3,5.6,0,8.2c-1,2.6-3.1,4.9-5.6,5.9l0.3-1.5c2.1,1.8,4.9,2.8,7.4,2.3c2.6-0.5,5.1-2.3,6.4-4.6v0.5v-12.8v-0.5l0.5-0.3
					c5.6-2.1,10.8-5.1,15.1-9c4.4-4.1,8-9,10.5-14.4c2.8-5.4,4.9-11,6.2-16.9c1.3-5.9,1.5-11.8,1.3-18l0.3,0.3
					C171.8,410.3,162.6,399,154.9,386.4z M154.9,386.4c8,12.3,17.7,23.3,28.5,32.8l0.3,0.3v0.3c0.5,6.2,0.3,12.3-1,18.2
					c-1,5.9-3.3,11.8-5.9,17.2c-2.6,5.4-6.2,10.8-10.8,14.9c-4.6,4.1-10,7.4-15.7,9.5l0.5-0.8v12.8v0.3v0.3
					c-0.8,1.5-2.1,2.6-3.3,3.6s-2.8,1.5-4.4,1.8c-3.3,0.5-6.7-0.5-9.2-2.6l-1-1l1.3-0.5c2.1-1,3.8-2.6,4.6-4.9
					c0.8-2.1,0.8-4.6,0-6.7l0.5,0.5c-2.8-1.5-5.6-2.8-8.5-4.6c-2.6-1.8-5.1-3.8-7.4-5.9c-4.6-4.4-8.5-9.5-11.5-15.1
					s-5.1-11.5-6.2-18c-1-6.2-1-12.6,0-19v-0.5h0.3C124.9,413.1,142.1,401.8,154.9,386.4z"/>
			</g>
			<g class="st9">
				<path class="st10" d="M109,443.9c2.3,8,7.2,14.6,12.6,20.8c2.8,3.1,5.6,5.9,8.5,8.7c3.1,2.8,5.6,5.9,9.5,8
					c-4.1-1.3-7.4-3.8-10.8-6.4c-3.3-2.6-6.4-5.4-9.2-8.7c-2.8-3.1-5.4-6.7-7.2-10.3C110.5,452.1,109.2,448,109,443.9z"/>
			</g>
			<g>
				<path class="st11" d="M151.3,475c6.9-4.9,13.1-10.8,17.7-17.7c4.6-6.9,7.7-14.9,9.7-23.1c0,8.7-2.8,17.2-7.7,24.6
					C166.5,465.7,159.5,471.6,151.3,475z"/>
			</g>
			<g class="st9">
				<path class="st10" d="M107.2,434.4c-2.8-5.6,0-13.9,6.4-16.9c3.1-1.5,6.4-2.1,9.5-2.3c3.1-0.3,5.9-0.5,8.7-1.3
					c2.8-0.5,5.6-1.5,8.2-2.6c2.6-1,5.1-2.6,7.2-4.4c4.4-3.6,7.7-8.7,8.7-14.6c1,6.2-1.5,12.8-6.2,17.7c-4.6,4.9-10.8,7.7-16.9,9.2
					c-3.1,0.8-6.4,1-9.5,1c-3.1,0-5.9,0.3-8.2,1C110.5,422.6,106.7,428.3,107.2,434.4z"/>
			</g>
			<g>
				<path class="st12" d="M108.5,409.5c-6.2,12.3-7.4,27.5-1,39.8c1-5.1,1.3-10.8,0.3-15.9c-0.5-2.3-1-4.6-0.8-6.9
					c0.8-5.1,6.2-8,11-9.7c6.7-2.3,13.9-4.1,20.3-6.9c6.7-2.8,12.8-7.2,15.9-13.6c2.1,6.7,6.2,12.6,11.5,16.9
					c3.8,3.1,8.2,5.1,11.8,8.7c3.6,3.3,6.2,8.5,4.6,13.1c5.4-5.9,6.2-15.1,3.6-22.8c-2.6-7.7-7.7-14.1-12.6-20.3
					c4.1-3.8,8.7-8.7,8-14.4c-0.3-3.6-2.6-6.4-5.6-8.5s-6.4-2.6-10-2.8c-2.3-0.3-4.9-0.3-7.2-0.8s-4.4-1.5-6.7-1.8
					c-4.6-0.8-10,0.8-12.8,4.6c-1.3,1.8-2.1,3.8-2.3,5.9s1.3,4.6,1,6.2c-0.5,3.3-6.9,5.6-9.7,7.7
					C119.8,393.6,112.8,400.8,108.5,409.5z"/>
				<path class="st13" d="M108.5,409.5c-3.1,6.2-4.9,12.8-5.1,19.8c-0.3,6.9,1,13.9,4.4,19.8h-0.5c0.8-3.3,1-6.7,0.8-10
					c0-1.8-0.3-3.3-0.5-5.1c-0.3-1.5-0.8-3.3-1-5.1s0-3.6,0.8-5.4c0.8-1.8,2.1-3.1,3.3-4.1c2.8-2.3,6.2-3.6,9.2-4.6
					c6.4-2.3,13.1-4.1,19-6.9c5.9-2.8,11.3-7.2,14.1-12.8l1.8-3.6l1.3,3.8c1.3,3.8,3.1,7.4,5.6,10.5c2.6,3.1,5.4,5.6,9,8
					c3.3,2.3,7.2,4.4,10.3,8c1.5,1.8,2.6,3.8,3.3,6.2c0.8,2.3,0.8,4.9,0,7.4l-3.3-1.8c2.6-2.6,3.8-6.2,4.4-9.7s0-7.4-1-11
					c-2.3-7.2-7.2-13.6-12.1-20l-1-1.3l1-1c3.6-3.3,7.2-6.9,8-11.5c0.5-4.4-2.8-8.7-7.2-10.5c-2.3-1-4.6-1.5-6.9-1.8
					c-2.6-0.3-5.1-0.3-7.7-0.8c-2.6-0.5-4.9-1.8-7.2-2.1c-2.3-0.3-4.9,0-7.2,1c-2.3,1-4.1,2.6-5.4,4.6s-2.1,4.6-1.3,6.9
					c0.3,1.3,0.8,2.6,0.5,3.8c-0.3,1.3-1.3,2.3-2.3,3.1c-2.1,1.5-4.4,2.6-6.7,3.8C120.3,393.1,113.1,400.6,108.5,409.5z
					 M108.5,409.5c4.6-9,11.8-16.7,20-22.6c2.1-1.3,4.4-2.3,6.4-4.1c1-0.8,1.8-1.8,2.1-2.8c0.3-1-0.3-2.3-0.5-3.6
					c-1.5-5.1,2.1-10.8,6.9-12.8c2.3-1,5.1-1.5,7.7-1.3c2.6,0.3,5.1,1.3,7.4,1.8s4.9,0.5,7.4,0.5c2.6,0.3,5.1,0.5,7.7,1.5
					c2.6,1,4.9,2.6,6.4,4.9c1.8,2.1,2.8,5.1,2.6,8s-1.5,5.4-3.1,7.7c-1.5,2.3-3.3,4.1-5.1,5.9l0.3-2.1c5.1,6.2,10.5,12.6,13.1,20.8
					c1.3,4.1,1.8,8.5,1.3,12.8c-0.5,4.4-2.1,8.7-5.1,11.8l-3.3-1.8c1-3.1-0.3-6.9-2.8-9.7c-2.3-2.8-5.9-4.9-9.5-7.4
					c-3.6-2.3-6.9-5.4-9.5-8.7c-2.6-3.6-4.6-7.4-5.9-11.5l2.8,0.3c-3.3,6.7-9.5,10.8-15.9,13.6s-13.1,4.4-19.5,6.4
					c-3.3,1-6.4,2.1-9,4.1c-2.6,1.8-4.4,4.9-4.1,8.2c0,1.5,0.5,3.3,0.8,4.9c0.3,1.8,0.5,3.3,0.5,5.1c0,3.3-0.3,6.9-1,10.3l-0.3,0.8
					l-0.3-0.5c-3.1-6.2-4.4-13.1-4.1-20C103.3,422.4,105.4,415.7,108.5,409.5z"/>
			</g>
			<g class="st14">
				<path class="st15" d="M139.5,383.6c4.9-2.1,10.3-1.8,15.1,0c4.9,1.5,9.5,4.6,12.6,8.5c-4.4-2.8-8.7-5.1-13.3-6.7
					C149.5,383.9,144.6,383.1,139.5,383.6z"/>
			</g>
			<g class="st14">
				<path class="st15" d="M107.2,417.2c-0.3-3.3,1.3-6.7,3.3-9.5c2.1-2.8,4.6-5.1,6.9-7.2c2.6-2.1,5.1-4.1,8-5.9s5.9-3.3,9-4.4
					c-2.8,1.8-5.6,3.6-8.2,5.6c-2.6,2.1-5.1,4.1-7.7,6.2c-2.6,2.1-4.9,4.4-7.2,6.7C109.5,411.1,108,413.9,107.2,417.2z"/>
			</g>
			<g class="st14">
				<path class="st15" d="M118.5,410c3.3-0.5,6.4-1.3,9.2-2.3c2.8-1.3,5.6-2.6,8.5-4.4c2.6-1.8,5.1-3.6,7.7-5.9
					c2.3-2.1,4.6-4.4,7.2-6.7c-1.8,2.8-3.8,5.4-6.2,7.7s-4.9,4.6-7.4,6.4c-2.8,1.8-5.6,3.3-9,4.1C125.1,410,121.8,410.6,118.5,410z"
					/>
			</g>
			<g class="st14">
				<path class="st15" d="M159.3,396.4c2.1,3.8,5.4,6.2,9,8.2c3.6,2.1,7.7,3.8,10.8,6.9l-0.3,0.3c-0.3-0.5-0.3-0.8-0.5-1.3
					c0.3,0.3,0.5,0.8,0.8,1l-0.3,0.3c-3.6-2.1-7.7-3.3-11.5-5.6c-1.8-1-3.6-2.3-5.1-4.1C160.8,400.6,159.8,398.5,159.3,396.4z"/>
			</g>
			<g class="st14">
				<path class="st15" d="M142.6,378c-1.3-1-1.8-2.8-1.8-4.6s0.8-3.3,2.3-4.4c-0.3,1.8-0.3,3.1-0.5,4.4
					C142.6,374.9,142.6,376.4,142.6,378z"/>
			</g>
			<g class="st14">
				<path class="st15" d="M148.2,379.8c-0.3-1.5,0-2.8,0-4.4c0.3-1.3,0.5-2.6,1.3-4.1c0.8,1.5,0.8,2.8,0.5,4.4
					C149.8,377.2,149.3,378.7,148.2,379.8z"/>
			</g>
			<g class="st14">
				<path class="st15" d="M153.9,381.1c0.5-1.5,1-2.6,1.5-3.8c0.5-1,1-2.3,2.1-3.6c0.5,1.5,0.3,3.1-0.3,4.4
					C156.4,379.5,155.4,380.8,153.9,381.1z"/>
			</g>
			<g class="st14">
				<path class="st15" d="M160.6,383.4c1.5-1.3,2.6-2.6,3.6-4.1c0.5-0.8,1-1.5,1.3-2.3l0.5-1.3c0.3-0.3,0.5-0.8,1-0.5
					c0.3,0.3,0.3,0.3,0.3,0.5s-0.3,0.3-0.3,0.3c-0.3-0.8,0,0.5,0,1.5c-0.3,1-0.5,2.1-1.3,2.8C164.7,382.3,162.6,383.4,160.6,383.4z"
					/>
			</g>
			<g class="st14">
				<path class="st15" d="M167.5,387.2c1.8-1.3,3.3-2.3,4.9-3.3c1.5-1,3.1-2.3,4.9-3.6c-0.5,2.1-2.1,3.8-3.8,5.1
					C171.8,386.7,169.5,387.5,167.5,387.2z"/>
			</g>
			<g>
				<path class="st10" d="M141.8,435.4c-0.5,4.4-1.3,8.5-1.8,12.8c-0.3,1-0.3,2.1,0,2.3c0,0.3,1.5,0.5,2.3,0.5
					c2.1,0,4.1-0.3,6.2-0.8c-1.8,1-3.8,2.1-6.2,2.3c-0.5,0-1,0-1.8,0c-0.5,0-1.5,0-2.1-0.8c-0.5-0.8-0.8-1.5-0.8-2.1
					c0-0.8,0-1.3,0.3-1.8C138.7,443.7,140,439.3,141.8,435.4z"/>
			</g>
			<circle cx="157.7" cy="436.2" r="2.6"/>
			<circle cx="129.5" cy="436.2" r="2.6"/>
			<linearGradient id="SVGID_1_" gradientUnits="userSpaceOnUse" x1="141.4437" y1="463.4774" x2="141.4437" y2="473.4641">
				<stop  offset="0" style="stop-color:#FFFFFF"/>
				<stop  offset="0.5" style="stop-color:#CCCCCC"/>
				<stop  offset="0.5" style="stop-color:#131313"/>
				<stop  offset="1" style="stop-color:#000000"/>
			</linearGradient>
			<path class="st16" d="M140.7,466c3.1-0.1,6.1-1.1,8.9-2.5c1.1,2.3,0.7,5.3-1.1,7.2c-1.7,1.9-4.3,2.7-6.8,2.7
				c-1.4,0-2.9-0.1-4.1-0.8c-1.6-0.9-2.6-2.5-3.5-4c-1.2-2-2.4-3.8,0.3-3.8C136.4,464.9,138.4,466.1,140.7,466z"/>
		</g>
	</g>
	<g>
		<path class="st17" d="M165.2,531.9L165.2,531.9c0.8,0.3,1.3,0.5,1,0.8l-10.5,10.3c-0.3,0.3-0.8,0.3-1.3,0.3l-50.5-4.6
			c-1.5-0.3-1.8-1-0.5-1.5l24.1-8.5c0.3,0,0.8-0.3,1,0l36.2,3.1C164.7,531.9,164.9,531.9,165.2,531.9z"/>
		<path d="M165.9,532.9l-10.8,10c-0.3,0.3-0.8,0.5-1.5,0.3l-49.8-4.4c-1.8-0.3-2.1-1-0.5-1.5l23.1-8.2c0.3,0,0.8-0.3,1.3-0.3
			l36.4,2.8C165.4,531.9,166.5,532.4,165.9,532.9z"/>
		<polygon class="st18" points="162.3,532.4 128.2,529.6 108,537.6 151.3,541.7 		"/>
		
			<linearGradient id="SVGID_2_" gradientUnits="userSpaceOnUse" x1="658.481" y1="138.1203" x2="673.9604" y2="138.1203" gradientTransform="matrix(-0.9978 -6.638354e-02 6.638556e-02 -0.9978 804.4376 717.1085)">
			<stop  offset="0" style="stop-color:#B3B3B3"/>
			<stop  offset="0.5" style="stop-color:#B6B6B6"/>
			<stop  offset="0.5" style="stop-color:#C7C7C7"/>
			<stop  offset="1" style="stop-color:#CCCCCC"/>
		</linearGradient>
		<polygon class="st19" points="156.7,534 152.3,537 141.1,536 147,533.2 		"/>
		<line class="st20" x1="143.1" y1="533.2" x2="125.4" y2="531.7"/>
		<line class="st20" x1="140.8" y1="534.2" x2="123.9" y2="532.7"/>
		<line class="st20" x1="138.2" y1="535" x2="121.3" y2="533.7"/>
		<polygon class="st21" points="162.3,532.4 128.2,529.6 126.2,530.4 161.3,533.2 		"/>
		<g>
			<line class="st22" x1="160.6" y1="532.4" x2="158.2" y2="532.4"/>
			<line class="st22" x1="160.6" y1="532.7" x2="158.2" y2="532.7"/>
			<line class="st22" x1="160.3" y1="532.9" x2="158" y2="532.7"/>
		</g>
		
			<linearGradient id="SVGID_4_" gradientUnits="userSpaceOnUse" x1="654.1268" y1="137.2486" x2="656.6363" y2="137.2486" gradientTransform="matrix(-0.9978 -6.638354e-02 6.638556e-02 -0.9978 804.4376 717.1085)">
			<stop  offset="0" style="stop-color:#000000"/>
			<stop  offset="0.5" style="stop-color:#010101"/>
			<stop  offset="0.5" style="stop-color:#171717"/>
			<stop  offset="1" style="stop-color:#1A1A1A"/>
		</linearGradient>
		<path class="st23" d="M158.5,536.8c0.3,0.3,1,0.3,1.5,0.3c0.8,0,1-0.3,0.8-0.5c-0.3-0.3-1-0.3-1.5-0.3
			C158.5,536.3,158.2,536.5,158.5,536.8z"/>
		
			<linearGradient id="SVGID_5_" gradientUnits="userSpaceOnUse" x1="696.1716" y1="138.756" x2="696.7822" y2="138.756" gradientTransform="matrix(-0.9978 -6.638354e-02 6.638556e-02 -0.9978 804.4376 717.1085)">
			<stop  offset="0" style="stop-color:#000000"/>
			<stop  offset="0.5" style="stop-color:#010101"/>
			<stop  offset="0.5" style="stop-color:#171717"/>
			<stop  offset="1" style="stop-color:#1A1A1A"/>
		</linearGradient>
		<path class="st24" d="M118.5,532.4h0.3c0.3,0,0.3,0,0.3,0h-0.3C118.5,532.4,118.5,532.4,118.5,532.4z"/>
		<g class="st25">
			<g>
				<path id="SVGID_3_" class="st26" d="M165.9,532.9l-10.8,10c-0.3,0.3-0.8,0.5-1.5,0.3l-49.8-4.4c-1.8-0.3-2.1-1-0.5-1.5l23.1-8.2
					c0.3,0,0.8-0.3,1.3-0.3l36.4,2.8C165.4,531.9,166.5,532.4,165.9,532.9z"/>
			</g>
			<g>
				<defs>
					<path id="SVGID_6_" d="M165.9,532.9l-10.8,10c-0.3,0.3-0.8,0.5-1.5,0.3l-49.8-4.4c-1.8-0.3-2.1-1-0.5-1.5l23.1-8.2
						c0.3,0,0.8-0.3,1.3-0.3l36.4,2.8C165.4,531.9,166.5,532.4,165.9,532.9z"/>
				</defs>
				<clipPath id="SVGID_7_">
					<use xlink:href="#SVGID_6_"  style="overflow:visible;"/>
				</clipPath>
				<polygon class="st27" points="154.7,543.2 126.9,528.8 167,531.9 				"/>
			</g>
		</g>
		<g class="st28">
			<g>
				<defs>
					<path id="SVGID_8_" d="M165.9,532.9l-10.8,10c-0.3,0.3-0.8,0.5-1.5,0.3l-49.8-4.4c-1.8-0.3-2.1-1-0.5-1.5l23.1-8.2
						c0.3,0,0.8-0.3,1.3-0.3l36.4,2.8C165.4,531.9,166.5,532.4,165.9,532.9z"/>
				</defs>
				<clipPath id="SVGID_9_">
					<use xlink:href="#SVGID_8_"  style="overflow:visible;"/>
				</clipPath>
				
					<linearGradient id="SVGID_10_" gradientUnits="userSpaceOnUse" x1="648.4301" y1="136.636" x2="688.5153" y2="136.636" gradientTransform="matrix(-0.9978 -6.638354e-02 6.638556e-02 -0.9978 804.4376 717.1085)">
					<stop  offset="0" style="stop-color:#000000"/>
					<stop  offset="0.5" style="stop-color:#010101"/>
					<stop  offset="0.5" style="stop-color:#171717"/>
					<stop  offset="1" style="stop-color:#1A1A1A"/>
				</linearGradient>
				<polygon class="st29" points="154.7,543.2 126.9,528.8 167,531.9 				"/>
			</g>
		</g>
	</g>
	
		<linearGradient id="SVGID_11_" gradientUnits="userSpaceOnUse" x1="149.2271" y1="154.4038" x2="149.2271" y2="227.5242" gradientTransform="matrix(1 0 0 -1 0 692)">
		<stop  offset="0" style="stop-color:#FFFFFF"/>
		<stop  offset="1" style="stop-color:#FFFFFF;stop-opacity:0"/>
	</linearGradient>
	<polygon class="st30" points="126.8,532.2 115.2,464.5 183.2,467.3 152.2,537.6 	"/>
</g>
</svg>
