<svg xmlns="http://www.w3.org/2000/svg" xmlns:xlink="http://www.w3.org/1999/xlink" viewBox="0 0 559 472"><defs><linearGradient id="linear-gradient" x1="250.83" y1="292.87" x2="250.83" y2="302.85" gradientUnits="userSpaceOnUse"><stop offset="0" stop-color="#fff"/><stop offset="0.5" stop-color="#ccc"/><stop offset="0.5" stop-color="#131313"/><stop offset="1"/></linearGradient><linearGradient id="linear-gradient-2" x1="-5537.63" y1="2269.02" x2="-5522.15" y2="2269.02" gradientTransform="matrix(-1, -0.07, 0.07, -1, -5410.11, 2261.4)" gradientUnits="userSpaceOnUse"><stop offset="0" stop-color="#b3b3b3"/><stop offset="0.5" stop-color="#b6b6b6"/><stop offset="0.5" stop-color="#c7c7c7"/><stop offset="1" stop-color="#ccc"/></linearGradient><linearGradient id="linear-gradient-3" x1="-5541.99" y1="2268.15" x2="-5539.48" y2="2268.15" gradientTransform="matrix(-1, -0.07, 0.07, -1, -5410.11, 2261.4)" gradientUnits="userSpaceOnUse"><stop offset="0"/><stop offset="0.5" stop-color="#010101"/><stop offset="0.5" stop-color="#171717"/><stop offset="1" stop-color="#1a1a1a"/></linearGradient><linearGradient id="linear-gradient-4" x1="-5499.94" y1="2269.66" x2="-5499.33" y2="2269.66" xlink:href="#linear-gradient-3"/><clipPath id="clip-path"><path d="M275.3,362.3l-10.7,10a1.6,1.6,0,0,1-1.6.3l-49.8-4.4c-1.8-.2-2-1-.5-1.5l23.1-8.2a13,13,0,0,1,1.3-.3l36.4,2.8C274.8,361.3,275.8,361.8,275.3,362.3Z" style="fill:none"/></clipPath><linearGradient id="linear-gradient-5" x1="-5547.68" y1="2267.54" x2="-5507.6" y2="2267.54" xlink:href="#linear-gradient-3"/><linearGradient id="linear-gradient-6" x1="258.62" y1="2075.79" x2="258.62" y2="2148.91" gradientTransform="matrix(1, 0, 0, -1, 0, 2442.78)" gradientUnits="userSpaceOnUse"><stop offset="0" stop-color="#fff"/><stop offset="1" stop-color="#fff" stop-opacity="0"/></linearGradient></defs><title>act1_bg_mobile</title><g id="img"><path d="M499.3,52.2c51.1,8.3,52.9,138.1,34.7,170.4-6.5,11.5-15.1,21.6-16.7,37-.7,7.6.4,15.3,1.7,22.6,6.5,34.6,19.5,66.1,21.4,102.1.5,9,.2,18.4-2.5,26.2a33.3,33.3,0,0,1-12,16.5c-16,12-34.7,8.1-51.2-1.3s-31.9-24.1-48.3-34c-33.8-20.6-70.7-20.4-106.7-18.8-56,2.5-111.9,7.8-167.6,17.4-18.5,3.2-37.2,6.8-55.8,3.8s-37.2-13.3-50.8-34.7C33,339.6,25.9,312.3,20.1,285.2c-10.7-50-17.4-109.5.5-153.3,5.2-12.5,12.5-25,11.5-40.1C30.7,71.6,14.8,58.2,16.9,38.2,18.4,24.1,28.1,17.3,36.7,16,64.2,11.7,89.8,38,117,46.2c32.1,9.7,163.6-36,192.3-10.2,12.1,10.8,84.4,11.4,98.8,8.1C439.2,37,448.2,43.9,499.3,52.2Z" style="fill:#fbb03b;opacity:0.42"/><path d="M197,259c-3.2-.3-15.8-1.8-25.5-12.5-13.1-14.4-9.4-33.1-9-35-9.6-4-21.9-11.2-30-24-22-34.9,3-86.1,20-109,53.3-72.1,194.6-91.4,235-34,24.6,35,12.2,99.1-27,137-41.3,39.9-140.5,35.5-164,27C180,219,196.8,242.2,197,259Z" style="fill:#ecf8fe;stroke:#52474c;stroke-miterlimit:10;stroke-width:3.15302632222654px"/><path d="M209.2,54.4a16.3,16.3,0,0,1,3.5-.2,16,16,0,0,1,3.6.3c.8.3,1.2.7,1.2,1.1a.8.8,0,0,1-.2.5l-.5.2h-.5l-.5.2h-3.2l-2.1.3h0c0,.5-.3,1.9-.7,4.1h4.6l.6.2a.5.5,0,0,1,.3.4,1.5,1.5,0,0,1-.7,1.1,7.5,7.5,0,0,1-1.8.7l-3.6.6c-.5,1.8-.7,2.9-.8,3.3l-.3,1.2c-.2.8-.4,1.1-.5,1.1s-.8-.3-1.3-1a3.6,3.6,0,0,1-.8-1.5,47.1,47.1,0,0,1,1.1-5.5c.7-3.1,1.1-5.1,1.2-5.9v-.6A1.5,1.5,0,0,1,209.2,54.4Z"/><path d="M219.4,58.6a1.7,1.7,0,0,1,1.4.9,2.9,2.9,0,0,1,.6,1.7,23.8,23.8,0,0,1-.8,2.9c-.5,1.7-1,3.4-1.5,4.9a1,1,0,0,1-1,.8l-.9-.3a1.7,1.7,0,0,1-.3-1,24.1,24.1,0,0,1,.5-2.8q.6-2.4.9-3.9c.2-1.1.4-1.9.5-2.4S219.2,58.6,219.4,58.6Zm-.3-2.7a1.8,1.8,0,0,1,.5-1.1,1.4,1.4,0,0,1,1-.6c.3,0,.7.4,1.2,1.1a4.9,4.9,0,0,1,.6,1.7,1.2,1.2,0,0,1-.3.9l-.7.2a2.2,2.2,0,0,1-1.5-.8A2.3,2.3,0,0,1,219.1,55.9Z"/><path d="M230.6,58.6a2.8,2.8,0,0,1,2,1,3.3,3.3,0,0,1,.9,2.2,14.3,14.3,0,0,1-.6,3.9,19.3,19.3,0,0,1-1.3,3.1,1.9,1.9,0,0,1-1.5,1c-.5,0-.7-.3-.7-1a12.7,12.7,0,0,1,.7-3.1,11.6,11.6,0,0,0,.6-2.8q0-.9-.3-.9c-.2,0-.3.1-.5.3l-.5.5-.4.6a2.1,2.1,0,0,1-.4.6l-.4.7-.4.7-.4.7c-1.3,2.5-2.4,3.7-3.1,3.7s-.7-.2-1.2-.8a3,3,0,0,1-.7-1.1,3.3,3.3,0,0,1,.3-1l.5-1.3a2,2,0,0,0,.2-.9,3,3,0,0,0,.2-1c0-.4.1-.6.1-.9a3.4,3.4,0,0,1,.1-.9,16.5,16.5,0,0,1,.3-3.1q.2-.3.3-.3a2.5,2.5,0,0,1,1.6.6c.5.5.8.9.8,1.3a20.2,20.2,0,0,1-.7,3.9c.9-1.7,1.8-3,2.5-4.1S230.1,58.6,230.6,58.6Z"/><path d="M243.9,63.7c.2.2.4.4.4.6a4.9,4.9,0,0,1-.3,1.2,4.4,4.4,0,0,0-.3,1.4,6.4,6.4,0,0,1-.2.7.7.7,0,0,1-.1.5v.4a.6.6,0,0,0-.1.4,1,1,0,0,0-.1.3v.3l-.2.2h-.4c-.2,0-.5-.2-.8-.6a3.5,3.5,0,0,1-.6-1.4c-1.4,1.3-2.5,2-3.5,2a2.9,2.9,0,0,1-2-1,3.1,3.1,0,0,1-1.1-2.1,8.9,8.9,0,0,1,1-2.9,11.9,11.9,0,0,1,2.5-3.5,4.8,4.8,0,0,1,3.2-1.7,3.6,3.6,0,0,1,2.1,1.1,3,3,0,0,1,1.2,1.9A4.8,4.8,0,0,1,243.9,63.7Zm-6.3,3.4a4.5,4.5,0,0,0,2.3-1.2,5.8,5.8,0,0,0,1.8-3q0-.1.3-.3c0-.8-.1-1.2-.4-1.2a2.9,2.9,0,0,0-1.9,1.1,18.8,18.8,0,0,0-1.8,2.4,6.4,6.4,0,0,0-.7,1.9c0,.1.1.2.1.3Z"/><path d="M250.1,53.5a2.8,2.8,0,0,1,.9,1.8,27.4,27.4,0,0,1-.3,3.1c-.2,1.5-.4,2.7-.5,3.6-1.2,5.2-2.1,7.8-2.6,7.8a1.6,1.6,0,0,1-1.1-.7,2.4,2.4,0,0,1-.8-1.3l.6-2.3a54.1,54.1,0,0,0,1.2-5.7,38.5,38.5,0,0,0,.6-6.6c0-.4.2-.6.7-.6A2.1,2.1,0,0,1,250.1,53.5Z"/><path d="M254,58.6c.5,0,.9.3,1.3.9a2.9,2.9,0,0,1,.6,1.7,16.3,16.3,0,0,1-.7,2.9c-.5,1.7-1,3.4-1.5,4.9a1.2,1.2,0,0,1-1.1.8,1.1,1.1,0,0,1-.8-.3,1.3,1.3,0,0,1-.4-1,15.5,15.5,0,0,1,.6-2.8c.3-1.6.6-2.9.8-3.9a13.6,13.6,0,0,1,.6-2.4C253.5,58.9,253.7,58.6,254,58.6Zm-.4-2.7a1.8,1.8,0,0,1,.5-1.1c.4-.4.7-.6,1-.6s.8.4,1.2,1.1A5.9,5.9,0,0,1,257,57a1,1,0,0,1-.4.9l-.7.2a1.9,1.9,0,0,1-1.4-.8A2.1,2.1,0,0,1,253.6,55.9Z"/><path d="M257.1,66.4a7.7,7.7,0,0,1,1-3.3,9.5,9.5,0,0,1,2.5-3.1,4.7,4.7,0,0,1,3.1-1.3,2,2,0,0,1,1.5.9,2.8,2.8,0,0,1,.8,1.8c0,.4-.1.6-.5.6l-.7-.3-.9-.2c-.4,0-.8.3-1.4.8a10.8,10.8,0,0,0-1.6,2,3.8,3.8,0,0,0-.6,1.8c0,.4,0,.7.2.8l1.2.2,1.8-.2,1.2-.3.6-.2c.4,0,.6.2.6.5s-.5,1.3-1.6,2a7.2,7.2,0,0,1-3.4.9,4.2,4.2,0,0,1-2.4-1.1A3.4,3.4,0,0,1,257.1,66.4Z"/><path d="M276.1,64.6a5.8,5.8,0,0,1-3,.9,8.5,8.5,0,0,1-2.5-.3,5,5,0,0,0-.2,1.2,1.3,1.3,0,0,0,.2.8c.1.2.4.3,1,.3a11.4,11.4,0,0,0,2.8-.3l1.2-.3q.9,0,.9.6c0,.5-.5,1.1-1.4,1.6a7.2,7.2,0,0,1-3.3.7,3.8,3.8,0,0,1-4-3.8,6.8,6.8,0,0,1,.9-3.3,9.5,9.5,0,0,1,2.3-2.9,4.3,4.3,0,0,1,2.8-1.2,3.4,3.4,0,0,1,2.5,1.4,4.1,4.1,0,0,1,1.2,2.7C277.5,63.4,277,64,276.1,64.6Zm-1.6-2.9a1.2,1.2,0,0,0-.8-.4c-.3,0-.6.2-1.1.6a9.8,9.8,0,0,0-1.2,1.5h.6c2,0,3-.4,3-1S274.8,62,274.5,61.7Z"/><path d="M293,58.6c.5,0,1,.4,1.4,1.2a4.1,4.1,0,0,1,.6,2,20.6,20.6,0,0,1-.4,2.8,14.2,14.2,0,0,1-1.1,3.5c-.5,1.2-1.1,1.7-1.7,1.7s-.7-.3-.7-.9a13.9,13.9,0,0,1,.6-3.2,24.3,24.3,0,0,0,.5-2.9c0-.5-.1-.7-.2-.7s-.7.3-1.1,1l-1.5,2.6-1.1,2.2-.3.7-.4.6q-.6,1.2-1.8,0c-.4-.4-.6-.7-.6-1a12.9,12.9,0,0,1,.4-1.7,18.6,18.6,0,0,0,.3-3.6c0-.5,0-.8-.2-.8a.8.8,0,0,0-.6.5,14.3,14.3,0,0,0-1,1.9l-1.3,2.2c-1.2,2.1-2.1,3.1-2.8,3.1s-.7-.2-1.1-.8-.8-.9-.8-1.2a10.8,10.8,0,0,1,.5-2,13.6,13.6,0,0,0,.7-3.5c.1-1.2.1-2.1.2-2.8s.3-1,.5-1a2.5,2.5,0,0,1,1.6.6c.5.5.8.9.8,1.3a20,20,0,0,1-.9,4.5A21,21,0,0,1,284,60a3.3,3.3,0,0,1,2.2-1.4c.3,0,.8.4,1.4,1.1a3.4,3.4,0,0,1,.8,1.9v1.6a8.7,8.7,0,0,1,2-3.1A3.8,3.8,0,0,1,293,58.6Z"/><path d="M297.7,61c1.1-1.6,2.3-2.4,3.4-2.4a3.4,3.4,0,0,1,2.7,1.2,3.8,3.8,0,0,1,1.2,2.8,8,8,0,0,1-.8,3.3,7.6,7.6,0,0,1-2.2,2.8,4.5,4.5,0,0,1-3,1.1,2.6,2.6,0,0,1-2.1-1,3.9,3.9,0,0,1-.9-2.6A9.5,9.5,0,0,1,297.7,61Zm3.6,4.5a6.7,6.7,0,0,0,.8-3,3.2,3.2,0,0,0-.4-1.9,6.5,6.5,0,0,0-1.8,2.3A7.1,7.1,0,0,0,299,66c0,.8,0,1.4.2,1.6A4.2,4.2,0,0,0,301.3,65.5Z"/><path d="M313,58.7a2.2,2.2,0,0,1,1.6.9,3.4,3.4,0,0,1,.8,1.8c0,.3-.1.5-.4.5l-.8-.2-1-.2a3.4,3.4,0,0,0-1.5.4c-.7.2-1,.5-1,.9s.2.3.6.6a5.7,5.7,0,0,0,1.3.8,4.6,4.6,0,0,1,1.2,1.2,2.9,2.9,0,0,1,.6,1.7c0,.6-.4,1.2-1.3,1.8a5.4,5.4,0,0,1-3.1.9,5,5,0,0,1-3-.8c-.8-.5-1.3-1-1.3-1.6s.3-.9.7-.9a1.1,1.1,0,0,1,.7.3,5.4,5.4,0,0,0,2.7.6c1.1,0,1.6-.2,1.6-.4a1.4,1.4,0,0,0-.6-1l-1.3-1-1.4-1.1a2.2,2.2,0,0,1-.6-1.3c0-.8.7-1.6,2.1-2.6A7.3,7.3,0,0,1,313,58.7Z"/><path d="M332.8,64.6a5.2,5.2,0,0,1-2.9.9,8.5,8.5,0,0,1-2.5-.3,2.5,2.5,0,0,0-.2,1.2c0,.4,0,.7.2.8s.4.3,1,.3a10.6,10.6,0,0,0,2.7-.3l1.3-.3c.5,0,.8.2.8.6s-.4,1.1-1.4,1.6a6.6,6.6,0,0,1-3.2.7,3.8,3.8,0,0,1-4-3.8,6.8,6.8,0,0,1,.9-3.3,9.5,9.5,0,0,1,2.3-2.9,4.1,4.1,0,0,1,2.8-1.2,3.4,3.4,0,0,1,2.5,1.4,4.1,4.1,0,0,1,1.2,2.7C334.3,63.4,333.8,64,332.8,64.6Zm-1.5-2.9a1.2,1.2,0,0,0-.8-.4,1.7,1.7,0,0,0-1.1.6l-1.2,1.5h.6c2,0,3-.4,3-1S331.6,62,331.3,61.7Z"/><path d="M342.1,58.7a2.2,2.2,0,0,1,1.6.9,3.4,3.4,0,0,1,.8,1.8c0,.3-.1.5-.4.5l-.8-.2-1-.2a3.4,3.4,0,0,0-1.5.4c-.7.2-1,.5-1,.9s.2.3.6.6a5.7,5.7,0,0,0,1.3.8,7.1,7.1,0,0,1,1.3,1.2,3.7,3.7,0,0,1,.5,1.7c0,.6-.4,1.2-1.3,1.8a5.4,5.4,0,0,1-3.1.9,5,5,0,0,1-3-.8c-.8-.5-1.3-1-1.3-1.6s.3-.9.7-.9a1.1,1.1,0,0,1,.7.3,5.4,5.4,0,0,0,2.7.6c1.1,0,1.6-.2,1.6-.4a1.4,1.4,0,0,0-.6-1l-1.3-1-1.4-1.1a2.2,2.2,0,0,1-.6-1.3c0-.8.7-1.6,2.1-2.6A7.3,7.3,0,0,1,342.1,58.7Z"/><path d="M350.4,62.9c-.2.7-.5,1.5-.8,2.6s-.5,1.6-.5,1.7h.4l1.7-.5,1.5-.5c.4,0,.6.2.6.7s-.5,1.1-1.5,1.8a4.9,4.9,0,0,1-3,1,2.9,2.9,0,0,1-1.7-.7,2.1,2.1,0,0,1-.9-1.6,13.5,13.5,0,0,1,.6-2.7,25.1,25.1,0,0,0,.9-2.9l-1.2.3a1.2,1.2,0,0,1-.9-.6,1.6,1.6,0,0,1-.5-1.2q0-.6,3.3-1.2a16.3,16.3,0,0,0,.5-3.5.5.5,0,0,1,.6-.6,2.5,2.5,0,0,1,1.5.7,1.9,1.9,0,0,1,.8,1.3,8.1,8.1,0,0,1-.3,1.9h1.6c1.1,0,1.7.3,1.7.8s-.4.6-1,.8a17.6,17.6,0,0,1-2.9.7Z"/><path d="M364.3,63.7a.7.7,0,0,1,.4.6,4.9,4.9,0,0,1-.3,1.2c-.1.6-.2,1-.3,1.4a2,2,0,0,0-.1.7,1.1,1.1,0,0,0-.1.5c0,.1-.1.2-.1.4s-.1.3-.1.4a.5.5,0,0,1-.1.3.4.4,0,0,1-.1.3.3.3,0,0,0-.1.2h-.5c-.2,0-.4-.2-.7-.6a6.1,6.1,0,0,1-.7-1.4c-1.3,1.3-2.5,2-3.4,2a2.9,2.9,0,0,1-2-1,2.7,2.7,0,0,1-1.1-2.1,8.1,8.1,0,0,1,.9-2.9,12.3,12.3,0,0,1,2.6-3.5,4.5,4.5,0,0,1,3.2-1.7,3.6,3.6,0,0,1,2.1,1.1,3,3,0,0,1,1.2,1.9A4,4,0,0,1,364.3,63.7ZM358,67.1a4.2,4.2,0,0,0,2.3-1.2,4.7,4.7,0,0,0,1.8-3c0-.1.1-.2.4-.3s-.2-1.2-.4-1.2a3.1,3.1,0,0,0-2,1.1,11.8,11.8,0,0,0-1.7,2.4,4.4,4.4,0,0,0-.7,1.9v.3Z"/><path d="M168.9,79.2a2.9,2.9,0,0,1,1.4.8,2.2,2.2,0,0,1,.8,1.5,28.3,28.3,0,0,1-.8,3.9,23.8,23.8,0,0,0-.8,4.3,4.2,4.2,0,0,0,.3,1.8.9.9,0,0,0,.9.7c.3,0,.7-.3,1.2-.8a11.5,11.5,0,0,0,1.4-2,16,16,0,0,0,1.1-2.9,12.7,12.7,0,0,0,.4-3.2,16.3,16.3,0,0,0-.1-2.4,5.8,5.8,0,0,1-.1-1c0-.5.1-.7.5-.7s1.1.4,1.8,1.2a4.1,4.1,0,0,1,1.1,2.8,14.1,14.1,0,0,1-.6,3.7,13.2,13.2,0,0,1-1.5,3.9,8.3,8.3,0,0,1-2.4,3.1,4.4,4.4,0,0,1-3,1.3,3.9,3.9,0,0,1-2.8-1.6,5.6,5.6,0,0,1-1.2-3.3,19.8,19.8,0,0,1,.4-3.9q.4-2.2.9-3.9a11.8,11.8,0,0,0,.4-2.5A.7.7,0,0,1,168.9,79.2Z"/><path d="M186.7,84a2.3,2.3,0,0,1,1.9,1,3.2,3.2,0,0,1,.9,2.1,13.2,13.2,0,0,1-.6,3.9,11.5,11.5,0,0,1-1.3,3.1c-.5.7-1,1.1-1.4,1.1s-.8-.4-.8-1a14.1,14.1,0,0,1,.8-3.2,15.1,15.1,0,0,0,.5-2.8c0-.6-.1-.8-.2-.8l-.6.2-.4.5-.4.6-.4.6a4.3,4.3,0,0,0-.4.7l-.4.7a4.3,4.3,0,0,0-.4.7c-1.4,2.5-2.4,3.8-3.2,3.8s-.7-.3-1.1-.8a1.9,1.9,0,0,1-.7-1.2,4.3,4.3,0,0,1,.3-1c.2-.5.3-.9.4-1.2l.3-.9c0-.3.1-.7.1-1.1a36.7,36.7,0,0,0,.2-1.8c.1-1.9.3-2.9.3-3.1s.2-.3.4-.3a2.1,2.1,0,0,1,1.5.7,1.6,1.6,0,0,1,.8,1.2,14.6,14.6,0,0,1-.7,3.9c1-1.7,1.8-3,2.6-4.1S186.1,84,186.7,84Z"/><path d="M193.1,84a1.7,1.7,0,0,1,1.4.8,3.2,3.2,0,0,1,.6,1.7,22.9,22.9,0,0,1-.8,3c-.4,1.7-.9,3.3-1.4,4.8a1.1,1.1,0,0,1-1.1.9,1.2,1.2,0,0,1-.8-.4,1,1,0,0,1-.4-.9,15.9,15.9,0,0,1,.6-2.9c.3-1.5.6-2.8.8-3.9s.4-1.9.5-2.4S192.9,84,193.1,84Zm-.3-2.7a2.1,2.1,0,0,1,.5-1.2c.4-.4.7-.6,1-.6s.7.4,1.2,1.2a5,5,0,0,1,.7,1.7,1.2,1.2,0,0,1-.4.8,1.1,1.1,0,0,1-.7.3,2.5,2.5,0,0,1-1.5-.9A2.4,2.4,0,0,1,192.8,81.3Z"/><path d="M205.6,77.9c.4,0,.8.3,1.4.9a3.4,3.4,0,0,1,.8,1.8,23.4,23.4,0,0,1-.7,3.4l-.9,3.7c-1.2,5-2.1,7.5-2.6,7.5s-.6-.2-1-.6a1.4,1.4,0,0,1-.6-1v-.2c-1.4,1.2-2.4,1.8-3.1,1.8a2.8,2.8,0,0,1-1.8-1,3,3,0,0,1-.9-1.9,6.7,6.7,0,0,1,.3-1.8,5.8,5.8,0,0,1,.7-2.1,9.1,9.1,0,0,1,1.1-2.2,5.7,5.7,0,0,1,1.5-1.6,2.8,2.8,0,0,1,1.8-.6,2.6,2.6,0,0,1,2.3,1.4,44.4,44.4,0,0,0,1.1-6.9A.5.5,0,0,1,205.6,77.9Zm-6.4,14.5a3.6,3.6,0,0,0,1.8-.9,5.9,5.9,0,0,0,2-2.4c-.1-.1-.1-.3-.1-.7a1.5,1.5,0,0,0-.4-1.1,1,1,0,0,0-.7-.6,1.9,1.9,0,0,0-1.2.7,6.9,6.9,0,0,0-1,1.7,8.8,8.8,0,0,0-.7,3c0,.2,0,.2.1.3Z"/><path d="M217.3,89l.4.6a4.9,4.9,0,0,1-.3,1.2,5,5,0,0,0-.3,1.4,3.1,3.1,0,0,0-.2.8c0,.2,0,.3-.1.4v.4a.8.8,0,0,0-.1.4v.6l-.2.2-.4.2c-.2,0-.5-.2-.8-.6a3.4,3.4,0,0,1-.6-1.5c-1.4,1.4-2.5,2.1-3.5,2.1a3.1,3.1,0,0,1-2-1.1,2.7,2.7,0,0,1-1.1-2,6.9,6.9,0,0,1,1-3,13.3,13.3,0,0,1,2.5-3.5,4.7,4.7,0,0,1,3.2-1.6,3.3,3.3,0,0,1,2.1,1,2.9,2.9,0,0,1,1.2,2A4.5,4.5,0,0,1,217.3,89ZM211,92.4a5,5,0,0,0,2.3-1.1,5.8,5.8,0,0,0,1.8-3,.3.3,0,0,1,.3-.3c0-.9-.2-1.3-.4-1.3a2.7,2.7,0,0,0-1.9,1.2,10.8,10.8,0,0,0-1.8,2.4,5.6,5.6,0,0,0-.7,1.9c0,.1,0,.2.1.2Z"/><path d="M228.4,77.9a2.6,2.6,0,0,1,1.4.9,3.4,3.4,0,0,1,.8,1.8,17.8,17.8,0,0,1-.8,3.4l-.9,3.7c-1.1,5-2,7.5-2.5,7.5a2.4,2.4,0,0,1-1.6-1.6v-.2c-1.4,1.2-2.5,1.8-3.1,1.8a2.8,2.8,0,0,1-1.8-1,3,3,0,0,1-.9-1.9,14.1,14.1,0,0,1,.2-1.8,17.2,17.2,0,0,1,.7-2.1c.4-.8.7-1.5,1.1-2.2a11.7,11.7,0,0,1,1.5-1.6,3.3,3.3,0,0,1,1.9-.6,2.4,2.4,0,0,1,2.2,1.4,37.4,37.4,0,0,0,1.2-6.9A.5.5,0,0,1,228.4,77.9ZM222,92.4a4.1,4.1,0,0,0,1.8-.9,5,5,0,0,0,1.9-2.4v-.7a1.5,1.5,0,0,0-.4-1.1,1,1,0,0,0-.7-.6,1.9,1.9,0,0,0-1.2.7,6.9,6.9,0,0,0-1,1.7,8.8,8.8,0,0,0-.7,3v.3Z"/><path d="M239.2,91.8a7.9,7.9,0,0,1,.9-3.4,12.6,12.6,0,0,1,2.5-3.1,4.9,4.9,0,0,1,3.1-1.3,2.2,2.2,0,0,1,1.6,1,2.9,2.9,0,0,1,.8,1.8c0,.3-.2.5-.6.5l-.7-.2-.9-.3a2.6,2.6,0,0,0-1.4.9,7.4,7.4,0,0,0-1.5,1.9,3.8,3.8,0,0,0-.7,1.8,1.3,1.3,0,0,0,.2.8c.2.2.6.2,1.3.2h1.7l1.2-.4.7-.2c.4,0,.6.2.6.5s-.6,1.3-1.7,2a6,6,0,0,1-3.3,1,4.1,4.1,0,0,1-2.5-1.2A3.1,3.1,0,0,1,239.2,91.8Z"/><path d="M251.4,86.4q1.7-2.4,3.3-2.4a3.7,3.7,0,0,1,2.8,1.1,4.1,4.1,0,0,1,1.1,2.8,6.7,6.7,0,0,1-.8,3.3,7,7,0,0,1-2.2,2.9,4.8,4.8,0,0,1-3,1.1,2.4,2.4,0,0,1-2-1.1,3.9,3.9,0,0,1-.9-2.6A8.9,8.9,0,0,1,251.4,86.4Zm3.5,4.5a6.4,6.4,0,0,0,.9-3,3.8,3.8,0,0,0-.4-1.9,5.1,5.1,0,0,0-1.9,2.3,6.4,6.4,0,0,0-.9,3,3.2,3.2,0,0,0,.3,1.7A5.8,5.8,0,0,0,254.9,90.9Z"/><path d="M267.7,84a2.5,2.5,0,0,1,2,1,3.1,3.1,0,0,1,.8,2.1,13.2,13.2,0,0,1-.6,3.9,11.5,11.5,0,0,1-1.3,3.1c-.4.7-.9,1.1-1.4,1.1s-.7-.4-.7-1a12.3,12.3,0,0,1,.7-3.2,9.6,9.6,0,0,0,.5-2.8c0-.6,0-.8-.2-.8l-.5.2-.5.5-.4.6-.4.6-.4.7a4.3,4.3,0,0,1-.4.7l-.4.7c-1.3,2.5-2.4,3.8-3.1,3.8s-.7-.3-1.2-.8a1.9,1.9,0,0,1-.7-1.2,4.3,4.3,0,0,1,.3-1l.5-1.2a2.9,2.9,0,0,0,.2-.9c.1-.3.1-.7.2-1.1s.1-.6.1-.8a4.6,4.6,0,0,1,.1-1,16.5,16.5,0,0,1,.3-3.1q.2-.3.3-.3a2.1,2.1,0,0,1,1.6.7,1.9,1.9,0,0,1,.8,1.2,20.2,20.2,0,0,1-.7,3.9c.9-1.7,1.8-3,2.5-4.1S267.2,84,267.7,84Z"/><path d="M287.7,84.5a.8.8,0,0,1,.7-.5q.6,0,1.2.9a2.5,2.5,0,0,1,.7,1.5,23.3,23.3,0,0,1-1,3.2c-.7,2-1.2,3.5-1.5,4.7a1.1,1.1,0,0,1-1.1.9,1.1,1.1,0,0,1-.7-.3,1.5,1.5,0,0,1-.3-1A8.1,8.1,0,0,1,286,92c-1.5,2.1-2.7,3.2-3.6,3.2a2.6,2.6,0,0,1-1.6-.9,2.4,2.4,0,0,1-1-1.8,16.1,16.1,0,0,1,1.2-5.3c.7-2.1,1.5-3.2,2.2-3.2a1.6,1.6,0,0,1,1.1.5,2.1,2.1,0,0,1,.5,1.3,5.2,5.2,0,0,1-.6,1.4,14.4,14.4,0,0,0-1.6,5.1c0,.1,0,.1.1.1s.6-.3,1.2-1a24.5,24.5,0,0,0,2.1-3A19.2,19.2,0,0,0,287.7,84.5Z"/><path d="M298.6,84a2.3,2.3,0,0,1,2,1,3.2,3.2,0,0,1,.9,2.1,13.2,13.2,0,0,1-.6,3.9,11.5,11.5,0,0,1-1.3,3.1c-.5.7-1,1.1-1.4,1.1s-.8-.4-.8-1a19,19,0,0,1,.7-3.2,10.8,10.8,0,0,0,.6-2.8c0-.6-.1-.8-.2-.8l-.6.2-.4.5-.4.6a2.1,2.1,0,0,0-.4.6,4.3,4.3,0,0,0-.4.7l-.4.7a4.3,4.3,0,0,0-.4.7c-1.4,2.5-2.4,3.8-3.2,3.8s-.7-.3-1.1-.8a1.9,1.9,0,0,1-.7-1.2,4.3,4.3,0,0,1,.3-1c.2-.5.3-.9.4-1.2l.3-.9c0-.3.1-.7.1-1.1a36.7,36.7,0,0,0,.2-1.8,16.5,16.5,0,0,1,.3-3.1c.1-.2.2-.3.4-.3a2.1,2.1,0,0,1,1.5.7,1.9,1.9,0,0,1,.8,1.2,14.6,14.6,0,0,1-.7,3.9,33,33,0,0,1,2.6-4.1C297.5,84.5,298.1,84,298.6,84Z"/><path d="M319.3,89.9a5.2,5.2,0,0,1-2.9.9l-2.5-.2a2.3,2.3,0,0,0-.2,1.1c0,.4,0,.7.2.9s.4.2.9.2a10.9,10.9,0,0,0,2.8-.3l1.2-.3q.9,0,.9.6c0,.6-.4,1.1-1.4,1.6a6.6,6.6,0,0,1-3.2.8,3.7,3.7,0,0,1-2.9-1.2,3.4,3.4,0,0,1-1.2-2.7,7.7,7.7,0,0,1,1-3.3,10.9,10.9,0,0,1,2.3-2.9A4.5,4.5,0,0,1,317,84a3.3,3.3,0,0,1,2.6,1.3,4.1,4.1,0,0,1,1.2,2.7A2.3,2.3,0,0,1,319.3,89.9Zm-1.5-2.8a1.4,1.4,0,0,0-.9-.5,1.8,1.8,0,0,0-1,.6l-1.2,1.5h.6c2,0,3-.3,3-1S318.1,87.3,317.8,87.1Z"/><path d="M319.1,98.7q.8,0,1.5-2.4a61.9,61.9,0,0,0,1.6-6l1.2-4.7.5-1.3c.2-.2.3-.3.5-.3a1.7,1.7,0,0,1,1.3.8,3.4,3.4,0,0,1,.7,1.8c0,.3-1,3.7-3,10.4a5.5,5.5,0,0,1-1.8,3,4,4,0,0,1-2.8,1,3.3,3.3,0,0,1-2.2-.9c-.8-.7-1.1-1.2-1.1-1.7a2.6,2.6,0,0,1,.3-1.1c.3-.4.5-.6.8-.6s.6.3,1.1.9.2.2.2.3A1.7,1.7,0,0,0,319.1,98.7Zm5.8-18.6a1.4,1.4,0,0,1,1-.6q.5,0,1.2,1.2a4.6,4.6,0,0,1,.6,1.8.9.9,0,0,1-.3.7l-.7.3c-.5,0-.9-.3-1.5-.9a2.4,2.4,0,0,1-.8-1.3A1.6,1.6,0,0,1,324.9,80.1Z"/><path d="M335.6,89.9a5.8,5.8,0,0,1-3,.9l-2.5-.2a5.2,5.2,0,0,0-.2,1.1,2,2,0,0,0,.2.9c.1.2.5.2,1,.2a11.4,11.4,0,0,0,2.8-.3l1.2-.3q.9,0,.9.6c0,.6-.5,1.1-1.4,1.6a7,7,0,0,1-3.3.8,3.9,3.9,0,0,1-4-3.9,7.5,7.5,0,0,1,.9-3.3,10.9,10.9,0,0,1,2.3-2.9,5,5,0,0,1,2.8-1.1,3.1,3.1,0,0,1,2.5,1.3A4.1,4.1,0,0,1,337,88,2.3,2.3,0,0,1,335.6,89.9ZM334,87.1c-.3-.3-.5-.5-.8-.5s-.6.2-1,.6a4.4,4.4,0,0,0-1.2,1.5h.5c2,0,3-.3,3-1S334.3,87.3,334,87.1Z"/><path d="M339.1,87.6V85.2c0-.8.2-1.2.7-1.2a1.6,1.6,0,0,1,.9.3,1.7,1.7,0,0,1,.6,1,5.4,5.4,0,0,1,1.6-1,3.4,3.4,0,0,1,1.6-.4c1,0,1.6.2,1.6.7a.8.8,0,0,1-.2.6l-.2.3-.3.2-.2.2-.7.5a6.1,6.1,0,0,0-1.7,1.4,6.7,6.7,0,0,0-1.1,2.4,13.8,13.8,0,0,1-1.1,3.7c-.4.8-.8,1.3-1.2,1.3a1.4,1.4,0,0,1-1.1-.7,2.7,2.7,0,0,1-.3-1.2,4.5,4.5,0,0,1,.4-1.7,13.6,13.6,0,0,0,.6-2A11.2,11.2,0,0,0,339.1,87.6Z"/><path d="M345.7,91.8a8.1,8.1,0,0,1,1-3.4,10.7,10.7,0,0,1,2.5-3.1,4.7,4.7,0,0,1,3.1-1.3,1.9,1.9,0,0,1,1.5,1,2.4,2.4,0,0,1,.8,1.8c0,.3-.1.5-.5.5l-.7-.2a1.6,1.6,0,0,0-.9-.3c-.4,0-.8.3-1.4.9a7.7,7.7,0,0,0-1.6,1.9,4.6,4.6,0,0,0-.6,1.8c0,.4,0,.7.2.8s.6.2,1.2.2h1.8l1.2-.4.6-.2c.4,0,.6.2.6.5s-.5,1.3-1.6,2a6.3,6.3,0,0,1-3.4,1,3.9,3.9,0,0,1-2.4-1.2A3.3,3.3,0,0,1,345.7,91.8Z"/><path d="M358.8,84a1.9,1.9,0,0,1,1.4.8,3.2,3.2,0,0,1,.6,1.7,22.9,22.9,0,0,1-.8,3q-.7,2.6-1.5,4.8a1,1,0,0,1-1,.9,1.8,1.8,0,0,1-.9-.4,1.2,1.2,0,0,1-.3-.9,24.3,24.3,0,0,1,.5-2.9q.6-2.2.9-3.9c.2-1.1.4-1.9.5-2.4S358.6,84,358.8,84Zm-.3-2.7a2.1,2.1,0,0,1,.5-1.2,1.4,1.4,0,0,1,1-.6q.5,0,1.2,1.2a4.3,4.3,0,0,1,.6,1.7,1.1,1.1,0,0,1-.3.8,1.1,1.1,0,0,1-.7.3,2.5,2.5,0,0,1-1.5-.9A2.4,2.4,0,0,1,358.5,81.3Z"/><path d="M362,91.8a6.9,6.9,0,0,1,1-3.4,9.3,9.3,0,0,1,2.5-3.1,4.4,4.4,0,0,1,3-1.3,2.1,2.1,0,0,1,1.6,1,2.9,2.9,0,0,1,.8,1.8.5.5,0,0,1-.5.5l-.7-.2a1.9,1.9,0,0,0-1-.3c-.3,0-.7.3-1.3.9a7.7,7.7,0,0,0-1.6,1.9,3.8,3.8,0,0,0-.7,1.8c0,.4.1.7.3.8s.5.2,1.2.2h1.7l1.2-.4.7-.2c.4,0,.6.2.6.5s-.5,1.3-1.7,2a6,6,0,0,1-3.3,1,3.9,3.9,0,0,1-2.4-1.2A3.3,3.3,0,0,1,362,91.8Z"/><path d="M375.1,84a1.7,1.7,0,0,1,1.3.8,3.2,3.2,0,0,1,.6,1.7,16.4,16.4,0,0,1-.7,3q-.7,2.6-1.5,4.8c-.2.6-.5.9-1.1.9a1.2,1.2,0,0,1-.8-.4,1.3,1.3,0,0,1-.4-.9,15.9,15.9,0,0,1,.6-2.9,24.6,24.6,0,0,0,.8-3.9,13.6,13.6,0,0,1,.6-2.4C374.7,84.2,374.9,84,375.1,84Zm-.3-2.7a1.6,1.6,0,0,1,.5-1.2,1.2,1.2,0,0,1,1-.6c.3,0,.7.4,1.1,1.2a3.5,3.5,0,0,1,.7,1.7,1.1,1.1,0,0,1-.3.8,1.3,1.3,0,0,1-.8.3,2.1,2.1,0,0,1-1.4-.9A1.9,1.9,0,0,1,374.8,81.3Z"/><path d="M379.9,86.4q1.7-2.4,3.3-2.4a3.7,3.7,0,0,1,2.8,1.1,4.1,4.1,0,0,1,1.1,2.8,8,8,0,0,1-.8,3.3,7,7,0,0,1-2.2,2.9,4.8,4.8,0,0,1-3,1.1,2.8,2.8,0,0,1-2.1-1.1,4.5,4.5,0,0,1-.8-2.6A8.2,8.2,0,0,1,379.9,86.4Zm3.5,4.5a6.4,6.4,0,0,0,.9-3,3.8,3.8,0,0,0-.4-1.9,4.6,4.6,0,0,0-1.9,2.3,6.4,6.4,0,0,0-.9,3,5.4,5.4,0,0,0,.2,1.7A5.3,5.3,0,0,0,383.4,90.9Z"/><path d="M183.6,103.2c.3,0,.8.3,1.3,1a2.6,2.6,0,0,1,.9,1.7,34.2,34.2,0,0,1-.8,3.5l-.9,3.6c-1.2,5-2,7.5-2.5,7.5a2.1,2.1,0,0,1-1.1-.5,1.8,1.8,0,0,1-.5-1.1v-.2c-1.5,1.2-2.5,1.8-3.1,1.8a2.1,2.1,0,0,1-1.8-1,3,3,0,0,1-.9-1.8,13.7,13.7,0,0,1,.2-1.9l.7-2.1a10.3,10.3,0,0,1,1.1-2.1,4.6,4.6,0,0,1,1.5-1.6,2.7,2.7,0,0,1,1.8-.7,2.8,2.8,0,0,1,2.3,1.4,28.4,28.4,0,0,0,1.1-6.8C182.9,103.4,183.1,103.2,183.6,103.2Zm-6.5,14.6a4.9,4.9,0,0,0,1.9-1,6,6,0,0,0,1.9-2.3v-.8a1.5,1.5,0,0,0-.4-1.1c-.3-.4-.5-.5-.7-.5a1.6,1.6,0,0,0-1.3.7,4.2,4.2,0,0,0-.9,1.6,10.7,10.7,0,0,0-.8,3.1v.2Z"/><path d="M194.3,115.3a6.7,6.7,0,0,1-3,.8,9.4,9.4,0,0,1-2.5-.2,5,5,0,0,0-.2,1.2,1.3,1.3,0,0,0,.2.8c.1.2.5.3,1,.3a11.4,11.4,0,0,0,2.8-.3l1.2-.3c.6,0,.9.2.9.5s-.5,1.2-1.4,1.7a7,7,0,0,1-3.3.7,4,4,0,0,1-2.9-1.1,4.1,4.1,0,0,1-1.1-2.8,7.5,7.5,0,0,1,.9-3.3,9.1,9.1,0,0,1,2.3-2.8,4.5,4.5,0,0,1,2.8-1.2,3.3,3.3,0,0,1,2.5,1.4,4.1,4.1,0,0,1,1.2,2.7C195.7,114.1,195.2,114.7,194.3,115.3Zm-1.6-2.9a1,1,0,0,0-.8-.4c-.3,0-.6.2-1,.6a3.3,3.3,0,0,0-1.2,1.4h.5c2,0,3-.4,3-1.1Z"/><path d="M214.2,114.3c.2.3.4.5.4.7a4.9,4.9,0,0,1-.3,1.2,3.9,3.9,0,0,0-.3,1.3,4.5,4.5,0,0,1-.2.8c0,.2,0,.3-.1.4v.4a.8.8,0,0,0-.1.4c0,.1-.1.2-.1.4v.2c-.1.1-.1.2-.2.2s-.2.2-.4.2-.5-.2-.8-.6a3.4,3.4,0,0,1-.6-1.5c-1.4,1.4-2.5,2.1-3.5,2.1a2.9,2.9,0,0,1-2-1,3.1,3.1,0,0,1-1.1-2.1,6.6,6.6,0,0,1,1-2.9,12.3,12.3,0,0,1,2.5-3.6,5.1,5.1,0,0,1,3.2-1.6,3.6,3.6,0,0,1,2.1,1.1,2.7,2.7,0,0,1,1.2,1.9A4.1,4.1,0,0,1,214.2,114.3Zm-6.3,3.5a4.5,4.5,0,0,0,2.3-1.2,5.8,5.8,0,0,0,1.8-3,.3.3,0,0,1,.3-.3c0-.8-.2-1.2-.4-1.2a2.6,2.6,0,0,0-1.9,1.1,18.8,18.8,0,0,0-1.8,2.4,6.4,6.4,0,0,0-.7,1.9c0,.1,0,.2.1.2Z"/><path d="M222.9,109.3a2.6,2.6,0,0,1,1.7,1,3.1,3.1,0,0,1,.8,1.8.5.5,0,0,1-.5.5l-.7-.2a2,2,0,0,0-1-.2l-1.5.3c-.7.3-1,.6-1,.9s.2.4.6.7l1.2.8a4.9,4.9,0,0,1,1.3,1.2,2.7,2.7,0,0,1,.6,1.7c0,.6-.4,1.2-1.3,1.8a5.4,5.4,0,0,1-3.1.9,5.6,5.6,0,0,1-3-.8c-.9-.5-1.3-1.1-1.3-1.6s.2-.9.7-.9l.7.2a4.5,4.5,0,0,0,2.7.7c1.1,0,1.6-.2,1.6-.5a1.2,1.2,0,0,0-.6-.9,7.1,7.1,0,0,0-1.4-1l-1.3-1.1a2.2,2.2,0,0,1-.6-1.3c0-.8.7-1.7,2.1-2.6A7.1,7.1,0,0,1,222.9,109.3Z"/><path d="M227.7,111.7c1.2-1.6,2.3-2.4,3.4-2.4a3.8,3.8,0,0,1,2.8,1.2,3.9,3.9,0,0,1,1.1,2.8,8.4,8.4,0,0,1-.8,3.3,7.6,7.6,0,0,1-2.2,2.8,4.8,4.8,0,0,1-3,1.1,2.6,2.6,0,0,1-2.1-1,4,4,0,0,1-.8-2.6A9.1,9.1,0,0,1,227.7,111.7Zm3.6,4.5a7.5,7.5,0,0,0,.8-3,3.2,3.2,0,0,0-.4-1.9,5.7,5.7,0,0,0-1.8,2.3,6.7,6.7,0,0,0-.9,3,4.9,4.9,0,0,0,.2,1.7A4.2,4.2,0,0,0,231.3,116.2Z"/><path d="M236.1,117.1a7.5,7.5,0,0,1,.9-3.3,11.5,11.5,0,0,1,2.5-3.2,5.5,5.5,0,0,1,3.1-1.3,2.2,2.2,0,0,1,1.5,1,2.8,2.8,0,0,1,.8,1.8c0,.4-.1.6-.5.6l-.7-.3-.9-.2a2.3,2.3,0,0,0-1.4.8,7,7,0,0,0-1.5,1.9,3.8,3.8,0,0,0-.7,1.8,1.4,1.4,0,0,0,.2.9l1.2.2,1.8-.2a3.4,3.4,0,0,0,1.2-.4h.7c.4,0,.6.1.6.5s-.6,1.3-1.7,1.9a6.1,6.1,0,0,1-3.4,1,3.9,3.9,0,0,1-2.4-1.2A3.1,3.1,0,0,1,236.1,117.1Z"/><path d="M249.1,109.3a1.7,1.7,0,0,1,1.4.9,2.9,2.9,0,0,1,.6,1.7c0,.2-.3,1.2-.8,2.9s-1,3.3-1.4,4.8a1.1,1.1,0,0,1-1.1.9.9.9,0,0,1-.8-.4,1,1,0,0,1-.4-.9,17.7,17.7,0,0,1,.6-2.9c.3-1.5.6-2.8.8-3.9s.4-1.8.5-2.3S248.9,109.3,249.1,109.3Zm-.3-2.7a2.1,2.1,0,0,1,.5-1.2c.4-.4.7-.6,1-.6s.7.4,1.2,1.2a5.9,5.9,0,0,1,.7,1.7,1,1,0,0,1-.4.8,1.1,1.1,0,0,1-.7.3,2.8,2.8,0,0,1-1.5-.8C249.1,107.4,248.8,107,248.8,106.6Z"/><path d="M261.6,114.3c.2.3.4.5.4.7a4.9,4.9,0,0,1-.3,1.2c-.2.5-.3,1-.4,1.3s-.1.6-.1.8-.1.3-.1.4v.4a.8.8,0,0,0-.1.4c-.1.1-.1.2-.1.4v.2l-.2.2c-.1.2-.2.2-.4.2s-.5-.2-.8-.6a3.4,3.4,0,0,1-.6-1.5c-1.4,1.4-2.5,2.1-3.5,2.1a2.9,2.9,0,0,1-2-1,3.1,3.1,0,0,1-1.1-2.1,6.6,6.6,0,0,1,1-2.9,12.3,12.3,0,0,1,2.5-3.6,5.1,5.1,0,0,1,3.2-1.6,3.6,3.6,0,0,1,2.1,1.1,2.7,2.7,0,0,1,1.2,1.9A4.1,4.1,0,0,1,261.6,114.3Zm-6.4,3.5a4.4,4.4,0,0,0,2.4-1.2,5.1,5.1,0,0,0,1.7-3c.1-.2.2-.3.4-.3s-.2-1.2-.4-1.2a2.6,2.6,0,0,0-1.9,1.1,12.5,12.5,0,0,0-1.8,2.4,4.4,4.4,0,0,0-.7,1.9c0,.1,0,.2.1.2Z"/><path d="M263.4,117.1a6.5,6.5,0,0,1,1-3.3,8.7,8.7,0,0,1,2.5-3.2,5,5,0,0,1,3-1.3,2.4,2.4,0,0,1,1.6,1,3.4,3.4,0,0,1,.8,1.8c0,.4-.2.6-.5.6l-.7-.3-1-.2a1.9,1.9,0,0,0-1.3.8,10,10,0,0,0-1.6,1.9,3.8,3.8,0,0,0-.7,1.8q0,.8.3.9a2.2,2.2,0,0,0,1.2.2l1.7-.2a2.4,2.4,0,0,0,1.2-.4h.7c.4,0,.6.1.6.5s-.6,1.3-1.7,1.9a6,6,0,0,1-3.3,1,3.9,3.9,0,0,1-2.4-1.2A3.3,3.3,0,0,1,263.4,117.1Z"/><path d="M276.5,109.3c.5,0,.9.3,1.3.9a2.9,2.9,0,0,1,.6,1.7,18.7,18.7,0,0,1-.7,2.9q-.7,2.5-1.5,4.8c-.2.6-.5.9-1.1.9a.9.9,0,0,1-.8-.4,1.3,1.3,0,0,1-.4-.9,17.7,17.7,0,0,1,.6-2.9c.4-1.5.6-2.8.8-3.9a12,12,0,0,1,.6-2.3C276.1,109.6,276.3,109.3,276.5,109.3Zm-.3-2.7a1.6,1.6,0,0,1,.5-1.2,1.2,1.2,0,0,1,1-.6c.3,0,.7.4,1.1,1.2a3.9,3.9,0,0,1,.7,1.7,1,1,0,0,1-.3.8,1.3,1.3,0,0,1-.8.3,2.3,2.3,0,0,1-1.4-.8C276.4,107.4,276.2,107,276.2,106.6Z"/><path d="M281.2,111.7c1.2-1.6,2.3-2.4,3.4-2.4a3.8,3.8,0,0,1,2.8,1.2,3.9,3.9,0,0,1,1.1,2.8,8.4,8.4,0,0,1-.8,3.3,6.7,6.7,0,0,1-2.2,2.8,4.8,4.8,0,0,1-3,1.1,2.6,2.6,0,0,1-2.1-1,4.7,4.7,0,0,1-.8-2.6A9.1,9.1,0,0,1,281.2,111.7Zm3.6,4.5a6.1,6.1,0,0,0,.8-3,4.4,4.4,0,0,0-.3-1.9,5.1,5.1,0,0,0-1.9,2.3,6.7,6.7,0,0,0-.9,3,4.9,4.9,0,0,0,.2,1.7A4.2,4.2,0,0,0,284.8,116.2Zm1.1-7.5-.6-.3a1.4,1.4,0,0,1-.2-.7,1.9,1.9,0,0,1,.2-.8l.8-.9,1-.8.6-.5.4-.4.4-.2a.6.6,0,0,1,.5-.2,1.2,1.2,0,0,1,1,.6,1.7,1.7,0,0,1,.4,1.1c0,.3,0,.5-.1.6s-.1.3-.3.4l-.5.4-.9.4-.9.5-.8.4A1.6,1.6,0,0,1,285.9,108.7Z"/><path d="M297.5,109.3a2.6,2.6,0,0,1,2,1,3.7,3.7,0,0,1,.8,2.2,13.1,13.1,0,0,1-.6,3.8,10.3,10.3,0,0,1-1.3,3.1c-.4.8-.9,1.1-1.4,1.1s-.7-.3-.7-1a13.1,13.1,0,0,1,.7-3.2,15.1,15.1,0,0,0,.5-2.8c0-.5,0-.8-.2-.8a.5.5,0,0,0-.5.3c-.2.2-.4.3-.5.5l-.4.5a1.5,1.5,0,0,1-.4.6,2.5,2.5,0,0,1-.4.7l-.4.7-.4.7c-1.3,2.6-2.4,3.8-3.2,3.8s-.6-.2-1.1-.8a2,2,0,0,1-.7-1.1,4.5,4.5,0,0,1,.3-1.1l.5-1.2c.1-.3.1-.6.2-.9s.1-.6.2-1a2.2,2.2,0,0,1,.1-.9v-.9a26.2,26.2,0,0,1,.4-3.2q.2-.3.3-.3a2.8,2.8,0,0,1,1.6.7,1.9,1.9,0,0,1,.7,1.3,13.4,13.4,0,0,1-.7,3.8,47.2,47.2,0,0,1,2.6-4C296.3,109.8,296.9,109.3,297.5,109.3Z"/><path d="M318.2,115.3a6.7,6.7,0,0,1-3,.8,9.4,9.4,0,0,1-2.5-.2,5,5,0,0,0-.2,1.2,1.3,1.3,0,0,0,.2.8c.1.2.5.3,1,.3a11.4,11.4,0,0,0,2.8-.3l1.2-.3c.6,0,.9.2.9.5s-.5,1.2-1.4,1.7a7,7,0,0,1-3.3.7,4,4,0,0,1-2.9-1.1,4.1,4.1,0,0,1-1.1-2.8,7.5,7.5,0,0,1,.9-3.3,9.1,9.1,0,0,1,2.3-2.8,4.3,4.3,0,0,1,2.8-1.2,3.3,3.3,0,0,1,2.5,1.4,4.1,4.1,0,0,1,1.2,2.7C319.6,114.1,319.1,114.7,318.2,115.3Zm-1.6-2.9a1.2,1.2,0,0,0-.8-.4c-.3,0-.6.2-1.1.6a4,4,0,0,0-1.1,1.4h.5c2,0,3-.4,3-1.1Z"/><path d="M328.5,109.3a2.6,2.6,0,0,1,2,1,3.7,3.7,0,0,1,.8,2.2,13.1,13.1,0,0,1-.6,3.8,10.3,10.3,0,0,1-1.3,3.1c-.5.8-.9,1.1-1.4,1.1s-.7-.3-.7-1a13.1,13.1,0,0,1,.7-3.2,15.1,15.1,0,0,0,.5-2.8c0-.5-.1-.8-.2-.8a.9.9,0,0,0-.6.3l-.4.5-.4.5-.4.6a2.5,2.5,0,0,1-.4.7l-.4.7-.4.7c-1.3,2.6-2.4,3.8-3.2,3.8s-.7-.2-1.1-.8a2,2,0,0,1-.7-1.1,4.5,4.5,0,0,1,.3-1.1l.5-1.2a2.9,2.9,0,0,1,.2-.9c.1-.3.1-.6.2-1a2.2,2.2,0,0,1,.1-.9v-.9a26.2,26.2,0,0,1,.4-3.2q.2-.3.3-.3a2.8,2.8,0,0,1,1.6.7,1.9,1.9,0,0,1,.7,1.3,13.4,13.4,0,0,1-.7,3.8,47.2,47.2,0,0,1,2.6-4C327.3,109.8,327.9,109.3,328.5,109.3Z"/><path d="M337.6,113.5l-.8,2.7c-.3,1-.5,1.6-.5,1.7h.4l1.7-.5a4.8,4.8,0,0,1,1.6-.5c.3,0,.5.2.5.7s-.5,1.1-1.5,1.8a4.7,4.7,0,0,1-3,1,2.5,2.5,0,0,1-1.6-.7,2.1,2.1,0,0,1-1-1.6,10.2,10.2,0,0,1,.7-2.7c.4-1.4.7-2.4.9-2.9l-1.3.2a1.2,1.2,0,0,1-.9-.6,1.8,1.8,0,0,1-.5-1.1c0-.5,1.1-.9,3.4-1.2a25,25,0,0,0,.4-3.5.5.5,0,0,1,.6-.6,2.5,2.5,0,0,1,1.5.7,1.6,1.6,0,0,1,.8,1.3,7.6,7.6,0,0,1-.2,1.9h1.6c1,0,1.6.3,1.6.8s-.3.5-1,.8l-2.9.7Z"/><path d="M343.5,113v-2.5c0-.8.2-1.2.7-1.2l.9.3a2,2,0,0,1,.6,1.1,7.6,7.6,0,0,1,1.6-1.1,3.4,3.4,0,0,1,1.6-.4c1.1,0,1.6.3,1.6.8a.8.8,0,0,1-.2.5c-.1.2-.1.3-.2.3s-.1.1-.2.2l-.3.2-.7.5a6.1,6.1,0,0,0-1.7,1.5,4.5,4.5,0,0,0-1,2.3,19.1,19.1,0,0,1-1.2,3.8c-.3.8-.8,1.2-1.2,1.2a1,1,0,0,1-1-.7,1.9,1.9,0,0,1-.4-1.2,5.8,5.8,0,0,1,.5-1.7c.2-.8.4-1.4.5-2A11.1,11.1,0,0,0,343.5,113Z"/><path d="M358.5,115.3a6.7,6.7,0,0,1-3,.8,9,9,0,0,1-2.5-.2,5,5,0,0,0-.2,1.2,1.3,1.3,0,0,0,.2.8c.1.2.4.3,1,.3a11.4,11.4,0,0,0,2.8-.3l1.2-.3c.6,0,.9.2.9.5s-.5,1.2-1.4,1.7a7.2,7.2,0,0,1-3.3.7,4,4,0,0,1-2.9-1.1,3.7,3.7,0,0,1-1.1-2.8,7.5,7.5,0,0,1,.9-3.3,9.1,9.1,0,0,1,2.3-2.8,4.3,4.3,0,0,1,2.8-1.2,3.4,3.4,0,0,1,2.5,1.4,4.1,4.1,0,0,1,1.2,2.7C359.9,114.1,359.4,114.7,358.5,115.3Zm-1.6-2.9a1.2,1.2,0,0,0-.8-.4c-.3,0-.6.2-1.1.6a5.8,5.8,0,0,0-1.2,1.4h.6c2,0,3-.4,3-1.1Z"/><path d="M178.3,129.5a2.8,2.8,0,0,1,.8,1.8,20.9,20.9,0,0,1-.2,3.1q-.3,2.3-.6,3.6c-1.2,5.2-2,7.9-2.5,7.9s-.7-.3-1.2-.8a2.8,2.8,0,0,1-.7-1.3l.6-2.2q.6-2.2,1.2-5.7a40.6,40.6,0,0,0,.6-6.7c0-.4.2-.6.7-.6A2.1,2.1,0,0,1,178.3,129.5Z"/><path d="M181.3,137.1c1.1-1.7,2.2-2.5,3.3-2.5a3.8,3.8,0,0,1,2.8,1.2,4.1,4.1,0,0,1,1.1,2.8,8,8,0,0,1-.8,3.3,6.2,6.2,0,0,1-2.2,2.8,4.4,4.4,0,0,1-3,1.2,2.8,2.8,0,0,1-2.1-1.1,4.5,4.5,0,0,1-.8-2.6A8.2,8.2,0,0,1,181.3,137.1Zm3.5,4.4a5.7,5.7,0,0,0,.9-2.9,4.3,4.3,0,0,0-.4-2,5.7,5.7,0,0,0-1.9,2.3,7.1,7.1,0,0,0-.9,3.1c0,.9.1,1.4.3,1.6A4.5,4.5,0,0,0,184.8,141.5Z"/><path d="M196.5,134.7a2.1,2.1,0,0,1,1.6.9,3,3,0,0,1,.9,1.8c0,.4-.2.5-.5.5l-.8-.2-1-.2a4.1,4.1,0,0,0-1.5.4c-.6.2-1,.5-1,.9l.6.6,1.3.9a2.9,2.9,0,0,1,1.3,1.2,2.5,2.5,0,0,1,.6,1.6c0,.6-.5,1.2-1.3,1.8a5.5,5.5,0,0,1-3.1,1,5.4,5.4,0,0,1-3.1-.9c-.8-.5-1.2-1-1.2-1.6s.2-.8.7-.8a1.1,1.1,0,0,1,.7.2,5.4,5.4,0,0,0,2.7.6c1,0,1.6-.1,1.6-.4s-.2-.6-.6-1l-1.4-1a6.9,6.9,0,0,1-1.3-1.1,2.1,2.1,0,0,1-.7-1.3c0-.8.8-1.6,2.2-2.6A6.7,6.7,0,0,1,196.5,134.7Z"/><path d="M212.4,145.8a3.6,3.6,0,0,1-2.9-1.5,5.5,5.5,0,0,1-1.3-3.2,14.1,14.1,0,0,1,2.7-7.7,11.8,11.8,0,0,1,2.5-2.5,4,4,0,0,1,6,.8,6.4,6.4,0,0,1,1.3,4,9.3,9.3,0,0,1-1.1,4.5,11.1,11.1,0,0,1-3.1,4A6.3,6.3,0,0,1,212.4,145.8Zm2.1-3.7a10.1,10.1,0,0,0,2.2-2.8,7.7,7.7,0,0,0,1-3.3,7,7,0,0,0-.4-2.4c-.3-.6-.7-.9-1.1-.9s-1.1.5-1.8,1.3a10.4,10.4,0,0,0-2.1,3.3,9.2,9.2,0,0,0-.9,3.8,3.3,3.3,0,0,0,.3,1.5c.2.4.4.6.7.6A3.6,3.6,0,0,0,214.5,142.1ZM218,129a.5.5,0,0,1-.6-.4.9.9,0,0,1-.3-.7,1.1,1.1,0,0,1,.3-.8,3.2,3.2,0,0,1,.8-.9l.9-.8.6-.5c.1-.1.3-.2.4-.4l.4-.2.6-.2a1.2,1.2,0,0,1,.9.6,1.8,1.8,0,0,1,.5,1.1,3.5,3.5,0,0,1-.1.6l-.4.5-.5.3-.8.4-1,.5-.7.4A2.3,2.3,0,0,1,218,129Z"/><path d="M222.7,138.3v-2.4c0-.8.3-1.3.8-1.3s.5.2.8.4a2,2,0,0,1,.7,1,9.1,9.1,0,0,1,1.6-1.1,5.6,5.6,0,0,1,1.5-.4c1.1,0,1.6.3,1.6.8s0,.5-.1.6l-.2.2-.3.3-.3.2-.7.4a8,8,0,0,0-1.7,1.5,6.7,6.7,0,0,0-1,2.4,36.7,36.7,0,0,1-1.1,3.7c-.4.8-.8,1.2-1.3,1.2a1.1,1.1,0,0,1-1-.6,3.5,3.5,0,0,1-.3-1.2,5.4,5.4,0,0,1,.4-1.8,8.9,8.9,0,0,0,.6-2A10.9,10.9,0,0,0,222.7,138.3Z"/><path d="M238,139.3a1.6,1.6,0,0,1,.3.9,2.4,2.4,0,0,1-.4,1.3,20.2,20.2,0,0,0-1,3.2,22.4,22.4,0,0,1-.8,3.1,12.9,12.9,0,0,1-.9,2,4.1,4.1,0,0,1-1.2,1.4,3.2,3.2,0,0,1-1.9.5,4.1,4.1,0,0,1-2.6-.9c-.8-.7-1.1-1.2-1.1-1.7a2.7,2.7,0,0,1,.3-1.2c.3-.4.5-.5.7-.5l.6.3.6.7a1.6,1.6,0,0,0,.6.8,1.6,1.6,0,0,0,.9.3,1,1,0,0,0,.9-.6,6.1,6.1,0,0,0,.7-1.4c.3-1.2.6-2.1.7-2.6a5.5,5.5,0,0,1-2.4,1,2.2,2.2,0,0,1-1.8-1.1,2.8,2.8,0,0,1-.9-1.9,7.4,7.4,0,0,1,.5-2.2A15.9,15.9,0,0,1,231,138a11.6,11.6,0,0,1,2-2.4,4.2,4.2,0,0,1,2.4-1,2.5,2.5,0,0,1,1.3.4,3.1,3.1,0,0,1,.9,1.1,7.7,7.7,0,0,1,.4,2.7Zm-6,3.5c0,.2,0,.3.2.3a4.4,4.4,0,0,0,2-1.1,6.2,6.2,0,0,0,1.9-2.3v-.4a4.5,4.5,0,0,0-.2-1.7l-.4-.2c-.7,0-1.4.7-2.3,2.2A8,8,0,0,0,232,142.8Z"/><path d="M249.1,139.7c.2.2.4.4.4.6a4.9,4.9,0,0,1-.3,1.2,4.4,4.4,0,0,0-.3,1.4c-.1.3-.1.6-.2.7a.7.7,0,0,1-.1.5v.4a.6.6,0,0,0-.1.4v.3c0,.1-.1.2-.1.3s-.1.1-.2.2a.5.5,0,0,1-.4.2c-.2,0-.5-.2-.8-.7a3.5,3.5,0,0,1-.6-1.4c-1.4,1.4-2.5,2.1-3.5,2.1a4.1,4.1,0,0,1-3.1-3.1,6.9,6.9,0,0,1,1-3,11.9,11.9,0,0,1,2.5-3.5,4.8,4.8,0,0,1,3.2-1.7,3.6,3.6,0,0,1,2.1,1.1,2.9,2.9,0,0,1,1.2,2A4.9,4.9,0,0,1,249.1,139.7Zm-6.3,3.4a4.5,4.5,0,0,0,2.3-1.2,5.8,5.8,0,0,0,1.8-3q0-.2.3-.3c0-.8-.2-1.2-.4-1.2a2.9,2.9,0,0,0-1.9,1.1,18.8,18.8,0,0,0-1.8,2.4,6.4,6.4,0,0,0-.7,1.9c0,.2,0,.2.1.3Z"/><path d="M258.9,134.6a2.6,2.6,0,0,1,2,1.1,3,3,0,0,1,.9,2.1,14.3,14.3,0,0,1-.6,3.9,19.3,19.3,0,0,1-1.3,3.1c-.5.7-1,1.1-1.5,1.1s-.7-.4-.7-1.1a12.7,12.7,0,0,1,.7-3.1,11.6,11.6,0,0,0,.6-2.8q0-.9-.3-.9l-.5.3-.5.5-.4.6a2.1,2.1,0,0,1-.4.6l-.4.7a4.3,4.3,0,0,1-.4.7l-.4.7c-1.3,2.5-2.4,3.8-3.1,3.8s-.7-.3-1.2-.8a4.1,4.1,0,0,1-.7-1.2,3.3,3.3,0,0,1,.3-1c.3-.6.4-1,.5-1.2a2.9,2.9,0,0,0,.2-.9,4.3,4.3,0,0,0,.2-1.1c0-.4.1-.6.1-.8a4.1,4.1,0,0,1,.1-1,16.5,16.5,0,0,1,.3-3.1q.2-.3.3-.3a2.1,2.1,0,0,1,1.6.7,1.7,1.7,0,0,1,.8,1.2,20.2,20.2,0,0,1-.7,3.9c.9-1.7,1.8-3,2.5-4.1S258.4,134.6,258.9,134.6Z"/><path d="M264.5,137.1c1.1-1.7,2.3-2.5,3.4-2.5a3.4,3.4,0,0,1,2.7,1.2,3.8,3.8,0,0,1,1.2,2.8,8,8,0,0,1-.8,3.3,6.9,6.9,0,0,1-2.2,2.8,4.6,4.6,0,0,1-3,1.2,2.8,2.8,0,0,1-2.1-1.1,3.9,3.9,0,0,1-.9-2.6A8.9,8.9,0,0,1,264.5,137.1Zm3.6,4.4a6.7,6.7,0,0,0,.8-2.9,3.3,3.3,0,0,0-.4-2,6.5,6.5,0,0,0-1.8,2.3,7.1,7.1,0,0,0-.9,3.1c0,.9,0,1.4.2,1.6A4.2,4.2,0,0,0,268.1,141.5Z"/><path d="M279.8,134.7a2.2,2.2,0,0,1,1.6.9,3.4,3.4,0,0,1,.8,1.8c0,.4-.1.5-.4.5a1.3,1.3,0,0,1-.8-.2l-1-.2a3.4,3.4,0,0,0-1.5.4c-.7.2-1,.5-1,.9l.6.6,1.3.9a3.6,3.6,0,0,1,1.3,1.2,3,3,0,0,1,.5,1.6c0,.6-.4,1.2-1.3,1.8a5.5,5.5,0,0,1-3.1,1,5.3,5.3,0,0,1-3-.9c-.8-.5-1.2-1-1.2-1.6s.2-.8.6-.8a1,1,0,0,1,.7.2,5.4,5.4,0,0,0,2.7.6c1.1,0,1.6-.1,1.6-.4s-.2-.6-.6-1l-1.3-1-1.4-1.1a1.9,1.9,0,0,1-.6-1.3c0-.8.7-1.6,2.1-2.6A7.3,7.3,0,0,1,279.8,134.7Z"/><path d="M299.5,135.2c0-.4.3-.6.7-.6a1.7,1.7,0,0,1,1.2.8,2.5,2.5,0,0,1,.6,1.7,5.4,5.4,0,0,1-.4,1.7c-.3.8-.4,1.3-.5,1.6a10.9,10.9,0,0,0-.5,1.4l-.6,1.6c-.1.5-.4,1.1-.6,1.9s-.6,1.6-.8,2.3a8.5,8.5,0,0,1-1.7,3,3.1,3.1,0,0,1-2.5,1.1,5,5,0,0,1-2.7-.8c-.8-.6-1.2-1.1-1.2-1.7a1.9,1.9,0,0,1,.4-1.1c.3-.4.6-.6.8-.6a1.5,1.5,0,0,1,.8.5,5.2,5.2,0,0,0,1.1,1,1.1,1.1,0,0,0,.9.5.6.6,0,0,0,.5-.2l.3-.5c.1-.1.1-.3.2-.5l.3-.7a3.1,3.1,0,0,1,.2-.8l.3-.9q.3-1.2.6-2.1l-1.5,1.5a2.2,2.2,0,0,1-1.4.6c-.4,0-.9-.4-1.5-1a2.9,2.9,0,0,1-1-2.1,15.7,15.7,0,0,1,.5-3.2,22,22,0,0,1,1.3-3.4c.5-1,.9-1.6,1.3-1.6a1.8,1.8,0,0,1,1.3.6,1.7,1.7,0,0,1,.6,1.1,5.1,5.1,0,0,1-.5,1.7c-.4.8-.7,1.7-1.1,2.6a5.7,5.7,0,0,0-.5,2.4h.1c.2,0,.5-.4,1.2-1.1a25.7,25.7,0,0,0,2-3A14.6,14.6,0,0,0,299.5,135.2Z"/><path d="M317.9,134.7a2.4,2.4,0,0,1,1.7.9,3.4,3.4,0,0,1,.8,1.8c0,.4-.2.5-.5.5a1.1,1.1,0,0,1-.7-.2l-1.1-.2a4.1,4.1,0,0,0-1.5.4q-.9.3-.9.9l.5.6,1.3.9a2.9,2.9,0,0,1,1.3,1.2,2.5,2.5,0,0,1,.6,1.6c0,.6-.4,1.2-1.3,1.8a5.5,5.5,0,0,1-3.1,1,4.9,4.9,0,0,1-3-.9c-.9-.5-1.3-1-1.3-1.6s.2-.8.7-.8a1.1,1.1,0,0,1,.7.2,5.4,5.4,0,0,0,2.7.6c1.1,0,1.6-.1,1.6-.4s-.2-.6-.6-1a7.1,7.1,0,0,0-1.4-1,6.9,6.9,0,0,1-1.3-1.1,1.9,1.9,0,0,1-.6-1.3c0-.8.7-1.6,2.1-2.6A6.7,6.7,0,0,1,317.9,134.7Z"/><path d="M328.8,135.2a.7.7,0,0,1,.7-.6q.5,0,1.2.9a3.1,3.1,0,0,1,.7,1.6l-1,3.2c-.7,1.9-1.2,3.5-1.6,4.6s-.5,1-1,1a1,1,0,0,1-.7-.4,1.2,1.2,0,0,1-.3-.9c0-.5.1-1.1.2-2-1.5,2.2-2.6,3.3-3.5,3.3a2.8,2.8,0,0,1-1.7-.9,2.8,2.8,0,0,1-1-1.8,15.6,15.6,0,0,1,1.2-5.3c.8-2.2,1.5-3.3,2.2-3.3a1.6,1.6,0,0,1,1.2.6,2,2,0,0,1,.4,1.3,4.4,4.4,0,0,1-.5,1.4c-1.1,2.4-1.7,4.1-1.7,5.1h.2c.2,0,.6-.3,1.2-1a17.2,17.2,0,0,0,2-3A22.6,22.6,0,0,0,328.8,135.2Z"/><path d="M338.6,134.7a2.4,2.4,0,0,1,1.7.9,3.4,3.4,0,0,1,.8,1.8c0,.4-.2.5-.5.5a1.1,1.1,0,0,1-.7-.2l-1.1-.2a4.1,4.1,0,0,0-1.5.4q-.9.3-.9.9c0,.1.1.3.5.6l1.3.9a2.9,2.9,0,0,1,1.3,1.2,2.5,2.5,0,0,1,.6,1.6c0,.6-.4,1.2-1.3,1.8a5.5,5.5,0,0,1-3.1,1,4.9,4.9,0,0,1-3-.9c-.9-.5-1.3-1-1.3-1.6s.2-.8.7-.8a1.1,1.1,0,0,1,.7.2,5.4,5.4,0,0,0,2.7.6c1.1,0,1.6-.1,1.6-.4s-.2-.6-.6-1a7.1,7.1,0,0,0-1.4-1,6.9,6.9,0,0,1-1.3-1.1,1.9,1.9,0,0,1-.6-1.3c0-.8.7-1.6,2.1-2.6A6.7,6.7,0,0,1,338.6,134.7Z"/><path d="M210,158.2l-.3-.9c-.2-.2-.3-.4-.5-.4s-.3.2-.5.4a5.3,5.3,0,0,0-.6,1.3c-.2.9-.5,2-.8,3.2h2.5a1.7,1.7,0,0,1,1.2.3c.3.2.5.4.5.6s-.4.8-1.3,1a16.3,16.3,0,0,1-3.5.7,46.8,46.8,0,0,1-1.5,5.7q-.4,1.2-.9,1.2c-.3,0-.6-.3-1-.7s-.6-.8-.6-1a2.9,2.9,0,0,1,.2-.9,24.2,24.2,0,0,0,1-3.6l-1.2.2a1.9,1.9,0,0,1-1-.5,1.7,1.7,0,0,1-.5-1.2c0-.5,1.1-.9,3.2-1.3a17.5,17.5,0,0,1,1.7-6,3.7,3.7,0,0,1,3.3-1.9,2.1,2.1,0,0,1,1.8,1,3.2,3.2,0,0,1,.9,2.3,2.6,2.6,0,0,1-.3,1.4c-.2.4-.4.5-.7.5a.9.9,0,0,1-.8-.4A1.9,1.9,0,0,1,210,158.2Z"/><path d="M218.6,160.5a.8.8,0,0,1,.7-.5q.6,0,1.2.9a2.5,2.5,0,0,1,.7,1.5,23.3,23.3,0,0,1-1,3.2c-.7,2-1.2,3.5-1.5,4.7a1.1,1.1,0,0,1-1.8.6,1.5,1.5,0,0,1-.3-1,8.1,8.1,0,0,1,.3-1.9c-1.5,2.1-2.7,3.2-3.6,3.2a2.6,2.6,0,0,1-1.6-.9,2.4,2.4,0,0,1-1-1.8,16.7,16.7,0,0,1,1.2-5.3c.8-2.1,1.5-3.2,2.2-3.2a1.6,1.6,0,0,1,1.1.5,2.1,2.1,0,0,1,.5,1.3,8.1,8.1,0,0,1-.5,1.4c-1.1,2.4-1.7,4.1-1.7,5.1h.1c.2,0,.6-.3,1.2-1a24.5,24.5,0,0,0,2.1-3A17.1,17.1,0,0,0,218.6,160.5Z"/><path d="M229.6,160a2.3,2.3,0,0,1,1.9,1,3.3,3.3,0,0,1,.9,2.2,13.1,13.1,0,0,1-.6,3.8,11.5,11.5,0,0,1-1.3,3.1c-.5.7-1,1.1-1.4,1.1s-.8-.3-.8-1a14.1,14.1,0,0,1,.8-3.2,15.1,15.1,0,0,0,.5-2.8c0-.5-.1-.8-.2-.8l-.6.3a1,1,0,0,0-.4.5l-.4.5-.4.6a4.3,4.3,0,0,0-.4.7l-.4.7a4.3,4.3,0,0,0-.4.7c-1.4,2.5-2.4,3.8-3.2,3.8s-.7-.3-1.1-.8a1.9,1.9,0,0,1-.7-1.2,4.3,4.3,0,0,1,.3-1c.2-.5.3-.9.4-1.2l.3-.9c0-.3.1-.7.1-1a3.4,3.4,0,0,0,.1-.9,2.5,2.5,0,0,0,.1-1c.1-1.8.3-2.9.3-3.1s.2-.3.4-.3a2.1,2.1,0,0,1,1.5.7c.6.5.8.9.8,1.2a14.6,14.6,0,0,1-.7,3.9,47.2,47.2,0,0,1,2.6-4C228.4,160.5,229,160,229.6,160Z"/><path d="M233.6,167.8a8.2,8.2,0,0,1,.9-3.4,11,11,0,0,1,2.6-3.1,4.4,4.4,0,0,1,3-1.3,2.2,2.2,0,0,1,1.6,1,3.1,3.1,0,0,1,.8,1.8.5.5,0,0,1-.5.5,1.3,1.3,0,0,1-.8-.2,1.5,1.5,0,0,0-.9-.2,2.3,2.3,0,0,0-1.4.8,9.7,9.7,0,0,0-1.5,1.9,3.8,3.8,0,0,0-.7,1.8,2,2,0,0,0,.2.9,3.1,3.1,0,0,0,1.3.2l1.7-.2,1.2-.4.7-.2a.5.5,0,0,1,.6.6c0,.6-.6,1.2-1.7,1.9a6,6,0,0,1-3.3,1,4.3,4.3,0,0,1-2.5-1.2A3.1,3.1,0,0,1,233.6,167.8Z"/><path d="M246.7,160c.5,0,.9.3,1.3.9a2.7,2.7,0,0,1,.6,1.6,16.4,16.4,0,0,1-.7,3l-1.5,4.8c-.2.6-.5.9-1.1.9a1.2,1.2,0,0,1-.8-.4,1,1,0,0,1-.4-.9,15.9,15.9,0,0,1,.6-2.9c.3-1.5.6-2.8.8-3.9a13.6,13.6,0,0,1,.6-2.4C246.2,160.2,246.4,160,246.7,160Zm-.4-2.7a2.1,2.1,0,0,1,.5-1.2c.4-.4.7-.6,1-.6s.8.4,1.2,1.2a3.5,3.5,0,0,1,.7,1.7,1.2,1.2,0,0,1-1.1,1.1,2.3,2.3,0,0,1-1.4-.8A2.6,2.6,0,0,1,246.3,157.3Z"/><path d="M251.4,162.4c1.2-1.6,2.3-2.4,3.4-2.4a3.7,3.7,0,0,1,2.7,1.1,3.8,3.8,0,0,1,1.2,2.8,8.8,8.8,0,0,1-.8,3.4,8.5,8.5,0,0,1-2.2,2.8,4.8,4.8,0,0,1-3,1.1,2.8,2.8,0,0,1-2.1-1.1,3.7,3.7,0,0,1-.9-2.6A8.9,8.9,0,0,1,251.4,162.4Zm3.6,4.5a7.5,7.5,0,0,0,.8-3,3,3,0,0,0-.4-1.9,5.1,5.1,0,0,0-1.8,2.3,6.4,6.4,0,0,0-.9,3,3.5,3.5,0,0,0,.2,1.7A5.3,5.3,0,0,0,255,166.9Z"/><path d="M267.8,160a2.3,2.3,0,0,1,1.9,1,3.3,3.3,0,0,1,.9,2.2,13.1,13.1,0,0,1-.6,3.8,11.5,11.5,0,0,1-1.3,3.1c-.5.7-1,1.1-1.4,1.1s-.8-.3-.8-1a14.1,14.1,0,0,1,.8-3.2,15.1,15.1,0,0,0,.5-2.8c0-.5-.1-.8-.2-.8a.9.9,0,0,0-.6.3,1,1,0,0,0-.4.5l-.4.5-.4.6a4.3,4.3,0,0,0-.4.7l-.4.7a4.3,4.3,0,0,0-.4.7c-1.4,2.5-2.4,3.8-3.2,3.8s-.7-.3-1.1-.8a1.9,1.9,0,0,1-.7-1.2,4.3,4.3,0,0,1,.3-1c.2-.5.3-.9.4-1.2l.3-.9c0-.3.1-.7.1-1a3.4,3.4,0,0,0,.1-.9,2.5,2.5,0,0,0,.1-1c.1-1.8.3-2.9.3-3.1s.2-.3.4-.3a2.1,2.1,0,0,1,1.5.7c.6.5.8.9.8,1.2a14.6,14.6,0,0,1-.7,3.9,47.2,47.2,0,0,1,2.6-4C266.6,160.5,267.2,160,267.8,160Z"/><path d="M280.1,166a6.7,6.7,0,0,1-3,.8l-2.5-.2a5,5,0,0,0-.2,1.2,1.5,1.5,0,0,0,.2.8c.1.2.5.2,1,.2a11.4,11.4,0,0,0,2.8-.3l1.2-.3q.9,0,.9.6c0,.6-.5,1.1-1.4,1.6a7,7,0,0,1-3.3.8,3.9,3.9,0,0,1-4-3.9,7.5,7.5,0,0,1,.9-3.3,10.9,10.9,0,0,1,2.3-2.9,5,5,0,0,1,2.8-1.1,3.1,3.1,0,0,1,2.5,1.3,4.1,4.1,0,0,1,1.2,2.7C281.5,164.8,281,165.4,280.1,166Zm-1.6-2.9a1,1,0,0,0-.8-.4,1.4,1.4,0,0,0-1,.5,4.4,4.4,0,0,0-1.2,1.5h.5c2,0,3-.3,3-1A1.2,1.2,0,0,0,278.5,163.1Z"/><path d="M289.3,160a1.9,1.9,0,0,1,1.6,1,2.4,2.4,0,0,1,.8,1.7c0,.4-.1.6-.4.6l-.8-.2a1.6,1.6,0,0,0-1-.2l-1.5.3c-.6.2-1,.5-1,.9s.2.4.6.6l1.3.9a4.9,4.9,0,0,1,1.3,1.2,2.7,2.7,0,0,1,.6,1.7c0,.6-.5,1.2-1.3,1.8a5.4,5.4,0,0,1-3.1.9,6.2,6.2,0,0,1-3.1-.8,2.1,2.1,0,0,1-1.2-1.7c0-.5.2-.8.7-.8l.7.2a5.4,5.4,0,0,0,2.7.6c1,0,1.6-.1,1.6-.4s-.2-.6-.6-1l-1.4-1a4.5,4.5,0,0,1-1.3-1.1,1.6,1.6,0,0,1-.7-1.3c0-.7.8-1.6,2.2-2.5A7.1,7.1,0,0,1,289.3,160Z"/><path d="M296,171.3a1.2,1.2,0,0,1-.8.4c-.4,0-.8-.5-1.4-1.3a4.8,4.8,0,0,1-.8-2,2.5,2.5,0,0,1,.4-1.4c.2-.5.5-.8.7-.8s1.1.6,1.5,1.6a9.2,9.2,0,0,1,.7,2.6A1.2,1.2,0,0,1,296,171.3Zm1.2-7.5a1.8,1.8,0,0,1-.3,1.1.8.8,0,0,1-.7.3c-.4,0-.8-.4-1.4-1.3a4.5,4.5,0,0,1-.8-1.9,2.8,2.8,0,0,1,.4-1.5c.2-.5.5-.7.7-.7s1.1.5,1.5,1.6A8.1,8.1,0,0,1,297.2,163.8Z"/><ellipse cx="255.5" cy="443.8" rx="34.5" ry="9.6" style="fill:gray;opacity:0.35000000000000003"/><path d="M231.5,444.7a3.4,3.4,0,0,0,.5,2.3c.7,1,2,1,3.3.8a12.1,12.1,0,0,0,6.4-2.9,9.9,9.9,0,0,0,3.4-6.1l-5.4-1.3c-1.3-.3-4.1-1.5-5.4-1.3S231.7,442.4,231.5,444.7Z"/><path d="M273.3,447.8c1.3.2,2.5.5,3.6,0a4.5,4.5,0,0,0,2.3-4.4c0-1.8-1-3.3-1.8-5.1s-.8-1.6-1-2.1l-.3-.2h-.5l-7.2,1.5c-2.3.5-4.4.3-3.1,3.1A13.3,13.3,0,0,0,273.3,447.8Z"/><path d="M229.1,433.4c0,.5-.2.8,0,1.3a4,4,0,0,0,1.3,1.3c4.6,2.3,9.5,3,14.7,3.6a108,108,0,0,0,44.1-4.9c-5.7-12.1-8-25.4-10.3-38.5l-5.4-30.8c.5,3.6-34.6,3.1-36.7,5.4s-1.5,12.3-1.8,16.7c-.2,7.4-1,14.6-1.7,22S230.9,425.4,229.1,433.4Z" style="fill:#333"/><path d="M253.3,440.3a154.6,154.6,0,0,1-2.9-26.4c0-8.7.3-17.7,2.1-26.4.5,8.7.5,17.7.5,26.4S253.5,431.6,253.3,440.3Z" style="fill:#050505"/><path d="M243.8,382.3a31.3,31.3,0,0,0,9.5,2.3,52.4,52.4,0,0,0,9.7,0,13.8,13.8,0,0,1-10,2.4A16.3,16.3,0,0,1,243.8,382.3Z" style="fill:#050505"/><path d="M257.6,322.8a5.8,5.8,0,0,1,3.4-1.5,5.3,5.3,0,0,1,2,.5c4.9,2,9.5,4.4,14.4,6.4,1.5.8,3.1,1.5,4.1,2.8a12.4,12.4,0,0,1,1.8,5.2c.8,5.1,1.8,10.5,1.3,15.6s-2.3,10.5-6.4,13.9-7.7,4.3-11.9,6.4c-2,1-4.1,2.5-6.4,2.5s-4.8-1.2-5.1-3.5c-8.5,5.3-20.5,2.3-27.2-5.4a21.3,21.3,0,0,1-3.1-4.9c-1-2.8-.5-5.7-.2-8.7.7-5.4,1.5-10.8,2.3-15.9a12.2,12.2,0,0,1,1.3-4.9,15.6,15.6,0,0,1,4.1-4.4c2-1.5,4.8-4.1,7.2-4.6s3,.3,5.6,1.3C249.4,325.6,254,325.4,257.6,322.8Z" style="fill:#00a99d"/><path d="M242.2,370.8c0,1.8,2.1,2.8,3.6,3.1s4.9.5,6.2-1.3.2-.5.5-.5a1.6,1.6,0,0,1,1.8.5,14.4,14.4,0,0,0,3.8,1.8,3.9,3.9,0,0,0,3.9-1.8" style="fill:#e8c8c1;stroke:#c4a290;stroke-width:1.92422236271131px"/><path d="M236.6,338.7c.8,3.6.2,7.2-.8,10.8-.5,1.8-1,3.3-1.5,5.1l-.8,2.6c-.2.8-.8,2-.5,1.8a1.6,1.6,0,0,1,.5.8c.3.2.5.7.8,1a5.2,5.2,0,0,0,1.8,1.8,37.3,37.3,0,0,0,3.8,3.3,38.4,38.4,0,0,0,9,5.2,29.2,29.2,0,0,1-10-3.6,36.8,36.8,0,0,1-4.4-3.4,11.6,11.6,0,0,1-1.8-2L232,361c-.3-.2-.5-.7-1.1-1.5a2.2,2.2,0,0,1,.3-2l.5-1.3,1-2.6,2.1-4.9C235.3,345.7,236.3,342.3,236.6,338.7Z" style="fill:#047267"/><path d="M255.8,367.7a6.4,6.4,0,0,0,4.6-1,40.8,40.8,0,0,0,4.4-2.8,28.2,28.2,0,0,1,4.4-2.6l2.3-1.3c.8-.5.5-.2.5-.8a9.1,9.1,0,0,0-.8-2c-.2-.8-.5-1.5-.7-2.6a23.9,23.9,0,0,1-1.3-5.1,32.4,32.4,0,0,1-.8-10.3c.8,3.4,1.8,6.7,2.8,9.8l1.6,4.9.7,2.3a20.5,20.5,0,0,1,1.1,2.5,5.9,5.9,0,0,1-.3,2.1,3.5,3.5,0,0,1-1.5,1.3l-2.3,1.3-4.7,2.3a30.1,30.1,0,0,1-4.8,2C259.2,368.2,257.4,368.5,255.8,367.7Z" style="fill:#047267"/><path d="M237.1,343.6c-.3,2.1-.8,4.1-.5,5.9a10.2,10.2,0,0,0,2,4.9c2.4,2.8,6.2,3.8,10.3,2.8a7.5,7.5,0,0,1-6.2,2,8.9,8.9,0,0,1-6.1-3,9.5,9.5,0,0,1-2.3-6.4A13.2,13.2,0,0,1,237.1,343.6Z" style="fill:#047267"/><path d="M257.9,355.7c2-.3,4.1-.3,5.9-1.1a5.4,5.4,0,0,0,2.8-3.8,23.6,23.6,0,0,0,0-11.8,14.3,14.3,0,0,1,2.6,12.3,7.7,7.7,0,0,1-1.6,3.1,5.4,5.4,0,0,1-3,2A11.7,11.7,0,0,1,257.9,355.7Z" style="fill:#047267"/><path d="M264.3,215.8a97.1,97.1,0,0,1-15.4,15.4,102.5,102.5,0,0,1-33.3,18,50.1,50.1,0,0,0,0,17.9,59.5,59.5,0,0,0,28.2,41.1,35.2,35.2,0,0,0,5.1,2.6,10.2,10.2,0,0,1,0,7.7,9.7,9.7,0,0,1-5.1,5.1,9.6,9.6,0,0,0,7.7,2.6,10.5,10.5,0,0,0,7.7-5.2V308.2a56.3,56.3,0,0,0,10.2-5.1c10.8-7.2,15.4-17.5,18-23.1a64,64,0,0,0,5.1-30.8,171.4,171.4,0,0,1-12.8-12.8A137.3,137.3,0,0,1,264.3,215.8Z" style="fill:#e8c8c1"/><path d="M264.3,215.8a99,99,0,0,1-21.8,20.6,95.1,95.1,0,0,1-26.9,13.3l.5-.5a54.8,54.8,0,0,0,.2,18.5,58.6,58.6,0,0,0,17.5,32,48.7,48.7,0,0,0,7.2,5.7,40,40,0,0,0,8.2,4.3l.2.3v.2a10.4,10.4,0,0,1,0,8.3,11.1,11.1,0,0,1-5.6,5.9l.2-1.6a9.2,9.2,0,0,0,7.5,2.3,10,10,0,0,0,6.4-4.6V307.7l.5-.3a45.3,45.3,0,0,0,15.1-9,48,48,0,0,0,10.6-14.3,69.1,69.1,0,0,0,6.1-17,71.4,71.4,0,0,0,1.3-17.9l.2.2A157.3,157.3,0,0,1,264.3,215.8Zm0,0a160.6,160.6,0,0,0,28.5,32.9l.2.2v.3a61.6,61.6,0,0,1-1,18.2,66.1,66.1,0,0,1-5.9,17.2,47.8,47.8,0,0,1-10.8,14.9,50.3,50.3,0,0,1-15.6,9.5l.5-.8v13.3a11.5,11.5,0,0,1-3.3,3.6,8.5,8.5,0,0,1-4.4,1.8,12,12,0,0,1-9.2-2.5l-1.1-1.1,1.3-.5a8,8,0,0,0,4.6-4.9,9.4,9.4,0,0,0,0-6.6l.5.5c-2.8-1.6-5.6-2.8-8.4-4.6a88.6,88.6,0,0,1-7.5-5.9,61.5,61.5,0,0,1-11.5-15.2,56,56,0,0,1-6.2-17.9,60.5,60.5,0,0,1,0-19v-.5h.3A106.7,106.7,0,0,0,264.3,215.8Z" style="fill:#c4a290"/><g style="opacity:0.25"><path d="M218.4,273.3c2.3,8,7.2,14.6,12.5,20.8,2.9,3.1,5.7,5.9,8.5,8.7s5.7,5.9,9.5,8c-4.1-1.3-7.4-3.9-10.8-6.5a53.8,53.8,0,0,1-9.2-8.7,47.2,47.2,0,0,1-7.2-10.2A33.1,33.1,0,0,1,218.4,273.3Z" style="fill:#b2806b"/></g><path d="M260.7,304.3a66.2,66.2,0,0,0,17.7-17.7,74.7,74.7,0,0,0,9.8-23c0,8.7-2.9,17.1-7.7,24.6A44.3,44.3,0,0,1,260.7,304.3Z" style="fill:#efd6ce"/><g style="opacity:0.25"><path d="M216.6,263.8c-2.8-5.6,0-13.8,6.4-16.9a23.6,23.6,0,0,1,9.5-2.3,48,48,0,0,0,8.7-1.3,43.6,43.6,0,0,0,8.2-2.6,25,25,0,0,0,7.2-4.3,24.5,24.5,0,0,0,8.7-14.7c1,6.2-1.5,12.9-6.1,17.7s-10.8,7.7-17,9.3a43.2,43.2,0,0,1-9.5,1,29.2,29.2,0,0,0-8.2,1C219.9,252,216.1,257.7,216.6,263.8Z" style="fill:#b2806b"/></g><path d="M217.9,238.9c-6.2,12.3-7.5,27.5-1.1,39.8a40.5,40.5,0,0,0,.3-15.9,23.3,23.3,0,0,1-.8-6.9c.8-5.2,6.2-8,11.1-9.8,6.6-2.3,13.8-4.1,20.2-6.9s12.8-7.2,15.9-13.6a35.1,35.1,0,0,0,11.6,16.9c3.8,3.1,8.2,5.1,11.8,8.7s6.1,8.5,4.6,13.1c5.4-5.9,6.2-15.1,3.6-22.8s-7.7-14.1-12.6-20.3c4.1-3.8,8.7-8.7,8-14.3-.3-3.6-2.6-6.5-5.7-8.5s-6.4-2.6-10-2.8-4.9-.3-7.2-.8-4.3-1.5-6.6-1.8c-4.7-.8-10,.8-12.9,4.6a14.8,14.8,0,0,0-2.3,5.9c-.2,2.1,1.3,4.6,1.1,6.2-.6,3.3-7,5.6-9.8,7.7C229.1,223,222.2,230.2,217.9,238.9Z" style="fill:#a67c52"/><path d="M217.9,238.9a48.9,48.9,0,0,0-5.2,19.8,38.1,38.1,0,0,0,4.4,19.7h-.5a33.5,33.5,0,0,0,.7-10,29.4,29.4,0,0,0-.5-5.1c-.2-1.5-.7-3.3-1-5.1a10.2,10.2,0,0,1,.8-5.4,9.7,9.7,0,0,1,3.3-4.1,28.4,28.4,0,0,1,9.2-4.6c6.5-2.4,13.1-4.2,19-7s11.3-7.2,14.1-12.8l1.8-3.6,1.3,3.9a32.5,32.5,0,0,0,5.7,10.5,37.6,37.6,0,0,0,8.9,7.9c3.4,2.3,7.2,4.4,10.3,8a17.2,17.2,0,0,1,3.3,6.1,12,12,0,0,1,0,7.5l-3.3-1.8a17,17,0,0,0,4.4-9.8,25.9,25.9,0,0,0-1.1-11c-2.3-7.2-7.1-13.6-12-20l-1-1.3,1-1c3.6-3.4,7.2-6.9,7.9-11.6s-2.8-8.7-7.1-10.5a26.8,26.8,0,0,0-7-1.8,51.6,51.6,0,0,1-7.7-.8c-2.5-.5-4.8-1.7-7.2-2a13.5,13.5,0,0,0-7.1,1,12.2,12.2,0,0,0-5.4,4.6c-1.3,2.1-2.1,4.7-1.3,7s.8,2.5.5,3.8a5.5,5.5,0,0,1-2.3,3.1,55.1,55.1,0,0,1-6.7,3.8C229.7,222.5,222.5,229.9,217.9,238.9Zm0,0a64.8,64.8,0,0,1,20-22.6,42.7,42.7,0,0,0,6.4-4.1,4.9,4.9,0,0,0,2-2.8c.3-1-.2-2.3-.5-3.6-1.5-5.1,2.1-10.8,7-12.8a16.5,16.5,0,0,1,7.6-1.3c2.6.3,5.2,1.3,7.5,1.8a35.9,35.9,0,0,0,7.4.5,25.8,25.8,0,0,1,7.7,1.6,12.9,12.9,0,0,1,6.4,4.8,11.1,11.1,0,0,1,2.6,8,16.8,16.8,0,0,1-3.1,7.7,36.7,36.7,0,0,1-5.1,5.9l.3-2.1c5.1,6.2,10.5,12.6,13,20.8a30.8,30.8,0,0,1,1.3,12.8c-.5,4.4-2,8.8-5.1,11.8l-3.3-1.7c1-3.1-.3-7-2.9-9.8s-5.9-4.9-9.5-7.4a37.9,37.9,0,0,1-9.5-8.8,43.2,43.2,0,0,1-5.9-11.5l2.9.3c-3.4,6.6-9.5,10.7-15.9,13.5s-13.1,4.4-19.5,6.5c-3.4,1-6.5,2-9,4.1a9.1,9.1,0,0,0-4.1,8.2,44.4,44.4,0,0,0,.7,4.9,28.4,28.4,0,0,1,.6,5.1,44.3,44.3,0,0,1-1.1,10.2l-.2.8-.3-.5a41.8,41.8,0,0,1-4.1-20A52.9,52.9,0,0,1,217.9,238.9Z" style="fill:#754c24"/><g style="opacity:0.5"><path d="M248.9,213a20.7,20.7,0,0,1,15.1,0,26.3,26.3,0,0,1,12.6,8.5,57.3,57.3,0,0,0-13.3-6.7A34.3,34.3,0,0,0,248.9,213Z" style="fill:#ddaf73"/></g><g style="opacity:0.5"><path d="M216.6,246.6c-.3-3.3,1.3-6.7,3.3-9.5a52.8,52.8,0,0,1,6.9-7.2c2.6-2,5.2-4.1,8-5.9a39.1,39.1,0,0,1,9-4.3,98.4,98.4,0,0,0-8.2,5.6l-7.7,6.2a64.9,64.9,0,0,0-7.2,6.7A20.7,20.7,0,0,0,216.6,246.6Z" style="fill:#ddaf73"/></g><g style="opacity:0.5"><path d="M227.9,239.4a42.7,42.7,0,0,0,9.2-2.3,75.5,75.5,0,0,0,8.5-4.3,93.3,93.3,0,0,0,7.7-5.9l7.1-6.7a41.3,41.3,0,0,1-6.1,7.7,62.8,62.8,0,0,1-7.4,6.4,30.5,30.5,0,0,1-9,4.1A23,23,0,0,1,227.9,239.4Z" style="fill:#ddaf73"/></g><g style="opacity:0.5"><path d="M268.7,225.8c2,3.9,5.3,6.2,8.9,8.2s7.7,3.9,10.8,7l-.2.2c-.3-.5-.3-.7-.6-1.3a7.6,7.6,0,0,1,.8,1.1l-.2.2c-3.6-2-7.7-3.3-11.6-5.6a17.7,17.7,0,0,1-5.1-4.1A14.5,14.5,0,0,1,268.7,225.8Z" style="fill:#ddaf73"/></g><g style="opacity:0.5"><path d="M252,207.4a6,6,0,0,1-1.8-4.7,5.1,5.1,0,0,1,2.3-4.3c-.3,1.8-.3,3.1-.5,4.3Z" style="fill:#ddaf73"/></g><g style="opacity:0.5"><path d="M257.6,209.2a32.3,32.3,0,0,1,0-4.4,14.8,14.8,0,0,1,1.3-4.1,6.1,6.1,0,0,1,.5,4.4A7,7,0,0,1,257.6,209.2Z" style="fill:#ddaf73"/></g><g style="opacity:0.5"><path d="M263.3,210.4c.5-1.5,1-2.5,1.5-3.8a15.7,15.7,0,0,1,2.1-3.6,6.6,6.6,0,0,1-.3,4.4C265.8,208.9,264.8,210.2,263.3,210.4Z" style="fill:#ddaf73"/></g><g style="opacity:0.5"><path d="M269.9,212.8a15.8,15.8,0,0,0,3.6-4.2,7.6,7.6,0,0,0,1.3-2.3l.5-1.2c.3-.3.5-.8,1.1-.6a.7.7,0,0,1,.2.6.2.2,0,0,1-.2.2c-.3-.8,0,.5,0,1.6a7.2,7.2,0,0,1-1.3,2.8A5.9,5.9,0,0,1,269.9,212.8Z" style="fill:#ddaf73"/></g><g style="opacity:0.5"><path d="M276.9,216.6l4.8-3.3,4.9-3.6a9.5,9.5,0,0,1-3.8,5.1A8,8,0,0,1,276.9,216.6Z" style="fill:#ddaf73"/></g><path d="M251.2,264.8c-.5,4.4-1.3,8.5-1.8,12.9a4.3,4.3,0,0,0,0,2.3c0,.2,1.6.5,2.3.5a26.4,26.4,0,0,0,6.2-.8,15.9,15.9,0,0,1-6.2,2.3h-1.8a2.4,2.4,0,0,1-2-.7,4.6,4.6,0,0,1-.8-2.1,3.2,3.2,0,0,1,.3-1.8A48.4,48.4,0,0,1,251.2,264.8Z" style="fill:#b2806b"/><circle cx="267.1" cy="265.6" r="2.6"/><circle cx="238.9" cy="265.6" r="2.6"/><path d="M250.1,295.4a21.6,21.6,0,0,0,8.9-2.5,6.8,6.8,0,0,1-1.1,7.2,9,9,0,0,1-6.8,2.7,7.2,7.2,0,0,1-4.1-.8c-1.6-.8-2.6-2.4-3.6-4s-2.4-3.8.3-3.8S247.8,295.5,250.1,295.4Z" style="stroke:#b2806b;stroke-miterlimit:10;stroke-width:1.56263732910156px;fill:url(#linear-gradient)"/><path d="M274.6,361.3h0c.7.3,1.2.5,1,.8l-10.5,10.2a1.8,1.8,0,0,1-1.3.3L213.2,368c-1.5-.3-1.8-1.1-.5-1.6l24.1-8.4c.3,0,.8-.3,1.1,0l36.1,3C274,361.3,274.3,361.3,274.6,361.3Z" style="fill:none;stroke:#999;stroke-miterlimit:10;stroke-width:0.425381436984972px"/><path d="M275.3,362.3l-10.7,10a1.6,1.6,0,0,1-1.6.3l-49.8-4.4c-1.8-.2-2-1-.5-1.5l23.1-8.2a13,13,0,0,1,1.3-.3l36.4,2.8C274.8,361.3,275.8,361.8,275.3,362.3Z"/><polygon points="271.7 361.8 237.6 359 217.3 366.9 260.7 371.1 271.7 361.8" style="fill:#fff;opacity:0.879999995231628;isolation:isolate"/><polygon points="266.1 363.4 261.7 366.4 250.4 365.4 256.3 362.6 266.1 363.4" style="fill:url(#linear-gradient-2)"/><line x1="252.5" y1="362.6" x2="234.8" y2="361" style="fill:none;stroke:#ccc;stroke-linecap:round;stroke-miterlimit:10;stroke-width:0.425381436984972px"/><line x1="250.2" y1="363.6" x2="233.3" y2="362.1" style="fill:none;stroke:#ccc;stroke-linecap:round;stroke-miterlimit:10;stroke-width:0.425381436984972px"/><line x1="247.6" y1="364.4" x2="230.7" y2="363.1" style="fill:none;stroke:#ccc;stroke-linecap:round;stroke-miterlimit:10;stroke-width:0.425381436984972px"/><polygon points="271.7 361.8 237.6 359 235.6 359.8 270.7 362.6 271.7 361.8" style="fill:#522e90"/><line x1="269.9" y1="361.8" x2="267.6" y2="361.8" style="fill:none;stroke:#fff;stroke-linecap:round;stroke-width:0.212654877057985px"/><line x1="269.9" y1="362.1" x2="267.6" y2="362.1" style="fill:none;stroke:#fff;stroke-linecap:round;stroke-width:0.212654877057985px"/><line x1="269.7" y1="362.3" x2="267.4" y2="362.1" style="fill:none;stroke:#fff;stroke-linecap:round;stroke-width:0.212654877057985px"/><path d="M267.9,366.2c.2.2,1,.2,1.5.2s1.1-.2.8-.5a3.4,3.4,0,0,0-1.5-.2C267.9,365.7,267.6,365.9,267.9,366.2Z" style="stroke:#333;stroke-miterlimit:10;stroke-width:0.106327448086709px;fill:url(#linear-gradient-3)"/><path d="M227.9,361.8h0Z" style="fill:#fff;stroke-miterlimit:10;stroke-width:0.021265487705797px;opacity:0.819999992847443;isolation:isolate;stroke:url(#linear-gradient-4)"/><g style="opacity:0.150000005960464"><path id="SVGID" d="M275.3,362.3l-10.7,10a1.6,1.6,0,0,1-1.6.3l-49.8-4.4c-1.8-.2-2-1-.5-1.5l23.1-8.2a13,13,0,0,1,1.3-.3l36.4,2.8C274.8,361.3,275.8,361.8,275.3,362.3Z" style="fill:#fff;opacity:0.150000005960464;isolation:isolate"/><g style="clip-path:url(#clip-path)"><polygon points="264 372.6 236.3 358.2 276.4 361.3 264 372.6" style="fill:#fff"/></g></g><g style="opacity:0.109999999403954"><g style="clip-path:url(#clip-path)"><polygon points="264 372.6 236.3 358.2 276.4 361.3 264 372.6" style="fill:#fff;stroke-miterlimit:10;stroke-width:0.021265487705797px;stroke:url(#linear-gradient-5)"/></g></g><polygon points="236.2 361.6 224.6 293.9 292.6 296.7 261.6 367 236.2 361.6" style="opacity:0.209999993443489;isolation:isolate;fill:url(#linear-gradient-6)"/></g></svg>